<?xml version="1.0" encoding="UTF-8" standalone="no"?>
<!DOCTYPE svg PUBLIC "-//W3C//DTD SVG 1.1//EN"
 "http://www.w3.org/Graphics/SVG/1.1/DTD/svg11.dtd">
<!-- Generated by graphviz version 2.43.0 (0)
 -->
<!-- Title: %3 Pages: 1 -->
<svg width="160pt" height="528pt"
 viewBox="0.00 0.00 160.09 527.57" xmlns="http://www.w3.org/2000/svg" xmlns:xlink="http://www.w3.org/1999/xlink">
<g id="graph0" class="graph" transform="scale(1 1) rotate(0) translate(4 523.57)">
<title>%3</title>
<polygon fill="white" stroke="transparent" points="-4,4 -4,-523.57 156.09,-523.57 156.09,4 -4,4"/>
<!-- ENTRY -->
<g id="node1" class="node">
<title>ENTRY</title>
<ellipse fill="black" stroke="black" cx="76.04" cy="-517.77" rx="1.8" ry="1.8"/>
</g>
<!-- 0 -->
<g id="node4" class="node">
<title>0</title>
<ellipse fill="none" stroke="black" cx="76.04" cy="-422.42" rx="56.59" ry="56.59"/>
<text text-anchor="middle" x="76.04" y="-418.72" font-family="Times,serif" font-size="14.00">0 &lt; Eps.0</text>
</g>
<!-- ENTRY&#45;&gt;0 -->
<g id="edge1" class="edge">
<title>ENTRY&#45;&gt;0</title>
<path fill="none" stroke="black" d="M76.04,-515.72C76.04,-512.46 76.04,-501.97 76.04,-489.16"/>
<polygon fill="black" stroke="black" points="79.54,-489 76.04,-479 72.54,-489 79.54,-489"/>
</g>
<!-- 2 -->
<g id="node2" class="node">
<title>2</title>
<ellipse fill="none" stroke="red" cx="76.04" cy="-55.9" rx="55.79" ry="55.79"/>
<text text-anchor="middle" x="76.04" y="-52.2" font-family="Times,serif" font-size="14.00">2 &lt; {a}.0</text>
</g>
<!-- 1 -->
<g id="node3" class="node">
<title>1</title>
<ellipse fill="none" stroke="black" cx="76.04" cy="-238.83" rx="76.09" ry="76.09"/>
<text text-anchor="middle" x="76.04" y="-235.13" font-family="Times,serif" font-size="14.00">1 &lt; {a}.{a}.0</text>
</g>
<!-- 1&#45;&gt;2 -->
<g id="edge2" class="edge">
<title>1&#45;&gt;2</title>
<path fill="none" stroke="black" d="M76.04,-162.67C76.04,-149.26 76.04,-135.39 76.04,-122.29"/>
<polygon fill="black" stroke="black" points="79.54,-121.96 76.04,-111.96 72.54,-121.96 79.54,-121.96"/>
<text text-anchor="middle" x="84.04" y="-133.59" font-family="Times,serif" font-size="14.00">?a</text>
</g>
<!-- 0&#45;&gt;1 -->
<g id="edge3" class="edge">
<title>0&#45;&gt;1</title>
<path fill="none" stroke="black" d="M76.04,-365.46C76.04,-352.75 76.04,-338.97 76.04,-325.36"/>
<polygon fill="black" stroke="black" points="79.54,-324.99 76.04,-314.99 72.54,-324.99 79.54,-324.99"/>
<text text-anchor="middle" x="84.04" y="-336.68" font-family="Times,serif" font-size="14.00">!b</text>
</g>
</g>
</svg>
