<?xml version="1.0" encoding="UTF-8" standalone="no"?>
<!DOCTYPE svg PUBLIC "-//W3C//DTD SVG 1.1//EN"
 "http://www.w3.org/Graphics/SVG/1.1/DTD/svg11.dtd">
<!-- Generated by graphviz version 2.43.0 (0)
 -->
<!-- Title: %3 Pages: 1 -->
<svg width="267pt" height="259pt"
 viewBox="0.00 0.00 267.00 258.60" xmlns="http://www.w3.org/2000/svg" xmlns:xlink="http://www.w3.org/1999/xlink">
<g id="graph0" class="graph" transform="scale(1 1) rotate(0) translate(4 254.6)">
<title>%3</title>
<polygon fill="white" stroke="transparent" points="-4,4 -4,-254.6 263,-254.6 263,4 -4,4"/>
<!-- ENTRY -->
<g id="node1" class="node">
<title>ENTRY</title>
<ellipse fill="black" stroke="black" cx="131" cy="-248.8" rx="1.8" ry="1.8"/>
</g>
<!-- 0 -->
<g id="node2" class="node">
<title>0</title>
<ellipse fill="none" stroke="black" cx="131" cy="-192" rx="18" ry="18"/>
<text text-anchor="middle" x="131" y="-188.3" font-family="Times,serif" font-size="14.00">0</text>
</g>
<!-- ENTRY&#45;&gt;0 -->
<g id="edge1" class="edge">
<title>ENTRY&#45;&gt;0</title>
<path fill="none" stroke="black" d="M131,-246.85C131,-243.49 131,-231.73 131,-220.05"/>
<polygon fill="black" stroke="black" points="134.5,-220.02 131,-210.02 127.5,-220.02 134.5,-220.02"/>
</g>
<!-- 4 -->
<g id="node3" class="node">
<title>4</title>
<ellipse fill="none" stroke="black" cx="53" cy="-105" rx="18" ry="18"/>
<text text-anchor="middle" x="53" y="-101.3" font-family="Times,serif" font-size="14.00">4</text>
</g>
<!-- 0&#45;&gt;4 -->
<g id="edge2" class="edge">
<title>0&#45;&gt;4</title>
<path fill="none" stroke="black" d="M114.65,-183.44C102.95,-177.38 87.48,-167.91 77,-156 70.87,-149.04 65.96,-140.24 62.21,-131.97"/>
<polygon fill="black" stroke="black" points="65.41,-130.54 58.35,-122.64 58.95,-133.22 65.41,-130.54"/>
<text text-anchor="middle" x="85" y="-144.8" font-family="Times,serif" font-size="14.00">!b</text>
</g>
<!-- 1 -->
<g id="node6" class="node">
<title>1</title>
<ellipse fill="none" stroke="black" cx="208" cy="-105" rx="18" ry="18"/>
<text text-anchor="middle" x="208" y="-101.3" font-family="Times,serif" font-size="14.00">1</text>
</g>
<!-- 0&#45;&gt;1 -->
<g id="edge7" class="edge">
<title>0&#45;&gt;1</title>
<path fill="none" stroke="black" d="M144.58,-179.92C152.36,-173.31 162.11,-164.56 170,-156 177.76,-147.58 185.55,-137.66 192.03,-128.88"/>
<polygon fill="black" stroke="black" points="195.01,-130.73 198.04,-120.58 189.34,-126.63 195.01,-130.73"/>
<text text-anchor="middle" x="189.5" y="-144.8" font-family="Times,serif" font-size="14.00">!a</text>
</g>
<!-- 6 -->
<g id="node4" class="node">
<title>6</title>
<ellipse fill="none" stroke="black" cx="18" cy="-18" rx="18" ry="18"/>
<text text-anchor="middle" x="18" y="-14.3" font-family="Times,serif" font-size="14.00">6</text>
</g>
<!-- 4&#45;&gt;6 -->
<g id="edge3" class="edge">
<title>4&#45;&gt;6</title>
<path fill="none" stroke="black" d="M45.61,-88.42C42.82,-82.39 39.68,-75.41 37,-69 33.73,-61.17 30.37,-52.56 27.4,-44.72"/>
<polygon fill="black" stroke="black" points="30.67,-43.46 23.89,-35.32 24.11,-45.91 30.67,-43.46"/>
<text text-anchor="middle" x="45.5" y="-57.8" font-family="Times,serif" font-size="14.00">?d</text>
</g>
<!-- 5 -->
<g id="node5" class="node">
<title>5</title>
<ellipse fill="none" stroke="black" cx="99" cy="-18" rx="18" ry="18"/>
<text text-anchor="middle" x="99" y="-14.3" font-family="Times,serif" font-size="14.00">5</text>
</g>
<!-- 4&#45;&gt;5 -->
<g id="edge5" class="edge">
<title>4&#45;&gt;5</title>
<path fill="none" stroke="black" d="M60.11,-88C64.67,-78.07 70.86,-65.13 77,-54 79.15,-50.11 81.54,-46.06 83.94,-42.15"/>
<polygon fill="black" stroke="black" points="87.06,-43.75 89.42,-33.42 81.13,-40.03 87.06,-43.75"/>
<text text-anchor="middle" x="85" y="-57.8" font-family="Times,serif" font-size="14.00">?x</text>
</g>
<!-- 6&#45;&gt;0 -->
<g id="edge4" class="edge">
<title>6&#45;&gt;0</title>
<path fill="none" stroke="black" d="M11.61,-34.96C4.11,-56.43 -5.47,-95.14 10,-123 29.36,-157.86 74.25,-176.07 103.58,-184.58"/>
<polygon fill="black" stroke="black" points="102.67,-187.96 113.24,-187.2 104.5,-181.21 102.67,-187.96"/>
<text text-anchor="middle" x="18" y="-101.3" font-family="Times,serif" font-size="14.00">?e</text>
</g>
<!-- 5&#45;&gt;0 -->
<g id="edge6" class="edge">
<title>5&#45;&gt;0</title>
<path fill="none" stroke="black" d="M102.14,-35.87C107.69,-65.72 119.29,-128.07 125.97,-163.97"/>
<polygon fill="black" stroke="black" points="122.6,-165 127.87,-174.19 129.49,-163.72 122.6,-165"/>
<text text-anchor="middle" x="124.5" y="-101.3" font-family="Times,serif" font-size="14.00">?f</text>
</g>
<!-- 3 -->
<g id="node7" class="node">
<title>3</title>
<ellipse fill="none" stroke="black" cx="178" cy="-18" rx="18" ry="18"/>
<text text-anchor="middle" x="178" y="-14.3" font-family="Times,serif" font-size="14.00">3</text>
</g>
<!-- 1&#45;&gt;3 -->
<g id="edge8" class="edge">
<title>1&#45;&gt;3</title>
<path fill="none" stroke="black" d="M199.71,-88.61C196.69,-82.6 193.43,-75.59 191,-69 188.27,-61.59 185.88,-53.37 183.92,-45.77"/>
<polygon fill="black" stroke="black" points="187.29,-44.81 181.52,-35.92 180.49,-46.47 187.29,-44.81"/>
<text text-anchor="middle" x="199.5" y="-57.8" font-family="Times,serif" font-size="14.00">?d</text>
</g>
<!-- 2 -->
<g id="node8" class="node">
<title>2</title>
<ellipse fill="none" stroke="black" cx="241" cy="-18" rx="18" ry="18"/>
<text text-anchor="middle" x="241" y="-14.3" font-family="Times,serif" font-size="14.00">2</text>
</g>
<!-- 1&#45;&gt;2 -->
<g id="edge10" class="edge">
<title>1&#45;&gt;2</title>
<path fill="none" stroke="black" d="M214.21,-88.01C218.95,-75.78 225.6,-58.68 231.08,-44.56"/>
<polygon fill="black" stroke="black" points="234.46,-45.51 234.82,-34.92 227.94,-42.97 234.46,-45.51"/>
<text text-anchor="middle" x="234" y="-57.8" font-family="Times,serif" font-size="14.00">?x</text>
</g>
<!-- 3&#45;&gt;0 -->
<g id="edge9" class="edge">
<title>3&#45;&gt;0</title>
<path fill="none" stroke="black" d="M173.51,-35.44C165.34,-65.33 148,-128.78 138.18,-164.73"/>
<polygon fill="black" stroke="black" points="134.77,-163.94 135.51,-174.51 141.52,-165.78 134.77,-163.94"/>
<text text-anchor="middle" x="167" y="-101.3" font-family="Times,serif" font-size="14.00">?e</text>
</g>
<!-- 2&#45;&gt;0 -->
<g id="edge11" class="edge">
<title>2&#45;&gt;0</title>
<path fill="none" stroke="black" d="M244.25,-36.05C247.48,-57.71 250.02,-95.55 235,-123 218.62,-152.94 182.77,-171.84 157.76,-181.92"/>
<polygon fill="black" stroke="black" points="156.23,-178.76 148.13,-185.59 158.72,-185.3 156.23,-178.76"/>
<text text-anchor="middle" x="251.5" y="-101.3" font-family="Times,serif" font-size="14.00">?f</text>
</g>
</g>
</svg>
