<?xml version="1.0" encoding="UTF-8" standalone="no"?>
<!DOCTYPE svg PUBLIC "-//W3C//DTD SVG 1.1//EN"
 "http://www.w3.org/Graphics/SVG/1.1/DTD/svg11.dtd">
<!-- Generated by graphviz version 2.43.0 (0)
 -->
<!-- Title: %3 Pages: 1 -->
<svg width="473pt" height="872pt"
 viewBox="0.00 0.00 472.62 871.85" xmlns="http://www.w3.org/2000/svg" xmlns:xlink="http://www.w3.org/1999/xlink">
<g id="graph0" class="graph" transform="scale(1 1) rotate(0) translate(4 867.85)">
<title>%3</title>
<polygon fill="white" stroke="transparent" points="-4,4 -4,-867.85 468.62,-867.85 468.62,4 -4,4"/>
<!-- ENTRY -->
<g id="node1" class="node">
<title>ENTRY</title>
<ellipse fill="black" stroke="black" cx="177.48" cy="-862.05" rx="1.8" ry="1.8"/>
</g>
<!-- 0 -->
<g id="node4" class="node">
<title>0</title>
<ellipse fill="none" stroke="black" cx="177.48" cy="-753.25" rx="70.01" ry="70.01"/>
<text text-anchor="middle" x="177.48" y="-757.05" font-family="Times,serif" font-size="14.00">0 &lt; Eps.0</text>
<text text-anchor="middle" x="177.48" y="-742.05" font-family="Times,serif" font-size="14.00">({b,c,a})*.2</text>
</g>
<!-- ENTRY&#45;&gt;0 -->
<g id="edge1" class="edge">
<title>ENTRY&#45;&gt;0</title>
<path fill="none" stroke="black" d="M177.48,-859.85C177.48,-856.47 177.48,-846.28 177.48,-833.49"/>
<polygon fill="black" stroke="black" points="180.98,-833.26 177.48,-823.26 173.98,-833.26 180.98,-833.26"/>
</g>
<!-- 2 -->
<g id="node2" class="node">
<title>2</title>
<ellipse fill="none" stroke="black" cx="177.48" cy="-177.48" rx="177.47" ry="177.47"/>
<text text-anchor="middle" x="177.48" y="-211.28" font-family="Times,serif" font-size="14.00">2 &lt; ({b,c,a})*.{c}.{a}.{c}.{a}.2</text>
<text text-anchor="middle" x="177.48" y="-196.28" font-family="Times,serif" font-size="14.00">{a}.{b}.2</text>
<text text-anchor="middle" x="177.48" y="-181.28" font-family="Times,serif" font-size="14.00">{a}.{c}.{a}.2</text>
<text text-anchor="middle" x="177.48" y="-166.28" font-family="Times,serif" font-size="14.00">({b,c,a})*.{b}.{b}.2</text>
<text text-anchor="middle" x="177.48" y="-151.28" font-family="Times,serif" font-size="14.00">({b,c,a})*.{c}.{a}.{b}.2</text>
<text text-anchor="middle" x="177.48" y="-136.28" font-family="Times,serif" font-size="14.00">({b,c,a})*.{b}.{c}.{a}.2</text>
</g>
<!-- 2&#45;&gt;0 -->
<g id="edge2" class="edge">
<title>2&#45;&gt;0</title>
<path fill="none" stroke="black" d="M123.26,-346.58C103.1,-432.81 90.19,-539.04 113.48,-632.24 118,-650.31 125.81,-668.64 134.46,-685.36"/>
<polygon fill="black" stroke="black" points="131.53,-687.3 139.33,-694.46 137.7,-683.99 131.53,-687.3"/>
<text text-anchor="middle" x="121.48" y="-515.4" font-family="Times,serif" font-size="14.00">?a</text>
</g>
<!-- 2&#45;&gt;0 -->
<g id="edge4" class="edge">
<title>2&#45;&gt;0</title>
<path fill="none" stroke="black" d="M166.58,-354.72C162.98,-438.78 160.92,-540.74 165.48,-632.24 166.14,-645.49 167.21,-659.53 168.45,-673.16"/>
<polygon fill="black" stroke="black" points="165,-673.85 169.42,-683.48 171.97,-673.2 165,-673.85"/>
<text text-anchor="middle" x="173.48" y="-515.4" font-family="Times,serif" font-size="14.00">?c</text>
</g>
<!-- 2&#45;&gt;0 -->
<g id="edge6" class="edge">
<title>2&#45;&gt;0</title>
<path fill="none" stroke="black" d="M181.58,-355.09C183.06,-447.5 183.84,-562.48 181.48,-665.24 181.43,-667.75 181.36,-670.31 181.28,-672.89"/>
<polygon fill="black" stroke="black" points="177.78,-672.81 180.96,-682.92 184.78,-673.04 177.78,-672.81"/>
<text text-anchor="middle" x="191.98" y="-515.4" font-family="Times,serif" font-size="14.00">?b</text>
</g>
<!-- 1 -->
<g id="node3" class="node">
<title>1</title>
<ellipse fill="none" stroke="black" cx="351.48" cy="-519.1" rx="113.27" ry="113.27"/>
<text text-anchor="middle" x="351.48" y="-530.4" font-family="Times,serif" font-size="14.00">1 &lt; {a}.2</text>
<text text-anchor="middle" x="351.48" y="-515.4" font-family="Times,serif" font-size="14.00">({b,c,a})*.{b}.2</text>
<text text-anchor="middle" x="351.48" y="-500.4" font-family="Times,serif" font-size="14.00">({b,c,a})*.{c}.{a}.2</text>
</g>
<!-- 1&#45;&gt;2 -->
<g id="edge5" class="edge">
<title>1&#45;&gt;2</title>
<path fill="none" stroke="black" d="M300.22,-418.04C288.43,-395.04 275.59,-369.97 262.79,-345"/>
<polygon fill="black" stroke="black" points="265.76,-343.11 258.09,-335.8 259.53,-346.3 265.76,-343.11"/>
<text text-anchor="middle" x="286.98" y="-376.77" font-family="Times,serif" font-size="14.00">!x</text>
</g>
<!-- 0&#45;&gt;1 -->
<g id="edge3" class="edge">
<title>0&#45;&gt;1</title>
<path fill="none" stroke="black" d="M219.16,-696.64C236.75,-673.18 257.76,-645.15 277.8,-618.4"/>
<polygon fill="black" stroke="black" points="280.79,-620.25 283.99,-610.15 275.19,-616.05 280.79,-620.25"/>
<text text-anchor="middle" x="255.98" y="-654.04" font-family="Times,serif" font-size="14.00">!x</text>
</g>
</g>
</svg>
