<?xml version="1.0" encoding="UTF-8" standalone="no"?>
<!DOCTYPE svg PUBLIC "-//W3C//DTD SVG 1.1//EN"
 "http://www.w3.org/Graphics/SVG/1.1/DTD/svg11.dtd">
<!-- Generated by graphviz version 2.43.0 (0)
 -->
<!-- Title: %3 Pages: 1 -->
<svg width="153pt" height="259pt"
 viewBox="0.00 0.00 153.00 258.60" xmlns="http://www.w3.org/2000/svg" xmlns:xlink="http://www.w3.org/1999/xlink">
<g id="graph0" class="graph" transform="scale(1 1) rotate(0) translate(4 254.6)">
<title>%3</title>
<polygon fill="white" stroke="transparent" points="-4,4 -4,-254.6 149,-254.6 149,4 -4,4"/>
<!-- ENTRY -->
<g id="node1" class="node">
<title>ENTRY</title>
<ellipse fill="black" stroke="black" cx="98" cy="-248.8" rx="1.8" ry="1.8"/>
</g>
<!-- 0 -->
<g id="node2" class="node">
<title>0</title>
<ellipse fill="none" stroke="black" cx="98" cy="-192" rx="18" ry="18"/>
<text text-anchor="middle" x="98" y="-188.3" font-family="Times,serif" font-size="14.00">0</text>
</g>
<!-- ENTRY&#45;&gt;0 -->
<g id="edge1" class="edge">
<title>ENTRY&#45;&gt;0</title>
<path fill="none" stroke="black" d="M98,-246.85C98,-243.49 98,-231.73 98,-220.05"/>
<polygon fill="black" stroke="black" points="101.5,-220.02 98,-210.02 94.5,-220.02 101.5,-220.02"/>
</g>
<!-- 1 -->
<g id="node3" class="node">
<title>1</title>
<ellipse fill="none" stroke="black" cx="18" cy="-105" rx="18" ry="18"/>
<text text-anchor="middle" x="18" y="-101.3" font-family="Times,serif" font-size="14.00">1</text>
</g>
<!-- 0&#45;&gt;1 -->
<g id="edge2" class="edge">
<title>0&#45;&gt;1</title>
<path fill="none" stroke="black" d="M81.9,-183.71C69.95,-177.66 53.92,-168.1 43,-156 36.65,-148.96 31.5,-140 27.56,-131.62"/>
<polygon fill="black" stroke="black" points="30.68,-130 23.5,-122.2 24.25,-132.77 30.68,-130"/>
<text text-anchor="middle" x="50.5" y="-144.8" font-family="Times,serif" font-size="14.00">!x</text>
</g>
<!-- 2 -->
<g id="node4" class="node">
<title>2</title>
<ellipse fill="none" stroke="black" cx="98" cy="-18" rx="18" ry="18"/>
<text text-anchor="middle" x="98" y="-14.3" font-family="Times,serif" font-size="14.00">2</text>
</g>
<!-- 1&#45;&gt;2 -->
<g id="edge3" class="edge">
<title>1&#45;&gt;2</title>
<path fill="none" stroke="black" d="M23.5,-87.8C27.66,-77.3 34.16,-63.8 43,-54 51.36,-44.73 62.72,-36.96 72.94,-31.11"/>
<polygon fill="black" stroke="black" points="74.75,-34.11 81.9,-26.29 71.43,-27.94 74.75,-34.11"/>
<text text-anchor="middle" x="50.5" y="-57.8" font-family="Times,serif" font-size="14.00">!x</text>
</g>
<!-- 2&#45;&gt;0 -->
<g id="edge4" class="edge">
<title>2&#45;&gt;0</title>
<path fill="none" stroke="black" d="M94.22,-35.66C91.32,-49.36 87.55,-69.33 86,-87 84.6,-102.94 84.6,-107.06 86,-123 87.21,-136.81 89.77,-152.02 92.22,-164.54"/>
<polygon fill="black" stroke="black" points="88.79,-165.24 94.22,-174.34 95.65,-163.84 88.79,-165.24"/>
<text text-anchor="middle" x="94" y="-101.3" font-family="Times,serif" font-size="14.00">?c</text>
</g>
<!-- 2&#45;&gt;0 -->
<g id="edge5" class="edge">
<title>2&#45;&gt;0</title>
<path fill="none" stroke="black" d="M101.51,-36.02C102.53,-41.71 103.5,-48.1 104,-54 107.84,-99.17 107.84,-110.83 104,-156 103.78,-158.58 103.47,-161.26 103.11,-163.93"/>
<polygon fill="black" stroke="black" points="99.62,-163.56 101.51,-173.98 106.54,-164.66 99.62,-163.56"/>
<text text-anchor="middle" x="114.5" y="-101.3" font-family="Times,serif" font-size="14.00">?b</text>
</g>
<!-- 2&#45;&gt;0 -->
<g id="edge6" class="edge">
<title>2&#45;&gt;0</title>
<path fill="none" stroke="black" d="M107.42,-33.57C111.1,-39.7 115.11,-47.02 118,-54 123.82,-68.05 124.98,-71.93 127,-87 131.1,-117.65 129.84,-127.43 118,-156 116.42,-159.82 114.5,-163.74 112.49,-167.51"/>
<polygon fill="black" stroke="black" points="109.32,-166.01 107.42,-176.43 115.4,-169.46 109.32,-166.01"/>
<text text-anchor="middle" x="137" y="-101.3" font-family="Times,serif" font-size="14.00">?a</text>
</g>
</g>
</svg>
