<?xml version="1.0" encoding="UTF-8" standalone="no"?>
<!DOCTYPE svg PUBLIC "-//W3C//DTD SVG 1.1//EN"
 "http://www.w3.org/Graphics/SVG/1.1/DTD/svg11.dtd">
<!-- Generated by graphviz version 2.43.0 (0)
 -->
<!-- Title: %3 Pages: 1 -->
<svg width="173pt" height="388pt"
 viewBox="0.00 0.00 173.46 388.10" xmlns="http://www.w3.org/2000/svg" xmlns:xlink="http://www.w3.org/1999/xlink">
<g id="graph0" class="graph" transform="scale(1 1) rotate(0) translate(4 384.1)">
<title>%3</title>
<polygon fill="white" stroke="transparent" points="-4,4 -4,-384.1 169.46,-384.1 169.46,4 -4,4"/>
<!-- ENTRY -->
<g id="node1" class="node">
<title>ENTRY</title>
<ellipse fill="black" stroke="black" cx="82.73" cy="-378.3" rx="1.8" ry="1.8"/>
</g>
<!-- 0 -->
<g id="node3" class="node">
<title>0</title>
<ellipse fill="none" stroke="black" cx="82.73" cy="-277.98" rx="61.54" ry="61.54"/>
<text text-anchor="middle" x="82.73" y="-281.78" font-family="Times,serif" font-size="14.00">0 &lt; Eps.0</text>
<text text-anchor="middle" x="82.73" y="-266.78" font-family="Times,serif" font-size="14.00">{c}.3</text>
</g>
<!-- ENTRY&#45;&gt;0 -->
<g id="edge1" class="edge">
<title>ENTRY&#45;&gt;0</title>
<path fill="none" stroke="black" d="M82.73,-376.2C82.73,-372.9 82.73,-362.57 82.73,-349.8"/>
<polygon fill="black" stroke="black" points="86.23,-349.64 82.73,-339.64 79.23,-349.64 86.23,-349.64"/>
</g>
<!-- 1 -->
<g id="node2" class="node">
<title>1</title>
<ellipse fill="none" stroke="black" cx="82.73" cy="-82.73" rx="82.96" ry="82.96"/>
<text text-anchor="middle" x="82.73" y="-86.53" font-family="Times,serif" font-size="14.00">1 &lt; {b}.{c}.3</text>
<text text-anchor="middle" x="82.73" y="-71.53" font-family="Times,serif" font-size="14.00">{c}.0</text>
</g>
<!-- 1&#45;&gt;0 -->
<g id="edge2" class="edge">
<title>1&#45;&gt;0</title>
<path fill="none" stroke="black" d="M82.73,-165.74C82.73,-179.14 82.73,-192.92 82.73,-206.02"/>
<polygon fill="black" stroke="black" points="79.23,-206.37 82.73,-216.37 86.23,-206.37 79.23,-206.37"/>
<text text-anchor="middle" x="91.23" y="-187.26" font-family="Times,serif" font-size="14.00">?b</text>
</g>
<!-- 1&#45;&gt;0 -->
<g id="edge3" class="edge">
<title>1&#45;&gt;0</title>
<path fill="none" stroke="black" d="M100.82,-163.54C101.85,-175.23 102.01,-187.14 100.73,-198.46 100.37,-201.66 99.93,-204.91 99.42,-208.19"/>
<polygon fill="black" stroke="black" points="95.97,-207.62 97.74,-218.06 102.87,-208.79 95.97,-207.62"/>
<text text-anchor="middle" x="108.73" y="-187.26" font-family="Times,serif" font-size="14.00">?c</text>
</g>
<!-- 0&#45;&gt;1 -->
<g id="edge4" class="edge">
<title>0&#45;&gt;1</title>
<path fill="none" stroke="black" d="M66.89,-218.09C65.6,-211.51 64.5,-204.87 63.73,-198.46 62.77,-190.41 62.58,-182.06 62.94,-173.7"/>
<polygon fill="black" stroke="black" points="66.45,-173.74 63.64,-163.53 59.46,-173.26 66.45,-173.74"/>
<text text-anchor="middle" x="71.23" y="-187.26" font-family="Times,serif" font-size="14.00">!a</text>
</g>
</g>
</svg>
