<?xml version="1.0" encoding="UTF-8" standalone="no"?>
<!DOCTYPE svg PUBLIC "-//W3C//DTD SVG 1.1//EN"
 "http://www.w3.org/Graphics/SVG/1.1/DTD/svg11.dtd">
<!-- Generated by graphviz version 2.43.0 (0)
 -->
<!-- Title: %3 Pages: 1 -->
<svg width="163pt" height="490pt"
 viewBox="0.00 0.00 163.09 489.87" xmlns="http://www.w3.org/2000/svg" xmlns:xlink="http://www.w3.org/1999/xlink">
<g id="graph0" class="graph" transform="scale(1 1) rotate(0) translate(4 485.87)">
<title>%3</title>
<polygon fill="white" stroke="transparent" points="-4,4 -4,-485.87 159.09,-485.87 159.09,4 -4,4"/>
<!-- ENTRY -->
<g id="node1" class="node">
<title>ENTRY</title>
<ellipse fill="black" stroke="black" cx="56.54" cy="-480.07" rx="1.8" ry="1.8"/>
</g>
<!-- 0 -->
<g id="node4" class="node">
<title>0</title>
<ellipse fill="none" stroke="black" cx="56.54" cy="-384.72" rx="56.59" ry="56.59"/>
<text text-anchor="middle" x="56.54" y="-381.02" font-family="Times,serif" font-size="14.00">0 &lt; Eps.0</text>
</g>
<!-- ENTRY&#45;&gt;0 -->
<g id="edge1" class="edge">
<title>ENTRY&#45;&gt;0</title>
<path fill="none" stroke="black" d="M56.54,-478.02C56.54,-474.77 56.54,-464.27 56.54,-451.47"/>
<polygon fill="black" stroke="black" points="60.05,-451.3 56.54,-441.3 53.05,-451.3 60.05,-451.3"/>
</g>
<!-- 2 -->
<g id="node2" class="node">
<title>2</title>
<ellipse fill="none" stroke="red" cx="56.54" cy="-56.54" rx="56.59" ry="56.59"/>
<text text-anchor="middle" x="56.54" y="-52.84" font-family="Times,serif" font-size="14.00">2 &lt; Eps.2</text>
</g>
<!-- 1 -->
<g id="node3" class="node">
<title>1</title>
<ellipse fill="none" stroke="black" cx="56.54" cy="-220.63" rx="56.59" ry="56.59"/>
<text text-anchor="middle" x="56.54" y="-216.93" font-family="Times,serif" font-size="14.00">1 &lt; Eps.1</text>
</g>
<!-- 1&#45;&gt;2 -->
<g id="edge4" class="edge">
<title>1&#45;&gt;2</title>
<path fill="none" stroke="black" d="M56.54,-163.85C56.54,-150.79 56.54,-136.76 56.54,-123.3"/>
<polygon fill="black" stroke="black" points="60.05,-123.16 56.54,-113.16 53.05,-123.16 60.05,-123.16"/>
<text text-anchor="middle" x="68.54" y="-134.89" font-family="Times,serif" font-size="14.00">!a3</text>
</g>
<!-- 1&#45;&gt;1 -->
<g id="edge3" class="edge">
<title>1&#45;&gt;1</title>
<path fill="none" stroke="black" d="M111.15,-235.51C122.73,-234 131.09,-229.04 131.09,-220.63 131.09,-214.85 127.14,-210.7 120.91,-208.18"/>
<polygon fill="black" stroke="black" points="121.7,-204.77 111.15,-205.76 120.01,-211.57 121.7,-204.77"/>
<text text-anchor="middle" x="143.09" y="-216.93" font-family="Times,serif" font-size="14.00">!a2</text>
</g>
<!-- 1&#45;&gt;0 -->
<g id="edge2" class="edge">
<title>1&#45;&gt;0</title>
<path fill="none" stroke="black" d="M56.54,-277.25C56.54,-290.3 56.54,-304.33 56.54,-317.79"/>
<polygon fill="black" stroke="black" points="53.05,-317.94 56.54,-327.94 60.05,-317.94 53.05,-317.94"/>
<text text-anchor="middle" x="68.54" y="-298.98" font-family="Times,serif" font-size="14.00">!a1</text>
</g>
<!-- 0&#45;&gt;1 -->
<g id="edge5" class="edge">
<title>0&#45;&gt;1</title>
<path fill="none" stroke="black" d="M41.05,-330.21C39.61,-323.51 38.38,-316.72 37.54,-310.18 36.49,-301.88 36.69,-293.21 37.68,-284.68"/>
<polygon fill="black" stroke="black" points="41.15,-285.17 39.17,-274.76 34.22,-284.13 41.15,-285.17"/>
<text text-anchor="middle" x="45.04" y="-298.98" font-family="Times,serif" font-size="14.00">!a</text>
</g>
</g>
</svg>
