<?xml version="1.0" encoding="UTF-8" standalone="no"?>
<!DOCTYPE svg PUBLIC "-//W3C//DTD SVG 1.1//EN"
 "http://www.w3.org/Graphics/SVG/1.1/DTD/svg11.dtd">
<!-- Generated by graphviz version 2.43.0 (0)
 -->
<!-- Title: %3 Pages: 1 -->
<svg width="87pt" height="433pt"
 viewBox="0.00 0.00 87.50 432.60" xmlns="http://www.w3.org/2000/svg" xmlns:xlink="http://www.w3.org/1999/xlink">
<g id="graph0" class="graph" transform="scale(1 1) rotate(0) translate(4 428.6)">
<title>%3</title>
<polygon fill="white" stroke="transparent" points="-4,4 -4,-428.6 83.5,-428.6 83.5,4 -4,4"/>
<!-- ENTRY -->
<g id="node1" class="node">
<title>ENTRY</title>
<ellipse fill="black" stroke="black" cx="19.5" cy="-422.8" rx="1.8" ry="1.8"/>
</g>
<!-- 0 -->
<g id="node2" class="node">
<title>0</title>
<ellipse fill="none" stroke="black" cx="19.5" cy="-366" rx="18" ry="18"/>
<text text-anchor="middle" x="19.5" y="-362.3" font-family="Times,serif" font-size="14.00">0</text>
</g>
<!-- ENTRY&#45;&gt;0 -->
<g id="edge1" class="edge">
<title>ENTRY&#45;&gt;0</title>
<path fill="none" stroke="black" d="M19.5,-420.85C19.5,-417.49 19.5,-405.73 19.5,-394.05"/>
<polygon fill="black" stroke="black" points="23,-394.02 19.5,-384.02 16,-394.02 23,-394.02"/>
</g>
<!-- 1 -->
<g id="node3" class="node">
<title>1</title>
<ellipse fill="none" stroke="black" cx="19.5" cy="-279" rx="18" ry="18"/>
<text text-anchor="middle" x="19.5" y="-275.3" font-family="Times,serif" font-size="14.00">1</text>
</g>
<!-- 0&#45;&gt;1 -->
<g id="edge2" class="edge">
<title>0&#45;&gt;1</title>
<path fill="none" stroke="black" d="M9.64,-350.81C3.97,-340.94 -1.5,-327.37 1.5,-315 2.4,-311.26 3.78,-307.47 5.38,-303.84"/>
<polygon fill="black" stroke="black" points="8.6,-305.22 9.96,-294.72 2.34,-302.09 8.6,-305.22"/>
<text text-anchor="middle" x="9" y="-318.8" font-family="Times,serif" font-size="14.00">!a</text>
</g>
<!-- 1&#45;&gt;0 -->
<g id="edge7" class="edge">
<title>1&#45;&gt;0</title>
<path fill="none" stroke="black" d="M19.5,-297.18C19.5,-308.81 19.5,-324.42 19.5,-337.73"/>
<polygon fill="black" stroke="black" points="16,-337.8 19.5,-347.8 23,-337.8 16,-337.8"/>
<text text-anchor="middle" x="31.5" y="-318.8" font-family="Times,serif" font-size="14.00">!a1</text>
</g>
<!-- 1&#45;&gt;1 -->
<g id="edge6" class="edge">
<title>1&#45;&gt;1</title>
<path fill="none" stroke="black" d="M36.16,-286.38C46.12,-288.02 55.5,-285.56 55.5,-279 55.5,-274.8 51.65,-272.28 46.27,-271.44"/>
<polygon fill="black" stroke="black" points="46.1,-267.94 36.16,-271.62 46.22,-274.94 46.1,-267.94"/>
<text text-anchor="middle" x="67.5" y="-275.3" font-family="Times,serif" font-size="14.00">!a2</text>
</g>
<!-- 2 -->
<g id="node4" class="node">
<title>2</title>
<ellipse fill="none" stroke="black" cx="19.5" cy="-192" rx="18" ry="18"/>
<text text-anchor="middle" x="19.5" y="-188.3" font-family="Times,serif" font-size="14.00">2</text>
</g>
<!-- 1&#45;&gt;2 -->
<g id="edge3" class="edge">
<title>1&#45;&gt;2</title>
<path fill="none" stroke="black" d="M19.5,-260.8C19.5,-249.16 19.5,-233.55 19.5,-220.24"/>
<polygon fill="black" stroke="black" points="23,-220.18 19.5,-210.18 16,-220.18 23,-220.18"/>
<text text-anchor="middle" x="31.5" y="-231.8" font-family="Times,serif" font-size="14.00">!a3</text>
</g>
<!-- 3 -->
<g id="node5" class="node">
<title>3</title>
<ellipse fill="none" stroke="black" cx="19.5" cy="-105" rx="18" ry="18"/>
<text text-anchor="middle" x="19.5" y="-101.3" font-family="Times,serif" font-size="14.00">3</text>
</g>
<!-- 2&#45;&gt;3 -->
<g id="edge4" class="edge">
<title>2&#45;&gt;3</title>
<path fill="none" stroke="black" d="M19.5,-173.8C19.5,-162.16 19.5,-146.55 19.5,-133.24"/>
<polygon fill="black" stroke="black" points="23,-133.18 19.5,-123.18 16,-133.18 23,-133.18"/>
<text text-anchor="middle" x="27.5" y="-144.8" font-family="Times,serif" font-size="14.00">?e</text>
</g>
<!-- 4 -->
<g id="node6" class="node">
<title>4</title>
<ellipse fill="none" stroke="black" cx="19.5" cy="-18" rx="18" ry="18"/>
<text text-anchor="middle" x="19.5" y="-14.3" font-family="Times,serif" font-size="14.00">4</text>
</g>
<!-- 3&#45;&gt;4 -->
<g id="edge5" class="edge">
<title>3&#45;&gt;4</title>
<path fill="none" stroke="black" d="M19.5,-86.8C19.5,-75.16 19.5,-59.55 19.5,-46.24"/>
<polygon fill="black" stroke="black" points="23,-46.18 19.5,-36.18 16,-46.18 23,-46.18"/>
<text text-anchor="middle" x="26" y="-57.8" font-family="Times,serif" font-size="14.00">?f</text>
</g>
</g>
</svg>
