<?xml version="1.0" encoding="UTF-8" standalone="no"?>
<!DOCTYPE svg PUBLIC "-//W3C//DTD SVG 1.1//EN"
 "http://www.w3.org/Graphics/SVG/1.1/DTD/svg11.dtd">
<!-- Generated by graphviz version 2.43.0 (0)
 -->
<!-- Title: %3 Pages: 1 -->
<svg width="1852pt" height="2044pt"
 viewBox="0.00 0.00 1852.50 2043.56" xmlns="http://www.w3.org/2000/svg" xmlns:xlink="http://www.w3.org/1999/xlink">
<g id="graph0" class="graph" transform="scale(1 1) rotate(0) translate(4 2039.56)">
<title>%3</title>
<polygon fill="white" stroke="transparent" points="-4,4 -4,-2039.56 1848.5,-2039.56 1848.5,4 -4,4"/>
<!-- ENTRY -->
<g id="node1" class="node">
<title>ENTRY</title>
<ellipse fill="black" stroke="black" cx="1360.77" cy="-2033.76" rx="1.8" ry="1.8"/>
</g>
<!-- 0 -->
<g id="node4" class="node">
<title>0</title>
<ellipse fill="none" stroke="black" cx="1360.77" cy="-1918.91" rx="76.09" ry="76.09"/>
<text text-anchor="middle" x="1360.77" y="-1915.21" font-family="Times,serif" font-size="14.00">0 &lt; ({a,b})*.0</text>
</g>
<!-- ENTRY&#45;&gt;0 -->
<g id="edge1" class="edge">
<title>ENTRY&#45;&gt;0</title>
<path fill="none" stroke="black" d="M1360.77,-2031.49C1360.77,-2028.07 1360.77,-2018.07 1360.77,-2005.37"/>
<polygon fill="black" stroke="black" points="1364.27,-2005.2 1360.77,-1995.2 1357.27,-2005.2 1364.27,-2005.2"/>
</g>
<!-- 5 -->
<g id="node2" class="node">
<title>5</title>
<ellipse fill="none" stroke="black" cx="358.77" cy="-390.32" rx="358.54" ry="358.54"/>
<text text-anchor="middle" x="358.77" y="-386.62" font-family="Times,serif" font-size="14.00">5 &lt; ({b,a})*.{a}.{b}.{a}.{b}.{a}.{a}.{b}.{a}.{b}.{a}.{b}.{a}.{a}.{b}.0</text>
</g>
<!-- 5&#45;&gt;0 -->
<g id="edge4" class="edge">
<title>5&#45;&gt;0</title>
<path fill="none" stroke="black" d="M236.72,-727.97C142.68,-1053.71 70.05,-1538.94 344.77,-1824.87 408.63,-1891.34 1040.36,-1911.23 1274.26,-1916.34"/>
<polygon fill="black" stroke="black" points="1274.35,-1919.84 1284.43,-1916.56 1274.5,-1912.85 1274.35,-1919.84"/>
<text text-anchor="middle" x="163.27" y="-1327.21" font-family="Times,serif" font-size="14.00">?b</text>
</g>
<!-- 5&#45;&gt;0 -->
<g id="edge11" class="edge">
<title>5&#45;&gt;0</title>
<path fill="none" stroke="black" d="M309.85,-746.01C299.7,-920.19 308.72,-1129.8 377.77,-1305.41 483.79,-1575.05 562.36,-1644.39 811.77,-1791.87 958.85,-1878.84 1160.9,-1905.81 1274.37,-1914.16"/>
<polygon fill="black" stroke="black" points="1274.18,-1917.66 1284.4,-1914.87 1274.67,-1910.68 1274.18,-1917.66"/>
<text text-anchor="middle" x="398.77" y="-1327.21" font-family="Times,serif" font-size="14.00">?a</text>
</g>
<!-- 3 -->
<g id="node3" class="node">
<title>3</title>
<ellipse fill="none" stroke="black" cx="1342.77" cy="-390.32" rx="390.15" ry="390.15"/>
<text text-anchor="middle" x="1342.77" y="-394.12" font-family="Times,serif" font-size="14.00">3 &lt; ({b,a})*.{a}.{b}.{a}.{b}.{a}.{a}.{b}.{a}.{b}.{a}.{b}.{a}.{a}.{b}.0</text>
<text text-anchor="middle" x="1342.77" y="-379.12" font-family="Times,serif" font-size="14.00">{b}.{a}.{b}.{a}.{a}.{b}.{a}.{b}.{a}.{b}.{a}.{a}.{b}.0</text>
</g>
<!-- 3&#45;&gt;0 -->
<g id="edge8" class="edge">
<title>3&#45;&gt;0</title>
<path fill="none" stroke="black" d="M1340.05,-780.71C1339.56,-951.8 1339.92,-1155.1 1342.77,-1338.41 1345.5,-1514.08 1352.87,-1719.61 1357.29,-1832.61"/>
<polygon fill="black" stroke="black" points="1353.8,-1833.06 1357.69,-1842.91 1360.8,-1832.78 1353.8,-1833.06"/>
<text text-anchor="middle" x="1351.27" y="-1327.21" font-family="Times,serif" font-size="14.00">?b</text>
</g>
<!-- 3&#45;&gt;0 -->
<g id="edge14" class="edge">
<title>3&#45;&gt;0</title>
<path fill="none" stroke="black" d="M1354.56,-780.58C1354.99,-797.84 1355.39,-814.92 1355.77,-831.65 1365.5,-1266.33 1365.33,-1375.08 1366.77,-1809.87 1366.79,-1816.54 1366.98,-1818.21 1366.77,-1824.87 1366.68,-1827.54 1366.58,-1830.26 1366.47,-1833.01"/>
<polygon fill="black" stroke="black" points="1362.97,-1832.88 1366.02,-1843.03 1369.97,-1833.2 1362.97,-1832.88"/>
<text text-anchor="middle" x="1372.77" y="-1327.21" font-family="Times,serif" font-size="14.00">?a</text>
</g>
<!-- 1 -->
<g id="node6" class="node">
<title>1</title>
<ellipse fill="none" stroke="black" cx="1038.77" cy="-1574.14" rx="217.96" ry="217.96"/>
<text text-anchor="middle" x="1038.77" y="-1570.44" font-family="Times,serif" font-size="14.00">1 &lt; ({b,a})*.{a}.{b}.{a}.{b}.{a}.{a}.{b}.0</text>
</g>
<!-- 0&#45;&gt;1 -->
<g id="edge12" class="edge">
<title>0&#45;&gt;1</title>
<path fill="none" stroke="black" d="M1309.03,-1862.84C1277.63,-1829.41 1235.72,-1784.79 1194.29,-1740.69"/>
<polygon fill="black" stroke="black" points="1196.77,-1738.23 1187.38,-1733.33 1191.67,-1743.02 1196.77,-1738.23"/>
<text text-anchor="middle" x="1273.27" y="-1813.67" font-family="Times,serif" font-size="14.00">!x</text>
</g>
<!-- 6 -->
<g id="node7" class="node">
<title>6</title>
<ellipse fill="none" stroke="black" cx="1626.77" cy="-1574.14" rx="217.96" ry="217.96"/>
<text text-anchor="middle" x="1626.77" y="-1570.44" font-family="Times,serif" font-size="14.00">6 &lt; ({a,b})*.{a}.{b}.{a}.{b}.{a}.{a}.{b}.0</text>
</g>
<!-- 0&#45;&gt;6 -->
<g id="edge10" class="edge">
<title>0&#45;&gt;6</title>
<path fill="none" stroke="black" d="M1435.47,-1903.5C1481.99,-1890.66 1539.34,-1867.09 1573.77,-1824.87 1580.4,-1816.73 1586.26,-1807.97 1591.43,-1798.76"/>
<polygon fill="black" stroke="black" points="1594.59,-1800.27 1596.18,-1789.79 1588.41,-1796.99 1594.59,-1800.27"/>
<text text-anchor="middle" x="1589.27" y="-1813.67" font-family="Times,serif" font-size="14.00">!y</text>
</g>
<!-- 2 -->
<g id="node5" class="node">
<title>2</title>
<ellipse fill="none" stroke="black" cx="1077.77" cy="-1068.53" rx="236.76" ry="236.76"/>
<text text-anchor="middle" x="1077.77" y="-1072.33" font-family="Times,serif" font-size="14.00">2 &lt; ({b,a})*.{a}.{b}.{a}.{b}.{a}.{a}.{b}.0</text>
<text text-anchor="middle" x="1077.77" y="-1057.33" font-family="Times,serif" font-size="14.00">{b}.{a}.{b}.{a}.{a}.{b}.0</text>
</g>
<!-- 2&#45;&gt;3 -->
<g id="edge13" class="edge">
<title>2&#45;&gt;3</title>
<path fill="none" stroke="black" d="M1163.99,-847.52C1174.58,-820.5 1185.62,-792.33 1196.78,-763.83"/>
<polygon fill="black" stroke="black" points="1200.18,-764.75 1200.58,-754.16 1193.67,-762.19 1200.18,-764.75"/>
<text text-anchor="middle" x="1186.27" y="-802.45" font-family="Times,serif" font-size="14.00">!y</text>
</g>
<!-- 2&#45;&gt;1 -->
<g id="edge7" class="edge">
<title>2&#45;&gt;1</title>
<path fill="none" stroke="black" d="M1059.53,-1305.03C1058.45,-1318.98 1057.37,-1332.99 1056.29,-1346.9"/>
<polygon fill="black" stroke="black" points="1052.79,-1346.76 1055.51,-1357 1059.77,-1347.3 1052.79,-1346.76"/>
<text text-anchor="middle" x="1065.27" y="-1327.21" font-family="Times,serif" font-size="14.00">!x</text>
</g>
<!-- 1&#45;&gt;2 -->
<g id="edge6" class="edge">
<title>1&#45;&gt;2</title>
<path fill="none" stroke="black" d="M1037.74,-1356.15C1038.28,-1345.07 1038.95,-1334.11 1039.77,-1323.41 1040.04,-1319.91 1040.32,-1316.39 1040.63,-1312.85"/>
<polygon fill="black" stroke="black" points="1044.12,-1313.11 1041.53,-1302.83 1037.15,-1312.48 1044.12,-1313.11"/>
<text text-anchor="middle" x="1047.77" y="-1327.21" font-family="Times,serif" font-size="14.00">?a</text>
</g>
<!-- 4 -->
<g id="node8" class="node">
<title>4</title>
<ellipse fill="none" stroke="black" cx="604.77" cy="-1068.53" rx="217.96" ry="217.96"/>
<text text-anchor="middle" x="604.77" y="-1064.83" font-family="Times,serif" font-size="14.00">4 &lt; ({b,a})*.{a}.{b}.{a}.{b}.{a}.{a}.{b}.0</text>
</g>
<!-- 1&#45;&gt;4 -->
<g id="edge9" class="edge">
<title>1&#45;&gt;4</title>
<path fill="none" stroke="black" d="M896.96,-1408.59C850.91,-1355.14 799.69,-1295.72 753.17,-1241.73"/>
<polygon fill="black" stroke="black" points="755.82,-1239.44 746.64,-1234.15 750.52,-1244.01 755.82,-1239.44"/>
<text text-anchor="middle" x="844.27" y="-1327.21" font-family="Times,serif" font-size="14.00">?b</text>
</g>
<!-- 6&#45;&gt;0 -->
<g id="edge2" class="edge">
<title>6&#45;&gt;0</title>
<path fill="none" stroke="black" d="M1493.54,-1746.82C1465.11,-1783.45 1436.71,-1820.06 1413.5,-1849.96"/>
<polygon fill="black" stroke="black" points="1410.47,-1848.16 1407.1,-1858.21 1416,-1852.45 1410.47,-1848.16"/>
<text text-anchor="middle" x="1448.27" y="-1813.67" font-family="Times,serif" font-size="14.00">?b</text>
</g>
<!-- 6&#45;&gt;0 -->
<g id="edge15" class="edge">
<title>6&#45;&gt;0</title>
<path fill="none" stroke="black" d="M1511.68,-1759.16C1495.38,-1781.89 1478.21,-1804.33 1460.77,-1824.87 1450.09,-1837.44 1437.83,-1850.05 1425.64,-1861.75"/>
<polygon fill="black" stroke="black" points="1422.93,-1859.5 1418.07,-1868.91 1427.74,-1864.58 1422.93,-1859.5"/>
<text text-anchor="middle" x="1479.77" y="-1813.67" font-family="Times,serif" font-size="14.00">?a</text>
</g>
<!-- 4&#45;&gt;5 -->
<g id="edge5" class="edge">
<title>4&#45;&gt;5</title>
<path fill="none" stroke="black" d="M530.63,-863.73C516.03,-823.6 500.34,-780.47 484.58,-737.16"/>
<polygon fill="black" stroke="black" points="487.82,-735.83 481.11,-727.63 481.24,-738.22 487.82,-735.83"/>
<text text-anchor="middle" x="519.27" y="-802.45" font-family="Times,serif" font-size="14.00">!y</text>
</g>
<!-- 4&#45;&gt;1 -->
<g id="edge3" class="edge">
<title>4&#45;&gt;1</title>
<path fill="none" stroke="black" d="M719.19,-1254.26C739.57,-1283.28 761.46,-1312.29 783.77,-1338.41 808.9,-1367.82 837.5,-1397.27 866.23,-1424.88"/>
<polygon fill="black" stroke="black" points="863.89,-1427.48 873.54,-1431.86 868.72,-1422.42 863.89,-1427.48"/>
<text text-anchor="middle" x="791.27" y="-1327.21" font-family="Times,serif" font-size="14.00">!x</text>
</g>
</g>
</svg>
