<?xml version="1.0" encoding="UTF-8" standalone="no"?>
<!DOCTYPE svg PUBLIC "-//W3C//DTD SVG 1.1//EN"
 "http://www.w3.org/Graphics/SVG/1.1/DTD/svg11.dtd">
<!-- Generated by graphviz version 2.43.0 (0)
 -->
<!-- Title: %3 Pages: 1 -->
<svg width="465pt" height="346pt"
 viewBox="0.00 0.00 464.91 345.60" xmlns="http://www.w3.org/2000/svg" xmlns:xlink="http://www.w3.org/1999/xlink">
<g id="graph0" class="graph" transform="scale(1 1) rotate(0) translate(4 341.6)">
<title>%3</title>
<polygon fill="white" stroke="transparent" points="-4,4 -4,-341.6 460.91,-341.6 460.91,4 -4,4"/>
<!-- ENTRY -->
<g id="node1" class="node">
<title>ENTRY</title>
<ellipse fill="black" stroke="black" cx="175.91" cy="-335.8" rx="1.8" ry="1.8"/>
</g>
<!-- 0 -->
<g id="node2" class="node">
<title>0</title>
<ellipse fill="none" stroke="black" cx="175.91" cy="-279" rx="18" ry="18"/>
<text text-anchor="middle" x="175.91" y="-275.3" font-family="Times,serif" font-size="14.00">0</text>
</g>
<!-- ENTRY&#45;&gt;0 -->
<g id="edge1" class="edge">
<title>ENTRY&#45;&gt;0</title>
<path fill="none" stroke="black" d="M175.91,-333.85C175.91,-330.49 175.91,-318.73 175.91,-307.05"/>
<polygon fill="black" stroke="black" points="179.41,-307.02 175.91,-297.02 172.41,-307.02 179.41,-307.02"/>
</g>
<!-- 6 -->
<g id="node3" class="node">
<title>6</title>
<ellipse fill="none" stroke="black" cx="61.91" cy="-192" rx="18" ry="18"/>
<text text-anchor="middle" x="61.91" y="-188.3" font-family="Times,serif" font-size="14.00">6</text>
</g>
<!-- 0&#45;&gt;6 -->
<g id="edge2" class="edge">
<title>0&#45;&gt;6</title>
<path fill="none" stroke="black" d="M157.9,-275.56C137.31,-271.89 103.79,-263.1 82.91,-243 76.28,-236.62 71.65,-227.82 68.46,-219.38"/>
<polygon fill="black" stroke="black" points="71.77,-218.23 65.35,-209.8 65.11,-220.4 71.77,-218.23"/>
<text text-anchor="middle" x="90.41" y="-231.8" font-family="Times,serif" font-size="14.00">!y</text>
</g>
<!-- 1 -->
<g id="node4" class="node">
<title>1</title>
<ellipse fill="none" stroke="black" cx="291.91" cy="-192" rx="18" ry="18"/>
<text text-anchor="middle" x="291.91" y="-188.3" font-family="Times,serif" font-size="14.00">1</text>
</g>
<!-- 0&#45;&gt;1 -->
<g id="edge6" class="edge">
<title>0&#45;&gt;1</title>
<path fill="none" stroke="black" d="M190.99,-268.53C201.73,-261.68 216.41,-252.06 228.91,-243 242.92,-232.84 258.13,-220.8 270.09,-211.08"/>
<polygon fill="black" stroke="black" points="272.64,-213.52 278.17,-204.48 268.21,-208.1 272.64,-213.52"/>
<text text-anchor="middle" x="255.41" y="-231.8" font-family="Times,serif" font-size="14.00">!x</text>
</g>
<!-- 6&#45;&gt;0 -->
<g id="edge3" class="edge">
<title>6&#45;&gt;0</title>
<path fill="none" stroke="black" d="M75.07,-205.06C86.76,-215.54 104.48,-230.9 120.91,-243 130.72,-250.22 142,-257.56 151.78,-263.63"/>
<polygon fill="black" stroke="black" points="150.24,-266.8 160.6,-269.03 153.9,-260.83 150.24,-266.8"/>
<text text-anchor="middle" x="128.91" y="-231.8" font-family="Times,serif" font-size="14.00">?c</text>
</g>
<!-- 6&#45;&gt;0 -->
<g id="edge4" class="edge">
<title>6&#45;&gt;0</title>
<path fill="none" stroke="black" d="M45.24,-198.85C23.21,-207.47 -11.15,-224.57 3.91,-243 21.77,-264.86 103.83,-273.41 147.83,-276.47"/>
<polygon fill="black" stroke="black" points="147.68,-279.96 157.89,-277.11 148.13,-272.98 147.68,-279.96"/>
<text text-anchor="middle" x="12.41" y="-231.8" font-family="Times,serif" font-size="14.00">?b</text>
</g>
<!-- 6&#45;&gt;0 -->
<g id="edge5" class="edge">
<title>6&#45;&gt;0</title>
<path fill="none" stroke="black" d="M53.46,-208.42C48.86,-219.12 45.47,-233.15 52.91,-243 64.33,-258.12 115.21,-268.64 147.85,-273.97"/>
<polygon fill="black" stroke="black" points="147.71,-277.49 158.13,-275.58 148.79,-270.57 147.71,-277.49"/>
<text text-anchor="middle" x="60.91" y="-231.8" font-family="Times,serif" font-size="14.00">?a</text>
</g>
<!-- 4 -->
<g id="node5" class="node">
<title>4</title>
<ellipse fill="none" stroke="black" cx="260.91" cy="-105" rx="18" ry="18"/>
<text text-anchor="middle" x="260.91" y="-101.3" font-family="Times,serif" font-size="14.00">4</text>
</g>
<!-- 1&#45;&gt;4 -->
<g id="edge7" class="edge">
<title>1&#45;&gt;4</title>
<path fill="none" stroke="black" d="M285.93,-174.61C281.49,-162.42 275.33,-145.55 270.24,-131.59"/>
<polygon fill="black" stroke="black" points="273.48,-130.25 266.76,-122.05 266.9,-132.64 273.48,-130.25"/>
<text text-anchor="middle" x="286.41" y="-144.8" font-family="Times,serif" font-size="14.00">?b</text>
</g>
<!-- 2 -->
<g id="node7" class="node">
<title>2</title>
<ellipse fill="none" stroke="black" cx="362.91" cy="-105" rx="18" ry="18"/>
<text text-anchor="middle" x="362.91" y="-101.3" font-family="Times,serif" font-size="14.00">2</text>
</g>
<!-- 1&#45;&gt;2 -->
<g id="edge13" class="edge">
<title>1&#45;&gt;2</title>
<path fill="none" stroke="black" d="M308.42,-184.54C320.97,-178.82 337.75,-169.31 347.91,-156 353.01,-149.31 356.39,-140.9 358.61,-132.9"/>
<polygon fill="black" stroke="black" points="362.03,-133.67 360.87,-123.13 355.21,-132.09 362.03,-133.67"/>
<text text-anchor="middle" x="363.91" y="-144.8" font-family="Times,serif" font-size="14.00">?a</text>
</g>
<!-- 4&#45;&gt;1 -->
<g id="edge12" class="edge">
<title>4&#45;&gt;1</title>
<path fill="none" stroke="black" d="M254.84,-122.37C252.08,-132.44 250.35,-145.4 254.91,-156 258.03,-163.26 263.49,-169.71 269.26,-175.04"/>
<polygon fill="black" stroke="black" points="267.21,-177.89 277.15,-181.58 271.68,-172.51 267.21,-177.89"/>
<text text-anchor="middle" x="262.41" y="-144.8" font-family="Times,serif" font-size="14.00">!x</text>
</g>
<!-- 5 -->
<g id="node6" class="node">
<title>5</title>
<ellipse fill="none" stroke="black" cx="195.91" cy="-18" rx="18" ry="18"/>
<text text-anchor="middle" x="195.91" y="-14.3" font-family="Times,serif" font-size="14.00">5</text>
</g>
<!-- 4&#45;&gt;5 -->
<g id="edge8" class="edge">
<title>4&#45;&gt;5</title>
<path fill="none" stroke="black" d="M252.36,-89.07C246.27,-78.87 237.66,-65.21 228.91,-54 224.8,-48.73 220.03,-43.33 215.42,-38.4"/>
<polygon fill="black" stroke="black" points="217.87,-35.91 208.42,-31.13 212.83,-40.76 217.87,-35.91"/>
<text text-anchor="middle" x="246.41" y="-57.8" font-family="Times,serif" font-size="14.00">!y</text>
</g>
<!-- 5&#45;&gt;0 -->
<g id="edge9" class="edge">
<title>5&#45;&gt;0</title>
<path fill="none" stroke="black" d="M192.47,-35.88C187.88,-59.34 179.98,-103.18 176.91,-141 173.84,-178.88 174.21,-222.85 174.93,-250.55"/>
<polygon fill="black" stroke="black" points="171.43,-250.77 175.22,-260.66 178.43,-250.56 171.43,-250.77"/>
<text text-anchor="middle" x="184.91" y="-144.8" font-family="Times,serif" font-size="14.00">?c</text>
</g>
<!-- 5&#45;&gt;0 -->
<g id="edge10" class="edge">
<title>5&#45;&gt;0</title>
<path fill="none" stroke="black" d="M188.64,-34.74C178.56,-57.56 160.9,-101.45 154.91,-141 149.06,-179.61 159.06,-224.31 167.17,-251.88"/>
<polygon fill="black" stroke="black" points="163.86,-253.03 170.15,-261.55 170.55,-250.97 163.86,-253.03"/>
<text text-anchor="middle" x="163.41" y="-144.8" font-family="Times,serif" font-size="14.00">?b</text>
</g>
<!-- 5&#45;&gt;0 -->
<g id="edge11" class="edge">
<title>5&#45;&gt;0</title>
<path fill="none" stroke="black" d="M198.84,-36.04C199.68,-41.73 200.49,-48.12 200.91,-54 201.38,-60.65 201.16,-62.34 200.91,-69 198.02,-146.49 203.5,-167.03 187.91,-243 187.28,-246.05 186.47,-249.2 185.55,-252.3"/>
<polygon fill="black" stroke="black" points="182.2,-251.27 182.41,-261.86 188.85,-253.45 182.2,-251.27"/>
<text text-anchor="middle" x="206.91" y="-144.8" font-family="Times,serif" font-size="14.00">?a</text>
</g>
<!-- 2&#45;&gt;1 -->
<g id="edge18" class="edge">
<title>2&#45;&gt;1</title>
<path fill="none" stroke="black" d="M350.21,-118.25C343.63,-124.8 335.6,-133.12 328.91,-141 321.57,-149.64 314.03,-159.61 307.68,-168.36"/>
<polygon fill="black" stroke="black" points="304.75,-166.43 301.79,-176.6 310.45,-170.5 304.75,-166.43"/>
<text text-anchor="middle" x="336.41" y="-144.8" font-family="Times,serif" font-size="14.00">!x</text>
</g>
<!-- 3 -->
<g id="node8" class="node">
<title>3</title>
<ellipse fill="none" stroke="black" cx="427.91" cy="-18" rx="18" ry="18"/>
<text text-anchor="middle" x="427.91" y="-14.3" font-family="Times,serif" font-size="14.00">3</text>
</g>
<!-- 2&#45;&gt;3 -->
<g id="edge14" class="edge">
<title>2&#45;&gt;3</title>
<path fill="none" stroke="black" d="M365.96,-87.03C368.44,-76.74 372.74,-63.75 379.91,-54 386.17,-45.49 395.1,-38.19 403.57,-32.49"/>
<polygon fill="black" stroke="black" points="405.48,-35.42 412.09,-27.15 401.76,-29.49 405.48,-35.42"/>
<text text-anchor="middle" x="387.41" y="-57.8" font-family="Times,serif" font-size="14.00">!y</text>
</g>
<!-- 3&#45;&gt;0 -->
<g id="edge15" class="edge">
<title>3&#45;&gt;0</title>
<path fill="none" stroke="black" d="M424.32,-35.85C417.95,-63.01 402.75,-117.34 375.91,-156 340.56,-206.92 322.27,-215.13 266.91,-243 245.86,-253.6 220.79,-263.02 202.3,-269.41"/>
<polygon fill="black" stroke="black" points="201.12,-266.11 192.77,-272.64 203.37,-272.74 201.12,-266.11"/>
<text text-anchor="middle" x="391.91" y="-144.8" font-family="Times,serif" font-size="14.00">?c</text>
</g>
<!-- 3&#45;&gt;0 -->
<g id="edge16" class="edge">
<title>3&#45;&gt;0</title>
<path fill="none" stroke="black" d="M430.59,-36.19C431.69,-45.86 432.39,-58.14 430.91,-69 421.38,-138.92 413.05,-165.96 357.91,-210 311.17,-247.32 241.86,-265.57 203.67,-273.26"/>
<polygon fill="black" stroke="black" points="202.93,-269.83 193.77,-275.15 204.25,-276.71 202.93,-269.83"/>
<text text-anchor="middle" x="423.41" y="-144.8" font-family="Times,serif" font-size="14.00">?b</text>
</g>
<!-- 3&#45;&gt;0 -->
<g id="edge17" class="edge">
<title>3&#45;&gt;0</title>
<path fill="none" stroke="black" d="M436.93,-33.78C440.11,-39.82 443.3,-47.02 444.91,-54 446.4,-60.5 445.25,-62.34 444.91,-69 442.91,-107.82 451.2,-120.26 435.91,-156 423.51,-184.99 414.34,-190.08 389.91,-210 334.22,-255.4 247.8,-270.68 203.76,-275.67"/>
<polygon fill="black" stroke="black" points="203.36,-272.19 193.77,-276.71 204.08,-279.16 203.36,-272.19"/>
<text text-anchor="middle" x="448.91" y="-144.8" font-family="Times,serif" font-size="14.00">?a</text>
</g>
</g>
</svg>
