<?xml version="1.0" encoding="UTF-8" standalone="no"?>
<!DOCTYPE svg PUBLIC "-//W3C//DTD SVG 1.1//EN"
 "http://www.w3.org/Graphics/SVG/1.1/DTD/svg11.dtd">
<!-- Generated by graphviz version 2.43.0 (0)
 -->
<!-- Title: %3 Pages: 1 -->
<svg width="134pt" height="349pt"
 viewBox="0.00 0.00 133.87 348.50" xmlns="http://www.w3.org/2000/svg" xmlns:xlink="http://www.w3.org/1999/xlink">
<g id="graph0" class="graph" transform="scale(1 1) rotate(0) translate(4 344.5)">
<title>%3</title>
<polygon fill="white" stroke="transparent" points="-4,4 -4,-344.5 129.87,-344.5 129.87,4 -4,4"/>
<!-- ENTRY -->
<g id="node1" class="node">
<title>ENTRY</title>
<ellipse fill="black" stroke="black" cx="62.93" cy="-338.7" rx="1.8" ry="1.8"/>
</g>
<!-- 0 -->
<g id="node3" class="node">
<title>0</title>
<ellipse fill="none" stroke="black" cx="62.93" cy="-236.97" rx="62.87" ry="62.87"/>
<text text-anchor="middle" x="62.93" y="-248.27" font-family="Times,serif" font-size="14.00">0 &lt; Eps.0</text>
<text text-anchor="middle" x="62.93" y="-233.27" font-family="Times,serif" font-size="14.00">{b}.{b}.4</text>
<text text-anchor="middle" x="62.93" y="-218.27" font-family="Times,serif" font-size="14.00">{b}.5</text>
</g>
<!-- ENTRY&#45;&gt;0 -->
<g id="edge1" class="edge">
<title>ENTRY&#45;&gt;0</title>
<path fill="none" stroke="black" d="M62.93,-336.58C62.93,-333.27 62.93,-322.97 62.93,-310.2"/>
<polygon fill="black" stroke="black" points="66.43,-310.03 62.93,-300.03 59.43,-310.03 66.43,-310.03"/>
</g>
<!-- 1 -->
<g id="node2" class="node">
<title>1</title>
<ellipse fill="none" stroke="black" cx="62.93" cy="-61.52" rx="61.54" ry="61.54"/>
<text text-anchor="middle" x="62.93" y="-72.82" font-family="Times,serif" font-size="14.00">1 &lt; Eps.1</text>
<text text-anchor="middle" x="62.93" y="-57.82" font-family="Times,serif" font-size="14.00">{b}.4</text>
<text text-anchor="middle" x="62.93" y="-42.82" font-family="Times,serif" font-size="14.00">Eps.5</text>
</g>
<!-- 1&#45;&gt;0 -->
<g id="edge2" class="edge">
<title>1&#45;&gt;0</title>
<path fill="none" stroke="black" d="M62.93,-123.05C62.93,-136.15 62.93,-150.13 62.93,-163.63"/>
<polygon fill="black" stroke="black" points="59.43,-163.84 62.93,-173.84 66.43,-163.84 59.43,-163.84"/>
<text text-anchor="middle" x="70.43" y="-144.84" font-family="Times,serif" font-size="14.00">!a</text>
</g>
<!-- 0&#45;&gt;1 -->
<g id="edge3" class="edge">
<title>0&#45;&gt;1</title>
<path fill="none" stroke="black" d="M43.35,-177C41.27,-165.16 40.39,-152.75 41.93,-141.04 42.36,-137.75 42.89,-134.4 43.5,-131.04"/>
<polygon fill="black" stroke="black" points="46.99,-131.41 45.52,-120.92 40.13,-130.04 46.99,-131.41"/>
<text text-anchor="middle" x="50.43" y="-144.84" font-family="Times,serif" font-size="14.00">?b</text>
</g>
</g>
</svg>
