<?xml version="1.0" encoding="UTF-8" standalone="no"?>
<!DOCTYPE svg PUBLIC "-//W3C//DTD SVG 1.1//EN"
 "http://www.w3.org/Graphics/SVG/1.1/DTD/svg11.dtd">
<!-- Generated by graphviz version 2.43.0 (0)
 -->
<!-- Title: %3 Pages: 1 -->
<svg width="252pt" height="654pt"
 viewBox="0.00 0.00 252.09 653.96" xmlns="http://www.w3.org/2000/svg" xmlns:xlink="http://www.w3.org/1999/xlink">
<g id="graph0" class="graph" transform="scale(1 1) rotate(0) translate(4 649.96)">
<title>%3</title>
<polygon fill="white" stroke="transparent" points="-4,4 -4,-649.96 248.09,-649.96 248.09,4 -4,4"/>
<!-- ENTRY -->
<g id="node1" class="node">
<title>ENTRY</title>
<ellipse fill="black" stroke="black" cx="121.54" cy="-644.16" rx="1.8" ry="1.8"/>
</g>
<!-- 0 -->
<g id="node7" class="node">
<title>0</title>
<ellipse fill="none" stroke="black" cx="121.54" cy="-548.81" rx="56.59" ry="56.59"/>
<text text-anchor="middle" x="121.54" y="-545.11" font-family="Times,serif" font-size="14.00">0 &lt; Eps.0</text>
</g>
<!-- ENTRY&#45;&gt;0 -->
<g id="edge1" class="edge">
<title>ENTRY&#45;&gt;0</title>
<path fill="none" stroke="black" d="M121.54,-642.11C121.54,-638.86 121.54,-628.36 121.54,-615.56"/>
<polygon fill="black" stroke="black" points="125.05,-615.39 121.54,-605.39 118.05,-615.39 125.05,-615.39"/>
</g>
<!-- 2 -->
<g id="node2" class="node">
<title>2</title>
<ellipse fill="none" stroke="black" cx="56.54" cy="-220.63" rx="56.59" ry="56.59"/>
<text text-anchor="middle" x="56.54" y="-216.93" font-family="Times,serif" font-size="14.00">2 &lt; Eps.2</text>
</g>
<!-- 3 -->
<g id="node5" class="node">
<title>3</title>
<ellipse fill="none" stroke="black" cx="56.54" cy="-56.54" rx="56.59" ry="56.59"/>
<text text-anchor="middle" x="56.54" y="-52.84" font-family="Times,serif" font-size="14.00">3 &lt; Eps.3</text>
</g>
<!-- 2&#45;&gt;3 -->
<g id="edge2" class="edge">
<title>2&#45;&gt;3</title>
<path fill="none" stroke="black" d="M56.54,-163.85C56.54,-150.79 56.54,-136.76 56.54,-123.3"/>
<polygon fill="black" stroke="black" points="60.05,-123.16 56.54,-113.16 53.05,-123.16 60.05,-123.16"/>
<text text-anchor="middle" x="64.54" y="-134.89" font-family="Times,serif" font-size="14.00">!b</text>
</g>
<!-- 5 -->
<g id="node3" class="node">
<title>5</title>
<ellipse fill="none" stroke="black" cx="187.54" cy="-56.54" rx="56.59" ry="56.59"/>
<text text-anchor="middle" x="187.54" y="-52.84" font-family="Times,serif" font-size="14.00">5 &lt; Eps.5</text>
</g>
<!-- 1 -->
<g id="node4" class="node">
<title>1</title>
<ellipse fill="none" stroke="black" cx="121.54" cy="-384.72" rx="56.59" ry="56.59"/>
<text text-anchor="middle" x="121.54" y="-381.02" font-family="Times,serif" font-size="14.00">1 &lt; Eps.1</text>
</g>
<!-- 1&#45;&gt;2 -->
<g id="edge3" class="edge">
<title>1&#45;&gt;2</title>
<path fill="none" stroke="black" d="M100.8,-331.99C94.53,-316.35 87.58,-299.02 81.08,-282.82"/>
<polygon fill="black" stroke="black" points="84.29,-281.41 77.32,-273.43 77.79,-284.02 84.29,-281.41"/>
<text text-anchor="middle" x="100.04" y="-298.98" font-family="Times,serif" font-size="14.00">?b</text>
</g>
<!-- 4 -->
<g id="node6" class="node">
<title>4</title>
<ellipse fill="none" stroke="black" cx="187.54" cy="-220.63" rx="56.59" ry="56.59"/>
<text text-anchor="middle" x="187.54" y="-216.93" font-family="Times,serif" font-size="14.00">4 &lt; Eps.4</text>
</g>
<!-- 1&#45;&gt;4 -->
<g id="edge4" class="edge">
<title>1&#45;&gt;4</title>
<path fill="none" stroke="black" d="M142.61,-331.99C149.01,-316.27 156.11,-298.85 162.73,-282.58"/>
<polygon fill="black" stroke="black" points="166.04,-283.74 166.57,-273.15 159.55,-281.1 166.04,-283.74"/>
<text text-anchor="middle" x="163.54" y="-298.98" font-family="Times,serif" font-size="14.00">?c</text>
</g>
<!-- 4&#45;&gt;5 -->
<g id="edge6" class="edge">
<title>4&#45;&gt;5</title>
<path fill="none" stroke="black" d="M187.54,-163.85C187.54,-150.79 187.54,-136.76 187.54,-123.3"/>
<polygon fill="black" stroke="black" points="191.05,-123.16 187.54,-113.16 184.05,-123.16 191.05,-123.16"/>
<text text-anchor="middle" x="194.54" y="-134.89" font-family="Times,serif" font-size="14.00">!c</text>
</g>
<!-- 0&#45;&gt;1 -->
<g id="edge5" class="edge">
<title>0&#45;&gt;1</title>
<path fill="none" stroke="black" d="M121.54,-492.03C121.54,-478.97 121.54,-464.93 121.54,-451.48"/>
<polygon fill="black" stroke="black" points="125.05,-451.34 121.54,-441.34 118.05,-451.34 125.05,-451.34"/>
<text text-anchor="middle" x="129.04" y="-463.07" font-family="Times,serif" font-size="14.00">!a</text>
</g>
</g>
</svg>
