<?xml version="1.0" encoding="UTF-8" standalone="no"?>
<!DOCTYPE svg PUBLIC "-//W3C//DTD SVG 1.1//EN"
 "http://www.w3.org/Graphics/SVG/1.1/DTD/svg11.dtd">
<!-- Generated by graphviz version 2.43.0 (0)
 -->
<!-- Title: %3 Pages: 1 -->
<svg width="231pt" height="737pt"
 viewBox="0.00 0.00 230.89 737.15" xmlns="http://www.w3.org/2000/svg" xmlns:xlink="http://www.w3.org/1999/xlink">
<g id="graph0" class="graph" transform="scale(1 1) rotate(0) translate(4 733.15)">
<title>%3</title>
<polygon fill="white" stroke="transparent" points="-4,4 -4,-733.15 226.89,-733.15 226.89,4 -4,4"/>
<!-- ENTRY -->
<g id="node1" class="node">
<title>ENTRY</title>
<ellipse fill="black" stroke="black" cx="74.54" cy="-727.35" rx="1.8" ry="1.8"/>
</g>
<!-- 0 -->
<g id="node5" class="node">
<title>0</title>
<ellipse fill="none" stroke="black" cx="74.54" cy="-632.01" rx="56.59" ry="56.59"/>
<text text-anchor="middle" x="74.54" y="-628.31" font-family="Times,serif" font-size="14.00">0 &lt; Eps.0</text>
</g>
<!-- ENTRY&#45;&gt;0 -->
<g id="edge1" class="edge">
<title>ENTRY&#45;&gt;0</title>
<path fill="none" stroke="black" d="M74.54,-725.3C74.54,-722.05 74.54,-711.56 74.54,-698.75"/>
<polygon fill="black" stroke="black" points="78.05,-698.59 74.54,-688.59 71.05,-698.59 78.05,-698.59"/>
</g>
<!-- 3 -->
<g id="node2" class="node">
<title>3</title>
<ellipse fill="none" stroke="black" cx="56.54" cy="-56.54" rx="56.59" ry="56.59"/>
<text text-anchor="middle" x="56.54" y="-52.84" font-family="Times,serif" font-size="14.00">3 &lt; {b}.0</text>
</g>
<!-- 3&#45;&gt;0 -->
<g id="edge2" class="edge">
<title>3&#45;&gt;0</title>
<path fill="none" stroke="black" d="M54.5,-113.34C51.84,-201.01 48.69,-376.31 59.54,-524.46 60.53,-537.9 62.15,-552.22 63.97,-565.86"/>
<polygon fill="black" stroke="black" points="60.55,-566.71 65.39,-576.13 67.49,-565.75 60.55,-566.71"/>
<text text-anchor="middle" x="61.04" y="-340.58" font-family="Times,serif" font-size="14.00">?b</text>
</g>
<!-- 2 -->
<g id="node3" class="node">
<title>2</title>
<ellipse fill="none" stroke="black" cx="145.54" cy="-241.43" rx="77.19" ry="77.19"/>
<text text-anchor="middle" x="145.54" y="-237.73" font-family="Times,serif" font-size="14.00">2 &lt; {b}.{b}.0</text>
</g>
<!-- 2&#45;&gt;3 -->
<g id="edge3" class="edge">
<title>2&#45;&gt;3</title>
<path fill="none" stroke="black" d="M112.02,-171.55C103.34,-153.7 94.05,-134.62 85.61,-117.27"/>
<polygon fill="black" stroke="black" points="88.54,-115.3 81.02,-107.84 82.25,-118.36 88.54,-115.3"/>
<text text-anchor="middle" x="106.04" y="-134.89" font-family="Times,serif" font-size="14.00">?b</text>
</g>
<!-- 1 -->
<g id="node4" class="node">
<title>1</title>
<ellipse fill="none" stroke="black" cx="145.54" cy="-447.12" rx="77.19" ry="77.19"/>
<text text-anchor="middle" x="145.54" y="-443.42" font-family="Times,serif" font-size="14.00">1 &lt; {b}.{b}.3</text>
</g>
<!-- 1&#45;&gt;2 -->
<g id="edge4" class="edge">
<title>1&#45;&gt;2</title>
<path fill="none" stroke="black" d="M145.54,-369.69C145.54,-356.47 145.54,-342.64 145.54,-329.16"/>
<polygon fill="black" stroke="black" points="149.05,-328.95 145.54,-318.95 142.05,-328.95 149.05,-328.95"/>
<text text-anchor="middle" x="153.04" y="-340.58" font-family="Times,serif" font-size="14.00">!a</text>
</g>
<!-- 0&#45;&gt;1 -->
<g id="edge5" class="edge">
<title>0&#45;&gt;1</title>
<path fill="none" stroke="black" d="M94.7,-579.09C100.75,-563.5 107.54,-546 114.14,-529"/>
<polygon fill="black" stroke="black" points="117.43,-530.22 117.78,-519.63 110.9,-527.68 117.43,-530.22"/>
<text text-anchor="middle" x="115.04" y="-546.26" font-family="Times,serif" font-size="14.00">!a</text>
</g>
</g>
</svg>
