<?xml version="1.0" encoding="UTF-8" standalone="no"?>
<!DOCTYPE svg PUBLIC "-//W3C//DTD SVG 1.1//EN"
 "http://www.w3.org/Graphics/SVG/1.1/DTD/svg11.dtd">
<!-- Generated by graphviz version 2.43.0 (0)
 -->
<!-- Title: %3 Pages: 1 -->
<svg width="267pt" height="573pt"
 viewBox="0.00 0.00 266.80 573.36" xmlns="http://www.w3.org/2000/svg" xmlns:xlink="http://www.w3.org/1999/xlink">
<g id="graph0" class="graph" transform="scale(1 1) rotate(0) translate(4 569.36)">
<title>%3</title>
<polygon fill="white" stroke="transparent" points="-4,4 -4,-569.36 262.8,-569.36 262.8,4 -4,4"/>
<!-- ENTRY -->
<g id="node1" class="node">
<title>ENTRY</title>
<ellipse fill="black" stroke="black" cx="129.4" cy="-563.56" rx="1.8" ry="1.8"/>
</g>
<!-- 0 -->
<g id="node3" class="node">
<title>0</title>
<ellipse fill="none" stroke="black" cx="129.4" cy="-395.36" rx="129.3" ry="129.3"/>
<text text-anchor="middle" x="129.4" y="-429.16" font-family="Times,serif" font-size="14.00">0 &lt; {b}.11</text>
<text text-anchor="middle" x="129.4" y="-414.16" font-family="Times,serif" font-size="14.00">{b}.{b}.10</text>
<text text-anchor="middle" x="129.4" y="-399.16" font-family="Times,serif" font-size="14.00">{b}.{b}.{b}.9</text>
<text text-anchor="middle" x="129.4" y="-384.16" font-family="Times,serif" font-size="14.00">{b}.{b}.{b}.{b}.{b}.7</text>
<text text-anchor="middle" x="129.4" y="-369.16" font-family="Times,serif" font-size="14.00">Eps.0</text>
<text text-anchor="middle" x="129.4" y="-354.16" font-family="Times,serif" font-size="14.00">{b}.{b}.{b}.{b}.8</text>
</g>
<!-- ENTRY&#45;&gt;0 -->
<g id="edge1" class="edge">
<title>ENTRY&#45;&gt;0</title>
<path fill="none" stroke="black" d="M129.4,-561.5C129.4,-558.39 129.4,-548.65 129.4,-535.35"/>
<polygon fill="black" stroke="black" points="132.9,-535.08 129.4,-525.08 125.9,-535.08 132.9,-535.08"/>
</g>
<!-- 1 -->
<g id="node2" class="node">
<title>1</title>
<ellipse fill="none" stroke="black" cx="129.4" cy="-107.48" rx="107.46" ry="107.46"/>
<text text-anchor="middle" x="129.4" y="-141.28" font-family="Times,serif" font-size="14.00">1 &lt; {b}.{b}.{b}.8</text>
<text text-anchor="middle" x="129.4" y="-126.28" font-family="Times,serif" font-size="14.00">Eps.1</text>
<text text-anchor="middle" x="129.4" y="-111.28" font-family="Times,serif" font-size="14.00">{b}.{b}.9</text>
<text text-anchor="middle" x="129.4" y="-96.28" font-family="Times,serif" font-size="14.00">{b}.10</text>
<text text-anchor="middle" x="129.4" y="-81.28" font-family="Times,serif" font-size="14.00">Eps.11</text>
<text text-anchor="middle" x="129.4" y="-66.28" font-family="Times,serif" font-size="14.00">{b}.{b}.{b}.{b}.7</text>
</g>
<!-- 1&#45;&gt;0 -->
<g id="edge2" class="edge">
<title>1&#45;&gt;0</title>
<path fill="none" stroke="black" d="M129.4,-215.11C129.4,-228.23 129.4,-241.8 129.4,-255.32"/>
<polygon fill="black" stroke="black" points="125.9,-255.64 129.4,-265.64 132.9,-255.64 125.9,-255.64"/>
<text text-anchor="middle" x="136.9" y="-236.76" font-family="Times,serif" font-size="14.00">!a</text>
</g>
<!-- 0&#45;&gt;1 -->
<g id="edge3" class="edge">
<title>0&#45;&gt;1</title>
<path fill="none" stroke="black" d="M107.76,-267.61C107.32,-255.91 107.46,-244.22 108.4,-232.96 108.66,-229.89 108.95,-226.79 109.27,-223.66"/>
<polygon fill="black" stroke="black" points="112.76,-223.92 110.4,-213.59 105.81,-223.14 112.76,-223.92"/>
<text text-anchor="middle" x="116.9" y="-236.76" font-family="Times,serif" font-size="14.00">?b</text>
</g>
</g>
</svg>
