<?xml version="1.0" encoding="UTF-8" standalone="no"?>
<!DOCTYPE svg PUBLIC "-//W3C//DTD SVG 1.1//EN"
 "http://www.w3.org/Graphics/SVG/1.1/DTD/svg11.dtd">
<!-- Generated by graphviz version 2.43.0 (0)
 -->
<!-- Title: %3 Pages: 1 -->
<svg width="164pt" height="295pt"
 viewBox="0.00 0.00 164.06 295.13" xmlns="http://www.w3.org/2000/svg" xmlns:xlink="http://www.w3.org/1999/xlink">
<g id="graph0" class="graph" transform="scale(1 1) rotate(0) translate(4 291.13)">
<title>%3</title>
<polygon fill="white" stroke="transparent" points="-4,4 -4,-291.13 160.06,-291.13 160.06,4 -4,4"/>
<!-- ENTRY -->
<g id="node1" class="node">
<title>ENTRY</title>
<ellipse fill="black" stroke="black" cx="23.52" cy="-230.58" rx="1.8" ry="1.8"/>
</g>
<!-- 0 -->
<g id="node3" class="node">
<title>0</title>
<ellipse fill="none" stroke="red" cx="61.52" cy="-61.52" rx="61.54" ry="61.54"/>
<text text-anchor="middle" x="61.52" y="-65.32" font-family="Times,serif" font-size="14.00">0 &lt; Eps.0</text>
<text text-anchor="middle" x="61.52" y="-50.32" font-family="Times,serif" font-size="14.00">Eps.2</text>
</g>
<!-- ENTRY&#45;&gt;0 -->
<g id="edge1" class="edge">
<title>ENTRY&#45;&gt;0</title>
<path fill="none" stroke="black" d="M23.73,-228.2C24.71,-221.93 28.9,-195.49 33.52,-174.04 36.54,-160 40.07,-145.06 43.59,-130.81"/>
<polygon fill="black" stroke="black" points="46.99,-131.64 46.02,-121.09 40.2,-129.94 46.99,-131.64"/>
</g>
<!-- 1 -->
<g id="node2" class="node">
<title>1</title>
<ellipse fill="none" stroke="black" cx="99.52" cy="-230.58" rx="56.59" ry="56.59"/>
<text text-anchor="middle" x="99.52" y="-226.88" font-family="Times,serif" font-size="14.00">1 &lt; Eps.1</text>
</g>
<!-- 1&#45;&gt;0 -->
<g id="edge2" class="edge">
<title>1&#45;&gt;0</title>
<path fill="none" stroke="black" d="M87.18,-175.34C84.01,-161.41 80.56,-146.23 77.24,-131.65"/>
<polygon fill="black" stroke="black" points="80.61,-130.65 74.97,-121.68 73.78,-132.21 80.61,-130.65"/>
<text text-anchor="middle" x="89.02" y="-144.84" font-family="Times,serif" font-size="14.00">!a</text>
</g>
</g>
</svg>
