<?xml version="1.0" encoding="UTF-8" standalone="no"?>
<!DOCTYPE svg PUBLIC "-//W3C//DTD SVG 1.1//EN"
 "http://www.w3.org/Graphics/SVG/1.1/DTD/svg11.dtd">
<!-- Generated by graphviz version 2.43.0 (0)
 -->
<!-- Title: %3 Pages: 1 -->
<svg width="88pt" height="259pt"
 viewBox="0.00 0.00 88.50 258.60" xmlns="http://www.w3.org/2000/svg" xmlns:xlink="http://www.w3.org/1999/xlink">
<g id="graph0" class="graph" transform="scale(1 1) rotate(0) translate(4 254.6)">
<title>%3</title>
<polygon fill="white" stroke="transparent" points="-4,4 -4,-254.6 84.5,-254.6 84.5,4 -4,4"/>
<!-- ENTRY -->
<g id="node1" class="node">
<title>ENTRY</title>
<ellipse fill="black" stroke="black" cx="19.5" cy="-248.8" rx="1.8" ry="1.8"/>
</g>
<!-- 0 -->
<g id="node2" class="node">
<title>0</title>
<ellipse fill="none" stroke="black" cx="19.5" cy="-192" rx="18" ry="18"/>
<text text-anchor="middle" x="19.5" y="-188.3" font-family="Times,serif" font-size="14.00">0</text>
</g>
<!-- ENTRY&#45;&gt;0 -->
<g id="edge1" class="edge">
<title>ENTRY&#45;&gt;0</title>
<path fill="none" stroke="black" d="M19.5,-246.85C19.5,-243.49 19.5,-231.73 19.5,-220.05"/>
<polygon fill="black" stroke="black" points="23,-220.02 19.5,-210.02 16,-220.02 23,-220.02"/>
</g>
<!-- 1 -->
<g id="node3" class="node">
<title>1</title>
<ellipse fill="none" stroke="black" cx="19.5" cy="-105" rx="18" ry="18"/>
<text text-anchor="middle" x="19.5" y="-101.3" font-family="Times,serif" font-size="14.00">1</text>
</g>
<!-- 0&#45;&gt;1 -->
<g id="edge2" class="edge">
<title>0&#45;&gt;1</title>
<path fill="none" stroke="black" d="M9.64,-176.81C3.97,-166.94 -1.5,-153.37 1.5,-141 2.4,-137.26 3.78,-133.47 5.38,-129.84"/>
<polygon fill="black" stroke="black" points="8.6,-131.22 9.96,-120.72 2.34,-128.09 8.6,-131.22"/>
<text text-anchor="middle" x="9.5" y="-144.8" font-family="Times,serif" font-size="14.00">?a</text>
</g>
<!-- 1&#45;&gt;0 -->
<g id="edge5" class="edge">
<title>1&#45;&gt;0</title>
<path fill="none" stroke="black" d="M19.5,-123.18C19.5,-134.81 19.5,-150.42 19.5,-163.73"/>
<polygon fill="black" stroke="black" points="16,-163.8 19.5,-173.8 23,-163.8 16,-163.8"/>
<text text-anchor="middle" x="32" y="-144.8" font-family="Times,serif" font-size="14.00">?a1</text>
</g>
<!-- 1&#45;&gt;1 -->
<g id="edge4" class="edge">
<title>1&#45;&gt;1</title>
<path fill="none" stroke="black" d="M36.16,-112.38C46.12,-114.02 55.5,-111.56 55.5,-105 55.5,-100.8 51.65,-98.28 46.27,-97.44"/>
<polygon fill="black" stroke="black" points="46.1,-93.94 36.16,-97.62 46.22,-100.94 46.1,-93.94"/>
<text text-anchor="middle" x="68" y="-101.3" font-family="Times,serif" font-size="14.00">?a2</text>
</g>
<!-- 2 -->
<g id="node4" class="node">
<title>2</title>
<ellipse fill="none" stroke="black" cx="19.5" cy="-18" rx="18" ry="18"/>
<text text-anchor="middle" x="19.5" y="-14.3" font-family="Times,serif" font-size="14.00">2</text>
</g>
<!-- 1&#45;&gt;2 -->
<g id="edge3" class="edge">
<title>1&#45;&gt;2</title>
<path fill="none" stroke="black" d="M19.5,-86.8C19.5,-75.16 19.5,-59.55 19.5,-46.24"/>
<polygon fill="black" stroke="black" points="23,-46.18 19.5,-36.18 16,-46.18 23,-46.18"/>
<text text-anchor="middle" x="32" y="-57.8" font-family="Times,serif" font-size="14.00">?a3</text>
</g>
</g>
</svg>
