<?xml version="1.0" encoding="UTF-8" standalone="no"?>
<!DOCTYPE svg PUBLIC "-//W3C//DTD SVG 1.1//EN"
 "http://www.w3.org/Graphics/SVG/1.1/DTD/svg11.dtd">
<!-- Generated by graphviz version 2.43.0 (0)
 -->
<!-- Title: %3 Pages: 1 -->
<svg width="264pt" height="1021pt"
 viewBox="0.00 0.00 263.94 1020.85" xmlns="http://www.w3.org/2000/svg" xmlns:xlink="http://www.w3.org/1999/xlink">
<g id="graph0" class="graph" transform="scale(1 1) rotate(0) translate(4 1016.85)">
<title>%3</title>
<polygon fill="white" stroke="transparent" points="-4,4 -4,-1016.85 259.94,-1016.85 259.94,4 -4,4"/>
<!-- ENTRY -->
<g id="node1" class="node">
<title>ENTRY</title>
<ellipse fill="black" stroke="black" cx="129.39" cy="-1011.05" rx="1.8" ry="1.8"/>
</g>
<!-- 0 -->
<g id="node3" class="node">
<title>0</title>
<ellipse fill="none" stroke="black" cx="129.39" cy="-915.71" rx="56.59" ry="56.59"/>
<text text-anchor="middle" x="129.39" y="-912.01" font-family="Times,serif" font-size="14.00">0 &lt; Eps.0</text>
</g>
<!-- ENTRY&#45;&gt;0 -->
<g id="edge1" class="edge">
<title>ENTRY&#45;&gt;0</title>
<path fill="none" stroke="black" d="M129.39,-1009C129.39,-1005.75 129.39,-995.25 129.39,-982.45"/>
<polygon fill="black" stroke="black" points="132.89,-982.28 129.39,-972.29 125.89,-982.29 132.89,-982.28"/>
</g>
<!-- 7 -->
<g id="node2" class="node">
<title>7</title>
<ellipse fill="none" stroke="black" cx="62.39" cy="-62.39" rx="62.29" ry="62.29"/>
<text text-anchor="middle" x="62.39" y="-58.69" font-family="Times,serif" font-size="14.00">7 &lt; Eps.10</text>
</g>
<!-- 1 -->
<g id="node7" class="node">
<title>1</title>
<ellipse fill="none" stroke="black" cx="129.39" cy="-747.35" rx="60.62" ry="60.62"/>
<text text-anchor="middle" x="129.39" y="-751.15" font-family="Times,serif" font-size="14.00">1 &lt; {c}.7</text>
<text text-anchor="middle" x="129.39" y="-736.15" font-family="Times,serif" font-size="14.00">{b}.2</text>
</g>
<!-- 0&#45;&gt;1 -->
<g id="edge4" class="edge">
<title>0&#45;&gt;1</title>
<path fill="none" stroke="black" d="M129.39,-858.85C129.39,-845.91 129.39,-831.98 129.39,-818.52"/>
<polygon fill="black" stroke="black" points="132.89,-818.34 129.39,-808.34 125.89,-818.34 132.89,-818.34"/>
<text text-anchor="middle" x="141.39" y="-829.96" font-family="Times,serif" font-size="14.00">!a1</text>
</g>
<!-- 2 -->
<g id="node4" class="node">
<title>2</title>
<ellipse fill="none" stroke="black" cx="129.39" cy="-574.02" rx="61.54" ry="61.54"/>
<text text-anchor="middle" x="129.39" y="-577.82" font-family="Times,serif" font-size="14.00">2 &lt; {b}.3</text>
<text text-anchor="middle" x="129.39" y="-562.82" font-family="Times,serif" font-size="14.00">{c}.8</text>
</g>
<!-- 3 -->
<g id="node8" class="node">
<title>3</title>
<ellipse fill="none" stroke="black" cx="129.39" cy="-400.69" rx="60.62" ry="60.62"/>
<text text-anchor="middle" x="129.39" y="-404.49" font-family="Times,serif" font-size="14.00">3 &lt; {c}.9</text>
<text text-anchor="middle" x="129.39" y="-389.49" font-family="Times,serif" font-size="14.00">{b}.4</text>
</g>
<!-- 2&#45;&gt;3 -->
<g id="edge3" class="edge">
<title>2&#45;&gt;3</title>
<path fill="none" stroke="black" d="M129.39,-512.13C129.39,-499.03 129.39,-485.07 129.39,-471.65"/>
<polygon fill="black" stroke="black" points="132.89,-471.52 129.39,-461.52 125.89,-471.52 132.89,-471.52"/>
<text text-anchor="middle" x="141.39" y="-483.3" font-family="Times,serif" font-size="14.00">!a3</text>
</g>
<!-- 6 -->
<g id="node5" class="node">
<title>6</title>
<ellipse fill="none" stroke="black" cx="64.39" cy="-232.33" rx="56.59" ry="56.59"/>
<text text-anchor="middle" x="64.39" y="-228.63" font-family="Times,serif" font-size="14.00">6 &lt; Eps.9</text>
</g>
<!-- 6&#45;&gt;7 -->
<g id="edge6" class="edge">
<title>6&#45;&gt;7</title>
<path fill="none" stroke="black" d="M63.73,-175.41C63.57,-162.49 63.41,-148.56 63.25,-135.06"/>
<polygon fill="black" stroke="black" points="66.75,-134.81 63.13,-124.85 59.75,-134.89 66.75,-134.81"/>
<text text-anchor="middle" x="76.39" y="-146.59" font-family="Times,serif" font-size="14.00">!x1</text>
</g>
<!-- 5 -->
<g id="node6" class="node">
<title>5</title>
<ellipse fill="none" stroke="black" cx="199.39" cy="-62.39" rx="56.59" ry="56.59"/>
<text text-anchor="middle" x="199.39" y="-58.69" font-family="Times,serif" font-size="14.00">5 &lt; Eps.5</text>
</g>
<!-- 1&#45;&gt;2 -->
<g id="edge5" class="edge">
<title>1&#45;&gt;2</title>
<path fill="none" stroke="black" d="M129.39,-686.43C129.39,-673.35 129.39,-659.4 129.39,-645.95"/>
<polygon fill="black" stroke="black" points="132.89,-645.78 129.39,-635.78 125.89,-645.78 132.89,-645.78"/>
<text text-anchor="middle" x="141.39" y="-657.34" font-family="Times,serif" font-size="14.00">!a2</text>
</g>
<!-- 3&#45;&gt;6 -->
<g id="edge8" class="edge">
<title>3&#45;&gt;6</title>
<path fill="none" stroke="black" d="M107.57,-343.83C101.4,-328.05 94.66,-310.8 88.38,-294.71"/>
<polygon fill="black" stroke="black" points="91.63,-293.43 84.74,-285.39 85.11,-295.98 91.63,-293.43"/>
<text text-anchor="middle" x="107.39" y="-310.68" font-family="Times,serif" font-size="14.00">?c</text>
</g>
<!-- 4 -->
<g id="node9" class="node">
<title>4</title>
<ellipse fill="none" stroke="black" cx="198.39" cy="-232.33" rx="56.59" ry="56.59"/>
<text text-anchor="middle" x="198.39" y="-228.63" font-family="Times,serif" font-size="14.00">4 &lt; Eps.4</text>
</g>
<!-- 3&#45;&gt;4 -->
<g id="edge7" class="edge">
<title>3&#45;&gt;4</title>
<path fill="none" stroke="black" d="M152.37,-344.3C159.02,-328.26 166.32,-310.66 173.11,-294.3"/>
<polygon fill="black" stroke="black" points="176.44,-295.41 177.03,-284.83 169.97,-292.73 176.44,-295.41"/>
<text text-anchor="middle" x="174.89" y="-310.68" font-family="Times,serif" font-size="14.00">?b</text>
</g>
<!-- 4&#45;&gt;5 -->
<g id="edge2" class="edge">
<title>4&#45;&gt;5</title>
<path fill="none" stroke="black" d="M198.73,-175.41C198.82,-160.68 198.91,-144.65 199,-129.44"/>
<polygon fill="black" stroke="black" points="202.5,-129.09 199.06,-119.07 195.5,-129.05 202.5,-129.09"/>
<text text-anchor="middle" x="210.39" y="-146.59" font-family="Times,serif" font-size="14.00">!x2</text>
</g>
</g>
</svg>
