<?xml version="1.0" encoding="UTF-8" standalone="no"?>
<!DOCTYPE svg PUBLIC "-//W3C//DTD SVG 1.1//EN"
 "http://www.w3.org/Graphics/SVG/1.1/DTD/svg11.dtd">
<!-- Generated by graphviz version 2.43.0 (0)
 -->
<!-- Title: %3 Pages: 1 -->
<svg width="121pt" height="489pt"
 viewBox="0.00 0.00 121.09 488.57" xmlns="http://www.w3.org/2000/svg" xmlns:xlink="http://www.w3.org/1999/xlink">
<g id="graph0" class="graph" transform="scale(1 1) rotate(0) translate(4 484.57)">
<title>%3</title>
<polygon fill="white" stroke="transparent" points="-4,4 -4,-484.57 117.09,-484.57 117.09,4 -4,4"/>
<!-- ENTRY -->
<g id="node1" class="node">
<title>ENTRY</title>
<ellipse fill="black" stroke="black" cx="56.54" cy="-478.77" rx="1.8" ry="1.8"/>
</g>
<!-- 0 -->
<g id="node4" class="node">
<title>0</title>
<ellipse fill="none" stroke="black" cx="56.54" cy="-383.43" rx="56.59" ry="56.59"/>
<text text-anchor="middle" x="56.54" y="-379.73" font-family="Times,serif" font-size="14.00">0 &lt; Eps.0</text>
</g>
<!-- ENTRY&#45;&gt;0 -->
<g id="edge1" class="edge">
<title>ENTRY&#45;&gt;0</title>
<path fill="none" stroke="black" d="M56.54,-476.72C56.54,-473.47 56.54,-462.97 56.54,-450.17"/>
<polygon fill="black" stroke="black" points="60.05,-450 56.54,-440 53.05,-450 60.05,-450"/>
</g>
<!-- 2 -->
<g id="node2" class="node">
<title>2</title>
<ellipse fill="none" stroke="red" cx="56.54" cy="-56.54" rx="56.59" ry="56.59"/>
<text text-anchor="middle" x="56.54" y="-52.84" font-family="Times,serif" font-size="14.00">2 &lt; Eps.2</text>
</g>
<!-- 1 -->
<g id="node3" class="node">
<title>1</title>
<ellipse fill="none" stroke="black" cx="56.54" cy="-219.99" rx="55.79" ry="55.79"/>
<text text-anchor="middle" x="56.54" y="-216.29" font-family="Times,serif" font-size="14.00">1 &lt; {x}.2</text>
</g>
<!-- 1&#45;&gt;2 -->
<g id="edge2" class="edge">
<title>1&#45;&gt;2</title>
<path fill="none" stroke="black" d="M56.54,-163.88C56.54,-150.85 56.54,-136.83 56.54,-123.38"/>
<polygon fill="black" stroke="black" points="60.05,-123.23 56.54,-113.23 53.05,-123.23 60.05,-123.23"/>
<text text-anchor="middle" x="64.54" y="-134.89" font-family="Times,serif" font-size="14.00">?x</text>
</g>
<!-- 0&#45;&gt;1 -->
<g id="edge3" class="edge">
<title>0&#45;&gt;1</title>
<path fill="none" stroke="black" d="M56.54,-326.87C56.54,-313.78 56.54,-299.72 56.54,-286.25"/>
<polygon fill="black" stroke="black" points="60.05,-286.1 56.54,-276.1 53.05,-286.1 60.05,-286.1"/>
<text text-anchor="middle" x="64.04" y="-297.68" font-family="Times,serif" font-size="14.00">!y</text>
</g>
</g>
</svg>
