<?xml version="1.0" encoding="UTF-8" standalone="no"?>
<!DOCTYPE svg PUBLIC "-//W3C//DTD SVG 1.1//EN"
 "http://www.w3.org/Graphics/SVG/1.1/DTD/svg11.dtd">
<!-- Generated by graphviz version 2.43.0 (0)
 -->
<!-- Title: %3 Pages: 1 -->
<svg width="88pt" height="520pt"
 viewBox="0.00 0.00 88.50 519.60" xmlns="http://www.w3.org/2000/svg" xmlns:xlink="http://www.w3.org/1999/xlink">
<g id="graph0" class="graph" transform="scale(1 1) rotate(0) translate(4 515.6)">
<title>%3</title>
<polygon fill="white" stroke="transparent" points="-4,4 -4,-515.6 84.5,-515.6 84.5,4 -4,4"/>
<!-- ENTRY -->
<g id="node1" class="node">
<title>ENTRY</title>
<ellipse fill="black" stroke="black" cx="19.5" cy="-509.8" rx="1.8" ry="1.8"/>
</g>
<!-- 0 -->
<g id="node2" class="node">
<title>0</title>
<ellipse fill="none" stroke="black" cx="19.5" cy="-453" rx="18" ry="18"/>
<text text-anchor="middle" x="19.5" y="-449.3" font-family="Times,serif" font-size="14.00">0</text>
</g>
<!-- ENTRY&#45;&gt;0 -->
<g id="edge1" class="edge">
<title>ENTRY&#45;&gt;0</title>
<path fill="none" stroke="black" d="M19.5,-507.85C19.5,-504.49 19.5,-492.73 19.5,-481.05"/>
<polygon fill="black" stroke="black" points="23,-481.02 19.5,-471.02 16,-481.02 23,-481.02"/>
</g>
<!-- 1 -->
<g id="node3" class="node">
<title>1</title>
<ellipse fill="none" stroke="black" cx="19.5" cy="-366" rx="18" ry="18"/>
<text text-anchor="middle" x="19.5" y="-362.3" font-family="Times,serif" font-size="14.00">1</text>
</g>
<!-- 0&#45;&gt;1 -->
<g id="edge2" class="edge">
<title>0&#45;&gt;1</title>
<path fill="none" stroke="black" d="M9.64,-437.81C3.97,-427.94 -1.5,-414.37 1.5,-402 2.4,-398.26 3.78,-394.47 5.38,-390.84"/>
<polygon fill="black" stroke="black" points="8.6,-392.22 9.96,-381.72 2.34,-389.09 8.6,-392.22"/>
<text text-anchor="middle" x="9.5" y="-405.8" font-family="Times,serif" font-size="14.00">?a</text>
</g>
<!-- 1&#45;&gt;0 -->
<g id="edge8" class="edge">
<title>1&#45;&gt;0</title>
<path fill="none" stroke="black" d="M19.5,-384.18C19.5,-395.81 19.5,-411.42 19.5,-424.73"/>
<polygon fill="black" stroke="black" points="16,-424.8 19.5,-434.8 23,-424.8 16,-424.8"/>
<text text-anchor="middle" x="32" y="-405.8" font-family="Times,serif" font-size="14.00">?a1</text>
</g>
<!-- 1&#45;&gt;1 -->
<g id="edge7" class="edge">
<title>1&#45;&gt;1</title>
<path fill="none" stroke="black" d="M36.16,-373.38C46.12,-375.02 55.5,-372.56 55.5,-366 55.5,-361.8 51.65,-359.28 46.27,-358.44"/>
<polygon fill="black" stroke="black" points="46.1,-354.94 36.16,-358.62 46.22,-361.94 46.1,-354.94"/>
<text text-anchor="middle" x="68" y="-362.3" font-family="Times,serif" font-size="14.00">?a2</text>
</g>
<!-- 2 -->
<g id="node4" class="node">
<title>2</title>
<ellipse fill="none" stroke="black" cx="19.5" cy="-279" rx="18" ry="18"/>
<text text-anchor="middle" x="19.5" y="-275.3" font-family="Times,serif" font-size="14.00">2</text>
</g>
<!-- 1&#45;&gt;2 -->
<g id="edge3" class="edge">
<title>1&#45;&gt;2</title>
<path fill="none" stroke="black" d="M19.5,-347.8C19.5,-336.16 19.5,-320.55 19.5,-307.24"/>
<polygon fill="black" stroke="black" points="23,-307.18 19.5,-297.18 16,-307.18 23,-307.18"/>
<text text-anchor="middle" x="32" y="-318.8" font-family="Times,serif" font-size="14.00">?a3</text>
</g>
<!-- 3 -->
<g id="node5" class="node">
<title>3</title>
<ellipse fill="none" stroke="black" cx="19.5" cy="-192" rx="18" ry="18"/>
<text text-anchor="middle" x="19.5" y="-188.3" font-family="Times,serif" font-size="14.00">3</text>
</g>
<!-- 2&#45;&gt;3 -->
<g id="edge4" class="edge">
<title>2&#45;&gt;3</title>
<path fill="none" stroke="black" d="M19.5,-260.8C19.5,-249.16 19.5,-233.55 19.5,-220.24"/>
<polygon fill="black" stroke="black" points="23,-220.18 19.5,-210.18 16,-220.18 23,-220.18"/>
<text text-anchor="middle" x="27" y="-231.8" font-family="Times,serif" font-size="14.00">!y</text>
</g>
<!-- 4 -->
<g id="node6" class="node">
<title>4</title>
<ellipse fill="none" stroke="black" cx="19.5" cy="-105" rx="18" ry="18"/>
<text text-anchor="middle" x="19.5" y="-101.3" font-family="Times,serif" font-size="14.00">4</text>
</g>
<!-- 3&#45;&gt;4 -->
<g id="edge5" class="edge">
<title>3&#45;&gt;4</title>
<path fill="none" stroke="black" d="M19.5,-173.8C19.5,-162.16 19.5,-146.55 19.5,-133.24"/>
<polygon fill="black" stroke="black" points="23,-133.18 19.5,-123.18 16,-133.18 23,-133.18"/>
<text text-anchor="middle" x="27" y="-144.8" font-family="Times,serif" font-size="14.00">!e</text>
</g>
<!-- 5 -->
<g id="node7" class="node">
<title>5</title>
<ellipse fill="none" stroke="black" cx="19.5" cy="-18" rx="18" ry="18"/>
<text text-anchor="middle" x="19.5" y="-14.3" font-family="Times,serif" font-size="14.00">5</text>
</g>
<!-- 4&#45;&gt;5 -->
<g id="edge6" class="edge">
<title>4&#45;&gt;5</title>
<path fill="none" stroke="black" d="M19.5,-86.8C19.5,-75.16 19.5,-59.55 19.5,-46.24"/>
<polygon fill="black" stroke="black" points="23,-46.18 19.5,-36.18 16,-46.18 23,-46.18"/>
<text text-anchor="middle" x="25.5" y="-57.8" font-family="Times,serif" font-size="14.00">!f</text>
</g>
</g>
</svg>
