<?xml version="1.0" encoding="UTF-8" standalone="no"?>
<!DOCTYPE svg PUBLIC "-//W3C//DTD SVG 1.1//EN"
 "http://www.w3.org/Graphics/SVG/1.1/DTD/svg11.dtd">
<!-- Generated by graphviz version 2.43.0 (0)
 -->
<!-- Title: %3 Pages: 1 -->
<svg width="277pt" height="610pt"
 viewBox="0.00 0.00 277.29 610.22" xmlns="http://www.w3.org/2000/svg" xmlns:xlink="http://www.w3.org/1999/xlink">
<g id="graph0" class="graph" transform="scale(1 1) rotate(0) translate(4 606.22)">
<title>%3</title>
<polygon fill="white" stroke="transparent" points="-4,4 -4,-606.22 273.29,-606.22 273.29,4 -4,4"/>
<!-- ENTRY -->
<g id="node1" class="node">
<title>ENTRY</title>
<ellipse fill="black" stroke="black" cx="147.15" cy="-600.42" rx="1.8" ry="1.8"/>
</g>
<!-- 0 -->
<g id="node4" class="node">
<title>0</title>
<ellipse fill="none" stroke="black" cx="147.15" cy="-500.1" rx="61.54" ry="61.54"/>
<text text-anchor="middle" x="147.15" y="-503.9" font-family="Times,serif" font-size="14.00">0 &lt; Eps.0</text>
<text text-anchor="middle" x="147.15" y="-488.9" font-family="Times,serif" font-size="14.00">({d,x})*.1</text>
</g>
<!-- ENTRY&#45;&gt;0 -->
<g id="edge1" class="edge">
<title>ENTRY&#45;&gt;0</title>
<path fill="none" stroke="black" d="M147.15,-598.32C147.15,-595.02 147.15,-584.69 147.15,-571.92"/>
<polygon fill="black" stroke="black" points="150.65,-571.76 147.15,-561.76 143.65,-571.76 150.65,-571.76"/>
</g>
<!-- 2 -->
<g id="node2" class="node">
<title>2</title>
<ellipse fill="none" stroke="black" cx="84.15" cy="-84.15" rx="84.29" ry="84.29"/>
<text text-anchor="middle" x="84.15" y="-102.95" font-family="Times,serif" font-size="14.00">2 &lt; Eps.1</text>
<text text-anchor="middle" x="84.15" y="-87.95" font-family="Times,serif" font-size="14.00">({d,x})*.{d}.1</text>
<text text-anchor="middle" x="84.15" y="-72.95" font-family="Times,serif" font-size="14.00">({d,x})*.{x}.1</text>
<text text-anchor="middle" x="84.15" y="-57.95" font-family="Times,serif" font-size="14.00">Eps.0</text>
</g>
<!-- 2&#45;&gt;0 -->
<g id="edge2" class="edge">
<title>2&#45;&gt;0</title>
<path fill="none" stroke="black" d="M69.2,-167.07C61.02,-228.9 56.3,-315.16 77.15,-387.58 82.69,-406.85 92.65,-426.01 103.36,-442.86"/>
<polygon fill="black" stroke="black" points="100.59,-445.02 109,-451.46 106.44,-441.18 100.59,-445.02"/>
<text text-anchor="middle" x="84.65" y="-299.74" font-family="Times,serif" font-size="14.00">!a</text>
</g>
<!-- 1 -->
<g id="node3" class="node">
<title>1</title>
<ellipse fill="none" stroke="black" cx="185.15" cy="-303.44" rx="84.29" ry="84.29"/>
<text text-anchor="middle" x="185.15" y="-314.74" font-family="Times,serif" font-size="14.00">1 &lt; Eps.1</text>
<text text-anchor="middle" x="185.15" y="-299.74" font-family="Times,serif" font-size="14.00">({d,x})*.{d}.1</text>
<text text-anchor="middle" x="185.15" y="-284.74" font-family="Times,serif" font-size="14.00">({d,x})*.{x}.1</text>
</g>
<!-- 1&#45;&gt;2 -->
<g id="edge4" class="edge">
<title>1&#45;&gt;2</title>
<path fill="none" stroke="black" d="M149.96,-226.74C141.45,-208.43 132.3,-188.73 123.6,-170.03"/>
<polygon fill="black" stroke="black" points="126.76,-168.53 119.37,-160.94 120.41,-171.48 126.76,-168.53"/>
<text text-anchor="middle" x="145.15" y="-190.09" font-family="Times,serif" font-size="14.00">?x</text>
</g>
<!-- 1&#45;&gt;0 -->
<g id="edge3" class="edge">
<title>1&#45;&gt;0</title>
<path fill="none" stroke="black" d="M169.78,-386.32C167.58,-397.83 165.32,-409.51 163.15,-420.58 162.56,-423.56 161.96,-426.6 161.35,-429.66"/>
<polygon fill="black" stroke="black" points="157.91,-429.03 159.38,-439.53 164.77,-430.41 157.91,-429.03"/>
<text text-anchor="middle" x="173.65" y="-409.38" font-family="Times,serif" font-size="14.00">?d</text>
</g>
<!-- 0&#45;&gt;1 -->
<g id="edge5" class="edge">
<title>0&#45;&gt;1</title>
<path fill="none" stroke="black" d="M141.25,-438.42C141.3,-427.42 142.09,-416.11 144.15,-405.58 145.13,-400.54 146.36,-395.43 147.79,-390.32"/>
<polygon fill="black" stroke="black" points="151.2,-391.11 150.74,-380.53 144.5,-389.1 151.2,-391.11"/>
<text text-anchor="middle" x="151.65" y="-409.38" font-family="Times,serif" font-size="14.00">!a</text>
</g>
</g>
</svg>
