<?xml version="1.0" encoding="UTF-8" standalone="no"?>
<!DOCTYPE svg PUBLIC "-//W3C//DTD SVG 1.1//EN"
 "http://www.w3.org/Graphics/SVG/1.1/DTD/svg11.dtd">
<!-- Generated by graphviz version 2.43.0 (0)
 -->
<!-- Title: %3 Pages: 1 -->
<svg width="429pt" height="843pt"
 viewBox="0.00 0.00 429.03 843.44" xmlns="http://www.w3.org/2000/svg" xmlns:xlink="http://www.w3.org/1999/xlink">
<g id="graph0" class="graph" transform="scale(1 1) rotate(0) translate(4 839.44)">
<title>%3</title>
<polygon fill="white" stroke="transparent" points="-4,4 -4,-839.44 425.03,-839.44 425.03,4 -4,4"/>
<!-- ENTRY -->
<g id="node1" class="node">
<title>ENTRY</title>
<ellipse fill="black" stroke="black" cx="155.34" cy="-833.64" rx="1.8" ry="1.8"/>
</g>
<!-- 0 -->
<g id="node4" class="node">
<title>0</title>
<ellipse fill="none" stroke="black" cx="155.34" cy="-719.45" rx="75.29" ry="75.29"/>
<text text-anchor="middle" x="155.34" y="-715.75" font-family="Times,serif" font-size="14.00">0 &lt; ({b,c})*.0</text>
</g>
<!-- ENTRY&#45;&gt;0 -->
<g id="edge1" class="edge">
<title>ENTRY&#45;&gt;0</title>
<path fill="none" stroke="black" d="M155.34,-831.38C155.34,-827.96 155.34,-817.93 155.34,-805.2"/>
<polygon fill="black" stroke="black" points="158.84,-805.01 155.34,-795.01 151.84,-805.01 158.84,-805.01"/>
</g>
<!-- 2 -->
<g id="node2" class="node">
<title>2</title>
<ellipse fill="none" stroke="black" cx="155.34" cy="-155.34" rx="155.17" ry="155.17"/>
<text text-anchor="middle" x="155.34" y="-151.64" font-family="Times,serif" font-size="14.00">2 &lt; ({b,c})*.{b}.{c}.{b}.{c}.0</text>
</g>
<!-- 2&#45;&gt;0 -->
<g id="edge2" class="edge">
<title>2&#45;&gt;0</title>
<path fill="none" stroke="black" d="M123.3,-307.54C120.43,-325.71 117.99,-344.06 116.34,-361.67 106.7,-464.06 100.89,-491.38 116.34,-593.05 118.61,-608.03 122.33,-623.68 126.6,-638.64"/>
<polygon fill="black" stroke="black" points="123.28,-639.76 129.47,-648.36 129.99,-637.78 123.28,-639.76"/>
<text text-anchor="middle" x="124.84" y="-473.66" font-family="Times,serif" font-size="14.00">?b</text>
</g>
<!-- 2&#45;&gt;0 -->
<g id="edge3" class="edge">
<title>2&#45;&gt;0</title>
<path fill="none" stroke="black" d="M155.34,-310.93C155.34,-415.04 155.34,-548.4 155.34,-633.65"/>
<polygon fill="black" stroke="black" points="151.84,-633.8 155.34,-643.8 158.84,-633.8 151.84,-633.8"/>
<text text-anchor="middle" x="163.34" y="-473.66" font-family="Times,serif" font-size="14.00">?c</text>
</g>
<!-- 1 -->
<g id="node3" class="node">
<title>1</title>
<ellipse fill="none" stroke="black" cx="305.34" cy="-477.36" rx="115.88" ry="115.88"/>
<text text-anchor="middle" x="305.34" y="-473.66" font-family="Times,serif" font-size="14.00">1 &lt; ({b,c})*.{b}.{c}.0</text>
</g>
<!-- 1&#45;&gt;2 -->
<g id="edge4" class="edge">
<title>1&#45;&gt;2</title>
<path fill="none" stroke="black" d="M256.43,-372.02C246.47,-350.77 235.81,-328.04 225.29,-305.59"/>
<polygon fill="black" stroke="black" points="228.36,-303.89 220.95,-296.33 222.03,-306.87 228.36,-303.89"/>
<text text-anchor="middle" x="246.84" y="-332.47" font-family="Times,serif" font-size="14.00">!a</text>
</g>
<!-- 0&#45;&gt;1 -->
<g id="edge5" class="edge">
<title>0&#45;&gt;1</title>
<path fill="none" stroke="black" d="M194.94,-655.05C208.39,-633.52 223.82,-608.84 238.78,-584.88"/>
<polygon fill="black" stroke="black" points="241.94,-586.43 244.27,-576.1 236.01,-582.72 241.94,-586.43"/>
<text text-anchor="middle" x="229.84" y="-614.85" font-family="Times,serif" font-size="14.00">!a</text>
</g>
</g>
</svg>
