<?xml version="1.0" encoding="UTF-8" standalone="no"?>
<!DOCTYPE svg PUBLIC "-//W3C//DTD SVG 1.1//EN"
 "http://www.w3.org/Graphics/SVG/1.1/DTD/svg11.dtd">
<!-- Generated by graphviz version 2.43.0 (0)
 -->
<!-- Title: %3 Pages: 1 -->
<svg width="118pt" height="259pt"
 viewBox="0.00 0.00 118.00 258.60" xmlns="http://www.w3.org/2000/svg" xmlns:xlink="http://www.w3.org/1999/xlink">
<g id="graph0" class="graph" transform="scale(1 1) rotate(0) translate(4 254.6)">
<title>%3</title>
<polygon fill="white" stroke="transparent" points="-4,4 -4,-254.6 114,-254.6 114,4 -4,4"/>
<!-- ENTRY -->
<g id="node1" class="node">
<title>ENTRY</title>
<ellipse fill="black" stroke="black" cx="72" cy="-248.8" rx="1.8" ry="1.8"/>
</g>
<!-- 0 -->
<g id="node2" class="node">
<title>0</title>
<ellipse fill="none" stroke="black" cx="72" cy="-192" rx="18" ry="18"/>
<text text-anchor="middle" x="72" y="-188.3" font-family="Times,serif" font-size="14.00">0</text>
</g>
<!-- ENTRY&#45;&gt;0 -->
<g id="edge1" class="edge">
<title>ENTRY&#45;&gt;0</title>
<path fill="none" stroke="black" d="M72,-246.85C72,-243.49 72,-231.73 72,-220.05"/>
<polygon fill="black" stroke="black" points="75.5,-220.02 72,-210.02 68.5,-220.02 75.5,-220.02"/>
</g>
<!-- 1 -->
<g id="node3" class="node">
<title>1</title>
<ellipse fill="none" stroke="black" cx="18" cy="-105" rx="18" ry="18"/>
<text text-anchor="middle" x="18" y="-101.3" font-family="Times,serif" font-size="14.00">1</text>
</g>
<!-- 0&#45;&gt;1 -->
<g id="edge2" class="edge">
<title>0&#45;&gt;1</title>
<path fill="none" stroke="black" d="M60.24,-178.25C54.64,-171.85 48.09,-163.8 43,-156 37.89,-148.17 33.09,-139.15 29.09,-130.95"/>
<polygon fill="black" stroke="black" points="32.21,-129.37 24.78,-121.82 25.88,-132.36 32.21,-129.37"/>
<text text-anchor="middle" x="50.5" y="-144.8" font-family="Times,serif" font-size="14.00">!a</text>
</g>
<!-- 2 -->
<g id="node4" class="node">
<title>2</title>
<ellipse fill="none" stroke="black" cx="72" cy="-18" rx="18" ry="18"/>
<text text-anchor="middle" x="72" y="-14.3" font-family="Times,serif" font-size="14.00">2</text>
</g>
<!-- 1&#45;&gt;2 -->
<g id="edge3" class="edge">
<title>1&#45;&gt;2</title>
<path fill="none" stroke="black" d="M24.78,-88.18C29.38,-78.08 35.9,-64.89 43,-54 46.18,-49.12 49.93,-44.15 53.67,-39.55"/>
<polygon fill="black" stroke="black" points="56.47,-41.65 60.24,-31.75 51.12,-37.14 56.47,-41.65"/>
<text text-anchor="middle" x="50.5" y="-57.8" font-family="Times,serif" font-size="14.00">!a</text>
</g>
<!-- 2&#45;&gt;0 -->
<g id="edge4" class="edge">
<title>2&#45;&gt;0</title>
<path fill="none" stroke="black" d="M72,-36.05C72,-65.88 72,-127.76 72,-163.64"/>
<polygon fill="black" stroke="black" points="68.5,-163.88 72,-173.88 75.5,-163.88 68.5,-163.88"/>
<text text-anchor="middle" x="80" y="-101.3" font-family="Times,serif" font-size="14.00">?c</text>
</g>
<!-- 2&#45;&gt;0 -->
<g id="edge5" class="edge">
<title>2&#45;&gt;0</title>
<path fill="none" stroke="black" d="M79.1,-34.79C81.56,-40.73 84.15,-47.58 86,-54 94.51,-83.58 94.76,-92.34 92,-123 90.66,-137.85 90.12,-141.67 86,-156 85.08,-159.21 83.97,-162.53 82.78,-165.78"/>
<polygon fill="black" stroke="black" points="79.48,-164.62 79.1,-175.21 86,-167.16 79.48,-164.62"/>
<text text-anchor="middle" x="101.5" y="-101.3" font-family="Times,serif" font-size="14.00">?b</text>
</g>
</g>
</svg>
