<?xml version="1.0" encoding="UTF-8" standalone="no"?>
<!DOCTYPE svg PUBLIC "-//W3C//DTD SVG 1.1//EN"
 "http://www.w3.org/Graphics/SVG/1.1/DTD/svg11.dtd">
<!-- Generated by graphviz version 2.43.0 (0)
 -->
<!-- Title: %3 Pages: 1 -->
<svg width="131pt" height="344pt"
 viewBox="0.00 0.00 131.04 344.26" xmlns="http://www.w3.org/2000/svg" xmlns:xlink="http://www.w3.org/1999/xlink">
<g id="graph0" class="graph" transform="scale(1 1) rotate(0) translate(4 340.26)">
<title>%3</title>
<polygon fill="white" stroke="transparent" points="-4,4 -4,-340.26 127.04,-340.26 127.04,4 -4,4"/>
<!-- ENTRY -->
<g id="node1" class="node">
<title>ENTRY</title>
<ellipse fill="black" stroke="black" cx="61.52" cy="-334.46" rx="1.8" ry="1.8"/>
</g>
<!-- 0 -->
<g id="node3" class="node">
<title>0</title>
<ellipse fill="none" stroke="black" cx="61.52" cy="-234.14" rx="61.54" ry="61.54"/>
<text text-anchor="middle" x="61.52" y="-245.44" font-family="Times,serif" font-size="14.00">0 &lt; Eps.0</text>
<text text-anchor="middle" x="61.52" y="-230.44" font-family="Times,serif" font-size="14.00">Eps.2</text>
<text text-anchor="middle" x="61.52" y="-215.44" font-family="Times,serif" font-size="14.00">Eps.1</text>
</g>
<!-- ENTRY&#45;&gt;0 -->
<g id="edge1" class="edge">
<title>ENTRY&#45;&gt;0</title>
<path fill="none" stroke="black" d="M61.52,-332.35C61.52,-329.06 61.52,-318.73 61.52,-305.96"/>
<polygon fill="black" stroke="black" points="65.02,-305.8 61.52,-295.8 58.02,-305.8 65.02,-305.8"/>
</g>
<!-- 1 -->
<g id="node2" class="node">
<title>1</title>
<ellipse fill="none" stroke="red" cx="61.52" cy="-60.81" rx="60.62" ry="60.62"/>
<text text-anchor="middle" x="61.52" y="-72.11" font-family="Times,serif" font-size="14.00">1 &lt; {a}.2</text>
<text text-anchor="middle" x="61.52" y="-57.11" font-family="Times,serif" font-size="14.00">Eps.2</text>
<text text-anchor="middle" x="61.52" y="-42.11" font-family="Times,serif" font-size="14.00">Eps.0</text>
</g>
<!-- 0&#45;&gt;1 -->
<g id="edge2" class="edge">
<title>0&#45;&gt;1</title>
<path fill="none" stroke="black" d="M61.52,-172.25C61.52,-159.15 61.52,-145.19 61.52,-131.77"/>
<polygon fill="black" stroke="black" points="65.02,-131.64 61.52,-121.64 58.02,-131.64 65.02,-131.64"/>
<text text-anchor="middle" x="69.52" y="-143.42" font-family="Times,serif" font-size="14.00">!b</text>
</g>
</g>
</svg>
