<?xml version="1.0" encoding="UTF-8" standalone="no"?>
<!DOCTYPE svg PUBLIC "-//W3C//DTD SVG 1.1//EN"
 "http://www.w3.org/Graphics/SVG/1.1/DTD/svg11.dtd">
<!-- Generated by graphviz version 2.43.0 (0)
 -->
<!-- Title: %3 Pages: 1 -->
<svg width="229pt" height="690pt"
 viewBox="0.00 0.00 228.59 690.36" xmlns="http://www.w3.org/2000/svg" xmlns:xlink="http://www.w3.org/1999/xlink">
<g id="graph0" class="graph" transform="scale(1 1) rotate(0) translate(4 686.36)">
<title>%3</title>
<polygon fill="white" stroke="transparent" points="-4,4 -4,-686.36 224.59,-686.36 224.59,4 -4,4"/>
<!-- ENTRY -->
<g id="node1" class="node">
<title>ENTRY</title>
<ellipse fill="black" stroke="black" cx="56.54" cy="-680.56" rx="1.8" ry="1.8"/>
</g>
<!-- 0 -->
<g id="node5" class="node">
<title>0</title>
<ellipse fill="none" stroke="black" cx="56.54" cy="-585.21" rx="56.59" ry="56.59"/>
<text text-anchor="middle" x="56.54" y="-581.51" font-family="Times,serif" font-size="14.00">0 &lt; Eps.0</text>
</g>
<!-- ENTRY&#45;&gt;0 -->
<g id="edge1" class="edge">
<title>ENTRY&#45;&gt;0</title>
<path fill="none" stroke="black" d="M56.54,-678.51C56.54,-675.25 56.54,-664.76 56.54,-651.95"/>
<polygon fill="black" stroke="black" points="60.05,-651.79 56.54,-641.79 53.05,-651.79 60.05,-651.79"/>
</g>
<!-- 3 -->
<g id="node2" class="node">
<title>3</title>
<ellipse fill="none" stroke="black" cx="56.54" cy="-55.9" rx="55.79" ry="55.79"/>
<text text-anchor="middle" x="56.54" y="-52.2" font-family="Times,serif" font-size="14.00">3 &lt; {c}.0</text>
</g>
<!-- 3&#45;&gt;0 -->
<g id="edge2" class="edge">
<title>3&#45;&gt;0</title>
<path fill="none" stroke="black" d="M56.54,-111.86C56.54,-209.54 56.54,-412.96 56.54,-518.11"/>
<polygon fill="black" stroke="black" points="53.05,-518.28 56.54,-528.28 60.05,-518.28 53.05,-518.28"/>
<text text-anchor="middle" x="64.54" y="-296.38" font-family="Times,serif" font-size="14.00">?c</text>
</g>
<!-- 2 -->
<g id="node3" class="node">
<title>2</title>
<ellipse fill="none" stroke="black" cx="134.54" cy="-218.69" rx="55.79" ry="55.79"/>
<text text-anchor="middle" x="134.54" y="-214.99" font-family="Times,serif" font-size="14.00">2 &lt; {c}.3</text>
</g>
<!-- 2&#45;&gt;3 -->
<g id="edge3" class="edge">
<title>2&#45;&gt;3</title>
<path fill="none" stroke="black" d="M110.51,-168.13C102.5,-151.63 93.5,-133.08 85.18,-115.92"/>
<polygon fill="black" stroke="black" points="88.15,-114.03 80.64,-106.56 81.85,-117.09 88.15,-114.03"/>
<text text-anchor="middle" x="106.04" y="-133.59" font-family="Times,serif" font-size="14.00">!a</text>
</g>
<!-- 1 -->
<g id="node4" class="node">
<title>1</title>
<ellipse fill="none" stroke="black" cx="144.54" cy="-401.62" rx="76.09" ry="76.09"/>
<text text-anchor="middle" x="144.54" y="-397.92" font-family="Times,serif" font-size="14.00">1 &lt; {b}.{c}.3</text>
</g>
<!-- 1&#45;&gt;2 -->
<g id="edge4" class="edge">
<title>1&#45;&gt;2</title>
<path fill="none" stroke="black" d="M140.39,-325.46C139.65,-312.05 138.88,-298.18 138.16,-285.08"/>
<polygon fill="black" stroke="black" points="141.64,-284.54 137.59,-274.75 134.65,-284.93 141.64,-284.54"/>
<text text-anchor="middle" x="147.04" y="-296.38" font-family="Times,serif" font-size="14.00">?b</text>
</g>
<!-- 0&#45;&gt;1 -->
<g id="edge5" class="edge">
<title>0&#45;&gt;1</title>
<path fill="none" stroke="black" d="M80.82,-534.11C88.96,-517.32 98.24,-498.18 107.14,-479.81"/>
<polygon fill="black" stroke="black" points="110.4,-481.1 111.62,-470.57 104.1,-478.05 110.4,-481.1"/>
<text text-anchor="middle" x="106.04" y="-499.47" font-family="Times,serif" font-size="14.00">!a</text>
</g>
</g>
</svg>
