<?xml version="1.0" encoding="UTF-8" standalone="no"?>
<!DOCTYPE svg PUBLIC "-//W3C//DTD SVG 1.1//EN"
 "http://www.w3.org/Graphics/SVG/1.1/DTD/svg11.dtd">
<!-- Generated by graphviz version 2.43.0 (0)
 -->
<!-- Title: %3 Pages: 1 -->
<svg width="131pt" height="346pt"
 viewBox="0.00 0.00 131.04 345.67" xmlns="http://www.w3.org/2000/svg" xmlns:xlink="http://www.w3.org/1999/xlink">
<g id="graph0" class="graph" transform="scale(1 1) rotate(0) translate(4 341.67)">
<title>%3</title>
<polygon fill="white" stroke="transparent" points="-4,4 -4,-341.67 127.04,-341.67 127.04,4 -4,4"/>
<!-- ENTRY -->
<g id="node1" class="node">
<title>ENTRY</title>
<ellipse fill="black" stroke="black" cx="61.52" cy="-335.87" rx="1.8" ry="1.8"/>
</g>
<!-- 0 -->
<g id="node3" class="node">
<title>0</title>
<ellipse fill="none" stroke="black" cx="61.52" cy="-235.55" rx="61.54" ry="61.54"/>
<text text-anchor="middle" x="61.52" y="-239.35" font-family="Times,serif" font-size="14.00">0 &lt; Eps.0</text>
<text text-anchor="middle" x="61.52" y="-224.35" font-family="Times,serif" font-size="14.00">Eps.2</text>
</g>
<!-- ENTRY&#45;&gt;0 -->
<g id="edge1" class="edge">
<title>ENTRY&#45;&gt;0</title>
<path fill="none" stroke="black" d="M61.52,-333.77C61.52,-330.47 61.52,-320.14 61.52,-307.37"/>
<polygon fill="black" stroke="black" points="65.02,-307.21 61.52,-297.21 58.02,-307.21 65.02,-307.21"/>
</g>
<!-- 1 -->
<g id="node2" class="node">
<title>1</title>
<ellipse fill="none" stroke="red" cx="61.52" cy="-61.52" rx="61.54" ry="61.54"/>
<text text-anchor="middle" x="61.52" y="-65.32" font-family="Times,serif" font-size="14.00">1 &lt; Eps.1</text>
<text text-anchor="middle" x="61.52" y="-50.32" font-family="Times,serif" font-size="14.00">{x}.1</text>
</g>
<!-- 0&#45;&gt;1 -->
<g id="edge2" class="edge">
<title>0&#45;&gt;1</title>
<path fill="none" stroke="black" d="M61.52,-173.9C61.52,-160.8 61.52,-146.83 61.52,-133.37"/>
<polygon fill="black" stroke="black" points="65.02,-133.2 61.52,-123.2 58.02,-133.2 65.02,-133.2"/>
<text text-anchor="middle" x="69.52" y="-144.84" font-family="Times,serif" font-size="14.00">!b</text>
</g>
</g>
</svg>
