<?xml version="1.0" encoding="UTF-8" standalone="no"?>
<!DOCTYPE svg PUBLIC "-//W3C//DTD SVG 1.1//EN"
 "http://www.w3.org/Graphics/SVG/1.1/DTD/svg11.dtd">
<!-- Generated by graphviz version 2.43.0 (0)
 -->
<!-- Title: %3 Pages: 1 -->
<svg width="79pt" height="172pt"
 viewBox="0.00 0.00 79.00 171.60" xmlns="http://www.w3.org/2000/svg" xmlns:xlink="http://www.w3.org/1999/xlink">
<g id="graph0" class="graph" transform="scale(1 1) rotate(0) translate(4 167.6)">
<title>%3</title>
<polygon fill="white" stroke="transparent" points="-4,4 -4,-167.6 75,-167.6 75,4 -4,4"/>
<!-- ENTRY -->
<g id="node1" class="node">
<title>ENTRY</title>
<ellipse fill="black" stroke="black" cx="18" cy="-161.8" rx="1.8" ry="1.8"/>
</g>
<!-- 0 -->
<g id="node2" class="node">
<title>0</title>
<ellipse fill="none" stroke="black" cx="18" cy="-105" rx="18" ry="18"/>
<text text-anchor="middle" x="18" y="-101.3" font-family="Times,serif" font-size="14.00">0</text>
</g>
<!-- ENTRY&#45;&gt;0 -->
<g id="edge1" class="edge">
<title>ENTRY&#45;&gt;0</title>
<path fill="none" stroke="black" d="M18,-159.85C18,-156.49 18,-144.73 18,-133.05"/>
<polygon fill="black" stroke="black" points="21.5,-133.02 18,-123.02 14.5,-133.02 21.5,-133.02"/>
</g>
<!-- 0&#45;&gt;0 -->
<g id="edge2" class="edge">
<title>0&#45;&gt;0</title>
<path fill="none" stroke="black" d="M35.04,-111.38C44.86,-112.68 54,-110.55 54,-105 54,-101.53 50.43,-99.4 45.35,-98.6"/>
<polygon fill="black" stroke="black" points="45.03,-95.1 35.04,-98.62 45.04,-102.1 45.03,-95.1"/>
<text text-anchor="middle" x="62.5" y="-101.3" font-family="Times,serif" font-size="14.00">?b</text>
</g>
<!-- 1 -->
<g id="node3" class="node">
<title>1</title>
<ellipse fill="none" stroke="black" cx="18" cy="-18" rx="18" ry="18"/>
<text text-anchor="middle" x="18" y="-14.3" font-family="Times,serif" font-size="14.00">1</text>
</g>
<!-- 0&#45;&gt;1 -->
<g id="edge3" class="edge">
<title>0&#45;&gt;1</title>
<path fill="none" stroke="black" d="M18,-86.8C18,-75.16 18,-59.55 18,-46.24"/>
<polygon fill="black" stroke="black" points="21.5,-46.18 18,-36.18 14.5,-46.18 21.5,-46.18"/>
<text text-anchor="middle" x="26" y="-57.8" font-family="Times,serif" font-size="14.00">?a</text>
</g>
</g>
</svg>
