<?xml version="1.0" encoding="UTF-8" standalone="no"?>
<!DOCTYPE svg PUBLIC "-//W3C//DTD SVG 1.1//EN"
 "http://www.w3.org/Graphics/SVG/1.1/DTD/svg11.dtd">
<!-- Generated by graphviz version 2.43.0 (0)
 -->
<!-- Title: %3 Pages: 1 -->
<svg width="121pt" height="982pt"
 viewBox="0.00 0.00 121.09 982.14" xmlns="http://www.w3.org/2000/svg" xmlns:xlink="http://www.w3.org/1999/xlink">
<g id="graph0" class="graph" transform="scale(1 1) rotate(0) translate(4 978.14)">
<title>%3</title>
<polygon fill="white" stroke="transparent" points="-4,4 -4,-978.14 117.09,-978.14 117.09,4 -4,4"/>
<!-- ENTRY -->
<g id="node1" class="node">
<title>ENTRY</title>
<ellipse fill="black" stroke="black" cx="56.54" cy="-972.34" rx="1.8" ry="1.8"/>
</g>
<!-- 0 -->
<g id="node7" class="node">
<title>0</title>
<ellipse fill="none" stroke="black" cx="56.54" cy="-876.99" rx="56.59" ry="56.59"/>
<text text-anchor="middle" x="56.54" y="-873.29" font-family="Times,serif" font-size="14.00">0 &lt; Eps.0</text>
</g>
<!-- ENTRY&#45;&gt;0 -->
<g id="edge1" class="edge">
<title>ENTRY&#45;&gt;0</title>
<path fill="none" stroke="black" d="M56.54,-970.29C56.54,-967.04 56.54,-956.54 56.54,-943.74"/>
<polygon fill="black" stroke="black" points="60.05,-943.57 56.54,-933.57 53.05,-943.57 60.05,-943.57"/>
</g>
<!-- 4 -->
<g id="node2" class="node">
<title>4</title>
<ellipse fill="none" stroke="black" cx="56.54" cy="-220.63" rx="56.59" ry="56.59"/>
<text text-anchor="middle" x="56.54" y="-216.93" font-family="Times,serif" font-size="14.00">4 &lt; {b}.5</text>
</g>
<!-- 5 -->
<g id="node4" class="node">
<title>5</title>
<ellipse fill="none" stroke="black" cx="56.54" cy="-56.54" rx="56.59" ry="56.59"/>
<text text-anchor="middle" x="56.54" y="-52.84" font-family="Times,serif" font-size="14.00">5 &lt; Eps.5</text>
</g>
<!-- 4&#45;&gt;5 -->
<g id="edge6" class="edge">
<title>4&#45;&gt;5</title>
<path fill="none" stroke="black" d="M56.54,-163.85C56.54,-150.79 56.54,-136.76 56.54,-123.3"/>
<polygon fill="black" stroke="black" points="60.05,-123.16 56.54,-113.16 53.05,-123.16 60.05,-123.16"/>
<text text-anchor="middle" x="65.04" y="-134.89" font-family="Times,serif" font-size="14.00">?b</text>
</g>
<!-- 2 -->
<g id="node3" class="node">
<title>2</title>
<ellipse fill="none" stroke="black" cx="56.54" cy="-548.81" rx="56.59" ry="56.59"/>
<text text-anchor="middle" x="56.54" y="-545.11" font-family="Times,serif" font-size="14.00">2 &lt; Eps.2</text>
</g>
<!-- 3 -->
<g id="node6" class="node">
<title>3</title>
<ellipse fill="none" stroke="black" cx="56.54" cy="-384.72" rx="56.59" ry="56.59"/>
<text text-anchor="middle" x="56.54" y="-381.02" font-family="Times,serif" font-size="14.00">3 &lt; Eps.3</text>
</g>
<!-- 2&#45;&gt;3 -->
<g id="edge2" class="edge">
<title>2&#45;&gt;3</title>
<path fill="none" stroke="black" d="M56.54,-492.03C56.54,-478.97 56.54,-464.93 56.54,-451.48"/>
<polygon fill="black" stroke="black" points="60.05,-451.34 56.54,-441.34 53.05,-451.34 60.05,-451.34"/>
<text text-anchor="middle" x="64.04" y="-463.07" font-family="Times,serif" font-size="14.00">!a</text>
</g>
<!-- 1 -->
<g id="node5" class="node">
<title>1</title>
<ellipse fill="none" stroke="black" cx="56.54" cy="-712.9" rx="56.59" ry="56.59"/>
<text text-anchor="middle" x="56.54" y="-709.2" font-family="Times,serif" font-size="14.00">1 &lt; Eps.1</text>
</g>
<!-- 1&#45;&gt;2 -->
<g id="edge3" class="edge">
<title>1&#45;&gt;2</title>
<path fill="none" stroke="black" d="M56.54,-656.12C56.54,-643.06 56.54,-629.02 56.54,-615.57"/>
<polygon fill="black" stroke="black" points="60.05,-615.43 56.54,-605.43 53.05,-615.43 60.05,-615.43"/>
<text text-anchor="middle" x="64.54" y="-627.16" font-family="Times,serif" font-size="14.00">?y</text>
</g>
<!-- 3&#45;&gt;4 -->
<g id="edge5" class="edge">
<title>3&#45;&gt;4</title>
<path fill="none" stroke="black" d="M56.54,-327.94C56.54,-314.88 56.54,-300.85 56.54,-287.39"/>
<polygon fill="black" stroke="black" points="60.05,-287.25 56.54,-277.25 53.05,-287.25 60.05,-287.25"/>
<text text-anchor="middle" x="63.54" y="-298.98" font-family="Times,serif" font-size="14.00">!c</text>
</g>
<!-- 0&#45;&gt;1 -->
<g id="edge4" class="edge">
<title>0&#45;&gt;1</title>
<path fill="none" stroke="black" d="M56.54,-820.21C56.54,-807.15 56.54,-793.11 56.54,-779.66"/>
<polygon fill="black" stroke="black" points="60.05,-779.52 56.54,-769.52 53.05,-779.52 60.05,-779.52"/>
<text text-anchor="middle" x="64.04" y="-791.25" font-family="Times,serif" font-size="14.00">!x</text>
</g>
</g>
</svg>
