<?xml version="1.0" encoding="UTF-8" standalone="no"?>
<!DOCTYPE svg PUBLIC "-//W3C//DTD SVG 1.1//EN"
 "http://www.w3.org/Graphics/SVG/1.1/DTD/svg11.dtd">
<!-- Generated by graphviz version 2.43.0 (0)
 -->
<!-- Title: %3 Pages: 1 -->
<svg width="318pt" height="664pt"
 viewBox="0.00 0.00 318.09 663.91" xmlns="http://www.w3.org/2000/svg" xmlns:xlink="http://www.w3.org/1999/xlink">
<g id="graph0" class="graph" transform="scale(1 1) rotate(0) translate(4 659.91)">
<title>%3</title>
<polygon fill="white" stroke="transparent" points="-4,4 -4,-659.91 314.09,-659.91 314.09,4 -4,4"/>
<!-- ENTRY -->
<g id="node1" class="node">
<title>ENTRY</title>
<ellipse fill="black" stroke="black" cx="137.54" cy="-654.11" rx="1.8" ry="1.8"/>
</g>
<!-- 0 -->
<g id="node7" class="node">
<title>0</title>
<ellipse fill="none" stroke="black" cx="137.54" cy="-558.76" rx="56.59" ry="56.59"/>
<text text-anchor="middle" x="137.54" y="-555.06" font-family="Times,serif" font-size="14.00">0 &lt; Eps.0</text>
</g>
<!-- ENTRY&#45;&gt;0 -->
<g id="edge1" class="edge">
<title>ENTRY&#45;&gt;0</title>
<path fill="none" stroke="black" d="M137.54,-652.06C137.54,-648.8 137.54,-638.31 137.54,-625.5"/>
<polygon fill="black" stroke="black" points="141.05,-625.34 137.54,-615.34 134.05,-625.34 141.05,-625.34"/>
</g>
<!-- 1 -->
<g id="node2" class="node">
<title>1</title>
<ellipse fill="none" stroke="black" cx="137.54" cy="-389.7" rx="61.54" ry="61.54"/>
<text text-anchor="middle" x="137.54" y="-393.5" font-family="Times,serif" font-size="14.00">1 &lt; {b}.1</text>
<text text-anchor="middle" x="137.54" y="-378.5" font-family="Times,serif" font-size="14.00">{c}.3</text>
</g>
<!-- 4 -->
<g id="node4" class="node">
<title>4</title>
<ellipse fill="none" stroke="black" cx="56.54" cy="-220.63" rx="56.59" ry="56.59"/>
<text text-anchor="middle" x="56.54" y="-216.93" font-family="Times,serif" font-size="14.00">4 &lt; Eps.3</text>
</g>
<!-- 1&#45;&gt;4 -->
<g id="edge5" class="edge">
<title>1&#45;&gt;4</title>
<path fill="none" stroke="black" d="M111.02,-334C102.85,-317.13 93.81,-298.49 85.48,-281.31"/>
<polygon fill="black" stroke="black" points="88.45,-279.41 80.93,-271.94 82.15,-282.46 88.45,-279.41"/>
<text text-anchor="middle" x="107.54" y="-298.98" font-family="Times,serif" font-size="14.00">?c</text>
</g>
<!-- 2 -->
<g id="node6" class="node">
<title>2</title>
<ellipse fill="none" stroke="black" cx="220.54" cy="-220.63" rx="56.59" ry="56.59"/>
<text text-anchor="middle" x="220.54" y="-216.93" font-family="Times,serif" font-size="14.00">2 &lt; Eps.1</text>
</g>
<!-- 1&#45;&gt;2 -->
<g id="edge4" class="edge">
<title>1&#45;&gt;2</title>
<path fill="none" stroke="black" d="M164.72,-334C173.14,-317.05 182.45,-298.31 191.02,-281.06"/>
<polygon fill="black" stroke="black" points="194.38,-282.17 195.69,-271.66 188.11,-279.06 194.38,-282.17"/>
<text text-anchor="middle" x="190.04" y="-298.98" font-family="Times,serif" font-size="14.00">?b</text>
</g>
<!-- 5 -->
<g id="node3" class="node">
<title>5</title>
<ellipse fill="none" stroke="black" cx="56.54" cy="-56.54" rx="56.59" ry="56.59"/>
<text text-anchor="middle" x="56.54" y="-52.84" font-family="Times,serif" font-size="14.00">5 &lt; Eps.4</text>
</g>
<!-- 4&#45;&gt;5 -->
<g id="edge8" class="edge">
<title>4&#45;&gt;5</title>
<path fill="none" stroke="black" d="M56.54,-163.85C56.54,-150.79 56.54,-136.76 56.54,-123.3"/>
<polygon fill="black" stroke="black" points="60.05,-123.16 56.54,-113.16 53.05,-123.16 60.05,-123.16"/>
<text text-anchor="middle" x="63.54" y="-134.89" font-family="Times,serif" font-size="14.00">!c</text>
</g>
<!-- 4&#45;&gt;4 -->
<g id="edge3" class="edge">
<title>4&#45;&gt;4</title>
<path fill="none" stroke="black" d="M111.15,-235.51C122.73,-234 131.09,-229.04 131.09,-220.63 131.09,-214.85 127.14,-210.7 120.91,-208.18"/>
<polygon fill="black" stroke="black" points="121.7,-204.77 111.15,-205.76 120.01,-211.57 121.7,-204.77"/>
<text text-anchor="middle" x="138.59" y="-216.93" font-family="Times,serif" font-size="14.00">!a</text>
</g>
<!-- 3 -->
<g id="node5" class="node">
<title>3</title>
<ellipse fill="none" stroke="black" cx="220.54" cy="-56.54" rx="56.59" ry="56.59"/>
<text text-anchor="middle" x="220.54" y="-52.84" font-family="Times,serif" font-size="14.00">3 &lt; Eps.2</text>
</g>
<!-- 2&#45;&gt;3 -->
<g id="edge2" class="edge">
<title>2&#45;&gt;3</title>
<path fill="none" stroke="black" d="M220.54,-163.85C220.54,-150.79 220.54,-136.76 220.54,-123.3"/>
<polygon fill="black" stroke="black" points="224.05,-123.16 220.54,-113.16 217.05,-123.16 224.05,-123.16"/>
<text text-anchor="middle" x="228.54" y="-134.89" font-family="Times,serif" font-size="14.00">!b</text>
</g>
<!-- 2&#45;&gt;2 -->
<g id="edge7" class="edge">
<title>2&#45;&gt;2</title>
<path fill="none" stroke="black" d="M275.15,-235.51C286.73,-234 295.09,-229.04 295.09,-220.63 295.09,-214.85 291.14,-210.7 284.91,-208.18"/>
<polygon fill="black" stroke="black" points="285.7,-204.77 275.15,-205.76 284.01,-211.57 285.7,-204.77"/>
<text text-anchor="middle" x="302.59" y="-216.93" font-family="Times,serif" font-size="14.00">!a</text>
</g>
<!-- 0&#45;&gt;1 -->
<g id="edge6" class="edge">
<title>0&#45;&gt;1</title>
<path fill="none" stroke="black" d="M137.54,-502.13C137.54,-489.12 137.54,-475.09 137.54,-461.52"/>
<polygon fill="black" stroke="black" points="141.05,-461.26 137.54,-451.26 134.05,-461.26 141.05,-461.26"/>
<text text-anchor="middle" x="145.04" y="-473.02" font-family="Times,serif" font-size="14.00">!a</text>
</g>
</g>
</svg>
