<?xml version="1.0" encoding="UTF-8" standalone="no"?>
<!DOCTYPE svg PUBLIC "-//W3C//DTD SVG 1.1//EN"
 "http://www.w3.org/Graphics/SVG/1.1/DTD/svg11.dtd">
<!-- Generated by graphviz version 2.43.0 (0)
 -->
<!-- Title: %3 Pages: 1 -->
<svg width="164pt" height="346pt"
 viewBox="0.00 0.00 164.00 345.60" xmlns="http://www.w3.org/2000/svg" xmlns:xlink="http://www.w3.org/1999/xlink">
<g id="graph0" class="graph" transform="scale(1 1) rotate(0) translate(4 341.6)">
<title>%3</title>
<polygon fill="white" stroke="transparent" points="-4,4 -4,-341.6 160,-341.6 160,4 -4,4"/>
<!-- ENTRY -->
<g id="node1" class="node">
<title>ENTRY</title>
<ellipse fill="black" stroke="black" cx="61" cy="-335.8" rx="1.8" ry="1.8"/>
</g>
<!-- 0 -->
<g id="node2" class="node">
<title>0</title>
<ellipse fill="none" stroke="black" cx="61" cy="-279" rx="18" ry="18"/>
<text text-anchor="middle" x="61" y="-275.3" font-family="Times,serif" font-size="14.00">0</text>
</g>
<!-- ENTRY&#45;&gt;0 -->
<g id="edge1" class="edge">
<title>ENTRY&#45;&gt;0</title>
<path fill="none" stroke="black" d="M61,-333.85C61,-330.49 61,-318.73 61,-307.05"/>
<polygon fill="black" stroke="black" points="64.5,-307.02 61,-297.02 57.5,-307.02 64.5,-307.02"/>
</g>
<!-- 1 -->
<g id="node3" class="node">
<title>1</title>
<ellipse fill="none" stroke="black" cx="61" cy="-192" rx="18" ry="18"/>
<text text-anchor="middle" x="61" y="-188.3" font-family="Times,serif" font-size="14.00">1</text>
</g>
<!-- 0&#45;&gt;1 -->
<g id="edge2" class="edge">
<title>0&#45;&gt;1</title>
<path fill="none" stroke="black" d="M61,-260.8C61,-249.16 61,-233.55 61,-220.24"/>
<polygon fill="black" stroke="black" points="64.5,-220.18 61,-210.18 57.5,-220.18 64.5,-220.18"/>
<text text-anchor="middle" x="68.5" y="-231.8" font-family="Times,serif" font-size="14.00">!a</text>
</g>
<!-- 4 -->
<g id="node4" class="node">
<title>4</title>
<ellipse fill="none" stroke="black" cx="18" cy="-105" rx="18" ry="18"/>
<text text-anchor="middle" x="18" y="-101.3" font-family="Times,serif" font-size="14.00">4</text>
</g>
<!-- 1&#45;&gt;4 -->
<g id="edge3" class="edge">
<title>1&#45;&gt;4</title>
<path fill="none" stroke="black" d="M53.11,-175.41C46.75,-162.83 37.68,-144.9 30.35,-130.42"/>
<polygon fill="black" stroke="black" points="33.47,-128.83 25.84,-121.49 27.23,-131.99 33.47,-128.83"/>
<text text-anchor="middle" x="51" y="-144.8" font-family="Times,serif" font-size="14.00">?c</text>
</g>
<!-- 2 -->
<g id="node6" class="node">
<title>2</title>
<ellipse fill="none" stroke="black" cx="105" cy="-105" rx="18" ry="18"/>
<text text-anchor="middle" x="105" y="-101.3" font-family="Times,serif" font-size="14.00">2</text>
</g>
<!-- 1&#45;&gt;2 -->
<g id="edge6" class="edge">
<title>1&#45;&gt;2</title>
<path fill="none" stroke="black" d="M68.87,-175.8C75.4,-163.19 84.8,-145.01 92.39,-130.37"/>
<polygon fill="black" stroke="black" points="95.56,-131.84 97.05,-121.35 89.35,-128.62 95.56,-131.84"/>
<text text-anchor="middle" x="93.5" y="-144.8" font-family="Times,serif" font-size="14.00">?b</text>
</g>
<!-- 4&#45;&gt;4 -->
<g id="edge5" class="edge">
<title>4&#45;&gt;4</title>
<path fill="none" stroke="black" d="M34.66,-112.38C44.62,-114.02 54,-111.56 54,-105 54,-100.8 50.15,-98.28 44.77,-97.44"/>
<polygon fill="black" stroke="black" points="44.6,-93.94 34.66,-97.62 44.72,-100.94 44.6,-93.94"/>
<text text-anchor="middle" x="61.5" y="-101.3" font-family="Times,serif" font-size="14.00">!a</text>
</g>
<!-- 5 -->
<g id="node5" class="node">
<title>5</title>
<ellipse fill="none" stroke="black" cx="18" cy="-18" rx="18" ry="18"/>
<text text-anchor="middle" x="18" y="-14.3" font-family="Times,serif" font-size="14.00">5</text>
</g>
<!-- 4&#45;&gt;5 -->
<g id="edge4" class="edge">
<title>4&#45;&gt;5</title>
<path fill="none" stroke="black" d="M18,-86.8C18,-75.16 18,-59.55 18,-46.24"/>
<polygon fill="black" stroke="black" points="21.5,-46.18 18,-36.18 14.5,-46.18 21.5,-46.18"/>
<text text-anchor="middle" x="25" y="-57.8" font-family="Times,serif" font-size="14.00">!c</text>
</g>
<!-- 2&#45;&gt;2 -->
<g id="edge8" class="edge">
<title>2&#45;&gt;2</title>
<path fill="none" stroke="black" d="M121.66,-112.38C131.62,-114.02 141,-111.56 141,-105 141,-100.8 137.15,-98.28 131.77,-97.44"/>
<polygon fill="black" stroke="black" points="131.6,-93.94 121.66,-97.62 131.72,-100.94 131.6,-93.94"/>
<text text-anchor="middle" x="148.5" y="-101.3" font-family="Times,serif" font-size="14.00">!a</text>
</g>
<!-- 3 -->
<g id="node7" class="node">
<title>3</title>
<ellipse fill="none" stroke="black" cx="105" cy="-18" rx="18" ry="18"/>
<text text-anchor="middle" x="105" y="-14.3" font-family="Times,serif" font-size="14.00">3</text>
</g>
<!-- 2&#45;&gt;3 -->
<g id="edge7" class="edge">
<title>2&#45;&gt;3</title>
<path fill="none" stroke="black" d="M105,-86.8C105,-75.16 105,-59.55 105,-46.24"/>
<polygon fill="black" stroke="black" points="108.5,-46.18 105,-36.18 101.5,-46.18 108.5,-46.18"/>
<text text-anchor="middle" x="113" y="-57.8" font-family="Times,serif" font-size="14.00">!b</text>
</g>
</g>
</svg>
