<?xml version="1.0" encoding="UTF-8" standalone="no"?>
<!DOCTYPE svg PUBLIC "-//W3C//DTD SVG 1.1//EN"
 "http://www.w3.org/Graphics/SVG/1.1/DTD/svg11.dtd">
<!-- Generated by graphviz version 2.43.0 (0)
 -->
<!-- Title: %3 Pages: 1 -->
<svg width="376pt" height="891pt"
 viewBox="0.00 0.00 376.48 890.84" xmlns="http://www.w3.org/2000/svg" xmlns:xlink="http://www.w3.org/1999/xlink">
<g id="graph0" class="graph" transform="scale(1 1) rotate(0) translate(4 886.84)">
<title>%3</title>
<polygon fill="white" stroke="transparent" points="-4,4 -4,-886.84 372.48,-886.84 372.48,4 -4,4"/>
<!-- ENTRY -->
<g id="node1" class="node">
<title>ENTRY</title>
<ellipse fill="black" stroke="black" cx="183.74" cy="-881.04" rx="1.8" ry="1.8"/>
</g>
<!-- 0 -->
<g id="node10" class="node">
<title>0</title>
<ellipse fill="none" stroke="black" cx="183.74" cy="-785.7" rx="56.59" ry="56.59"/>
<text text-anchor="middle" x="183.74" y="-782" font-family="Times,serif" font-size="14.00">0 &lt; Eps.0</text>
</g>
<!-- ENTRY&#45;&gt;0 -->
<g id="edge1" class="edge">
<title>ENTRY&#45;&gt;0</title>
<path fill="none" stroke="black" d="M183.74,-879C183.74,-875.74 183.74,-865.25 183.74,-852.44"/>
<polygon fill="black" stroke="black" points="187.24,-852.28 183.74,-842.28 180.24,-852.28 187.24,-852.28"/>
</g>
<!-- 6 -->
<g id="node2" class="node">
<title>6</title>
<ellipse fill="none" stroke="black" cx="87.74" cy="-590.41" rx="87.99" ry="87.99"/>
<text text-anchor="middle" x="87.74" y="-586.71" font-family="Times,serif" font-size="14.00">6 &lt; {a1}.{a2}.6</text>
</g>
<!-- 7 -->
<g id="node9" class="node">
<title>7</title>
<ellipse fill="none" stroke="black" cx="87.74" cy="-389.92" rx="61.99" ry="61.99"/>
<text text-anchor="middle" x="87.74" y="-386.22" font-family="Times,serif" font-size="14.00">7 &lt; {a2}.6</text>
</g>
<!-- 6&#45;&gt;7 -->
<g id="edge3" class="edge">
<title>6&#45;&gt;7</title>
<path fill="none" stroke="black" d="M87.74,-502.64C87.74,-489.14 87.74,-475.33 87.74,-462.23"/>
<polygon fill="black" stroke="black" points="91.24,-461.89 87.74,-451.89 84.24,-461.89 91.24,-461.89"/>
<text text-anchor="middle" x="100.24" y="-473.47" font-family="Times,serif" font-size="14.00">?a1</text>
</g>
<!-- 3 -->
<g id="node3" class="node">
<title>3</title>
<ellipse fill="none" stroke="black" cx="280.74" cy="-220.63" rx="56.59" ry="56.59"/>
<text text-anchor="middle" x="280.74" y="-216.93" font-family="Times,serif" font-size="14.00">3 &lt; Eps.3</text>
</g>
<!-- 4 -->
<g id="node4" class="node">
<title>4</title>
<ellipse fill="none" stroke="red" cx="280.74" cy="-56.54" rx="56.59" ry="56.59"/>
<text text-anchor="middle" x="280.74" y="-52.84" font-family="Times,serif" font-size="14.00">4 &lt; Eps.4</text>
</g>
<!-- 3&#45;&gt;4 -->
<g id="edge8" class="edge">
<title>3&#45;&gt;4</title>
<path fill="none" stroke="black" d="M280.74,-163.85C280.74,-150.79 280.74,-136.76 280.74,-123.3"/>
<polygon fill="black" stroke="black" points="284.24,-123.16 280.74,-113.16 277.24,-123.16 284.24,-123.16"/>
<text text-anchor="middle" x="293.24" y="-134.89" font-family="Times,serif" font-size="14.00">?a3</text>
</g>
<!-- 8 -->
<g id="node5" class="node">
<title>8</title>
<ellipse fill="none" stroke="black" cx="87.74" cy="-220.63" rx="56.59" ry="56.59"/>
<text text-anchor="middle" x="87.74" y="-216.93" font-family="Times,serif" font-size="14.00">8 &lt; Eps.6</text>
</g>
<!-- 9 -->
<g id="node6" class="node">
<title>9</title>
<ellipse fill="none" stroke="red" cx="87.74" cy="-56.54" rx="56.59" ry="56.59"/>
<text text-anchor="middle" x="87.74" y="-52.84" font-family="Times,serif" font-size="14.00">9 &lt; Eps.7</text>
</g>
<!-- 8&#45;&gt;9 -->
<g id="edge5" class="edge">
<title>8&#45;&gt;9</title>
<path fill="none" stroke="black" d="M87.74,-163.85C87.74,-150.79 87.74,-136.76 87.74,-123.3"/>
<polygon fill="black" stroke="black" points="91.24,-123.16 87.74,-113.16 84.24,-123.16 91.24,-123.16"/>
<text text-anchor="middle" x="100.24" y="-134.89" font-family="Times,serif" font-size="14.00">?a3</text>
</g>
<!-- 2 -->
<g id="node7" class="node">
<title>2</title>
<ellipse fill="none" stroke="black" cx="280.74" cy="-389.92" rx="61.99" ry="61.99"/>
<text text-anchor="middle" x="280.74" y="-386.22" font-family="Times,serif" font-size="14.00">2 &lt; {a2}.3</text>
</g>
<!-- 2&#45;&gt;3 -->
<g id="edge9" class="edge">
<title>2&#45;&gt;3</title>
<path fill="none" stroke="black" d="M280.74,-328.06C280.74,-314.8 280.74,-300.73 280.74,-287.3"/>
<polygon fill="black" stroke="black" points="284.24,-287.18 280.74,-277.18 277.24,-287.18 284.24,-287.18"/>
<text text-anchor="middle" x="293.24" y="-298.98" font-family="Times,serif" font-size="14.00">?a2</text>
</g>
<!-- 1 -->
<g id="node8" class="node">
<title>1</title>
<ellipse fill="none" stroke="black" cx="280.74" cy="-590.41" rx="87.99" ry="87.99"/>
<text text-anchor="middle" x="280.74" y="-586.71" font-family="Times,serif" font-size="14.00">1 &lt; {a1}.{a2}.3</text>
</g>
<!-- 1&#45;&gt;2 -->
<g id="edge6" class="edge">
<title>1&#45;&gt;2</title>
<path fill="none" stroke="black" d="M280.74,-502.64C280.74,-489.14 280.74,-475.33 280.74,-462.23"/>
<polygon fill="black" stroke="black" points="284.24,-461.89 280.74,-451.89 277.24,-461.89 284.24,-461.89"/>
<text text-anchor="middle" x="293.24" y="-473.47" font-family="Times,serif" font-size="14.00">?a1</text>
</g>
<!-- 7&#45;&gt;8 -->
<g id="edge4" class="edge">
<title>7&#45;&gt;8</title>
<path fill="none" stroke="black" d="M87.74,-328.06C87.74,-314.8 87.74,-300.73 87.74,-287.3"/>
<polygon fill="black" stroke="black" points="91.24,-287.18 87.74,-277.18 84.24,-287.18 91.24,-287.18"/>
<text text-anchor="middle" x="100.24" y="-298.98" font-family="Times,serif" font-size="14.00">?a2</text>
</g>
<!-- 0&#45;&gt;6 -->
<g id="edge2" class="edge">
<title>0&#45;&gt;6</title>
<path fill="none" stroke="black" d="M158.89,-734.67C150.36,-717.48 140.54,-697.71 130.97,-678.45"/>
<polygon fill="black" stroke="black" points="134.03,-676.75 126.45,-669.35 127.76,-679.86 134.03,-676.75"/>
<text text-anchor="middle" x="154.74" y="-699.95" font-family="Times,serif" font-size="14.00">!c</text>
</g>
<!-- 0&#45;&gt;1 -->
<g id="edge7" class="edge">
<title>0&#45;&gt;1</title>
<path fill="none" stroke="black" d="M208.72,-734.92C217.4,-717.64 227.39,-697.71 237.13,-678.32"/>
<polygon fill="black" stroke="black" points="240.37,-679.66 241.73,-669.16 234.11,-676.52 240.37,-679.66"/>
<text text-anchor="middle" x="234.74" y="-699.95" font-family="Times,serif" font-size="14.00">!b</text>
</g>
</g>
</svg>
