<?xml version="1.0" encoding="UTF-8" standalone="no"?>
<!DOCTYPE svg PUBLIC "-//W3C//DTD SVG 1.1//EN"
 "http://www.w3.org/Graphics/SVG/1.1/DTD/svg11.dtd">
<!-- Generated by graphviz version 2.43.0 (0)
 -->
<!-- Title: %3 Pages: 1 -->
<svg width="148pt" height="433pt"
 viewBox="0.00 0.00 148.00 432.60" xmlns="http://www.w3.org/2000/svg" xmlns:xlink="http://www.w3.org/1999/xlink">
<g id="graph0" class="graph" transform="scale(1 1) rotate(0) translate(4 428.6)">
<title>%3</title>
<polygon fill="white" stroke="transparent" points="-4,4 -4,-428.6 144,-428.6 144,4 -4,4"/>
<!-- ENTRY -->
<g id="node1" class="node">
<title>ENTRY</title>
<ellipse fill="black" stroke="black" cx="96" cy="-422.8" rx="1.8" ry="1.8"/>
</g>
<!-- 0 -->
<g id="node2" class="node">
<title>0</title>
<ellipse fill="none" stroke="black" cx="96" cy="-366" rx="18" ry="18"/>
<text text-anchor="middle" x="96" y="-362.3" font-family="Times,serif" font-size="14.00">0</text>
</g>
<!-- ENTRY&#45;&gt;0 -->
<g id="edge1" class="edge">
<title>ENTRY&#45;&gt;0</title>
<path fill="none" stroke="black" d="M96,-420.85C96,-417.49 96,-405.73 96,-394.05"/>
<polygon fill="black" stroke="black" points="99.5,-394.02 96,-384.02 92.5,-394.02 99.5,-394.02"/>
</g>
<!-- 1 -->
<g id="node3" class="node">
<title>1</title>
<ellipse fill="none" stroke="black" cx="96" cy="-279" rx="18" ry="18"/>
<text text-anchor="middle" x="96" y="-275.3" font-family="Times,serif" font-size="14.00">1</text>
</g>
<!-- 0&#45;&gt;1 -->
<g id="edge2" class="edge">
<title>0&#45;&gt;1</title>
<path fill="none" stroke="black" d="M96,-347.8C96,-336.16 96,-320.55 96,-307.24"/>
<polygon fill="black" stroke="black" points="99.5,-307.18 96,-297.18 92.5,-307.18 99.5,-307.18"/>
<text text-anchor="middle" x="103.5" y="-318.8" font-family="Times,serif" font-size="14.00">!a</text>
</g>
<!-- 3 -->
<g id="node4" class="node">
<title>3</title>
<ellipse fill="none" stroke="black" cx="57" cy="-192" rx="18" ry="18"/>
<text text-anchor="middle" x="57" y="-188.3" font-family="Times,serif" font-size="14.00">3</text>
</g>
<!-- 1&#45;&gt;3 -->
<g id="edge3" class="edge">
<title>1&#45;&gt;3</title>
<path fill="none" stroke="black" d="M86.01,-263.79C81.93,-257.59 77.39,-250.13 74,-243 70.44,-235.52 67.27,-227.09 64.66,-219.31"/>
<polygon fill="black" stroke="black" points="67.94,-218.06 61.58,-209.59 61.27,-220.18 67.94,-218.06"/>
<text text-anchor="middle" x="82" y="-231.8" font-family="Times,serif" font-size="14.00">!b</text>
</g>
<!-- 2 -->
<g id="node8" class="node">
<title>2</title>
<ellipse fill="none" stroke="black" cx="122" cy="-192" rx="18" ry="18"/>
<text text-anchor="middle" x="122" y="-188.3" font-family="Times,serif" font-size="14.00">2</text>
</g>
<!-- 1&#45;&gt;2 -->
<g id="edge8" class="edge">
<title>1&#45;&gt;2</title>
<path fill="none" stroke="black" d="M93.88,-260.91C93.25,-251.05 93.5,-238.55 97,-228 98.59,-223.2 101.09,-218.49 103.9,-214.17"/>
<polygon fill="black" stroke="black" points="106.86,-216.04 109.93,-205.9 101.21,-211.92 106.86,-216.04"/>
<text text-anchor="middle" x="104.5" y="-231.8" font-family="Times,serif" font-size="14.00">!a</text>
</g>
<!-- 5 -->
<g id="node5" class="node">
<title>5</title>
<ellipse fill="none" stroke="black" cx="18" cy="-105" rx="18" ry="18"/>
<text text-anchor="middle" x="18" y="-101.3" font-family="Times,serif" font-size="14.00">5</text>
</g>
<!-- 3&#45;&gt;5 -->
<g id="edge4" class="edge">
<title>3&#45;&gt;5</title>
<path fill="none" stroke="black" d="M47.01,-176.79C42.93,-170.59 38.39,-163.13 35,-156 31.44,-148.52 28.27,-140.09 25.66,-132.31"/>
<polygon fill="black" stroke="black" points="28.94,-131.06 22.58,-122.59 22.27,-133.18 28.94,-131.06"/>
<text text-anchor="middle" x="43" y="-144.8" font-family="Times,serif" font-size="14.00">?y</text>
</g>
<!-- 4 -->
<g id="node7" class="node">
<title>4</title>
<ellipse fill="none" stroke="black" cx="84" cy="-105" rx="18" ry="18"/>
<text text-anchor="middle" x="84" y="-101.3" font-family="Times,serif" font-size="14.00">4</text>
</g>
<!-- 3&#45;&gt;4 -->
<g id="edge6" class="edge">
<title>3&#45;&gt;4</title>
<path fill="none" stroke="black" d="M54.8,-173.89C54.15,-164.02 54.4,-151.52 58,-141 59.73,-135.94 62.49,-131 65.57,-126.51"/>
<polygon fill="black" stroke="black" points="68.41,-128.56 71.73,-118.5 62.86,-124.3 68.41,-128.56"/>
<text text-anchor="middle" x="66" y="-144.8" font-family="Times,serif" font-size="14.00">?x</text>
</g>
<!-- 6 -->
<g id="node6" class="node">
<title>6</title>
<ellipse fill="none" stroke="black" cx="18" cy="-18" rx="18" ry="18"/>
<text text-anchor="middle" x="18" y="-14.3" font-family="Times,serif" font-size="14.00">6</text>
</g>
<!-- 5&#45;&gt;6 -->
<g id="edge5" class="edge">
<title>5&#45;&gt;6</title>
<path fill="none" stroke="black" d="M18,-86.8C18,-75.16 18,-59.55 18,-46.24"/>
<polygon fill="black" stroke="black" points="21.5,-46.18 18,-36.18 14.5,-46.18 21.5,-46.18"/>
<text text-anchor="middle" x="25.5" y="-57.8" font-family="Times,serif" font-size="14.00">!e</text>
</g>
<!-- 4&#45;&gt;3 -->
<g id="edge7" class="edge">
<title>4&#45;&gt;3</title>
<path fill="none" stroke="black" d="M81.71,-122.95C80.12,-132.76 77.62,-145.26 74,-156 72.79,-159.61 71.28,-163.32 69.68,-166.92"/>
<polygon fill="black" stroke="black" points="66.48,-165.49 65.32,-176.02 72.79,-168.52 66.48,-165.49"/>
<text text-anchor="middle" x="86" y="-144.8" font-family="Times,serif" font-size="14.00">!b</text>
</g>
<!-- 2&#45;&gt;1 -->
<g id="edge9" class="edge">
<title>2&#45;&gt;1</title>
<path fill="none" stroke="black" d="M119.62,-209.91C117.99,-219.72 115.49,-232.22 112,-243 110.9,-246.41 109.55,-249.92 108.12,-253.35"/>
<polygon fill="black" stroke="black" points="104.86,-252.07 103.96,-262.63 111.25,-254.94 104.86,-252.07"/>
<text text-anchor="middle" x="124" y="-231.8" font-family="Times,serif" font-size="14.00">?x</text>
</g>
</g>
</svg>
