<?xml version="1.0" encoding="UTF-8" standalone="no"?>
<!DOCTYPE svg PUBLIC "-//W3C//DTD SVG 1.1//EN"
 "http://www.w3.org/Graphics/SVG/1.1/DTD/svg11.dtd">
<!-- Generated by graphviz version 2.43.0 (0)
 -->
<!-- Title: %3 Pages: 1 -->
<svg width="206pt" height="259pt"
 viewBox="0.00 0.00 206.00 258.60" xmlns="http://www.w3.org/2000/svg" xmlns:xlink="http://www.w3.org/1999/xlink">
<g id="graph0" class="graph" transform="scale(1 1) rotate(0) translate(4 254.6)">
<title>%3</title>
<polygon fill="white" stroke="transparent" points="-4,4 -4,-254.6 202,-254.6 202,4 -4,4"/>
<!-- ENTRY -->
<g id="node1" class="node">
<title>ENTRY</title>
<ellipse fill="black" stroke="black" cx="98" cy="-248.8" rx="1.8" ry="1.8"/>
</g>
<!-- 0 -->
<g id="node2" class="node">
<title>0</title>
<ellipse fill="none" stroke="black" cx="98" cy="-192" rx="18" ry="18"/>
<text text-anchor="middle" x="98" y="-188.3" font-family="Times,serif" font-size="14.00">0</text>
</g>
<!-- ENTRY&#45;&gt;0 -->
<g id="edge1" class="edge">
<title>ENTRY&#45;&gt;0</title>
<path fill="none" stroke="black" d="M98,-246.85C98,-243.49 98,-231.73 98,-220.05"/>
<polygon fill="black" stroke="black" points="101.5,-220.02 98,-210.02 94.5,-220.02 101.5,-220.02"/>
</g>
<!-- 4 -->
<g id="node3" class="node">
<title>4</title>
<ellipse fill="none" stroke="black" cx="72" cy="-105" rx="18" ry="18"/>
<text text-anchor="middle" x="72" y="-101.3" font-family="Times,serif" font-size="14.00">4</text>
</g>
<!-- 0&#45;&gt;4 -->
<g id="edge2" class="edge">
<title>0&#45;&gt;4</title>
<path fill="none" stroke="black" d="M91.7,-175.09C89.45,-169.14 86.99,-162.31 85,-156 82.63,-148.47 80.35,-140.21 78.39,-132.61"/>
<polygon fill="black" stroke="black" points="81.75,-131.63 75.91,-122.79 74.96,-133.34 81.75,-131.63"/>
<text text-anchor="middle" x="92" y="-144.8" font-family="Times,serif" font-size="14.00">!c</text>
</g>
<!-- 1 -->
<g id="node6" class="node">
<title>1</title>
<ellipse fill="none" stroke="black" cx="126" cy="-105" rx="18" ry="18"/>
<text text-anchor="middle" x="126" y="-101.3" font-family="Times,serif" font-size="14.00">1</text>
</g>
<!-- 0&#45;&gt;1 -->
<g id="edge5" class="edge">
<title>0&#45;&gt;1</title>
<path fill="none" stroke="black" d="M103.4,-174.61C107.39,-162.5 112.9,-145.77 117.48,-131.86"/>
<polygon fill="black" stroke="black" points="120.81,-132.93 120.62,-122.34 114.16,-130.74 120.81,-132.93"/>
<text text-anchor="middle" x="121" y="-144.8" font-family="Times,serif" font-size="14.00">!b</text>
</g>
<!-- 6 -->
<g id="node4" class="node">
<title>6</title>
<ellipse fill="none" stroke="black" cx="18" cy="-18" rx="18" ry="18"/>
<text text-anchor="middle" x="18" y="-14.3" font-family="Times,serif" font-size="14.00">6</text>
</g>
<!-- 4&#45;&gt;6 -->
<g id="edge3" class="edge">
<title>4&#45;&gt;6</title>
<path fill="none" stroke="black" d="M62.59,-89.19C54.39,-76.27 42.34,-57.31 32.83,-42.34"/>
<polygon fill="black" stroke="black" points="35.61,-40.2 27.3,-33.64 29.71,-43.95 35.61,-40.2"/>
<text text-anchor="middle" x="57" y="-57.8" font-family="Times,serif" font-size="14.00">?c</text>
</g>
<!-- 5 -->
<g id="node5" class="node">
<title>5</title>
<ellipse fill="none" stroke="black" cx="72" cy="-18" rx="18" ry="18"/>
<text text-anchor="middle" x="72" y="-14.3" font-family="Times,serif" font-size="14.00">5</text>
</g>
<!-- 4&#45;&gt;5 -->
<g id="edge4" class="edge">
<title>4&#45;&gt;5</title>
<path fill="none" stroke="black" d="M72,-86.8C72,-75.16 72,-59.55 72,-46.24"/>
<polygon fill="black" stroke="black" points="75.5,-46.18 72,-36.18 68.5,-46.18 75.5,-46.18"/>
<text text-anchor="middle" x="80" y="-57.8" font-family="Times,serif" font-size="14.00">?a</text>
</g>
<!-- 3 -->
<g id="node7" class="node">
<title>3</title>
<ellipse fill="none" stroke="black" cx="126" cy="-18" rx="18" ry="18"/>
<text text-anchor="middle" x="126" y="-14.3" font-family="Times,serif" font-size="14.00">3</text>
</g>
<!-- 1&#45;&gt;3 -->
<g id="edge6" class="edge">
<title>1&#45;&gt;3</title>
<path fill="none" stroke="black" d="M126,-86.8C126,-75.16 126,-59.55 126,-46.24"/>
<polygon fill="black" stroke="black" points="129.5,-46.18 126,-36.18 122.5,-46.18 129.5,-46.18"/>
<text text-anchor="middle" x="134.5" y="-57.8" font-family="Times,serif" font-size="14.00">?b</text>
</g>
<!-- 2 -->
<g id="node8" class="node">
<title>2</title>
<ellipse fill="none" stroke="black" cx="180" cy="-18" rx="18" ry="18"/>
<text text-anchor="middle" x="180" y="-14.3" font-family="Times,serif" font-size="14.00">2</text>
</g>
<!-- 1&#45;&gt;2 -->
<g id="edge7" class="edge">
<title>1&#45;&gt;2</title>
<path fill="none" stroke="black" d="M135.41,-89.19C143.61,-76.27 155.66,-57.31 165.17,-42.34"/>
<polygon fill="black" stroke="black" points="168.29,-43.95 170.7,-33.64 162.39,-40.2 168.29,-43.95"/>
<text text-anchor="middle" x="164" y="-57.8" font-family="Times,serif" font-size="14.00">?a</text>
</g>
</g>
</svg>
