<?xml version="1.0" encoding="UTF-8" standalone="no"?>
<!DOCTYPE svg PUBLIC "-//W3C//DTD SVG 1.1//EN"
 "http://www.w3.org/Graphics/SVG/1.1/DTD/svg11.dtd">
<!-- Generated by graphviz version 2.43.0 (0)
 -->
<!-- Title: %3 Pages: 1 -->
<svg width="83pt" height="346pt"
 viewBox="0.00 0.00 83.00 345.60" xmlns="http://www.w3.org/2000/svg" xmlns:xlink="http://www.w3.org/1999/xlink">
<g id="graph0" class="graph" transform="scale(1 1) rotate(0) translate(4 341.6)">
<title>%3</title>
<polygon fill="white" stroke="transparent" points="-4,4 -4,-341.6 79,-341.6 79,4 -4,4"/>
<!-- ENTRY -->
<g id="node1" class="node">
<title>ENTRY</title>
<ellipse fill="black" stroke="black" cx="57" cy="-335.8" rx="1.8" ry="1.8"/>
</g>
<!-- 0 -->
<g id="node2" class="node">
<title>0</title>
<ellipse fill="none" stroke="black" cx="57" cy="-279" rx="18" ry="18"/>
<text text-anchor="middle" x="57" y="-275.3" font-family="Times,serif" font-size="14.00">0</text>
</g>
<!-- ENTRY&#45;&gt;0 -->
<g id="edge1" class="edge">
<title>ENTRY&#45;&gt;0</title>
<path fill="none" stroke="black" d="M57,-333.85C57,-330.49 57,-318.73 57,-307.05"/>
<polygon fill="black" stroke="black" points="60.5,-307.02 57,-297.02 53.5,-307.02 60.5,-307.02"/>
</g>
<!-- 1 -->
<g id="node3" class="node">
<title>1</title>
<ellipse fill="none" stroke="black" cx="18" cy="-192" rx="18" ry="18"/>
<text text-anchor="middle" x="18" y="-188.3" font-family="Times,serif" font-size="14.00">1</text>
</g>
<!-- 0&#45;&gt;1 -->
<g id="edge2" class="edge">
<title>0&#45;&gt;1</title>
<path fill="none" stroke="black" d="M49.85,-262.41C44.17,-250.03 36.11,-232.47 29.52,-218.11"/>
<polygon fill="black" stroke="black" points="32.59,-216.41 25.24,-208.78 26.23,-219.33 32.59,-216.41"/>
<text text-anchor="middle" x="47.5" y="-231.8" font-family="Times,serif" font-size="14.00">!a</text>
</g>
<!-- 2 -->
<g id="node4" class="node">
<title>2</title>
<ellipse fill="none" stroke="black" cx="45" cy="-105" rx="18" ry="18"/>
<text text-anchor="middle" x="45" y="-101.3" font-family="Times,serif" font-size="14.00">2</text>
</g>
<!-- 1&#45;&gt;2 -->
<g id="edge3" class="edge">
<title>1&#45;&gt;2</title>
<path fill="none" stroke="black" d="M23.21,-174.61C27.02,-162.62 32.26,-146.09 36.66,-132.27"/>
<polygon fill="black" stroke="black" points="40.12,-132.93 39.81,-122.34 33.45,-130.81 40.12,-132.93"/>
<text text-anchor="middle" x="42" y="-144.8" font-family="Times,serif" font-size="14.00">?x</text>
</g>
<!-- 2&#45;&gt;0 -->
<g id="edge6" class="edge">
<title>2&#45;&gt;0</title>
<path fill="none" stroke="black" d="M50.01,-122.59C51.56,-128.37 53.09,-134.92 54,-141 59.67,-178.8 59.4,-223.12 58.42,-250.88"/>
<polygon fill="black" stroke="black" points="54.92,-250.87 58,-261.01 61.91,-251.16 54.92,-250.87"/>
<text text-anchor="middle" x="65" y="-188.3" font-family="Times,serif" font-size="14.00">!c</text>
</g>
<!-- 3 -->
<g id="node5" class="node">
<title>3</title>
<ellipse fill="none" stroke="black" cx="45" cy="-18" rx="18" ry="18"/>
<text text-anchor="middle" x="45" y="-14.3" font-family="Times,serif" font-size="14.00">3</text>
</g>
<!-- 2&#45;&gt;3 -->
<g id="edge4" class="edge">
<title>2&#45;&gt;3</title>
<path fill="none" stroke="black" d="M35.14,-89.81C29.47,-79.94 24,-66.37 27,-54 27.91,-50.26 29.28,-46.47 30.88,-42.84"/>
<polygon fill="black" stroke="black" points="34.1,-44.22 35.46,-33.72 27.85,-41.09 34.1,-44.22"/>
<text text-anchor="middle" x="35" y="-57.8" font-family="Times,serif" font-size="14.00">!b</text>
</g>
<!-- 3&#45;&gt;2 -->
<g id="edge5" class="edge">
<title>3&#45;&gt;2</title>
<path fill="none" stroke="black" d="M45,-36.18C45,-47.81 45,-63.42 45,-76.73"/>
<polygon fill="black" stroke="black" points="41.5,-76.8 45,-86.8 48.5,-76.8 41.5,-76.8"/>
<text text-anchor="middle" x="53" y="-57.8" font-family="Times,serif" font-size="14.00">?x</text>
</g>
</g>
</svg>
