<?xml version="1.0" encoding="UTF-8" standalone="no"?>
<!DOCTYPE svg PUBLIC "-//W3C//DTD SVG 1.1//EN"
 "http://www.w3.org/Graphics/SVG/1.1/DTD/svg11.dtd">
<!-- Generated by graphviz version 2.43.0 (0)
 -->
<!-- Title: %3 Pages: 1 -->
<svg width="252pt" height="326pt"
 viewBox="0.00 0.00 252.09 325.78" xmlns="http://www.w3.org/2000/svg" xmlns:xlink="http://www.w3.org/1999/xlink">
<g id="graph0" class="graph" transform="scale(1 1) rotate(0) translate(4 321.78)">
<title>%3</title>
<polygon fill="white" stroke="transparent" points="-4,4 -4,-321.78 248.09,-321.78 248.09,4 -4,4"/>
<!-- ENTRY -->
<g id="node1" class="node">
<title>ENTRY</title>
<ellipse fill="black" stroke="black" cx="95.54" cy="-315.98" rx="1.8" ry="1.8"/>
</g>
<!-- 0 -->
<g id="node4" class="node">
<title>0</title>
<ellipse fill="none" stroke="black" cx="95.54" cy="-220.63" rx="56.59" ry="56.59"/>
<text text-anchor="middle" x="95.54" y="-216.93" font-family="Times,serif" font-size="14.00">0 &lt; Eps.0</text>
</g>
<!-- ENTRY&#45;&gt;0 -->
<g id="edge1" class="edge">
<title>ENTRY&#45;&gt;0</title>
<path fill="none" stroke="black" d="M95.54,-313.93C95.54,-310.68 95.54,-300.18 95.54,-287.38"/>
<polygon fill="black" stroke="black" points="99.05,-287.21 95.54,-277.21 92.05,-287.21 99.05,-287.21"/>
</g>
<!-- 2 -->
<g id="node2" class="node">
<title>2</title>
<ellipse fill="none" stroke="red" cx="187.54" cy="-56.54" rx="56.59" ry="56.59"/>
<text text-anchor="middle" x="187.54" y="-52.84" font-family="Times,serif" font-size="14.00">2 &lt; Eps.2</text>
</g>
<!-- 1 -->
<g id="node3" class="node">
<title>1</title>
<ellipse fill="none" stroke="black" cx="56.54" cy="-56.54" rx="56.59" ry="56.59"/>
<text text-anchor="middle" x="56.54" y="-52.84" font-family="Times,serif" font-size="14.00">1 &lt; Eps.1</text>
</g>
<!-- 1&#45;&gt;0 -->
<g id="edge2" class="edge">
<title>1&#45;&gt;0</title>
<path fill="none" stroke="black" d="M69.61,-111.83C72.97,-125.79 76.61,-140.95 80.08,-155.37"/>
<polygon fill="black" stroke="black" points="76.71,-156.31 82.45,-165.21 83.51,-154.67 76.71,-156.31"/>
<text text-anchor="middle" x="85.04" y="-134.89" font-family="Times,serif" font-size="14.00">!x</text>
</g>
<!-- 0&#45;&gt;2 -->
<g id="edge4" class="edge">
<title>0&#45;&gt;2</title>
<path fill="none" stroke="black" d="M123.15,-171C133.15,-153.37 144.55,-133.29 154.95,-114.97"/>
<polygon fill="black" stroke="black" points="158.07,-116.57 159.96,-106.14 151.98,-113.11 158.07,-116.57"/>
<text text-anchor="middle" x="152.04" y="-134.89" font-family="Times,serif" font-size="14.00">?b</text>
</g>
<!-- 0&#45;&gt;1 -->
<g id="edge3" class="edge">
<title>0&#45;&gt;1</title>
<path fill="none" stroke="black" d="M65.47,-172.39C61.37,-163.92 57.8,-154.96 55.54,-146.09 53.7,-138.84 52.59,-131.14 52.01,-123.44"/>
<polygon fill="black" stroke="black" points="55.5,-123.15 51.53,-113.33 48.51,-123.49 55.5,-123.15"/>
<text text-anchor="middle" x="63.54" y="-134.89" font-family="Times,serif" font-size="14.00">?a</text>
</g>
</g>
</svg>
