<?xml version="1.0" encoding="UTF-8" standalone="no"?>
<!DOCTYPE svg PUBLIC "-//W3C//DTD SVG 1.1//EN"
 "http://www.w3.org/Graphics/SVG/1.1/DTD/svg11.dtd">
<!-- Generated by graphviz version 2.43.0 (0)
 -->
<!-- Title: %3 Pages: 1 -->
<svg width="125pt" height="259pt"
 viewBox="0.00 0.00 125.00 258.60" xmlns="http://www.w3.org/2000/svg" xmlns:xlink="http://www.w3.org/1999/xlink">
<g id="graph0" class="graph" transform="scale(1 1) rotate(0) translate(4 254.6)">
<title>%3</title>
<polygon fill="white" stroke="transparent" points="-4,4 -4,-254.6 121,-254.6 121,4 -4,4"/>
<!-- ENTRY -->
<g id="node1" class="node">
<title>ENTRY</title>
<ellipse fill="black" stroke="black" cx="76" cy="-248.8" rx="1.8" ry="1.8"/>
</g>
<!-- 0 -->
<g id="node2" class="node">
<title>0</title>
<ellipse fill="none" stroke="black" cx="76" cy="-192" rx="18" ry="18"/>
<text text-anchor="middle" x="76" y="-188.3" font-family="Times,serif" font-size="14.00">0</text>
</g>
<!-- ENTRY&#45;&gt;0 -->
<g id="edge1" class="edge">
<title>ENTRY&#45;&gt;0</title>
<path fill="none" stroke="black" d="M76,-246.85C76,-243.49 76,-231.73 76,-220.05"/>
<polygon fill="black" stroke="black" points="79.5,-220.02 76,-210.02 72.5,-220.02 79.5,-220.02"/>
</g>
<!-- 2 -->
<g id="node3" class="node">
<title>2</title>
<ellipse fill="none" stroke="black" cx="18" cy="-105" rx="18" ry="18"/>
<text text-anchor="middle" x="18" y="-101.3" font-family="Times,serif" font-size="14.00">2</text>
</g>
<!-- 0&#45;&gt;2 -->
<g id="edge2" class="edge">
<title>0&#45;&gt;2</title>
<path fill="none" stroke="black" d="M61.38,-181.11C52.97,-174.78 42.76,-165.91 36,-156 31.17,-148.93 27.48,-140.41 24.73,-132.43"/>
<polygon fill="black" stroke="black" points="28.04,-131.27 21.75,-122.75 21.35,-133.34 28.04,-131.27"/>
<text text-anchor="middle" x="44.5" y="-144.8" font-family="Times,serif" font-size="14.00">?b</text>
</g>
<!-- 1 -->
<g id="node5" class="node">
<title>1</title>
<ellipse fill="none" stroke="black" cx="72" cy="-105" rx="18" ry="18"/>
<text text-anchor="middle" x="72" y="-101.3" font-family="Times,serif" font-size="14.00">1</text>
</g>
<!-- 0&#45;&gt;1 -->
<g id="edge5" class="edge">
<title>0&#45;&gt;1</title>
<path fill="none" stroke="black" d="M66.46,-176.28C63.08,-170.25 59.7,-163.04 58,-156 56,-147.75 57.37,-138.79 59.9,-130.78"/>
<polygon fill="black" stroke="black" points="63.24,-131.83 63.56,-121.24 56.71,-129.33 63.24,-131.83"/>
<text text-anchor="middle" x="66" y="-144.8" font-family="Times,serif" font-size="14.00">?a</text>
</g>
<!-- 3 -->
<g id="node4" class="node">
<title>3</title>
<ellipse fill="none" stroke="black" cx="72" cy="-18" rx="18" ry="18"/>
<text text-anchor="middle" x="72" y="-14.3" font-family="Times,serif" font-size="14.00">3</text>
</g>
<!-- 2&#45;&gt;3 -->
<g id="edge3" class="edge">
<title>2&#45;&gt;3</title>
<path fill="none" stroke="black" d="M27.41,-89.19C35.61,-76.27 47.66,-57.31 57.17,-42.34"/>
<polygon fill="black" stroke="black" points="60.29,-43.95 62.7,-33.64 54.39,-40.2 60.29,-43.95"/>
<text text-anchor="middle" x="56.5" y="-57.8" font-family="Times,serif" font-size="14.00">?b</text>
</g>
<!-- 3&#45;&gt;0 -->
<g id="edge4" class="edge">
<title>3&#45;&gt;0</title>
<path fill="none" stroke="black" d="M79.95,-34.16C86.53,-47.62 95.37,-68.04 99,-87 104.78,-117.23 102.57,-126.74 93,-156 91.82,-159.62 90.33,-163.33 88.74,-166.94"/>
<polygon fill="black" stroke="black" points="85.54,-165.51 84.38,-176.04 91.85,-168.53 85.54,-165.51"/>
<text text-anchor="middle" x="109.5" y="-101.3" font-family="Times,serif" font-size="14.00">!y</text>
</g>
<!-- 1&#45;&gt;0 -->
<g id="edge6" class="edge">
<title>1&#45;&gt;0</title>
<path fill="none" stroke="black" d="M73.04,-123.09C73.36,-128.78 73.72,-135.16 74,-141 74.36,-148.35 74.7,-156.3 74.99,-163.66"/>
<polygon fill="black" stroke="black" points="71.5,-164.02 75.39,-173.87 78.5,-163.74 71.5,-164.02"/>
<text text-anchor="middle" x="81.5" y="-144.8" font-family="Times,serif" font-size="14.00">!x</text>
</g>
</g>
</svg>
