<?xml version="1.0" encoding="UTF-8" standalone="no"?>
<!DOCTYPE svg PUBLIC "-//W3C//DTD SVG 1.1//EN"
 "http://www.w3.org/Graphics/SVG/1.1/DTD/svg11.dtd">
<!-- Generated by graphviz version 2.43.0 (0)
 -->
<!-- Title: %3 Pages: 1 -->
<svg width="1741pt" height="2044pt"
 viewBox="0.00 0.00 1741.09 2043.56" xmlns="http://www.w3.org/2000/svg" xmlns:xlink="http://www.w3.org/1999/xlink">
<g id="graph0" class="graph" transform="scale(1 1) rotate(0) translate(4 2039.56)">
<title>%3</title>
<polygon fill="white" stroke="transparent" points="-4,4 -4,-2039.56 1737.09,-2039.56 1737.09,4 -4,4"/>
<!-- ENTRY -->
<g id="node1" class="node">
<title>ENTRY</title>
<ellipse fill="black" stroke="black" cx="675.32" cy="-2033.76" rx="1.8" ry="1.8"/>
</g>
<!-- 0 -->
<g id="node3" class="node">
<title>0</title>
<ellipse fill="none" stroke="black" cx="675.32" cy="-1918.91" rx="76.09" ry="76.09"/>
<text text-anchor="middle" x="675.32" y="-1915.21" font-family="Times,serif" font-size="14.00">0 &lt; ({a,b})*.0</text>
</g>
<!-- ENTRY&#45;&gt;0 -->
<g id="edge1" class="edge">
<title>ENTRY&#45;&gt;0</title>
<path fill="none" stroke="black" d="M675.32,-2031.49C675.32,-2028.07 675.32,-2018.07 675.32,-2005.37"/>
<polygon fill="black" stroke="black" points="678.82,-2005.2 675.32,-1995.2 671.82,-2005.2 678.82,-2005.2"/>
</g>
<!-- 4 -->
<g id="node2" class="node">
<title>4</title>
<ellipse fill="none" stroke="black" cx="390.32" cy="-390.32" rx="390.15" ry="390.15"/>
<text text-anchor="middle" x="390.32" y="-394.12" font-family="Times,serif" font-size="14.00">4 &lt; ({b,a})*.{a}.{b}.{a}.{b}.{a}.{a}.{b}.{a}.{b}.{a}.{b}.{a}.{a}.{b}.0</text>
<text text-anchor="middle" x="390.32" y="-379.12" font-family="Times,serif" font-size="14.00">{b}.{a}.{b}.{a}.{a}.{b}.{a}.{b}.{a}.{b}.{a}.{a}.{b}.0</text>
</g>
<!-- 4&#45;&gt;0 -->
<g id="edge4" class="edge">
<title>4&#45;&gt;0</title>
<path fill="none" stroke="black" d="M270.26,-761.97C192.87,-1077.62 144.9,-1526.19 376.32,-1824.87 426.15,-1889.18 519.89,-1910.09 589.18,-1916.38"/>
<polygon fill="black" stroke="black" points="588.96,-1919.87 599.21,-1917.2 589.53,-1912.89 588.96,-1919.87"/>
<text text-anchor="middle" x="218.32" y="-1327.21" font-family="Times,serif" font-size="14.00">?a</text>
</g>
<!-- 4&#45;&gt;0 -->
<g id="edge12" class="edge">
<title>4&#45;&gt;0</title>
<path fill="none" stroke="black" d="M350.9,-778.85C322.6,-1134.62 305.51,-1630.23 409.32,-1791.87 449.23,-1854.01 528.85,-1886.16 590.63,-1902.37"/>
<polygon fill="black" stroke="black" points="589.83,-1905.78 600.38,-1904.84 591.55,-1899 589.83,-1905.78"/>
<text text-anchor="middle" x="338.82" y="-1327.21" font-family="Times,serif" font-size="14.00">?b</text>
</g>
<!-- 1 -->
<g id="node4" class="node">
<title>1</title>
<ellipse fill="none" stroke="black" cx="636.32" cy="-1574.14" rx="217.96" ry="217.96"/>
<text text-anchor="middle" x="636.32" y="-1570.44" font-family="Times,serif" font-size="14.00">1 &lt; ({a,b})*.{a}.{b}.{a}.{b}.{a}.{a}.{b}.0</text>
</g>
<!-- 0&#45;&gt;1 -->
<g id="edge10" class="edge">
<title>0&#45;&gt;1</title>
<path fill="none" stroke="black" d="M642.47,-1850.08C639.55,-1841.75 637.04,-1833.22 635.32,-1824.87 633.77,-1817.33 632.44,-1809.63 631.3,-1801.84"/>
<polygon fill="black" stroke="black" points="634.77,-1801.37 629.97,-1791.92 627.83,-1802.3 634.77,-1801.37"/>
<text text-anchor="middle" x="642.82" y="-1813.67" font-family="Times,serif" font-size="14.00">!x</text>
</g>
<!-- 2 -->
<g id="node6" class="node">
<title>2</title>
<ellipse fill="none" stroke="black" cx="1089.32" cy="-1574.14" rx="217.96" ry="217.96"/>
<text text-anchor="middle" x="1089.32" y="-1570.44" font-family="Times,serif" font-size="14.00">2 &lt; ({b,a})*.{a}.{b}.{a}.{b}.{a}.{a}.{b}.0</text>
</g>
<!-- 0&#45;&gt;2 -->
<g id="edge2" class="edge">
<title>0&#45;&gt;2</title>
<path fill="none" stroke="black" d="M739.93,-1878.54C777.13,-1854.91 824.13,-1823.4 863.32,-1791.87 885.01,-1774.42 907.07,-1755.27 928.48,-1735.81"/>
<polygon fill="black" stroke="black" points="931,-1738.25 936.02,-1728.92 926.28,-1733.08 931,-1738.25"/>
<text text-anchor="middle" x="845.82" y="-1813.67" font-family="Times,serif" font-size="14.00">!y</text>
</g>
<!-- 1&#45;&gt;0 -->
<g id="edge5" class="edge">
<title>1&#45;&gt;0</title>
<path fill="none" stroke="black" d="M652.02,-1791.56C653.35,-1802.84 654.78,-1813.99 656.32,-1824.87 656.76,-1827.95 657.24,-1831.09 657.74,-1834.25"/>
<polygon fill="black" stroke="black" points="654.34,-1835.13 659.45,-1844.41 661.24,-1833.97 654.34,-1835.13"/>
<text text-anchor="middle" x="664.82" y="-1813.67" font-family="Times,serif" font-size="14.00">?b</text>
</g>
<!-- 1&#45;&gt;0 -->
<g id="edge15" class="edge">
<title>1&#45;&gt;0</title>
<path fill="none" stroke="black" d="M671.32,-1789.26C672.06,-1796.21 672.73,-1803.09 673.32,-1809.87 673.97,-1817.28 674.47,-1824.98 674.84,-1832.71"/>
<polygon fill="black" stroke="black" points="671.35,-1833.02 675.27,-1842.86 678.35,-1832.73 671.35,-1833.02"/>
<text text-anchor="middle" x="682.32" y="-1813.67" font-family="Times,serif" font-size="14.00">?a</text>
</g>
<!-- 3 -->
<g id="node5" class="node">
<title>3</title>
<ellipse fill="none" stroke="black" cx="655.32" cy="-1068.53" rx="236.76" ry="236.76"/>
<text text-anchor="middle" x="655.32" y="-1072.33" font-family="Times,serif" font-size="14.00">3 &lt; ({b,a})*.{a}.{b}.{a}.{b}.{a}.{a}.{b}.0</text>
<text text-anchor="middle" x="655.32" y="-1057.33" font-family="Times,serif" font-size="14.00">{b}.{a}.{b}.{a}.{a}.{b}.0</text>
</g>
<!-- 3&#45;&gt;4 -->
<g id="edge3" class="edge">
<title>3&#45;&gt;4</title>
<path fill="none" stroke="black" d="M569.1,-847.52C558.51,-820.5 547.48,-792.33 536.31,-763.83"/>
<polygon fill="black" stroke="black" points="539.42,-762.19 532.52,-754.16 532.91,-764.75 539.42,-762.19"/>
<text text-anchor="middle" x="562.82" y="-802.45" font-family="Times,serif" font-size="14.00">!x</text>
</g>
<!-- 3&#45;&gt;2 -->
<g id="edge14" class="edge">
<title>3&#45;&gt;2</title>
<path fill="none" stroke="black" d="M809.55,-1248.49C852.21,-1298 898.42,-1351.62 940.76,-1400.74"/>
<polygon fill="black" stroke="black" points="938.34,-1403.3 947.52,-1408.59 943.64,-1398.73 938.34,-1403.3"/>
<text text-anchor="middle" x="892.82" y="-1327.21" font-family="Times,serif" font-size="14.00">!y</text>
</g>
<!-- 2&#45;&gt;3 -->
<g id="edge6" class="edge">
<title>2&#45;&gt;3</title>
<path fill="none" stroke="black" d="M936.63,-1418.58C912.8,-1396.87 887.91,-1375.49 863.32,-1356.41 851.34,-1347.11 845.22,-1348.96 834.32,-1338.41 816.11,-1320.76 798.74,-1300.96 782.49,-1280.32"/>
<polygon fill="black" stroke="black" points="785.22,-1278.12 776.32,-1272.36 779.69,-1282.41 785.22,-1278.12"/>
<text text-anchor="middle" x="842.32" y="-1327.21" font-family="Times,serif" font-size="14.00">?a</text>
</g>
<!-- 5 -->
<g id="node7" class="node">
<title>5</title>
<ellipse fill="none" stroke="black" cx="1128.32" cy="-1068.53" rx="217.96" ry="217.96"/>
<text text-anchor="middle" x="1128.32" y="-1064.83" font-family="Times,serif" font-size="14.00">5 &lt; ({b,a})*.{a}.{b}.{a}.{b}.{a}.{a}.{b}.0</text>
</g>
<!-- 2&#45;&gt;5 -->
<g id="edge13" class="edge">
<title>2&#45;&gt;5</title>
<path fill="none" stroke="black" d="M1086.45,-1356.36C1086.4,-1350.31 1086.36,-1344.32 1086.32,-1338.41 1086.28,-1331.74 1085.78,-1330.05 1086.32,-1323.41 1087.13,-1313.56 1088.12,-1303.51 1089.24,-1293.38"/>
<polygon fill="black" stroke="black" points="1092.74,-1293.56 1090.4,-1283.22 1085.78,-1292.76 1092.74,-1293.56"/>
<text text-anchor="middle" x="1094.82" y="-1327.21" font-family="Times,serif" font-size="14.00">?b</text>
</g>
<!-- 5&#45;&gt;2 -->
<g id="edge7" class="edge">
<title>5&#45;&gt;2</title>
<path fill="none" stroke="black" d="M1111.58,-1285.75C1110.01,-1306.04 1108.41,-1326.64 1106.83,-1347.02"/>
<polygon fill="black" stroke="black" points="1103.34,-1346.76 1106.06,-1357 1110.32,-1347.3 1103.34,-1346.76"/>
<text text-anchor="middle" x="1114.82" y="-1327.21" font-family="Times,serif" font-size="14.00">!y</text>
</g>
<!-- 6 -->
<g id="node8" class="node">
<title>6</title>
<ellipse fill="none" stroke="black" cx="1374.32" cy="-390.32" rx="358.54" ry="358.54"/>
<text text-anchor="middle" x="1374.32" y="-386.62" font-family="Times,serif" font-size="14.00">6 &lt; ({b,a})*.{a}.{b}.{a}.{b}.{a}.{a}.{b}.{a}.{b}.{a}.{b}.{a}.{a}.{b}.0</text>
</g>
<!-- 5&#45;&gt;6 -->
<g id="edge8" class="edge">
<title>5&#45;&gt;6</title>
<path fill="none" stroke="black" d="M1202.46,-863.73C1217.06,-823.6 1232.75,-780.47 1248.51,-737.16"/>
<polygon fill="black" stroke="black" points="1251.85,-738.22 1251.98,-727.63 1245.27,-735.83 1251.85,-738.22"/>
<text text-anchor="middle" x="1228.82" y="-802.45" font-family="Times,serif" font-size="14.00">!x</text>
</g>
<!-- 6&#45;&gt;0 -->
<g id="edge9" class="edge">
<title>6&#45;&gt;0</title>
<path fill="none" stroke="black" d="M1370.69,-749.34C1364.95,-1151.44 1350.66,-1753.37 1316.32,-1791.87 1243.79,-1873.19 919,-1903.45 761.51,-1913.48"/>
<polygon fill="black" stroke="black" points="761.14,-1909.99 751.38,-1914.11 761.58,-1916.98 761.14,-1909.99"/>
<text text-anchor="middle" x="1364.82" y="-1327.21" font-family="Times,serif" font-size="14.00">?b</text>
</g>
<!-- 6&#45;&gt;0 -->
<g id="edge11" class="edge">
<title>6&#45;&gt;0</title>
<path fill="none" stroke="black" d="M1459.5,-739.05C1512.99,-1039.75 1540.23,-1474.8 1349.32,-1791.87 1289.45,-1891.31 929.67,-1912.39 761.65,-1916.79"/>
<polygon fill="black" stroke="black" points="761.51,-1913.29 751.6,-1917.04 761.68,-1920.29 761.51,-1913.29"/>
<text text-anchor="middle" x="1498.32" y="-1327.21" font-family="Times,serif" font-size="14.00">?a</text>
</g>
</g>
</svg>
