<?xml version="1.0" encoding="UTF-8" standalone="no"?>
<!DOCTYPE svg PUBLIC "-//W3C//DTD SVG 1.1//EN"
 "http://www.w3.org/Graphics/SVG/1.1/DTD/svg11.dtd">
<!-- Generated by graphviz version 2.43.0 (0)
 -->
<!-- Title: %3 Pages: 1 -->
<svg width="386pt" height="346pt"
 viewBox="0.00 0.00 386.08 345.60" xmlns="http://www.w3.org/2000/svg" xmlns:xlink="http://www.w3.org/1999/xlink">
<g id="graph0" class="graph" transform="scale(1 1) rotate(0) translate(4 341.6)">
<title>%3</title>
<polygon fill="white" stroke="transparent" points="-4,4 -4,-341.6 382.08,-341.6 382.08,4 -4,4"/>
<!-- ENTRY -->
<g id="node1" class="node">
<title>ENTRY</title>
<ellipse fill="black" stroke="black" cx="254.08" cy="-335.8" rx="1.8" ry="1.8"/>
</g>
<!-- 0 -->
<g id="node2" class="node">
<title>0</title>
<ellipse fill="none" stroke="black" cx="254.08" cy="-279" rx="18" ry="18"/>
<text text-anchor="middle" x="254.08" y="-275.3" font-family="Times,serif" font-size="14.00">0</text>
</g>
<!-- ENTRY&#45;&gt;0 -->
<g id="edge1" class="edge">
<title>ENTRY&#45;&gt;0</title>
<path fill="none" stroke="black" d="M254.08,-333.85C254.08,-330.49 254.08,-318.73 254.08,-307.05"/>
<polygon fill="black" stroke="black" points="257.58,-307.02 254.08,-297.02 250.58,-307.02 257.58,-307.02"/>
</g>
<!-- 2 -->
<g id="node3" class="node">
<title>2</title>
<ellipse fill="none" stroke="black" cx="161.08" cy="-192" rx="18" ry="18"/>
<text text-anchor="middle" x="161.08" y="-188.3" font-family="Times,serif" font-size="14.00">2</text>
</g>
<!-- 0&#45;&gt;2 -->
<g id="edge2" class="edge">
<title>0&#45;&gt;2</title>
<path fill="none" stroke="black" d="M239.88,-267.78C230.8,-261.05 218.94,-251.88 209.08,-243 198.99,-233.9 188.46,-223.1 179.85,-213.87"/>
<polygon fill="black" stroke="black" points="182.17,-211.23 172.83,-206.25 177.02,-215.98 182.17,-211.23"/>
<text text-anchor="middle" x="216.58" y="-231.8" font-family="Times,serif" font-size="14.00">!y</text>
</g>
<!-- 1 -->
<g id="node8" class="node">
<title>1</title>
<ellipse fill="none" stroke="black" cx="343.08" cy="-192" rx="18" ry="18"/>
<text text-anchor="middle" x="343.08" y="-188.3" font-family="Times,serif" font-size="14.00">1</text>
</g>
<!-- 0&#45;&gt;1 -->
<g id="edge13" class="edge">
<title>0&#45;&gt;1</title>
<path fill="none" stroke="black" d="M272.4,-278C297.01,-276.89 339.99,-270.8 360.08,-243 365.97,-234.86 363.71,-224.54 359.19,-215.39"/>
<polygon fill="black" stroke="black" points="362.21,-213.62 354.15,-206.75 356.17,-217.15 362.21,-213.62"/>
<text text-anchor="middle" x="370.58" y="-231.8" font-family="Times,serif" font-size="14.00">!x</text>
</g>
<!-- 5 -->
<g id="node4" class="node">
<title>5</title>
<ellipse fill="none" stroke="black" cx="90.08" cy="-105" rx="18" ry="18"/>
<text text-anchor="middle" x="90.08" y="-101.3" font-family="Times,serif" font-size="14.00">5</text>
</g>
<!-- 2&#45;&gt;5 -->
<g id="edge3" class="edge">
<title>2&#45;&gt;5</title>
<path fill="none" stroke="black" d="M149.99,-177.72C138.7,-164.2 121.02,-143.04 107.79,-127.2"/>
<polygon fill="black" stroke="black" points="110.43,-124.9 101.33,-119.47 105.06,-129.39 110.43,-124.9"/>
<text text-anchor="middle" x="138.58" y="-144.8" font-family="Times,serif" font-size="14.00">?b</text>
</g>
<!-- 3 -->
<g id="node6" class="node">
<title>3</title>
<ellipse fill="none" stroke="black" cx="192.08" cy="-105" rx="18" ry="18"/>
<text text-anchor="middle" x="192.08" y="-101.3" font-family="Times,serif" font-size="14.00">3</text>
</g>
<!-- 2&#45;&gt;3 -->
<g id="edge8" class="edge">
<title>2&#45;&gt;3</title>
<path fill="none" stroke="black" d="M158.61,-173.79C157.87,-163.88 158.12,-151.38 162.08,-141 164.28,-135.25 167.86,-129.8 171.8,-124.98"/>
<polygon fill="black" stroke="black" points="174.43,-127.29 178.58,-117.54 169.25,-122.58 174.43,-127.29"/>
<text text-anchor="middle" x="170.08" y="-144.8" font-family="Times,serif" font-size="14.00">?a</text>
</g>
<!-- 5&#45;&gt;2 -->
<g id="edge7" class="edge">
<title>5&#45;&gt;2</title>
<path fill="none" stroke="black" d="M91.3,-123.15C92.77,-133.51 96,-146.51 103.08,-156 111.22,-166.9 123.84,-175.09 135.23,-180.8"/>
<polygon fill="black" stroke="black" points="133.84,-184.01 144.38,-185.02 136.76,-177.65 133.84,-184.01"/>
<text text-anchor="middle" x="110.58" y="-144.8" font-family="Times,serif" font-size="14.00">!y</text>
</g>
<!-- 6 -->
<g id="node5" class="node">
<title>6</title>
<ellipse fill="none" stroke="black" cx="44.08" cy="-18" rx="18" ry="18"/>
<text text-anchor="middle" x="44.08" y="-14.3" font-family="Times,serif" font-size="14.00">6</text>
</g>
<!-- 5&#45;&gt;6 -->
<g id="edge4" class="edge">
<title>5&#45;&gt;6</title>
<path fill="none" stroke="black" d="M81.86,-88.8C74.99,-76.11 65.08,-57.79 57.13,-43.1"/>
<polygon fill="black" stroke="black" points="60.07,-41.19 52.24,-34.06 53.92,-44.53 60.07,-41.19"/>
<text text-anchor="middle" x="77.58" y="-57.8" font-family="Times,serif" font-size="14.00">!x</text>
</g>
<!-- 6&#45;&gt;0 -->
<g id="edge5" class="edge">
<title>6&#45;&gt;0</title>
<path fill="none" stroke="black" d="M36.24,-34.31C16.31,-75.57 -30.54,-189.51 30.08,-243 58.66,-268.22 172.19,-275.31 225.79,-277.27"/>
<polygon fill="black" stroke="black" points="225.85,-280.77 235.96,-277.61 226.08,-273.78 225.85,-280.77"/>
<text text-anchor="middle" x="10.58" y="-144.8" font-family="Times,serif" font-size="14.00">?b</text>
</g>
<!-- 6&#45;&gt;0 -->
<g id="edge6" class="edge">
<title>6&#45;&gt;0</title>
<path fill="none" stroke="black" d="M44.23,-36.15C45.26,-63.74 50.64,-118.66 76.08,-156 114.61,-212.53 188.74,-250.49 228.08,-267.61"/>
<polygon fill="black" stroke="black" points="226.94,-270.93 237.52,-271.6 229.67,-264.48 226.94,-270.93"/>
<text text-anchor="middle" x="84.08" y="-144.8" font-family="Times,serif" font-size="14.00">?a</text>
</g>
<!-- 3&#45;&gt;2 -->
<g id="edge12" class="edge">
<title>3&#45;&gt;2</title>
<path fill="none" stroke="black" d="M188.15,-122.91C185.68,-132.71 182.18,-145.21 178.08,-156 176.8,-159.39 175.31,-162.89 173.75,-166.31"/>
<polygon fill="black" stroke="black" points="170.47,-165.05 169.31,-175.58 176.79,-168.08 170.47,-165.05"/>
<text text-anchor="middle" x="190.58" y="-144.8" font-family="Times,serif" font-size="14.00">!y</text>
</g>
<!-- 4 -->
<g id="node7" class="node">
<title>4</title>
<ellipse fill="none" stroke="black" cx="238.08" cy="-18" rx="18" ry="18"/>
<text text-anchor="middle" x="238.08" y="-14.3" font-family="Times,serif" font-size="14.00">4</text>
</g>
<!-- 3&#45;&gt;4 -->
<g id="edge9" class="edge">
<title>3&#45;&gt;4</title>
<path fill="none" stroke="black" d="M196.16,-87.15C198.97,-77.13 203.27,-64.4 209.08,-54 211.92,-48.92 215.54,-43.86 219.24,-39.24"/>
<polygon fill="black" stroke="black" points="222.04,-41.35 225.85,-31.46 216.7,-36.81 222.04,-41.35"/>
<text text-anchor="middle" x="216.58" y="-57.8" font-family="Times,serif" font-size="14.00">!x</text>
</g>
<!-- 4&#45;&gt;0 -->
<g id="edge10" class="edge">
<title>4&#45;&gt;0</title>
<path fill="none" stroke="black" d="M237.57,-36.32C236.95,-62.34 236.3,-113.04 239.08,-156 241.22,-188.83 246.22,-226.37 249.86,-251.04"/>
<polygon fill="black" stroke="black" points="246.43,-251.72 251.38,-261.08 253.35,-250.67 246.43,-251.72"/>
<text text-anchor="middle" x="247.58" y="-144.8" font-family="Times,serif" font-size="14.00">?b</text>
</g>
<!-- 4&#45;&gt;0 -->
<g id="edge11" class="edge">
<title>4&#45;&gt;0</title>
<path fill="none" stroke="black" d="M245.07,-34.73C247.39,-40.66 249.73,-47.53 251.08,-54 265.68,-123.69 260.94,-208.25 257.05,-250.78"/>
<polygon fill="black" stroke="black" points="253.55,-250.6 256.06,-260.9 260.52,-251.28 253.55,-250.6"/>
<text text-anchor="middle" x="268.08" y="-144.8" font-family="Times,serif" font-size="14.00">?a</text>
</g>
<!-- 1&#45;&gt;0 -->
<g id="edge14" class="edge">
<title>1&#45;&gt;0</title>
<path fill="none" stroke="black" d="M329.92,-204.49C322.29,-211.24 312.54,-219.99 304.08,-228 293.78,-237.76 282.58,-248.91 273.4,-258.19"/>
<polygon fill="black" stroke="black" points="270.75,-255.9 266.23,-265.48 275.74,-260.81 270.75,-255.9"/>
<text text-anchor="middle" x="312.58" y="-231.8" font-family="Times,serif" font-size="14.00">?b</text>
</g>
<!-- 1&#45;&gt;0 -->
<g id="edge15" class="edge">
<title>1&#45;&gt;0</title>
<path fill="none" stroke="black" d="M338.77,-209.92C335.39,-220.45 329.76,-233.72 321.08,-243 310.05,-254.8 294.13,-263.35 280.58,-269.04"/>
<polygon fill="black" stroke="black" points="279.28,-265.79 271.23,-272.68 281.82,-272.31 279.28,-265.79"/>
<text text-anchor="middle" x="339.08" y="-231.8" font-family="Times,serif" font-size="14.00">?a</text>
</g>
</g>
</svg>
