<?xml version="1.0" encoding="UTF-8" standalone="no"?>
<!DOCTYPE svg PUBLIC "-//W3C//DTD SVG 1.1//EN"
 "http://www.w3.org/Graphics/SVG/1.1/DTD/svg11.dtd">
<!-- Generated by graphviz version 2.43.0 (0)
 -->
<!-- Title: %3 Pages: 1 -->
<svg width="296pt" height="348pt"
 viewBox="0.00 0.00 296.19 347.88" xmlns="http://www.w3.org/2000/svg" xmlns:xlink="http://www.w3.org/1999/xlink">
<g id="graph0" class="graph" transform="scale(1 1) rotate(0) translate(4 343.88)">
<title>%3</title>
<polygon fill="white" stroke="transparent" points="-4,4 -4,-343.88 292.19,-343.88 292.19,4 -4,4"/>
<!-- ENTRY -->
<g id="node1" class="node">
<title>ENTRY</title>
<ellipse fill="black" stroke="black" cx="143.59" cy="-338.08" rx="1.8" ry="1.8"/>
</g>
<!-- 0 -->
<g id="node4" class="node">
<title>0</title>
<ellipse fill="none" stroke="black" cx="143.59" cy="-242.73" rx="56.59" ry="56.59"/>
<text text-anchor="middle" x="143.59" y="-239.03" font-family="Times,serif" font-size="14.00">0 &lt; Eps.0</text>
</g>
<!-- ENTRY&#45;&gt;0 -->
<g id="edge1" class="edge">
<title>ENTRY&#45;&gt;0</title>
<path fill="none" stroke="black" d="M143.59,-336.03C143.59,-332.77 143.59,-322.28 143.59,-309.47"/>
<polygon fill="black" stroke="black" points="147.09,-309.31 143.59,-299.31 140.09,-309.31 147.09,-309.31"/>
</g>
<!-- 3 -->
<g id="node2" class="node">
<title>3</title>
<ellipse fill="none" stroke="red" cx="67.59" cy="-67.59" rx="67.69" ry="67.69"/>
<text text-anchor="middle" x="67.59" y="-63.89" font-family="Times,serif" font-size="14.00">3 &lt; ({a})*.4</text>
</g>
<!-- 1 -->
<g id="node3" class="node">
<title>1</title>
<ellipse fill="none" stroke="red" cx="220.59" cy="-67.59" rx="67.69" ry="67.69"/>
<text text-anchor="middle" x="220.59" y="-63.89" font-family="Times,serif" font-size="14.00">1 &lt; ({a})*.2</text>
</g>
<!-- 0&#45;&gt;3 -->
<g id="edge3" class="edge">
<title>0&#45;&gt;3</title>
<path fill="none" stroke="black" d="M121.2,-190.72C114.15,-174.65 106.22,-156.59 98.67,-139.4"/>
<polygon fill="black" stroke="black" points="101.75,-137.7 94.53,-129.95 95.34,-140.51 101.75,-137.7"/>
<text text-anchor="middle" x="117.59" y="-156.99" font-family="Times,serif" font-size="14.00">!c</text>
</g>
<!-- 0&#45;&gt;1 -->
<g id="edge2" class="edge">
<title>0&#45;&gt;1</title>
<path fill="none" stroke="black" d="M166.28,-190.72C173.47,-174.56 181.54,-156.4 189.23,-139.13"/>
<polygon fill="black" stroke="black" points="192.58,-140.2 193.45,-129.64 186.19,-137.35 192.58,-140.2"/>
<text text-anchor="middle" x="190.59" y="-156.99" font-family="Times,serif" font-size="14.00">!b</text>
</g>
</g>
</svg>
