<?xml version="1.0" encoding="UTF-8" standalone="no"?>
<!DOCTYPE svg PUBLIC "-//W3C//DTD SVG 1.1//EN"
 "http://www.w3.org/Graphics/SVG/1.1/DTD/svg11.dtd">
<!-- Generated by graphviz version 2.43.0 (0)
 -->
<!-- Title: %3 Pages: 1 -->
<svg width="166pt" height="346pt"
 viewBox="0.00 0.00 166.00 345.60" xmlns="http://www.w3.org/2000/svg" xmlns:xlink="http://www.w3.org/1999/xlink">
<g id="graph0" class="graph" transform="scale(1 1) rotate(0) translate(4 341.6)">
<title>%3</title>
<polygon fill="white" stroke="transparent" points="-4,4 -4,-341.6 162,-341.6 162,4 -4,4"/>
<!-- ENTRY -->
<g id="node1" class="node">
<title>ENTRY</title>
<ellipse fill="black" stroke="black" cx="61" cy="-335.8" rx="1.8" ry="1.8"/>
</g>
<!-- 0 -->
<g id="node2" class="node">
<title>0</title>
<ellipse fill="none" stroke="black" cx="61" cy="-279" rx="18" ry="18"/>
<text text-anchor="middle" x="61" y="-275.3" font-family="Times,serif" font-size="14.00">0</text>
</g>
<!-- ENTRY&#45;&gt;0 -->
<g id="edge1" class="edge">
<title>ENTRY&#45;&gt;0</title>
<path fill="none" stroke="black" d="M61,-333.85C61,-330.49 61,-318.73 61,-307.05"/>
<polygon fill="black" stroke="black" points="64.5,-307.02 61,-297.02 57.5,-307.02 64.5,-307.02"/>
</g>
<!-- 1 -->
<g id="node3" class="node">
<title>1</title>
<ellipse fill="none" stroke="black" cx="61" cy="-192" rx="18" ry="18"/>
<text text-anchor="middle" x="61" y="-188.3" font-family="Times,serif" font-size="14.00">1</text>
</g>
<!-- 0&#45;&gt;1 -->
<g id="edge2" class="edge">
<title>0&#45;&gt;1</title>
<path fill="none" stroke="black" d="M61,-260.8C61,-249.16 61,-233.55 61,-220.24"/>
<polygon fill="black" stroke="black" points="64.5,-220.18 61,-210.18 57.5,-220.18 64.5,-220.18"/>
<text text-anchor="middle" x="69" y="-231.8" font-family="Times,serif" font-size="14.00">?a</text>
</g>
<!-- 4 -->
<g id="node4" class="node">
<title>4</title>
<ellipse fill="none" stroke="black" cx="18" cy="-105" rx="18" ry="18"/>
<text text-anchor="middle" x="18" y="-101.3" font-family="Times,serif" font-size="14.00">4</text>
</g>
<!-- 1&#45;&gt;4 -->
<g id="edge3" class="edge">
<title>1&#45;&gt;4</title>
<path fill="none" stroke="black" d="M53.11,-175.41C46.75,-162.83 37.68,-144.9 30.35,-130.42"/>
<polygon fill="black" stroke="black" points="33.47,-128.83 25.84,-121.49 27.23,-131.99 33.47,-128.83"/>
<text text-anchor="middle" x="50" y="-144.8" font-family="Times,serif" font-size="14.00">!c</text>
</g>
<!-- 2 -->
<g id="node6" class="node">
<title>2</title>
<ellipse fill="none" stroke="black" cx="106" cy="-105" rx="18" ry="18"/>
<text text-anchor="middle" x="106" y="-101.3" font-family="Times,serif" font-size="14.00">2</text>
</g>
<!-- 1&#45;&gt;2 -->
<g id="edge6" class="edge">
<title>1&#45;&gt;2</title>
<path fill="none" stroke="black" d="M69.05,-175.8C75.72,-163.19 85.35,-145.01 93.1,-130.37"/>
<polygon fill="black" stroke="black" points="96.29,-131.83 97.87,-121.35 90.1,-128.55 96.29,-131.83"/>
<text text-anchor="middle" x="94" y="-144.8" font-family="Times,serif" font-size="14.00">!b</text>
</g>
<!-- 4&#45;&gt;4 -->
<g id="edge5" class="edge">
<title>4&#45;&gt;4</title>
<path fill="none" stroke="black" d="M34.66,-112.38C44.62,-114.02 54,-111.56 54,-105 54,-100.8 50.15,-98.28 44.77,-97.44"/>
<polygon fill="black" stroke="black" points="44.6,-93.94 34.66,-97.62 44.72,-100.94 44.6,-93.94"/>
<text text-anchor="middle" x="62" y="-101.3" font-family="Times,serif" font-size="14.00">?a</text>
</g>
<!-- 5 -->
<g id="node5" class="node">
<title>5</title>
<ellipse fill="none" stroke="black" cx="18" cy="-18" rx="18" ry="18"/>
<text text-anchor="middle" x="18" y="-14.3" font-family="Times,serif" font-size="14.00">5</text>
</g>
<!-- 4&#45;&gt;5 -->
<g id="edge4" class="edge">
<title>4&#45;&gt;5</title>
<path fill="none" stroke="black" d="M18,-86.8C18,-75.16 18,-59.55 18,-46.24"/>
<polygon fill="black" stroke="black" points="21.5,-46.18 18,-36.18 14.5,-46.18 21.5,-46.18"/>
<text text-anchor="middle" x="26.5" y="-57.8" font-family="Times,serif" font-size="14.00">?b</text>
</g>
<!-- 2&#45;&gt;2 -->
<g id="edge8" class="edge">
<title>2&#45;&gt;2</title>
<path fill="none" stroke="black" d="M122.66,-112.38C132.62,-114.02 142,-111.56 142,-105 142,-100.8 138.15,-98.28 132.77,-97.44"/>
<polygon fill="black" stroke="black" points="132.6,-93.94 122.66,-97.62 132.72,-100.94 132.6,-93.94"/>
<text text-anchor="middle" x="150" y="-101.3" font-family="Times,serif" font-size="14.00">?a</text>
</g>
<!-- 3 -->
<g id="node7" class="node">
<title>3</title>
<ellipse fill="none" stroke="black" cx="106" cy="-18" rx="18" ry="18"/>
<text text-anchor="middle" x="106" y="-14.3" font-family="Times,serif" font-size="14.00">3</text>
</g>
<!-- 2&#45;&gt;3 -->
<g id="edge7" class="edge">
<title>2&#45;&gt;3</title>
<path fill="none" stroke="black" d="M106,-86.8C106,-75.16 106,-59.55 106,-46.24"/>
<polygon fill="black" stroke="black" points="109.5,-46.18 106,-36.18 102.5,-46.18 109.5,-46.18"/>
<text text-anchor="middle" x="114" y="-57.8" font-family="Times,serif" font-size="14.00">?c</text>
</g>
</g>
</svg>
