<?xml version="1.0" encoding="UTF-8" standalone="no"?>
<!DOCTYPE svg PUBLIC "-//W3C//DTD SVG 1.1//EN"
 "http://www.w3.org/Graphics/SVG/1.1/DTD/svg11.dtd">
<!-- Generated by graphviz version 2.43.0 (0)
 -->
<!-- Title: %3 Pages: 1 -->
<svg width="131pt" height="672pt"
 viewBox="0.00 0.00 131.04 672.44" xmlns="http://www.w3.org/2000/svg" xmlns:xlink="http://www.w3.org/1999/xlink">
<g id="graph0" class="graph" transform="scale(1 1) rotate(0) translate(4 668.44)">
<title>%3</title>
<polygon fill="white" stroke="transparent" points="-4,4 -4,-668.44 127.04,-668.44 127.04,4 -4,4"/>
<!-- ENTRY -->
<g id="node1" class="node">
<title>ENTRY</title>
<ellipse fill="black" stroke="black" cx="61.52" cy="-662.64" rx="1.8" ry="1.8"/>
</g>
<!-- 0 -->
<g id="node5" class="node">
<title>0</title>
<ellipse fill="none" stroke="black" cx="61.52" cy="-567.29" rx="56.59" ry="56.59"/>
<text text-anchor="middle" x="61.52" y="-563.59" font-family="Times,serif" font-size="14.00">0 &lt; Eps.0</text>
</g>
<!-- ENTRY&#45;&gt;0 -->
<g id="edge1" class="edge">
<title>ENTRY&#45;&gt;0</title>
<path fill="none" stroke="black" d="M61.52,-660.59C61.52,-657.33 61.52,-646.84 61.52,-634.04"/>
<polygon fill="black" stroke="black" points="65.02,-633.87 61.52,-623.87 58.02,-633.87 65.02,-633.87"/>
</g>
<!-- 3 -->
<g id="node2" class="node">
<title>3</title>
<ellipse fill="none" stroke="red" cx="61.52" cy="-60.81" rx="60.62" ry="60.62"/>
<text text-anchor="middle" x="61.52" y="-72.11" font-family="Times,serif" font-size="14.00">3 &lt; {a}.4</text>
<text text-anchor="middle" x="61.52" y="-57.11" font-family="Times,serif" font-size="14.00">Eps.4</text>
<text text-anchor="middle" x="61.52" y="-42.11" font-family="Times,serif" font-size="14.00">Eps.2</text>
</g>
<!-- 2 -->
<g id="node3" class="node">
<title>2</title>
<ellipse fill="none" stroke="black" cx="61.52" cy="-234.14" rx="61.54" ry="61.54"/>
<text text-anchor="middle" x="61.52" y="-245.44" font-family="Times,serif" font-size="14.00">2 &lt; Eps.2</text>
<text text-anchor="middle" x="61.52" y="-230.44" font-family="Times,serif" font-size="14.00">Eps.4</text>
<text text-anchor="middle" x="61.52" y="-215.44" font-family="Times,serif" font-size="14.00">Eps.3</text>
</g>
<!-- 2&#45;&gt;3 -->
<g id="edge2" class="edge">
<title>2&#45;&gt;3</title>
<path fill="none" stroke="black" d="M61.52,-172.25C61.52,-159.15 61.52,-145.19 61.52,-131.77"/>
<polygon fill="black" stroke="black" points="65.02,-131.64 61.52,-121.64 58.02,-131.64 65.02,-131.64"/>
<text text-anchor="middle" x="69.52" y="-143.42" font-family="Times,serif" font-size="14.00">!b</text>
</g>
<!-- 1 -->
<g id="node4" class="node">
<title>1</title>
<ellipse fill="none" stroke="black" cx="61.52" cy="-403.2" rx="56.59" ry="56.59"/>
<text text-anchor="middle" x="61.52" y="-399.5" font-family="Times,serif" font-size="14.00">1 &lt; Eps.1</text>
</g>
<!-- 1&#45;&gt;2 -->
<g id="edge3" class="edge">
<title>1&#45;&gt;2</title>
<path fill="none" stroke="black" d="M61.52,-346.57C61.52,-333.56 61.52,-319.53 61.52,-305.96"/>
<polygon fill="black" stroke="black" points="65.02,-305.7 61.52,-295.7 58.02,-305.7 65.02,-305.7"/>
<text text-anchor="middle" x="68.52" y="-317.46" font-family="Times,serif" font-size="14.00">!z</text>
</g>
<!-- 0&#45;&gt;1 -->
<g id="edge4" class="edge">
<title>0&#45;&gt;1</title>
<path fill="none" stroke="black" d="M61.52,-510.51C61.52,-497.45 61.52,-483.41 61.52,-469.96"/>
<polygon fill="black" stroke="black" points="65.02,-469.81 61.52,-459.81 58.02,-469.81 65.02,-469.81"/>
<text text-anchor="middle" x="68.52" y="-481.55" font-family="Times,serif" font-size="14.00">!z</text>
</g>
</g>
</svg>
