<?xml version="1.0" encoding="UTF-8" standalone="no"?>
<!DOCTYPE svg PUBLIC "-//W3C//DTD SVG 1.1//EN"
 "http://www.w3.org/Graphics/SVG/1.1/DTD/svg11.dtd">
<!-- Generated by graphviz version 2.43.0 (0)
 -->
<!-- Title: %3 Pages: 1 -->
<svg width="105pt" height="172pt"
 viewBox="0.00 0.00 105.00 171.60" xmlns="http://www.w3.org/2000/svg" xmlns:xlink="http://www.w3.org/1999/xlink">
<g id="graph0" class="graph" transform="scale(1 1) rotate(0) translate(4 167.6)">
<title>%3</title>
<polygon fill="white" stroke="transparent" points="-4,4 -4,-167.6 101,-167.6 101,4 -4,4"/>
<!-- ENTRY -->
<g id="node1" class="node">
<title>ENTRY</title>
<ellipse fill="black" stroke="black" cx="45" cy="-161.8" rx="1.8" ry="1.8"/>
</g>
<!-- 0 -->
<g id="node2" class="node">
<title>0</title>
<ellipse fill="none" stroke="black" cx="45" cy="-105" rx="18" ry="18"/>
<text text-anchor="middle" x="45" y="-101.3" font-family="Times,serif" font-size="14.00">0</text>
</g>
<!-- ENTRY&#45;&gt;0 -->
<g id="edge1" class="edge">
<title>ENTRY&#45;&gt;0</title>
<path fill="none" stroke="black" d="M45,-159.85C45,-156.49 45,-144.73 45,-133.05"/>
<polygon fill="black" stroke="black" points="48.5,-133.02 45,-123.02 41.5,-133.02 48.5,-133.02"/>
</g>
<!-- 0&#45;&gt;0 -->
<g id="edge3" class="edge">
<title>0&#45;&gt;0</title>
<path fill="none" stroke="black" d="M62.04,-111.38C71.86,-112.68 81,-110.55 81,-105 81,-101.53 77.43,-99.4 72.35,-98.6"/>
<polygon fill="black" stroke="black" points="72.03,-95.1 62.04,-98.62 72.04,-102.1 72.03,-95.1"/>
<text text-anchor="middle" x="89" y="-101.3" font-family="Times,serif" font-size="14.00">!b</text>
</g>
<!-- 2 -->
<g id="node3" class="node">
<title>2</title>
<ellipse fill="none" stroke="black" cx="18" cy="-18" rx="18" ry="18"/>
<text text-anchor="middle" x="18" y="-14.3" font-family="Times,serif" font-size="14.00">2</text>
</g>
<!-- 0&#45;&gt;2 -->
<g id="edge2" class="edge">
<title>0&#45;&gt;2</title>
<path fill="none" stroke="black" d="M39.79,-87.61C35.98,-75.62 30.74,-59.09 26.34,-45.27"/>
<polygon fill="black" stroke="black" points="29.55,-43.81 23.19,-35.34 22.88,-45.93 29.55,-43.81"/>
<text text-anchor="middle" x="41" y="-57.8" font-family="Times,serif" font-size="14.00">!c</text>
</g>
<!-- 1 -->
<g id="node4" class="node">
<title>1</title>
<ellipse fill="none" stroke="black" cx="72" cy="-18" rx="18" ry="18"/>
<text text-anchor="middle" x="72" y="-14.3" font-family="Times,serif" font-size="14.00">1</text>
</g>
<!-- 0&#45;&gt;1 -->
<g id="edge4" class="edge">
<title>0&#45;&gt;1</title>
<path fill="none" stroke="black" d="M50.21,-87.61C54.02,-75.62 59.26,-59.09 63.66,-45.27"/>
<polygon fill="black" stroke="black" points="67.12,-45.93 66.81,-35.34 60.45,-43.81 67.12,-45.93"/>
<text text-anchor="middle" x="67.5" y="-57.8" font-family="Times,serif" font-size="14.00">!a</text>
</g>
</g>
</svg>
