<?xml version="1.0" encoding="UTF-8" standalone="no"?>
<!DOCTYPE svg PUBLIC "-//W3C//DTD SVG 1.1//EN"
 "http://www.w3.org/Graphics/SVG/1.1/DTD/svg11.dtd">
<!-- Generated by graphviz version 2.43.0 (0)
 -->
<!-- Title: %3 Pages: 1 -->
<svg width="272pt" height="828pt"
 viewBox="0.00 0.00 272.49 828.45" xmlns="http://www.w3.org/2000/svg" xmlns:xlink="http://www.w3.org/1999/xlink">
<g id="graph0" class="graph" transform="scale(1 1) rotate(0) translate(4 824.45)">
<title>%3</title>
<polygon fill="white" stroke="transparent" points="-4,4 -4,-824.45 268.49,-824.45 268.49,4 -4,4"/>
<!-- ENTRY -->
<g id="node1" class="node">
<title>ENTRY</title>
<ellipse fill="black" stroke="black" cx="131.74" cy="-818.65" rx="1.8" ry="1.8"/>
</g>
<!-- 0 -->
<g id="node8" class="node">
<title>0</title>
<ellipse fill="none" stroke="black" cx="131.74" cy="-723.3" rx="56.59" ry="56.59"/>
<text text-anchor="middle" x="131.74" y="-719.6" font-family="Times,serif" font-size="14.00">0 &lt; Eps.0</text>
</g>
<!-- ENTRY&#45;&gt;0 -->
<g id="edge1" class="edge">
<title>ENTRY&#45;&gt;0</title>
<path fill="none" stroke="black" d="M131.74,-816.6C131.74,-813.34 131.74,-802.85 131.74,-790.05"/>
<polygon fill="black" stroke="black" points="135.24,-789.88 131.74,-779.88 128.24,-789.88 135.24,-789.88"/>
</g>
<!-- 2 -->
<g id="node2" class="node">
<title>2</title>
<ellipse fill="none" stroke="black" cx="131.74" cy="-395.12" rx="56.59" ry="56.59"/>
<text text-anchor="middle" x="131.74" y="-391.42" font-family="Times,serif" font-size="14.00">2 &lt; Eps.2</text>
</g>
<!-- 6 -->
<g id="node5" class="node">
<title>6</title>
<ellipse fill="none" stroke="black" cx="61.74" cy="-225.83" rx="61.99" ry="61.99"/>
<text text-anchor="middle" x="61.74" y="-222.13" font-family="Times,serif" font-size="14.00">6 &lt; {a3}.6</text>
</g>
<!-- 2&#45;&gt;6 -->
<g id="edge4" class="edge">
<title>2&#45;&gt;6</title>
<path fill="none" stroke="black" d="M110.17,-342.57C103.59,-326.84 96.26,-309.32 89.34,-292.78"/>
<polygon fill="black" stroke="black" points="92.41,-291.04 85.32,-283.17 85.95,-293.74 92.41,-291.04"/>
<text text-anchor="middle" x="108.74" y="-309.38" font-family="Times,serif" font-size="14.00">!c</text>
</g>
<!-- 3 -->
<g id="node6" class="node">
<title>3</title>
<ellipse fill="none" stroke="black" cx="202.74" cy="-225.83" rx="61.99" ry="61.99"/>
<text text-anchor="middle" x="202.74" y="-222.13" font-family="Times,serif" font-size="14.00">3 &lt; {a3}.4</text>
</g>
<!-- 2&#45;&gt;3 -->
<g id="edge2" class="edge">
<title>2&#45;&gt;3</title>
<path fill="none" stroke="black" d="M153.63,-342.57C160.34,-326.76 167.81,-309.14 174.86,-292.52"/>
<polygon fill="black" stroke="black" points="178.28,-293.45 178.96,-282.87 171.83,-290.71 178.28,-293.45"/>
<text text-anchor="middle" x="174.74" y="-309.38" font-family="Times,serif" font-size="14.00">!b</text>
</g>
<!-- 1 -->
<g id="node3" class="node">
<title>1</title>
<ellipse fill="none" stroke="black" cx="131.74" cy="-559.21" rx="56.59" ry="56.59"/>
<text text-anchor="middle" x="131.74" y="-555.51" font-family="Times,serif" font-size="14.00">1 &lt; Eps.1</text>
</g>
<!-- 1&#45;&gt;2 -->
<g id="edge7" class="edge">
<title>1&#45;&gt;2</title>
<path fill="none" stroke="black" d="M131.74,-502.43C131.74,-489.37 131.74,-475.33 131.74,-461.88"/>
<polygon fill="black" stroke="black" points="135.24,-461.73 131.74,-451.73 128.24,-461.73 135.24,-461.73"/>
<text text-anchor="middle" x="144.24" y="-473.47" font-family="Times,serif" font-size="14.00">?a2</text>
</g>
<!-- 7 -->
<g id="node4" class="node">
<title>7</title>
<ellipse fill="none" stroke="red" cx="61.74" cy="-56.54" rx="56.59" ry="56.59"/>
<text text-anchor="middle" x="61.74" y="-52.84" font-family="Times,serif" font-size="14.00">7 &lt; Eps.6</text>
</g>
<!-- 6&#45;&gt;7 -->
<g id="edge3" class="edge">
<title>6&#45;&gt;7</title>
<path fill="none" stroke="black" d="M61.74,-163.97C61.74,-150.71 61.74,-136.64 61.74,-123.21"/>
<polygon fill="black" stroke="black" points="65.24,-123.09 61.74,-113.09 58.24,-123.09 65.24,-123.09"/>
<text text-anchor="middle" x="74.24" y="-134.89" font-family="Times,serif" font-size="14.00">?a3</text>
</g>
<!-- 4 -->
<g id="node7" class="node">
<title>4</title>
<ellipse fill="none" stroke="red" cx="202.74" cy="-56.54" rx="56.59" ry="56.59"/>
<text text-anchor="middle" x="202.74" y="-52.84" font-family="Times,serif" font-size="14.00">4 &lt; Eps.4</text>
</g>
<!-- 3&#45;&gt;4 -->
<g id="edge6" class="edge">
<title>3&#45;&gt;4</title>
<path fill="none" stroke="black" d="M202.74,-163.97C202.74,-150.71 202.74,-136.64 202.74,-123.21"/>
<polygon fill="black" stroke="black" points="206.24,-123.09 202.74,-113.09 199.24,-123.09 206.24,-123.09"/>
<text text-anchor="middle" x="215.24" y="-134.89" font-family="Times,serif" font-size="14.00">?a3</text>
</g>
<!-- 0&#45;&gt;1 -->
<g id="edge5" class="edge">
<title>0&#45;&gt;1</title>
<path fill="none" stroke="black" d="M131.74,-666.52C131.74,-653.46 131.74,-639.42 131.74,-625.97"/>
<polygon fill="black" stroke="black" points="135.24,-625.82 131.74,-615.82 128.24,-625.82 135.24,-625.82"/>
<text text-anchor="middle" x="144.24" y="-637.56" font-family="Times,serif" font-size="14.00">?a1</text>
</g>
</g>
</svg>
