<?xml version="1.0" encoding="UTF-8" standalone="no"?>
<!DOCTYPE svg PUBLIC "-//W3C//DTD SVG 1.1//EN"
 "http://www.w3.org/Graphics/SVG/1.1/DTD/svg11.dtd">
<!-- Generated by graphviz version 2.43.0 (0)
 -->
<!-- Title: %3 Pages: 1 -->
<svg width="782pt" height="2144pt"
 viewBox="0.00 0.00 781.61 2143.93" xmlns="http://www.w3.org/2000/svg" xmlns:xlink="http://www.w3.org/1999/xlink">
<g id="graph0" class="graph" transform="scale(1 1) rotate(0) translate(4 2139.93)">
<title>%3</title>
<polygon fill="white" stroke="transparent" points="-4,4 -4,-2139.93 777.61,-2139.93 777.61,4 -4,4"/>
<!-- ENTRY -->
<g id="node1" class="node">
<title>ENTRY</title>
<ellipse fill="black" stroke="black" cx="227.48" cy="-2134.13" rx="1.8" ry="1.8"/>
</g>
<!-- 0 -->
<g id="node6" class="node">
<title>0</title>
<ellipse fill="none" stroke="black" cx="227.48" cy="-2038.79" rx="56.59" ry="56.59"/>
<text text-anchor="middle" x="227.48" y="-2035.09" font-family="Times,serif" font-size="14.00">0 &lt; Eps.0</text>
</g>
<!-- ENTRY&#45;&gt;0 -->
<g id="edge1" class="edge">
<title>ENTRY&#45;&gt;0</title>
<path fill="none" stroke="black" d="M227.48,-2132.08C227.48,-2128.83 227.48,-2118.33 227.48,-2105.53"/>
<polygon fill="black" stroke="black" points="230.98,-2105.37 227.48,-2095.37 223.98,-2105.37 230.98,-2105.37"/>
</g>
<!-- 4 -->
<g id="node2" class="node">
<title>4</title>
<ellipse fill="none" stroke="black" cx="227.48" cy="-227.48" rx="227.46" ry="227.46"/>
<text text-anchor="middle" x="227.48" y="-223.78" font-family="Times,serif" font-size="14.00">4 &lt; ({a}.{b}.{c})*.{a}.{b}.{c}.{a}.{b}.{c}.3</text>
</g>
<!-- 1 -->
<g id="node3" class="node">
<title>1</title>
<ellipse fill="none" stroke="black" cx="227.48" cy="-1783.71" rx="147.57" ry="147.57"/>
<text text-anchor="middle" x="227.48" y="-1780.01" font-family="Times,serif" font-size="14.00">1 &lt; {b}.{c}.({a}.{b}.{c})*.3</text>
</g>
<!-- 4&#45;&gt;1 -->
<g id="edge4" class="edge">
<title>4&#45;&gt;1</title>
<path fill="none" stroke="black" d="M227.48,-455.03C227.48,-774.63 227.48,-1349.66 227.48,-1626.03"/>
<polygon fill="black" stroke="black" points="223.98,-1626.14 227.48,-1636.14 230.98,-1626.14 223.98,-1626.14"/>
<text text-anchor="middle" x="235.48" y="-1021.72" font-family="Times,serif" font-size="14.00">?a</text>
</g>
<!-- 2 -->
<g id="node4" class="node">
<title>2</title>
<ellipse fill="none" stroke="black" cx="506.48" cy="-1318.04" rx="267.25" ry="267.25"/>
<text text-anchor="middle" x="506.48" y="-1314.34" font-family="Times,serif" font-size="14.00">2 &lt; {b}.{c}.({a}.{b}.{c})*.{a}.{b}.{c}.{a}.{b}.{c}.3</text>
</g>
<!-- 1&#45;&gt;2 -->
<g id="edge6" class="edge">
<title>1&#45;&gt;2</title>
<path fill="none" stroke="black" d="M303.17,-1656.93C321.98,-1625.65 342.78,-1591.09 363.67,-1556.37"/>
<polygon fill="black" stroke="black" points="366.83,-1557.92 368.98,-1547.54 360.83,-1554.31 366.83,-1557.92"/>
<text text-anchor="middle" x="341.98" y="-1606.97" font-family="Times,serif" font-size="14.00">!y</text>
</g>
<!-- 3 -->
<g id="node5" class="node">
<title>3</title>
<ellipse fill="none" stroke="black" cx="496.48" cy="-752.94" rx="246.96" ry="246.96"/>
<text text-anchor="middle" x="496.48" y="-749.24" font-family="Times,serif" font-size="14.00">3 &lt; {c}.({a}.{b}.{c})*.{a}.{b}.{c}.{a}.{b}.{c}.3</text>
</g>
<!-- 2&#45;&gt;3 -->
<g id="edge5" class="edge">
<title>2&#45;&gt;3</title>
<path fill="none" stroke="black" d="M501.75,-1050.74C501.51,-1037.25 501.27,-1023.72 501.03,-1010.26"/>
<polygon fill="black" stroke="black" points="504.53,-1009.92 500.85,-999.98 497.53,-1010.04 504.53,-1009.92"/>
<text text-anchor="middle" x="508.98" y="-1021.72" font-family="Times,serif" font-size="14.00">?b</text>
</g>
<!-- 3&#45;&gt;4 -->
<g id="edge2" class="edge">
<title>3&#45;&gt;4</title>
<path fill="none" stroke="black" d="M383.96,-532.98C368.04,-502 351.69,-470.19 335.85,-439.37"/>
<polygon fill="black" stroke="black" points="338.86,-437.57 331.18,-430.27 332.64,-440.77 338.86,-437.57"/>
<text text-anchor="middle" x="362.48" y="-476.76" font-family="Times,serif" font-size="14.00">?c</text>
</g>
<!-- 0&#45;&gt;1 -->
<g id="edge3" class="edge">
<title>0&#45;&gt;1</title>
<path fill="none" stroke="black" d="M227.48,-1981.93C227.48,-1969.63 227.48,-1956.02 227.48,-1941.87"/>
<polygon fill="black" stroke="black" points="230.98,-1941.48 227.48,-1931.48 223.98,-1941.48 230.98,-1941.48"/>
<text text-anchor="middle" x="234.98" y="-1953.04" font-family="Times,serif" font-size="14.00">!x</text>
</g>
</g>
</svg>
