<?xml version="1.0" encoding="UTF-8" standalone="no"?>
<!DOCTYPE svg PUBLIC "-//W3C//DTD SVG 1.1//EN"
 "http://www.w3.org/Graphics/SVG/1.1/DTD/svg11.dtd">
<!-- Generated by graphviz version 2.43.0 (0)
 -->
<!-- Title: %3 Pages: 1 -->
<svg width="95pt" height="868pt"
 viewBox="0.00 0.00 95.00 867.60" xmlns="http://www.w3.org/2000/svg" xmlns:xlink="http://www.w3.org/1999/xlink">
<g id="graph0" class="graph" transform="scale(1 1) rotate(0) translate(4 863.6)">
<title>%3</title>
<polygon fill="white" stroke="transparent" points="-4,4 -4,-863.6 91,-863.6 91,4 -4,4"/>
<!-- ENTRY -->
<g id="node1" class="node">
<title>ENTRY</title>
<ellipse fill="black" stroke="black" cx="56" cy="-857.8" rx="1.8" ry="1.8"/>
</g>
<!-- 0 -->
<g id="node2" class="node">
<title>0</title>
<ellipse fill="none" stroke="black" cx="56" cy="-801" rx="18" ry="18"/>
<text text-anchor="middle" x="56" y="-797.3" font-family="Times,serif" font-size="14.00">0</text>
</g>
<!-- ENTRY&#45;&gt;0 -->
<g id="edge1" class="edge">
<title>ENTRY&#45;&gt;0</title>
<path fill="none" stroke="black" d="M56,-855.85C56,-852.49 56,-840.73 56,-829.05"/>
<polygon fill="black" stroke="black" points="59.5,-829.02 56,-819.02 52.5,-829.02 59.5,-829.02"/>
</g>
<!-- 1 -->
<g id="node3" class="node">
<title>1</title>
<ellipse fill="none" stroke="black" cx="56" cy="-714" rx="18" ry="18"/>
<text text-anchor="middle" x="56" y="-710.3" font-family="Times,serif" font-size="14.00">1</text>
</g>
<!-- 0&#45;&gt;1 -->
<g id="edge2" class="edge">
<title>0&#45;&gt;1</title>
<path fill="none" stroke="black" d="M56,-782.8C56,-771.16 56,-755.55 56,-742.24"/>
<polygon fill="black" stroke="black" points="59.5,-742.18 56,-732.18 52.5,-742.18 59.5,-742.18"/>
<text text-anchor="middle" x="64.5" y="-753.8" font-family="Times,serif" font-size="14.00">?b</text>
</g>
<!-- 2 -->
<g id="node4" class="node">
<title>2</title>
<ellipse fill="none" stroke="black" cx="56" cy="-627" rx="18" ry="18"/>
<text text-anchor="middle" x="56" y="-623.3" font-family="Times,serif" font-size="14.00">2</text>
</g>
<!-- 1&#45;&gt;2 -->
<g id="edge3" class="edge">
<title>1&#45;&gt;2</title>
<path fill="none" stroke="black" d="M56,-695.8C56,-684.16 56,-668.55 56,-655.24"/>
<polygon fill="black" stroke="black" points="59.5,-655.18 56,-645.18 52.5,-655.18 59.5,-655.18"/>
<text text-anchor="middle" x="64" y="-666.8" font-family="Times,serif" font-size="14.00">?c</text>
</g>
<!-- 3 -->
<g id="node5" class="node">
<title>3</title>
<ellipse fill="none" stroke="black" cx="56" cy="-540" rx="18" ry="18"/>
<text text-anchor="middle" x="56" y="-536.3" font-family="Times,serif" font-size="14.00">3</text>
</g>
<!-- 2&#45;&gt;3 -->
<g id="edge4" class="edge">
<title>2&#45;&gt;3</title>
<path fill="none" stroke="black" d="M56,-608.8C56,-597.16 56,-581.55 56,-568.24"/>
<polygon fill="black" stroke="black" points="59.5,-568.18 56,-558.18 52.5,-568.18 59.5,-568.18"/>
<text text-anchor="middle" x="63.5" y="-579.8" font-family="Times,serif" font-size="14.00">!x</text>
</g>
<!-- 4 -->
<g id="node6" class="node">
<title>4</title>
<ellipse fill="none" stroke="black" cx="26" cy="-453" rx="18" ry="18"/>
<text text-anchor="middle" x="26" y="-449.3" font-family="Times,serif" font-size="14.00">4</text>
</g>
<!-- 3&#45;&gt;4 -->
<g id="edge5" class="edge">
<title>3&#45;&gt;4</title>
<path fill="none" stroke="black" d="M49.35,-523.06C46.94,-517.11 44.26,-510.28 42,-504 39.26,-496.37 36.49,-488 34.04,-480.33"/>
<polygon fill="black" stroke="black" points="37.37,-479.26 31.04,-470.77 30.69,-481.36 37.37,-479.26"/>
<text text-anchor="middle" x="50" y="-492.8" font-family="Times,serif" font-size="14.00">?a</text>
</g>
<!-- 5 -->
<g id="node7" class="node">
<title>5</title>
<ellipse fill="none" stroke="black" cx="21" cy="-366" rx="18" ry="18"/>
<text text-anchor="middle" x="21" y="-362.3" font-family="Times,serif" font-size="14.00">5</text>
</g>
<!-- 4&#45;&gt;5 -->
<g id="edge6" class="edge">
<title>4&#45;&gt;5</title>
<path fill="none" stroke="black" d="M24.99,-434.8C24.3,-423.16 23.39,-407.55 22.6,-394.24"/>
<polygon fill="black" stroke="black" points="26.09,-393.95 22.01,-384.18 19.1,-394.36 26.09,-393.95"/>
<text text-anchor="middle" x="32.5" y="-405.8" font-family="Times,serif" font-size="14.00">?b</text>
</g>
<!-- 6 -->
<g id="node8" class="node">
<title>6</title>
<ellipse fill="none" stroke="black" cx="18" cy="-279" rx="18" ry="18"/>
<text text-anchor="middle" x="18" y="-275.3" font-family="Times,serif" font-size="14.00">6</text>
</g>
<!-- 5&#45;&gt;6 -->
<g id="edge7" class="edge">
<title>5&#45;&gt;6</title>
<path fill="none" stroke="black" d="M20.39,-347.8C19.98,-336.16 19.43,-320.55 18.96,-307.24"/>
<polygon fill="black" stroke="black" points="22.46,-307.05 18.61,-297.18 15.46,-307.29 22.46,-307.05"/>
<text text-anchor="middle" x="28" y="-318.8" font-family="Times,serif" font-size="14.00">?c</text>
</g>
<!-- 7 -->
<g id="node9" class="node">
<title>7</title>
<ellipse fill="none" stroke="black" cx="24" cy="-192" rx="18" ry="18"/>
<text text-anchor="middle" x="24" y="-188.3" font-family="Times,serif" font-size="14.00">7</text>
</g>
<!-- 6&#45;&gt;7 -->
<g id="edge8" class="edge">
<title>6&#45;&gt;7</title>
<path fill="none" stroke="black" d="M19.21,-260.8C20.04,-249.16 21.14,-233.55 22.08,-220.24"/>
<polygon fill="black" stroke="black" points="25.57,-220.4 22.79,-210.18 18.59,-219.9 25.57,-220.4"/>
<text text-anchor="middle" x="30" y="-231.8" font-family="Times,serif" font-size="14.00">?a</text>
</g>
<!-- 8 -->
<g id="node10" class="node">
<title>8</title>
<ellipse fill="none" stroke="black" cx="26" cy="-105" rx="18" ry="18"/>
<text text-anchor="middle" x="26" y="-101.3" font-family="Times,serif" font-size="14.00">8</text>
</g>
<!-- 7&#45;&gt;8 -->
<g id="edge9" class="edge">
<title>7&#45;&gt;8</title>
<path fill="none" stroke="black" d="M24.4,-173.8C24.68,-162.16 25.05,-146.55 25.36,-133.24"/>
<polygon fill="black" stroke="black" points="28.86,-133.26 25.6,-123.18 21.86,-133.09 28.86,-133.26"/>
<text text-anchor="middle" x="34.5" y="-144.8" font-family="Times,serif" font-size="14.00">?b</text>
</g>
<!-- 9 -->
<g id="node11" class="node">
<title>9</title>
<ellipse fill="none" stroke="black" cx="49" cy="-18" rx="18" ry="18"/>
<text text-anchor="middle" x="49" y="-14.3" font-family="Times,serif" font-size="14.00">9</text>
</g>
<!-- 8&#45;&gt;9 -->
<g id="edge10" class="edge">
<title>8&#45;&gt;9</title>
<path fill="none" stroke="black" d="M30.54,-87.21C33.78,-75.25 38.19,-58.96 41.89,-45.29"/>
<polygon fill="black" stroke="black" points="45.31,-46.04 44.54,-35.47 38.55,-44.21 45.31,-46.04"/>
<text text-anchor="middle" x="47" y="-57.8" font-family="Times,serif" font-size="14.00">?c</text>
</g>
<!-- 9&#45;&gt;3 -->
<g id="edge11" class="edge">
<title>9&#45;&gt;3</title>
<path fill="none" stroke="black" d="M55.9,-34.64C62.68,-51.43 72,-79.08 72,-104 72,-454 72,-454 72,-454 72,-473.83 67.74,-495.82 63.62,-512.47"/>
<polygon fill="black" stroke="black" points="60.12,-512 60.97,-522.56 66.9,-513.77 60.12,-512"/>
<text text-anchor="middle" x="79.5" y="-275.3" font-family="Times,serif" font-size="14.00">!y</text>
</g>
</g>
</svg>
