<?xml version="1.0" encoding="UTF-8" standalone="no"?>
<!DOCTYPE svg PUBLIC "-//W3C//DTD SVG 1.1//EN"
 "http://www.w3.org/Graphics/SVG/1.1/DTD/svg11.dtd">
<!-- Generated by graphviz version 2.43.0 (0)
 -->
<!-- Title: %3 Pages: 1 -->
<svg width="121pt" height="487pt"
 viewBox="0.00 0.00 121.09 487.27" xmlns="http://www.w3.org/2000/svg" xmlns:xlink="http://www.w3.org/1999/xlink">
<g id="graph0" class="graph" transform="scale(1 1) rotate(0) translate(4 483.27)">
<title>%3</title>
<polygon fill="white" stroke="transparent" points="-4,4 -4,-483.27 117.09,-483.27 117.09,4 -4,4"/>
<!-- ENTRY -->
<g id="node1" class="node">
<title>ENTRY</title>
<ellipse fill="black" stroke="black" cx="56.54" cy="-477.47" rx="1.8" ry="1.8"/>
</g>
<!-- 0 -->
<g id="node4" class="node">
<title>0</title>
<ellipse fill="none" stroke="black" cx="56.54" cy="-382.13" rx="56.59" ry="56.59"/>
<text text-anchor="middle" x="56.54" y="-378.43" font-family="Times,serif" font-size="14.00">0 &lt; Eps.0</text>
</g>
<!-- ENTRY&#45;&gt;0 -->
<g id="edge1" class="edge">
<title>ENTRY&#45;&gt;0</title>
<path fill="none" stroke="black" d="M56.54,-475.42C56.54,-472.17 56.54,-461.67 56.54,-448.87"/>
<polygon fill="black" stroke="black" points="60.05,-448.7 56.54,-438.7 53.05,-448.71 60.05,-448.7"/>
</g>
<!-- 2 -->
<g id="node2" class="node">
<title>2</title>
<ellipse fill="none" stroke="red" cx="56.54" cy="-55.9" rx="55.79" ry="55.79"/>
<text text-anchor="middle" x="56.54" y="-52.2" font-family="Times,serif" font-size="14.00">2 &lt; {x}.3</text>
</g>
<!-- 1 -->
<g id="node3" class="node">
<title>1</title>
<ellipse fill="none" stroke="black" cx="56.54" cy="-218.69" rx="55.79" ry="55.79"/>
<text text-anchor="middle" x="56.54" y="-214.99" font-family="Times,serif" font-size="14.00">1 &lt; {x}.2</text>
</g>
<!-- 1&#45;&gt;2 -->
<g id="edge2" class="edge">
<title>1&#45;&gt;2</title>
<path fill="none" stroke="black" d="M56.54,-162.35C56.54,-149.39 56.54,-135.47 56.54,-122.13"/>
<polygon fill="black" stroke="black" points="60.05,-122.06 56.54,-112.06 53.05,-122.06 60.05,-122.06"/>
<text text-anchor="middle" x="63.54" y="-133.59" font-family="Times,serif" font-size="14.00">!c</text>
</g>
<!-- 0&#45;&gt;1 -->
<g id="edge3" class="edge">
<title>0&#45;&gt;1</title>
<path fill="none" stroke="black" d="M56.54,-325.57C56.54,-312.48 56.54,-298.42 56.54,-284.95"/>
<polygon fill="black" stroke="black" points="60.05,-284.8 56.54,-274.8 53.05,-284.8 60.05,-284.8"/>
<text text-anchor="middle" x="64.04" y="-296.38" font-family="Times,serif" font-size="14.00">!a</text>
</g>
</g>
</svg>
