<?xml version="1.0" encoding="UTF-8" standalone="no"?>
<!DOCTYPE svg PUBLIC "-//W3C//DTD SVG 1.1//EN"
 "http://www.w3.org/Graphics/SVG/1.1/DTD/svg11.dtd">
<!-- Generated by graphviz version 2.43.0 (0)
 -->
<!-- Title: %3 Pages: 1 -->
<svg width="366pt" height="980pt"
 viewBox="0.00 0.00 365.63 980.23" xmlns="http://www.w3.org/2000/svg" xmlns:xlink="http://www.w3.org/1999/xlink">
<g id="graph0" class="graph" transform="scale(1 1) rotate(0) translate(4 976.23)">
<title>%3</title>
<polygon fill="white" stroke="transparent" points="-4,4 -4,-976.23 361.63,-976.23 361.63,4 -4,4"/>
<!-- ENTRY -->
<g id="node1" class="node">
<title>ENTRY</title>
<ellipse fill="black" stroke="black" cx="154.39" cy="-970.43" rx="1.8" ry="1.8"/>
</g>
<!-- 0 -->
<g id="node5" class="node">
<title>0</title>
<ellipse fill="none" stroke="black" cx="154.39" cy="-864.04" rx="67.69" ry="67.69"/>
<text text-anchor="middle" x="154.39" y="-860.34" font-family="Times,serif" font-size="14.00">0 &lt; ({x})*.0</text>
</g>
<!-- ENTRY&#45;&gt;0 -->
<g id="edge1" class="edge">
<title>ENTRY&#45;&gt;0</title>
<path fill="none" stroke="black" d="M154.39,-968.26C154.39,-964.9 154.39,-954.67 154.39,-941.88"/>
<polygon fill="black" stroke="black" points="157.89,-941.67 154.39,-931.67 150.89,-941.67 157.89,-941.67"/>
</g>
<!-- 3 -->
<g id="node2" class="node">
<title>3</title>
<ellipse fill="none" stroke="black" cx="127.39" cy="-127.39" rx="127.28" ry="127.28"/>
<text text-anchor="middle" x="127.39" y="-123.69" font-family="Times,serif" font-size="14.00">3 &lt; {x}.({x})*.{x}.{x}.0</text>
</g>
<!-- 2 -->
<g id="node3" class="node">
<title>2</title>
<ellipse fill="none" stroke="black" cx="127.39" cy="-392.87" rx="87.18" ry="87.18"/>
<text text-anchor="middle" x="127.39" y="-389.17" font-family="Times,serif" font-size="14.00">2 &lt; {x}.({x})*.0</text>
</g>
<!-- 3&#45;&gt;2 -->
<g id="edge5" class="edge">
<title>3&#45;&gt;2</title>
<path fill="none" stroke="black" d="M127.39,-254.99C127.39,-268.52 127.39,-282.11 127.39,-295.21"/>
<polygon fill="black" stroke="black" points="123.89,-295.6 127.39,-305.6 130.89,-295.6 123.89,-295.6"/>
<text text-anchor="middle" x="135.39" y="-276.58" font-family="Times,serif" font-size="14.00">?x</text>
</g>
<!-- 2&#45;&gt;3 -->
<g id="edge2" class="edge">
<title>2&#45;&gt;3</title>
<path fill="none" stroke="black" d="M111.5,-307.1C110.65,-300.58 109.93,-294.08 109.39,-287.78 108.72,-279.97 108.41,-271.96 108.4,-263.88"/>
<polygon fill="black" stroke="black" points="111.9,-263.66 108.54,-253.62 104.9,-263.57 111.9,-263.66"/>
<text text-anchor="middle" x="117.39" y="-276.58" font-family="Times,serif" font-size="14.00">!b</text>
</g>
<!-- 2&#45;&gt;0 -->
<g id="edge4" class="edge">
<title>2&#45;&gt;0</title>
<path fill="none" stroke="black" d="M118.06,-479.58C112.09,-551.06 107.63,-655.38 120.39,-745.44 122.46,-760.06 125.91,-775.4 129.84,-790"/>
<polygon fill="black" stroke="black" points="126.56,-791.28 132.62,-799.97 133.3,-789.4 126.56,-791.28"/>
<text text-anchor="middle" x="127.39" y="-634.5" font-family="Times,serif" font-size="14.00">!c</text>
</g>
<!-- 1 -->
<g id="node4" class="node">
<title>1</title>
<ellipse fill="none" stroke="black" cx="250.39" cy="-638.2" rx="107.48" ry="107.48"/>
<text text-anchor="middle" x="250.39" y="-634.5" font-family="Times,serif" font-size="14.00">1 &lt; ({x})*.{x}.{x}.0</text>
</g>
<!-- 1&#45;&gt;2 -->
<g id="edge6" class="edge">
<title>1&#45;&gt;2</title>
<path fill="none" stroke="black" d="M202.31,-542.08C191.96,-521.62 181.09,-500.11 170.93,-480.01"/>
<polygon fill="black" stroke="black" points="173.95,-478.23 166.32,-470.89 167.71,-481.39 173.95,-478.23"/>
<text text-anchor="middle" x="192.39" y="-501.76" font-family="Times,serif" font-size="14.00">?x</text>
</g>
<!-- 0&#45;&gt;1 -->
<g id="edge3" class="edge">
<title>0&#45;&gt;1</title>
<path fill="none" stroke="black" d="M180.75,-801.58C188.09,-784.45 196.3,-765.33 204.42,-746.39"/>
<polygon fill="black" stroke="black" points="207.67,-747.68 208.4,-737.11 201.24,-744.92 207.67,-747.68"/>
<text text-anchor="middle" x="203.89" y="-767.24" font-family="Times,serif" font-size="14.00">!a</text>
</g>
</g>
</svg>
