<?xml version="1.0" encoding="UTF-8" standalone="no"?>
<!DOCTYPE svg PUBLIC "-//W3C//DTD SVG 1.1//EN"
 "http://www.w3.org/Graphics/SVG/1.1/DTD/svg11.dtd">
<!-- Generated by graphviz version 2.43.0 (0)
 -->
<!-- Title: %3 Pages: 1 -->
<svg width="152pt" height="259pt"
 viewBox="0.00 0.00 152.00 258.60" xmlns="http://www.w3.org/2000/svg" xmlns:xlink="http://www.w3.org/1999/xlink">
<g id="graph0" class="graph" transform="scale(1 1) rotate(0) translate(4 254.6)">
<title>%3</title>
<polygon fill="white" stroke="transparent" points="-4,4 -4,-254.6 148,-254.6 148,4 -4,4"/>
<!-- ENTRY -->
<g id="node1" class="node">
<title>ENTRY</title>
<ellipse fill="black" stroke="black" cx="97" cy="-248.8" rx="1.8" ry="1.8"/>
</g>
<!-- 0 -->
<g id="node2" class="node">
<title>0</title>
<ellipse fill="none" stroke="black" cx="97" cy="-192" rx="18" ry="18"/>
<text text-anchor="middle" x="97" y="-188.3" font-family="Times,serif" font-size="14.00">0</text>
</g>
<!-- ENTRY&#45;&gt;0 -->
<g id="edge1" class="edge">
<title>ENTRY&#45;&gt;0</title>
<path fill="none" stroke="black" d="M97,-246.85C97,-243.49 97,-231.73 97,-220.05"/>
<polygon fill="black" stroke="black" points="100.5,-220.02 97,-210.02 93.5,-220.02 100.5,-220.02"/>
</g>
<!-- 1 -->
<g id="node3" class="node">
<title>1</title>
<ellipse fill="none" stroke="black" cx="18" cy="-105" rx="18" ry="18"/>
<text text-anchor="middle" x="18" y="-101.3" font-family="Times,serif" font-size="14.00">1</text>
</g>
<!-- 0&#45;&gt;1 -->
<g id="edge2" class="edge">
<title>0&#45;&gt;1</title>
<path fill="none" stroke="black" d="M80.84,-183.76C68.87,-177.74 52.82,-168.19 42,-156 35.84,-149.06 30.92,-140.27 27.18,-132"/>
<polygon fill="black" stroke="black" points="30.38,-130.57 23.32,-122.67 23.91,-133.25 30.38,-130.57"/>
<text text-anchor="middle" x="50" y="-144.8" font-family="Times,serif" font-size="14.00">?x</text>
</g>
<!-- 2 -->
<g id="node4" class="node">
<title>2</title>
<ellipse fill="none" stroke="black" cx="97" cy="-18" rx="18" ry="18"/>
<text text-anchor="middle" x="97" y="-14.3" font-family="Times,serif" font-size="14.00">2</text>
</g>
<!-- 1&#45;&gt;2 -->
<g id="edge3" class="edge">
<title>1&#45;&gt;2</title>
<path fill="none" stroke="black" d="M23.32,-87.33C27.26,-76.9 33.44,-63.65 42,-54 50.28,-44.67 61.63,-36.88 71.87,-31.04"/>
<polygon fill="black" stroke="black" points="73.68,-34.04 80.84,-26.24 70.37,-27.87 73.68,-34.04"/>
<text text-anchor="middle" x="50" y="-57.8" font-family="Times,serif" font-size="14.00">?x</text>
</g>
<!-- 2&#45;&gt;0 -->
<g id="edge4" class="edge">
<title>2&#45;&gt;0</title>
<path fill="none" stroke="black" d="M93.54,-35.68C90.87,-49.39 87.42,-69.36 86,-87 84.72,-102.95 84.72,-107.05 86,-123 87.1,-136.65 89.41,-151.68 91.64,-164.14"/>
<polygon fill="black" stroke="black" points="88.26,-165.13 93.54,-174.32 95.14,-163.85 88.26,-165.13"/>
<text text-anchor="middle" x="93" y="-101.3" font-family="Times,serif" font-size="14.00">!c</text>
</g>
<!-- 2&#45;&gt;0 -->
<g id="edge5" class="edge">
<title>2&#45;&gt;0</title>
<path fill="none" stroke="black" d="M101.02,-35.63C102.24,-41.41 103.4,-47.96 104,-54 108.47,-99.11 108.47,-110.89 104,-156 103.73,-158.74 103.34,-161.58 102.89,-164.41"/>
<polygon fill="black" stroke="black" points="99.42,-163.89 101.02,-174.37 106.3,-165.18 99.42,-163.89"/>
<text text-anchor="middle" x="115" y="-101.3" font-family="Times,serif" font-size="14.00">!b</text>
</g>
<!-- 2&#45;&gt;0 -->
<g id="edge6" class="edge">
<title>2&#45;&gt;0</title>
<path fill="none" stroke="black" d="M106.71,-33.17C110.63,-39.36 114.94,-46.83 118,-54 123.97,-67.98 124.98,-71.93 127,-87 131.1,-117.65 130.14,-127.56 118,-156 116.28,-160.03 114.16,-164.16 111.94,-168.1"/>
<polygon fill="black" stroke="black" points="108.85,-166.45 106.71,-176.83 114.86,-170.05 108.85,-166.45"/>
<text text-anchor="middle" x="136.5" y="-101.3" font-family="Times,serif" font-size="14.00">!a</text>
</g>
</g>
</svg>
