<?xml version="1.0" encoding="UTF-8" standalone="no"?>
<!DOCTYPE svg PUBLIC "-//W3C//DTD SVG 1.1//EN"
 "http://www.w3.org/Graphics/SVG/1.1/DTD/svg11.dtd">
<!-- Generated by graphviz version 2.43.0 (0)
 -->
<!-- Title: %3 Pages: 1 -->
<svg width="80pt" height="172pt"
 viewBox="0.00 0.00 80.50 171.60" xmlns="http://www.w3.org/2000/svg" xmlns:xlink="http://www.w3.org/1999/xlink">
<g id="graph0" class="graph" transform="scale(1 1) rotate(0) translate(4 167.6)">
<title>%3</title>
<polygon fill="white" stroke="transparent" points="-4,4 -4,-167.6 76.5,-167.6 76.5,4 -4,4"/>
<!-- ENTRY -->
<g id="node1" class="node">
<title>ENTRY</title>
<ellipse fill="black" stroke="black" cx="19.5" cy="-161.8" rx="1.8" ry="1.8"/>
</g>
<!-- 0 -->
<g id="node2" class="node">
<title>0</title>
<ellipse fill="none" stroke="black" cx="19.5" cy="-105" rx="18" ry="18"/>
<text text-anchor="middle" x="19.5" y="-101.3" font-family="Times,serif" font-size="14.00">0</text>
</g>
<!-- ENTRY&#45;&gt;0 -->
<g id="edge1" class="edge">
<title>ENTRY&#45;&gt;0</title>
<path fill="none" stroke="black" d="M19.5,-159.85C19.5,-156.49 19.5,-144.73 19.5,-133.05"/>
<polygon fill="black" stroke="black" points="23,-133.02 19.5,-123.02 16,-133.02 23,-133.02"/>
</g>
<!-- 0&#45;&gt;0 -->
<g id="edge2" class="edge">
<title>0&#45;&gt;0</title>
<path fill="none" stroke="black" d="M36.54,-111.38C46.36,-112.68 55.5,-110.55 55.5,-105 55.5,-101.53 51.93,-99.4 46.85,-98.6"/>
<polygon fill="black" stroke="black" points="46.53,-95.1 36.54,-98.62 46.54,-102.1 46.53,-95.1"/>
<text text-anchor="middle" x="64" y="-101.3" font-family="Times,serif" font-size="14.00">?b</text>
</g>
<!-- 1 -->
<g id="node3" class="node">
<title>1</title>
<ellipse fill="none" stroke="black" cx="19.5" cy="-18" rx="18" ry="18"/>
<text text-anchor="middle" x="19.5" y="-14.3" font-family="Times,serif" font-size="14.00">1</text>
</g>
<!-- 0&#45;&gt;1 -->
<g id="edge3" class="edge">
<title>0&#45;&gt;1</title>
<path fill="none" stroke="black" d="M9.64,-89.81C3.97,-79.94 -1.5,-66.37 1.5,-54 2.4,-50.26 3.78,-46.47 5.38,-42.84"/>
<polygon fill="black" stroke="black" points="8.6,-44.22 9.96,-33.72 2.34,-41.09 8.6,-44.22"/>
<text text-anchor="middle" x="9.5" y="-57.8" font-family="Times,serif" font-size="14.00">?a</text>
</g>
<!-- 1&#45;&gt;0 -->
<g id="edge4" class="edge">
<title>1&#45;&gt;0</title>
<path fill="none" stroke="black" d="M19.5,-36.18C19.5,-47.81 19.5,-63.42 19.5,-76.73"/>
<polygon fill="black" stroke="black" points="16,-76.8 19.5,-86.8 23,-76.8 16,-76.8"/>
<text text-anchor="middle" x="27.5" y="-57.8" font-family="Times,serif" font-size="14.00">?a</text>
</g>
</g>
</svg>
