<?xml version="1.0" encoding="UTF-8" standalone="no"?>
<!DOCTYPE svg PUBLIC "-//W3C//DTD SVG 1.1//EN"
 "http://www.w3.org/Graphics/SVG/1.1/DTD/svg11.dtd">
<!-- Generated by graphviz version 2.43.0 (0)
 -->
<!-- Title: %3 Pages: 1 -->
<svg width="113pt" height="85pt"
 viewBox="0.00 0.00 113.00 84.60" xmlns="http://www.w3.org/2000/svg" xmlns:xlink="http://www.w3.org/1999/xlink">
<g id="graph0" class="graph" transform="scale(1 1) rotate(0) translate(4 80.6)">
<title>%3</title>
<polygon fill="white" stroke="transparent" points="-4,4 -4,-80.6 109,-80.6 109,4 -4,4"/>
<!-- ENTRY -->
<g id="node1" class="node">
<title>ENTRY</title>
<ellipse fill="black" stroke="black" cx="18" cy="-74.8" rx="1.8" ry="1.8"/>
</g>
<!-- 0 -->
<g id="node2" class="node">
<title>0</title>
<ellipse fill="none" stroke="black" cx="18" cy="-18" rx="18" ry="18"/>
<text text-anchor="middle" x="18" y="-14.3" font-family="Times,serif" font-size="14.00">0</text>
</g>
<!-- ENTRY&#45;&gt;0 -->
<g id="edge1" class="edge">
<title>ENTRY&#45;&gt;0</title>
<path fill="none" stroke="black" d="M18,-72.85C18,-69.49 18,-57.73 18,-46.05"/>
<polygon fill="black" stroke="black" points="21.5,-46.02 18,-36.02 14.5,-46.02 21.5,-46.02"/>
</g>
<!-- 0&#45;&gt;0 -->
<g id="edge2" class="edge">
<title>0&#45;&gt;0</title>
<path fill="none" stroke="black" d="M35.78,-21.24C45.31,-21.79 54,-20.71 54,-18 54,-16.35 50.77,-15.31 46.1,-14.87"/>
<polygon fill="black" stroke="black" points="45.82,-11.36 35.78,-14.76 45.75,-18.36 45.82,-11.36"/>
<text text-anchor="middle" x="62.5" y="-14.3" font-family="Times,serif" font-size="14.00">?b</text>
</g>
<!-- 0&#45;&gt;0 -->
<g id="edge3" class="edge">
<title>0&#45;&gt;0</title>
<path fill="none" stroke="black" d="M35.42,-23.32C52.79,-26.35 72,-24.57 72,-18 72,-12.71 59.56,-10.53 45.65,-11.46"/>
<polygon fill="black" stroke="black" points="44.93,-8.02 35.42,-12.68 45.77,-14.97 44.93,-8.02"/>
<text text-anchor="middle" x="80" y="-14.3" font-family="Times,serif" font-size="14.00">?a</text>
</g>
</g>
</svg>
