<?xml version="1.0" encoding="UTF-8" standalone="no"?>
<!DOCTYPE svg PUBLIC "-//W3C//DTD SVG 1.1//EN"
 "http://www.w3.org/Graphics/SVG/1.1/DTD/svg11.dtd">
<!-- Generated by graphviz version 2.43.0 (0)
 -->
<!-- Title: %3 Pages: 1 -->
<svg width="432pt" height="877pt"
 viewBox="0.00 0.00 431.70 877.11" xmlns="http://www.w3.org/2000/svg" xmlns:xlink="http://www.w3.org/1999/xlink">
<g id="graph0" class="graph" transform="scale(1 1) rotate(0) translate(4 873.11)">
<title>%3</title>
<polygon fill="white" stroke="transparent" points="-4,4 -4,-873.11 427.7,-873.11 427.7,4 -4,4"/>
<!-- ENTRY -->
<g id="node1" class="node">
<title>ENTRY</title>
<ellipse fill="black" stroke="black" cx="268.24" cy="-867.31" rx="1.8" ry="1.8"/>
</g>
<!-- 0 -->
<g id="node4" class="node">
<title>0</title>
<ellipse fill="none" stroke="black" cx="268.24" cy="-767" rx="61.54" ry="61.54"/>
<text text-anchor="middle" x="268.24" y="-770.8" font-family="Times,serif" font-size="14.00">0 &lt; Eps.4</text>
<text text-anchor="middle" x="268.24" y="-755.8" font-family="Times,serif" font-size="14.00">Eps.0</text>
</g>
<!-- ENTRY&#45;&gt;0 -->
<g id="edge1" class="edge">
<title>ENTRY&#45;&gt;0</title>
<path fill="none" stroke="black" d="M268.24,-865.21C268.24,-861.92 268.24,-851.58 268.24,-838.82"/>
<polygon fill="black" stroke="black" points="271.74,-838.65 268.24,-828.65 264.74,-838.65 271.74,-838.65"/>
</g>
<!-- 4 -->
<g id="node2" class="node">
<title>4</title>
<ellipse fill="none" stroke="black" cx="327.24" cy="-95.46" rx="95.42" ry="95.42"/>
<text text-anchor="middle" x="327.24" y="-106.76" font-family="Times,serif" font-size="14.00">4 &lt; ({x})*.{y}.4</text>
<text text-anchor="middle" x="327.24" y="-91.76" font-family="Times,serif" font-size="14.00">({x})*.{x}.{x}.3</text>
<text text-anchor="middle" x="327.24" y="-76.76" font-family="Times,serif" font-size="14.00">{x}.3</text>
</g>
<!-- 3 -->
<g id="node6" class="node">
<title>3</title>
<ellipse fill="none" stroke="black" cx="328.24" cy="-349.16" rx="95.42" ry="95.42"/>
<text text-anchor="middle" x="328.24" y="-352.96" font-family="Times,serif" font-size="14.00">3 &lt; ({x})*.{y}.4</text>
<text text-anchor="middle" x="328.24" y="-337.96" font-family="Times,serif" font-size="14.00">({x})*.{x}.{x}.3</text>
</g>
<!-- 4&#45;&gt;3 -->
<g id="edge5" class="edge">
<title>4&#45;&gt;3</title>
<path fill="none" stroke="black" d="M327.62,-191.17C327.68,-208.18 327.76,-225.99 327.82,-243.26"/>
<polygon fill="black" stroke="black" points="324.32,-243.38 327.86,-253.36 331.32,-243.35 324.32,-243.38"/>
<text text-anchor="middle" x="336.24" y="-212.72" font-family="Times,serif" font-size="14.00">!b</text>
</g>
<!-- 2 -->
<g id="node3" class="node">
<title>2</title>
<ellipse fill="none" stroke="black" cx="107.24" cy="-349.16" rx="107.48" ry="107.48"/>
<text text-anchor="middle" x="107.24" y="-345.46" font-family="Times,serif" font-size="14.00">2 &lt; ({x})*.{x}.{x}.1</text>
</g>
<!-- 1 -->
<g id="node5" class="node">
<title>1</title>
<ellipse fill="none" stroke="black" cx="204.24" cy="-580.94" rx="73.58" ry="73.58"/>
<text text-anchor="middle" x="204.24" y="-584.74" font-family="Times,serif" font-size="14.00">1 &lt; ({x})*.1</text>
<text text-anchor="middle" x="204.24" y="-569.74" font-family="Times,serif" font-size="14.00">Eps.5</text>
</g>
<!-- 2&#45;&gt;1 -->
<g id="edge8" class="edge">
<title>2&#45;&gt;1</title>
<path fill="none" stroke="black" d="M152.23,-446.53C156.37,-455.91 160.44,-465.31 164.24,-474.4 167.98,-483.35 171.77,-492.78 175.46,-502.18"/>
<polygon fill="black" stroke="black" points="172.21,-503.49 179.09,-511.54 178.73,-500.95 172.21,-503.49"/>
<text text-anchor="middle" x="178.24" y="-478.2" font-family="Times,serif" font-size="14.00">?x</text>
</g>
<!-- 0&#45;&gt;1 -->
<g id="edge2" class="edge">
<title>0&#45;&gt;1</title>
<path fill="none" stroke="black" d="M248.34,-708.77C243,-693.42 237.14,-676.55 231.48,-660.28"/>
<polygon fill="black" stroke="black" points="234.77,-659.07 228.18,-650.77 228.15,-661.37 234.77,-659.07"/>
<text text-anchor="middle" x="247.74" y="-676.28" font-family="Times,serif" font-size="14.00">!a</text>
</g>
<!-- 1&#45;&gt;2 -->
<g id="edge4" class="edge">
<title>1&#45;&gt;2</title>
<path fill="none" stroke="black" d="M164.23,-518.72C158.78,-509.12 153.58,-499.14 149.24,-489.4 145.39,-480.76 141.76,-471.66 138.38,-462.43"/>
<polygon fill="black" stroke="black" points="141.59,-461.02 134.94,-452.77 135,-463.36 141.59,-461.02"/>
<text text-anchor="middle" x="156.74" y="-478.2" font-family="Times,serif" font-size="14.00">!a</text>
</g>
<!-- 1&#45;&gt;3 -->
<g id="edge6" class="edge">
<title>1&#45;&gt;3</title>
<path fill="none" stroke="black" d="M238.78,-515.93C251.04,-493.22 265.08,-467.19 278.36,-442.59"/>
<polygon fill="black" stroke="black" points="281.54,-444.06 283.21,-433.6 275.38,-440.74 281.54,-444.06"/>
<text text-anchor="middle" x="267.24" y="-478.2" font-family="Times,serif" font-size="14.00">!b</text>
</g>
<!-- 3&#45;&gt;4 -->
<g id="edge7" class="edge">
<title>3&#45;&gt;4</title>
<path fill="none" stroke="black" d="M309.01,-255.46C307.5,-239.95 306.97,-224.01 308.24,-208.92 308.5,-205.86 308.79,-202.76 309.12,-199.63"/>
<polygon fill="black" stroke="black" points="312.61,-199.92 310.27,-189.58 305.66,-199.12 312.61,-199.92"/>
<text text-anchor="middle" x="316.24" y="-212.72" font-family="Times,serif" font-size="14.00">?x</text>
</g>
<!-- 3&#45;&gt;0 -->
<g id="edge3" class="edge">
<title>3&#45;&gt;0</title>
<path fill="none" stroke="black" d="M316.43,-444.19C308.66,-504.39 297.97,-584.12 287.24,-654.48 285.18,-667.99 282.83,-682.4 280.51,-696.22"/>
<polygon fill="black" stroke="black" points="277.05,-695.71 278.83,-706.16 283.95,-696.88 277.05,-695.71"/>
<text text-anchor="middle" x="316.24" y="-577.24" font-family="Times,serif" font-size="14.00">?y</text>
</g>
</g>
</svg>
