<?xml version="1.0" encoding="UTF-8" standalone="no"?>
<!DOCTYPE svg PUBLIC "-//W3C//DTD SVG 1.1//EN"
 "http://www.w3.org/Graphics/SVG/1.1/DTD/svg11.dtd">
<!-- Generated by graphviz version 2.43.0 (0)
 -->
<!-- Title: %3 Pages: 1 -->
<svg width="213pt" height="433pt"
 viewBox="0.00 0.00 213.00 432.60" xmlns="http://www.w3.org/2000/svg" xmlns:xlink="http://www.w3.org/1999/xlink">
<g id="graph0" class="graph" transform="scale(1 1) rotate(0) translate(4 428.6)">
<title>%3</title>
<polygon fill="white" stroke="transparent" points="-4,4 -4,-428.6 209,-428.6 209,4 -4,4"/>
<!-- ENTRY -->
<g id="node1" class="node">
<title>ENTRY</title>
<ellipse fill="black" stroke="black" cx="125" cy="-422.8" rx="1.8" ry="1.8"/>
</g>
<!-- 0 -->
<g id="node2" class="node">
<title>0</title>
<ellipse fill="none" stroke="black" cx="125" cy="-366" rx="18" ry="18"/>
<text text-anchor="middle" x="125" y="-362.3" font-family="Times,serif" font-size="14.00">0</text>
</g>
<!-- ENTRY&#45;&gt;0 -->
<g id="edge1" class="edge">
<title>ENTRY&#45;&gt;0</title>
<path fill="none" stroke="black" d="M125,-420.85C125,-417.49 125,-405.73 125,-394.05"/>
<polygon fill="black" stroke="black" points="128.5,-394.02 125,-384.02 121.5,-394.02 128.5,-394.02"/>
</g>
<!-- 3 -->
<g id="node3" class="node">
<title>3</title>
<ellipse fill="none" stroke="black" cx="50" cy="-279" rx="18" ry="18"/>
<text text-anchor="middle" x="50" y="-275.3" font-family="Times,serif" font-size="14.00">3</text>
</g>
<!-- 0&#45;&gt;3 -->
<g id="edge2" class="edge">
<title>0&#45;&gt;3</title>
<path fill="none" stroke="black" d="M109.39,-356.49C98.96,-350.21 85.46,-340.89 76,-330 69.66,-322.7 64.34,-313.59 60.2,-305.15"/>
<polygon fill="black" stroke="black" points="63.38,-303.67 56.03,-296.04 57.01,-306.59 63.38,-303.67"/>
<text text-anchor="middle" x="84" y="-318.8" font-family="Times,serif" font-size="14.00">!b</text>
</g>
<!-- 1 -->
<g id="node7" class="node">
<title>1</title>
<ellipse fill="none" stroke="black" cx="152" cy="-279" rx="18" ry="18"/>
<text text-anchor="middle" x="152" y="-275.3" font-family="Times,serif" font-size="14.00">1</text>
</g>
<!-- 0&#45;&gt;1 -->
<g id="edge8" class="edge">
<title>0&#45;&gt;1</title>
<path fill="none" stroke="black" d="M130.21,-348.61C134.02,-336.62 139.26,-320.09 143.66,-306.27"/>
<polygon fill="black" stroke="black" points="147.12,-306.93 146.81,-296.34 140.45,-304.81 147.12,-306.93"/>
<text text-anchor="middle" x="147.5" y="-318.8" font-family="Times,serif" font-size="14.00">!a</text>
</g>
<!-- 4 -->
<g id="node4" class="node">
<title>4</title>
<ellipse fill="none" stroke="black" cx="18" cy="-192" rx="18" ry="18"/>
<text text-anchor="middle" x="18" y="-188.3" font-family="Times,serif" font-size="14.00">4</text>
</g>
<!-- 3&#45;&gt;4 -->
<g id="edge3" class="edge">
<title>3&#45;&gt;4</title>
<path fill="none" stroke="black" d="M43.98,-262.01C39.41,-249.86 33.02,-232.9 27.72,-218.83"/>
<polygon fill="black" stroke="black" points="30.9,-217.33 24.1,-209.21 24.35,-219.8 30.9,-217.33"/>
<text text-anchor="middle" x="44" y="-231.8" font-family="Times,serif" font-size="14.00">?y</text>
</g>
<!-- 4&#45;&gt;4 -->
<g id="edge7" class="edge">
<title>4&#45;&gt;4</title>
<path fill="none" stroke="black" d="M34.66,-199.38C44.62,-201.02 54,-198.56 54,-192 54,-187.8 50.15,-185.28 44.77,-184.44"/>
<polygon fill="black" stroke="black" points="44.6,-180.94 34.66,-184.62 44.72,-187.94 44.6,-180.94"/>
<text text-anchor="middle" x="62" y="-188.3" font-family="Times,serif" font-size="14.00">!b</text>
</g>
<!-- 5 -->
<g id="node5" class="node">
<title>5</title>
<ellipse fill="none" stroke="black" cx="50" cy="-105" rx="18" ry="18"/>
<text text-anchor="middle" x="50" y="-101.3" font-family="Times,serif" font-size="14.00">5</text>
</g>
<!-- 4&#45;&gt;5 -->
<g id="edge4" class="edge">
<title>4&#45;&gt;5</title>
<path fill="none" stroke="black" d="M24.02,-175.01C28.59,-162.86 34.98,-145.9 40.28,-131.83"/>
<polygon fill="black" stroke="black" points="43.65,-132.8 43.9,-122.21 37.1,-130.33 43.65,-132.8"/>
<text text-anchor="middle" x="43.5" y="-144.8" font-family="Times,serif" font-size="14.00">!a</text>
</g>
<!-- 6 -->
<g id="node6" class="node">
<title>6</title>
<ellipse fill="none" stroke="black" cx="83" cy="-18" rx="18" ry="18"/>
<text text-anchor="middle" x="83" y="-14.3" font-family="Times,serif" font-size="14.00">6</text>
</g>
<!-- 5&#45;&gt;6 -->
<g id="edge5" class="edge">
<title>5&#45;&gt;6</title>
<path fill="none" stroke="black" d="M56.21,-88.01C60.95,-75.78 67.6,-58.68 73.08,-44.56"/>
<polygon fill="black" stroke="black" points="76.46,-45.51 76.82,-34.92 69.94,-42.97 76.46,-45.51"/>
<text text-anchor="middle" x="77" y="-57.8" font-family="Times,serif" font-size="14.00">?x</text>
</g>
<!-- 6&#45;&gt;0 -->
<g id="edge6" class="edge">
<title>6&#45;&gt;0</title>
<path fill="none" stroke="black" d="M89.9,-34.64C96.68,-51.43 106,-79.08 106,-104 106,-280 106,-280 106,-280 106,-300.29 111.22,-322.65 116.18,-339.35"/>
<polygon fill="black" stroke="black" points="112.86,-340.45 119.2,-348.94 119.54,-338.35 112.86,-340.45"/>
<text text-anchor="middle" x="114" y="-188.3" font-family="Times,serif" font-size="14.00">?x</text>
</g>
<!-- 2 -->
<g id="node8" class="node">
<title>2</title>
<ellipse fill="none" stroke="black" cx="185" cy="-192" rx="18" ry="18"/>
<text text-anchor="middle" x="185" y="-188.3" font-family="Times,serif" font-size="14.00">2</text>
</g>
<!-- 1&#45;&gt;2 -->
<g id="edge9" class="edge">
<title>1&#45;&gt;2</title>
<path fill="none" stroke="black" d="M158.21,-262.01C162.95,-249.78 169.6,-232.68 175.08,-218.56"/>
<polygon fill="black" stroke="black" points="178.46,-219.51 178.82,-208.92 171.94,-216.97 178.46,-219.51"/>
<text text-anchor="middle" x="178" y="-231.8" font-family="Times,serif" font-size="14.00">?x</text>
</g>
<!-- 2&#45;&gt;0 -->
<g id="edge10" class="edge">
<title>2&#45;&gt;0</title>
<path fill="none" stroke="black" d="M187.93,-210.04C188.77,-215.73 189.58,-222.12 190,-228 192.2,-258.98 190.31,-268.08 179,-297 171.63,-315.83 157.16,-333.6 145.05,-346.25"/>
<polygon fill="black" stroke="black" points="142.47,-343.87 137.9,-353.43 147.43,-348.81 142.47,-343.87"/>
<text text-anchor="middle" x="197" y="-275.3" font-family="Times,serif" font-size="14.00">?x</text>
</g>
</g>
</svg>
