<?xml version="1.0" encoding="UTF-8" standalone="no"?>
<!DOCTYPE svg PUBLIC "-//W3C//DTD SVG 1.1//EN"
 "http://www.w3.org/Graphics/SVG/1.1/DTD/svg11.dtd">
<!-- Generated by graphviz version 2.43.0 (0)
 -->
<!-- Title: %3 Pages: 1 -->
<svg width="274pt" height="1054pt"
 viewBox="0.00 0.00 273.55 1053.55" xmlns="http://www.w3.org/2000/svg" xmlns:xlink="http://www.w3.org/1999/xlink">
<g id="graph0" class="graph" transform="scale(1 1) rotate(0) translate(4 1049.55)">
<title>%3</title>
<polygon fill="white" stroke="transparent" points="-4,4 -4,-1049.55 269.55,-1049.55 269.55,4 -4,4"/>
<!-- ENTRY -->
<g id="node1" class="node">
<title>ENTRY</title>
<ellipse fill="black" stroke="black" cx="58.49" cy="-632.42" rx="1.8" ry="1.8"/>
</g>
<!-- 0 -->
<g id="node9" class="node">
<title>0</title>
<ellipse fill="none" stroke="black" cx="58.49" cy="-451.31" rx="56.59" ry="56.59"/>
<text text-anchor="middle" x="58.49" y="-447.61" font-family="Times,serif" font-size="14.00">0 &lt; Eps.0</text>
</g>
<!-- ENTRY&#45;&gt;0 -->
<g id="edge1" class="edge">
<title>ENTRY&#45;&gt;0</title>
<path fill="none" stroke="black" d="M58.49,-630.27C58.49,-621.61 58.49,-565.43 58.49,-518.47"/>
<polygon fill="black" stroke="black" points="61.99,-518.31 58.49,-508.31 54.99,-518.31 61.99,-518.31"/>
</g>
<!-- 5 -->
<g id="node2" class="node">
<title>5</title>
<ellipse fill="none" stroke="black" cx="200.49" cy="-632.42" rx="65.11" ry="65.11"/>
<text text-anchor="middle" x="200.49" y="-636.22" font-family="Times,serif" font-size="14.00">5 &lt; {w}.2</text>
<text text-anchor="middle" x="200.49" y="-621.22" font-family="Times,serif" font-size="14.00">{u}.{w}.2</text>
</g>
<!-- 6 -->
<g id="node7" class="node">
<title>6</title>
<ellipse fill="none" stroke="black" cx="200.49" cy="-451.31" rx="65.11" ry="65.11"/>
<text text-anchor="middle" x="200.49" y="-455.11" font-family="Times,serif" font-size="14.00">6 &lt; {w}.3</text>
<text text-anchor="middle" x="200.49" y="-440.11" font-family="Times,serif" font-size="14.00">{u}.{w}.3</text>
</g>
<!-- 5&#45;&gt;6 -->
<g id="edge8" class="edge">
<title>5&#45;&gt;6</title>
<path fill="none" stroke="black" d="M200.49,-567.26C200.49,-554.14 200.49,-540.23 200.49,-526.79"/>
<polygon fill="black" stroke="black" points="203.99,-526.62 200.49,-516.62 196.99,-526.62 203.99,-526.62"/>
<text text-anchor="middle" x="212.49" y="-538.16" font-family="Times,serif" font-size="14.00">!x2</text>
</g>
<!-- 7 -->
<g id="node3" class="node">
<title>7</title>
<ellipse fill="none" stroke="black" cx="200.49" cy="-270.2" rx="65.11" ry="65.11"/>
<text text-anchor="middle" x="200.49" y="-274" font-family="Times,serif" font-size="14.00">7 &lt; {w}.4</text>
<text text-anchor="middle" x="200.49" y="-259" font-family="Times,serif" font-size="14.00">{u}.{w}.4</text>
</g>
<!-- 2 -->
<g id="node5" class="node">
<title>2</title>
<ellipse fill="none" stroke="red" cx="128.49" cy="-77.07" rx="77.15" ry="77.15"/>
<text text-anchor="middle" x="128.49" y="-80.87" font-family="Times,serif" font-size="14.00">2 &lt; {w}.3</text>
<text text-anchor="middle" x="128.49" y="-65.87" font-family="Times,serif" font-size="14.00">({u})*.{w}.5</text>
</g>
<!-- 7&#45;&gt;2 -->
<g id="edge4" class="edge">
<title>7&#45;&gt;2</title>
<path fill="none" stroke="black" d="M177.81,-208.99C171.85,-193.17 165.32,-175.84 159.02,-159.12"/>
<polygon fill="black" stroke="black" points="162.15,-157.48 155.35,-149.36 155.6,-159.95 162.15,-157.48"/>
<text text-anchor="middle" x="180.49" y="-175.95" font-family="Times,serif" font-size="14.00">!x2</text>
</g>
<!-- 3 -->
<g id="node4" class="node">
<title>3</title>
<ellipse fill="none" stroke="black" cx="200.49" cy="-984.03" rx="61.54" ry="61.54"/>
<text text-anchor="middle" x="200.49" y="-987.83" font-family="Times,serif" font-size="14.00">3 &lt; Eps.3</text>
<text text-anchor="middle" x="200.49" y="-972.83" font-family="Times,serif" font-size="14.00">Eps.5</text>
</g>
<!-- 4 -->
<g id="node6" class="node">
<title>4</title>
<ellipse fill="none" stroke="black" cx="200.49" cy="-809.99" rx="61.54" ry="61.54"/>
<text text-anchor="middle" x="200.49" y="-813.79" font-family="Times,serif" font-size="14.00">4 &lt; {u}.0</text>
<text text-anchor="middle" x="200.49" y="-798.79" font-family="Times,serif" font-size="14.00">Eps.0</text>
</g>
<!-- 3&#45;&gt;4 -->
<g id="edge5" class="edge">
<title>3&#45;&gt;4</title>
<path fill="none" stroke="black" d="M200.49,-922.37C200.49,-909.27 200.49,-895.3 200.49,-881.84"/>
<polygon fill="black" stroke="black" points="203.99,-881.68 200.49,-871.68 196.99,-881.68 203.99,-881.68"/>
<text text-anchor="middle" x="207.49" y="-893.31" font-family="Times,serif" font-size="14.00">!z</text>
</g>
<!-- 4&#45;&gt;5 -->
<g id="edge2" class="edge">
<title>4&#45;&gt;5</title>
<path fill="none" stroke="black" d="M200.49,-748.08C200.49,-735.05 200.49,-721.16 200.49,-707.7"/>
<polygon fill="black" stroke="black" points="203.99,-707.51 200.49,-697.51 196.99,-707.51 203.99,-707.51"/>
<text text-anchor="middle" x="212.49" y="-719.27" font-family="Times,serif" font-size="14.00">!x1</text>
</g>
<!-- 6&#45;&gt;7 -->
<g id="edge3" class="edge">
<title>6&#45;&gt;7</title>
<path fill="none" stroke="black" d="M200.49,-386.15C200.49,-373.04 200.49,-359.13 200.49,-345.68"/>
<polygon fill="black" stroke="black" points="203.99,-345.51 200.49,-335.51 196.99,-345.51 203.99,-345.51"/>
<text text-anchor="middle" x="212.49" y="-357.06" font-family="Times,serif" font-size="14.00">!x1</text>
</g>
<!-- 1 -->
<g id="node8" class="node">
<title>1</title>
<ellipse fill="none" stroke="black" cx="58.49" cy="-270.2" rx="58.49" ry="58.49"/>
<text text-anchor="middle" x="58.49" y="-266.5" font-family="Times,serif" font-size="14.00">1 &lt; {w}.2</text>
</g>
<!-- 1&#45;&gt;2 -->
<g id="edge7" class="edge">
<title>1&#45;&gt;2</title>
<path fill="none" stroke="black" d="M78.37,-214.94C84.73,-197.57 91.92,-177.95 98.82,-159.09"/>
<polygon fill="black" stroke="black" points="102.14,-160.21 102.29,-149.62 95.57,-157.8 102.14,-160.21"/>
<text text-anchor="middle" x="105.49" y="-175.95" font-family="Times,serif" font-size="14.00">!x2</text>
</g>
<!-- 0&#45;&gt;1 -->
<g id="edge6" class="edge">
<title>0&#45;&gt;1</title>
<path fill="none" stroke="black" d="M58.49,-394.62C58.49,-376.95 58.49,-357.21 58.49,-338.79"/>
<polygon fill="black" stroke="black" points="61.99,-338.71 58.49,-328.71 54.99,-338.71 61.99,-338.71"/>
<text text-anchor="middle" x="70.49" y="-357.06" font-family="Times,serif" font-size="14.00">!x1</text>
</g>
</g>
</svg>
