<?xml version="1.0" encoding="UTF-8" standalone="no"?>
<!DOCTYPE svg PUBLIC "-//W3C//DTD SVG 1.1//EN"
 "http://www.w3.org/Graphics/SVG/1.1/DTD/svg11.dtd">
<!-- Generated by graphviz version 2.43.0 (0)
 -->
<!-- Title: %3 Pages: 1 -->
<svg width="97pt" height="694pt"
 viewBox="0.00 0.00 97.00 693.60" xmlns="http://www.w3.org/2000/svg" xmlns:xlink="http://www.w3.org/1999/xlink">
<g id="graph0" class="graph" transform="scale(1 1) rotate(0) translate(4 689.6)">
<title>%3</title>
<polygon fill="white" stroke="transparent" points="-4,4 -4,-689.6 93,-689.6 93,4 -4,4"/>
<!-- ENTRY -->
<g id="node1" class="node">
<title>ENTRY</title>
<ellipse fill="black" stroke="black" cx="47" cy="-683.8" rx="1.8" ry="1.8"/>
</g>
<!-- 0 -->
<g id="node2" class="node">
<title>0</title>
<ellipse fill="none" stroke="black" cx="47" cy="-627" rx="18" ry="18"/>
<text text-anchor="middle" x="47" y="-623.3" font-family="Times,serif" font-size="14.00">0</text>
</g>
<!-- ENTRY&#45;&gt;0 -->
<g id="edge1" class="edge">
<title>ENTRY&#45;&gt;0</title>
<path fill="none" stroke="black" d="M47,-681.85C47,-678.49 47,-666.73 47,-655.05"/>
<polygon fill="black" stroke="black" points="50.5,-655.02 47,-645.02 43.5,-655.02 50.5,-655.02"/>
</g>
<!-- 1 -->
<g id="node3" class="node">
<title>1</title>
<ellipse fill="none" stroke="black" cx="47" cy="-540" rx="18" ry="18"/>
<text text-anchor="middle" x="47" y="-536.3" font-family="Times,serif" font-size="14.00">1</text>
</g>
<!-- 0&#45;&gt;1 -->
<g id="edge2" class="edge">
<title>0&#45;&gt;1</title>
<path fill="none" stroke="black" d="M47,-608.8C47,-597.16 47,-581.55 47,-568.24"/>
<polygon fill="black" stroke="black" points="50.5,-568.18 47,-558.18 43.5,-568.18 50.5,-568.18"/>
<text text-anchor="middle" x="59" y="-579.8" font-family="Times,serif" font-size="14.00">!x1</text>
</g>
<!-- 2 -->
<g id="node4" class="node">
<title>2</title>
<ellipse fill="none" stroke="black" cx="47" cy="-453" rx="18" ry="18"/>
<text text-anchor="middle" x="47" y="-449.3" font-family="Times,serif" font-size="14.00">2</text>
</g>
<!-- 1&#45;&gt;2 -->
<g id="edge3" class="edge">
<title>1&#45;&gt;2</title>
<path fill="none" stroke="black" d="M47,-521.8C47,-510.16 47,-494.55 47,-481.24"/>
<polygon fill="black" stroke="black" points="50.5,-481.18 47,-471.18 43.5,-481.18 50.5,-481.18"/>
<text text-anchor="middle" x="59" y="-492.8" font-family="Times,serif" font-size="14.00">!x2</text>
</g>
<!-- 3 -->
<g id="node5" class="node">
<title>3</title>
<ellipse fill="none" stroke="black" cx="19" cy="-366" rx="18" ry="18"/>
<text text-anchor="middle" x="19" y="-362.3" font-family="Times,serif" font-size="14.00">3</text>
</g>
<!-- 2&#45;&gt;3 -->
<g id="edge4" class="edge">
<title>2&#45;&gt;3</title>
<path fill="none" stroke="black" d="M39.17,-436.58C36.33,-430.58 33.27,-423.57 31,-417 28.44,-409.57 26.22,-401.34 24.41,-393.74"/>
<polygon fill="black" stroke="black" points="27.81,-392.89 22.21,-383.9 20.98,-394.42 27.81,-392.89"/>
<text text-anchor="middle" x="41" y="-405.8" font-family="Times,serif" font-size="14.00">?w</text>
</g>
<!-- 4 -->
<g id="node6" class="node">
<title>4</title>
<ellipse fill="none" stroke="black" cx="18" cy="-279" rx="18" ry="18"/>
<text text-anchor="middle" x="18" y="-275.3" font-family="Times,serif" font-size="14.00">4</text>
</g>
<!-- 3&#45;&gt;4 -->
<g id="edge5" class="edge">
<title>3&#45;&gt;4</title>
<path fill="none" stroke="black" d="M18.8,-347.8C18.66,-336.16 18.48,-320.55 18.32,-307.24"/>
<polygon fill="black" stroke="black" points="21.82,-307.13 18.2,-297.18 14.82,-307.22 21.82,-307.13"/>
<text text-anchor="middle" x="26" y="-318.8" font-family="Times,serif" font-size="14.00">!z</text>
</g>
<!-- 5 -->
<g id="node7" class="node">
<title>5</title>
<ellipse fill="none" stroke="black" cx="19" cy="-192" rx="18" ry="18"/>
<text text-anchor="middle" x="19" y="-188.3" font-family="Times,serif" font-size="14.00">5</text>
</g>
<!-- 4&#45;&gt;5 -->
<g id="edge6" class="edge">
<title>4&#45;&gt;5</title>
<path fill="none" stroke="black" d="M18.2,-260.8C18.34,-249.16 18.52,-233.55 18.68,-220.24"/>
<polygon fill="black" stroke="black" points="22.18,-220.22 18.8,-210.18 15.18,-220.13 22.18,-220.22"/>
<text text-anchor="middle" x="31" y="-231.8" font-family="Times,serif" font-size="14.00">!x1</text>
</g>
<!-- 6 -->
<g id="node8" class="node">
<title>6</title>
<ellipse fill="none" stroke="black" cx="19" cy="-105" rx="18" ry="18"/>
<text text-anchor="middle" x="19" y="-101.3" font-family="Times,serif" font-size="14.00">6</text>
</g>
<!-- 5&#45;&gt;6 -->
<g id="edge7" class="edge">
<title>5&#45;&gt;6</title>
<path fill="none" stroke="black" d="M19,-173.8C19,-162.16 19,-146.55 19,-133.24"/>
<polygon fill="black" stroke="black" points="22.5,-133.18 19,-123.18 15.5,-133.18 22.5,-133.18"/>
<text text-anchor="middle" x="31" y="-144.8" font-family="Times,serif" font-size="14.00">!x2</text>
</g>
<!-- 7 -->
<g id="node9" class="node">
<title>7</title>
<ellipse fill="none" stroke="black" cx="42" cy="-18" rx="18" ry="18"/>
<text text-anchor="middle" x="42" y="-14.3" font-family="Times,serif" font-size="14.00">7</text>
</g>
<!-- 6&#45;&gt;7 -->
<g id="edge8" class="edge">
<title>6&#45;&gt;7</title>
<path fill="none" stroke="black" d="M20.71,-86.65C21.93,-76.92 23.92,-64.64 27,-54 27.99,-50.59 29.22,-47.08 30.55,-43.65"/>
<polygon fill="black" stroke="black" points="33.8,-44.95 34.44,-34.38 27.34,-42.25 33.8,-44.95"/>
<text text-anchor="middle" x="39" y="-57.8" font-family="Times,serif" font-size="14.00">!x1</text>
</g>
<!-- 7&#45;&gt;2 -->
<g id="edge9" class="edge">
<title>7&#45;&gt;2</title>
<path fill="none" stroke="black" d="M48.9,-34.64C55.68,-51.43 65,-79.08 65,-104 65,-367 65,-367 65,-367 65,-387.11 60.12,-409.33 55.44,-426.01"/>
<polygon fill="black" stroke="black" points="52.08,-425.02 52.6,-435.6 58.79,-427.01 52.08,-425.02"/>
<text text-anchor="middle" x="77" y="-231.8" font-family="Times,serif" font-size="14.00">!x2</text>
</g>
</g>
</svg>
