<?xml version="1.0" encoding="UTF-8" standalone="no"?>
<!DOCTYPE svg PUBLIC "-//W3C//DTD SVG 1.1//EN"
 "http://www.w3.org/Graphics/SVG/1.1/DTD/svg11.dtd">
<!-- Generated by graphviz version 2.43.0 (0)
 -->
<!-- Title: %3 Pages: 1 -->
<svg width="121pt" height="1145pt"
 viewBox="0.00 0.00 121.09 1144.93" xmlns="http://www.w3.org/2000/svg" xmlns:xlink="http://www.w3.org/1999/xlink">
<g id="graph0" class="graph" transform="scale(1 1) rotate(0) translate(4 1140.93)">
<title>%3</title>
<polygon fill="white" stroke="transparent" points="-4,4 -4,-1140.93 117.09,-1140.93 117.09,4 -4,4"/>
<!-- ENTRY -->
<g id="node1" class="node">
<title>ENTRY</title>
<ellipse fill="black" stroke="black" cx="56.54" cy="-1135.13" rx="1.8" ry="1.8"/>
</g>
<!-- 0 -->
<g id="node7" class="node">
<title>0</title>
<ellipse fill="none" stroke="black" cx="56.54" cy="-1039.78" rx="56.59" ry="56.59"/>
<text text-anchor="middle" x="56.54" y="-1036.08" font-family="Times,serif" font-size="14.00">0 &lt; Eps.0</text>
</g>
<!-- ENTRY&#45;&gt;0 -->
<g id="edge1" class="edge">
<title>ENTRY&#45;&gt;0</title>
<path fill="none" stroke="black" d="M56.54,-1133.08C56.54,-1129.83 56.54,-1119.33 56.54,-1106.53"/>
<polygon fill="black" stroke="black" points="60.05,-1106.36 56.54,-1096.36 53.05,-1106.36 60.05,-1106.36"/>
</g>
<!-- 6 -->
<g id="node2" class="node">
<title>6</title>
<ellipse fill="none" stroke="black" cx="56.54" cy="-56.54" rx="56.59" ry="56.59"/>
<text text-anchor="middle" x="56.54" y="-52.84" font-family="Times,serif" font-size="14.00">6 &lt; Eps.6</text>
</g>
<!-- 2 -->
<g id="node3" class="node">
<title>2</title>
<ellipse fill="none" stroke="black" cx="56.54" cy="-711.6" rx="56.59" ry="56.59"/>
<text text-anchor="middle" x="56.54" y="-707.9" font-family="Times,serif" font-size="14.00">2 &lt; Eps.2</text>
</g>
<!-- 3 -->
<g id="node8" class="node">
<title>3</title>
<ellipse fill="none" stroke="black" cx="56.54" cy="-548.16" rx="55.79" ry="55.79"/>
<text text-anchor="middle" x="56.54" y="-544.46" font-family="Times,serif" font-size="14.00">3 &lt; {a}.4</text>
</g>
<!-- 2&#45;&gt;3 -->
<g id="edge2" class="edge">
<title>2&#45;&gt;3</title>
<path fill="none" stroke="black" d="M56.54,-655.05C56.54,-641.96 56.54,-627.9 56.54,-614.43"/>
<polygon fill="black" stroke="black" points="60.05,-614.28 56.54,-604.28 53.05,-614.28 60.05,-614.28"/>
<text text-anchor="middle" x="64.54" y="-625.86" font-family="Times,serif" font-size="14.00">!b</text>
</g>
<!-- 5 -->
<g id="node4" class="node">
<title>5</title>
<ellipse fill="none" stroke="black" cx="56.54" cy="-220.63" rx="56.59" ry="56.59"/>
<text text-anchor="middle" x="56.54" y="-216.93" font-family="Times,serif" font-size="14.00">5 &lt; Eps.5</text>
</g>
<!-- 5&#45;&gt;6 -->
<g id="edge6" class="edge">
<title>5&#45;&gt;6</title>
<path fill="none" stroke="black" d="M56.54,-163.85C56.54,-150.79 56.54,-136.76 56.54,-123.3"/>
<polygon fill="black" stroke="black" points="60.05,-123.16 56.54,-113.16 53.05,-123.16 60.05,-123.16"/>
<text text-anchor="middle" x="64.04" y="-134.89" font-family="Times,serif" font-size="14.00">!v</text>
</g>
<!-- 1 -->
<g id="node5" class="node">
<title>1</title>
<ellipse fill="none" stroke="black" cx="56.54" cy="-875.69" rx="56.59" ry="56.59"/>
<text text-anchor="middle" x="56.54" y="-871.99" font-family="Times,serif" font-size="14.00">1 &lt; Eps.1</text>
</g>
<!-- 1&#45;&gt;2 -->
<g id="edge3" class="edge">
<title>1&#45;&gt;2</title>
<path fill="none" stroke="black" d="M56.54,-818.91C56.54,-805.85 56.54,-791.82 56.54,-778.36"/>
<polygon fill="black" stroke="black" points="60.05,-778.22 56.54,-768.22 53.05,-778.22 60.05,-778.22"/>
<text text-anchor="middle" x="64.54" y="-789.95" font-family="Times,serif" font-size="14.00">?y</text>
</g>
<!-- 4 -->
<g id="node6" class="node">
<title>4</title>
<ellipse fill="none" stroke="black" cx="56.54" cy="-384.72" rx="56.59" ry="56.59"/>
<text text-anchor="middle" x="56.54" y="-381.02" font-family="Times,serif" font-size="14.00">4 &lt; Eps.4</text>
</g>
<!-- 4&#45;&gt;5 -->
<g id="edge5" class="edge">
<title>4&#45;&gt;5</title>
<path fill="none" stroke="black" d="M56.54,-327.94C56.54,-314.88 56.54,-300.85 56.54,-287.39"/>
<polygon fill="black" stroke="black" points="60.05,-287.25 56.54,-277.25 53.05,-287.25 60.05,-287.25"/>
<text text-anchor="middle" x="65.04" y="-298.98" font-family="Times,serif" font-size="14.00">?u</text>
</g>
<!-- 0&#45;&gt;1 -->
<g id="edge4" class="edge">
<title>0&#45;&gt;1</title>
<path fill="none" stroke="black" d="M56.54,-983C56.54,-969.94 56.54,-955.91 56.54,-942.45"/>
<polygon fill="black" stroke="black" points="60.05,-942.31 56.54,-932.31 53.05,-942.31 60.05,-942.31"/>
<text text-anchor="middle" x="64.04" y="-954.04" font-family="Times,serif" font-size="14.00">!x</text>
</g>
<!-- 3&#45;&gt;4 -->
<g id="edge7" class="edge">
<title>3&#45;&gt;4</title>
<path fill="none" stroke="black" d="M56.54,-492.06C56.54,-479.03 56.54,-465.01 56.54,-451.55"/>
<polygon fill="black" stroke="black" points="60.05,-451.41 56.54,-441.41 53.05,-451.41 60.05,-451.41"/>
<text text-anchor="middle" x="64.54" y="-463.07" font-family="Times,serif" font-size="14.00">?a</text>
</g>
</g>
</svg>
