<?xml version="1.0" encoding="UTF-8" standalone="no"?>
<!DOCTYPE svg PUBLIC "-//W3C//DTD SVG 1.1//EN"
 "http://www.w3.org/Graphics/SVG/1.1/DTD/svg11.dtd">
<!-- Generated by graphviz version 2.43.0 (0)
 -->
<!-- Title: %3 Pages: 1 -->
<svg width="753pt" height="1402pt"
 viewBox="0.00 0.00 752.79 1401.75" xmlns="http://www.w3.org/2000/svg" xmlns:xlink="http://www.w3.org/1999/xlink">
<g id="graph0" class="graph" transform="scale(1 1) rotate(0) translate(4 1397.75)">
<title>%3</title>
<polygon fill="white" stroke="transparent" points="-4,4 -4,-1397.75 748.79,-1397.75 748.79,4 -4,4"/>
<!-- ENTRY -->
<g id="node1" class="node">
<title>ENTRY</title>
<ellipse fill="black" stroke="black" cx="323.54" cy="-1391.95" rx="1.8" ry="1.8"/>
</g>
<!-- 0 -->
<g id="node12" class="node">
<title>0</title>
<ellipse fill="none" stroke="black" cx="323.54" cy="-1296.61" rx="56.59" ry="56.59"/>
<text text-anchor="middle" x="323.54" y="-1292.91" font-family="Times,serif" font-size="14.00">0 &lt; Eps.0</text>
</g>
<!-- ENTRY&#45;&gt;0 -->
<g id="edge1" class="edge">
<title>ENTRY&#45;&gt;0</title>
<path fill="none" stroke="black" d="M323.54,-1389.9C323.54,-1386.65 323.54,-1376.15 323.54,-1363.35"/>
<polygon fill="black" stroke="black" points="327.05,-1363.19 323.54,-1353.19 320.05,-1363.19 327.05,-1363.19"/>
</g>
<!-- 4 -->
<g id="node2" class="node">
<title>4</title>
<ellipse fill="none" stroke="black" cx="181.54" cy="-718.04" rx="67.76" ry="67.76"/>
<text text-anchor="middle" x="181.54" y="-721.84" font-family="Times,serif" font-size="14.00">4 &lt; {b2}.8</text>
<text text-anchor="middle" x="181.54" y="-706.84" font-family="Times,serif" font-size="14.00">{b1}.6</text>
</g>
<!-- 6 -->
<g id="node7" class="node">
<title>6</title>
<ellipse fill="none" stroke="black" cx="56.54" cy="-466.62" rx="56.59" ry="56.59"/>
<text text-anchor="middle" x="56.54" y="-462.92" font-family="Times,serif" font-size="14.00">6 &lt; Eps.8</text>
</g>
<!-- 4&#45;&gt;6 -->
<g id="edge4" class="edge">
<title>4&#45;&gt;6</title>
<path fill="none" stroke="black" d="M151.45,-656.98C131.65,-617.48 105.86,-566.02 86.16,-526.71"/>
<polygon fill="black" stroke="black" points="89.16,-524.88 81.55,-517.51 82.9,-528.01 89.16,-524.88"/>
<text text-anchor="middle" x="132.54" y="-581.36" font-family="Times,serif" font-size="14.00">?b2</text>
</g>
<!-- 5 -->
<g id="node10" class="node">
<title>5</title>
<ellipse fill="none" stroke="black" cx="187.54" cy="-466.62" rx="56.59" ry="56.59"/>
<text text-anchor="middle" x="187.54" y="-462.92" font-family="Times,serif" font-size="14.00">5 &lt; Eps.6</text>
</g>
<!-- 4&#45;&gt;5 -->
<g id="edge12" class="edge">
<title>4&#45;&gt;5</title>
<path fill="none" stroke="black" d="M183.16,-649.87C184.03,-613.89 185.09,-569.72 185.95,-533.88"/>
<polygon fill="black" stroke="black" points="189.46,-533.6 186.2,-523.52 182.46,-533.43 189.46,-533.6"/>
<text text-anchor="middle" x="198.54" y="-581.36" font-family="Times,serif" font-size="14.00">?b1</text>
</g>
<!-- 2 -->
<g id="node3" class="node">
<title>2</title>
<ellipse fill="none" stroke="black" cx="323.54" cy="-718.04" rx="56.59" ry="56.59"/>
<text text-anchor="middle" x="323.54" y="-714.34" font-family="Times,serif" font-size="14.00">2 &lt; {b}.3</text>
</g>
<!-- 3 -->
<g id="node4" class="node">
<title>3</title>
<ellipse fill="none" stroke="black" cx="323.54" cy="-466.62" rx="56.59" ry="56.59"/>
<text text-anchor="middle" x="323.54" y="-462.92" font-family="Times,serif" font-size="14.00">3 &lt; Eps.3</text>
</g>
<!-- 2&#45;&gt;3 -->
<g id="edge9" class="edge">
<title>2&#45;&gt;3</title>
<path fill="none" stroke="black" d="M323.54,-661.37C323.54,-623.6 323.54,-573.49 323.54,-533.69"/>
<polygon fill="black" stroke="black" points="327.05,-533.54 323.54,-523.54 320.05,-533.54 327.05,-533.54"/>
<text text-anchor="middle" x="332.04" y="-581.36" font-family="Times,serif" font-size="14.00">?b</text>
</g>
<!-- 9 -->
<g id="node5" class="node">
<title>9</title>
<ellipse fill="none" stroke="black" cx="497.54" cy="-255.08" rx="67.69" ry="67.69"/>
<text text-anchor="middle" x="497.54" y="-251.38" font-family="Times,serif" font-size="14.00">9 &lt; {c3}.13</text>
</g>
<!-- 10 -->
<g id="node8" class="node">
<title>10</title>
<ellipse fill="none" stroke="black" cx="497.54" cy="-68.24" rx="68.49" ry="68.49"/>
<text text-anchor="middle" x="497.54" y="-64.54" font-family="Times,serif" font-size="14.00">10 &lt; Eps.13</text>
</g>
<!-- 9&#45;&gt;10 -->
<g id="edge11" class="edge">
<title>9&#45;&gt;10</title>
<path fill="none" stroke="black" d="M497.54,-187.35C497.54,-174.17 497.54,-160.22 497.54,-146.72"/>
<polygon fill="black" stroke="black" points="501.05,-146.5 497.54,-136.5 494.05,-146.5 501.05,-146.5"/>
<text text-anchor="middle" x="510.04" y="-158.29" font-family="Times,serif" font-size="14.00">?c3</text>
</g>
<!-- 8 -->
<g id="node6" class="node">
<title>8</title>
<ellipse fill="none" stroke="black" cx="497.54" cy="-466.62" rx="92.88" ry="92.88"/>
<text text-anchor="middle" x="497.54" y="-462.92" font-family="Times,serif" font-size="14.00">8 &lt; {c2}.{c3}.13</text>
</g>
<!-- 8&#45;&gt;9 -->
<g id="edge5" class="edge">
<title>8&#45;&gt;9</title>
<path fill="none" stroke="black" d="M497.54,-373.41C497.54,-359.98 497.54,-346.27 497.54,-333.18"/>
<polygon fill="black" stroke="black" points="501.05,-332.84 497.54,-322.84 494.05,-332.84 501.05,-332.84"/>
<text text-anchor="middle" x="510.04" y="-344.48" font-family="Times,serif" font-size="14.00">?c2</text>
</g>
<!-- 11 -->
<g id="node9" class="node">
<title>11</title>
<ellipse fill="none" stroke="black" cx="676.54" cy="-466.62" rx="68.49" ry="68.49"/>
<text text-anchor="middle" x="676.54" y="-462.92" font-family="Times,serif" font-size="14.00">11 &lt; Eps.15</text>
</g>
<!-- 7 -->
<g id="node11" class="node">
<title>7</title>
<ellipse fill="none" stroke="black" cx="505.54" cy="-718.04" rx="107.46" ry="107.46"/>
<text text-anchor="middle" x="505.54" y="-721.84" font-family="Times,serif" font-size="14.00">7 &lt; {a1}.15</text>
<text text-anchor="middle" x="505.54" y="-706.84" font-family="Times,serif" font-size="14.00">{c1}.{c2}.{c3}.13</text>
</g>
<!-- 7&#45;&gt;8 -->
<g id="edge10" class="edge">
<title>7&#45;&gt;8</title>
<path fill="none" stroke="black" d="M502.13,-610.54C501.7,-597.03 501.25,-583.24 500.82,-569.8"/>
<polygon fill="black" stroke="black" points="504.31,-569.49 500.5,-559.61 497.32,-569.71 504.31,-569.49"/>
<text text-anchor="middle" x="514.04" y="-581.36" font-family="Times,serif" font-size="14.00">?c1</text>
</g>
<!-- 7&#45;&gt;11 -->
<g id="edge7" class="edge">
<title>7&#45;&gt;11</title>
<path fill="none" stroke="black" d="M566.07,-628.75C587.94,-596.86 612.18,-561.5 632.38,-532.04"/>
<polygon fill="black" stroke="black" points="635.47,-533.72 638.24,-523.49 629.7,-529.76 635.47,-533.72"/>
<text text-anchor="middle" x="609.04" y="-581.36" font-family="Times,serif" font-size="14.00">?a1</text>
</g>
<!-- 1 -->
<g id="node13" class="node">
<title>1</title>
<ellipse fill="none" stroke="black" cx="323.54" cy="-1032.79" rx="156.04" ry="156.04"/>
<text text-anchor="middle" x="323.54" y="-1059.09" font-family="Times,serif" font-size="14.00">1 &lt; {a3}.{c1}.{c2}.{c3}.13</text>
<text text-anchor="middle" x="323.54" y="-1044.09" font-family="Times,serif" font-size="14.00">{a2}.{b1}.6</text>
<text text-anchor="middle" x="323.54" y="-1029.09" font-family="Times,serif" font-size="14.00">{a1}.{b}.3</text>
<text text-anchor="middle" x="323.54" y="-1014.09" font-family="Times,serif" font-size="14.00">{a2}.{b2}.8</text>
<text text-anchor="middle" x="323.54" y="-999.09" font-family="Times,serif" font-size="14.00">{a3}.{a1}.15</text>
</g>
<!-- 0&#45;&gt;1 -->
<g id="edge8" class="edge">
<title>0&#45;&gt;1</title>
<path fill="none" stroke="black" d="M323.54,-1239.76C323.54,-1227.38 323.54,-1213.64 323.54,-1199.3"/>
<polygon fill="black" stroke="black" points="327.05,-1199.29 323.54,-1189.29 320.05,-1199.29 327.05,-1199.29"/>
<text text-anchor="middle" x="331.04" y="-1210.86" font-family="Times,serif" font-size="14.00">!x</text>
</g>
<!-- 1&#45;&gt;4 -->
<g id="edge6" class="edge">
<title>1&#45;&gt;4</title>
<path fill="none" stroke="black" d="M259.19,-890.06C243.37,-855.2 227.1,-819.37 213.56,-789.56"/>
<polygon fill="black" stroke="black" points="216.59,-787.77 209.27,-780.11 210.22,-790.66 216.59,-787.77"/>
<text text-anchor="middle" x="257.04" y="-847.32" font-family="Times,serif" font-size="14.00">?a2</text>
</g>
<!-- 1&#45;&gt;2 -->
<g id="edge3" class="edge">
<title>1&#45;&gt;2</title>
<path fill="none" stroke="black" d="M323.54,-876.33C323.54,-843.98 323.54,-811.57 323.54,-784.65"/>
<polygon fill="black" stroke="black" points="327.05,-784.62 323.54,-774.62 320.05,-784.62 327.05,-784.62"/>
<text text-anchor="middle" x="336.04" y="-847.32" font-family="Times,serif" font-size="14.00">?a1</text>
</g>
<!-- 1&#45;&gt;7 -->
<g id="edge2" class="edge">
<title>1&#45;&gt;7</title>
<path fill="none" stroke="black" d="M401.79,-897.34C416.8,-871.54 432.29,-844.92 446.57,-820.38"/>
<polygon fill="black" stroke="black" points="449.77,-821.84 451.78,-811.43 443.72,-818.32 449.77,-821.84"/>
<text text-anchor="middle" x="444.04" y="-847.32" font-family="Times,serif" font-size="14.00">?a3</text>
</g>
</g>
</svg>
