<?xml version="1.0" encoding="UTF-8" standalone="no"?>
<!DOCTYPE svg PUBLIC "-//W3C//DTD SVG 1.1//EN"
 "http://www.w3.org/Graphics/SVG/1.1/DTD/svg11.dtd">
<!-- Generated by graphviz version 2.43.0 (0)
 -->
<!-- Title: %3 Pages: 1 -->
<svg width="279pt" height="558pt"
 viewBox="0.00 0.00 278.75 557.58" xmlns="http://www.w3.org/2000/svg" xmlns:xlink="http://www.w3.org/1999/xlink">
<g id="graph0" class="graph" transform="scale(1 1) rotate(0) translate(4 553.58)">
<title>%3</title>
<polygon fill="white" stroke="transparent" points="-4,4 -4,-553.58 274.75,-553.58 274.75,4 -4,4"/>
<!-- ENTRY -->
<g id="node1" class="node">
<title>ENTRY</title>
<ellipse fill="black" stroke="black" cx="159.75" cy="-547.78" rx="1.8" ry="1.8"/>
</g>
<!-- 0 -->
<g id="node2" class="node">
<title>0</title>
<ellipse fill="none" stroke="black" cx="159.75" cy="-490.98" rx="18" ry="18"/>
<text text-anchor="middle" x="159.75" y="-487.28" font-family="Times,serif" font-size="14.00">0</text>
</g>
<!-- ENTRY&#45;&gt;0 -->
<g id="edge1" class="edge">
<title>ENTRY&#45;&gt;0</title>
<path fill="none" stroke="black" d="M159.75,-545.83C159.75,-542.47 159.75,-530.71 159.75,-519.03"/>
<polygon fill="black" stroke="black" points="163.25,-519.01 159.75,-509.01 156.25,-519.01 163.25,-519.01"/>
</g>
<!-- 9 -->
<g id="node3" class="node">
<title>9</title>
<ellipse fill="none" stroke="black" cx="85.75" cy="-403.98" rx="18" ry="18"/>
<text text-anchor="middle" x="85.75" y="-400.28" font-family="Times,serif" font-size="14.00">9</text>
</g>
<!-- 0&#45;&gt;9 -->
<g id="edge2" class="edge">
<title>0&#45;&gt;9</title>
<path fill="none" stroke="black" d="M148.19,-476.7C136.35,-463.1 117.77,-441.77 103.96,-425.9"/>
<polygon fill="black" stroke="black" points="106.44,-423.42 97.23,-418.17 101.16,-428.01 106.44,-423.42"/>
<text text-anchor="middle" x="140.25" y="-443.78" font-family="Times,serif" font-size="14.00">?a3</text>
</g>
<!-- 4 -->
<g id="node10" class="node">
<title>4</title>
<ellipse fill="none" stroke="black" cx="159.75" cy="-403.98" rx="18" ry="18"/>
<text text-anchor="middle" x="159.75" y="-400.28" font-family="Times,serif" font-size="14.00">4</text>
</g>
<!-- 0&#45;&gt;4 -->
<g id="edge9" class="edge">
<title>0&#45;&gt;4</title>
<path fill="none" stroke="black" d="M159.75,-472.78C159.75,-461.15 159.75,-445.53 159.75,-432.22"/>
<polygon fill="black" stroke="black" points="163.25,-432.16 159.75,-422.16 156.25,-432.16 163.25,-432.16"/>
<text text-anchor="middle" x="172.25" y="-443.78" font-family="Times,serif" font-size="14.00">?a2</text>
</g>
<!-- 1 -->
<g id="node15" class="node">
<title>1</title>
<ellipse fill="none" stroke="black" cx="235.75" cy="-403.98" rx="18" ry="18"/>
<text text-anchor="middle" x="235.75" y="-400.28" font-family="Times,serif" font-size="14.00">1</text>
</g>
<!-- 0&#45;&gt;1 -->
<g id="edge14" class="edge">
<title>0&#45;&gt;1</title>
<path fill="none" stroke="black" d="M171.29,-477.07C183.45,-463.47 202.8,-441.83 217.13,-425.81"/>
<polygon fill="black" stroke="black" points="220.04,-427.8 224.1,-418.02 214.82,-423.14 220.04,-427.8"/>
<text text-anchor="middle" x="215.25" y="-443.78" font-family="Times,serif" font-size="14.00">?a1</text>
</g>
<!-- 14 -->
<g id="node4" class="node">
<title>14</title>
<ellipse fill="none" stroke="black" cx="22.75" cy="-312.24" rx="23" ry="23"/>
<text text-anchor="middle" x="22.75" y="-308.54" font-family="Times,serif" font-size="14.00">14</text>
</g>
<!-- 9&#45;&gt;14 -->
<g id="edge3" class="edge">
<title>9&#45;&gt;14</title>
<path fill="none" stroke="black" d="M74.29,-390.03C68.77,-383.57 62.19,-375.54 56.75,-367.98 50.64,-359.49 44.45,-349.9 39.07,-341.14"/>
<polygon fill="black" stroke="black" points="41.95,-339.14 33.78,-332.4 35.96,-342.77 41.95,-339.14"/>
<text text-anchor="middle" x="69.25" y="-356.78" font-family="Times,serif" font-size="14.00">?a1</text>
</g>
<!-- 10 -->
<g id="node6" class="node">
<title>10</title>
<ellipse fill="none" stroke="black" cx="85.75" cy="-312.24" rx="23" ry="23"/>
<text text-anchor="middle" x="85.75" y="-308.54" font-family="Times,serif" font-size="14.00">10</text>
</g>
<!-- 9&#45;&gt;10 -->
<g id="edge5" class="edge">
<title>9&#45;&gt;10</title>
<path fill="none" stroke="black" d="M85.75,-385.68C85.75,-374.35 85.75,-359.18 85.75,-345.65"/>
<polygon fill="black" stroke="black" points="89.25,-345.26 85.75,-335.26 82.25,-345.26 89.25,-345.26"/>
<text text-anchor="middle" x="98.25" y="-356.78" font-family="Times,serif" font-size="14.00">?c1</text>
</g>
<!-- 15 -->
<g id="node5" class="node">
<title>15</title>
<ellipse fill="none" stroke="black" cx="22.75" cy="-215.74" rx="23" ry="23"/>
<text text-anchor="middle" x="22.75" y="-212.04" font-family="Times,serif" font-size="14.00">15</text>
</g>
<!-- 14&#45;&gt;15 -->
<g id="edge4" class="edge">
<title>14&#45;&gt;15</title>
<path fill="none" stroke="black" d="M22.75,-289.32C22.75,-277.27 22.75,-262.11 22.75,-248.76"/>
<polygon fill="black" stroke="black" points="26.25,-248.54 22.75,-238.54 19.25,-248.54 26.25,-248.54"/>
<text text-anchor="middle" x="30.25" y="-260.29" font-family="Times,serif" font-size="14.00">!x</text>
</g>
<!-- 11 -->
<g id="node7" class="node">
<title>11</title>
<ellipse fill="none" stroke="black" cx="85.75" cy="-215.74" rx="23" ry="23"/>
<text text-anchor="middle" x="85.75" y="-212.04" font-family="Times,serif" font-size="14.00">11</text>
</g>
<!-- 10&#45;&gt;11 -->
<g id="edge6" class="edge">
<title>10&#45;&gt;11</title>
<path fill="none" stroke="black" d="M85.75,-289.32C85.75,-277.27 85.75,-262.11 85.75,-248.76"/>
<polygon fill="black" stroke="black" points="89.25,-248.54 85.75,-238.54 82.25,-248.54 89.25,-248.54"/>
<text text-anchor="middle" x="98.25" y="-260.29" font-family="Times,serif" font-size="14.00">?c2</text>
</g>
<!-- 12 -->
<g id="node8" class="node">
<title>12</title>
<ellipse fill="none" stroke="black" cx="85.75" cy="-119.24" rx="23" ry="23"/>
<text text-anchor="middle" x="85.75" y="-115.54" font-family="Times,serif" font-size="14.00">12</text>
</g>
<!-- 11&#45;&gt;12 -->
<g id="edge7" class="edge">
<title>11&#45;&gt;12</title>
<path fill="none" stroke="black" d="M85.75,-192.82C85.75,-180.78 85.75,-165.61 85.75,-152.26"/>
<polygon fill="black" stroke="black" points="89.25,-152.04 85.75,-142.04 82.25,-152.04 89.25,-152.04"/>
<text text-anchor="middle" x="98.25" y="-163.79" font-family="Times,serif" font-size="14.00">?c3</text>
</g>
<!-- 13 -->
<g id="node9" class="node">
<title>13</title>
<ellipse fill="none" stroke="black" cx="85.75" cy="-22.75" rx="23" ry="23"/>
<text text-anchor="middle" x="85.75" y="-19.05" font-family="Times,serif" font-size="14.00">13</text>
</g>
<!-- 12&#45;&gt;13 -->
<g id="edge8" class="edge">
<title>12&#45;&gt;13</title>
<path fill="none" stroke="black" d="M85.75,-96.33C85.75,-84.28 85.75,-69.12 85.75,-55.77"/>
<polygon fill="black" stroke="black" points="89.25,-55.55 85.75,-45.55 82.25,-55.55 89.25,-55.55"/>
<text text-anchor="middle" x="93.25" y="-67.3" font-family="Times,serif" font-size="14.00">!x</text>
</g>
<!-- 7 -->
<g id="node11" class="node">
<title>7</title>
<ellipse fill="none" stroke="black" cx="144.75" cy="-312.24" rx="18" ry="18"/>
<text text-anchor="middle" x="144.75" y="-308.54" font-family="Times,serif" font-size="14.00">7</text>
</g>
<!-- 4&#45;&gt;7 -->
<g id="edge10" class="edge">
<title>4&#45;&gt;7</title>
<path fill="none" stroke="black" d="M153.8,-386.8C151.88,-380.95 149.94,-374.24 148.75,-367.98 147.07,-359.2 146.08,-349.5 145.51,-340.73"/>
<polygon fill="black" stroke="black" points="149,-340.44 144.99,-330.63 142.01,-340.8 149,-340.44"/>
<text text-anchor="middle" x="161.75" y="-356.78" font-family="Times,serif" font-size="14.00">?b2</text>
</g>
<!-- 5 -->
<g id="node13" class="node">
<title>5</title>
<ellipse fill="none" stroke="black" cx="198.75" cy="-312.24" rx="18" ry="18"/>
<text text-anchor="middle" x="198.75" y="-308.54" font-family="Times,serif" font-size="14.00">5</text>
</g>
<!-- 4&#45;&gt;5 -->
<g id="edge12" class="edge">
<title>4&#45;&gt;5</title>
<path fill="none" stroke="black" d="M166.72,-386.94C172.54,-373.54 180.95,-354.19 187.69,-338.68"/>
<polygon fill="black" stroke="black" points="191.06,-339.71 191.84,-329.14 184.64,-336.92 191.06,-339.71"/>
<text text-anchor="middle" x="193.75" y="-356.78" font-family="Times,serif" font-size="14.00">?b1</text>
</g>
<!-- 8 -->
<g id="node12" class="node">
<title>8</title>
<ellipse fill="none" stroke="black" cx="144.75" cy="-215.74" rx="18" ry="18"/>
<text text-anchor="middle" x="144.75" y="-212.04" font-family="Times,serif" font-size="14.00">8</text>
</g>
<!-- 7&#45;&gt;8 -->
<g id="edge11" class="edge">
<title>7&#45;&gt;8</title>
<path fill="none" stroke="black" d="M144.75,-293.9C144.75,-280.05 144.75,-260.37 144.75,-244.35"/>
<polygon fill="black" stroke="black" points="148.25,-243.96 144.75,-233.96 141.25,-243.96 148.25,-243.96"/>
<text text-anchor="middle" x="152.25" y="-260.29" font-family="Times,serif" font-size="14.00">!x</text>
</g>
<!-- 6 -->
<g id="node14" class="node">
<title>6</title>
<ellipse fill="none" stroke="black" cx="198.75" cy="-215.74" rx="18" ry="18"/>
<text text-anchor="middle" x="198.75" y="-212.04" font-family="Times,serif" font-size="14.00">6</text>
</g>
<!-- 5&#45;&gt;6 -->
<g id="edge13" class="edge">
<title>5&#45;&gt;6</title>
<path fill="none" stroke="black" d="M198.75,-293.9C198.75,-280.05 198.75,-260.37 198.75,-244.35"/>
<polygon fill="black" stroke="black" points="202.25,-243.96 198.75,-233.96 195.25,-243.96 202.25,-243.96"/>
<text text-anchor="middle" x="206.25" y="-260.29" font-family="Times,serif" font-size="14.00">!x</text>
</g>
<!-- 2 -->
<g id="node16" class="node">
<title>2</title>
<ellipse fill="none" stroke="black" cx="252.75" cy="-312.24" rx="18" ry="18"/>
<text text-anchor="middle" x="252.75" y="-308.54" font-family="Times,serif" font-size="14.00">2</text>
</g>
<!-- 1&#45;&gt;2 -->
<g id="edge15" class="edge">
<title>1&#45;&gt;2</title>
<path fill="none" stroke="black" d="M238.95,-386.1C241.39,-373.19 244.81,-355.13 247.64,-340.22"/>
<polygon fill="black" stroke="black" points="251.14,-340.52 249.56,-330.04 244.26,-339.21 251.14,-340.52"/>
<text text-anchor="middle" x="254.25" y="-356.78" font-family="Times,serif" font-size="14.00">?b</text>
</g>
<!-- 3 -->
<g id="node17" class="node">
<title>3</title>
<ellipse fill="none" stroke="black" cx="252.75" cy="-215.74" rx="18" ry="18"/>
<text text-anchor="middle" x="252.75" y="-212.04" font-family="Times,serif" font-size="14.00">3</text>
</g>
<!-- 2&#45;&gt;3 -->
<g id="edge16" class="edge">
<title>2&#45;&gt;3</title>
<path fill="none" stroke="black" d="M252.75,-293.9C252.75,-280.05 252.75,-260.37 252.75,-244.35"/>
<polygon fill="black" stroke="black" points="256.25,-243.96 252.75,-233.96 249.25,-243.96 256.25,-243.96"/>
<text text-anchor="middle" x="260.25" y="-260.29" font-family="Times,serif" font-size="14.00">!x</text>
</g>
</g>
</svg>
