<?xml version="1.0" encoding="UTF-8" standalone="no"?>
<!DOCTYPE svg PUBLIC "-//W3C//DTD SVG 1.1//EN"
 "http://www.w3.org/Graphics/SVG/1.1/DTD/svg11.dtd">
<!-- Generated by graphviz version 2.43.0 (0)
 -->
<!-- Title: %3 Pages: 1 -->
<svg width="121pt" height="324pt"
 viewBox="0.00 0.00 121.09 324.48" xmlns="http://www.w3.org/2000/svg" xmlns:xlink="http://www.w3.org/1999/xlink">
<g id="graph0" class="graph" transform="scale(1 1) rotate(0) translate(4 320.48)">
<title>%3</title>
<polygon fill="white" stroke="transparent" points="-4,4 -4,-320.48 117.09,-320.48 117.09,4 -4,4"/>
<!-- ENTRY -->
<g id="node1" class="node">
<title>ENTRY</title>
<ellipse fill="black" stroke="black" cx="56.54" cy="-314.68" rx="1.8" ry="1.8"/>
</g>
<!-- 0 -->
<g id="node3" class="node">
<title>0</title>
<ellipse fill="none" stroke="black" cx="56.54" cy="-219.34" rx="56.59" ry="56.59"/>
<text text-anchor="middle" x="56.54" y="-215.64" font-family="Times,serif" font-size="14.00">0 &lt; Eps.0</text>
</g>
<!-- ENTRY&#45;&gt;0 -->
<g id="edge1" class="edge">
<title>ENTRY&#45;&gt;0</title>
<path fill="none" stroke="black" d="M56.54,-312.63C56.54,-309.38 56.54,-298.88 56.54,-286.08"/>
<polygon fill="black" stroke="black" points="60.05,-285.91 56.54,-275.91 53.05,-285.91 60.05,-285.91"/>
</g>
<!-- 1 -->
<g id="node2" class="node">
<title>1</title>
<ellipse fill="none" stroke="red" cx="56.54" cy="-55.9" rx="55.79" ry="55.79"/>
<text text-anchor="middle" x="56.54" y="-52.2" font-family="Times,serif" font-size="14.00">1 &lt; {x}.2</text>
</g>
<!-- 0&#45;&gt;1 -->
<g id="edge2" class="edge">
<title>0&#45;&gt;1</title>
<path fill="none" stroke="black" d="M56.54,-162.78C56.54,-149.69 56.54,-135.63 56.54,-122.16"/>
<polygon fill="black" stroke="black" points="60.05,-122.01 56.54,-112.01 53.05,-122.01 60.05,-122.01"/>
<text text-anchor="middle" x="64.04" y="-133.59" font-family="Times,serif" font-size="14.00">!a</text>
</g>
</g>
</svg>
