<?xml version="1.0" encoding="UTF-8" standalone="no"?>
<!DOCTYPE svg PUBLIC "-//W3C//DTD SVG 1.1//EN"
 "http://www.w3.org/Graphics/SVG/1.1/DTD/svg11.dtd">
<!-- Generated by graphviz version 2.43.0 (0)
 -->
<!-- Title: %3 Pages: 1 -->
<svg width="1206pt" height="1201pt"
 viewBox="0.00 0.00 1206.34 1200.64" xmlns="http://www.w3.org/2000/svg" xmlns:xlink="http://www.w3.org/1999/xlink">
<g id="graph0" class="graph" transform="scale(1 1) rotate(0) translate(4 1196.64)">
<title>%3</title>
<polygon fill="white" stroke="transparent" points="-4,4 -4,-1196.64 1202.34,-1196.64 1202.34,4 -4,4"/>
<!-- ENTRY -->
<g id="node1" class="node">
<title>ENTRY</title>
<ellipse fill="black" stroke="black" cx="581.14" cy="-1190.84" rx="1.8" ry="1.8"/>
</g>
<!-- 0 -->
<g id="node2" class="node">
<title>0</title>
<ellipse fill="none" stroke="black" cx="581.14" cy="-1075.99" rx="76.09" ry="76.09"/>
<text text-anchor="middle" x="581.14" y="-1072.29" font-family="Times,serif" font-size="14.00">0 &lt; ({b,a})*.0</text>
</g>
<!-- ENTRY&#45;&gt;0 -->
<g id="edge1" class="edge">
<title>ENTRY&#45;&gt;0</title>
<path fill="none" stroke="black" d="M581.14,-1188.57C581.14,-1185.15 581.14,-1175.15 581.14,-1162.45"/>
<polygon fill="black" stroke="black" points="584.64,-1162.28 581.14,-1152.28 577.64,-1162.28 584.64,-1162.28"/>
</g>
<!-- 1 -->
<g id="node3" class="node">
<title>1</title>
<ellipse fill="none" stroke="black" cx="581.14" cy="-811.81" rx="137.28" ry="137.28"/>
<text text-anchor="middle" x="581.14" y="-808.11" font-family="Times,serif" font-size="14.00">1 &lt; ({b,a})*.{b}.{a}.{b}.4</text>
</g>
<!-- 0&#45;&gt;1 -->
<g id="edge7" class="edge">
<title>0&#45;&gt;1</title>
<path fill="none" stroke="black" d="M581.14,-999.86C581.14,-987.08 581.14,-973.42 581.14,-959.52"/>
<polygon fill="black" stroke="black" points="584.64,-959.37 581.14,-949.37 577.64,-959.37 584.64,-959.37"/>
<text text-anchor="middle" x="588.64" y="-970.75" font-family="Times,serif" font-size="14.00">!x</text>
</g>
<!-- 2 -->
<g id="node5" class="node">
<title>2</title>
<ellipse fill="none" stroke="black" cx="444.14" cy="-486.54" rx="137.28" ry="137.28"/>
<text text-anchor="middle" x="444.14" y="-482.84" font-family="Times,serif" font-size="14.00">2 &lt; ({b,a})*.{b}.{a}.{b}.4</text>
</g>
<!-- 1&#45;&gt;2 -->
<g id="edge2" class="edge">
<title>1&#45;&gt;2</title>
<path fill="none" stroke="black" d="M527.97,-685.36C519.23,-664.72 510.13,-643.25 501.29,-622.4"/>
<polygon fill="black" stroke="black" points="504.51,-621.02 497.38,-613.18 498.06,-623.76 504.51,-621.02"/>
<text text-anchor="middle" x="521.14" y="-645.47" font-family="Times,serif" font-size="14.00">?a</text>
</g>
<!-- 5 -->
<g id="node7" class="node">
<title>5</title>
<ellipse fill="none" stroke="black" cx="727.14" cy="-486.54" rx="127.97" ry="127.97"/>
<text text-anchor="middle" x="727.14" y="-490.34" font-family="Times,serif" font-size="14.00">5 &lt; {a}.{b}.4</text>
<text text-anchor="middle" x="727.14" y="-475.34" font-family="Times,serif" font-size="14.00">({b,a})*.{b}.{a}.{b}.4</text>
</g>
<!-- 1&#45;&gt;5 -->
<g id="edge11" class="edge">
<title>1&#45;&gt;5</title>
<path fill="none" stroke="black" d="M637.38,-686.29C648.27,-662.16 659.7,-636.86 670.61,-612.71"/>
<polygon fill="black" stroke="black" points="673.83,-614.07 674.76,-603.51 667.45,-611.19 673.83,-614.07"/>
<text text-anchor="middle" x="662.64" y="-645.47" font-family="Times,serif" font-size="14.00">?b</text>
</g>
<!-- 6 -->
<g id="node4" class="node">
<title>6</title>
<ellipse fill="none" stroke="black" cx="733.14" cy="-149.2" rx="149.4" ry="149.4"/>
<text text-anchor="middle" x="733.14" y="-153" font-family="Times,serif" font-size="14.00">6 &lt; ({b,a})*.{b}.{a}.{b}.5</text>
<text text-anchor="middle" x="733.14" y="-138" font-family="Times,serif" font-size="14.00">{a}.{b}.5</text>
</g>
<!-- 6&#45;&gt;0 -->
<g id="edge12" class="edge">
<title>6&#45;&gt;0</title>
<path fill="none" stroke="black" d="M837.33,-256.71C850.34,-275.35 861.68,-295.51 869.14,-316.4 915.06,-445.03 892.33,-490.03 864.14,-623.67 831.76,-777.16 819.38,-822.07 727.14,-948.95 706.26,-977.67 677.63,-1004.22 651.25,-1025.47"/>
<polygon fill="black" stroke="black" points="648.81,-1022.94 643.15,-1031.9 653.16,-1028.43 648.81,-1022.94"/>
<text text-anchor="middle" x="868.14" y="-645.47" font-family="Times,serif" font-size="14.00">!u</text>
</g>
<!-- 3 -->
<g id="node6" class="node">
<title>3</title>
<ellipse fill="none" stroke="black" cx="137.14" cy="-149.2" rx="137.28" ry="137.28"/>
<text text-anchor="middle" x="137.14" y="-145.5" font-family="Times,serif" font-size="14.00">3 &lt; ({b,a})*.{b}.{a}.{b}.5</text>
</g>
<!-- 2&#45;&gt;3 -->
<g id="edge8" class="edge">
<title>2&#45;&gt;3</title>
<path fill="none" stroke="black" d="M352.03,-384.92C315.53,-345.06 273.49,-299.14 236.33,-258.55"/>
<polygon fill="black" stroke="black" points="238.78,-256.04 229.45,-251.03 233.62,-260.77 238.78,-256.04"/>
<text text-anchor="middle" x="307.64" y="-320.2" font-family="Times,serif" font-size="14.00">!y</text>
</g>
<!-- 4 -->
<g id="node8" class="node">
<title>4</title>
<ellipse fill="none" stroke="black" cx="429.14" cy="-149.2" rx="137.28" ry="137.28"/>
<text text-anchor="middle" x="429.14" y="-145.5" font-family="Times,serif" font-size="14.00">4 &lt; ({b,a})*.{b}.{a}.{b}.6</text>
</g>
<!-- 2&#45;&gt;4 -->
<g id="edge9" class="edge">
<title>2&#45;&gt;4</title>
<path fill="none" stroke="black" d="M438.04,-349.14C437.26,-331.86 436.47,-314.12 435.69,-296.69"/>
<polygon fill="black" stroke="black" points="439.18,-296.31 435.23,-286.47 432.18,-296.62 439.18,-296.31"/>
<text text-anchor="middle" x="444.14" y="-320.2" font-family="Times,serif" font-size="14.00">!z</text>
</g>
<!-- 3&#45;&gt;0 -->
<g id="edge6" class="edge">
<title>3&#45;&gt;0</title>
<path fill="none" stroke="black" d="M130.61,-286.51C129.56,-459.16 152.73,-757.2 306.14,-948.95 353.48,-1008.12 434.81,-1040.63 496.78,-1057.74"/>
<polygon fill="black" stroke="black" points="495.98,-1061.15 506.55,-1060.35 497.79,-1054.39 495.98,-1061.15"/>
<text text-anchor="middle" x="178.14" y="-645.47" font-family="Times,serif" font-size="14.00">!u</text>
</g>
<!-- 5&#45;&gt;6 -->
<g id="edge3" class="edge">
<title>5&#45;&gt;6</title>
<path fill="none" stroke="black" d="M729.41,-358.28C729.7,-342.09 730,-325.37 730.3,-308.77"/>
<polygon fill="black" stroke="black" points="733.81,-308.51 730.49,-298.45 726.81,-308.39 733.81,-308.51"/>
<text text-anchor="middle" x="737.64" y="-320.2" font-family="Times,serif" font-size="14.00">!y</text>
</g>
<!-- 7 -->
<g id="node9" class="node">
<title>7</title>
<ellipse fill="none" stroke="black" cx="1049.14" cy="-149.2" rx="149.4" ry="149.4"/>
<text text-anchor="middle" x="1049.14" y="-153" font-family="Times,serif" font-size="14.00">7 &lt; ({b,a})*.{b}.{a}.{b}.6</text>
<text text-anchor="middle" x="1049.14" y="-138" font-family="Times,serif" font-size="14.00">{a}.{b}.6</text>
</g>
<!-- 5&#45;&gt;7 -->
<g id="edge10" class="edge">
<title>5&#45;&gt;7</title>
<path fill="none" stroke="black" d="M815.55,-393.46C853.74,-353.69 898.83,-306.74 939.15,-264.74"/>
<polygon fill="black" stroke="black" points="941.7,-267.14 946.1,-257.51 936.65,-262.3 941.7,-267.14"/>
<text text-anchor="middle" x="895.14" y="-320.2" font-family="Times,serif" font-size="14.00">!z</text>
</g>
<!-- 4&#45;&gt;0 -->
<g id="edge5" class="edge">
<title>4&#45;&gt;0</title>
<path fill="none" stroke="black" d="M332.32,-246.53C316.26,-267.92 301.98,-291.64 293.14,-316.4 247.22,-445.03 269.95,-490.03 298.14,-623.67 330.51,-777.16 342.89,-822.07 435.14,-948.95 456.02,-977.67 484.65,-1004.22 511.02,-1025.47"/>
<polygon fill="black" stroke="black" points="509.12,-1028.43 519.13,-1031.9 513.46,-1022.94 509.12,-1028.43"/>
<text text-anchor="middle" x="312.64" y="-645.47" font-family="Times,serif" font-size="14.00">!v</text>
</g>
<!-- 7&#45;&gt;0 -->
<g id="edge4" class="edge">
<title>7&#45;&gt;0</title>
<path fill="none" stroke="black" d="M1036.69,-298.05C1015.28,-470.98 957.7,-757.88 804.14,-948.95 767.57,-994.45 709.88,-1026.42 662.34,-1046.78"/>
<polygon fill="black" stroke="black" points="660.85,-1043.61 652.98,-1050.7 663.56,-1050.07 660.85,-1043.61"/>
<text text-anchor="middle" x="967.64" y="-645.47" font-family="Times,serif" font-size="14.00">!v</text>
</g>
</g>
</svg>
