<?xml version="1.0" encoding="UTF-8" standalone="no"?>
<!DOCTYPE svg PUBLIC "-//W3C//DTD SVG 1.1//EN"
 "http://www.w3.org/Graphics/SVG/1.1/DTD/svg11.dtd">
<!-- Generated by graphviz version 2.43.0 (0)
 -->
<!-- Title: %3 Pages: 1 -->
<svg width="124pt" height="520pt"
 viewBox="0.00 0.00 124.00 519.60" xmlns="http://www.w3.org/2000/svg" xmlns:xlink="http://www.w3.org/1999/xlink">
<g id="graph0" class="graph" transform="scale(1 1) rotate(0) translate(4 515.6)">
<title>%3</title>
<polygon fill="white" stroke="transparent" points="-4,4 -4,-515.6 120,-515.6 120,4 -4,4"/>
<!-- ENTRY -->
<g id="node1" class="node">
<title>ENTRY</title>
<ellipse fill="black" stroke="black" cx="50" cy="-509.8" rx="1.8" ry="1.8"/>
</g>
<!-- 0 -->
<g id="node2" class="node">
<title>0</title>
<ellipse fill="none" stroke="black" cx="50" cy="-453" rx="18" ry="18"/>
<text text-anchor="middle" x="50" y="-449.3" font-family="Times,serif" font-size="14.00">0</text>
</g>
<!-- ENTRY&#45;&gt;0 -->
<g id="edge1" class="edge">
<title>ENTRY&#45;&gt;0</title>
<path fill="none" stroke="black" d="M50,-507.85C50,-504.49 50,-492.73 50,-481.05"/>
<polygon fill="black" stroke="black" points="53.5,-481.02 50,-471.02 46.5,-481.02 53.5,-481.02"/>
</g>
<!-- 1 -->
<g id="node3" class="node">
<title>1</title>
<ellipse fill="none" stroke="black" cx="50" cy="-366" rx="18" ry="18"/>
<text text-anchor="middle" x="50" y="-362.3" font-family="Times,serif" font-size="14.00">1</text>
</g>
<!-- 0&#45;&gt;1 -->
<g id="edge2" class="edge">
<title>0&#45;&gt;1</title>
<path fill="none" stroke="black" d="M50,-434.8C50,-423.16 50,-407.55 50,-394.24"/>
<polygon fill="black" stroke="black" points="53.5,-394.18 50,-384.18 46.5,-394.18 53.5,-394.18"/>
<text text-anchor="middle" x="58.5" y="-405.8" font-family="Times,serif" font-size="14.00">?b</text>
</g>
<!-- 2 -->
<g id="node4" class="node">
<title>2</title>
<ellipse fill="none" stroke="black" cx="50" cy="-279" rx="18" ry="18"/>
<text text-anchor="middle" x="50" y="-275.3" font-family="Times,serif" font-size="14.00">2</text>
</g>
<!-- 1&#45;&gt;2 -->
<g id="edge3" class="edge">
<title>1&#45;&gt;2</title>
<path fill="none" stroke="black" d="M50,-347.8C50,-336.16 50,-320.55 50,-307.24"/>
<polygon fill="black" stroke="black" points="53.5,-307.18 50,-297.18 46.5,-307.18 53.5,-307.18"/>
<text text-anchor="middle" x="58" y="-318.8" font-family="Times,serif" font-size="14.00">?a</text>
</g>
<!-- 3 -->
<g id="node5" class="node">
<title>3</title>
<ellipse fill="none" stroke="black" cx="50" cy="-192" rx="18" ry="18"/>
<text text-anchor="middle" x="50" y="-188.3" font-family="Times,serif" font-size="14.00">3</text>
</g>
<!-- 2&#45;&gt;3 -->
<g id="edge4" class="edge">
<title>2&#45;&gt;3</title>
<path fill="none" stroke="black" d="M50,-260.8C50,-249.16 50,-233.55 50,-220.24"/>
<polygon fill="black" stroke="black" points="53.5,-220.18 50,-210.18 46.5,-220.18 53.5,-220.18"/>
<text text-anchor="middle" x="58.5" y="-231.8" font-family="Times,serif" font-size="14.00">?b</text>
</g>
<!-- 4 -->
<g id="node6" class="node">
<title>4</title>
<ellipse fill="none" stroke="black" cx="50" cy="-105" rx="18" ry="18"/>
<text text-anchor="middle" x="50" y="-101.3" font-family="Times,serif" font-size="14.00">4</text>
</g>
<!-- 3&#45;&gt;4 -->
<g id="edge5" class="edge">
<title>3&#45;&gt;4</title>
<path fill="none" stroke="black" d="M50,-173.8C50,-162.16 50,-146.55 50,-133.24"/>
<polygon fill="black" stroke="black" points="53.5,-133.18 50,-123.18 46.5,-133.18 53.5,-133.18"/>
<text text-anchor="middle" x="57.5" y="-144.8" font-family="Times,serif" font-size="14.00">!x</text>
</g>
<!-- 6 -->
<g id="node7" class="node">
<title>6</title>
<ellipse fill="none" stroke="black" cx="20" cy="-18" rx="18" ry="18"/>
<text text-anchor="middle" x="20" y="-14.3" font-family="Times,serif" font-size="14.00">6</text>
</g>
<!-- 4&#45;&gt;6 -->
<g id="edge6" class="edge">
<title>4&#45;&gt;6</title>
<path fill="none" stroke="black" d="M42.3,-88.54C39.48,-82.52 36.39,-75.53 34,-69 31.27,-61.55 28.77,-53.31 26.65,-45.71"/>
<polygon fill="black" stroke="black" points="29.99,-44.63 24.03,-35.87 23.22,-46.44 29.99,-44.63"/>
<text text-anchor="middle" x="41" y="-57.8" font-family="Times,serif" font-size="14.00">!z</text>
</g>
<!-- 5 -->
<g id="node8" class="node">
<title>5</title>
<ellipse fill="none" stroke="black" cx="82" cy="-18" rx="18" ry="18"/>
<text text-anchor="middle" x="82" y="-14.3" font-family="Times,serif" font-size="14.00">5</text>
</g>
<!-- 4&#45;&gt;5 -->
<g id="edge8" class="edge">
<title>4&#45;&gt;5</title>
<path fill="none" stroke="black" d="M56.02,-88.01C60.59,-75.86 66.98,-58.9 72.28,-44.83"/>
<polygon fill="black" stroke="black" points="75.65,-45.8 75.9,-35.21 69.1,-43.33 75.65,-45.8"/>
<text text-anchor="middle" x="74.5" y="-57.8" font-family="Times,serif" font-size="14.00">!y</text>
</g>
<!-- 6&#45;&gt;0 -->
<g id="edge7" class="edge">
<title>6&#45;&gt;0</title>
<path fill="none" stroke="black" d="M13.89,-35.03C8.01,-51.93 0,-79.44 0,-104 0,-367 0,-367 0,-367 0,-392.08 16.37,-416.28 30.37,-432.41"/>
<polygon fill="black" stroke="black" points="28.05,-435.05 37.38,-440.06 33.21,-430.32 28.05,-435.05"/>
<text text-anchor="middle" x="7.5" y="-231.8" font-family="Times,serif" font-size="14.00">!v</text>
</g>
<!-- 5&#45;&gt;0 -->
<g id="edge9" class="edge">
<title>5&#45;&gt;0</title>
<path fill="none" stroke="black" d="M87.6,-35.4C92.88,-52.36 100,-79.71 100,-104 100,-367 100,-367 100,-367 100,-392.08 83.63,-416.28 69.63,-432.41"/>
<polygon fill="black" stroke="black" points="66.79,-430.32 62.62,-440.06 71.95,-435.05 66.79,-430.32"/>
<text text-anchor="middle" x="108" y="-231.8" font-family="Times,serif" font-size="14.00">!u</text>
</g>
</g>
</svg>
