<?xml version="1.0" encoding="UTF-8" standalone="no"?>
<!DOCTYPE svg PUBLIC "-//W3C//DTD SVG 1.1//EN"
 "http://www.w3.org/Graphics/SVG/1.1/DTD/svg11.dtd">
<!-- Generated by graphviz version 2.43.0 (0)
 -->
<!-- Title: %3 Pages: 1 -->
<svg width="312pt" height="680pt"
 viewBox="0.00 0.00 311.93 679.65" xmlns="http://www.w3.org/2000/svg" xmlns:xlink="http://www.w3.org/1999/xlink">
<g id="graph0" class="graph" transform="scale(1 1) rotate(0) translate(4 675.65)">
<title>%3</title>
<polygon fill="white" stroke="transparent" points="-4,4 -4,-675.65 307.93,-675.65 307.93,4 -4,4"/>
<!-- ENTRY -->
<g id="node1" class="node">
<title>ENTRY</title>
<ellipse fill="black" stroke="black" cx="131.54" cy="-669.85" rx="1.8" ry="1.8"/>
</g>
<!-- 0 -->
<g id="node4" class="node">
<title>0</title>
<ellipse fill="none" stroke="black" cx="131.54" cy="-563.46" rx="67.69" ry="67.69"/>
<text text-anchor="middle" x="131.54" y="-559.76" font-family="Times,serif" font-size="14.00">0 &lt; ({b})*.0</text>
</g>
<!-- ENTRY&#45;&gt;0 -->
<g id="edge1" class="edge">
<title>ENTRY&#45;&gt;0</title>
<path fill="none" stroke="black" d="M131.54,-667.68C131.54,-664.32 131.54,-654.1 131.54,-641.3"/>
<polygon fill="black" stroke="black" points="135.04,-641.09 131.54,-631.09 128.04,-641.09 135.04,-641.09"/>
</g>
<!-- 2 -->
<g id="node2" class="node">
<title>2</title>
<ellipse fill="none" stroke="black" cx="108.54" cy="-108.54" rx="108.58" ry="108.58"/>
<text text-anchor="middle" x="108.54" y="-104.84" font-family="Times,serif" font-size="14.00">2 &lt; ({b})*.{b}.{b}.0</text>
</g>
<!-- 2&#45;&gt;0 -->
<g id="edge2" class="edge">
<title>2&#45;&gt;0</title>
<path fill="none" stroke="black" d="M98.39,-216.8C94.1,-282.82 92.02,-369.04 101.54,-444.87 103.34,-459.22 106.34,-474.33 109.75,-488.76"/>
<polygon fill="black" stroke="black" points="106.39,-489.75 112.17,-498.63 113.19,-488.08 106.39,-489.75"/>
<text text-anchor="middle" x="110.04" y="-352.77" font-family="Times,serif" font-size="14.00">?b</text>
</g>
<!-- 1 -->
<g id="node3" class="node">
<title>1</title>
<ellipse fill="none" stroke="black" cx="215.54" cy="-356.47" rx="88.28" ry="88.28"/>
<text text-anchor="middle" x="215.54" y="-352.77" font-family="Times,serif" font-size="14.00">1 &lt; ({b})*.{b}.0</text>
</g>
<!-- 1&#45;&gt;2 -->
<g id="edge3" class="edge">
<title>1&#45;&gt;2</title>
<path fill="none" stroke="black" d="M180.5,-274.95C172.54,-256.65 163.96,-236.92 155.59,-217.68"/>
<polygon fill="black" stroke="black" points="158.7,-216.06 151.5,-208.29 152.28,-218.85 158.7,-216.06"/>
<text text-anchor="middle" x="175.04" y="-238.88" font-family="Times,serif" font-size="14.00">!a</text>
</g>
<!-- 0&#45;&gt;1 -->
<g id="edge4" class="edge">
<title>0&#45;&gt;1</title>
<path fill="none" stroke="black" d="M156.86,-500.68C163.69,-484.01 171.22,-465.64 178.54,-447.76"/>
<polygon fill="black" stroke="black" points="181.8,-449.05 182.35,-438.47 175.32,-446.4 181.8,-449.05"/>
<text text-anchor="middle" x="178.04" y="-466.67" font-family="Times,serif" font-size="14.00">!a</text>
</g>
</g>
</svg>
