<?xml version="1.0" encoding="UTF-8" standalone="no"?>
<!DOCTYPE svg PUBLIC "-//W3C//DTD SVG 1.1//EN"
 "http://www.w3.org/Graphics/SVG/1.1/DTD/svg11.dtd">
<!-- Generated by graphviz version 2.43.0 (0)
 -->
<!-- Title: %3 Pages: 1 -->
<svg width="480pt" height="1005pt"
 viewBox="0.00 0.00 480.48 1005.23" xmlns="http://www.w3.org/2000/svg" xmlns:xlink="http://www.w3.org/1999/xlink">
<g id="graph0" class="graph" transform="scale(1 1) rotate(0) translate(4 1001.23)">
<title>%3</title>
<polygon fill="white" stroke="transparent" points="-4,4 -4,-1001.23 476.48,-1001.23 476.48,4 -4,4"/>
<!-- ENTRY -->
<g id="node1" class="node">
<title>ENTRY</title>
<ellipse fill="black" stroke="black" cx="235.74" cy="-995.43" rx="1.8" ry="1.8"/>
</g>
<!-- 0 -->
<g id="node9" class="node">
<title>0</title>
<ellipse fill="none" stroke="black" cx="235.74" cy="-900.09" rx="56.59" ry="56.59"/>
<text text-anchor="middle" x="235.74" y="-896.39" font-family="Times,serif" font-size="14.00">0 &lt; Eps.0</text>
</g>
<!-- ENTRY&#45;&gt;0 -->
<g id="edge1" class="edge">
<title>ENTRY&#45;&gt;0</title>
<path fill="none" stroke="black" d="M235.74,-993.38C235.74,-990.13 235.74,-979.64 235.74,-966.83"/>
<polygon fill="black" stroke="black" points="239.24,-966.67 235.74,-956.67 232.24,-966.67 239.24,-966.67"/>
</g>
<!-- 9 -->
<g id="node2" class="node">
<title>9</title>
<ellipse fill="none" stroke="red" cx="358.74" cy="-56.54" rx="56.59" ry="56.59"/>
<text text-anchor="middle" x="358.74" y="-52.84" font-family="Times,serif" font-size="14.00">9 &lt; Eps.6</text>
</g>
<!-- 2 -->
<g id="node3" class="node">
<title>2</title>
<ellipse fill="none" stroke="black" cx="113.74" cy="-426.32" rx="87.99" ry="87.99"/>
<text text-anchor="middle" x="113.74" y="-422.62" font-family="Times,serif" font-size="14.00">2 &lt; {a2}.{a3}.4</text>
</g>
<!-- 3 -->
<g id="node5" class="node">
<title>3</title>
<ellipse fill="none" stroke="black" cx="113.74" cy="-225.83" rx="61.99" ry="61.99"/>
<text text-anchor="middle" x="113.74" y="-222.13" font-family="Times,serif" font-size="14.00">3 &lt; {a3}.4</text>
</g>
<!-- 2&#45;&gt;3 -->
<g id="edge9" class="edge">
<title>2&#45;&gt;3</title>
<path fill="none" stroke="black" d="M113.74,-338.55C113.74,-325.05 113.74,-311.24 113.74,-298.14"/>
<polygon fill="black" stroke="black" points="117.24,-297.8 113.74,-287.8 110.24,-297.8 117.24,-297.8"/>
<text text-anchor="middle" x="126.24" y="-309.38" font-family="Times,serif" font-size="14.00">?a2</text>
</g>
<!-- 1 -->
<g id="node4" class="node">
<title>1</title>
<ellipse fill="none" stroke="black" cx="113.74" cy="-678.8" rx="113.98" ry="113.98"/>
<text text-anchor="middle" x="113.74" y="-675.1" font-family="Times,serif" font-size="14.00">1 &lt; {a1}.{a2}.{a3}.4</text>
</g>
<!-- 1&#45;&gt;2 -->
<g id="edge6" class="edge">
<title>1&#45;&gt;2</title>
<path fill="none" stroke="black" d="M113.74,-565.02C113.74,-551.46 113.74,-537.71 113.74,-524.41"/>
<polygon fill="black" stroke="black" points="117.24,-524.33 113.74,-514.33 110.24,-524.33 117.24,-524.33"/>
<text text-anchor="middle" x="126.24" y="-535.86" font-family="Times,serif" font-size="14.00">?a1</text>
</g>
<!-- 4 -->
<g id="node8" class="node">
<title>4</title>
<ellipse fill="none" stroke="red" cx="113.74" cy="-56.54" rx="56.59" ry="56.59"/>
<text text-anchor="middle" x="113.74" y="-52.84" font-family="Times,serif" font-size="14.00">4 &lt; Eps.4</text>
</g>
<!-- 3&#45;&gt;4 -->
<g id="edge8" class="edge">
<title>3&#45;&gt;4</title>
<path fill="none" stroke="black" d="M113.74,-163.97C113.74,-150.71 113.74,-136.64 113.74,-123.21"/>
<polygon fill="black" stroke="black" points="117.24,-123.09 113.74,-113.09 110.24,-123.09 117.24,-123.09"/>
<text text-anchor="middle" x="126.24" y="-134.89" font-family="Times,serif" font-size="14.00">?a3</text>
</g>
<!-- 6 -->
<g id="node6" class="node">
<title>6</title>
<ellipse fill="none" stroke="black" cx="358.74" cy="-678.8" rx="113.98" ry="113.98"/>
<text text-anchor="middle" x="358.74" y="-675.1" font-family="Times,serif" font-size="14.00">6 &lt; {a1}.{a2}.{a3}.6</text>
</g>
<!-- 7 -->
<g id="node10" class="node">
<title>7</title>
<ellipse fill="none" stroke="black" cx="358.74" cy="-426.32" rx="87.99" ry="87.99"/>
<text text-anchor="middle" x="358.74" y="-422.62" font-family="Times,serif" font-size="14.00">7 &lt; {a2}.{a3}.6</text>
</g>
<!-- 6&#45;&gt;7 -->
<g id="edge3" class="edge">
<title>6&#45;&gt;7</title>
<path fill="none" stroke="black" d="M358.74,-565.02C358.74,-551.46 358.74,-537.71 358.74,-524.41"/>
<polygon fill="black" stroke="black" points="362.24,-524.33 358.74,-514.33 355.24,-524.33 362.24,-524.33"/>
<text text-anchor="middle" x="371.24" y="-535.86" font-family="Times,serif" font-size="14.00">?a1</text>
</g>
<!-- 8 -->
<g id="node7" class="node">
<title>8</title>
<ellipse fill="none" stroke="black" cx="358.74" cy="-225.83" rx="61.99" ry="61.99"/>
<text text-anchor="middle" x="358.74" y="-222.13" font-family="Times,serif" font-size="14.00">8 &lt; {a3}.6</text>
</g>
<!-- 8&#45;&gt;9 -->
<g id="edge5" class="edge">
<title>8&#45;&gt;9</title>
<path fill="none" stroke="black" d="M358.74,-163.97C358.74,-150.71 358.74,-136.64 358.74,-123.21"/>
<polygon fill="black" stroke="black" points="362.24,-123.09 358.74,-113.09 355.24,-123.09 362.24,-123.09"/>
<text text-anchor="middle" x="371.24" y="-134.89" font-family="Times,serif" font-size="14.00">?a3</text>
</g>
<!-- 0&#45;&gt;1 -->
<g id="edge7" class="edge">
<title>0&#45;&gt;1</title>
<path fill="none" stroke="black" d="M208.66,-850.42C198.25,-831.71 185.91,-809.52 173.62,-787.44"/>
<polygon fill="black" stroke="black" points="176.66,-785.7 168.74,-778.66 170.54,-789.1 176.66,-785.7"/>
<text text-anchor="middle" x="201.74" y="-814.34" font-family="Times,serif" font-size="14.00">!b</text>
</g>
<!-- 0&#45;&gt;6 -->
<g id="edge2" class="edge">
<title>0&#45;&gt;6</title>
<path fill="none" stroke="black" d="M263.04,-850.42C273.53,-831.71 285.98,-809.52 298.37,-787.44"/>
<polygon fill="black" stroke="black" points="301.45,-789.09 303.29,-778.66 295.34,-785.67 301.45,-789.09"/>
<text text-anchor="middle" x="289.74" y="-814.34" font-family="Times,serif" font-size="14.00">!c</text>
</g>
<!-- 7&#45;&gt;8 -->
<g id="edge4" class="edge">
<title>7&#45;&gt;8</title>
<path fill="none" stroke="black" d="M358.74,-338.55C358.74,-325.05 358.74,-311.24 358.74,-298.14"/>
<polygon fill="black" stroke="black" points="362.24,-297.8 358.74,-287.8 355.24,-297.8 362.24,-297.8"/>
<text text-anchor="middle" x="371.24" y="-309.38" font-family="Times,serif" font-size="14.00">?a2</text>
</g>
</g>
</svg>
