<?xml version="1.0" encoding="UTF-8" standalone="no"?>
<!DOCTYPE svg PUBLIC "-//W3C//DTD SVG 1.1//EN"
 "http://www.w3.org/Graphics/SVG/1.1/DTD/svg11.dtd">
<!-- Generated by graphviz version 2.43.0 (0)
 -->
<!-- Title: %3 Pages: 1 -->
<svg width="114pt" height="529pt"
 viewBox="0.00 0.00 113.75 529.10" xmlns="http://www.w3.org/2000/svg" xmlns:xlink="http://www.w3.org/1999/xlink">
<g id="graph0" class="graph" transform="scale(1 1) rotate(0) translate(4 525.1)">
<title>%3</title>
<polygon fill="white" stroke="transparent" points="-4,4 -4,-525.1 109.75,-525.1 109.75,4 -4,4"/>
<!-- ENTRY -->
<g id="node1" class="node">
<title>ENTRY</title>
<ellipse fill="black" stroke="black" cx="50.75" cy="-519.3" rx="1.8" ry="1.8"/>
</g>
<!-- 0 -->
<g id="node2" class="node">
<title>0</title>
<ellipse fill="none" stroke="black" cx="50.75" cy="-462.5" rx="18" ry="18"/>
<text text-anchor="middle" x="50.75" y="-458.8" font-family="Times,serif" font-size="14.00">0</text>
</g>
<!-- ENTRY&#45;&gt;0 -->
<g id="edge1" class="edge">
<title>ENTRY&#45;&gt;0</title>
<path fill="none" stroke="black" d="M50.75,-517.34C50.75,-513.98 50.75,-502.22 50.75,-490.55"/>
<polygon fill="black" stroke="black" points="54.25,-490.52 50.75,-480.52 47.25,-490.52 54.25,-490.52"/>
</g>
<!-- 6 -->
<g id="node3" class="node">
<title>6</title>
<ellipse fill="none" stroke="black" cx="24.75" cy="-375.5" rx="18" ry="18"/>
<text text-anchor="middle" x="24.75" y="-371.8" font-family="Times,serif" font-size="14.00">6</text>
</g>
<!-- 0&#45;&gt;6 -->
<g id="edge2" class="edge">
<title>0&#45;&gt;6</title>
<path fill="none" stroke="black" d="M44.45,-445.58C42.2,-439.64 39.73,-432.8 37.75,-426.5 35.38,-418.97 33.1,-410.71 31.13,-403.11"/>
<polygon fill="black" stroke="black" points="34.5,-402.13 28.66,-393.28 27.71,-403.83 34.5,-402.13"/>
<text text-anchor="middle" x="44.75" y="-415.3" font-family="Times,serif" font-size="14.00">!c</text>
</g>
<!-- 1 -->
<g id="node8" class="node">
<title>1</title>
<ellipse fill="none" stroke="black" cx="78.75" cy="-375.5" rx="18" ry="18"/>
<text text-anchor="middle" x="78.75" y="-371.8" font-family="Times,serif" font-size="14.00">1</text>
</g>
<!-- 0&#45;&gt;1 -->
<g id="edge7" class="edge">
<title>0&#45;&gt;1</title>
<path fill="none" stroke="black" d="M56.15,-445.11C60.14,-433 65.65,-416.26 70.23,-402.36"/>
<polygon fill="black" stroke="black" points="73.56,-403.43 73.37,-392.83 66.91,-401.24 73.56,-403.43"/>
<text text-anchor="middle" x="74.75" y="-415.3" font-family="Times,serif" font-size="14.00">!b</text>
</g>
<!-- 7 -->
<g id="node4" class="node">
<title>7</title>
<ellipse fill="none" stroke="black" cx="24.75" cy="-288.5" rx="18" ry="18"/>
<text text-anchor="middle" x="24.75" y="-284.8" font-family="Times,serif" font-size="14.00">7</text>
</g>
<!-- 6&#45;&gt;7 -->
<g id="edge3" class="edge">
<title>6&#45;&gt;7</title>
<path fill="none" stroke="black" d="M24.75,-357.29C24.75,-345.66 24.75,-330.04 24.75,-316.73"/>
<polygon fill="black" stroke="black" points="28.25,-316.67 24.75,-306.67 21.25,-316.67 28.25,-316.67"/>
<text text-anchor="middle" x="37.25" y="-328.3" font-family="Times,serif" font-size="14.00">?a1</text>
</g>
<!-- 8 -->
<g id="node5" class="node">
<title>8</title>
<ellipse fill="none" stroke="black" cx="24.75" cy="-201.5" rx="18" ry="18"/>
<text text-anchor="middle" x="24.75" y="-197.8" font-family="Times,serif" font-size="14.00">8</text>
</g>
<!-- 7&#45;&gt;8 -->
<g id="edge4" class="edge">
<title>7&#45;&gt;8</title>
<path fill="none" stroke="black" d="M24.75,-270.29C24.75,-258.66 24.75,-243.04 24.75,-229.73"/>
<polygon fill="black" stroke="black" points="28.25,-229.67 24.75,-219.67 21.25,-229.67 28.25,-229.67"/>
<text text-anchor="middle" x="37.25" y="-241.3" font-family="Times,serif" font-size="14.00">?a2</text>
</g>
<!-- 9 -->
<g id="node6" class="node">
<title>9</title>
<ellipse fill="none" stroke="black" cx="24.75" cy="-114.5" rx="18" ry="18"/>
<text text-anchor="middle" x="24.75" y="-110.8" font-family="Times,serif" font-size="14.00">9</text>
</g>
<!-- 8&#45;&gt;9 -->
<g id="edge5" class="edge">
<title>8&#45;&gt;9</title>
<path fill="none" stroke="black" d="M24.75,-183.29C24.75,-171.66 24.75,-156.04 24.75,-142.73"/>
<polygon fill="black" stroke="black" points="28.25,-142.67 24.75,-132.67 21.25,-142.67 28.25,-142.67"/>
<text text-anchor="middle" x="37.25" y="-154.3" font-family="Times,serif" font-size="14.00">?a3</text>
</g>
<!-- 10 -->
<g id="node7" class="node">
<title>10</title>
<ellipse fill="none" stroke="black" cx="22.75" cy="-22.75" rx="23" ry="23"/>
<text text-anchor="middle" x="22.75" y="-19.05" font-family="Times,serif" font-size="14.00">10</text>
</g>
<!-- 9&#45;&gt;10 -->
<g id="edge6" class="edge">
<title>9&#45;&gt;10</title>
<path fill="none" stroke="black" d="M24.36,-96.19C24.11,-84.86 23.77,-69.69 23.47,-56.17"/>
<polygon fill="black" stroke="black" points="26.96,-55.69 23.24,-45.77 19.96,-55.85 26.96,-55.69"/>
<text text-anchor="middle" x="37.25" y="-67.3" font-family="Times,serif" font-size="14.00">?x2</text>
</g>
<!-- 2 -->
<g id="node9" class="node">
<title>2</title>
<ellipse fill="none" stroke="black" cx="78.75" cy="-288.5" rx="18" ry="18"/>
<text text-anchor="middle" x="78.75" y="-284.8" font-family="Times,serif" font-size="14.00">2</text>
</g>
<!-- 1&#45;&gt;2 -->
<g id="edge8" class="edge">
<title>1&#45;&gt;2</title>
<path fill="none" stroke="black" d="M78.75,-357.29C78.75,-345.66 78.75,-330.04 78.75,-316.73"/>
<polygon fill="black" stroke="black" points="82.25,-316.67 78.75,-306.67 75.25,-316.67 82.25,-316.67"/>
<text text-anchor="middle" x="91.25" y="-328.3" font-family="Times,serif" font-size="14.00">?a1</text>
</g>
<!-- 3 -->
<g id="node10" class="node">
<title>3</title>
<ellipse fill="none" stroke="black" cx="78.75" cy="-201.5" rx="18" ry="18"/>
<text text-anchor="middle" x="78.75" y="-197.8" font-family="Times,serif" font-size="14.00">3</text>
</g>
<!-- 2&#45;&gt;3 -->
<g id="edge9" class="edge">
<title>2&#45;&gt;3</title>
<path fill="none" stroke="black" d="M78.75,-270.29C78.75,-258.66 78.75,-243.04 78.75,-229.73"/>
<polygon fill="black" stroke="black" points="82.25,-229.67 78.75,-219.67 75.25,-229.67 82.25,-229.67"/>
<text text-anchor="middle" x="91.25" y="-241.3" font-family="Times,serif" font-size="14.00">?a2</text>
</g>
<!-- 4 -->
<g id="node11" class="node">
<title>4</title>
<ellipse fill="none" stroke="black" cx="80.75" cy="-114.5" rx="18" ry="18"/>
<text text-anchor="middle" x="80.75" y="-110.8" font-family="Times,serif" font-size="14.00">4</text>
</g>
<!-- 3&#45;&gt;4 -->
<g id="edge10" class="edge">
<title>3&#45;&gt;4</title>
<path fill="none" stroke="black" d="M79.15,-183.29C79.43,-171.66 79.79,-156.04 80.11,-142.73"/>
<polygon fill="black" stroke="black" points="83.61,-142.75 80.34,-132.67 76.61,-142.59 83.61,-142.75"/>
<text text-anchor="middle" x="93.25" y="-154.3" font-family="Times,serif" font-size="14.00">?a3</text>
</g>
<!-- 5 -->
<g id="node12" class="node">
<title>5</title>
<ellipse fill="none" stroke="black" cx="81.75" cy="-22.75" rx="18" ry="18"/>
<text text-anchor="middle" x="81.75" y="-19.05" font-family="Times,serif" font-size="14.00">5</text>
</g>
<!-- 4&#45;&gt;5 -->
<g id="edge11" class="edge">
<title>4&#45;&gt;5</title>
<path fill="none" stroke="black" d="M80.94,-96.19C81.08,-83.4 81.28,-65.74 81.44,-51.05"/>
<polygon fill="black" stroke="black" points="84.94,-51.04 81.56,-41 77.94,-50.96 84.94,-51.04"/>
<text text-anchor="middle" x="93.25" y="-67.3" font-family="Times,serif" font-size="14.00">?x1</text>
</g>
</g>
</svg>
