<?xml version="1.0" encoding="UTF-8" standalone="no"?>
<!DOCTYPE svg PUBLIC "-//W3C//DTD SVG 1.1//EN"
 "http://www.w3.org/Graphics/SVG/1.1/DTD/svg11.dtd">
<!-- Generated by graphviz version 2.43.0 (0)
 -->
<!-- Title: %3 Pages: 1 -->
<svg width="441pt" height="1095pt"
 viewBox="0.00 0.00 440.76 1095.38" xmlns="http://www.w3.org/2000/svg" xmlns:xlink="http://www.w3.org/1999/xlink">
<g id="graph0" class="graph" transform="scale(1 1) rotate(0) translate(4 1091.38)">
<title>%3</title>
<polygon fill="white" stroke="transparent" points="-4,4 -4,-1091.38 436.76,-1091.38 436.76,4 -4,4"/>
<!-- ENTRY -->
<g id="node1" class="node">
<title>ENTRY</title>
<ellipse fill="black" stroke="black" cx="265.46" cy="-1085.58" rx="1.8" ry="1.8"/>
</g>
<!-- 0 -->
<g id="node2" class="node">
<title>0</title>
<ellipse fill="none" stroke="black" cx="265.46" cy="-952.03" rx="94.51" ry="94.51"/>
<text text-anchor="middle" x="265.46" y="-955.83" font-family="Times,serif" font-size="14.00">0 &lt; ({a}.{a})*.0</text>
<text text-anchor="middle" x="265.46" y="-940.83" font-family="Times,serif" font-size="14.00">({a})*.{b}.2</text>
</g>
<!-- ENTRY&#45;&gt;0 -->
<g id="edge1" class="edge">
<title>ENTRY&#45;&gt;0</title>
<path fill="none" stroke="black" d="M265.46,-1083.74C265.46,-1080.84 265.46,-1070.65 265.46,-1057.15"/>
<polygon fill="black" stroke="black" points="268.96,-1056.79 265.46,-1046.79 261.96,-1056.79 268.96,-1056.79"/>
</g>
<!-- 1 -->
<g id="node4" class="node">
<title>1</title>
<ellipse fill="none" stroke="black" cx="95.46" cy="-710.82" rx="95.42" ry="95.42"/>
<text text-anchor="middle" x="95.46" y="-722.12" font-family="Times,serif" font-size="14.00">1 &lt; ({a})*.{b}.2</text>
<text text-anchor="middle" x="95.46" y="-707.12" font-family="Times,serif" font-size="14.00">Eps.1</text>
<text text-anchor="middle" x="95.46" y="-692.12" font-family="Times,serif" font-size="14.00">{a}.({a}.{a})*.0</text>
</g>
<!-- 0&#45;&gt;1 -->
<g id="edge4" class="edge">
<title>0&#45;&gt;1</title>
<path fill="none" stroke="black" d="M210.97,-874.36C193.61,-849.92 174.28,-822.73 156.49,-797.69"/>
<polygon fill="black" stroke="black" points="159.16,-795.41 150.52,-789.29 153.46,-799.47 159.16,-795.41"/>
<text text-anchor="middle" x="194.46" y="-828.08" font-family="Times,serif" font-size="14.00">?a</text>
</g>
<!-- 4 -->
<g id="node6" class="node">
<title>4</title>
<ellipse fill="none" stroke="black" cx="265.46" cy="-710.82" rx="56.59" ry="56.59"/>
<text text-anchor="middle" x="265.46" y="-707.12" font-family="Times,serif" font-size="14.00">4 &lt; Eps.2</text>
</g>
<!-- 0&#45;&gt;4 -->
<g id="edge7" class="edge">
<title>0&#45;&gt;4</title>
<path fill="none" stroke="black" d="M265.46,-857.17C265.46,-830.6 265.46,-802.25 265.46,-777.71"/>
<polygon fill="black" stroke="black" points="268.96,-777.44 265.46,-767.44 261.96,-777.44 268.96,-777.44"/>
<text text-anchor="middle" x="273.96" y="-828.08" font-family="Times,serif" font-size="14.00">?b</text>
</g>
<!-- 2 -->
<g id="node3" class="node">
<title>2</title>
<ellipse fill="none" stroke="black" cx="202.46" cy="-446.98" rx="117.26" ry="117.26"/>
<text text-anchor="middle" x="202.46" y="-458.28" font-family="Times,serif" font-size="14.00">2 &lt; ({a})*.{b}.2</text>
<text text-anchor="middle" x="202.46" y="-443.28" font-family="Times,serif" font-size="14.00">{a}.({a}.{a})*.{a}.0</text>
<text text-anchor="middle" x="202.46" y="-428.28" font-family="Times,serif" font-size="14.00">Eps.0</text>
</g>
<!-- 3 -->
<g id="node5" class="node">
<title>3</title>
<ellipse fill="none" stroke="black" cx="293.46" cy="-139.3" rx="139.1" ry="139.1"/>
<text text-anchor="middle" x="293.46" y="-150.6" font-family="Times,serif" font-size="14.00">3 &lt; ({a})*.{b}.2</text>
<text text-anchor="middle" x="293.46" y="-135.6" font-family="Times,serif" font-size="14.00">{a}.({a}.{a})*.{a}.{a}.0</text>
<text text-anchor="middle" x="293.46" y="-120.6" font-family="Times,serif" font-size="14.00">{a}.0</text>
</g>
<!-- 2&#45;&gt;3 -->
<g id="edge6" class="edge">
<title>2&#45;&gt;3</title>
<path fill="none" stroke="black" d="M235.7,-334.32C240.71,-317.49 245.94,-299.93 251.11,-282.56"/>
<polygon fill="black" stroke="black" points="254.48,-283.51 253.98,-272.93 247.77,-281.52 254.48,-283.51"/>
<text text-anchor="middle" x="252.96" y="-300.4" font-family="Times,serif" font-size="14.00">!x</text>
</g>
<!-- 1&#45;&gt;2 -->
<g id="edge3" class="edge">
<title>1&#45;&gt;2</title>
<path fill="none" stroke="black" d="M131.24,-622.27C138.7,-604 146.69,-584.46 154.51,-565.31"/>
<polygon fill="black" stroke="black" points="157.8,-566.53 158.34,-555.95 151.32,-563.88 157.8,-566.53"/>
<text text-anchor="middle" x="153.96" y="-586.16" font-family="Times,serif" font-size="14.00">!x</text>
</g>
<!-- 3&#45;&gt;0 -->
<g id="edge2" class="edge">
<title>3&#45;&gt;0</title>
<path fill="none" stroke="black" d="M337.84,-271.58C377.03,-408.1 420.03,-626.6 364.46,-806.28 357.45,-828.93 345.55,-851.19 332.38,-871.21"/>
<polygon fill="black" stroke="black" points="329.37,-869.41 326.66,-879.65 335.17,-873.33 329.37,-869.41"/>
<text text-anchor="middle" x="397.96" y="-586.16" font-family="Times,serif" font-size="14.00">!x</text>
</g>
<!-- 4&#45;&gt;4 -->
<g id="edge5" class="edge">
<title>4&#45;&gt;4</title>
<path fill="none" stroke="black" d="M317.71,-732.97C330.49,-731.33 340,-723.94 340,-710.82 340,-701.39 335.09,-694.92 327.58,-691.42"/>
<polygon fill="black" stroke="black" points="328.28,-687.98 317.71,-688.67 326.41,-694.72 328.28,-687.98"/>
<text text-anchor="middle" x="347.5" y="-707.12" font-family="Times,serif" font-size="14.00">!x</text>
</g>
</g>
</svg>
