<?xml version="1.0" encoding="UTF-8" standalone="no"?>
<!DOCTYPE svg PUBLIC "-//W3C//DTD SVG 1.1//EN"
 "http://www.w3.org/Graphics/SVG/1.1/DTD/svg11.dtd">
<!-- Generated by graphviz version 2.43.0 (0)
 -->
<!-- Title: %3 Pages: 1 -->
<svg width="80pt" height="259pt"
 viewBox="0.00 0.00 80.00 258.60" xmlns="http://www.w3.org/2000/svg" xmlns:xlink="http://www.w3.org/1999/xlink">
<g id="graph0" class="graph" transform="scale(1 1) rotate(0) translate(4 254.6)">
<title>%3</title>
<polygon fill="white" stroke="transparent" points="-4,4 -4,-254.6 76,-254.6 76,4 -4,4"/>
<!-- ENTRY -->
<g id="node1" class="node">
<title>ENTRY</title>
<ellipse fill="black" stroke="black" cx="41" cy="-248.8" rx="1.8" ry="1.8"/>
</g>
<!-- 0 -->
<g id="node2" class="node">
<title>0</title>
<ellipse fill="none" stroke="black" cx="41" cy="-192" rx="18" ry="18"/>
<text text-anchor="middle" x="41" y="-188.3" font-family="Times,serif" font-size="14.00">0</text>
</g>
<!-- ENTRY&#45;&gt;0 -->
<g id="edge1" class="edge">
<title>ENTRY&#45;&gt;0</title>
<path fill="none" stroke="black" d="M41,-246.85C41,-243.49 41,-231.73 41,-220.05"/>
<polygon fill="black" stroke="black" points="44.5,-220.02 41,-210.02 37.5,-220.02 44.5,-220.02"/>
</g>
<!-- 1 -->
<g id="node3" class="node">
<title>1</title>
<ellipse fill="none" stroke="black" cx="18" cy="-105" rx="18" ry="18"/>
<text text-anchor="middle" x="18" y="-101.3" font-family="Times,serif" font-size="14.00">1</text>
</g>
<!-- 0&#45;&gt;1 -->
<g id="edge2" class="edge">
<title>0&#45;&gt;1</title>
<path fill="none" stroke="black" d="M25.85,-181.67C17.41,-175.54 7.68,-166.68 3,-156 -0.66,-147.65 0.87,-138.14 4.08,-129.67"/>
<polygon fill="black" stroke="black" points="7.38,-130.88 8.41,-120.34 1.03,-127.94 7.38,-130.88"/>
<text text-anchor="middle" x="11" y="-144.8" font-family="Times,serif" font-size="14.00">?a</text>
</g>
<!-- 1&#45;&gt;0 -->
<g id="edge5" class="edge">
<title>1&#45;&gt;0</title>
<path fill="none" stroke="black" d="M22.46,-122.47C25.67,-134.34 30.07,-150.62 33.78,-164.34"/>
<polygon fill="black" stroke="black" points="30.47,-165.47 36.46,-174.21 37.22,-163.64 30.47,-165.47"/>
<text text-anchor="middle" x="38" y="-144.8" font-family="Times,serif" font-size="14.00">!d</text>
</g>
<!-- 2 -->
<g id="node4" class="node">
<title>2</title>
<ellipse fill="none" stroke="black" cx="45" cy="-18" rx="18" ry="18"/>
<text text-anchor="middle" x="45" y="-14.3" font-family="Times,serif" font-size="14.00">2</text>
</g>
<!-- 1&#45;&gt;2 -->
<g id="edge3" class="edge">
<title>1&#45;&gt;2</title>
<path fill="none" stroke="black" d="M23.21,-87.61C27.02,-75.62 32.26,-59.09 36.66,-45.27"/>
<polygon fill="black" stroke="black" points="40.12,-45.93 39.81,-35.34 33.45,-43.81 40.12,-45.93"/>
<text text-anchor="middle" x="40.5" y="-57.8" font-family="Times,serif" font-size="14.00">!x</text>
</g>
<!-- 2&#45;&gt;0 -->
<g id="edge4" class="edge">
<title>2&#45;&gt;0</title>
<path fill="none" stroke="black" d="M49.02,-35.63C50.24,-41.41 51.4,-47.96 52,-54 56.47,-99.12 56.21,-111.08 50,-156 49.62,-158.76 49.1,-161.62 48.5,-164.45"/>
<polygon fill="black" stroke="black" points="45.04,-163.88 46.09,-174.42 51.84,-165.52 45.04,-163.88"/>
<text text-anchor="middle" x="63.5" y="-101.3" font-family="Times,serif" font-size="14.00">?b</text>
</g>
</g>
</svg>
