<?xml version="1.0" encoding="UTF-8" standalone="no"?>
<!DOCTYPE svg PUBLIC "-//W3C//DTD SVG 1.1//EN"
 "http://www.w3.org/Graphics/SVG/1.1/DTD/svg11.dtd">
<!-- Generated by graphviz version 2.43.0 (0)
 -->
<!-- Title: %3 Pages: 1 -->
<svg width="190pt" height="172pt"
 viewBox="0.00 0.00 190.03 171.60" xmlns="http://www.w3.org/2000/svg" xmlns:xlink="http://www.w3.org/1999/xlink">
<g id="graph0" class="graph" transform="scale(1 1) rotate(0) translate(4 167.6)">
<title>%3</title>
<polygon fill="white" stroke="transparent" points="-4,4 -4,-167.6 186.03,-167.6 186.03,4 -4,4"/>
<!-- ENTRY -->
<g id="node1" class="node">
<title>ENTRY</title>
<ellipse fill="black" stroke="black" cx="100.03" cy="-161.8" rx="1.8" ry="1.8"/>
</g>
<!-- 0 -->
<g id="node2" class="node">
<title>0</title>
<ellipse fill="none" stroke="black" cx="100.03" cy="-105" rx="18" ry="18"/>
<text text-anchor="middle" x="100.03" y="-101.3" font-family="Times,serif" font-size="14.00">0</text>
</g>
<!-- ENTRY&#45;&gt;0 -->
<g id="edge1" class="edge">
<title>ENTRY&#45;&gt;0</title>
<path fill="none" stroke="black" d="M100.03,-159.85C100.03,-156.49 100.03,-144.73 100.03,-133.05"/>
<polygon fill="black" stroke="black" points="103.53,-133.02 100.03,-123.02 96.53,-133.02 103.53,-133.02"/>
</g>
<!-- 2 -->
<g id="node3" class="node">
<title>2</title>
<ellipse fill="none" stroke="black" cx="42.03" cy="-18" rx="18" ry="18"/>
<text text-anchor="middle" x="42.03" y="-14.3" font-family="Times,serif" font-size="14.00">2</text>
</g>
<!-- 0&#45;&gt;2 -->
<g id="edge2" class="edge">
<title>0&#45;&gt;2</title>
<path fill="none" stroke="black" d="M82.06,-103.37C59.32,-101.5 20.94,-94.49 3.03,-69 -5.53,-56.81 5.86,-43.53 18.51,-33.72"/>
<polygon fill="black" stroke="black" points="20.68,-36.48 26.8,-27.83 16.62,-30.77 20.68,-36.48"/>
<text text-anchor="middle" x="11.53" y="-57.8" font-family="Times,serif" font-size="14.00">?b</text>
</g>
<!-- 1 -->
<g id="node4" class="node">
<title>1</title>
<ellipse fill="none" stroke="black" cx="158.03" cy="-18" rx="18" ry="18"/>
<text text-anchor="middle" x="158.03" y="-14.3" font-family="Times,serif" font-size="14.00">1</text>
</g>
<!-- 0&#45;&gt;1 -->
<g id="edge5" class="edge">
<title>0&#45;&gt;1</title>
<path fill="none" stroke="black" d="M104.64,-87.32C107.93,-77.14 113.03,-64.16 120.03,-54 124.51,-47.5 130.4,-41.33 136.21,-36.04"/>
<polygon fill="black" stroke="black" points="138.62,-38.58 143.92,-29.41 134.06,-33.27 138.62,-38.58"/>
<text text-anchor="middle" x="128.03" y="-57.8" font-family="Times,serif" font-size="14.00">?a</text>
</g>
<!-- 2&#45;&gt;0 -->
<g id="edge3" class="edge">
<title>2&#45;&gt;0</title>
<path fill="none" stroke="black" d="M38.5,-35.83C37.25,-46.07 37.34,-59.05 43.03,-69 49.75,-80.73 62.15,-89.03 73.66,-94.59"/>
<polygon fill="black" stroke="black" points="72.42,-97.87 82.99,-98.64 75.21,-91.45 72.42,-97.87"/>
<text text-anchor="middle" x="51.03" y="-57.8" font-family="Times,serif" font-size="14.00">!d</text>
</g>
<!-- 2&#45;&gt;0 -->
<g id="edge4" class="edge">
<title>2&#45;&gt;0</title>
<path fill="none" stroke="black" d="M51.73,-33.21C60.65,-46.28 74.04,-65.9 84.46,-81.17"/>
<polygon fill="black" stroke="black" points="81.67,-83.29 90.2,-89.58 87.45,-79.35 81.67,-83.29"/>
<text text-anchor="middle" x="82.53" y="-57.8" font-family="Times,serif" font-size="14.00">!x</text>
</g>
<!-- 1&#45;&gt;0 -->
<g id="edge6" class="edge">
<title>1&#45;&gt;0</title>
<path fill="none" stroke="black" d="M152.58,-35.59C148.8,-45.75 143.18,-58.72 136.03,-69 131.83,-75.06 126.46,-80.94 121.17,-86.1"/>
<polygon fill="black" stroke="black" points="118.59,-83.72 113.61,-93.07 123.33,-88.86 118.59,-83.72"/>
<text text-anchor="middle" x="152.03" y="-57.8" font-family="Times,serif" font-size="14.00">!d</text>
</g>
<!-- 1&#45;&gt;0 -->
<g id="edge7" class="edge">
<title>1&#45;&gt;0</title>
<path fill="none" stroke="black" d="M164.75,-34.92C168.03,-45.3 170.1,-58.77 164.03,-69 155.98,-82.59 140.58,-91.24 126.91,-96.55"/>
<polygon fill="black" stroke="black" points="125.69,-93.26 117.38,-99.84 127.98,-99.88 125.69,-93.26"/>
<text text-anchor="middle" x="174.53" y="-57.8" font-family="Times,serif" font-size="14.00">!x</text>
</g>
</g>
</svg>
