<?xml version="1.0" encoding="UTF-8" standalone="no"?>
<!DOCTYPE svg PUBLIC "-//W3C//DTD SVG 1.1//EN"
 "http://www.w3.org/Graphics/SVG/1.1/DTD/svg11.dtd">
<!-- Generated by graphviz version 2.43.0 (0)
 -->
<!-- Title: %3 Pages: 1 -->
<svg width="160pt" height="365pt"
 viewBox="0.00 0.00 160.09 364.78" xmlns="http://www.w3.org/2000/svg" xmlns:xlink="http://www.w3.org/1999/xlink">
<g id="graph0" class="graph" transform="scale(1 1) rotate(0) translate(4 360.78)">
<title>%3</title>
<polygon fill="white" stroke="transparent" points="-4,4 -4,-360.78 156.09,-360.78 156.09,4 -4,4"/>
<!-- ENTRY -->
<g id="node1" class="node">
<title>ENTRY</title>
<ellipse fill="black" stroke="black" cx="76.04" cy="-354.98" rx="1.8" ry="1.8"/>
</g>
<!-- 0 -->
<g id="node3" class="node">
<title>0</title>
<ellipse fill="none" stroke="black" cx="76.04" cy="-259.63" rx="56.59" ry="56.59"/>
<text text-anchor="middle" x="76.04" y="-255.93" font-family="Times,serif" font-size="14.00">0 &lt; Eps.0</text>
</g>
<!-- ENTRY&#45;&gt;0 -->
<g id="edge1" class="edge">
<title>ENTRY&#45;&gt;0</title>
<path fill="none" stroke="black" d="M76.04,-352.93C76.04,-349.67 76.04,-339.18 76.04,-326.37"/>
<polygon fill="black" stroke="black" points="79.54,-326.21 76.04,-316.21 72.54,-326.21 79.54,-326.21"/>
</g>
<!-- 1 -->
<g id="node2" class="node">
<title>1</title>
<ellipse fill="none" stroke="red" cx="76.04" cy="-76.04" rx="76.09" ry="76.09"/>
<text text-anchor="middle" x="76.04" y="-72.34" font-family="Times,serif" font-size="14.00">1 &lt; {a}.{a}.0</text>
</g>
<!-- 0&#45;&gt;1 -->
<g id="edge2" class="edge">
<title>0&#45;&gt;1</title>
<path fill="none" stroke="black" d="M76.04,-202.67C76.04,-189.96 76.04,-176.18 76.04,-162.56"/>
<polygon fill="black" stroke="black" points="79.54,-162.2 76.04,-152.2 72.54,-162.2 79.54,-162.2"/>
<text text-anchor="middle" x="84.04" y="-173.89" font-family="Times,serif" font-size="14.00">!b</text>
</g>
</g>
</svg>
