<?xml version="1.0" encoding="UTF-8" standalone="no"?>
<!DOCTYPE svg PUBLIC "-//W3C//DTD SVG 1.1//EN"
 "http://www.w3.org/Graphics/SVG/1.1/DTD/svg11.dtd">
<!-- Generated by graphviz version 2.43.0 (0)
 -->
<!-- Title: %3 Pages: 1 -->
<svg width="209pt" height="699pt"
 viewBox="0.00 0.00 208.87 699.40" xmlns="http://www.w3.org/2000/svg" xmlns:xlink="http://www.w3.org/1999/xlink">
<g id="graph0" class="graph" transform="scale(1 1) rotate(0) translate(4 695.4)">
<title>%3</title>
<polygon fill="white" stroke="transparent" points="-4,4 -4,-695.4 204.87,-695.4 204.87,4 -4,4"/>
<!-- ENTRY -->
<g id="node1" class="node">
<title>ENTRY</title>
<ellipse fill="black" stroke="black" cx="62.93" cy="-689.6" rx="1.8" ry="1.8"/>
</g>
<!-- 0 -->
<g id="node5" class="node">
<title>0</title>
<ellipse fill="none" stroke="black" cx="62.93" cy="-587.87" rx="62.87" ry="62.87"/>
<text text-anchor="middle" x="62.93" y="-599.17" font-family="Times,serif" font-size="14.00">0 &lt; Eps.0</text>
<text text-anchor="middle" x="62.93" y="-584.17" font-family="Times,serif" font-size="14.00">{b}.5</text>
<text text-anchor="middle" x="62.93" y="-569.17" font-family="Times,serif" font-size="14.00">{b}.{b}.4</text>
</g>
<!-- ENTRY&#45;&gt;0 -->
<g id="edge1" class="edge">
<title>ENTRY&#45;&gt;0</title>
<path fill="none" stroke="black" d="M62.93,-687.48C62.93,-684.17 62.93,-673.87 62.93,-661.1"/>
<polygon fill="black" stroke="black" points="66.43,-660.93 62.93,-650.93 59.43,-660.93 66.43,-660.93"/>
</g>
<!-- 3 -->
<g id="node2" class="node">
<title>3</title>
<ellipse fill="none" stroke="black" cx="62.93" cy="-61.52" rx="61.54" ry="61.54"/>
<text text-anchor="middle" x="62.93" y="-72.82" font-family="Times,serif" font-size="14.00">3 &lt; {b}.4</text>
<text text-anchor="middle" x="62.93" y="-57.82" font-family="Times,serif" font-size="14.00">Eps.1</text>
<text text-anchor="middle" x="62.93" y="-42.82" font-family="Times,serif" font-size="14.00">Eps.5</text>
</g>
<!-- 3&#45;&gt;0 -->
<g id="edge2" class="edge">
<title>3&#45;&gt;0</title>
<path fill="none" stroke="black" d="M62.93,-123.1C62.93,-220.32 62.93,-410.78 62.93,-514.82"/>
<polygon fill="black" stroke="black" points="59.43,-514.92 62.93,-524.92 66.43,-514.92 59.43,-514.92"/>
<text text-anchor="middle" x="70.43" y="-321.7" font-family="Times,serif" font-size="14.00">!a</text>
</g>
<!-- 2 -->
<g id="node3" class="node">
<title>2</title>
<ellipse fill="none" stroke="black" cx="137.93" cy="-236.97" rx="62.87" ry="62.87"/>
<text text-anchor="middle" x="137.93" y="-248.27" font-family="Times,serif" font-size="14.00">2 &lt; Eps.0</text>
<text text-anchor="middle" x="137.93" y="-233.27" font-family="Times,serif" font-size="14.00">{b}.5</text>
<text text-anchor="middle" x="137.93" y="-218.27" font-family="Times,serif" font-size="14.00">{b}.{b}.4</text>
</g>
<!-- 2&#45;&gt;3 -->
<g id="edge3" class="edge">
<title>2&#45;&gt;3</title>
<path fill="none" stroke="black" d="M113.17,-178.69C106.07,-162.29 98.29,-144.3 91.02,-127.47"/>
<polygon fill="black" stroke="black" points="94.22,-126.05 87.03,-118.26 87.79,-128.83 94.22,-126.05"/>
<text text-anchor="middle" x="111.43" y="-144.84" font-family="Times,serif" font-size="14.00">?b</text>
</g>
<!-- 1 -->
<g id="node4" class="node">
<title>1</title>
<ellipse fill="none" stroke="black" cx="136.93" cy="-412.42" rx="61.54" ry="61.54"/>
<text text-anchor="middle" x="136.93" y="-423.72" font-family="Times,serif" font-size="14.00">1 &lt; {b}.4</text>
<text text-anchor="middle" x="136.93" y="-408.72" font-family="Times,serif" font-size="14.00">Eps.1</text>
<text text-anchor="middle" x="136.93" y="-393.72" font-family="Times,serif" font-size="14.00">Eps.5</text>
</g>
<!-- 1&#45;&gt;2 -->
<g id="edge4" class="edge">
<title>1&#45;&gt;2</title>
<path fill="none" stroke="black" d="M137.28,-350.76C137.36,-337.68 137.44,-323.73 137.52,-310.25"/>
<polygon fill="black" stroke="black" points="141.02,-310.09 137.57,-300.07 134.02,-310.05 141.02,-310.09"/>
<text text-anchor="middle" x="144.43" y="-321.7" font-family="Times,serif" font-size="14.00">!a</text>
</g>
<!-- 0&#45;&gt;1 -->
<g id="edge5" class="edge">
<title>0&#45;&gt;1</title>
<path fill="none" stroke="black" d="M87.37,-529.6C94.37,-513.19 102.04,-495.2 109.22,-478.37"/>
<polygon fill="black" stroke="black" points="112.45,-479.73 113.15,-469.16 106.01,-476.98 112.45,-479.73"/>
<text text-anchor="middle" x="111.43" y="-495.74" font-family="Times,serif" font-size="14.00">?b</text>
</g>
</g>
</svg>
