<?xml version="1.0" encoding="UTF-8" standalone="no"?>
<!DOCTYPE svg PUBLIC "-//W3C//DTD SVG 1.1//EN"
 "http://www.w3.org/Graphics/SVG/1.1/DTD/svg11.dtd">
<!-- Generated by graphviz version 2.43.0 (0)
 -->
<!-- Title: %3 Pages: 1 -->
<svg width="536pt" height="807pt"
 viewBox="0.00 0.00 535.56 806.80" xmlns="http://www.w3.org/2000/svg" xmlns:xlink="http://www.w3.org/1999/xlink">
<g id="graph0" class="graph" transform="scale(1 1) rotate(0) translate(4 802.8)">
<title>%3</title>
<polygon fill="white" stroke="transparent" points="-4,4 -4,-802.8 531.56,-802.8 531.56,4 -4,4"/>
<!-- ENTRY -->
<g id="node1" class="node">
<title>ENTRY</title>
<ellipse fill="black" stroke="black" cx="247.28" cy="-797" rx="1.8" ry="1.8"/>
</g>
<!-- 0 -->
<g id="node3" class="node">
<title>0</title>
<ellipse fill="none" stroke="black" cx="247.28" cy="-641.52" rx="116.85" ry="116.85"/>
<text text-anchor="middle" x="247.28" y="-652.82" font-family="Times,serif" font-size="14.00">0 &lt; {a}.{a}.({a})*.1</text>
<text text-anchor="middle" x="247.28" y="-637.82" font-family="Times,serif" font-size="14.00">Eps.0</text>
<text text-anchor="middle" x="247.28" y="-622.82" font-family="Times,serif" font-size="14.00">({a,b})*.{b}.4</text>
</g>
<!-- ENTRY&#45;&gt;0 -->
<g id="edge1" class="edge">
<title>ENTRY&#45;&gt;0</title>
<path fill="none" stroke="black" d="M247.28,-795.02C247.28,-791.97 247.28,-782.1 247.28,-768.73"/>
<polygon fill="black" stroke="black" points="250.78,-768.43 247.28,-758.43 243.78,-768.43 250.78,-768.43"/>
</g>
<!-- 1 -->
<g id="node2" class="node">
<title>1</title>
<ellipse fill="none" stroke="black" cx="127.28" cy="-389.7" rx="84.29" ry="84.29"/>
<text text-anchor="middle" x="127.28" y="-401" font-family="Times,serif" font-size="14.00">1 &lt; Eps.1</text>
<text text-anchor="middle" x="127.28" y="-386" font-family="Times,serif" font-size="14.00">{a}.1</text>
<text text-anchor="middle" x="127.28" y="-371" font-family="Times,serif" font-size="14.00">({a,b})*.{b}.4</text>
</g>
<!-- 2 -->
<g id="node6" class="node">
<title>2</title>
<ellipse fill="none" stroke="black" cx="127.28" cy="-127.28" rx="127.06" ry="127.06"/>
<text text-anchor="middle" x="127.28" y="-153.58" font-family="Times,serif" font-size="14.00">2 &lt; ({a,b})*.{b}.{b}.4</text>
<text text-anchor="middle" x="127.28" y="-138.58" font-family="Times,serif" font-size="14.00">{a}.{b}.4</text>
<text text-anchor="middle" x="127.28" y="-123.58" font-family="Times,serif" font-size="14.00">{b}.4</text>
<text text-anchor="middle" x="127.28" y="-108.58" font-family="Times,serif" font-size="14.00">{a}.1</text>
<text text-anchor="middle" x="127.28" y="-93.58" font-family="Times,serif" font-size="14.00">{a}.{a}.1</text>
</g>
<!-- 1&#45;&gt;2 -->
<g id="edge5" class="edge">
<title>1&#45;&gt;2</title>
<path fill="none" stroke="black" d="M127.28,-305.23C127.28,-292.3 127.28,-278.66 127.28,-264.93"/>
<polygon fill="black" stroke="black" points="130.78,-264.92 127.28,-254.92 123.78,-264.92 130.78,-264.92"/>
<text text-anchor="middle" x="134.78" y="-276.36" font-family="Times,serif" font-size="14.00">!x</text>
</g>
<!-- 0&#45;&gt;1 -->
<g id="edge6" class="edge">
<title>0&#45;&gt;1</title>
<path fill="none" stroke="black" d="M197.08,-536.02C187.33,-515.71 177.21,-494.65 167.81,-475.09"/>
<polygon fill="black" stroke="black" points="170.89,-473.41 163.41,-465.91 164.58,-476.44 170.89,-473.41"/>
<text text-anchor="middle" x="188.28" y="-495.65" font-family="Times,serif" font-size="14.00">?a</text>
</g>
<!-- 3 -->
<g id="node4" class="node">
<title>3</title>
<ellipse fill="none" stroke="black" cx="382.28" cy="-389.7" rx="84.29" ry="84.29"/>
<text text-anchor="middle" x="382.28" y="-393.5" font-family="Times,serif" font-size="14.00">3 &lt; Eps.4</text>
<text text-anchor="middle" x="382.28" y="-378.5" font-family="Times,serif" font-size="14.00">({a,b})*.{b}.4</text>
</g>
<!-- 0&#45;&gt;3 -->
<g id="edge3" class="edge">
<title>0&#45;&gt;3</title>
<path fill="none" stroke="black" d="M302.38,-538.55C314.19,-516.71 326.51,-493.9 337.85,-472.92"/>
<polygon fill="black" stroke="black" points="340.97,-474.51 342.64,-464.05 334.81,-471.18 340.97,-474.51"/>
<text text-anchor="middle" x="335.78" y="-495.65" font-family="Times,serif" font-size="14.00">?b</text>
</g>
<!-- 4 -->
<g id="node5" class="node">
<title>4</title>
<ellipse fill="none" stroke="red" cx="400.28" cy="-127.28" rx="127.06" ry="127.06"/>
<text text-anchor="middle" x="400.28" y="-131.08" font-family="Times,serif" font-size="14.00">4 &lt; ({a,b})*.{b}.{b}.5</text>
<text text-anchor="middle" x="400.28" y="-116.08" font-family="Times,serif" font-size="14.00">{b}.({b})*.5</text>
</g>
<!-- 3&#45;&gt;4 -->
<g id="edge2" class="edge">
<title>3&#45;&gt;4</title>
<path fill="none" stroke="black" d="M388.02,-305.59C388.93,-292.41 389.9,-278.49 390.87,-264.48"/>
<polygon fill="black" stroke="black" points="394.37,-264.49 391.57,-254.27 387.39,-264 394.37,-264.49"/>
<text text-anchor="middle" x="397.78" y="-276.36" font-family="Times,serif" font-size="14.00">!y</text>
</g>
<!-- 2&#45;&gt;0 -->
<g id="edge4" class="edge">
<title>2&#45;&gt;0</title>
<path fill="none" stroke="black" d="M192.74,-236.51C203.64,-258.69 213.56,-282.36 220.28,-305.56 239.76,-372.85 246.91,-450.71 249,-514.42"/>
<polygon fill="black" stroke="black" points="245.51,-514.63 249.3,-524.52 252.5,-514.42 245.51,-514.63"/>
<text text-anchor="middle" x="254.78" y="-386" font-family="Times,serif" font-size="14.00">!x</text>
</g>
</g>
</svg>
