<?xml version="1.0" encoding="UTF-8" standalone="no"?>
<!DOCTYPE svg PUBLIC "-//W3C//DTD SVG 1.1//EN"
 "http://www.w3.org/Graphics/SVG/1.1/DTD/svg11.dtd">
<!-- Generated by graphviz version 2.43.0 (0)
 -->
<!-- Title: %3 Pages: 1 -->
<svg width="148pt" height="433pt"
 viewBox="0.00 0.00 148.00 432.60" xmlns="http://www.w3.org/2000/svg" xmlns:xlink="http://www.w3.org/1999/xlink">
<g id="graph0" class="graph" transform="scale(1 1) rotate(0) translate(4 428.6)">
<title>%3</title>
<polygon fill="white" stroke="transparent" points="-4,4 -4,-428.6 144,-428.6 144,4 -4,4"/>
<!-- ENTRY -->
<g id="node1" class="node">
<title>ENTRY</title>
<ellipse fill="black" stroke="black" cx="96" cy="-422.8" rx="1.8" ry="1.8"/>
</g>
<!-- 0 -->
<g id="node2" class="node">
<title>0</title>
<ellipse fill="none" stroke="black" cx="96" cy="-366" rx="18" ry="18"/>
<text text-anchor="middle" x="96" y="-362.3" font-family="Times,serif" font-size="14.00">0</text>
</g>
<!-- ENTRY&#45;&gt;0 -->
<g id="edge1" class="edge">
<title>ENTRY&#45;&gt;0</title>
<path fill="none" stroke="black" d="M96,-420.85C96,-417.49 96,-405.73 96,-394.05"/>
<polygon fill="black" stroke="black" points="99.5,-394.02 96,-384.02 92.5,-394.02 99.5,-394.02"/>
</g>
<!-- 1 -->
<g id="node3" class="node">
<title>1</title>
<ellipse fill="none" stroke="black" cx="96" cy="-279" rx="18" ry="18"/>
<text text-anchor="middle" x="96" y="-275.3" font-family="Times,serif" font-size="14.00">1</text>
</g>
<!-- 0&#45;&gt;1 -->
<g id="edge2" class="edge">
<title>0&#45;&gt;1</title>
<path fill="none" stroke="black" d="M96,-347.8C96,-336.16 96,-320.55 96,-307.24"/>
<polygon fill="black" stroke="black" points="99.5,-307.18 96,-297.18 92.5,-307.18 99.5,-307.18"/>
<text text-anchor="middle" x="104" y="-318.8" font-family="Times,serif" font-size="14.00">?a</text>
</g>
<!-- 3 -->
<g id="node4" class="node">
<title>3</title>
<ellipse fill="none" stroke="black" cx="56" cy="-192" rx="18" ry="18"/>
<text text-anchor="middle" x="56" y="-188.3" font-family="Times,serif" font-size="14.00">3</text>
</g>
<!-- 1&#45;&gt;3 -->
<g id="edge3" class="edge">
<title>1&#45;&gt;3</title>
<path fill="none" stroke="black" d="M85.75,-264.18C81.42,-257.93 76.58,-250.32 73,-243 69.36,-235.55 66.17,-227.13 63.57,-219.35"/>
<polygon fill="black" stroke="black" points="66.85,-218.11 60.5,-209.63 60.17,-220.22 66.85,-218.11"/>
<text text-anchor="middle" x="81.5" y="-231.8" font-family="Times,serif" font-size="14.00">?b</text>
</g>
<!-- 2 -->
<g id="node8" class="node">
<title>2</title>
<ellipse fill="none" stroke="black" cx="122" cy="-192" rx="18" ry="18"/>
<text text-anchor="middle" x="122" y="-188.3" font-family="Times,serif" font-size="14.00">2</text>
</g>
<!-- 1&#45;&gt;2 -->
<g id="edge8" class="edge">
<title>1&#45;&gt;2</title>
<path fill="none" stroke="black" d="M93.88,-260.91C93.25,-251.05 93.5,-238.55 97,-228 98.59,-223.2 101.09,-218.49 103.9,-214.17"/>
<polygon fill="black" stroke="black" points="106.86,-216.04 109.93,-205.9 101.21,-211.92 106.86,-216.04"/>
<text text-anchor="middle" x="105" y="-231.8" font-family="Times,serif" font-size="14.00">?a</text>
</g>
<!-- 5 -->
<g id="node5" class="node">
<title>5</title>
<ellipse fill="none" stroke="black" cx="18" cy="-105" rx="18" ry="18"/>
<text text-anchor="middle" x="18" y="-101.3" font-family="Times,serif" font-size="14.00">5</text>
</g>
<!-- 3&#45;&gt;5 -->
<g id="edge4" class="edge">
<title>3&#45;&gt;5</title>
<path fill="none" stroke="black" d="M46.29,-176.39C42.46,-170.26 38.22,-162.94 35,-156 31.51,-148.48 28.37,-140.04 25.76,-132.26"/>
<polygon fill="black" stroke="black" points="29.04,-131.01 22.66,-122.56 22.37,-133.15 29.04,-131.01"/>
<text text-anchor="middle" x="42.5" y="-144.8" font-family="Times,serif" font-size="14.00">!y</text>
</g>
<!-- 4 -->
<g id="node7" class="node">
<title>4</title>
<ellipse fill="none" stroke="black" cx="83" cy="-105" rx="18" ry="18"/>
<text text-anchor="middle" x="83" y="-101.3" font-family="Times,serif" font-size="14.00">4</text>
</g>
<!-- 3&#45;&gt;4 -->
<g id="edge6" class="edge">
<title>3&#45;&gt;4</title>
<path fill="none" stroke="black" d="M53.8,-173.89C53.15,-164.02 53.4,-151.52 57,-141 58.73,-135.94 61.49,-131 64.57,-126.51"/>
<polygon fill="black" stroke="black" points="67.41,-128.56 70.73,-118.5 61.86,-124.3 67.41,-128.56"/>
<text text-anchor="middle" x="64.5" y="-144.8" font-family="Times,serif" font-size="14.00">!x</text>
</g>
<!-- 6 -->
<g id="node6" class="node">
<title>6</title>
<ellipse fill="none" stroke="black" cx="18" cy="-18" rx="18" ry="18"/>
<text text-anchor="middle" x="18" y="-14.3" font-family="Times,serif" font-size="14.00">6</text>
</g>
<!-- 5&#45;&gt;6 -->
<g id="edge5" class="edge">
<title>5&#45;&gt;6</title>
<path fill="none" stroke="black" d="M18,-86.8C18,-75.16 18,-59.55 18,-46.24"/>
<polygon fill="black" stroke="black" points="21.5,-46.18 18,-36.18 14.5,-46.18 21.5,-46.18"/>
<text text-anchor="middle" x="26" y="-57.8" font-family="Times,serif" font-size="14.00">?e</text>
</g>
<!-- 4&#45;&gt;3 -->
<g id="edge7" class="edge">
<title>4&#45;&gt;3</title>
<path fill="none" stroke="black" d="M80.21,-122.91C78.36,-132.71 75.61,-145.21 72,-156 70.86,-159.4 69.5,-162.91 68.06,-166.33"/>
<polygon fill="black" stroke="black" points="64.8,-165.05 63.89,-175.61 71.18,-167.92 64.8,-165.05"/>
<text text-anchor="middle" x="84.5" y="-144.8" font-family="Times,serif" font-size="14.00">?b</text>
</g>
<!-- 2&#45;&gt;1 -->
<g id="edge9" class="edge">
<title>2&#45;&gt;1</title>
<path fill="none" stroke="black" d="M120.12,-209.95C118.75,-219.77 116.5,-232.27 113,-243 111.82,-246.62 110.34,-250.34 108.74,-253.94"/>
<polygon fill="black" stroke="black" points="105.54,-252.51 104.38,-263.04 111.86,-255.54 105.54,-252.51"/>
<text text-anchor="middle" x="123.5" y="-231.8" font-family="Times,serif" font-size="14.00">!x</text>
</g>
</g>
</svg>
