<?xml version="1.0" encoding="UTF-8" standalone="no"?>
<!DOCTYPE svg PUBLIC "-//W3C//DTD SVG 1.1//EN"
 "http://www.w3.org/Graphics/SVG/1.1/DTD/svg11.dtd">
<!-- Generated by graphviz version 2.43.0 (0)
 -->
<!-- Title: %3 Pages: 1 -->
<svg width="261pt" height="1194pt"
 viewBox="0.00 0.00 261.14 1194.46" xmlns="http://www.w3.org/2000/svg" xmlns:xlink="http://www.w3.org/1999/xlink">
<g id="graph0" class="graph" transform="scale(1 1) rotate(0) translate(4 1190.46)">
<title>%3</title>
<polygon fill="white" stroke="transparent" points="-4,4 -4,-1190.46 257.14,-1190.46 257.14,4 -4,4"/>
<!-- ENTRY -->
<g id="node1" class="node">
<title>ENTRY</title>
<ellipse fill="black" stroke="black" cx="126.57" cy="-1184.66" rx="1.8" ry="1.8"/>
</g>
<!-- 0 -->
<g id="node3" class="node">
<title>0</title>
<ellipse fill="none" stroke="black" cx="126.57" cy="-1089.32" rx="56.59" ry="56.59"/>
<text text-anchor="middle" x="126.57" y="-1085.62" font-family="Times,serif" font-size="14.00">0 &lt; Eps.0</text>
</g>
<!-- ENTRY&#45;&gt;0 -->
<g id="edge1" class="edge">
<title>ENTRY&#45;&gt;0</title>
<path fill="none" stroke="black" d="M126.57,-1182.61C126.57,-1179.36 126.57,-1168.86 126.57,-1156.06"/>
<polygon fill="black" stroke="black" points="130.07,-1155.9 126.57,-1145.9 123.07,-1155.9 130.07,-1155.9"/>
</g>
<!-- 2 -->
<g id="node2" class="node">
<title>2</title>
<ellipse fill="none" stroke="black" cx="126.57" cy="-756.87" rx="60.62" ry="60.62"/>
<text text-anchor="middle" x="126.57" y="-760.67" font-family="Times,serif" font-size="14.00">2 &lt; {y}.4</text>
<text text-anchor="middle" x="126.57" y="-745.67" font-family="Times,serif" font-size="14.00">{x}.1</text>
</g>
<!-- 3 -->
<g id="node4" class="node">
<title>3</title>
<ellipse fill="none" stroke="black" cx="126.57" cy="-583.54" rx="61.54" ry="61.54"/>
<text text-anchor="middle" x="126.57" y="-587.34" font-family="Times,serif" font-size="14.00">3 &lt; {y}.5</text>
<text text-anchor="middle" x="126.57" y="-572.34" font-family="Times,serif" font-size="14.00">{x}.{x}.2</text>
</g>
<!-- 2&#45;&gt;3 -->
<g id="edge2" class="edge">
<title>2&#45;&gt;3</title>
<path fill="none" stroke="black" d="M126.57,-695.95C126.57,-682.87 126.57,-668.92 126.57,-655.47"/>
<polygon fill="black" stroke="black" points="130.07,-655.3 126.57,-645.3 123.07,-655.3 130.07,-655.3"/>
<text text-anchor="middle" x="134.07" y="-666.86" font-family="Times,serif" font-size="14.00">!a</text>
</g>
<!-- 1 -->
<g id="node5" class="node">
<title>1</title>
<ellipse fill="none" stroke="black" cx="126.57" cy="-925.23" rx="56.59" ry="56.59"/>
<text text-anchor="middle" x="126.57" y="-921.53" font-family="Times,serif" font-size="14.00">1 &lt; Eps.2</text>
</g>
<!-- 0&#45;&gt;1 -->
<g id="edge3" class="edge">
<title>0&#45;&gt;1</title>
<path fill="none" stroke="black" d="M126.57,-1032.53C126.57,-1019.47 126.57,-1005.44 126.57,-991.98"/>
<polygon fill="black" stroke="black" points="130.07,-991.84 126.57,-981.84 123.07,-991.84 130.07,-991.84"/>
<text text-anchor="middle" x="134.07" y="-1003.57" font-family="Times,serif" font-size="14.00">!a</text>
</g>
<!-- 4 -->
<g id="node7" class="node">
<title>4</title>
<ellipse fill="none" stroke="black" cx="126.57" cy="-387.58" rx="83.38" ry="83.38"/>
<text text-anchor="middle" x="126.57" y="-398.88" font-family="Times,serif" font-size="14.00">4 &lt; {y}.{x}.6</text>
<text text-anchor="middle" x="126.57" y="-383.88" font-family="Times,serif" font-size="14.00">{x}.{x}.{y}.4</text>
<text text-anchor="middle" x="126.57" y="-368.88" font-family="Times,serif" font-size="14.00">{x}.{x}.{x}.1</text>
</g>
<!-- 3&#45;&gt;4 -->
<g id="edge5" class="edge">
<title>3&#45;&gt;4</title>
<path fill="none" stroke="black" d="M126.57,-521.97C126.57,-509 126.57,-495.01 126.57,-481.15"/>
<polygon fill="black" stroke="black" points="130.07,-481.09 126.57,-471.09 123.07,-481.09 130.07,-481.09"/>
<text text-anchor="middle" x="134.57" y="-492.82" font-family="Times,serif" font-size="14.00">!b</text>
</g>
<!-- 1&#45;&gt;2 -->
<g id="edge4" class="edge">
<title>1&#45;&gt;2</title>
<path fill="none" stroke="black" d="M126.57,-868.37C126.57,-855.43 126.57,-841.5 126.57,-828.04"/>
<polygon fill="black" stroke="black" points="130.07,-827.86 126.57,-817.86 123.07,-827.86 130.07,-827.86"/>
<text text-anchor="middle" x="134.57" y="-839.48" font-family="Times,serif" font-size="14.00">!b</text>
</g>
<!-- 5 -->
<g id="node6" class="node">
<title>5</title>
<ellipse fill="none" stroke="red" cx="126.57" cy="-126.57" rx="126.64" ry="126.64"/>
<text text-anchor="middle" x="126.57" y="-137.87" font-family="Times,serif" font-size="14.00">5 &lt; {x}.{x}.{x}.{x}.2</text>
<text text-anchor="middle" x="126.57" y="-122.87" font-family="Times,serif" font-size="14.00">{x}.{x}.{y}.5</text>
<text text-anchor="middle" x="126.57" y="-107.87" font-family="Times,serif" font-size="14.00">{y}.{x}.{y}.5</text>
</g>
<!-- 4&#45;&gt;5 -->
<g id="edge6" class="edge">
<title>4&#45;&gt;5</title>
<path fill="none" stroke="black" d="M126.57,-303.92C126.57,-290.93 126.57,-277.22 126.57,-263.41"/>
<polygon fill="black" stroke="black" points="130.07,-263.35 126.57,-253.35 123.07,-263.35 130.07,-263.35"/>
<text text-anchor="middle" x="134.07" y="-274.94" font-family="Times,serif" font-size="14.00">!a</text>
</g>
</g>
</svg>
