<?xml version="1.0" encoding="UTF-8" standalone="no"?>
<!DOCTYPE svg PUBLIC "-//W3C//DTD SVG 1.1//EN"
 "http://www.w3.org/Graphics/SVG/1.1/DTD/svg11.dtd">
<!-- Generated by graphviz version 2.43.0 (0)
 -->
<!-- Title: %3 Pages: 1 -->
<svg width="127pt" height="694pt"
 viewBox="0.00 0.00 127.00 693.60" xmlns="http://www.w3.org/2000/svg" xmlns:xlink="http://www.w3.org/1999/xlink">
<g id="graph0" class="graph" transform="scale(1 1) rotate(0) translate(4 689.6)">
<title>%3</title>
<polygon fill="white" stroke="transparent" points="-4,4 -4,-689.6 123,-689.6 123,4 -4,4"/>
<!-- ENTRY -->
<g id="node1" class="node">
<title>ENTRY</title>
<ellipse fill="black" stroke="black" cx="64" cy="-683.8" rx="1.8" ry="1.8"/>
</g>
<!-- 0 -->
<g id="node2" class="node">
<title>0</title>
<ellipse fill="none" stroke="black" cx="64" cy="-627" rx="18" ry="18"/>
<text text-anchor="middle" x="64" y="-623.3" font-family="Times,serif" font-size="14.00">0</text>
</g>
<!-- ENTRY&#45;&gt;0 -->
<g id="edge1" class="edge">
<title>ENTRY&#45;&gt;0</title>
<path fill="none" stroke="black" d="M64,-681.85C64,-678.49 64,-666.73 64,-655.05"/>
<polygon fill="black" stroke="black" points="67.5,-655.02 64,-645.02 60.5,-655.02 67.5,-655.02"/>
</g>
<!-- 1 -->
<g id="node3" class="node">
<title>1</title>
<ellipse fill="none" stroke="black" cx="18" cy="-540" rx="18" ry="18"/>
<text text-anchor="middle" x="18" y="-536.3" font-family="Times,serif" font-size="14.00">1</text>
</g>
<!-- 0&#45;&gt;1 -->
<g id="edge2" class="edge">
<title>0&#45;&gt;1</title>
<path fill="none" stroke="black" d="M51.77,-613.54C46.06,-607.2 39.54,-599.13 35,-591 30.96,-583.77 27.65,-575.41 25.06,-567.62"/>
<polygon fill="black" stroke="black" points="28.35,-566.39 22.07,-557.85 21.65,-568.44 28.35,-566.39"/>
<text text-anchor="middle" x="42.5" y="-579.8" font-family="Times,serif" font-size="14.00">!a</text>
</g>
<!-- 2 -->
<g id="node4" class="node">
<title>2</title>
<ellipse fill="none" stroke="black" cx="18" cy="-453" rx="18" ry="18"/>
<text text-anchor="middle" x="18" y="-449.3" font-family="Times,serif" font-size="14.00">2</text>
</g>
<!-- 1&#45;&gt;2 -->
<g id="edge3" class="edge">
<title>1&#45;&gt;2</title>
<path fill="none" stroke="black" d="M18,-521.8C18,-510.16 18,-494.55 18,-481.24"/>
<polygon fill="black" stroke="black" points="21.5,-481.18 18,-471.18 14.5,-481.18 21.5,-481.18"/>
<text text-anchor="middle" x="26" y="-492.8" font-family="Times,serif" font-size="14.00">!b</text>
</g>
<!-- 3 -->
<g id="node5" class="node">
<title>3</title>
<ellipse fill="none" stroke="black" cx="18" cy="-366" rx="18" ry="18"/>
<text text-anchor="middle" x="18" y="-362.3" font-family="Times,serif" font-size="14.00">3</text>
</g>
<!-- 2&#45;&gt;3 -->
<g id="edge4" class="edge">
<title>2&#45;&gt;3</title>
<path fill="none" stroke="black" d="M18,-434.8C18,-423.16 18,-407.55 18,-394.24"/>
<polygon fill="black" stroke="black" points="21.5,-394.18 18,-384.18 14.5,-394.18 21.5,-394.18"/>
<text text-anchor="middle" x="25.5" y="-405.8" font-family="Times,serif" font-size="14.00">!a</text>
</g>
<!-- 4 -->
<g id="node6" class="node">
<title>4</title>
<ellipse fill="none" stroke="black" cx="18" cy="-279" rx="18" ry="18"/>
<text text-anchor="middle" x="18" y="-275.3" font-family="Times,serif" font-size="14.00">4</text>
</g>
<!-- 3&#45;&gt;4 -->
<g id="edge5" class="edge">
<title>3&#45;&gt;4</title>
<path fill="none" stroke="black" d="M18,-347.8C18,-336.16 18,-320.55 18,-307.24"/>
<polygon fill="black" stroke="black" points="21.5,-307.18 18,-297.18 14.5,-307.18 21.5,-307.18"/>
<text text-anchor="middle" x="26" y="-318.8" font-family="Times,serif" font-size="14.00">!b</text>
</g>
<!-- 5 -->
<g id="node7" class="node">
<title>5</title>
<ellipse fill="none" stroke="black" cx="18" cy="-192" rx="18" ry="18"/>
<text text-anchor="middle" x="18" y="-188.3" font-family="Times,serif" font-size="14.00">5</text>
</g>
<!-- 4&#45;&gt;5 -->
<g id="edge6" class="edge">
<title>4&#45;&gt;5</title>
<path fill="none" stroke="black" d="M18,-260.8C18,-249.16 18,-233.55 18,-220.24"/>
<polygon fill="black" stroke="black" points="21.5,-220.18 18,-210.18 14.5,-220.18 21.5,-220.18"/>
<text text-anchor="middle" x="25.5" y="-231.8" font-family="Times,serif" font-size="14.00">!a</text>
</g>
<!-- 6 -->
<g id="node8" class="node">
<title>6</title>
<ellipse fill="none" stroke="black" cx="18" cy="-105" rx="18" ry="18"/>
<text text-anchor="middle" x="18" y="-101.3" font-family="Times,serif" font-size="14.00">6</text>
</g>
<!-- 5&#45;&gt;6 -->
<g id="edge7" class="edge">
<title>5&#45;&gt;6</title>
<path fill="none" stroke="black" d="M18,-173.8C18,-162.16 18,-146.55 18,-133.24"/>
<polygon fill="black" stroke="black" points="21.5,-133.18 18,-123.18 14.5,-133.18 21.5,-133.18"/>
<text text-anchor="middle" x="25.5" y="-144.8" font-family="Times,serif" font-size="14.00">!a</text>
</g>
<!-- 7 -->
<g id="node9" class="node">
<title>7</title>
<ellipse fill="none" stroke="black" cx="64" cy="-18" rx="18" ry="18"/>
<text text-anchor="middle" x="64" y="-14.3" font-family="Times,serif" font-size="14.00">7</text>
</g>
<!-- 6&#45;&gt;7 -->
<g id="edge8" class="edge">
<title>6&#45;&gt;7</title>
<path fill="none" stroke="black" d="M21.62,-87.1C24.19,-77.08 28.22,-64.35 34,-54 37,-48.63 40.9,-43.33 44.9,-38.54"/>
<polygon fill="black" stroke="black" points="47.53,-40.84 51.56,-31.04 42.3,-36.19 47.53,-40.84"/>
<text text-anchor="middle" x="42" y="-57.8" font-family="Times,serif" font-size="14.00">!b</text>
</g>
<!-- 7&#45;&gt;0 -->
<g id="edge9" class="edge">
<title>7&#45;&gt;0</title>
<path fill="none" stroke="black" d="M64,-36.26C64,-53.43 64,-80.54 64,-104 64,-541 64,-541 64,-541 64,-560.25 64,-581.95 64,-598.6"/>
<polygon fill="black" stroke="black" points="60.5,-598.74 64,-608.74 67.5,-598.74 60.5,-598.74"/>
<text text-anchor="middle" x="72" y="-318.8" font-family="Times,serif" font-size="14.00">?y</text>
</g>
<!-- 7&#45;&gt;0 -->
<g id="edge10" class="edge">
<title>7&#45;&gt;0</title>
<path fill="none" stroke="black" d="M74.66,-32.56C86.2,-48.64 103,-76.72 103,-104 103,-541 103,-541 103,-541 103,-564.01 91.04,-587.6 80.37,-604.07"/>
<polygon fill="black" stroke="black" points="77.4,-602.21 74.66,-612.44 83.19,-606.16 77.4,-602.21"/>
<text text-anchor="middle" x="111" y="-318.8" font-family="Times,serif" font-size="14.00">?x</text>
</g>
</g>
</svg>
