<?xml version="1.0" encoding="UTF-8" standalone="no"?>
<!DOCTYPE svg PUBLIC "-//W3C//DTD SVG 1.1//EN"
 "http://www.w3.org/Graphics/SVG/1.1/DTD/svg11.dtd">
<!-- Generated by graphviz version 2.43.0 (0)
 -->
<!-- Title: %3 Pages: 1 -->
<svg width="171pt" height="433pt"
 viewBox="0.00 0.00 170.61 432.60" xmlns="http://www.w3.org/2000/svg" xmlns:xlink="http://www.w3.org/1999/xlink">
<g id="graph0" class="graph" transform="scale(1 1) rotate(0) translate(4 428.6)">
<title>%3</title>
<polygon fill="white" stroke="transparent" points="-4,4 -4,-428.6 166.61,-428.6 166.61,4 -4,4"/>
<!-- ENTRY -->
<g id="node1" class="node">
<title>ENTRY</title>
<ellipse fill="black" stroke="black" cx="105.61" cy="-422.8" rx="1.8" ry="1.8"/>
</g>
<!-- 0 -->
<g id="node2" class="node">
<title>0</title>
<ellipse fill="none" stroke="black" cx="105.61" cy="-366" rx="18" ry="18"/>
<text text-anchor="middle" x="105.61" y="-362.3" font-family="Times,serif" font-size="14.00">0</text>
</g>
<!-- ENTRY&#45;&gt;0 -->
<g id="edge1" class="edge">
<title>ENTRY&#45;&gt;0</title>
<path fill="none" stroke="black" d="M105.61,-420.85C105.61,-417.49 105.61,-405.73 105.61,-394.05"/>
<polygon fill="black" stroke="black" points="109.11,-394.02 105.61,-384.02 102.11,-394.02 109.11,-394.02"/>
</g>
<!-- 2 -->
<g id="node3" class="node">
<title>2</title>
<ellipse fill="none" stroke="black" cx="59.61" cy="-279" rx="18" ry="18"/>
<text text-anchor="middle" x="59.61" y="-275.3" font-family="Times,serif" font-size="14.00">2</text>
</g>
<!-- 0&#45;&gt;2 -->
<g id="edge2" class="edge">
<title>0&#45;&gt;2</title>
<path fill="none" stroke="black" d="M88.78,-359.6C75.51,-354.35 57.89,-344.94 49.61,-330 45.4,-322.4 45.89,-313.29 48.09,-304.93"/>
<polygon fill="black" stroke="black" points="51.47,-305.86 51.42,-295.27 44.85,-303.58 51.47,-305.86"/>
<text text-anchor="middle" x="57.11" y="-318.8" font-family="Times,serif" font-size="14.00">!a</text>
</g>
<!-- 1 -->
<g id="node8" class="node">
<title>1</title>
<ellipse fill="none" stroke="black" cx="144.61" cy="-279" rx="18" ry="18"/>
<text text-anchor="middle" x="144.61" y="-275.3" font-family="Times,serif" font-size="14.00">1</text>
</g>
<!-- 0&#45;&gt;1 -->
<g id="edge10" class="edge">
<title>0&#45;&gt;1</title>
<path fill="none" stroke="black" d="M111.92,-349.1C115.94,-339.21 121.36,-326.26 126.61,-315 128.24,-311.51 130.02,-307.87 131.81,-304.3"/>
<polygon fill="black" stroke="black" points="135.02,-305.7 136.47,-295.21 128.79,-302.51 135.02,-305.7"/>
<text text-anchor="middle" x="134.61" y="-318.8" font-family="Times,serif" font-size="14.00">!b</text>
</g>
<!-- 2&#45;&gt;0 -->
<g id="edge9" class="edge">
<title>2&#45;&gt;0</title>
<path fill="none" stroke="black" d="M67.77,-295.06C74.61,-307.72 84.53,-326.04 92.49,-340.75"/>
<polygon fill="black" stroke="black" points="89.55,-342.67 97.39,-349.8 95.71,-339.34 89.55,-342.67"/>
<text text-anchor="middle" x="93.61" y="-318.8" font-family="Times,serif" font-size="14.00">?x</text>
</g>
<!-- 3 -->
<g id="node4" class="node">
<title>3</title>
<ellipse fill="none" stroke="black" cx="59.61" cy="-192" rx="18" ry="18"/>
<text text-anchor="middle" x="59.61" y="-188.3" font-family="Times,serif" font-size="14.00">3</text>
</g>
<!-- 2&#45;&gt;3 -->
<g id="edge3" class="edge">
<title>2&#45;&gt;3</title>
<path fill="none" stroke="black" d="M59.61,-260.8C59.61,-249.16 59.61,-233.55 59.61,-220.24"/>
<polygon fill="black" stroke="black" points="63.11,-220.18 59.61,-210.18 56.11,-220.18 63.11,-220.18"/>
<text text-anchor="middle" x="67.61" y="-231.8" font-family="Times,serif" font-size="14.00">?y</text>
</g>
<!-- 4 -->
<g id="node5" class="node">
<title>4</title>
<ellipse fill="none" stroke="black" cx="59.61" cy="-105" rx="18" ry="18"/>
<text text-anchor="middle" x="59.61" y="-101.3" font-family="Times,serif" font-size="14.00">4</text>
</g>
<!-- 3&#45;&gt;4 -->
<g id="edge4" class="edge">
<title>3&#45;&gt;4</title>
<path fill="none" stroke="black" d="M59.61,-173.8C59.61,-162.16 59.61,-146.55 59.61,-133.24"/>
<polygon fill="black" stroke="black" points="63.11,-133.18 59.61,-123.18 56.11,-133.18 63.11,-133.18"/>
<text text-anchor="middle" x="67.61" y="-144.8" font-family="Times,serif" font-size="14.00">!b</text>
</g>
<!-- 6 -->
<g id="node6" class="node">
<title>6</title>
<ellipse fill="none" stroke="black" cx="26.61" cy="-18" rx="18" ry="18"/>
<text text-anchor="middle" x="26.61" y="-14.3" font-family="Times,serif" font-size="14.00">6</text>
</g>
<!-- 4&#45;&gt;6 -->
<g id="edge5" class="edge">
<title>4&#45;&gt;6</title>
<path fill="none" stroke="black" d="M42.49,-98.68C28.98,-93.48 11.06,-84.1 2.61,-69 -2.79,-59.35 1.49,-48.3 7.85,-39.04"/>
<polygon fill="black" stroke="black" points="10.63,-41.16 14.05,-31.13 5.12,-36.84 10.63,-41.16"/>
<text text-anchor="middle" x="10.61" y="-57.8" font-family="Times,serif" font-size="14.00">!b</text>
</g>
<!-- 5 -->
<g id="node7" class="node">
<title>5</title>
<ellipse fill="none" stroke="black" cx="92.61" cy="-18" rx="18" ry="18"/>
<text text-anchor="middle" x="92.61" y="-14.3" font-family="Times,serif" font-size="14.00">5</text>
</g>
<!-- 4&#45;&gt;5 -->
<g id="edge7" class="edge">
<title>4&#45;&gt;5</title>
<path fill="none" stroke="black" d="M65.82,-88.01C70.57,-75.78 77.21,-58.68 82.69,-44.56"/>
<polygon fill="black" stroke="black" points="86.08,-45.51 86.43,-34.92 79.55,-42.97 86.08,-45.51"/>
<text text-anchor="middle" x="86.11" y="-57.8" font-family="Times,serif" font-size="14.00">!a</text>
</g>
<!-- 6&#45;&gt;4 -->
<g id="edge6" class="edge">
<title>6&#45;&gt;4</title>
<path fill="none" stroke="black" d="M30.86,-35.93C33.53,-45.74 37.28,-58.24 41.61,-69 43.05,-72.57 44.73,-76.26 46.47,-79.85"/>
<polygon fill="black" stroke="black" points="43.45,-81.63 51.1,-88.95 49.69,-78.45 43.45,-81.63"/>
<text text-anchor="middle" x="49.61" y="-57.8" font-family="Times,serif" font-size="14.00">?y</text>
</g>
<!-- 5&#45;&gt;4 -->
<g id="edge8" class="edge">
<title>5&#45;&gt;4</title>
<path fill="none" stroke="black" d="M97.28,-35.85C99.17,-45.86 100.01,-58.59 95.61,-69 92.7,-75.91 87.68,-82.12 82.29,-87.33"/>
<polygon fill="black" stroke="black" points="79.62,-85.02 74.36,-94.21 84.21,-90.31 79.62,-85.02"/>
<text text-anchor="middle" x="106.61" y="-57.8" font-family="Times,serif" font-size="14.00">?x</text>
</g>
<!-- 1&#45;&gt;0 -->
<g id="edge11" class="edge">
<title>1&#45;&gt;0</title>
<path fill="none" stroke="black" d="M147.03,-296.94C147.73,-306.99 147.29,-319.72 142.61,-330 139.39,-337.08 134.02,-343.43 128.34,-348.72"/>
<polygon fill="black" stroke="black" points="126,-346.11 120.6,-355.23 130.51,-351.47 126,-346.11"/>
<text text-anchor="middle" x="153.61" y="-318.8" font-family="Times,serif" font-size="14.00">?x</text>
</g>
</g>
</svg>
