<?xml version="1.0" encoding="UTF-8" standalone="no"?>
<!DOCTYPE svg PUBLIC "-//W3C//DTD SVG 1.1//EN"
 "http://www.w3.org/Graphics/SVG/1.1/DTD/svg11.dtd">
<!-- Generated by graphviz version 2.43.0 (0)
 -->
<!-- Title: %3 Pages: 1 -->
<svg width="83pt" height="259pt"
 viewBox="0.00 0.00 83.00 258.60" xmlns="http://www.w3.org/2000/svg" xmlns:xlink="http://www.w3.org/1999/xlink">
<g id="graph0" class="graph" transform="scale(1 1) rotate(0) translate(4 254.6)">
<title>%3</title>
<polygon fill="white" stroke="transparent" points="-4,4 -4,-254.6 79,-254.6 79,4 -4,4"/>
<!-- ENTRY -->
<g id="node1" class="node">
<title>ENTRY</title>
<ellipse fill="black" stroke="black" cx="57" cy="-248.8" rx="1.8" ry="1.8"/>
</g>
<!-- 0 -->
<g id="node2" class="node">
<title>0</title>
<ellipse fill="none" stroke="black" cx="57" cy="-192" rx="18" ry="18"/>
<text text-anchor="middle" x="57" y="-188.3" font-family="Times,serif" font-size="14.00">0</text>
</g>
<!-- ENTRY&#45;&gt;0 -->
<g id="edge1" class="edge">
<title>ENTRY&#45;&gt;0</title>
<path fill="none" stroke="black" d="M57,-246.85C57,-243.49 57,-231.73 57,-220.05"/>
<polygon fill="black" stroke="black" points="60.5,-220.02 57,-210.02 53.5,-220.02 60.5,-220.02"/>
</g>
<!-- 1 -->
<g id="node3" class="node">
<title>1</title>
<ellipse fill="none" stroke="black" cx="18" cy="-105" rx="18" ry="18"/>
<text text-anchor="middle" x="18" y="-101.3" font-family="Times,serif" font-size="14.00">1</text>
</g>
<!-- 0&#45;&gt;1 -->
<g id="edge2" class="edge">
<title>0&#45;&gt;1</title>
<path fill="none" stroke="black" d="M49.85,-175.41C44.17,-163.03 36.11,-145.47 29.52,-131.11"/>
<polygon fill="black" stroke="black" points="32.59,-129.41 25.24,-121.78 26.23,-132.33 32.59,-129.41"/>
<text text-anchor="middle" x="47.5" y="-144.8" font-family="Times,serif" font-size="14.00">!a</text>
</g>
<!-- 2 -->
<g id="node4" class="node">
<title>2</title>
<ellipse fill="none" stroke="black" cx="45" cy="-18" rx="18" ry="18"/>
<text text-anchor="middle" x="45" y="-14.3" font-family="Times,serif" font-size="14.00">2</text>
</g>
<!-- 1&#45;&gt;2 -->
<g id="edge3" class="edge">
<title>1&#45;&gt;2</title>
<path fill="none" stroke="black" d="M23.21,-87.61C27.02,-75.62 32.26,-59.09 36.66,-45.27"/>
<polygon fill="black" stroke="black" points="40.12,-45.93 39.81,-35.34 33.45,-43.81 40.12,-45.93"/>
<text text-anchor="middle" x="41.5" y="-57.8" font-family="Times,serif" font-size="14.00">!a</text>
</g>
<!-- 2&#45;&gt;0 -->
<g id="edge4" class="edge">
<title>2&#45;&gt;0</title>
<path fill="none" stroke="black" d="M49.4,-35.63C50.77,-41.41 52.14,-47.95 53,-54 58.35,-91.64 58.58,-135.67 57.99,-163.44"/>
<polygon fill="black" stroke="black" points="54.49,-163.51 57.73,-173.59 61.49,-163.69 54.49,-163.51"/>
<text text-anchor="middle" x="65.5" y="-101.3" font-family="Times,serif" font-size="14.00">?b</text>
</g>
</g>
</svg>
