<?xml version="1.0" encoding="UTF-8" standalone="no"?>
<!DOCTYPE svg PUBLIC "-//W3C//DTD SVG 1.1//EN"
 "http://www.w3.org/Graphics/SVG/1.1/DTD/svg11.dtd">
<!-- Generated by graphviz version 2.43.0 (0)
 -->
<!-- Title: %3 Pages: 1 -->
<svg width="487pt" height="1021pt"
 viewBox="0.00 0.00 487.24 1020.84" xmlns="http://www.w3.org/2000/svg" xmlns:xlink="http://www.w3.org/1999/xlink">
<g id="graph0" class="graph" transform="scale(1 1) rotate(0) translate(4 1016.84)">
<title>%3</title>
<polygon fill="white" stroke="transparent" points="-4,4 -4,-1016.84 483.24,-1016.84 483.24,4 -4,4"/>
<!-- ENTRY -->
<g id="node1" class="node">
<title>ENTRY</title>
<ellipse fill="black" stroke="black" cx="182.65" cy="-874.25" rx="1.8" ry="1.8"/>
</g>
<!-- 0 -->
<g id="node2" class="node">
<title>0</title>
<ellipse fill="none" stroke="black" cx="261.65" cy="-602.63" rx="82.05" ry="82.05"/>
<text text-anchor="middle" x="261.65" y="-606.43" font-family="Times,serif" font-size="14.00">0 &lt; ({c,b})*.0</text>
<text text-anchor="middle" x="261.65" y="-591.43" font-family="Times,serif" font-size="14.00">Eps.1</text>
</g>
<!-- ENTRY&#45;&gt;0 -->
<g id="edge1" class="edge">
<title>ENTRY&#45;&gt;0</title>
<path fill="none" stroke="black" d="M182.58,-872.35C181.9,-863.5 176.93,-790.95 192.65,-735.66 197.79,-717.61 205.55,-699.18 214.05,-682.04"/>
<polygon fill="black" stroke="black" points="217.4,-683.16 218.83,-672.67 211.17,-679.98 217.4,-683.16"/>
</g>
<!-- 1 -->
<g id="node5" class="node">
<title>1</title>
<ellipse fill="none" stroke="black" cx="190.65" cy="-364.96" rx="104.8" ry="104.8"/>
<text text-anchor="middle" x="190.65" y="-368.76" font-family="Times,serif" font-size="14.00">1 &lt; {c}.0</text>
<text text-anchor="middle" x="190.65" y="-353.76" font-family="Times,serif" font-size="14.00">({c,b})*.{b}.{c}.0</text>
</g>
<!-- 0&#45;&gt;1 -->
<g id="edge5" class="edge">
<title>0&#45;&gt;1</title>
<path fill="none" stroke="black" d="M238.21,-523.81C233.51,-508.23 228.5,-491.59 223.56,-475.18"/>
<polygon fill="black" stroke="black" points="226.89,-474.12 220.66,-465.55 220.19,-476.13 226.89,-474.12"/>
<text text-anchor="middle" x="238.15" y="-491.41" font-family="Times,serif" font-size="14.00">!a</text>
</g>
<!-- 2 -->
<g id="node3" class="node">
<title>2</title>
<ellipse fill="none" stroke="red" cx="104.65" cy="-104.65" rx="104.8" ry="104.8"/>
<text text-anchor="middle" x="104.65" y="-108.45" font-family="Times,serif" font-size="14.00">2 &lt; {c}.0</text>
<text text-anchor="middle" x="104.65" y="-93.45" font-family="Times,serif" font-size="14.00">({c,b})*.{b}.{c}.0</text>
</g>
<!-- 3 -->
<g id="node4" class="node">
<title>3</title>
<ellipse fill="none" stroke="black" cx="340.65" cy="-874.25" rx="138.69" ry="138.69"/>
<text text-anchor="middle" x="340.65" y="-878.05" font-family="Times,serif" font-size="14.00">3 &lt; ({b}.{c})*.{b}.{c}.0</text>
<text text-anchor="middle" x="340.65" y="-863.05" font-family="Times,serif" font-size="14.00">Eps.0</text>
</g>
<!-- 3&#45;&gt;0 -->
<g id="edge2" class="edge">
<title>3&#45;&gt;0</title>
<path fill="none" stroke="black" d="M301.85,-740.81C296.93,-724.05 292.01,-707.23 287.37,-691.41"/>
<polygon fill="black" stroke="black" points="290.7,-690.31 284.53,-681.7 283.98,-692.28 290.7,-690.31"/>
<text text-anchor="middle" x="303.15" y="-706.46" font-family="Times,serif" font-size="14.00">?b</text>
</g>
<!-- 1&#45;&gt;2 -->
<g id="edge3" class="edge">
<title>1&#45;&gt;2</title>
<path fill="none" stroke="black" d="M157.77,-265.2C152.22,-248.53 146.43,-231.14 140.81,-214.24"/>
<polygon fill="black" stroke="black" points="143.99,-212.74 137.51,-204.36 137.35,-214.95 143.99,-212.74"/>
<text text-anchor="middle" x="156.15" y="-231.1" font-family="Times,serif" font-size="14.00">?b</text>
</g>
<!-- 4 -->
<g id="node6" class="node">
<title>4</title>
<ellipse fill="none" stroke="black" cx="331.65" cy="-104.65" rx="104.8" ry="104.8"/>
<text text-anchor="middle" x="331.65" y="-108.45" font-family="Times,serif" font-size="14.00">4 &lt; Eps.0</text>
<text text-anchor="middle" x="331.65" y="-93.45" font-family="Times,serif" font-size="14.00">({c,b})*.{b}.{c}.0</text>
</g>
<!-- 1&#45;&gt;4 -->
<g id="edge4" class="edge">
<title>1&#45;&gt;4</title>
<path fill="none" stroke="black" d="M240.56,-272.52C252.33,-250.97 264.93,-227.87 276.9,-205.95"/>
<polygon fill="black" stroke="black" points="280.09,-207.42 281.81,-196.96 273.95,-204.06 280.09,-207.42"/>
<text text-anchor="middle" x="269.65" y="-231.1" font-family="Times,serif" font-size="14.00">?c</text>
</g>
<!-- 4&#45;&gt;0 -->
<g id="edge6" class="edge">
<title>4&#45;&gt;0</title>
<path fill="none" stroke="black" d="M330.56,-209.69C328.19,-282.96 321.7,-383.04 304.65,-469.61 301.69,-484.64 297.55,-500.35 292.99,-515.48"/>
<polygon fill="black" stroke="black" points="289.56,-514.73 289.95,-525.32 296.25,-516.8 289.56,-514.73"/>
<text text-anchor="middle" x="335.15" y="-361.26" font-family="Times,serif" font-size="14.00">!a</text>
</g>
</g>
</svg>
