<?xml version="1.0" encoding="UTF-8" standalone="no"?>
<!DOCTYPE svg PUBLIC "-//W3C//DTD SVG 1.1//EN"
 "http://www.w3.org/Graphics/SVG/1.1/DTD/svg11.dtd">
<!-- Generated by graphviz version 2.43.0 (0)
 -->
<!-- Title: %3 Pages: 1 -->
<svg width="138pt" height="346pt"
 viewBox="0.00 0.00 138.00 345.60" xmlns="http://www.w3.org/2000/svg" xmlns:xlink="http://www.w3.org/1999/xlink">
<g id="graph0" class="graph" transform="scale(1 1) rotate(0) translate(4 341.6)">
<title>%3</title>
<polygon fill="white" stroke="transparent" points="-4,4 -4,-341.6 134,-341.6 134,4 -4,4"/>
<!-- ENTRY -->
<g id="node1" class="node">
<title>ENTRY</title>
<ellipse fill="black" stroke="black" cx="85" cy="-335.8" rx="1.8" ry="1.8"/>
</g>
<!-- 0 -->
<g id="node2" class="node">
<title>0</title>
<ellipse fill="none" stroke="black" cx="85" cy="-279" rx="18" ry="18"/>
<text text-anchor="middle" x="85" y="-275.3" font-family="Times,serif" font-size="14.00">0</text>
</g>
<!-- ENTRY&#45;&gt;0 -->
<g id="edge1" class="edge">
<title>ENTRY&#45;&gt;0</title>
<path fill="none" stroke="black" d="M85,-333.85C85,-330.49 85,-318.73 85,-307.05"/>
<polygon fill="black" stroke="black" points="88.5,-307.02 85,-297.02 81.5,-307.02 88.5,-307.02"/>
</g>
<!-- 1 -->
<g id="node3" class="node">
<title>1</title>
<ellipse fill="none" stroke="black" cx="31" cy="-192" rx="18" ry="18"/>
<text text-anchor="middle" x="31" y="-188.3" font-family="Times,serif" font-size="14.00">1</text>
</g>
<!-- 0&#45;&gt;1 -->
<g id="edge2" class="edge">
<title>0&#45;&gt;1</title>
<path fill="none" stroke="black" d="M73.24,-265.25C67.64,-258.85 61.09,-250.8 56,-243 50.89,-235.17 46.09,-226.15 42.09,-217.95"/>
<polygon fill="black" stroke="black" points="45.21,-216.37 37.78,-208.82 38.88,-219.36 45.21,-216.37"/>
<text text-anchor="middle" x="63.5" y="-231.8" font-family="Times,serif" font-size="14.00">!a</text>
</g>
<!-- 4 -->
<g id="node4" class="node">
<title>4</title>
<ellipse fill="none" stroke="black" cx="79" cy="-105" rx="18" ry="18"/>
<text text-anchor="middle" x="79" y="-101.3" font-family="Times,serif" font-size="14.00">4</text>
</g>
<!-- 1&#45;&gt;4 -->
<g id="edge3" class="edge">
<title>1&#45;&gt;4</title>
<path fill="none" stroke="black" d="M37.96,-174.92C42.46,-164.95 48.64,-152 55,-141 57.39,-136.87 60.1,-132.59 62.83,-128.5"/>
<polygon fill="black" stroke="black" points="65.9,-130.21 68.68,-119.98 60.13,-126.24 65.9,-130.21"/>
<text text-anchor="middle" x="63" y="-144.8" font-family="Times,serif" font-size="14.00">?c</text>
</g>
<!-- 2 -->
<g id="node5" class="node">
<title>2</title>
<ellipse fill="none" stroke="black" cx="18" cy="-105" rx="18" ry="18"/>
<text text-anchor="middle" x="18" y="-101.3" font-family="Times,serif" font-size="14.00">2</text>
</g>
<!-- 1&#45;&gt;2 -->
<g id="edge5" class="edge">
<title>1&#45;&gt;2</title>
<path fill="none" stroke="black" d="M22.34,-175.82C19.4,-169.84 16.48,-162.79 15,-156 13.39,-148.61 13.22,-140.46 13.7,-132.94"/>
<polygon fill="black" stroke="black" points="17.2,-133.15 14.72,-122.84 10.23,-132.44 17.2,-133.15"/>
<text text-anchor="middle" x="23.5" y="-144.8" font-family="Times,serif" font-size="14.00">?b</text>
</g>
<!-- 4&#45;&gt;0 -->
<g id="edge4" class="edge">
<title>4&#45;&gt;0</title>
<path fill="none" stroke="black" d="M79.59,-123.05C80.64,-152.88 82.79,-214.76 84.05,-250.64"/>
<polygon fill="black" stroke="black" points="80.56,-251.01 84.4,-260.88 87.55,-250.76 80.56,-251.01"/>
<text text-anchor="middle" x="89.5" y="-188.3" font-family="Times,serif" font-size="14.00">!a</text>
</g>
<!-- 3 -->
<g id="node6" class="node">
<title>3</title>
<ellipse fill="none" stroke="black" cx="78" cy="-18" rx="18" ry="18"/>
<text text-anchor="middle" x="78" y="-14.3" font-family="Times,serif" font-size="14.00">3</text>
</g>
<!-- 2&#45;&gt;3 -->
<g id="edge6" class="edge">
<title>2&#45;&gt;3</title>
<path fill="none" stroke="black" d="M27.91,-89.96C37.2,-76.8 51.25,-56.89 62.11,-41.51"/>
<polygon fill="black" stroke="black" points="65.17,-43.24 68.08,-33.06 59.45,-39.21 65.17,-43.24"/>
<text text-anchor="middle" x="60" y="-57.8" font-family="Times,serif" font-size="14.00">?c</text>
</g>
<!-- 3&#45;&gt;0 -->
<g id="edge7" class="edge">
<title>3&#45;&gt;0</title>
<path fill="none" stroke="black" d="M86.24,-34.12C93.07,-47.56 102.23,-67.96 106,-87 119.48,-155.13 112.53,-175.31 97,-243 96.3,-246.03 95.44,-249.17 94.5,-252.27"/>
<polygon fill="black" stroke="black" points="91.16,-251.23 91.34,-261.82 97.8,-253.43 91.16,-251.23"/>
<text text-anchor="middle" x="121.5" y="-144.8" font-family="Times,serif" font-size="14.00">?b</text>
</g>
</g>
</svg>
