<?xml version="1.0" encoding="UTF-8" standalone="no"?>
<!DOCTYPE svg PUBLIC "-//W3C//DTD SVG 1.1//EN"
 "http://www.w3.org/Graphics/SVG/1.1/DTD/svg11.dtd">
<!-- Generated by graphviz version 2.43.0 (0)
 -->
<!-- Title: %3 Pages: 1 -->
<svg width="131pt" height="172pt"
 viewBox="0.00 0.00 131.00 171.60" xmlns="http://www.w3.org/2000/svg" xmlns:xlink="http://www.w3.org/1999/xlink">
<g id="graph0" class="graph" transform="scale(1 1) rotate(0) translate(4 167.6)">
<title>%3</title>
<polygon fill="white" stroke="transparent" points="-4,4 -4,-167.6 127,-167.6 127,4 -4,4"/>
<!-- ENTRY -->
<g id="node1" class="node">
<title>ENTRY</title>
<ellipse fill="black" stroke="black" cx="66" cy="-161.8" rx="1.8" ry="1.8"/>
</g>
<!-- 0 -->
<g id="node2" class="node">
<title>0</title>
<ellipse fill="none" stroke="black" cx="66" cy="-105" rx="18" ry="18"/>
<text text-anchor="middle" x="66" y="-101.3" font-family="Times,serif" font-size="14.00">0</text>
</g>
<!-- ENTRY&#45;&gt;0 -->
<g id="edge1" class="edge">
<title>ENTRY&#45;&gt;0</title>
<path fill="none" stroke="black" d="M66,-159.85C66,-156.49 66,-144.73 66,-133.05"/>
<polygon fill="black" stroke="black" points="69.5,-133.02 66,-123.02 62.5,-133.02 69.5,-133.02"/>
</g>
<!-- 2 -->
<g id="node3" class="node">
<title>2</title>
<ellipse fill="none" stroke="black" cx="18" cy="-18" rx="18" ry="18"/>
<text text-anchor="middle" x="18" y="-14.3" font-family="Times,serif" font-size="14.00">2</text>
</g>
<!-- 0&#45;&gt;2 -->
<g id="edge2" class="edge">
<title>0&#45;&gt;2</title>
<path fill="none" stroke="black" d="M55.68,-90.02C51.24,-83.74 46.13,-76.14 42,-69 37.48,-61.18 33.04,-52.37 29.24,-44.35"/>
<polygon fill="black" stroke="black" points="32.33,-42.69 24.96,-35.08 25.98,-45.63 32.33,-42.69"/>
<text text-anchor="middle" x="50.5" y="-57.8" font-family="Times,serif" font-size="14.00">?b</text>
</g>
<!-- 1 -->
<g id="node4" class="node">
<title>1</title>
<ellipse fill="none" stroke="black" cx="105" cy="-18" rx="18" ry="18"/>
<text text-anchor="middle" x="105" y="-14.3" font-family="Times,serif" font-size="14.00">1</text>
</g>
<!-- 0&#45;&gt;1 -->
<g id="edge4" class="edge">
<title>0&#45;&gt;1</title>
<path fill="none" stroke="black" d="M63.12,-87.06C62.18,-77.02 62.36,-64.29 67,-54 70.29,-46.69 75.92,-40.22 81.85,-34.89"/>
<polygon fill="black" stroke="black" points="84.35,-37.37 89.93,-28.36 79.95,-31.93 84.35,-37.37"/>
<text text-anchor="middle" x="75" y="-57.8" font-family="Times,serif" font-size="14.00">?a</text>
</g>
<!-- 2&#45;&gt;2 -->
<g id="edge3" class="edge">
<title>2&#45;&gt;2</title>
<path fill="none" stroke="black" d="M34.66,-25.38C44.62,-27.02 54,-24.56 54,-18 54,-13.8 50.15,-11.28 44.77,-10.44"/>
<polygon fill="black" stroke="black" points="44.6,-6.94 34.66,-10.62 44.72,-13.94 44.6,-6.94"/>
<text text-anchor="middle" x="61.5" y="-14.3" font-family="Times,serif" font-size="14.00">!x</text>
</g>
<!-- 1&#45;&gt;0 -->
<g id="edge5" class="edge">
<title>1&#45;&gt;0</title>
<path fill="none" stroke="black" d="M98.22,-34.83C93.94,-44.7 88.26,-57.64 83,-69 81.48,-72.29 79.85,-75.73 78.22,-79.13"/>
<polygon fill="black" stroke="black" points="74.95,-77.85 73.74,-88.38 81.25,-80.9 74.95,-77.85"/>
<text text-anchor="middle" x="96.5" y="-57.8" font-family="Times,serif" font-size="14.00">!x</text>
</g>
</g>
</svg>
