<?xml version="1.0" encoding="UTF-8" standalone="no"?>
<!DOCTYPE svg PUBLIC "-//W3C//DTD SVG 1.1//EN"
 "http://www.w3.org/Graphics/SVG/1.1/DTD/svg11.dtd">
<!-- Generated by graphviz version 2.43.0 (0)
 -->
<!-- Title: %3 Pages: 1 -->
<svg width="160pt" height="346pt"
 viewBox="0.00 0.00 160.00 345.60" xmlns="http://www.w3.org/2000/svg" xmlns:xlink="http://www.w3.org/1999/xlink">
<g id="graph0" class="graph" transform="scale(1 1) rotate(0) translate(4 341.6)">
<title>%3</title>
<polygon fill="white" stroke="transparent" points="-4,4 -4,-341.6 156,-341.6 156,4 -4,4"/>
<!-- ENTRY -->
<g id="node1" class="node">
<title>ENTRY</title>
<ellipse fill="black" stroke="black" cx="105" cy="-335.8" rx="1.8" ry="1.8"/>
</g>
<!-- 0 -->
<g id="node2" class="node">
<title>0</title>
<ellipse fill="none" stroke="black" cx="105" cy="-279" rx="18" ry="18"/>
<text text-anchor="middle" x="105" y="-275.3" font-family="Times,serif" font-size="14.00">0</text>
</g>
<!-- ENTRY&#45;&gt;0 -->
<g id="edge1" class="edge">
<title>ENTRY&#45;&gt;0</title>
<path fill="none" stroke="black" d="M105,-333.85C105,-330.49 105,-318.73 105,-307.05"/>
<polygon fill="black" stroke="black" points="108.5,-307.02 105,-297.02 101.5,-307.02 108.5,-307.02"/>
</g>
<!-- 4 -->
<g id="node3" class="node">
<title>4</title>
<ellipse fill="none" stroke="black" cx="18" cy="-192" rx="18" ry="18"/>
<text text-anchor="middle" x="18" y="-188.3" font-family="Times,serif" font-size="14.00">4</text>
</g>
<!-- 0&#45;&gt;4 -->
<g id="edge2" class="edge">
<title>0&#45;&gt;4</title>
<path fill="none" stroke="black" d="M92.54,-265.82C78.19,-251.81 54.46,-228.62 37.63,-212.18"/>
<polygon fill="black" stroke="black" points="40.04,-209.64 30.44,-205.16 35.15,-214.65 40.04,-209.64"/>
<text text-anchor="middle" x="75.5" y="-231.8" font-family="Times,serif" font-size="14.00">?b</text>
</g>
<!-- 1 -->
<g id="node4" class="node">
<title>1</title>
<ellipse fill="none" stroke="black" cx="105" cy="-192" rx="18" ry="18"/>
<text text-anchor="middle" x="105" y="-188.3" font-family="Times,serif" font-size="14.00">1</text>
</g>
<!-- 0&#45;&gt;1 -->
<g id="edge4" class="edge">
<title>0&#45;&gt;1</title>
<path fill="none" stroke="black" d="M105,-260.8C105,-249.16 105,-233.55 105,-220.24"/>
<polygon fill="black" stroke="black" points="108.5,-220.18 105,-210.18 101.5,-220.18 108.5,-220.18"/>
<text text-anchor="middle" x="113" y="-231.8" font-family="Times,serif" font-size="14.00">?a</text>
</g>
<!-- 4&#45;&gt;4 -->
<g id="edge3" class="edge">
<title>4&#45;&gt;4</title>
<path fill="none" stroke="black" d="M34.66,-199.38C44.62,-201.02 54,-198.56 54,-192 54,-187.8 50.15,-185.28 44.77,-184.44"/>
<polygon fill="black" stroke="black" points="44.6,-180.94 34.66,-184.62 44.72,-187.94 44.6,-180.94"/>
<text text-anchor="middle" x="61.5" y="-188.3" font-family="Times,serif" font-size="14.00">!x</text>
</g>
<!-- 2 -->
<g id="node5" class="node">
<title>2</title>
<ellipse fill="none" stroke="black" cx="105" cy="-105" rx="18" ry="18"/>
<text text-anchor="middle" x="105" y="-101.3" font-family="Times,serif" font-size="14.00">2</text>
</g>
<!-- 1&#45;&gt;2 -->
<g id="edge5" class="edge">
<title>1&#45;&gt;2</title>
<path fill="none" stroke="black" d="M105,-173.8C105,-162.16 105,-146.55 105,-133.24"/>
<polygon fill="black" stroke="black" points="108.5,-133.18 105,-123.18 101.5,-133.18 108.5,-133.18"/>
<text text-anchor="middle" x="112.5" y="-144.8" font-family="Times,serif" font-size="14.00">!x</text>
</g>
<!-- 3 -->
<g id="node6" class="node">
<title>3</title>
<ellipse fill="none" stroke="black" cx="128" cy="-18" rx="18" ry="18"/>
<text text-anchor="middle" x="128" y="-14.3" font-family="Times,serif" font-size="14.00">3</text>
</g>
<!-- 2&#45;&gt;3 -->
<g id="edge6" class="edge">
<title>2&#45;&gt;3</title>
<path fill="none" stroke="black" d="M109.54,-87.21C112.78,-75.25 117.19,-58.96 120.89,-45.29"/>
<polygon fill="black" stroke="black" points="124.31,-46.04 123.54,-35.47 117.55,-44.21 124.31,-46.04"/>
<text text-anchor="middle" x="125.5" y="-57.8" font-family="Times,serif" font-size="14.00">!x</text>
</g>
<!-- 3&#45;&gt;0 -->
<g id="edge7" class="edge">
<title>3&#45;&gt;0</title>
<path fill="none" stroke="black" d="M133.17,-35.57C134.73,-41.34 136.23,-47.9 137,-54 137.84,-60.61 137.12,-62.33 137,-69 135.89,-131.7 139.65,-147.76 132,-210 130.17,-224.88 130.34,-228.99 125,-243 123.53,-246.86 121.67,-250.81 119.68,-254.59"/>
<polygon fill="black" stroke="black" points="116.51,-253.09 114.63,-263.51 122.6,-256.54 116.51,-253.09"/>
<text text-anchor="middle" x="144.5" y="-144.8" font-family="Times,serif" font-size="14.00">!x</text>
</g>
</g>
</svg>
