<?xml version="1.0" encoding="UTF-8" standalone="no"?>
<!DOCTYPE svg PUBLIC "-//W3C//DTD SVG 1.1//EN"
 "http://www.w3.org/Graphics/SVG/1.1/DTD/svg11.dtd">
<!-- Generated by graphviz version 2.43.0 (0)
 -->
<!-- Title: %3 Pages: 1 -->
<svg width="82pt" height="346pt"
 viewBox="0.00 0.00 82.00 345.60" xmlns="http://www.w3.org/2000/svg" xmlns:xlink="http://www.w3.org/1999/xlink">
<g id="graph0" class="graph" transform="scale(1 1) rotate(0) translate(4 341.6)">
<title>%3</title>
<polygon fill="white" stroke="transparent" points="-4,4 -4,-341.6 78,-341.6 78,4 -4,4"/>
<!-- ENTRY -->
<g id="node1" class="node">
<title>ENTRY</title>
<ellipse fill="black" stroke="black" cx="56" cy="-335.8" rx="1.8" ry="1.8"/>
</g>
<!-- 0 -->
<g id="node2" class="node">
<title>0</title>
<ellipse fill="none" stroke="black" cx="56" cy="-279" rx="18" ry="18"/>
<text text-anchor="middle" x="56" y="-275.3" font-family="Times,serif" font-size="14.00">0</text>
</g>
<!-- ENTRY&#45;&gt;0 -->
<g id="edge1" class="edge">
<title>ENTRY&#45;&gt;0</title>
<path fill="none" stroke="black" d="M56,-333.85C56,-330.49 56,-318.73 56,-307.05"/>
<polygon fill="black" stroke="black" points="59.5,-307.02 56,-297.02 52.5,-307.02 59.5,-307.02"/>
</g>
<!-- 1 -->
<g id="node3" class="node">
<title>1</title>
<ellipse fill="none" stroke="black" cx="18" cy="-192" rx="18" ry="18"/>
<text text-anchor="middle" x="18" y="-188.3" font-family="Times,serif" font-size="14.00">1</text>
</g>
<!-- 0&#45;&gt;1 -->
<g id="edge2" class="edge">
<title>0&#45;&gt;1</title>
<path fill="none" stroke="black" d="M48.85,-262.01C43.3,-249.59 35.49,-232.13 29.12,-217.88"/>
<polygon fill="black" stroke="black" points="32.26,-216.33 24.99,-208.63 25.87,-219.19 32.26,-216.33"/>
<text text-anchor="middle" x="48" y="-231.8" font-family="Times,serif" font-size="14.00">?a</text>
</g>
<!-- 2 -->
<g id="node4" class="node">
<title>2</title>
<ellipse fill="none" stroke="black" cx="45" cy="-105" rx="18" ry="18"/>
<text text-anchor="middle" x="45" y="-101.3" font-family="Times,serif" font-size="14.00">2</text>
</g>
<!-- 1&#45;&gt;2 -->
<g id="edge3" class="edge">
<title>1&#45;&gt;2</title>
<path fill="none" stroke="black" d="M23.21,-174.61C27.02,-162.62 32.26,-146.09 36.66,-132.27"/>
<polygon fill="black" stroke="black" points="40.12,-132.93 39.81,-122.34 33.45,-130.81 40.12,-132.93"/>
<text text-anchor="middle" x="41.5" y="-144.8" font-family="Times,serif" font-size="14.00">!x</text>
</g>
<!-- 2&#45;&gt;0 -->
<g id="edge6" class="edge">
<title>2&#45;&gt;0</title>
<path fill="none" stroke="black" d="M49.4,-122.63C50.77,-128.41 52.14,-134.95 53,-141 59.38,-185.94 59.3,-197.63 58,-243 57.93,-245.56 57.82,-248.21 57.7,-250.87"/>
<polygon fill="black" stroke="black" points="54.21,-250.75 57.17,-260.92 61.2,-251.12 54.21,-250.75"/>
<text text-anchor="middle" x="66" y="-188.3" font-family="Times,serif" font-size="14.00">?c</text>
</g>
<!-- 3 -->
<g id="node5" class="node">
<title>3</title>
<ellipse fill="none" stroke="black" cx="45" cy="-18" rx="18" ry="18"/>
<text text-anchor="middle" x="45" y="-14.3" font-family="Times,serif" font-size="14.00">3</text>
</g>
<!-- 2&#45;&gt;3 -->
<g id="edge4" class="edge">
<title>2&#45;&gt;3</title>
<path fill="none" stroke="black" d="M34.6,-89.84C28.61,-79.98 22.85,-66.42 26,-54 27.01,-50.04 28.56,-46.05 30.35,-42.24"/>
<polygon fill="black" stroke="black" points="33.5,-43.78 35.13,-33.31 27.33,-40.48 33.5,-43.78"/>
<text text-anchor="middle" x="34.5" y="-57.8" font-family="Times,serif" font-size="14.00">?b</text>
</g>
<!-- 3&#45;&gt;2 -->
<g id="edge5" class="edge">
<title>3&#45;&gt;2</title>
<path fill="none" stroke="black" d="M45,-36.18C45,-47.81 45,-63.42 45,-76.73"/>
<polygon fill="black" stroke="black" points="41.5,-76.8 45,-86.8 48.5,-76.8 41.5,-76.8"/>
<text text-anchor="middle" x="52.5" y="-57.8" font-family="Times,serif" font-size="14.00">!x</text>
</g>
</g>
</svg>
