<?xml version="1.0" encoding="UTF-8" standalone="no"?>
<!DOCTYPE svg PUBLIC "-//W3C//DTD SVG 1.1//EN"
 "http://www.w3.org/Graphics/SVG/1.1/DTD/svg11.dtd">
<!-- Generated by graphviz version 2.43.0 (0)
 -->
<!-- Title: %3 Pages: 1 -->
<svg width="275pt" height="1163pt"
 viewBox="0.00 0.00 274.79 1162.61" xmlns="http://www.w3.org/2000/svg" xmlns:xlink="http://www.w3.org/1999/xlink">
<g id="graph0" class="graph" transform="scale(1 1) rotate(0) translate(4 1158.61)">
<title>%3</title>
<polygon fill="white" stroke="transparent" points="-4,4 -4,-1158.61 270.79,-1158.61 270.79,4 -4,4"/>
<!-- ENTRY -->
<g id="node1" class="node">
<title>ENTRY</title>
<ellipse fill="black" stroke="black" cx="133.39" cy="-1152.81" rx="1.8" ry="1.8"/>
</g>
<!-- 0 -->
<g id="node10" class="node">
<title>0</title>
<ellipse fill="none" stroke="black" cx="133.39" cy="-1057.46" rx="56.59" ry="56.59"/>
<text text-anchor="middle" x="133.39" y="-1053.76" font-family="Times,serif" font-size="14.00">0 &lt; Eps.0</text>
</g>
<!-- ENTRY&#45;&gt;0 -->
<g id="edge1" class="edge">
<title>ENTRY&#45;&gt;0</title>
<path fill="none" stroke="black" d="M133.39,-1150.76C133.39,-1147.51 133.39,-1137.01 133.39,-1124.21"/>
<polygon fill="black" stroke="black" points="136.89,-1124.04 133.39,-1114.04 129.89,-1124.04 136.89,-1124.04"/>
</g>
<!-- 8 -->
<g id="node2" class="node">
<title>8</title>
<ellipse fill="none" stroke="black" cx="62.39" cy="-62.39" rx="62.29" ry="62.29"/>
<text text-anchor="middle" x="62.39" y="-58.69" font-family="Times,serif" font-size="14.00">8 &lt; Eps.10</text>
</g>
<!-- 2 -->
<g id="node3" class="node">
<title>2</title>
<ellipse fill="none" stroke="black" cx="133.39" cy="-612.54" rx="96.75" ry="96.75"/>
<text text-anchor="middle" x="133.39" y="-616.34" font-family="Times,serif" font-size="14.00">2 &lt; {b1}.{b2}.4</text>
<text text-anchor="middle" x="133.39" y="-601.34" font-family="Times,serif" font-size="14.00">{c1}.{c2}.9</text>
</g>
<!-- 6 -->
<g id="node4" class="node">
<title>6</title>
<ellipse fill="none" stroke="black" cx="62.39" cy="-402.27" rx="61.99" ry="61.99"/>
<text text-anchor="middle" x="62.39" y="-398.57" font-family="Times,serif" font-size="14.00">6 &lt; {c2}.9</text>
</g>
<!-- 2&#45;&gt;6 -->
<g id="edge8" class="edge">
<title>2&#45;&gt;6</title>
<path fill="none" stroke="black" d="M102.36,-520.5C96.64,-503.73 90.77,-486.5 85.34,-470.58"/>
<polygon fill="black" stroke="black" points="88.57,-469.2 82.03,-460.86 81.94,-471.46 88.57,-469.2"/>
<text text-anchor="middle" x="106.89" y="-486.47" font-family="Times,serif" font-size="14.00">?c1</text>
</g>
<!-- 3 -->
<g id="node6" class="node">
<title>3</title>
<ellipse fill="none" stroke="black" cx="204.39" cy="-402.27" rx="62.29" ry="62.29"/>
<text text-anchor="middle" x="204.39" y="-398.57" font-family="Times,serif" font-size="14.00">3 &lt; {b2}.4</text>
</g>
<!-- 2&#45;&gt;3 -->
<g id="edge2" class="edge">
<title>2&#45;&gt;3</title>
<path fill="none" stroke="black" d="M164.43,-520.5C170.09,-503.91 175.9,-486.87 181.27,-471.1"/>
<polygon fill="black" stroke="black" points="184.64,-472.06 184.56,-461.46 178.02,-469.8 184.64,-472.06"/>
<text text-anchor="middle" x="188.39" y="-486.47" font-family="Times,serif" font-size="14.00">?b1</text>
</g>
<!-- 7 -->
<g id="node9" class="node">
<title>7</title>
<ellipse fill="none" stroke="black" cx="62.39" cy="-232.33" rx="56.59" ry="56.59"/>
<text text-anchor="middle" x="62.39" y="-228.63" font-family="Times,serif" font-size="14.00">7 &lt; Eps.9</text>
</g>
<!-- 6&#45;&gt;7 -->
<g id="edge7" class="edge">
<title>6&#45;&gt;7</title>
<path fill="none" stroke="black" d="M62.39,-340.17C62.39,-326.87 62.39,-312.73 62.39,-299.25"/>
<polygon fill="black" stroke="black" points="65.89,-299.1 62.39,-289.1 58.89,-299.1 65.89,-299.1"/>
<text text-anchor="middle" x="74.89" y="-310.68" font-family="Times,serif" font-size="14.00">?c2</text>
</g>
<!-- 5 -->
<g id="node5" class="node">
<title>5</title>
<ellipse fill="none" stroke="black" cx="204.39" cy="-62.39" rx="56.59" ry="56.59"/>
<text text-anchor="middle" x="204.39" y="-58.69" font-family="Times,serif" font-size="14.00">5 &lt; Eps.5</text>
</g>
<!-- 4 -->
<g id="node8" class="node">
<title>4</title>
<ellipse fill="none" stroke="black" cx="204.39" cy="-232.33" rx="56.59" ry="56.59"/>
<text text-anchor="middle" x="204.39" y="-228.63" font-family="Times,serif" font-size="14.00">4 &lt; Eps.4</text>
</g>
<!-- 3&#45;&gt;4 -->
<g id="edge4" class="edge">
<title>3&#45;&gt;4</title>
<path fill="none" stroke="black" d="M204.39,-339.69C204.39,-326.49 204.39,-312.49 204.39,-299.13"/>
<polygon fill="black" stroke="black" points="207.89,-299.07 204.39,-289.07 200.89,-299.07 207.89,-299.07"/>
<text text-anchor="middle" x="217.39" y="-310.68" font-family="Times,serif" font-size="14.00">?b2</text>
</g>
<!-- 1 -->
<g id="node7" class="node">
<title>1</title>
<ellipse fill="none" stroke="black" cx="133.39" cy="-855.17" rx="94.51" ry="94.51"/>
<text text-anchor="middle" x="133.39" y="-858.97" font-family="Times,serif" font-size="14.00">1 &lt; {c1}.{c2}.8</text>
<text text-anchor="middle" x="133.39" y="-843.97" font-family="Times,serif" font-size="14.00">{b1}.{b2}.3</text>
</g>
<!-- 1&#45;&gt;2 -->
<g id="edge9" class="edge">
<title>1&#45;&gt;2</title>
<path fill="none" stroke="black" d="M133.39,-760.1C133.39,-746.87 133.39,-733.19 133.39,-719.74"/>
<polygon fill="black" stroke="black" points="136.89,-719.52 133.39,-709.52 129.89,-719.52 136.89,-719.52"/>
<text text-anchor="middle" x="140.89" y="-731.22" font-family="Times,serif" font-size="14.00">!a</text>
</g>
<!-- 4&#45;&gt;5 -->
<g id="edge6" class="edge">
<title>4&#45;&gt;5</title>
<path fill="none" stroke="black" d="M204.39,-175.41C204.39,-160.68 204.39,-144.65 204.39,-129.44"/>
<polygon fill="black" stroke="black" points="207.89,-129.07 204.39,-119.07 200.89,-129.07 207.89,-129.07"/>
<text text-anchor="middle" x="211.89" y="-146.59" font-family="Times,serif" font-size="14.00">!x</text>
</g>
<!-- 7&#45;&gt;8 -->
<g id="edge3" class="edge">
<title>7&#45;&gt;8</title>
<path fill="none" stroke="black" d="M62.39,-175.41C62.39,-162.49 62.39,-148.56 62.39,-135.06"/>
<polygon fill="black" stroke="black" points="65.89,-134.85 62.39,-124.85 58.89,-134.85 65.89,-134.85"/>
<text text-anchor="middle" x="69.89" y="-146.59" font-family="Times,serif" font-size="14.00">!a</text>
</g>
<!-- 0&#45;&gt;1 -->
<g id="edge5" class="edge">
<title>0&#45;&gt;1</title>
<path fill="none" stroke="black" d="M133.39,-1000.67C133.39,-988 133.39,-974.15 133.39,-960.19"/>
<polygon fill="black" stroke="black" points="136.89,-960.03 133.39,-950.03 129.89,-960.03 136.89,-960.03"/>
<text text-anchor="middle" x="140.89" y="-971.72" font-family="Times,serif" font-size="14.00">!a</text>
</g>
</g>
</svg>
