<?xml version="1.0" encoding="UTF-8" standalone="no"?>
<!DOCTYPE svg PUBLIC "-//W3C//DTD SVG 1.1//EN"
 "http://www.w3.org/Graphics/SVG/1.1/DTD/svg11.dtd">
<!-- Generated by graphviz version 2.43.0 (0)
 -->
<!-- Title: %3 Pages: 1 -->
<svg width="324pt" height="500pt"
 viewBox="0.00 0.00 324.09 499.82" xmlns="http://www.w3.org/2000/svg" xmlns:xlink="http://www.w3.org/1999/xlink">
<g id="graph0" class="graph" transform="scale(1 1) rotate(0) translate(4 495.82)">
<title>%3</title>
<polygon fill="white" stroke="transparent" points="-4,4 -4,-495.82 320.09,-495.82 320.09,4 -4,4"/>
<!-- ENTRY -->
<g id="node1" class="node">
<title>ENTRY</title>
<ellipse fill="black" stroke="black" cx="139.54" cy="-490.02" rx="1.8" ry="1.8"/>
</g>
<!-- 0 -->
<g id="node5" class="node">
<title>0</title>
<ellipse fill="none" stroke="black" cx="139.54" cy="-394.67" rx="56.59" ry="56.59"/>
<text text-anchor="middle" x="139.54" y="-390.97" font-family="Times,serif" font-size="14.00">0 &lt; Eps.0</text>
</g>
<!-- ENTRY&#45;&gt;0 -->
<g id="edge1" class="edge">
<title>ENTRY&#45;&gt;0</title>
<path fill="none" stroke="black" d="M139.54,-487.97C139.54,-484.71 139.54,-474.22 139.54,-461.41"/>
<polygon fill="black" stroke="black" points="143.05,-461.25 139.54,-451.25 136.05,-461.25 143.05,-461.25"/>
</g>
<!-- 3 -->
<g id="node2" class="node">
<title>3</title>
<ellipse fill="none" stroke="black" cx="56.54" cy="-56.54" rx="56.59" ry="56.59"/>
<text text-anchor="middle" x="56.54" y="-52.84" font-family="Times,serif" font-size="14.00">3 &lt; Eps.4</text>
</g>
<!-- 3&#45;&gt;3 -->
<g id="edge3" class="edge">
<title>3&#45;&gt;3</title>
<path fill="none" stroke="black" d="M111.15,-71.42C122.73,-69.91 131.09,-64.95 131.09,-56.54 131.09,-50.76 127.14,-46.61 120.91,-44.09"/>
<polygon fill="black" stroke="black" points="121.7,-40.68 111.15,-41.67 120.01,-47.48 121.7,-40.68"/>
<text text-anchor="middle" x="139.59" y="-52.84" font-family="Times,serif" font-size="14.00">?u</text>
</g>
<!-- 2 -->
<g id="node3" class="node">
<title>2</title>
<ellipse fill="none" stroke="black" cx="222.54" cy="-56.54" rx="56.59" ry="56.59"/>
<text text-anchor="middle" x="222.54" y="-52.84" font-family="Times,serif" font-size="14.00">2 &lt; Eps.2</text>
</g>
<!-- 2&#45;&gt;2 -->
<g id="edge6" class="edge">
<title>2&#45;&gt;2</title>
<path fill="none" stroke="black" d="M277.15,-71.42C288.73,-69.91 297.09,-64.95 297.09,-56.54 297.09,-50.76 293.14,-46.61 286.91,-44.09"/>
<polygon fill="black" stroke="black" points="287.7,-40.68 277.15,-41.67 286.01,-47.48 287.7,-40.68"/>
<text text-anchor="middle" x="306.59" y="-52.84" font-family="Times,serif" font-size="14.00">!w</text>
</g>
<!-- 1 -->
<g id="node4" class="node">
<title>1</title>
<ellipse fill="none" stroke="black" cx="139.54" cy="-225.61" rx="61.54" ry="61.54"/>
<text text-anchor="middle" x="139.54" y="-229.41" font-family="Times,serif" font-size="14.00">1 &lt; {b}.2</text>
<text text-anchor="middle" x="139.54" y="-214.41" font-family="Times,serif" font-size="14.00">{c}.4</text>
</g>
<!-- 1&#45;&gt;3 -->
<g id="edge5" class="edge">
<title>1&#45;&gt;3</title>
<path fill="none" stroke="black" d="M112.37,-169.91C103.95,-152.96 94.64,-134.22 86.07,-116.97"/>
<polygon fill="black" stroke="black" points="88.98,-114.97 81.4,-107.57 82.71,-118.08 88.98,-114.97"/>
<text text-anchor="middle" x="108.54" y="-134.89" font-family="Times,serif" font-size="14.00">?c</text>
</g>
<!-- 1&#45;&gt;2 -->
<g id="edge4" class="edge">
<title>1&#45;&gt;2</title>
<path fill="none" stroke="black" d="M166.72,-169.91C175.14,-152.96 184.45,-134.22 193.02,-116.97"/>
<polygon fill="black" stroke="black" points="196.38,-118.08 197.69,-107.57 190.11,-114.97 196.38,-118.08"/>
<text text-anchor="middle" x="191.04" y="-134.89" font-family="Times,serif" font-size="14.00">?b</text>
</g>
<!-- 0&#45;&gt;1 -->
<g id="edge2" class="edge">
<title>0&#45;&gt;1</title>
<path fill="none" stroke="black" d="M139.54,-338.04C139.54,-325.03 139.54,-311 139.54,-297.43"/>
<polygon fill="black" stroke="black" points="143.05,-297.17 139.54,-287.17 136.05,-297.17 143.05,-297.17"/>
<text text-anchor="middle" x="147.04" y="-308.93" font-family="Times,serif" font-size="14.00">!a</text>
</g>
</g>
</svg>
