<?xml version="1.0" encoding="UTF-8" standalone="no"?>
<!DOCTYPE svg PUBLIC "-//W3C//DTD SVG 1.1//EN"
 "http://www.w3.org/Graphics/SVG/1.1/DTD/svg11.dtd">
<!-- Generated by graphviz version 2.43.0 (0)
 -->
<!-- Title: %3 Pages: 1 -->
<svg width="170pt" height="259pt"
 viewBox="0.00 0.00 170.00 258.60" xmlns="http://www.w3.org/2000/svg" xmlns:xlink="http://www.w3.org/1999/xlink">
<g id="graph0" class="graph" transform="scale(1 1) rotate(0) translate(4 254.6)">
<title>%3</title>
<polygon fill="white" stroke="transparent" points="-4,4 -4,-254.6 166,-254.6 166,4 -4,4"/>
<!-- ENTRY -->
<g id="node1" class="node">
<title>ENTRY</title>
<ellipse fill="black" stroke="black" cx="65" cy="-248.8" rx="1.8" ry="1.8"/>
</g>
<!-- 0 -->
<g id="node2" class="node">
<title>0</title>
<ellipse fill="none" stroke="black" cx="65" cy="-192" rx="18" ry="18"/>
<text text-anchor="middle" x="65" y="-188.3" font-family="Times,serif" font-size="14.00">0</text>
</g>
<!-- ENTRY&#45;&gt;0 -->
<g id="edge1" class="edge">
<title>ENTRY&#45;&gt;0</title>
<path fill="none" stroke="black" d="M65,-246.85C65,-243.49 65,-231.73 65,-220.05"/>
<polygon fill="black" stroke="black" points="68.5,-220.02 65,-210.02 61.5,-220.02 68.5,-220.02"/>
</g>
<!-- 3 -->
<g id="node3" class="node">
<title>3</title>
<ellipse fill="none" stroke="black" cx="39" cy="-105" rx="18" ry="18"/>
<text text-anchor="middle" x="39" y="-101.3" font-family="Times,serif" font-size="14.00">3</text>
</g>
<!-- 0&#45;&gt;3 -->
<g id="edge2" class="edge">
<title>0&#45;&gt;3</title>
<path fill="none" stroke="black" d="M58.09,-175.15C55.66,-169.21 53.02,-162.36 51,-156 48.62,-148.51 46.46,-140.27 44.64,-132.67"/>
<polygon fill="black" stroke="black" points="48.04,-131.8 42.4,-122.83 41.21,-133.36 48.04,-131.8"/>
<text text-anchor="middle" x="59" y="-144.8" font-family="Times,serif" font-size="14.00">?c</text>
</g>
<!-- 1 -->
<g id="node5" class="node">
<title>1</title>
<ellipse fill="none" stroke="black" cx="102" cy="-105" rx="18" ry="18"/>
<text text-anchor="middle" x="102" y="-101.3" font-family="Times,serif" font-size="14.00">1</text>
</g>
<!-- 0&#45;&gt;1 -->
<g id="edge5" class="edge">
<title>0&#45;&gt;1</title>
<path fill="none" stroke="black" d="M71.96,-175.01C77.33,-162.66 84.87,-145.35 91.05,-131.15"/>
<polygon fill="black" stroke="black" points="94.29,-132.48 95.07,-121.92 87.87,-129.69 94.29,-132.48"/>
<text text-anchor="middle" x="93.5" y="-144.8" font-family="Times,serif" font-size="14.00">?b</text>
</g>
<!-- 4 -->
<g id="node4" class="node">
<title>4</title>
<ellipse fill="none" stroke="black" cx="18" cy="-18" rx="18" ry="18"/>
<text text-anchor="middle" x="18" y="-14.3" font-family="Times,serif" font-size="14.00">4</text>
</g>
<!-- 3&#45;&gt;4 -->
<g id="edge3" class="edge">
<title>3&#45;&gt;4</title>
<path fill="none" stroke="black" d="M34.85,-87.21C31.92,-75.33 27.92,-59.17 24.56,-45.56"/>
<polygon fill="black" stroke="black" points="27.94,-44.63 22.14,-35.76 21.14,-46.31 27.94,-44.63"/>
<text text-anchor="middle" x="37.5" y="-57.8" font-family="Times,serif" font-size="14.00">!a</text>
</g>
<!-- 4&#45;&gt;4 -->
<g id="edge4" class="edge">
<title>4&#45;&gt;4</title>
<path fill="none" stroke="black" d="M34.66,-25.38C44.62,-27.02 54,-24.56 54,-18 54,-13.8 50.15,-11.28 44.77,-10.44"/>
<polygon fill="black" stroke="black" points="44.6,-6.94 34.66,-10.62 44.72,-13.94 44.6,-6.94"/>
<text text-anchor="middle" x="62.5" y="-14.3" font-family="Times,serif" font-size="14.00">?u</text>
</g>
<!-- 2 -->
<g id="node6" class="node">
<title>2</title>
<ellipse fill="none" stroke="black" cx="107" cy="-18" rx="18" ry="18"/>
<text text-anchor="middle" x="107" y="-14.3" font-family="Times,serif" font-size="14.00">2</text>
</g>
<!-- 1&#45;&gt;2 -->
<g id="edge6" class="edge">
<title>1&#45;&gt;2</title>
<path fill="none" stroke="black" d="M103.01,-86.8C103.7,-75.16 104.61,-59.55 105.4,-46.24"/>
<polygon fill="black" stroke="black" points="108.9,-46.36 105.99,-36.18 101.91,-45.95 108.9,-46.36"/>
<text text-anchor="middle" x="111.5" y="-57.8" font-family="Times,serif" font-size="14.00">!a</text>
</g>
<!-- 2&#45;&gt;2 -->
<g id="edge7" class="edge">
<title>2&#45;&gt;2</title>
<path fill="none" stroke="black" d="M123.66,-25.38C133.62,-27.02 143,-24.56 143,-18 143,-13.8 139.15,-11.28 133.77,-10.44"/>
<polygon fill="black" stroke="black" points="133.6,-6.94 123.66,-10.62 133.72,-13.94 133.6,-6.94"/>
<text text-anchor="middle" x="152.5" y="-14.3" font-family="Times,serif" font-size="14.00">!w</text>
</g>
</g>
</svg>
