<?xml version="1.0" encoding="UTF-8" standalone="no"?>
<!DOCTYPE svg PUBLIC "-//W3C//DTD SVG 1.1//EN"
 "http://www.w3.org/Graphics/SVG/1.1/DTD/svg11.dtd">
<!-- Generated by graphviz version 2.43.0 (0)
 -->
<!-- Title: %3 Pages: 1 -->
<svg width="252pt" height="837pt"
 viewBox="0.00 0.00 252.09 836.53" xmlns="http://www.w3.org/2000/svg" xmlns:xlink="http://www.w3.org/1999/xlink">
<g id="graph0" class="graph" transform="scale(1 1) rotate(0) translate(4 832.53)">
<title>%3</title>
<polygon fill="white" stroke="transparent" points="-4,4 -4,-832.53 248.09,-832.53 248.09,4 -4,4"/>
<!-- ENTRY -->
<g id="node1" class="node">
<title>ENTRY</title>
<ellipse fill="black" stroke="black" cx="121.54" cy="-826.73" rx="1.8" ry="1.8"/>
</g>
<!-- 0 -->
<g id="node8" class="node">
<title>0</title>
<ellipse fill="none" stroke="black" cx="121.54" cy="-731.38" rx="56.59" ry="56.59"/>
<text text-anchor="middle" x="121.54" y="-727.68" font-family="Times,serif" font-size="14.00">0 &lt; Eps.0</text>
</g>
<!-- ENTRY&#45;&gt;0 -->
<g id="edge1" class="edge">
<title>ENTRY&#45;&gt;0</title>
<path fill="none" stroke="black" d="M121.54,-824.68C121.54,-821.42 121.54,-810.93 121.54,-798.13"/>
<polygon fill="black" stroke="black" points="125.05,-797.96 121.54,-787.96 118.05,-797.96 125.05,-797.96"/>
</g>
<!-- 2 -->
<g id="node2" class="node">
<title>2</title>
<ellipse fill="none" stroke="black" cx="121.54" cy="-389.7" rx="61.54" ry="61.54"/>
<text text-anchor="middle" x="121.54" y="-393.5" font-family="Times,serif" font-size="14.00">2 &lt; {b}.3</text>
<text text-anchor="middle" x="121.54" y="-378.5" font-family="Times,serif" font-size="14.00">{c}.8</text>
</g>
<!-- 6 -->
<g id="node3" class="node">
<title>6</title>
<ellipse fill="none" stroke="black" cx="56.54" cy="-220.63" rx="56.59" ry="56.59"/>
<text text-anchor="middle" x="56.54" y="-216.93" font-family="Times,serif" font-size="14.00">6 &lt; Eps.8</text>
</g>
<!-- 2&#45;&gt;6 -->
<g id="edge4" class="edge">
<title>2&#45;&gt;6</title>
<path fill="none" stroke="black" d="M99.54,-332.14C93.44,-316.46 86.79,-299.36 80.58,-283.4"/>
<polygon fill="black" stroke="black" points="83.67,-281.69 76.78,-273.64 77.14,-284.22 83.67,-281.69"/>
<text text-anchor="middle" x="99.54" y="-298.98" font-family="Times,serif" font-size="14.00">?c</text>
</g>
<!-- 3 -->
<g id="node4" class="node">
<title>3</title>
<ellipse fill="none" stroke="black" cx="187.54" cy="-220.63" rx="56.59" ry="56.59"/>
<text text-anchor="middle" x="187.54" y="-216.93" font-family="Times,serif" font-size="14.00">3 &lt; Eps.3</text>
</g>
<!-- 2&#45;&gt;3 -->
<g id="edge7" class="edge">
<title>2&#45;&gt;3</title>
<path fill="none" stroke="black" d="M143.89,-332.14C150.14,-316.31 156.97,-299.04 163.32,-282.95"/>
<polygon fill="black" stroke="black" points="166.58,-284.22 167,-273.64 160.07,-281.65 166.58,-284.22"/>
<text text-anchor="middle" x="164.04" y="-298.98" font-family="Times,serif" font-size="14.00">?b</text>
</g>
<!-- 7 -->
<g id="node7" class="node">
<title>7</title>
<ellipse fill="none" stroke="red" cx="56.54" cy="-56.54" rx="56.59" ry="56.59"/>
<text text-anchor="middle" x="56.54" y="-52.84" font-family="Times,serif" font-size="14.00">7 &lt; Eps.9</text>
</g>
<!-- 6&#45;&gt;7 -->
<g id="edge2" class="edge">
<title>6&#45;&gt;7</title>
<path fill="none" stroke="black" d="M56.54,-163.85C56.54,-150.79 56.54,-136.76 56.54,-123.3"/>
<polygon fill="black" stroke="black" points="60.05,-123.16 56.54,-113.16 53.05,-123.16 60.05,-123.16"/>
<text text-anchor="middle" x="68.54" y="-134.89" font-family="Times,serif" font-size="14.00">!a3</text>
</g>
<!-- 4 -->
<g id="node6" class="node">
<title>4</title>
<ellipse fill="none" stroke="red" cx="187.54" cy="-56.54" rx="56.59" ry="56.59"/>
<text text-anchor="middle" x="187.54" y="-52.84" font-family="Times,serif" font-size="14.00">4 &lt; Eps.4</text>
</g>
<!-- 3&#45;&gt;4 -->
<g id="edge3" class="edge">
<title>3&#45;&gt;4</title>
<path fill="none" stroke="black" d="M187.54,-163.85C187.54,-150.79 187.54,-136.76 187.54,-123.3"/>
<polygon fill="black" stroke="black" points="191.05,-123.16 187.54,-113.16 184.05,-123.16 191.05,-123.16"/>
<text text-anchor="middle" x="199.54" y="-134.89" font-family="Times,serif" font-size="14.00">!a3</text>
</g>
<!-- 1 -->
<g id="node5" class="node">
<title>1</title>
<ellipse fill="none" stroke="black" cx="121.54" cy="-563.03" rx="60.62" ry="60.62"/>
<text text-anchor="middle" x="121.54" y="-566.83" font-family="Times,serif" font-size="14.00">1 &lt; {c}.7</text>
<text text-anchor="middle" x="121.54" y="-551.83" font-family="Times,serif" font-size="14.00">{b}.2</text>
</g>
<!-- 1&#45;&gt;2 -->
<g id="edge6" class="edge">
<title>1&#45;&gt;2</title>
<path fill="none" stroke="black" d="M121.54,-502.1C121.54,-489.03 121.54,-475.08 121.54,-461.62"/>
<polygon fill="black" stroke="black" points="125.05,-461.46 121.54,-451.46 118.05,-461.46 125.05,-461.46"/>
<text text-anchor="middle" x="133.54" y="-473.02" font-family="Times,serif" font-size="14.00">!a2</text>
</g>
<!-- 0&#45;&gt;1 -->
<g id="edge5" class="edge">
<title>0&#45;&gt;1</title>
<path fill="none" stroke="black" d="M121.54,-674.53C121.54,-661.59 121.54,-647.66 121.54,-634.2"/>
<polygon fill="black" stroke="black" points="125.05,-634.02 121.54,-624.02 118.05,-634.02 125.05,-634.02"/>
<text text-anchor="middle" x="133.54" y="-645.64" font-family="Times,serif" font-size="14.00">!a1</text>
</g>
</g>
</svg>
