<?xml version="1.0" encoding="UTF-8" standalone="no"?>
<!DOCTYPE svg PUBLIC "-//W3C//DTD SVG 1.1//EN"
 "http://www.w3.org/Graphics/SVG/1.1/DTD/svg11.dtd">
<!-- Generated by graphviz version 2.43.0 (0)
 -->
<!-- Title: %3 Pages: 1 -->
<svg width="383pt" height="647pt"
 viewBox="0.00 0.00 383.09 647.35" xmlns="http://www.w3.org/2000/svg" xmlns:xlink="http://www.w3.org/1999/xlink">
<g id="graph0" class="graph" transform="scale(1 1) rotate(0) translate(4 643.35)">
<title>%3</title>
<polygon fill="white" stroke="transparent" points="-4,4 -4,-643.35 379.09,-643.35 379.09,4 -4,4"/>
<!-- ENTRY -->
<g id="node1" class="node">
<title>ENTRY</title>
<ellipse fill="black" stroke="black" cx="56.54" cy="-582.8" rx="1.8" ry="1.8"/>
</g>
<!-- 0 -->
<g id="node9" class="node">
<title>0</title>
<ellipse fill="none" stroke="black" cx="56.54" cy="-418.71" rx="56.59" ry="56.59"/>
<text text-anchor="middle" x="56.54" y="-415.01" font-family="Times,serif" font-size="14.00">0 &lt; Eps.0</text>
</g>
<!-- ENTRY&#45;&gt;0 -->
<g id="edge1" class="edge">
<title>ENTRY&#45;&gt;0</title>
<path fill="none" stroke="black" d="M56.54,-580.77C56.54,-573.3 56.54,-526.72 56.54,-485.57"/>
<polygon fill="black" stroke="black" points="60.05,-485.52 56.54,-475.52 53.05,-485.52 60.05,-485.52"/>
</g>
<!-- 5 -->
<g id="node2" class="node">
<title>5</title>
<ellipse fill="none" stroke="black" cx="187.54" cy="-254.62" rx="56.59" ry="56.59"/>
<text text-anchor="middle" x="187.54" y="-250.92" font-family="Times,serif" font-size="14.00">5 &lt; Eps.3</text>
</g>
<!-- 2 -->
<g id="node6" class="node">
<title>2</title>
<ellipse fill="none" stroke="red" cx="187.54" cy="-73.54" rx="73.58" ry="73.58"/>
<text text-anchor="middle" x="187.54" y="-77.34" font-family="Times,serif" font-size="14.00">2 &lt; Eps.2</text>
<text text-anchor="middle" x="187.54" y="-62.34" font-family="Times,serif" font-size="14.00">({x3,x1})*.1</text>
</g>
<!-- 5&#45;&gt;2 -->
<g id="edge4" class="edge">
<title>5&#45;&gt;2</title>
<path fill="none" stroke="black" d="M187.54,-197.94C187.54,-185.18 187.54,-171.34 187.54,-157.7"/>
<polygon fill="black" stroke="black" points="191.05,-157.32 187.54,-147.32 184.05,-157.32 191.05,-157.32"/>
<text text-anchor="middle" x="195.04" y="-168.88" font-family="Times,serif" font-size="14.00">!a</text>
</g>
<!-- 3 -->
<g id="node3" class="node">
<title>3</title>
<ellipse fill="none" stroke="black" cx="187.54" cy="-582.8" rx="56.59" ry="56.59"/>
<text text-anchor="middle" x="187.54" y="-579.1" font-family="Times,serif" font-size="14.00">3 &lt; Eps.0</text>
</g>
<!-- 4 -->
<g id="node5" class="node">
<title>4</title>
<ellipse fill="none" stroke="black" cx="187.54" cy="-418.71" rx="56.59" ry="56.59"/>
<text text-anchor="middle" x="187.54" y="-415.01" font-family="Times,serif" font-size="14.00">4 &lt; Eps.1</text>
</g>
<!-- 3&#45;&gt;4 -->
<g id="edge3" class="edge">
<title>3&#45;&gt;4</title>
<path fill="none" stroke="black" d="M187.54,-526.02C187.54,-512.96 187.54,-498.92 187.54,-485.47"/>
<polygon fill="black" stroke="black" points="191.05,-485.32 187.54,-475.32 184.05,-485.32 191.05,-485.32"/>
<text text-anchor="middle" x="195.04" y="-497.06" font-family="Times,serif" font-size="14.00">!a</text>
</g>
<!-- 8 -->
<g id="node4" class="node">
<title>8</title>
<ellipse fill="none" stroke="black" cx="318.54" cy="-418.71" rx="56.59" ry="56.59"/>
<text text-anchor="middle" x="318.54" y="-415.01" font-family="Times,serif" font-size="14.00">8 &lt; Eps.1</text>
</g>
<!-- 9 -->
<g id="node8" class="node">
<title>9</title>
<ellipse fill="none" stroke="black" cx="318.54" cy="-254.62" rx="56.59" ry="56.59"/>
<text text-anchor="middle" x="318.54" y="-250.92" font-family="Times,serif" font-size="14.00">9 &lt; Eps.2</text>
</g>
<!-- 8&#45;&gt;9 -->
<g id="edge2" class="edge">
<title>8&#45;&gt;9</title>
<path fill="none" stroke="black" d="M318.54,-361.93C318.54,-348.87 318.54,-334.83 318.54,-321.38"/>
<polygon fill="black" stroke="black" points="322.05,-321.23 318.54,-311.23 315.05,-321.23 322.05,-321.23"/>
<text text-anchor="middle" x="326.04" y="-332.97" font-family="Times,serif" font-size="14.00">!a</text>
</g>
<!-- 4&#45;&gt;5 -->
<g id="edge8" class="edge">
<title>4&#45;&gt;5</title>
<path fill="none" stroke="black" d="M187.54,-361.93C187.54,-348.87 187.54,-334.83 187.54,-321.38"/>
<polygon fill="black" stroke="black" points="191.05,-321.23 187.54,-311.23 184.05,-321.23 191.05,-321.23"/>
<text text-anchor="middle" x="195.54" y="-332.97" font-family="Times,serif" font-size="14.00">!b</text>
</g>
<!-- 1 -->
<g id="node7" class="node">
<title>1</title>
<ellipse fill="none" stroke="black" cx="56.54" cy="-254.62" rx="56.59" ry="56.59"/>
<text text-anchor="middle" x="56.54" y="-250.92" font-family="Times,serif" font-size="14.00">1 &lt; Eps.1</text>
</g>
<!-- 1&#45;&gt;2 -->
<g id="edge7" class="edge">
<title>1&#45;&gt;2</title>
<path fill="none" stroke="black" d="M89.6,-208.43C104.45,-188.13 122.28,-163.76 138.63,-141.4"/>
<polygon fill="black" stroke="black" points="141.5,-143.41 144.58,-133.27 135.85,-139.28 141.5,-143.41"/>
<text text-anchor="middle" x="126.04" y="-168.88" font-family="Times,serif" font-size="14.00">!a</text>
</g>
<!-- 9&#45;&gt;2 -->
<g id="edge6" class="edge">
<title>9&#45;&gt;2</title>
<path fill="none" stroke="black" d="M285.49,-208.43C270.64,-188.13 252.81,-163.76 236.46,-141.4"/>
<polygon fill="black" stroke="black" points="239.24,-139.28 230.51,-133.27 233.59,-143.41 239.24,-139.28"/>
<text text-anchor="middle" x="268.04" y="-168.88" font-family="Times,serif" font-size="14.00">!a</text>
</g>
<!-- 0&#45;&gt;1 -->
<g id="edge5" class="edge">
<title>0&#45;&gt;1</title>
<path fill="none" stroke="black" d="M56.54,-361.93C56.54,-348.87 56.54,-334.83 56.54,-321.38"/>
<polygon fill="black" stroke="black" points="60.05,-321.23 56.54,-311.23 53.05,-321.23 60.05,-321.23"/>
<text text-anchor="middle" x="64.04" y="-332.97" font-family="Times,serif" font-size="14.00">!a</text>
</g>
</g>
</svg>
