<?xml version="1.0" encoding="UTF-8" standalone="no"?>
<!DOCTYPE svg PUBLIC "-//W3C//DTD SVG 1.1//EN"
 "http://www.w3.org/Graphics/SVG/1.1/DTD/svg11.dtd">
<!-- Generated by graphviz version 2.43.0 (0)
 -->
<!-- Title: %3 Pages: 1 -->
<svg width="278pt" height="520pt"
 viewBox="0.00 0.00 278.00 519.60" xmlns="http://www.w3.org/2000/svg" xmlns:xlink="http://www.w3.org/1999/xlink">
<g id="graph0" class="graph" transform="scale(1 1) rotate(0) translate(4 515.6)">
<title>%3</title>
<polygon fill="white" stroke="transparent" points="-4,4 -4,-515.6 274,-515.6 274,4 -4,4"/>
<!-- ENTRY -->
<g id="node1" class="node">
<title>ENTRY</title>
<ellipse fill="black" stroke="black" cx="149" cy="-509.8" rx="1.8" ry="1.8"/>
</g>
<!-- 0 -->
<g id="node2" class="node">
<title>0</title>
<ellipse fill="none" stroke="black" cx="149" cy="-453" rx="18" ry="18"/>
<text text-anchor="middle" x="149" y="-449.3" font-family="Times,serif" font-size="14.00">0</text>
</g>
<!-- ENTRY&#45;&gt;0 -->
<g id="edge1" class="edge">
<title>ENTRY&#45;&gt;0</title>
<path fill="none" stroke="black" d="M149,-507.85C149,-504.49 149,-492.73 149,-481.05"/>
<polygon fill="black" stroke="black" points="152.5,-481.02 149,-471.02 145.5,-481.02 152.5,-481.02"/>
</g>
<!-- 1 -->
<g id="node3" class="node">
<title>1</title>
<ellipse fill="none" stroke="black" cx="149" cy="-366" rx="18" ry="18"/>
<text text-anchor="middle" x="149" y="-362.3" font-family="Times,serif" font-size="14.00">1</text>
</g>
<!-- 0&#45;&gt;1 -->
<g id="edge2" class="edge">
<title>0&#45;&gt;1</title>
<path fill="none" stroke="black" d="M149,-434.8C149,-423.16 149,-407.55 149,-394.24"/>
<polygon fill="black" stroke="black" points="152.5,-394.18 149,-384.18 145.5,-394.18 152.5,-394.18"/>
<text text-anchor="middle" x="156.5" y="-405.8" font-family="Times,serif" font-size="14.00">!a</text>
</g>
<!-- 2 -->
<g id="node4" class="node">
<title>2</title>
<ellipse fill="none" stroke="black" cx="149" cy="-279" rx="18" ry="18"/>
<text text-anchor="middle" x="149" y="-275.3" font-family="Times,serif" font-size="14.00">2</text>
</g>
<!-- 1&#45;&gt;2 -->
<g id="edge3" class="edge">
<title>1&#45;&gt;2</title>
<path fill="none" stroke="black" d="M149,-347.8C149,-336.16 149,-320.55 149,-307.24"/>
<polygon fill="black" stroke="black" points="152.5,-307.18 149,-297.18 145.5,-307.18 152.5,-307.18"/>
<text text-anchor="middle" x="156.5" y="-318.8" font-family="Times,serif" font-size="14.00">!a</text>
</g>
<!-- 8 -->
<g id="node5" class="node">
<title>8</title>
<ellipse fill="none" stroke="black" cx="18" cy="-192" rx="18" ry="18"/>
<text text-anchor="middle" x="18" y="-188.3" font-family="Times,serif" font-size="14.00">8</text>
</g>
<!-- 2&#45;&gt;8 -->
<g id="edge4" class="edge">
<title>2&#45;&gt;8</title>
<path fill="none" stroke="black" d="M131.05,-277.64C105.72,-276.14 59.6,-269.65 33,-243 26.97,-236.96 23.34,-228.59 21.17,-220.43"/>
<polygon fill="black" stroke="black" points="24.55,-219.49 19.13,-210.39 17.69,-220.89 24.55,-219.49"/>
<text text-anchor="middle" x="45.5" y="-231.8" font-family="Times,serif" font-size="14.00">?x3</text>
</g>
<!-- 6 -->
<g id="node7" class="node">
<title>6</title>
<ellipse fill="none" stroke="black" cx="177" cy="-192" rx="18" ry="18"/>
<text text-anchor="middle" x="177" y="-188.3" font-family="Times,serif" font-size="14.00">6</text>
</g>
<!-- 2&#45;&gt;6 -->
<g id="edge7" class="edge">
<title>2&#45;&gt;6</title>
<path fill="none" stroke="black" d="M154.4,-261.61C158.39,-249.5 163.9,-232.77 168.48,-218.86"/>
<polygon fill="black" stroke="black" points="171.81,-219.93 171.62,-209.34 165.16,-217.74 171.81,-219.93"/>
<text text-anchor="middle" x="176.5" y="-231.8" font-family="Times,serif" font-size="14.00">?x2</text>
</g>
<!-- 3 -->
<g id="node9" class="node">
<title>3</title>
<ellipse fill="none" stroke="black" cx="123" cy="-192" rx="18" ry="18"/>
<text text-anchor="middle" x="123" y="-188.3" font-family="Times,serif" font-size="14.00">3</text>
</g>
<!-- 2&#45;&gt;3 -->
<g id="edge10" class="edge">
<title>2&#45;&gt;3</title>
<path fill="none" stroke="black" d="M138.69,-264.05C134.67,-257.9 130.45,-250.4 128,-243 125.61,-235.8 124.27,-227.71 123.54,-220.18"/>
<polygon fill="black" stroke="black" points="127.02,-219.8 122.87,-210.05 120.04,-220.26 127.02,-219.8"/>
<text text-anchor="middle" x="140.5" y="-231.8" font-family="Times,serif" font-size="14.00">?x1</text>
</g>
<!-- 9 -->
<g id="node6" class="node">
<title>9</title>
<ellipse fill="none" stroke="black" cx="51" cy="-105" rx="18" ry="18"/>
<text text-anchor="middle" x="51" y="-101.3" font-family="Times,serif" font-size="14.00">9</text>
</g>
<!-- 8&#45;&gt;9 -->
<g id="edge5" class="edge">
<title>8&#45;&gt;9</title>
<path fill="none" stroke="black" d="M24.21,-175.01C28.95,-162.78 35.6,-145.68 41.08,-131.56"/>
<polygon fill="black" stroke="black" points="44.46,-132.51 44.82,-121.92 37.94,-129.97 44.46,-132.51"/>
<text text-anchor="middle" x="44.5" y="-144.8" font-family="Times,serif" font-size="14.00">!a</text>
</g>
<!-- 9&#45;&gt;2 -->
<g id="edge6" class="edge">
<title>9&#45;&gt;2</title>
<path fill="none" stroke="black" d="M53.21,-122.88C56.59,-144.35 64.48,-182 81,-210 92.88,-230.14 112.12,-248.6 127.1,-261.18"/>
<polygon fill="black" stroke="black" points="124.95,-263.95 134.92,-267.55 129.37,-258.52 124.95,-263.95"/>
<text text-anchor="middle" x="88.5" y="-188.3" font-family="Times,serif" font-size="14.00">!a</text>
</g>
<!-- 7 -->
<g id="node8" class="node">
<title>7</title>
<ellipse fill="none" stroke="black" cx="225" cy="-105" rx="18" ry="18"/>
<text text-anchor="middle" x="225" y="-101.3" font-family="Times,serif" font-size="14.00">7</text>
</g>
<!-- 6&#45;&gt;7 -->
<g id="edge8" class="edge">
<title>6&#45;&gt;7</title>
<path fill="none" stroke="black" d="M184.2,-175.43C188.96,-165.44 195.51,-152.27 202,-141 204.31,-136.99 206.89,-132.82 209.46,-128.8"/>
<polygon fill="black" stroke="black" points="212.42,-130.68 214.99,-120.4 206.57,-126.84 212.42,-130.68"/>
<text text-anchor="middle" x="209.5" y="-144.8" font-family="Times,serif" font-size="14.00">!a</text>
</g>
<!-- 7&#45;&gt;2 -->
<g id="edge9" class="edge">
<title>7&#45;&gt;2</title>
<path fill="none" stroke="black" d="M224.96,-123.22C224.08,-150.91 218.9,-205.97 193,-243 187.61,-250.7 180.05,-257.57 172.71,-263.13"/>
<polygon fill="black" stroke="black" points="170.5,-260.41 164.35,-269.03 174.54,-266.13 170.5,-260.41"/>
<text text-anchor="middle" x="226.5" y="-188.3" font-family="Times,serif" font-size="14.00">!a</text>
</g>
<!-- 4 -->
<g id="node10" class="node">
<title>4</title>
<ellipse fill="none" stroke="black" cx="166" cy="-105" rx="18" ry="18"/>
<text text-anchor="middle" x="166" y="-101.3" font-family="Times,serif" font-size="14.00">4</text>
</g>
<!-- 3&#45;&gt;4 -->
<g id="edge11" class="edge">
<title>3&#45;&gt;4</title>
<path fill="none" stroke="black" d="M130.89,-175.41C137.25,-162.83 146.32,-144.9 153.65,-130.42"/>
<polygon fill="black" stroke="black" points="156.77,-131.99 158.16,-121.49 150.53,-128.83 156.77,-131.99"/>
<text text-anchor="middle" x="154.5" y="-144.8" font-family="Times,serif" font-size="14.00">!a</text>
</g>
<!-- 5 -->
<g id="node11" class="node">
<title>5</title>
<ellipse fill="none" stroke="black" cx="239" cy="-18" rx="18" ry="18"/>
<text text-anchor="middle" x="239" y="-14.3" font-family="Times,serif" font-size="14.00">5</text>
</g>
<!-- 4&#45;&gt;5 -->
<g id="edge12" class="edge">
<title>4&#45;&gt;5</title>
<path fill="none" stroke="black" d="M177.41,-90.72C189.08,-77.12 207.41,-55.79 221.03,-39.92"/>
<polygon fill="black" stroke="black" points="223.81,-42.05 227.67,-32.19 218.5,-37.49 223.81,-42.05"/>
<text text-anchor="middle" x="214" y="-57.8" font-family="Times,serif" font-size="14.00">!b</text>
</g>
<!-- 5&#45;&gt;2 -->
<g id="edge13" class="edge">
<title>5&#45;&gt;2</title>
<path fill="none" stroke="black" d="M243.09,-35.64C246.24,-49.33 250.32,-69.29 252,-87 257.19,-141.77 260.57,-159.82 238,-210 225.77,-237.19 196.27,-256.2 174.57,-267.08"/>
<polygon fill="black" stroke="black" points="173.06,-263.92 165.53,-271.37 176.06,-270.24 173.06,-263.92"/>
<text text-anchor="middle" x="262.5" y="-144.8" font-family="Times,serif" font-size="14.00">!a</text>
</g>
</g>
</svg>
