<?xml version="1.0" encoding="UTF-8" standalone="no"?>
<!DOCTYPE svg PUBLIC "-//W3C//DTD SVG 1.1//EN"
 "http://www.w3.org/Graphics/SVG/1.1/DTD/svg11.dtd">
<!-- Generated by graphviz version 2.43.0 (0)
 -->
<!-- Title: %3 Pages: 1 -->
<svg width="264pt" height="259pt"
 viewBox="0.00 0.00 264.00 258.60" xmlns="http://www.w3.org/2000/svg" xmlns:xlink="http://www.w3.org/1999/xlink">
<g id="graph0" class="graph" transform="scale(1 1) rotate(0) translate(4 254.6)">
<title>%3</title>
<polygon fill="white" stroke="transparent" points="-4,4 -4,-254.6 260,-254.6 260,4 -4,4"/>
<!-- ENTRY -->
<g id="node1" class="node">
<title>ENTRY</title>
<ellipse fill="black" stroke="black" cx="133" cy="-248.8" rx="1.8" ry="1.8"/>
</g>
<!-- 0 -->
<g id="node2" class="node">
<title>0</title>
<ellipse fill="none" stroke="black" cx="133" cy="-192" rx="18" ry="18"/>
<text text-anchor="middle" x="133" y="-188.3" font-family="Times,serif" font-size="14.00">0</text>
</g>
<!-- ENTRY&#45;&gt;0 -->
<g id="edge1" class="edge">
<title>ENTRY&#45;&gt;0</title>
<path fill="none" stroke="black" d="M133,-246.85C133,-243.49 133,-231.73 133,-220.05"/>
<polygon fill="black" stroke="black" points="136.5,-220.02 133,-210.02 129.5,-220.02 136.5,-220.02"/>
</g>
<!-- 4 -->
<g id="node3" class="node">
<title>4</title>
<ellipse fill="none" stroke="black" cx="18" cy="-105" rx="18" ry="18"/>
<text text-anchor="middle" x="18" y="-101.3" font-family="Times,serif" font-size="14.00">4</text>
</g>
<!-- 0&#45;&gt;4 -->
<g id="edge2" class="edge">
<title>0&#45;&gt;4</title>
<path fill="none" stroke="black" d="M115.18,-188.2C95.17,-184.22 62.78,-175.17 42,-156 35.08,-149.62 29.95,-140.82 26.24,-132.38"/>
<polygon fill="black" stroke="black" points="29.41,-130.86 22.53,-122.81 22.88,-133.39 29.41,-130.86"/>
<text text-anchor="middle" x="50" y="-144.8" font-family="Times,serif" font-size="14.00">!b</text>
</g>
<!-- 1 -->
<g id="node5" class="node">
<title>1</title>
<ellipse fill="none" stroke="black" cx="194" cy="-105" rx="18" ry="18"/>
<text text-anchor="middle" x="194" y="-101.3" font-family="Times,serif" font-size="14.00">1</text>
</g>
<!-- 0&#45;&gt;1 -->
<g id="edge5" class="edge">
<title>0&#45;&gt;1</title>
<path fill="none" stroke="black" d="M143.07,-176.96C152.52,-163.8 166.81,-143.89 177.85,-128.51"/>
<polygon fill="black" stroke="black" points="180.93,-130.22 183.91,-120.06 175.24,-126.14 180.93,-130.22"/>
<text text-anchor="middle" x="174.5" y="-144.8" font-family="Times,serif" font-size="14.00">!a</text>
</g>
<!-- 5 -->
<g id="node4" class="node">
<title>5</title>
<ellipse fill="none" stroke="black" cx="51" cy="-18" rx="18" ry="18"/>
<text text-anchor="middle" x="51" y="-14.3" font-family="Times,serif" font-size="14.00">5</text>
</g>
<!-- 4&#45;&gt;5 -->
<g id="edge3" class="edge">
<title>4&#45;&gt;5</title>
<path fill="none" stroke="black" d="M24.21,-88.01C28.95,-75.78 35.6,-58.68 41.08,-44.56"/>
<polygon fill="black" stroke="black" points="44.46,-45.51 44.82,-34.92 37.94,-42.97 44.46,-45.51"/>
<text text-anchor="middle" x="44.5" y="-57.8" font-family="Times,serif" font-size="14.00">!a</text>
</g>
<!-- 5&#45;&gt;0 -->
<g id="edge4" class="edge">
<title>5&#45;&gt;0</title>
<path fill="none" stroke="black" d="M58.58,-34.91C72.91,-64.95 104.04,-130.26 121.15,-166.15"/>
<polygon fill="black" stroke="black" points="118.12,-167.91 125.58,-175.43 124.43,-164.9 118.12,-167.91"/>
<text text-anchor="middle" x="113.5" y="-101.3" font-family="Times,serif" font-size="14.00">?x2</text>
</g>
<!-- 3 -->
<g id="node6" class="node">
<title>3</title>
<ellipse fill="none" stroke="black" cx="163" cy="-18" rx="18" ry="18"/>
<text text-anchor="middle" x="163" y="-14.3" font-family="Times,serif" font-size="14.00">3</text>
</g>
<!-- 1&#45;&gt;3 -->
<g id="edge6" class="edge">
<title>1&#45;&gt;3</title>
<path fill="none" stroke="black" d="M185.36,-89C182.11,-82.93 178.58,-75.77 176,-69 173.18,-61.63 170.77,-53.41 168.81,-45.81"/>
<polygon fill="black" stroke="black" points="172.18,-44.85 166.43,-35.96 165.38,-46.5 172.18,-44.85"/>
<text text-anchor="middle" x="184" y="-57.8" font-family="Times,serif" font-size="14.00">!b</text>
</g>
<!-- 2 -->
<g id="node7" class="node">
<title>2</title>
<ellipse fill="none" stroke="black" cx="226" cy="-18" rx="18" ry="18"/>
<text text-anchor="middle" x="226" y="-14.3" font-family="Times,serif" font-size="14.00">2</text>
</g>
<!-- 1&#45;&gt;2 -->
<g id="edge8" class="edge">
<title>1&#45;&gt;2</title>
<path fill="none" stroke="black" d="M200.02,-88.01C204.59,-75.86 210.98,-58.9 216.28,-44.83"/>
<polygon fill="black" stroke="black" points="219.65,-45.8 219.9,-35.21 213.1,-43.33 219.65,-45.8"/>
<text text-anchor="middle" x="218.5" y="-57.8" font-family="Times,serif" font-size="14.00">!a</text>
</g>
<!-- 3&#45;&gt;0 -->
<g id="edge7" class="edge">
<title>3&#45;&gt;0</title>
<path fill="none" stroke="black" d="M156.91,-35.24C152.06,-48.86 145.53,-68.93 142,-87 136.97,-112.75 134.75,-142.63 133.77,-163.74"/>
<polygon fill="black" stroke="black" points="130.27,-163.78 133.36,-173.91 137.26,-164.06 130.27,-163.78"/>
<text text-anchor="middle" x="154.5" y="-101.3" font-family="Times,serif" font-size="14.00">?x3</text>
</g>
<!-- 2&#45;&gt;0 -->
<g id="edge9" class="edge">
<title>2&#45;&gt;0</title>
<path fill="none" stroke="black" d="M229.41,-36.01C232.83,-57.61 235.72,-95.41 221,-123 207.21,-148.85 178.85,-167.95 158.03,-179.22"/>
<polygon fill="black" stroke="black" points="156.36,-176.14 149.08,-183.84 159.57,-182.36 156.36,-176.14"/>
<text text-anchor="middle" x="243.5" y="-101.3" font-family="Times,serif" font-size="14.00">?x1</text>
</g>
</g>
</svg>
