<?xml version="1.0" encoding="UTF-8" standalone="no"?>
<!DOCTYPE svg PUBLIC "-//W3C//DTD SVG 1.1//EN"
 "http://www.w3.org/Graphics/SVG/1.1/DTD/svg11.dtd">
<!-- Generated by graphviz version 2.43.0 (0)
 -->
<!-- Title: %3 Pages: 1 -->
<svg width="252pt" height="326pt"
 viewBox="0.00 0.00 252.09 325.78" xmlns="http://www.w3.org/2000/svg" xmlns:xlink="http://www.w3.org/1999/xlink">
<g id="graph0" class="graph" transform="scale(1 1) rotate(0) translate(4 321.78)">
<title>%3</title>
<polygon fill="white" stroke="transparent" points="-4,4 -4,-321.78 248.09,-321.78 248.09,4 -4,4"/>
<!-- ENTRY -->
<g id="node1" class="node">
<title>ENTRY</title>
<ellipse fill="black" stroke="black" cx="94.54" cy="-315.98" rx="1.8" ry="1.8"/>
</g>
<!-- 0 -->
<g id="node4" class="node">
<title>0</title>
<ellipse fill="none" stroke="black" cx="94.54" cy="-220.63" rx="56.59" ry="56.59"/>
<text text-anchor="middle" x="94.54" y="-216.93" font-family="Times,serif" font-size="14.00">0 &lt; Eps.0</text>
</g>
<!-- ENTRY&#45;&gt;0 -->
<g id="edge1" class="edge">
<title>ENTRY&#45;&gt;0</title>
<path fill="none" stroke="black" d="M94.54,-313.93C94.54,-310.68 94.54,-300.18 94.54,-287.38"/>
<polygon fill="black" stroke="black" points="98.05,-287.21 94.54,-277.21 91.05,-287.21 98.05,-287.21"/>
</g>
<!-- 2 -->
<g id="node2" class="node">
<title>2</title>
<ellipse fill="none" stroke="red" cx="187.54" cy="-56.54" rx="56.59" ry="56.59"/>
<text text-anchor="middle" x="187.54" y="-52.84" font-family="Times,serif" font-size="14.00">2 &lt; Eps.2</text>
</g>
<!-- 1 -->
<g id="node3" class="node">
<title>1</title>
<ellipse fill="none" stroke="black" cx="56.54" cy="-56.54" rx="56.59" ry="56.59"/>
<text text-anchor="middle" x="56.54" y="-52.84" font-family="Times,serif" font-size="14.00">1 &lt; Eps.1</text>
</g>
<!-- 1&#45;&gt;0 -->
<g id="edge2" class="edge">
<title>1&#45;&gt;0</title>
<path fill="none" stroke="black" d="M69.27,-111.83C72.54,-125.79 76.1,-140.95 79.48,-155.37"/>
<polygon fill="black" stroke="black" points="76.1,-156.27 81.79,-165.21 82.91,-154.68 76.1,-156.27"/>
<text text-anchor="middle" x="85.54" y="-134.89" font-family="Times,serif" font-size="14.00">?x</text>
</g>
<!-- 0&#45;&gt;2 -->
<g id="edge4" class="edge">
<title>0&#45;&gt;2</title>
<path fill="none" stroke="black" d="M122.45,-171C132.61,-153.29 144.19,-133.11 154.74,-114.73"/>
<polygon fill="black" stroke="black" points="157.88,-116.28 159.82,-105.86 151.81,-112.8 157.88,-116.28"/>
<text text-anchor="middle" x="151.54" y="-134.89" font-family="Times,serif" font-size="14.00">!b</text>
</g>
<!-- 0&#45;&gt;1 -->
<g id="edge3" class="edge">
<title>0&#45;&gt;1</title>
<path fill="none" stroke="black" d="M65.03,-171.92C61.11,-163.58 57.71,-154.79 55.54,-146.09 53.74,-138.83 52.66,-131.13 52.09,-123.42"/>
<polygon fill="black" stroke="black" points="55.58,-123.14 51.61,-113.31 48.58,-123.46 55.58,-123.14"/>
<text text-anchor="middle" x="63.04" y="-134.89" font-family="Times,serif" font-size="14.00">!a</text>
</g>
</g>
</svg>
