<?xml version="1.0" encoding="UTF-8" standalone="no"?>
<!DOCTYPE svg PUBLIC "-//W3C//DTD SVG 1.1//EN"
 "http://www.w3.org/Graphics/SVG/1.1/DTD/svg11.dtd">
<!-- Generated by graphviz version 2.43.0 (0)
 -->
<!-- Title: %3 Pages: 1 -->
<svg width="77pt" height="85pt"
 viewBox="0.00 0.00 77.00 84.60" xmlns="http://www.w3.org/2000/svg" xmlns:xlink="http://www.w3.org/1999/xlink">
<g id="graph0" class="graph" transform="scale(1 1) rotate(0) translate(4 80.6)">
<title>%3</title>
<polygon fill="white" stroke="transparent" points="-4,4 -4,-80.6 73,-80.6 73,4 -4,4"/>
<!-- ENTRY -->
<g id="node1" class="node">
<title>ENTRY</title>
<ellipse fill="black" stroke="black" cx="18" cy="-74.8" rx="1.8" ry="1.8"/>
</g>
<!-- 0 -->
<g id="node2" class="node">
<title>0</title>
<ellipse fill="none" stroke="black" cx="18" cy="-18" rx="18" ry="18"/>
<text text-anchor="middle" x="18" y="-14.3" font-family="Times,serif" font-size="14.00">0</text>
</g>
<!-- ENTRY&#45;&gt;0 -->
<g id="edge1" class="edge">
<title>ENTRY&#45;&gt;0</title>
<path fill="none" stroke="black" d="M18,-72.85C18,-69.49 18,-57.73 18,-46.05"/>
<polygon fill="black" stroke="black" points="21.5,-46.02 18,-36.02 14.5,-46.02 21.5,-46.02"/>
</g>
<!-- 0&#45;&gt;0 -->
<g id="edge2" class="edge">
<title>0&#45;&gt;0</title>
<path fill="none" stroke="black" d="M35.04,-24.38C44.86,-25.68 54,-23.55 54,-18 54,-14.53 50.43,-12.4 45.35,-11.6"/>
<polygon fill="black" stroke="black" points="45.03,-8.1 35.04,-11.62 45.04,-15.1 45.03,-8.1"/>
<text text-anchor="middle" x="61.5" y="-14.3" font-family="Times,serif" font-size="14.00">!a</text>
</g>
</g>
</svg>
