<?xml version="1.0" encoding="UTF-8" standalone="no"?>
<!DOCTYPE svg PUBLIC "-//W3C//DTD SVG 1.1//EN"
 "http://www.w3.org/Graphics/SVG/1.1/DTD/svg11.dtd">
<!-- Generated by graphviz version 2.43.0 (0)
 -->
<!-- Title: %3 Pages: 1 -->
<svg width="192pt" height="172pt"
 viewBox="0.00 0.00 192.01 171.60" xmlns="http://www.w3.org/2000/svg" xmlns:xlink="http://www.w3.org/1999/xlink">
<g id="graph0" class="graph" transform="scale(1 1) rotate(0) translate(4 167.6)">
<title>%3</title>
<polygon fill="white" stroke="transparent" points="-4,4 -4,-167.6 188.01,-167.6 188.01,4 -4,4"/>
<!-- ENTRY -->
<g id="node1" class="node">
<title>ENTRY</title>
<ellipse fill="black" stroke="black" cx="100.01" cy="-161.8" rx="1.8" ry="1.8"/>
</g>
<!-- 0 -->
<g id="node2" class="node">
<title>0</title>
<ellipse fill="none" stroke="black" cx="100.01" cy="-105" rx="18" ry="18"/>
<text text-anchor="middle" x="100.01" y="-101.3" font-family="Times,serif" font-size="14.00">0</text>
</g>
<!-- ENTRY&#45;&gt;0 -->
<g id="edge1" class="edge">
<title>ENTRY&#45;&gt;0</title>
<path fill="none" stroke="black" d="M100.01,-159.85C100.01,-156.49 100.01,-144.73 100.01,-133.05"/>
<polygon fill="black" stroke="black" points="103.51,-133.02 100.01,-123.02 96.51,-133.02 103.51,-133.02"/>
</g>
<!-- 2 -->
<g id="node3" class="node">
<title>2</title>
<ellipse fill="none" stroke="black" cx="41.01" cy="-18" rx="18" ry="18"/>
<text text-anchor="middle" x="41.01" y="-14.3" font-family="Times,serif" font-size="14.00">2</text>
</g>
<!-- 0&#45;&gt;2 -->
<g id="edge2" class="edge">
<title>0&#45;&gt;2</title>
<path fill="none" stroke="black" d="M82.03,-103.37C59.29,-101.5 20.91,-94.49 3.01,-69 -5.42,-57 5.5,-43.8 17.76,-33.98"/>
<polygon fill="black" stroke="black" points="19.84,-36.8 25.83,-28.06 15.7,-31.16 19.84,-36.8"/>
<text text-anchor="middle" x="11.01" y="-57.8" font-family="Times,serif" font-size="14.00">!b</text>
</g>
<!-- 1 -->
<g id="node4" class="node">
<title>1</title>
<ellipse fill="none" stroke="black" cx="158.01" cy="-18" rx="18" ry="18"/>
<text text-anchor="middle" x="158.01" y="-14.3" font-family="Times,serif" font-size="14.00">1</text>
</g>
<!-- 0&#45;&gt;1 -->
<g id="edge5" class="edge">
<title>0&#45;&gt;1</title>
<path fill="none" stroke="black" d="M105.04,-87.36C108.57,-77.19 113.93,-64.22 121.01,-54 125.27,-47.84 130.75,-41.93 136.19,-36.78"/>
<polygon fill="black" stroke="black" points="138.85,-39.1 143.98,-29.82 134.19,-33.88 138.85,-39.1"/>
<text text-anchor="middle" x="128.51" y="-57.8" font-family="Times,serif" font-size="14.00">!a</text>
</g>
<!-- 2&#45;&gt;0 -->
<g id="edge3" class="edge">
<title>2&#45;&gt;0</title>
<path fill="none" stroke="black" d="M37.45,-35.84C36.19,-46.09 36.27,-59.08 42.01,-69 48.9,-80.93 61.64,-89.28 73.42,-94.81"/>
<polygon fill="black" stroke="black" points="72.37,-98.17 82.95,-98.82 75.09,-91.72 72.37,-98.17"/>
<text text-anchor="middle" x="50.51" y="-57.8" font-family="Times,serif" font-size="14.00">?d</text>
</g>
<!-- 2&#45;&gt;0 -->
<g id="edge4" class="edge">
<title>2&#45;&gt;0</title>
<path fill="none" stroke="black" d="M50.87,-33.21C59.94,-46.28 73.56,-65.9 84.16,-81.17"/>
<polygon fill="black" stroke="black" points="81.42,-83.36 90,-89.58 87.17,-79.37 81.42,-83.36"/>
<text text-anchor="middle" x="83.01" y="-57.8" font-family="Times,serif" font-size="14.00">?x</text>
</g>
<!-- 1&#45;&gt;0 -->
<g id="edge6" class="edge">
<title>1&#45;&gt;0</title>
<path fill="none" stroke="black" d="M152.55,-35.59C148.77,-45.75 143.15,-58.72 136.01,-69 131.8,-75.06 126.43,-80.94 121.14,-86.1"/>
<polygon fill="black" stroke="black" points="118.56,-83.72 113.58,-93.07 123.3,-88.86 118.56,-83.72"/>
<text text-anchor="middle" x="152.51" y="-57.8" font-family="Times,serif" font-size="14.00">?d</text>
</g>
<!-- 1&#45;&gt;0 -->
<g id="edge7" class="edge">
<title>1&#45;&gt;0</title>
<path fill="none" stroke="black" d="M165.21,-34.91C168.76,-45.29 171.12,-58.77 165.01,-69 156.76,-82.81 140.97,-91.49 127.02,-96.76"/>
<polygon fill="black" stroke="black" points="125.69,-93.51 117.32,-100.01 127.91,-100.15 125.69,-93.51"/>
<text text-anchor="middle" x="176.01" y="-57.8" font-family="Times,serif" font-size="14.00">?x</text>
</g>
</g>
</svg>
