<?xml version="1.0" encoding="UTF-8" standalone="no"?>
<!DOCTYPE svg PUBLIC "-//W3C//DTD SVG 1.1//EN"
 "http://www.w3.org/Graphics/SVG/1.1/DTD/svg11.dtd">
<!-- Generated by graphviz version 2.43.0 (0)
 -->
<!-- Title: %3 Pages: 1 -->
<svg width="178pt" height="438pt"
 viewBox="0.00 0.00 177.71 437.60" xmlns="http://www.w3.org/2000/svg" xmlns:xlink="http://www.w3.org/1999/xlink">
<g id="graph0" class="graph" transform="scale(1 1) rotate(0) translate(4 433.6)">
<title>%3</title>
<polygon fill="white" stroke="transparent" points="-4,4 -4,-433.6 173.71,-433.6 173.71,4 -4,4"/>
<!-- ENTRY -->
<g id="node1" class="node">
<title>ENTRY</title>
<ellipse fill="black" stroke="black" cx="84.85" cy="-427.8" rx="1.8" ry="1.8"/>
</g>
<!-- 0 -->
<g id="node3" class="node">
<title>0</title>
<ellipse fill="none" stroke="black" cx="84.85" cy="-304.14" rx="84.71" ry="84.71"/>
<text text-anchor="middle" x="84.85" y="-322.94" font-family="Times,serif" font-size="14.00">0 &lt; Eps.0</text>
<text text-anchor="middle" x="84.85" y="-307.94" font-family="Times,serif" font-size="14.00">{b}.{b}.{b}.5</text>
<text text-anchor="middle" x="84.85" y="-292.94" font-family="Times,serif" font-size="14.00">{b}.{b}.6</text>
<text text-anchor="middle" x="84.85" y="-277.94" font-family="Times,serif" font-size="14.00">{b}.7</text>
</g>
<!-- ENTRY&#45;&gt;0 -->
<g id="edge1" class="edge">
<title>ENTRY&#45;&gt;0</title>
<path fill="none" stroke="black" d="M84.85,-425.43C84.85,-421.94 84.85,-412.05 84.85,-399.34"/>
<polygon fill="black" stroke="black" points="88.35,-399.14 84.85,-389.14 81.35,-399.14 88.35,-399.14"/>
</g>
<!-- 1 -->
<g id="node2" class="node">
<title>1</title>
<ellipse fill="none" stroke="black" cx="84.85" cy="-84.15" rx="84.29" ry="84.29"/>
<text text-anchor="middle" x="84.85" y="-102.95" font-family="Times,serif" font-size="14.00">1 &lt; {b}.{b}.5</text>
<text text-anchor="middle" x="84.85" y="-87.95" font-family="Times,serif" font-size="14.00">{b}.6</text>
<text text-anchor="middle" x="84.85" y="-72.95" font-family="Times,serif" font-size="14.00">Eps.1</text>
<text text-anchor="middle" x="84.85" y="-57.95" font-family="Times,serif" font-size="14.00">Eps.7</text>
</g>
<!-- 1&#45;&gt;0 -->
<g id="edge2" class="edge">
<title>1&#45;&gt;0</title>
<path fill="none" stroke="black" d="M84.85,-168.36C84.85,-181.62 84.85,-195.43 84.85,-208.92"/>
<polygon fill="black" stroke="black" points="81.35,-209.17 84.85,-219.17 88.35,-209.17 81.35,-209.17"/>
<text text-anchor="middle" x="92.35" y="-190.09" font-family="Times,serif" font-size="14.00">!a</text>
</g>
<!-- 0&#45;&gt;1 -->
<g id="edge3" class="edge">
<title>0&#45;&gt;1</title>
<path fill="none" stroke="black" d="M64.27,-221.64C63.01,-209.82 62.67,-197.77 63.85,-186.29 64.19,-183.04 64.58,-179.73 65.02,-176.4"/>
<polygon fill="black" stroke="black" points="68.51,-176.75 66.49,-166.35 61.58,-175.74 68.51,-176.75"/>
<text text-anchor="middle" x="72.35" y="-190.09" font-family="Times,serif" font-size="14.00">?b</text>
</g>
</g>
</svg>
