<?xml version="1.0" encoding="UTF-8" standalone="no"?>
<!DOCTYPE svg PUBLIC "-//W3C//DTD SVG 1.1//EN"
 "http://www.w3.org/Graphics/SVG/1.1/DTD/svg11.dtd">
<!-- Generated by graphviz version 2.43.0 (0)
 -->
<!-- Title: %3 Pages: 1 -->
<svg width="87pt" height="694pt"
 viewBox="0.00 0.00 87.00 693.60" xmlns="http://www.w3.org/2000/svg" xmlns:xlink="http://www.w3.org/1999/xlink">
<g id="graph0" class="graph" transform="scale(1 1) rotate(0) translate(4 689.6)">
<title>%3</title>
<polygon fill="white" stroke="transparent" points="-4,4 -4,-689.6 83,-689.6 83,4 -4,4"/>
<!-- ENTRY -->
<g id="node1" class="node">
<title>ENTRY</title>
<ellipse fill="black" stroke="black" cx="48" cy="-683.8" rx="1.8" ry="1.8"/>
</g>
<!-- 0 -->
<g id="node2" class="node">
<title>0</title>
<ellipse fill="none" stroke="black" cx="48" cy="-627" rx="18" ry="18"/>
<text text-anchor="middle" x="48" y="-623.3" font-family="Times,serif" font-size="14.00">0</text>
</g>
<!-- ENTRY&#45;&gt;0 -->
<g id="edge1" class="edge">
<title>ENTRY&#45;&gt;0</title>
<path fill="none" stroke="black" d="M48,-681.85C48,-678.49 48,-666.73 48,-655.05"/>
<polygon fill="black" stroke="black" points="51.5,-655.02 48,-645.02 44.5,-655.02 51.5,-655.02"/>
</g>
<!-- 1 -->
<g id="node3" class="node">
<title>1</title>
<ellipse fill="none" stroke="black" cx="18" cy="-540" rx="18" ry="18"/>
<text text-anchor="middle" x="18" y="-536.3" font-family="Times,serif" font-size="14.00">1</text>
</g>
<!-- 0&#45;&gt;1 -->
<g id="edge2" class="edge">
<title>0&#45;&gt;1</title>
<path fill="none" stroke="black" d="M40.74,-610.12C38.15,-604.18 35.3,-597.34 33,-591 30.28,-583.5 27.66,-575.25 25.39,-567.65"/>
<polygon fill="black" stroke="black" points="28.68,-566.45 22.53,-557.82 21.96,-568.4 28.68,-566.45"/>
<text text-anchor="middle" x="41.5" y="-579.8" font-family="Times,serif" font-size="14.00">?b</text>
</g>
<!-- 2 -->
<g id="node4" class="node">
<title>2</title>
<ellipse fill="none" stroke="black" cx="18" cy="-453" rx="18" ry="18"/>
<text text-anchor="middle" x="18" y="-449.3" font-family="Times,serif" font-size="14.00">2</text>
</g>
<!-- 1&#45;&gt;2 -->
<g id="edge3" class="edge">
<title>1&#45;&gt;2</title>
<path fill="none" stroke="black" d="M18,-521.8C18,-510.16 18,-494.55 18,-481.24"/>
<polygon fill="black" stroke="black" points="21.5,-481.18 18,-471.18 14.5,-481.18 21.5,-481.18"/>
<text text-anchor="middle" x="26.5" y="-492.8" font-family="Times,serif" font-size="14.00">?b</text>
</g>
<!-- 3 -->
<g id="node5" class="node">
<title>3</title>
<ellipse fill="none" stroke="black" cx="18" cy="-366" rx="18" ry="18"/>
<text text-anchor="middle" x="18" y="-362.3" font-family="Times,serif" font-size="14.00">3</text>
</g>
<!-- 2&#45;&gt;3 -->
<g id="edge4" class="edge">
<title>2&#45;&gt;3</title>
<path fill="none" stroke="black" d="M18,-434.8C18,-423.16 18,-407.55 18,-394.24"/>
<polygon fill="black" stroke="black" points="21.5,-394.18 18,-384.18 14.5,-394.18 21.5,-394.18"/>
<text text-anchor="middle" x="26.5" y="-405.8" font-family="Times,serif" font-size="14.00">?b</text>
</g>
<!-- 4 -->
<g id="node6" class="node">
<title>4</title>
<ellipse fill="none" stroke="black" cx="18" cy="-279" rx="18" ry="18"/>
<text text-anchor="middle" x="18" y="-275.3" font-family="Times,serif" font-size="14.00">4</text>
</g>
<!-- 3&#45;&gt;4 -->
<g id="edge5" class="edge">
<title>3&#45;&gt;4</title>
<path fill="none" stroke="black" d="M18,-347.8C18,-336.16 18,-320.55 18,-307.24"/>
<polygon fill="black" stroke="black" points="21.5,-307.18 18,-297.18 14.5,-307.18 21.5,-307.18"/>
<text text-anchor="middle" x="26.5" y="-318.8" font-family="Times,serif" font-size="14.00">?b</text>
</g>
<!-- 5 -->
<g id="node7" class="node">
<title>5</title>
<ellipse fill="none" stroke="black" cx="18" cy="-192" rx="18" ry="18"/>
<text text-anchor="middle" x="18" y="-188.3" font-family="Times,serif" font-size="14.00">5</text>
</g>
<!-- 4&#45;&gt;5 -->
<g id="edge6" class="edge">
<title>4&#45;&gt;5</title>
<path fill="none" stroke="black" d="M18,-260.8C18,-249.16 18,-233.55 18,-220.24"/>
<polygon fill="black" stroke="black" points="21.5,-220.18 18,-210.18 14.5,-220.18 21.5,-220.18"/>
<text text-anchor="middle" x="25.5" y="-231.8" font-family="Times,serif" font-size="14.00">!a</text>
</g>
<!-- 6 -->
<g id="node8" class="node">
<title>6</title>
<ellipse fill="none" stroke="black" cx="18" cy="-105" rx="18" ry="18"/>
<text text-anchor="middle" x="18" y="-101.3" font-family="Times,serif" font-size="14.00">6</text>
</g>
<!-- 5&#45;&gt;6 -->
<g id="edge7" class="edge">
<title>5&#45;&gt;6</title>
<path fill="none" stroke="black" d="M18,-173.8C18,-162.16 18,-146.55 18,-133.24"/>
<polygon fill="black" stroke="black" points="21.5,-133.18 18,-123.18 14.5,-133.18 21.5,-133.18"/>
<text text-anchor="middle" x="25.5" y="-144.8" font-family="Times,serif" font-size="14.00">!a</text>
</g>
<!-- 7 -->
<g id="node9" class="node">
<title>7</title>
<ellipse fill="none" stroke="black" cx="41" cy="-18" rx="18" ry="18"/>
<text text-anchor="middle" x="41" y="-14.3" font-family="Times,serif" font-size="14.00">7</text>
</g>
<!-- 6&#45;&gt;7 -->
<g id="edge8" class="edge">
<title>6&#45;&gt;7</title>
<path fill="none" stroke="black" d="M22.54,-87.21C25.78,-75.25 30.19,-58.96 33.89,-45.29"/>
<polygon fill="black" stroke="black" points="37.31,-46.04 36.54,-35.47 30.55,-44.21 37.31,-46.04"/>
<text text-anchor="middle" x="38.5" y="-57.8" font-family="Times,serif" font-size="14.00">!a</text>
</g>
<!-- 7&#45;&gt;0 -->
<g id="edge9" class="edge">
<title>7&#45;&gt;0</title>
<path fill="none" stroke="black" d="M47.9,-34.64C54.68,-51.43 64,-79.08 64,-104 64,-541 64,-541 64,-541 64,-560.83 59.74,-582.82 55.62,-599.47"/>
<polygon fill="black" stroke="black" points="52.12,-599 52.97,-609.56 58.9,-600.77 52.12,-599"/>
<text text-anchor="middle" x="71.5" y="-318.8" font-family="Times,serif" font-size="14.00">!a</text>
</g>
</g>
</svg>
