<?xml version="1.0" encoding="UTF-8" standalone="no"?>
<!DOCTYPE svg PUBLIC "-//W3C//DTD SVG 1.1//EN"
 "http://www.w3.org/Graphics/SVG/1.1/DTD/svg11.dtd">
<!-- Generated by graphviz version 2.43.0 (0)
 -->
<!-- Title: %3 Pages: 1 -->
<svg width="79pt" height="172pt"
 viewBox="0.00 0.00 78.86 171.60" xmlns="http://www.w3.org/2000/svg" xmlns:xlink="http://www.w3.org/1999/xlink">
<g id="graph0" class="graph" transform="scale(1 1) rotate(0) translate(4 167.6)">
<title>%3</title>
<polygon fill="white" stroke="transparent" points="-4,4 -4,-167.6 74.86,-167.6 74.86,4 -4,4"/>
<!-- ENTRY -->
<g id="node1" class="node">
<title>ENTRY</title>
<ellipse fill="black" stroke="black" cx="39.86" cy="-161.8" rx="1.8" ry="1.8"/>
</g>
<!-- 0 -->
<g id="node2" class="node">
<title>0</title>
<ellipse fill="none" stroke="black" cx="39.86" cy="-105" rx="18" ry="18"/>
<text text-anchor="middle" x="39.86" y="-101.3" font-family="Times,serif" font-size="14.00">0</text>
</g>
<!-- ENTRY&#45;&gt;0 -->
<g id="edge1" class="edge">
<title>ENTRY&#45;&gt;0</title>
<path fill="none" stroke="black" d="M39.86,-159.85C39.86,-156.49 39.86,-144.73 39.86,-133.05"/>
<polygon fill="black" stroke="black" points="43.36,-133.02 39.86,-123.02 36.36,-133.02 43.36,-133.02"/>
</g>
<!-- 1 -->
<g id="node3" class="node">
<title>1</title>
<ellipse fill="none" stroke="black" cx="39.86" cy="-18" rx="18" ry="18"/>
<text text-anchor="middle" x="39.86" y="-14.3" font-family="Times,serif" font-size="14.00">1</text>
</g>
<!-- 0&#45;&gt;1 -->
<g id="edge2" class="edge">
<title>0&#45;&gt;1</title>
<path fill="none" stroke="black" d="M24.71,-94.67C16.27,-88.54 6.55,-79.68 1.86,-69 -3.77,-56.14 5.87,-43.57 16.85,-34.25"/>
<polygon fill="black" stroke="black" points="19.09,-36.95 24.88,-28.08 14.82,-31.4 19.09,-36.95"/>
<text text-anchor="middle" x="9.86" y="-57.8" font-family="Times,serif" font-size="14.00">?a</text>
</g>
<!-- 1&#45;&gt;0 -->
<g id="edge3" class="edge">
<title>1&#45;&gt;0</title>
<path fill="none" stroke="black" d="M39.86,-36.18C39.86,-47.81 39.86,-63.42 39.86,-76.73"/>
<polygon fill="black" stroke="black" points="36.36,-76.8 39.86,-86.8 43.36,-76.8 36.36,-76.8"/>
<text text-anchor="middle" x="46.86" y="-57.8" font-family="Times,serif" font-size="14.00">!c</text>
</g>
<!-- 1&#45;&gt;0 -->
<g id="edge4" class="edge">
<title>1&#45;&gt;0</title>
<path fill="none" stroke="black" d="M47.99,-34.24C50.75,-40.23 53.48,-47.27 54.86,-54 56.58,-62.36 55,-71.34 52.32,-79.35"/>
<polygon fill="black" stroke="black" points="48.98,-78.28 48.5,-88.86 55.48,-80.89 48.98,-78.28"/>
<text text-anchor="middle" x="62.86" y="-57.8" font-family="Times,serif" font-size="14.00">!b</text>
</g>
</g>
</svg>
