<?xml version="1.0" encoding="UTF-8" standalone="no"?>
<!DOCTYPE svg PUBLIC "-//W3C//DTD SVG 1.1//EN"
 "http://www.w3.org/Graphics/SVG/1.1/DTD/svg11.dtd">
<!-- Generated by graphviz version 2.43.0 (0)
 -->
<!-- Title: %3 Pages: 1 -->
<svg width="338pt" height="610pt"
 viewBox="0.00 0.00 338.27 610.22" xmlns="http://www.w3.org/2000/svg" xmlns:xlink="http://www.w3.org/1999/xlink">
<g id="graph0" class="graph" transform="scale(1 1) rotate(0) translate(4 606.22)">
<title>%3</title>
<polygon fill="white" stroke="transparent" points="-4,4 -4,-606.22 334.27,-606.22 334.27,4 -4,4"/>
<!-- ENTRY -->
<g id="node1" class="node">
<title>ENTRY</title>
<ellipse fill="black" stroke="black" cx="133.75" cy="-600.42" rx="1.8" ry="1.8"/>
</g>
<!-- 0 -->
<g id="node5" class="node">
<title>0</title>
<ellipse fill="none" stroke="black" cx="133.75" cy="-488.08" rx="73.58" ry="73.58"/>
<text text-anchor="middle" x="133.75" y="-499.38" font-family="Times,serif" font-size="14.00">0 &lt; ({a})*.0</text>
<text text-anchor="middle" x="133.75" y="-484.38" font-family="Times,serif" font-size="14.00">({a})*.{c}.3</text>
<text text-anchor="middle" x="133.75" y="-469.38" font-family="Times,serif" font-size="14.00">({a})*.{c}.5</text>
</g>
<!-- ENTRY&#45;&gt;0 -->
<g id="edge1" class="edge">
<title>ENTRY&#45;&gt;0</title>
<path fill="none" stroke="black" d="M133.75,-598.18C133.75,-594.78 133.75,-584.73 133.75,-572.01"/>
<polygon fill="black" stroke="black" points="137.25,-571.83 133.75,-561.83 130.25,-571.83 137.25,-571.83"/>
</g>
<!-- 3 -->
<g id="node2" class="node">
<title>3</title>
<ellipse fill="none" stroke="black" cx="268.75" cy="-61.52" rx="61.54" ry="61.54"/>
<text text-anchor="middle" x="268.75" y="-65.32" font-family="Times,serif" font-size="14.00">3 &lt; Eps.6</text>
<text text-anchor="middle" x="268.75" y="-50.32" font-family="Times,serif" font-size="14.00">Eps.4</text>
</g>
<!-- 2 -->
<g id="node3" class="node">
<title>2</title>
<ellipse fill="none" stroke="black" cx="268.75" cy="-268.79" rx="61.54" ry="61.54"/>
<text text-anchor="middle" x="268.75" y="-272.59" font-family="Times,serif" font-size="14.00">2 &lt; Eps.3</text>
<text text-anchor="middle" x="268.75" y="-257.59" font-family="Times,serif" font-size="14.00">Eps.5</text>
</g>
<!-- 2&#45;&gt;3 -->
<g id="edge2" class="edge">
<title>2&#45;&gt;3</title>
<path fill="none" stroke="black" d="M268.75,-207.03C268.75,-183.86 268.75,-157.25 268.75,-133.23"/>
<polygon fill="black" stroke="black" points="272.25,-133.12 268.75,-123.12 265.25,-133.12 272.25,-133.12"/>
<text text-anchor="middle" x="276.75" y="-144.84" font-family="Times,serif" font-size="14.00">!d</text>
</g>
<!-- 1 -->
<g id="node4" class="node">
<title>1</title>
<ellipse fill="none" stroke="black" cx="94.75" cy="-268.79" rx="94.51" ry="94.51"/>
<text text-anchor="middle" x="94.75" y="-287.59" font-family="Times,serif" font-size="14.00">1 &lt; ({a})*.{c}.3</text>
<text text-anchor="middle" x="94.75" y="-272.59" font-family="Times,serif" font-size="14.00">({a})*.{c}.5</text>
<text text-anchor="middle" x="94.75" y="-257.59" font-family="Times,serif" font-size="14.00">Eps.1</text>
<text text-anchor="middle" x="94.75" y="-242.59" font-family="Times,serif" font-size="14.00">({a})*.0</text>
</g>
<!-- 1&#45;&gt;0 -->
<g id="edge3" class="edge">
<title>1&#45;&gt;0</title>
<path fill="none" stroke="black" d="M111.34,-362.23C113.92,-376.61 116.57,-391.37 119.11,-405.48"/>
<polygon fill="black" stroke="black" points="115.72,-406.41 120.93,-415.63 122.61,-405.17 115.72,-406.41"/>
<text text-anchor="middle" x="123.75" y="-385.34" font-family="Times,serif" font-size="14.00">!b</text>
</g>
<!-- 0&#45;&gt;2 -->
<g id="edge5" class="edge">
<title>0&#45;&gt;2</title>
<path fill="none" stroke="black" d="M172.26,-425.1C190.77,-395.31 212.88,-359.72 231.26,-330.14"/>
<polygon fill="black" stroke="black" points="234.28,-331.91 236.58,-321.57 228.33,-328.21 234.28,-331.91"/>
<text text-anchor="middle" x="204.75" y="-385.34" font-family="Times,serif" font-size="14.00">?c</text>
</g>
<!-- 0&#45;&gt;1 -->
<g id="edge4" class="edge">
<title>0&#45;&gt;1</title>
<path fill="none" stroke="black" d="M101.9,-421.58C98.97,-413.31 96.46,-404.84 94.75,-396.54 93.24,-389.2 92.13,-381.56 91.34,-373.85"/>
<polygon fill="black" stroke="black" points="94.81,-373.34 90.48,-363.67 87.83,-373.93 94.81,-373.34"/>
<text text-anchor="middle" x="102.75" y="-385.34" font-family="Times,serif" font-size="14.00">?a</text>
</g>
</g>
</svg>
