<?xml version="1.0" encoding="UTF-8" standalone="no"?>
<!DOCTYPE svg PUBLIC "-//W3C//DTD SVG 1.1//EN"
 "http://www.w3.org/Graphics/SVG/1.1/DTD/svg11.dtd">
<!-- Generated by graphviz version 2.43.0 (0)
 -->
<!-- Title: %3 Pages: 1 -->
<svg width="110pt" height="259pt"
 viewBox="0.00 0.00 110.00 258.60" xmlns="http://www.w3.org/2000/svg" xmlns:xlink="http://www.w3.org/1999/xlink">
<g id="graph0" class="graph" transform="scale(1 1) rotate(0) translate(4 254.6)">
<title>%3</title>
<polygon fill="white" stroke="transparent" points="-4,4 -4,-254.6 106,-254.6 106,4 -4,4"/>
<!-- ENTRY -->
<g id="node1" class="node">
<title>ENTRY</title>
<ellipse fill="black" stroke="black" cx="57" cy="-248.8" rx="1.8" ry="1.8"/>
</g>
<!-- 0 -->
<g id="node2" class="node">
<title>0</title>
<ellipse fill="none" stroke="black" cx="57" cy="-192" rx="18" ry="18"/>
<text text-anchor="middle" x="57" y="-188.3" font-family="Times,serif" font-size="14.00">0</text>
</g>
<!-- ENTRY&#45;&gt;0 -->
<g id="edge1" class="edge">
<title>ENTRY&#45;&gt;0</title>
<path fill="none" stroke="black" d="M57,-246.85C57,-243.49 57,-231.73 57,-220.05"/>
<polygon fill="black" stroke="black" points="60.5,-220.02 57,-210.02 53.5,-220.02 60.5,-220.02"/>
</g>
<!-- 2 -->
<g id="node3" class="node">
<title>2</title>
<ellipse fill="none" stroke="black" cx="18" cy="-105" rx="18" ry="18"/>
<text text-anchor="middle" x="18" y="-101.3" font-family="Times,serif" font-size="14.00">2</text>
</g>
<!-- 0&#45;&gt;2 -->
<g id="edge2" class="edge">
<title>0&#45;&gt;2</title>
<path fill="none" stroke="black" d="M46.69,-177.21C42.35,-170.97 37.51,-163.35 34,-156 30.45,-148.57 27.41,-140.15 24.97,-132.37"/>
<polygon fill="black" stroke="black" points="28.29,-131.25 22.1,-122.64 21.57,-133.23 28.29,-131.25"/>
<text text-anchor="middle" x="42" y="-144.8" font-family="Times,serif" font-size="14.00">?c</text>
</g>
<!-- 1 -->
<g id="node5" class="node">
<title>1</title>
<ellipse fill="none" stroke="black" cx="84" cy="-105" rx="18" ry="18"/>
<text text-anchor="middle" x="84" y="-101.3" font-family="Times,serif" font-size="14.00">1</text>
</g>
<!-- 0&#45;&gt;1 -->
<g id="edge4" class="edge">
<title>0&#45;&gt;1</title>
<path fill="none" stroke="black" d="M54.8,-173.89C54.15,-164.02 54.4,-151.52 58,-141 59.73,-135.94 62.49,-131 65.57,-126.51"/>
<polygon fill="black" stroke="black" points="68.41,-128.56 71.73,-118.5 62.86,-124.3 68.41,-128.56"/>
<text text-anchor="middle" x="66" y="-144.8" font-family="Times,serif" font-size="14.00">?a</text>
</g>
<!-- 3 -->
<g id="node4" class="node">
<title>3</title>
<ellipse fill="none" stroke="black" cx="18" cy="-18" rx="18" ry="18"/>
<text text-anchor="middle" x="18" y="-14.3" font-family="Times,serif" font-size="14.00">3</text>
</g>
<!-- 2&#45;&gt;3 -->
<g id="edge3" class="edge">
<title>2&#45;&gt;3</title>
<path fill="none" stroke="black" d="M18,-86.8C18,-75.16 18,-59.55 18,-46.24"/>
<polygon fill="black" stroke="black" points="21.5,-46.18 18,-36.18 14.5,-46.18 21.5,-46.18"/>
<text text-anchor="middle" x="26" y="-57.8" font-family="Times,serif" font-size="14.00">!d</text>
</g>
<!-- 1&#45;&gt;0 -->
<g id="edge5" class="edge">
<title>1&#45;&gt;0</title>
<path fill="none" stroke="black" d="M81.71,-122.95C80.12,-132.76 77.62,-145.26 74,-156 72.79,-159.61 71.28,-163.32 69.68,-166.92"/>
<polygon fill="black" stroke="black" points="66.48,-165.49 65.32,-176.02 72.79,-168.52 66.48,-165.49"/>
<text text-anchor="middle" x="86" y="-144.8" font-family="Times,serif" font-size="14.00">!b</text>
</g>
</g>
</svg>
