<?xml version="1.0" encoding="UTF-8" standalone="no"?>
<!DOCTYPE svg PUBLIC "-//W3C//DTD SVG 1.1//EN"
 "http://www.w3.org/Graphics/SVG/1.1/DTD/svg11.dtd">
<!-- Generated by graphviz version 2.43.0 (0)
 -->
<!-- Title: %3 Pages: 1 -->
<svg width="186pt" height="346pt"
 viewBox="0.00 0.00 186.00 345.60" xmlns="http://www.w3.org/2000/svg" xmlns:xlink="http://www.w3.org/1999/xlink">
<g id="graph0" class="graph" transform="scale(1 1) rotate(0) translate(4 341.6)">
<title>%3</title>
<polygon fill="white" stroke="transparent" points="-4,4 -4,-341.6 182,-341.6 182,4 -4,4"/>
<!-- ENTRY -->
<g id="node1" class="node">
<title>ENTRY</title>
<ellipse fill="black" stroke="black" cx="106" cy="-335.8" rx="1.8" ry="1.8"/>
</g>
<!-- 0 -->
<g id="node2" class="node">
<title>0</title>
<ellipse fill="none" stroke="black" cx="106" cy="-279" rx="18" ry="18"/>
<text text-anchor="middle" x="106" y="-275.3" font-family="Times,serif" font-size="14.00">0</text>
</g>
<!-- ENTRY&#45;&gt;0 -->
<g id="edge1" class="edge">
<title>ENTRY&#45;&gt;0</title>
<path fill="none" stroke="black" d="M106,-333.85C106,-330.49 106,-318.73 106,-307.05"/>
<polygon fill="black" stroke="black" points="109.5,-307.02 106,-297.02 102.5,-307.02 109.5,-307.02"/>
</g>
<!-- 5 -->
<g id="node3" class="node">
<title>5</title>
<ellipse fill="none" stroke="black" cx="18" cy="-192" rx="18" ry="18"/>
<text text-anchor="middle" x="18" y="-188.3" font-family="Times,serif" font-size="14.00">5</text>
</g>
<!-- 0&#45;&gt;5 -->
<g id="edge2" class="edge">
<title>0&#45;&gt;5</title>
<path fill="none" stroke="black" d="M93.39,-265.82C78.88,-251.81 54.88,-228.62 37.86,-212.18"/>
<polygon fill="black" stroke="black" points="40.21,-209.59 30.58,-205.16 35.35,-214.62 40.21,-209.59"/>
<text text-anchor="middle" x="76" y="-231.8" font-family="Times,serif" font-size="14.00">?c</text>
</g>
<!-- 1 -->
<g id="node5" class="node">
<title>1</title>
<ellipse fill="none" stroke="black" cx="106" cy="-192" rx="18" ry="18"/>
<text text-anchor="middle" x="106" y="-188.3" font-family="Times,serif" font-size="14.00">1</text>
</g>
<!-- 0&#45;&gt;1 -->
<g id="edge5" class="edge">
<title>0&#45;&gt;1</title>
<path fill="none" stroke="black" d="M106,-260.8C106,-249.16 106,-233.55 106,-220.24"/>
<polygon fill="black" stroke="black" points="109.5,-220.18 106,-210.18 102.5,-220.18 109.5,-220.18"/>
<text text-anchor="middle" x="114" y="-231.8" font-family="Times,serif" font-size="14.00">?a</text>
</g>
<!-- 5&#45;&gt;5 -->
<g id="edge4" class="edge">
<title>5&#45;&gt;5</title>
<path fill="none" stroke="black" d="M34.66,-199.38C44.62,-201.02 54,-198.56 54,-192 54,-187.8 50.15,-185.28 44.77,-184.44"/>
<polygon fill="black" stroke="black" points="44.6,-180.94 34.66,-184.62 44.72,-187.94 44.6,-180.94"/>
<text text-anchor="middle" x="62" y="-188.3" font-family="Times,serif" font-size="14.00">!b</text>
</g>
<!-- 6 -->
<g id="node4" class="node">
<title>6</title>
<ellipse fill="none" stroke="black" cx="18" cy="-105" rx="18" ry="18"/>
<text text-anchor="middle" x="18" y="-101.3" font-family="Times,serif" font-size="14.00">6</text>
</g>
<!-- 5&#45;&gt;6 -->
<g id="edge3" class="edge">
<title>5&#45;&gt;6</title>
<path fill="none" stroke="black" d="M18,-173.8C18,-162.16 18,-146.55 18,-133.24"/>
<polygon fill="black" stroke="black" points="21.5,-133.18 18,-123.18 14.5,-133.18 21.5,-133.18"/>
<text text-anchor="middle" x="26" y="-144.8" font-family="Times,serif" font-size="14.00">!d</text>
</g>
<!-- 3 -->
<g id="node6" class="node">
<title>3</title>
<ellipse fill="none" stroke="black" cx="72" cy="-105" rx="18" ry="18"/>
<text text-anchor="middle" x="72" y="-101.3" font-family="Times,serif" font-size="14.00">3</text>
</g>
<!-- 1&#45;&gt;3 -->
<g id="edge6" class="edge">
<title>1&#45;&gt;3</title>
<path fill="none" stroke="black" d="M96.98,-176C93.56,-169.93 89.82,-162.77 87,-156 83.94,-148.64 81.21,-140.43 78.94,-132.82"/>
<polygon fill="black" stroke="black" points="82.24,-131.64 76.16,-122.97 75.51,-133.54 82.24,-131.64"/>
<text text-anchor="middle" x="95" y="-144.8" font-family="Times,serif" font-size="14.00">?c</text>
</g>
<!-- 2 -->
<g id="node8" class="node">
<title>2</title>
<ellipse fill="none" stroke="black" cx="160" cy="-105" rx="18" ry="18"/>
<text text-anchor="middle" x="160" y="-101.3" font-family="Times,serif" font-size="14.00">2</text>
</g>
<!-- 1&#45;&gt;2 -->
<g id="edge9" class="edge">
<title>1&#45;&gt;2</title>
<path fill="none" stroke="black" d="M112.35,-175.12C116.7,-165 122.95,-151.81 130,-141 133.23,-136.06 137.08,-131.06 140.94,-126.44"/>
<polygon fill="black" stroke="black" points="143.8,-128.49 147.74,-118.65 138.53,-123.88 143.8,-128.49"/>
<text text-anchor="middle" x="138" y="-144.8" font-family="Times,serif" font-size="14.00">?a</text>
</g>
<!-- 3&#45;&gt;3 -->
<g id="edge8" class="edge">
<title>3&#45;&gt;3</title>
<path fill="none" stroke="black" d="M88.66,-112.38C98.62,-114.02 108,-111.56 108,-105 108,-100.8 104.15,-98.28 98.77,-97.44"/>
<polygon fill="black" stroke="black" points="98.6,-93.94 88.66,-97.62 98.72,-100.94 98.6,-93.94"/>
<text text-anchor="middle" x="116" y="-101.3" font-family="Times,serif" font-size="14.00">!b</text>
</g>
<!-- 4 -->
<g id="node7" class="node">
<title>4</title>
<ellipse fill="none" stroke="black" cx="72" cy="-18" rx="18" ry="18"/>
<text text-anchor="middle" x="72" y="-14.3" font-family="Times,serif" font-size="14.00">4</text>
</g>
<!-- 3&#45;&gt;4 -->
<g id="edge7" class="edge">
<title>3&#45;&gt;4</title>
<path fill="none" stroke="black" d="M72,-86.8C72,-75.16 72,-59.55 72,-46.24"/>
<polygon fill="black" stroke="black" points="75.5,-46.18 72,-36.18 68.5,-46.18 75.5,-46.18"/>
<text text-anchor="middle" x="80" y="-57.8" font-family="Times,serif" font-size="14.00">!d</text>
</g>
<!-- 2&#45;&gt;0 -->
<g id="edge10" class="edge">
<title>2&#45;&gt;0</title>
<path fill="none" stroke="black" d="M157.35,-122.91C152.89,-149.25 142.68,-201.37 126,-243 124.46,-246.84 122.57,-250.77 120.57,-254.54"/>
<polygon fill="black" stroke="black" points="117.39,-253.04 115.51,-263.47 123.48,-256.49 117.39,-253.04"/>
<text text-anchor="middle" x="154" y="-188.3" font-family="Times,serif" font-size="14.00">!b</text>
</g>
</g>
</svg>
