<?xml version="1.0" encoding="UTF-8" standalone="no"?>
<!DOCTYPE svg PUBLIC "-//W3C//DTD SVG 1.1//EN"
 "http://www.w3.org/Graphics/SVG/1.1/DTD/svg11.dtd">
<!-- Generated by graphviz version 2.43.0 (0)
 -->
<!-- Title: %3 Pages: 1 -->
<svg width="216pt" height="452pt"
 viewBox="0.00 0.00 215.75 451.59" xmlns="http://www.w3.org/2000/svg" xmlns:xlink="http://www.w3.org/1999/xlink">
<g id="graph0" class="graph" transform="scale(1 1) rotate(0) translate(4 447.59)">
<title>%3</title>
<polygon fill="white" stroke="transparent" points="-4,4 -4,-447.59 211.75,-447.59 211.75,4 -4,4"/>
<!-- ENTRY -->
<g id="node1" class="node">
<title>ENTRY</title>
<ellipse fill="black" stroke="black" cx="108.75" cy="-441.79" rx="1.8" ry="1.8"/>
</g>
<!-- 0 -->
<g id="node2" class="node">
<title>0</title>
<ellipse fill="none" stroke="black" cx="108.75" cy="-384.99" rx="18" ry="18"/>
<text text-anchor="middle" x="108.75" y="-381.29" font-family="Times,serif" font-size="14.00">0</text>
</g>
<!-- ENTRY&#45;&gt;0 -->
<g id="edge1" class="edge">
<title>ENTRY&#45;&gt;0</title>
<path fill="none" stroke="black" d="M108.75,-439.84C108.75,-436.48 108.75,-424.72 108.75,-413.04"/>
<polygon fill="black" stroke="black" points="112.25,-413.02 108.75,-403.02 105.25,-413.02 112.25,-413.02"/>
</g>
<!-- 1 -->
<g id="node3" class="node">
<title>1</title>
<ellipse fill="none" stroke="black" cx="108.75" cy="-297.99" rx="18" ry="18"/>
<text text-anchor="middle" x="108.75" y="-294.29" font-family="Times,serif" font-size="14.00">1</text>
</g>
<!-- 0&#45;&gt;1 -->
<g id="edge2" class="edge">
<title>0&#45;&gt;1</title>
<path fill="none" stroke="black" d="M108.75,-366.79C108.75,-355.15 108.75,-339.54 108.75,-326.23"/>
<polygon fill="black" stroke="black" points="112.25,-326.17 108.75,-316.17 105.25,-326.17 112.25,-326.17"/>
<text text-anchor="middle" x="116.75" y="-337.79" font-family="Times,serif" font-size="14.00">?a</text>
</g>
<!-- 7 -->
<g id="node4" class="node">
<title>7</title>
<ellipse fill="none" stroke="black" cx="81.75" cy="-210.99" rx="18" ry="18"/>
<text text-anchor="middle" x="81.75" y="-207.29" font-family="Times,serif" font-size="14.00">7</text>
</g>
<!-- 1&#45;&gt;7 -->
<g id="edge3" class="edge">
<title>1&#45;&gt;7</title>
<path fill="none" stroke="black" d="M100.85,-281.6C98.01,-275.59 94.95,-268.58 92.75,-261.99 90.27,-254.57 88.19,-246.35 86.54,-238.75"/>
<polygon fill="black" stroke="black" points="89.96,-238.01 84.54,-228.9 83.1,-239.4 89.96,-238.01"/>
<text text-anchor="middle" x="101.25" y="-250.79" font-family="Times,serif" font-size="14.00">?d</text>
</g>
<!-- 2 -->
<g id="node9" class="node">
<title>2</title>
<ellipse fill="none" stroke="black" cx="135.75" cy="-210.99" rx="18" ry="18"/>
<text text-anchor="middle" x="135.75" y="-207.29" font-family="Times,serif" font-size="14.00">2</text>
</g>
<!-- 1&#45;&gt;2 -->
<g id="edge8" class="edge">
<title>1&#45;&gt;2</title>
<path fill="none" stroke="black" d="M113.95,-280.6C117.76,-268.61 123.01,-252.08 127.4,-238.26"/>
<polygon fill="black" stroke="black" points="130.87,-238.92 130.56,-228.33 124.19,-236.8 130.87,-238.92"/>
<text text-anchor="middle" x="132.75" y="-250.79" font-family="Times,serif" font-size="14.00">?c</text>
</g>
<!-- 10 -->
<g id="node5" class="node">
<title>10</title>
<ellipse fill="none" stroke="black" cx="22.75" cy="-119.24" rx="23" ry="23"/>
<text text-anchor="middle" x="22.75" y="-115.54" font-family="Times,serif" font-size="14.00">10</text>
</g>
<!-- 7&#45;&gt;10 -->
<g id="edge4" class="edge">
<title>7&#45;&gt;10</title>
<path fill="none" stroke="black" d="M72.27,-195.57C63.69,-182.53 50.85,-162.98 40.38,-147.07"/>
<polygon fill="black" stroke="black" points="43.28,-145.1 34.86,-138.67 37.43,-148.95 43.28,-145.1"/>
<text text-anchor="middle" x="65.75" y="-163.79" font-family="Times,serif" font-size="14.00">?y</text>
</g>
<!-- 8 -->
<g id="node7" class="node">
<title>8</title>
<ellipse fill="none" stroke="black" cx="81.75" cy="-119.24" rx="18" ry="18"/>
<text text-anchor="middle" x="81.75" y="-115.54" font-family="Times,serif" font-size="14.00">8</text>
</g>
<!-- 7&#45;&gt;8 -->
<g id="edge6" class="edge">
<title>7&#45;&gt;8</title>
<path fill="none" stroke="black" d="M81.75,-192.69C81.75,-179.9 81.75,-162.23 81.75,-147.55"/>
<polygon fill="black" stroke="black" points="85.25,-147.5 81.75,-137.5 78.25,-147.5 85.25,-147.5"/>
<text text-anchor="middle" x="89.75" y="-163.79" font-family="Times,serif" font-size="14.00">?x</text>
</g>
<!-- 11 -->
<g id="node6" class="node">
<title>11</title>
<ellipse fill="none" stroke="black" cx="22.75" cy="-22.75" rx="23" ry="23"/>
<text text-anchor="middle" x="22.75" y="-19.05" font-family="Times,serif" font-size="14.00">11</text>
</g>
<!-- 10&#45;&gt;11 -->
<g id="edge5" class="edge">
<title>10&#45;&gt;11</title>
<path fill="none" stroke="black" d="M22.75,-96.33C22.75,-84.28 22.75,-69.12 22.75,-55.77"/>
<polygon fill="black" stroke="black" points="26.25,-55.55 22.75,-45.55 19.25,-55.55 26.25,-55.55"/>
<text text-anchor="middle" x="30.75" y="-67.3" font-family="Times,serif" font-size="14.00">!b</text>
</g>
<!-- 9 -->
<g id="node8" class="node">
<title>9</title>
<ellipse fill="none" stroke="black" cx="81.75" cy="-22.75" rx="18" ry="18"/>
<text text-anchor="middle" x="81.75" y="-19.05" font-family="Times,serif" font-size="14.00">9</text>
</g>
<!-- 8&#45;&gt;9 -->
<g id="edge7" class="edge">
<title>8&#45;&gt;9</title>
<path fill="none" stroke="black" d="M81.75,-100.91C81.75,-87.06 81.75,-67.38 81.75,-51.36"/>
<polygon fill="black" stroke="black" points="85.25,-50.97 81.75,-40.97 78.25,-50.97 85.25,-50.97"/>
<text text-anchor="middle" x="89.75" y="-67.3" font-family="Times,serif" font-size="14.00">!b</text>
</g>
<!-- 5 -->
<g id="node10" class="node">
<title>5</title>
<ellipse fill="none" stroke="black" cx="135.75" cy="-119.24" rx="18" ry="18"/>
<text text-anchor="middle" x="135.75" y="-115.54" font-family="Times,serif" font-size="14.00">5</text>
</g>
<!-- 2&#45;&gt;5 -->
<g id="edge9" class="edge">
<title>2&#45;&gt;5</title>
<path fill="none" stroke="black" d="M135.75,-192.69C135.75,-179.9 135.75,-162.23 135.75,-147.55"/>
<polygon fill="black" stroke="black" points="139.25,-147.5 135.75,-137.5 132.25,-147.5 139.25,-147.5"/>
<text text-anchor="middle" x="143.75" y="-163.79" font-family="Times,serif" font-size="14.00">?y</text>
</g>
<!-- 3 -->
<g id="node12" class="node">
<title>3</title>
<ellipse fill="none" stroke="black" cx="189.75" cy="-119.24" rx="18" ry="18"/>
<text text-anchor="middle" x="189.75" y="-115.54" font-family="Times,serif" font-size="14.00">3</text>
</g>
<!-- 2&#45;&gt;3 -->
<g id="edge11" class="edge">
<title>2&#45;&gt;3</title>
<path fill="none" stroke="black" d="M144.66,-195.17C153.03,-181.27 165.68,-160.25 175.45,-144.01"/>
<polygon fill="black" stroke="black" points="178.66,-145.46 180.82,-135.09 172.66,-141.85 178.66,-145.46"/>
<text text-anchor="middle" x="172.75" y="-163.79" font-family="Times,serif" font-size="14.00">?x</text>
</g>
<!-- 6 -->
<g id="node11" class="node">
<title>6</title>
<ellipse fill="none" stroke="black" cx="135.75" cy="-22.75" rx="18" ry="18"/>
<text text-anchor="middle" x="135.75" y="-19.05" font-family="Times,serif" font-size="14.00">6</text>
</g>
<!-- 5&#45;&gt;6 -->
<g id="edge10" class="edge">
<title>5&#45;&gt;6</title>
<path fill="none" stroke="black" d="M135.75,-100.91C135.75,-87.06 135.75,-67.38 135.75,-51.36"/>
<polygon fill="black" stroke="black" points="139.25,-50.97 135.75,-40.97 132.25,-50.97 139.25,-50.97"/>
<text text-anchor="middle" x="143.75" y="-67.3" font-family="Times,serif" font-size="14.00">!b</text>
</g>
<!-- 4 -->
<g id="node13" class="node">
<title>4</title>
<ellipse fill="none" stroke="black" cx="189.75" cy="-22.75" rx="18" ry="18"/>
<text text-anchor="middle" x="189.75" y="-19.05" font-family="Times,serif" font-size="14.00">4</text>
</g>
<!-- 3&#45;&gt;4 -->
<g id="edge12" class="edge">
<title>3&#45;&gt;4</title>
<path fill="none" stroke="black" d="M189.75,-100.91C189.75,-87.06 189.75,-67.38 189.75,-51.36"/>
<polygon fill="black" stroke="black" points="193.25,-50.97 189.75,-40.97 186.25,-50.97 193.25,-50.97"/>
<text text-anchor="middle" x="197.75" y="-67.3" font-family="Times,serif" font-size="14.00">!b</text>
</g>
</g>
</svg>
