<?xml version="1.0" encoding="UTF-8" standalone="no"?>
<!DOCTYPE svg PUBLIC "-//W3C//DTD SVG 1.1//EN"
 "http://www.w3.org/Graphics/SVG/1.1/DTD/svg11.dtd">
<!-- Generated by graphviz version 2.43.0 (0)
 -->
<!-- Title: %3 Pages: 1 -->
<svg width="270pt" height="539pt"
 viewBox="0.00 0.00 269.75 538.59" xmlns="http://www.w3.org/2000/svg" xmlns:xlink="http://www.w3.org/1999/xlink">
<g id="graph0" class="graph" transform="scale(1 1) rotate(0) translate(4 534.59)">
<title>%3</title>
<polygon fill="white" stroke="transparent" points="-4,4 -4,-534.59 265.75,-534.59 265.75,4 -4,4"/>
<!-- ENTRY -->
<g id="node1" class="node">
<title>ENTRY</title>
<ellipse fill="black" stroke="black" cx="148.75" cy="-528.79" rx="1.8" ry="1.8"/>
</g>
<!-- 0 -->
<g id="node2" class="node">
<title>0</title>
<ellipse fill="none" stroke="black" cx="148.75" cy="-471.99" rx="18" ry="18"/>
<text text-anchor="middle" x="148.75" y="-468.29" font-family="Times,serif" font-size="14.00">0</text>
</g>
<!-- ENTRY&#45;&gt;0 -->
<g id="edge1" class="edge">
<title>ENTRY&#45;&gt;0</title>
<path fill="none" stroke="black" d="M148.75,-526.84C148.75,-523.48 148.75,-511.72 148.75,-500.04"/>
<polygon fill="black" stroke="black" points="152.25,-500.02 148.75,-490.02 145.25,-500.02 152.25,-500.02"/>
</g>
<!-- 1 -->
<g id="node3" class="node">
<title>1</title>
<ellipse fill="none" stroke="black" cx="148.75" cy="-384.99" rx="18" ry="18"/>
<text text-anchor="middle" x="148.75" y="-381.29" font-family="Times,serif" font-size="14.00">1</text>
</g>
<!-- 0&#45;&gt;1 -->
<g id="edge2" class="edge">
<title>0&#45;&gt;1</title>
<path fill="none" stroke="black" d="M148.75,-453.79C148.75,-442.15 148.75,-426.54 148.75,-413.23"/>
<polygon fill="black" stroke="black" points="152.25,-413.17 148.75,-403.17 145.25,-413.17 152.25,-413.17"/>
<text text-anchor="middle" x="156.75" y="-424.79" font-family="Times,serif" font-size="14.00">?x</text>
</g>
<!-- 7 -->
<g id="node4" class="node">
<title>7</title>
<ellipse fill="none" stroke="black" cx="81.75" cy="-297.99" rx="18" ry="18"/>
<text text-anchor="middle" x="81.75" y="-294.29" font-family="Times,serif" font-size="14.00">7</text>
</g>
<!-- 1&#45;&gt;7 -->
<g id="edge3" class="edge">
<title>1&#45;&gt;7</title>
<path fill="none" stroke="black" d="M137.81,-370.39C132.62,-363.93 126.34,-356.08 120.75,-348.99 113.4,-339.7 105.34,-329.38 98.47,-320.54"/>
<polygon fill="black" stroke="black" points="101.2,-318.36 92.3,-312.61 95.67,-322.65 101.2,-318.36"/>
<text text-anchor="middle" x="132.75" y="-337.79" font-family="Times,serif" font-size="14.00">!a3</text>
</g>
<!-- 4 -->
<g id="node9" class="node">
<title>4</title>
<ellipse fill="none" stroke="black" cx="148.75" cy="-297.99" rx="18" ry="18"/>
<text text-anchor="middle" x="148.75" y="-294.29" font-family="Times,serif" font-size="14.00">4</text>
</g>
<!-- 1&#45;&gt;4 -->
<g id="edge8" class="edge">
<title>1&#45;&gt;4</title>
<path fill="none" stroke="black" d="M148.75,-366.79C148.75,-355.15 148.75,-339.54 148.75,-326.23"/>
<polygon fill="black" stroke="black" points="152.25,-326.17 148.75,-316.17 145.25,-326.17 152.25,-326.17"/>
<text text-anchor="middle" x="160.75" y="-337.79" font-family="Times,serif" font-size="14.00">!a2</text>
</g>
<!-- 2 -->
<g id="node12" class="node">
<title>2</title>
<ellipse fill="none" stroke="black" cx="229.75" cy="-297.99" rx="18" ry="18"/>
<text text-anchor="middle" x="229.75" y="-294.29" font-family="Times,serif" font-size="14.00">2</text>
</g>
<!-- 1&#45;&gt;2 -->
<g id="edge11" class="edge">
<title>1&#45;&gt;2</title>
<path fill="none" stroke="black" d="M160.7,-371.45C173.86,-357.64 195.2,-335.24 210.68,-319"/>
<polygon fill="black" stroke="black" points="213.38,-321.24 217.75,-311.59 208.31,-316.41 213.38,-321.24"/>
<text text-anchor="middle" x="205.75" y="-337.79" font-family="Times,serif" font-size="14.00">!a1</text>
</g>
<!-- 11 -->
<g id="node5" class="node">
<title>11</title>
<ellipse fill="none" stroke="black" cx="22.75" cy="-206.24" rx="23" ry="23"/>
<text text-anchor="middle" x="22.75" y="-202.54" font-family="Times,serif" font-size="14.00">11</text>
</g>
<!-- 7&#45;&gt;11 -->
<g id="edge4" class="edge">
<title>7&#45;&gt;11</title>
<path fill="none" stroke="black" d="M70.32,-283.75C65.03,-277.35 58.81,-269.47 53.75,-261.99 48.13,-253.69 42.55,-244.3 37.71,-235.67"/>
<polygon fill="black" stroke="black" points="40.66,-233.78 32.78,-226.7 34.53,-237.15 40.66,-233.78"/>
<text text-anchor="middle" x="65.75" y="-250.79" font-family="Times,serif" font-size="14.00">!a1</text>
</g>
<!-- 8 -->
<g id="node6" class="node">
<title>8</title>
<ellipse fill="none" stroke="black" cx="81.75" cy="-206.24" rx="18" ry="18"/>
<text text-anchor="middle" x="81.75" y="-202.54" font-family="Times,serif" font-size="14.00">8</text>
</g>
<!-- 7&#45;&gt;8 -->
<g id="edge5" class="edge">
<title>7&#45;&gt;8</title>
<path fill="none" stroke="black" d="M81.75,-279.69C81.75,-266.9 81.75,-249.23 81.75,-234.55"/>
<polygon fill="black" stroke="black" points="85.25,-234.5 81.75,-224.5 78.25,-234.5 85.25,-234.5"/>
<text text-anchor="middle" x="93.25" y="-250.79" font-family="Times,serif" font-size="14.00">!c1</text>
</g>
<!-- 9 -->
<g id="node7" class="node">
<title>9</title>
<ellipse fill="none" stroke="black" cx="81.75" cy="-114.5" rx="18" ry="18"/>
<text text-anchor="middle" x="81.75" y="-110.8" font-family="Times,serif" font-size="14.00">9</text>
</g>
<!-- 8&#45;&gt;9 -->
<g id="edge6" class="edge">
<title>8&#45;&gt;9</title>
<path fill="none" stroke="black" d="M81.75,-187.94C81.75,-175.15 81.75,-157.49 81.75,-142.8"/>
<polygon fill="black" stroke="black" points="85.25,-142.75 81.75,-132.75 78.25,-142.75 85.25,-142.75"/>
<text text-anchor="middle" x="93.25" y="-154.3" font-family="Times,serif" font-size="14.00">!c2</text>
</g>
<!-- 10 -->
<g id="node8" class="node">
<title>10</title>
<ellipse fill="none" stroke="black" cx="81.75" cy="-22.75" rx="23" ry="23"/>
<text text-anchor="middle" x="81.75" y="-19.05" font-family="Times,serif" font-size="14.00">10</text>
</g>
<!-- 9&#45;&gt;10 -->
<g id="edge7" class="edge">
<title>9&#45;&gt;10</title>
<path fill="none" stroke="black" d="M81.75,-96.19C81.75,-84.86 81.75,-69.69 81.75,-56.17"/>
<polygon fill="black" stroke="black" points="85.25,-55.77 81.75,-45.77 78.25,-55.77 85.25,-55.77"/>
<text text-anchor="middle" x="93.25" y="-67.3" font-family="Times,serif" font-size="14.00">!c3</text>
</g>
<!-- 6 -->
<g id="node10" class="node">
<title>6</title>
<ellipse fill="none" stroke="black" cx="135.75" cy="-206.24" rx="18" ry="18"/>
<text text-anchor="middle" x="135.75" y="-202.54" font-family="Times,serif" font-size="14.00">6</text>
</g>
<!-- 4&#45;&gt;6 -->
<g id="edge9" class="edge">
<title>4&#45;&gt;6</title>
<path fill="none" stroke="black" d="M145.67,-279.93C144.69,-274.23 143.62,-267.85 142.75,-261.99 141.42,-253.1 140.12,-243.37 139.01,-234.61"/>
<polygon fill="black" stroke="black" points="142.47,-234.02 137.77,-224.53 135.52,-234.88 142.47,-234.02"/>
<text text-anchor="middle" x="155.25" y="-250.79" font-family="Times,serif" font-size="14.00">!b2</text>
</g>
<!-- 5 -->
<g id="node11" class="node">
<title>5</title>
<ellipse fill="none" stroke="black" cx="189.75" cy="-206.24" rx="18" ry="18"/>
<text text-anchor="middle" x="189.75" y="-202.54" font-family="Times,serif" font-size="14.00">5</text>
</g>
<!-- 4&#45;&gt;5 -->
<g id="edge10" class="edge">
<title>4&#45;&gt;5</title>
<path fill="none" stroke="black" d="M157.46,-281.86C160.83,-275.76 164.63,-268.62 167.75,-261.99 172.17,-252.6 176.54,-242.06 180.2,-232.76"/>
<polygon fill="black" stroke="black" points="183.53,-233.85 183.87,-223.26 177,-231.33 183.53,-233.85"/>
<text text-anchor="middle" x="186.25" y="-250.79" font-family="Times,serif" font-size="14.00">!b1</text>
</g>
<!-- 3 -->
<g id="node13" class="node">
<title>3</title>
<ellipse fill="none" stroke="black" cx="243.75" cy="-206.24" rx="18" ry="18"/>
<text text-anchor="middle" x="243.75" y="-202.54" font-family="Times,serif" font-size="14.00">3</text>
</g>
<!-- 2&#45;&gt;3 -->
<g id="edge12" class="edge">
<title>2&#45;&gt;3</title>
<path fill="none" stroke="black" d="M232.38,-280.11C234.38,-267.28 237.18,-249.37 239.49,-234.51"/>
<polygon fill="black" stroke="black" points="243,-234.77 241.08,-224.35 236.08,-233.7 243,-234.77"/>
<text text-anchor="middle" x="244.75" y="-250.79" font-family="Times,serif" font-size="14.00">!b</text>
</g>
</g>
</svg>
