<?xml version="1.0" encoding="UTF-8" standalone="no"?>
<!DOCTYPE svg PUBLIC "-//W3C//DTD SVG 1.1//EN"
 "http://www.w3.org/Graphics/SVG/1.1/DTD/svg11.dtd">
<!-- Generated by graphviz version 2.43.0 (0)
 -->
<!-- Title: %3 Pages: 1 -->
<svg width="206pt" height="346pt"
 viewBox="0.00 0.00 205.77 345.60" xmlns="http://www.w3.org/2000/svg" xmlns:xlink="http://www.w3.org/1999/xlink">
<g id="graph0" class="graph" transform="scale(1 1) rotate(0) translate(4 341.6)">
<title>%3</title>
<polygon fill="white" stroke="transparent" points="-4,4 -4,-341.6 201.77,-341.6 201.77,4 -4,4"/>
<!-- ENTRY -->
<g id="node1" class="node">
<title>ENTRY</title>
<ellipse fill="black" stroke="black" cx="102.77" cy="-335.8" rx="1.8" ry="1.8"/>
</g>
<!-- 0 -->
<g id="node2" class="node">
<title>0</title>
<ellipse fill="none" stroke="black" cx="102.77" cy="-279" rx="18" ry="18"/>
<text text-anchor="middle" x="102.77" y="-275.3" font-family="Times,serif" font-size="14.00">0</text>
</g>
<!-- ENTRY&#45;&gt;0 -->
<g id="edge1" class="edge">
<title>ENTRY&#45;&gt;0</title>
<path fill="none" stroke="black" d="M102.77,-333.85C102.77,-330.49 102.77,-318.73 102.77,-307.05"/>
<polygon fill="black" stroke="black" points="106.27,-307.02 102.77,-297.02 99.27,-307.02 106.27,-307.02"/>
</g>
<!-- 4 -->
<g id="node3" class="node">
<title>4</title>
<ellipse fill="none" stroke="black" cx="65.77" cy="-192" rx="18" ry="18"/>
<text text-anchor="middle" x="65.77" y="-188.3" font-family="Times,serif" font-size="14.00">4</text>
</g>
<!-- 0&#45;&gt;4 -->
<g id="edge2" class="edge">
<title>0&#45;&gt;4</title>
<path fill="none" stroke="black" d="M95.81,-262.01C90.43,-249.66 82.89,-232.35 76.71,-218.15"/>
<polygon fill="black" stroke="black" points="79.9,-216.69 72.7,-208.92 73.48,-219.48 79.9,-216.69"/>
<text text-anchor="middle" x="93.77" y="-231.8" font-family="Times,serif" font-size="14.00">?v</text>
</g>
<!-- 1 -->
<g id="node6" class="node">
<title>1</title>
<ellipse fill="none" stroke="black" cx="141.77" cy="-192" rx="18" ry="18"/>
<text text-anchor="middle" x="141.77" y="-188.3" font-family="Times,serif" font-size="14.00">1</text>
</g>
<!-- 0&#45;&gt;1 -->
<g id="edge7" class="edge">
<title>0&#45;&gt;1</title>
<path fill="none" stroke="black" d="M109.92,-262.41C115.6,-250.03 123.66,-232.47 130.25,-218.11"/>
<polygon fill="black" stroke="black" points="133.54,-219.33 134.53,-208.78 127.18,-216.41 133.54,-219.33"/>
<text text-anchor="middle" x="132.27" y="-231.8" font-family="Times,serif" font-size="14.00">?u</text>
</g>
<!-- 5 -->
<g id="node4" class="node">
<title>5</title>
<ellipse fill="none" stroke="black" cx="26.77" cy="-105" rx="18" ry="18"/>
<text text-anchor="middle" x="26.77" y="-101.3" font-family="Times,serif" font-size="14.00">5</text>
</g>
<!-- 4&#45;&gt;5 -->
<g id="edge3" class="edge">
<title>4&#45;&gt;5</title>
<path fill="none" stroke="black" d="M48.39,-186.67C33.35,-181.9 12.54,-172.61 2.77,-156 -2.84,-146.47 1.41,-135.43 7.81,-126.15"/>
<polygon fill="black" stroke="black" points="10.62,-128.24 14.06,-118.22 5.12,-123.9 10.62,-128.24"/>
<text text-anchor="middle" x="15.27" y="-144.8" font-family="Times,serif" font-size="14.00">?a1</text>
</g>
<!-- 5&#45;&gt;4 -->
<g id="edge6" class="edge">
<title>5&#45;&gt;4</title>
<path fill="none" stroke="black" d="M34.01,-121.78C39.71,-134.21 47.77,-151.79 54.35,-166.11"/>
<polygon fill="black" stroke="black" points="51.26,-167.78 58.61,-175.41 57.63,-164.86 51.26,-167.78"/>
<text text-anchor="middle" x="56.77" y="-144.8" font-family="Times,serif" font-size="14.00">!d</text>
</g>
<!-- 6 -->
<g id="node5" class="node">
<title>6</title>
<ellipse fill="none" stroke="black" cx="65.77" cy="-18" rx="18" ry="18"/>
<text text-anchor="middle" x="65.77" y="-14.3" font-family="Times,serif" font-size="14.00">6</text>
</g>
<!-- 5&#45;&gt;6 -->
<g id="edge4" class="edge">
<title>5&#45;&gt;6</title>
<path fill="none" stroke="black" d="M33.92,-88.41C39.6,-76.03 47.66,-58.47 54.25,-44.11"/>
<polygon fill="black" stroke="black" points="57.54,-45.33 58.53,-34.78 51.18,-42.41 57.54,-45.33"/>
<text text-anchor="middle" x="56.27" y="-57.8" font-family="Times,serif" font-size="14.00">!x</text>
</g>
<!-- 6&#45;&gt;4 -->
<g id="edge5" class="edge">
<title>6&#45;&gt;4</title>
<path fill="none" stroke="black" d="M66.35,-36.09C66.52,-41.78 66.68,-48.16 66.77,-54 67.41,-99.33 67.41,-110.67 66.77,-156 66.73,-158.55 66.68,-161.21 66.62,-163.87"/>
<polygon fill="black" stroke="black" points="63.12,-163.82 66.35,-173.91 70.12,-164.01 63.12,-163.82"/>
<text text-anchor="middle" x="79.27" y="-101.3" font-family="Times,serif" font-size="14.00">?a2</text>
</g>
<!-- 2 -->
<g id="node7" class="node">
<title>2</title>
<ellipse fill="none" stroke="black" cx="141.77" cy="-105" rx="18" ry="18"/>
<text text-anchor="middle" x="141.77" y="-101.3" font-family="Times,serif" font-size="14.00">2</text>
</g>
<!-- 1&#45;&gt;2 -->
<g id="edge8" class="edge">
<title>1&#45;&gt;2</title>
<path fill="none" stroke="black" d="M141.77,-173.8C141.77,-162.16 141.77,-146.55 141.77,-133.24"/>
<polygon fill="black" stroke="black" points="145.27,-133.18 141.77,-123.18 138.27,-133.18 145.27,-133.18"/>
<text text-anchor="middle" x="149.77" y="-144.8" font-family="Times,serif" font-size="14.00">?a</text>
</g>
<!-- 3 -->
<g id="node8" class="node">
<title>3</title>
<ellipse fill="none" stroke="black" cx="179.77" cy="-18" rx="18" ry="18"/>
<text text-anchor="middle" x="179.77" y="-14.3" font-family="Times,serif" font-size="14.00">3</text>
</g>
<!-- 2&#45;&gt;3 -->
<g id="edge9" class="edge">
<title>2&#45;&gt;3</title>
<path fill="none" stroke="black" d="M148.91,-88.01C154.47,-75.59 162.28,-58.13 168.65,-43.88"/>
<polygon fill="black" stroke="black" points="171.89,-45.19 172.78,-34.63 165.5,-42.33 171.89,-45.19"/>
<text text-anchor="middle" x="170.77" y="-57.8" font-family="Times,serif" font-size="14.00">?a</text>
</g>
<!-- 3&#45;&gt;1 -->
<g id="edge10" class="edge">
<title>3&#45;&gt;1</title>
<path fill="none" stroke="black" d="M180.94,-36.08C181.28,-41.78 181.6,-48.16 181.77,-54 183.09,-100.18 178.58,-112.97 161.77,-156 160.26,-159.85 158.39,-163.79 156.39,-167.56"/>
<polygon fill="black" stroke="black" points="153.22,-166.07 151.33,-176.49 159.31,-169.52 153.22,-166.07"/>
<text text-anchor="middle" x="188.77" y="-101.3" font-family="Times,serif" font-size="14.00">!b</text>
</g>
</g>
</svg>
