<?xml version="1.0" encoding="UTF-8" standalone="no"?>
<!DOCTYPE svg PUBLIC "-//W3C//DTD SVG 1.1//EN"
 "http://www.w3.org/Graphics/SVG/1.1/DTD/svg11.dtd">
<!-- Generated by graphviz version 2.43.0 (0)
 -->
<!-- Title: %3 Pages: 1 -->
<svg width="298pt" height="259pt"
 viewBox="0.00 0.00 297.52 258.60" xmlns="http://www.w3.org/2000/svg" xmlns:xlink="http://www.w3.org/1999/xlink">
<g id="graph0" class="graph" transform="scale(1 1) rotate(0) translate(4 254.6)">
<title>%3</title>
<polygon fill="white" stroke="transparent" points="-4,4 -4,-254.6 293.52,-254.6 293.52,4 -4,4"/>
<!-- ENTRY -->
<g id="node1" class="node">
<title>ENTRY</title>
<ellipse fill="black" stroke="black" cx="189.52" cy="-248.8" rx="1.8" ry="1.8"/>
</g>
<!-- 0 -->
<g id="node2" class="node">
<title>0</title>
<ellipse fill="none" stroke="black" cx="189.52" cy="-192" rx="18" ry="18"/>
<text text-anchor="middle" x="189.52" y="-188.3" font-family="Times,serif" font-size="14.00">0</text>
</g>
<!-- ENTRY&#45;&gt;0 -->
<g id="edge1" class="edge">
<title>ENTRY&#45;&gt;0</title>
<path fill="none" stroke="black" d="M189.52,-246.85C189.52,-243.49 189.52,-231.73 189.52,-220.05"/>
<polygon fill="black" stroke="black" points="193.02,-220.02 189.52,-210.02 186.02,-220.02 193.02,-220.02"/>
</g>
<!-- 3 -->
<g id="node3" class="node">
<title>3</title>
<ellipse fill="none" stroke="black" cx="127.52" cy="-105" rx="18" ry="18"/>
<text text-anchor="middle" x="127.52" y="-101.3" font-family="Times,serif" font-size="14.00">3</text>
</g>
<!-- 0&#45;&gt;3 -->
<g id="edge2" class="edge">
<title>0&#45;&gt;3</title>
<path fill="none" stroke="black" d="M179.28,-176.96C169.68,-163.8 155.16,-143.89 143.94,-128.51"/>
<polygon fill="black" stroke="black" points="146.5,-126.07 137.78,-120.06 140.84,-130.2 146.5,-126.07"/>
<text text-anchor="middle" x="170.52" y="-144.8" font-family="Times,serif" font-size="14.00">?v</text>
</g>
<!-- 1 -->
<g id="node6" class="node">
<title>1</title>
<ellipse fill="none" stroke="black" cx="252.52" cy="-105" rx="18" ry="18"/>
<text text-anchor="middle" x="252.52" y="-101.3" font-family="Times,serif" font-size="14.00">1</text>
</g>
<!-- 0&#45;&gt;1 -->
<g id="edge9" class="edge">
<title>0&#45;&gt;1</title>
<path fill="none" stroke="black" d="M199.93,-176.96C209.68,-163.8 224.44,-143.89 235.84,-128.51"/>
<polygon fill="black" stroke="black" points="238.96,-130.17 242.1,-120.06 233.34,-126.01 238.96,-130.17"/>
<text text-anchor="middle" x="233.02" y="-144.8" font-family="Times,serif" font-size="14.00">?u</text>
</g>
<!-- 5 -->
<g id="node4" class="node">
<title>5</title>
<ellipse fill="none" stroke="black" cx="50.52" cy="-18" rx="18" ry="18"/>
<text text-anchor="middle" x="50.52" y="-14.3" font-family="Times,serif" font-size="14.00">5</text>
</g>
<!-- 3&#45;&gt;5 -->
<g id="edge3" class="edge">
<title>3&#45;&gt;5</title>
<path fill="none" stroke="black" d="M109.6,-101.6C78.44,-97.02 16.35,-85.94 3.52,-69 -6.85,-55.29 9.4,-41.15 25.56,-31.42"/>
<polygon fill="black" stroke="black" points="27.33,-34.44 34.35,-26.5 23.92,-28.33 27.33,-34.44"/>
<text text-anchor="middle" x="16.02" y="-57.8" font-family="Times,serif" font-size="14.00">?a2</text>
</g>
<!-- 4 -->
<g id="node5" class="node">
<title>4</title>
<ellipse fill="none" stroke="black" cx="175.52" cy="-18" rx="18" ry="18"/>
<text text-anchor="middle" x="175.52" y="-14.3" font-family="Times,serif" font-size="14.00">4</text>
</g>
<!-- 3&#45;&gt;4 -->
<g id="edge6" class="edge">
<title>3&#45;&gt;4</title>
<path fill="none" stroke="black" d="M124.26,-86.88C123.18,-76.77 123.36,-64.04 128.52,-54 133.36,-44.6 142.01,-37.07 150.59,-31.43"/>
<polygon fill="black" stroke="black" points="152.52,-34.36 159.33,-26.25 148.95,-28.33 152.52,-34.36"/>
<text text-anchor="middle" x="141.02" y="-57.8" font-family="Times,serif" font-size="14.00">?a1</text>
</g>
<!-- 5&#45;&gt;3 -->
<g id="edge4" class="edge">
<title>5&#45;&gt;3</title>
<path fill="none" stroke="black" d="M46.65,-35.61C45.18,-46.02 45.15,-59.27 51.52,-69 62.26,-85.41 82.81,-94.24 99.83,-98.93"/>
<polygon fill="black" stroke="black" points="99.31,-102.4 109.85,-101.34 100.95,-95.6 99.31,-102.4"/>
<text text-anchor="middle" x="59.52" y="-57.8" font-family="Times,serif" font-size="14.00">!d</text>
</g>
<!-- 5&#45;&gt;3 -->
<g id="edge5" class="edge">
<title>5&#45;&gt;3</title>
<path fill="none" stroke="black" d="M62.33,-32.03C74.69,-45.68 94.3,-67.33 108.79,-83.32"/>
<polygon fill="black" stroke="black" points="106.52,-86.03 115.83,-91.09 111.71,-81.33 106.52,-86.03"/>
<text text-anchor="middle" x="102.02" y="-57.8" font-family="Times,serif" font-size="14.00">!x</text>
</g>
<!-- 4&#45;&gt;3 -->
<g id="edge7" class="edge">
<title>4&#45;&gt;3</title>
<path fill="none" stroke="black" d="M169.47,-35.21C165.47,-45.22 159.82,-58.18 153.52,-69 150.95,-73.43 147.92,-77.96 144.85,-82.24"/>
<polygon fill="black" stroke="black" points="141.84,-80.42 138.64,-90.53 147.44,-84.62 141.84,-80.42"/>
<text text-anchor="middle" x="169.52" y="-57.8" font-family="Times,serif" font-size="14.00">!d</text>
</g>
<!-- 4&#45;&gt;3 -->
<g id="edge8" class="edge">
<title>4&#45;&gt;3</title>
<path fill="none" stroke="black" d="M182.12,-35.23C185.21,-45.49 187.12,-58.71 181.52,-69 175.46,-80.16 164.13,-88.31 153.41,-93.92"/>
<polygon fill="black" stroke="black" points="151.85,-90.79 144.29,-98.22 154.83,-97.12 151.85,-90.79"/>
<text text-anchor="middle" x="192.02" y="-57.8" font-family="Times,serif" font-size="14.00">!x</text>
</g>
<!-- 2 -->
<g id="node7" class="node">
<title>2</title>
<ellipse fill="none" stroke="black" cx="271.52" cy="-18" rx="18" ry="18"/>
<text text-anchor="middle" x="271.52" y="-14.3" font-family="Times,serif" font-size="14.00">2</text>
</g>
<!-- 1&#45;&gt;2 -->
<g id="edge10" class="edge">
<title>1&#45;&gt;2</title>
<path fill="none" stroke="black" d="M250.96,-86.62C250.56,-76.88 250.84,-64.61 253.52,-54 254.47,-50.27 255.86,-46.49 257.47,-42.85"/>
<polygon fill="black" stroke="black" points="260.69,-44.24 262.05,-33.73 254.44,-41.1 260.69,-44.24"/>
<text text-anchor="middle" x="261.52" y="-57.8" font-family="Times,serif" font-size="14.00">!b</text>
</g>
<!-- 2&#45;&gt;1 -->
<g id="edge11" class="edge">
<title>2&#45;&gt;1</title>
<path fill="none" stroke="black" d="M272.56,-36.37C272.72,-46.11 272.19,-58.38 269.52,-69 268.6,-72.69 267.25,-76.45 265.73,-80.07"/>
<polygon fill="black" stroke="black" points="262.52,-78.65 261.4,-89.19 268.85,-81.65 262.52,-78.65"/>
<text text-anchor="middle" x="279.52" y="-57.8" font-family="Times,serif" font-size="14.00">?a</text>
</g>
</g>
</svg>
