<?xml version="1.0" encoding="UTF-8" standalone="no"?>
<!DOCTYPE svg PUBLIC "-//W3C//DTD SVG 1.1//EN"
 "http://www.w3.org/Graphics/SVG/1.1/DTD/svg11.dtd">
<!-- Generated by graphviz version 2.43.0 (0)
 -->
<!-- Title: %3 Pages: 1 -->
<svg width="316pt" height="831pt"
 viewBox="0.00 0.00 316.21 830.93" xmlns="http://www.w3.org/2000/svg" xmlns:xlink="http://www.w3.org/1999/xlink">
<g id="graph0" class="graph" transform="scale(1 1) rotate(0) translate(4 826.93)">
<title>%3</title>
<polygon fill="white" stroke="transparent" points="-4,4 -4,-826.93 312.21,-826.93 312.21,4 -4,4"/>
<!-- ENTRY -->
<g id="node1" class="node">
<title>ENTRY</title>
<ellipse fill="black" stroke="black" cx="84.15" cy="-821.13" rx="1.8" ry="1.8"/>
</g>
<!-- 0 -->
<g id="node5" class="node">
<title>0</title>
<ellipse fill="none" stroke="black" cx="84.15" cy="-719.39" rx="62.87" ry="62.87"/>
<text text-anchor="middle" x="84.15" y="-723.19" font-family="Times,serif" font-size="14.00">0 &lt; Eps.0</text>
<text text-anchor="middle" x="84.15" y="-708.19" font-family="Times,serif" font-size="14.00">{b}.{b}.6</text>
</g>
<!-- ENTRY&#45;&gt;0 -->
<g id="edge1" class="edge">
<title>ENTRY&#45;&gt;0</title>
<path fill="none" stroke="black" d="M84.15,-819C84.15,-815.7 84.15,-805.4 84.15,-792.63"/>
<polygon fill="black" stroke="black" points="87.65,-792.46 84.15,-782.46 80.65,-792.46 87.65,-792.46"/>
</g>
<!-- 3 -->
<g id="node2" class="node">
<title>3</title>
<ellipse fill="none" stroke="black" cx="84.15" cy="-84.15" rx="84.29" ry="84.29"/>
<text text-anchor="middle" x="84.15" y="-87.95" font-family="Times,serif" font-size="14.00">3 &lt; {b}.{b}.5</text>
<text text-anchor="middle" x="84.15" y="-72.95" font-family="Times,serif" font-size="14.00">Eps.7</text>
</g>
<!-- 3&#45;&gt;0 -->
<g id="edge2" class="edge">
<title>3&#45;&gt;0</title>
<path fill="none" stroke="black" d="M84.15,-168.31C84.15,-293.39 84.15,-527.87 84.15,-646.19"/>
<polygon fill="black" stroke="black" points="80.65,-646.23 84.15,-656.23 87.65,-646.23 80.65,-646.23"/>
<text text-anchor="middle" x="91.65" y="-453.22" font-family="Times,serif" font-size="14.00">!a</text>
</g>
<!-- 2 -->
<g id="node3" class="node">
<title>2</title>
<ellipse fill="none" stroke="black" cx="202.15" cy="-325.36" rx="106.13" ry="106.13"/>
<text text-anchor="middle" x="202.15" y="-329.16" font-family="Times,serif" font-size="14.00">2 &lt; {b}.{b}.{b}.5</text>
<text text-anchor="middle" x="202.15" y="-314.16" font-family="Times,serif" font-size="14.00">{b}.7</text>
</g>
<!-- 2&#45;&gt;3 -->
<g id="edge3" class="edge">
<title>2&#45;&gt;3</title>
<path fill="none" stroke="black" d="M155.51,-229.81C145.61,-209.75 135.22,-188.69 125.54,-169.05"/>
<polygon fill="black" stroke="black" points="128.55,-167.26 120.99,-159.84 122.28,-170.36 128.55,-167.26"/>
<text text-anchor="middle" x="147.65" y="-190.09" font-family="Times,serif" font-size="14.00">?b</text>
</g>
<!-- 1 -->
<g id="node4" class="node">
<title>1</title>
<ellipse fill="none" stroke="black" cx="180.15" cy="-543.94" rx="61.54" ry="61.54"/>
<text text-anchor="middle" x="180.15" y="-547.74" font-family="Times,serif" font-size="14.00">1 &lt; {b}.6</text>
<text text-anchor="middle" x="180.15" y="-532.74" font-family="Times,serif" font-size="14.00">Eps.1</text>
</g>
<!-- 1&#45;&gt;2 -->
<g id="edge4" class="edge">
<title>1&#45;&gt;2</title>
<path fill="none" stroke="black" d="M186.27,-482.61C187.58,-469.72 189.01,-455.69 190.45,-441.5"/>
<polygon fill="black" stroke="black" points="193.97,-441.46 191.5,-431.16 187.01,-440.76 193.97,-441.46"/>
<text text-anchor="middle" x="196.65" y="-453.22" font-family="Times,serif" font-size="14.00">!a</text>
</g>
<!-- 0&#45;&gt;1 -->
<g id="edge5" class="edge">
<title>0&#45;&gt;1</title>
<path fill="none" stroke="black" d="M114.26,-663.99C124.23,-645.97 135.4,-625.79 145.67,-607.23"/>
<polygon fill="black" stroke="black" points="148.85,-608.71 150.63,-598.26 142.73,-605.32 148.85,-608.71"/>
<text text-anchor="middle" x="142.65" y="-627.26" font-family="Times,serif" font-size="14.00">?b</text>
</g>
</g>
</svg>
