<?xml version="1.0" encoding="UTF-8" standalone="no"?>
<!DOCTYPE svg PUBLIC "-//W3C//DTD SVG 1.1//EN"
 "http://www.w3.org/Graphics/SVG/1.1/DTD/svg11.dtd">
<!-- Generated by graphviz version 2.43.0 (0)
 -->
<!-- Title: %3 Pages: 1 -->
<svg width="118pt" height="346pt"
 viewBox="0.00 0.00 117.59 345.60" xmlns="http://www.w3.org/2000/svg" xmlns:xlink="http://www.w3.org/1999/xlink">
<g id="graph0" class="graph" transform="scale(1 1) rotate(0) translate(4 341.6)">
<title>%3</title>
<polygon fill="white" stroke="transparent" points="-4,4 -4,-341.6 113.59,-341.6 113.59,4 -4,4"/>
<!-- ENTRY -->
<g id="node1" class="node">
<title>ENTRY</title>
<ellipse fill="black" stroke="black" cx="83.59" cy="-335.8" rx="1.8" ry="1.8"/>
</g>
<!-- 0 -->
<g id="node2" class="node">
<title>0</title>
<ellipse fill="none" stroke="black" cx="83.59" cy="-279" rx="18" ry="18"/>
<text text-anchor="middle" x="83.59" y="-275.3" font-family="Times,serif" font-size="14.00">0</text>
</g>
<!-- ENTRY&#45;&gt;0 -->
<g id="edge1" class="edge">
<title>ENTRY&#45;&gt;0</title>
<path fill="none" stroke="black" d="M83.59,-333.85C83.59,-330.49 83.59,-318.73 83.59,-307.05"/>
<polygon fill="black" stroke="black" points="87.09,-307.02 83.59,-297.02 80.09,-307.02 87.09,-307.02"/>
</g>
<!-- 1 -->
<g id="node3" class="node">
<title>1</title>
<ellipse fill="none" stroke="black" cx="48.59" cy="-192" rx="18" ry="18"/>
<text text-anchor="middle" x="48.59" y="-188.3" font-family="Times,serif" font-size="14.00">1</text>
</g>
<!-- 0&#45;&gt;1 -->
<g id="edge2" class="edge">
<title>0&#45;&gt;1</title>
<path fill="none" stroke="black" d="M77.01,-262.01C71.98,-249.78 64.93,-232.68 59.12,-218.56"/>
<polygon fill="black" stroke="black" points="62.19,-216.83 55.15,-208.92 55.72,-219.5 62.19,-216.83"/>
<text text-anchor="middle" x="75.59" y="-231.8" font-family="Times,serif" font-size="14.00">?a</text>
</g>
<!-- 3 -->
<g id="node4" class="node">
<title>3</title>
<ellipse fill="none" stroke="black" cx="91.59" cy="-105" rx="18" ry="18"/>
<text text-anchor="middle" x="91.59" y="-101.3" font-family="Times,serif" font-size="14.00">3</text>
</g>
<!-- 1&#45;&gt;3 -->
<g id="edge3" class="edge">
<title>1&#45;&gt;3</title>
<path fill="none" stroke="black" d="M56.48,-175.41C62.85,-162.83 71.91,-144.9 79.24,-130.42"/>
<polygon fill="black" stroke="black" points="82.37,-131.99 83.76,-121.49 76.12,-128.83 82.37,-131.99"/>
<text text-anchor="middle" x="81.09" y="-144.8" font-family="Times,serif" font-size="14.00">?b</text>
</g>
<!-- 2 -->
<g id="node6" class="node">
<title>2</title>
<ellipse fill="none" stroke="black" cx="26.59" cy="-105" rx="18" ry="18"/>
<text text-anchor="middle" x="26.59" y="-101.3" font-family="Times,serif" font-size="14.00">2</text>
</g>
<!-- 1&#45;&gt;2 -->
<g id="edge7" class="edge">
<title>1&#45;&gt;2</title>
<path fill="none" stroke="black" d="M32.2,-183.46C21.63,-177.61 8.74,-168.41 2.59,-156 -2.2,-146.32 1.81,-135.53 7.83,-126.45"/>
<polygon fill="black" stroke="black" points="10.72,-128.44 14,-118.37 5.15,-124.2 10.72,-128.44"/>
<text text-anchor="middle" x="10.59" y="-144.8" font-family="Times,serif" font-size="14.00">?a</text>
</g>
<!-- 3&#45;&gt;0 -->
<g id="edge4" class="edge">
<title>3&#45;&gt;0</title>
<path fill="none" stroke="black" d="M92.77,-123.08C93.1,-128.78 93.43,-135.16 93.59,-141 94.69,-179.3 90.47,-223.49 87.18,-251.09"/>
<polygon fill="black" stroke="black" points="83.69,-250.8 85.93,-261.15 90.63,-251.66 83.69,-250.8"/>
<text text-anchor="middle" x="100.09" y="-188.3" font-family="Times,serif" font-size="14.00">!y</text>
</g>
<!-- 4 -->
<g id="node5" class="node">
<title>4</title>
<ellipse fill="none" stroke="black" cx="91.59" cy="-18" rx="18" ry="18"/>
<text text-anchor="middle" x="91.59" y="-14.3" font-family="Times,serif" font-size="14.00">4</text>
</g>
<!-- 3&#45;&gt;4 -->
<g id="edge5" class="edge">
<title>3&#45;&gt;4</title>
<path fill="none" stroke="black" d="M81.74,-89.81C76.06,-79.94 70.6,-66.37 73.59,-54 74.5,-50.26 75.88,-46.47 77.48,-42.84"/>
<polygon fill="black" stroke="black" points="80.7,-44.22 82.05,-33.72 74.44,-41.09 80.7,-44.22"/>
<text text-anchor="middle" x="81.09" y="-57.8" font-family="Times,serif" font-size="14.00">!x</text>
</g>
<!-- 4&#45;&gt;3 -->
<g id="edge6" class="edge">
<title>4&#45;&gt;3</title>
<path fill="none" stroke="black" d="M91.59,-36.18C91.59,-47.81 91.59,-63.42 91.59,-76.73"/>
<polygon fill="black" stroke="black" points="88.09,-76.8 91.59,-86.8 95.09,-76.8 88.09,-76.8"/>
<text text-anchor="middle" x="100.09" y="-57.8" font-family="Times,serif" font-size="14.00">?b</text>
</g>
<!-- 2&#45;&gt;1 -->
<g id="edge8" class="edge">
<title>2&#45;&gt;1</title>
<path fill="none" stroke="black" d="M30.93,-122.76C34,-134.62 38.19,-150.79 41.71,-164.4"/>
<polygon fill="black" stroke="black" points="38.35,-165.4 44.25,-174.21 45.13,-163.65 38.35,-165.4"/>
<text text-anchor="middle" x="47.09" y="-144.8" font-family="Times,serif" font-size="14.00">!x</text>
</g>
</g>
</svg>
