<?xml version="1.0" encoding="UTF-8" standalone="no"?>
<!DOCTYPE svg PUBLIC "-//W3C//DTD SVG 1.1//EN"
 "http://www.w3.org/Graphics/SVG/1.1/DTD/svg11.dtd">
<!-- Generated by graphviz version 2.43.0 (0)
 -->
<!-- Title: %3 Pages: 1 -->
<svg width="212pt" height="433pt"
 viewBox="0.00 0.00 212.00 432.60" xmlns="http://www.w3.org/2000/svg" xmlns:xlink="http://www.w3.org/1999/xlink">
<g id="graph0" class="graph" transform="scale(1 1) rotate(0) translate(4 428.6)">
<title>%3</title>
<polygon fill="white" stroke="transparent" points="-4,4 -4,-428.6 208,-428.6 208,4 -4,4"/>
<!-- ENTRY -->
<g id="node1" class="node">
<title>ENTRY</title>
<ellipse fill="black" stroke="black" cx="126" cy="-422.8" rx="1.8" ry="1.8"/>
</g>
<!-- 0 -->
<g id="node2" class="node">
<title>0</title>
<ellipse fill="none" stroke="black" cx="126" cy="-366" rx="18" ry="18"/>
<text text-anchor="middle" x="126" y="-362.3" font-family="Times,serif" font-size="14.00">0</text>
</g>
<!-- ENTRY&#45;&gt;0 -->
<g id="edge1" class="edge">
<title>ENTRY&#45;&gt;0</title>
<path fill="none" stroke="black" d="M126,-420.85C126,-417.49 126,-405.73 126,-394.05"/>
<polygon fill="black" stroke="black" points="129.5,-394.02 126,-384.02 122.5,-394.02 129.5,-394.02"/>
</g>
<!-- 3 -->
<g id="node3" class="node">
<title>3</title>
<ellipse fill="none" stroke="black" cx="50" cy="-279" rx="18" ry="18"/>
<text text-anchor="middle" x="50" y="-275.3" font-family="Times,serif" font-size="14.00">3</text>
</g>
<!-- 0&#45;&gt;3 -->
<g id="edge2" class="edge">
<title>0&#45;&gt;3</title>
<path fill="none" stroke="black" d="M110.07,-356.55C99.42,-350.31 85.64,-341 76,-330 69.63,-322.73 64.3,-313.62 60.16,-305.18"/>
<polygon fill="black" stroke="black" points="63.34,-303.71 56,-296.06 56.97,-306.61 63.34,-303.71"/>
<text text-anchor="middle" x="84.5" y="-318.8" font-family="Times,serif" font-size="14.00">?b</text>
</g>
<!-- 1 -->
<g id="node7" class="node">
<title>1</title>
<ellipse fill="none" stroke="black" cx="153" cy="-279" rx="18" ry="18"/>
<text text-anchor="middle" x="153" y="-275.3" font-family="Times,serif" font-size="14.00">1</text>
</g>
<!-- 0&#45;&gt;1 -->
<g id="edge8" class="edge">
<title>0&#45;&gt;1</title>
<path fill="none" stroke="black" d="M131.21,-348.61C135.02,-336.62 140.26,-320.09 144.66,-306.27"/>
<polygon fill="black" stroke="black" points="148.12,-306.93 147.81,-296.34 141.45,-304.81 148.12,-306.93"/>
<text text-anchor="middle" x="149" y="-318.8" font-family="Times,serif" font-size="14.00">?a</text>
</g>
<!-- 4 -->
<g id="node4" class="node">
<title>4</title>
<ellipse fill="none" stroke="black" cx="18" cy="-192" rx="18" ry="18"/>
<text text-anchor="middle" x="18" y="-188.3" font-family="Times,serif" font-size="14.00">4</text>
</g>
<!-- 3&#45;&gt;4 -->
<g id="edge3" class="edge">
<title>3&#45;&gt;4</title>
<path fill="none" stroke="black" d="M43.98,-262.01C39.41,-249.86 33.02,-232.9 27.72,-218.83"/>
<polygon fill="black" stroke="black" points="30.9,-217.33 24.1,-209.21 24.35,-219.8 30.9,-217.33"/>
<text text-anchor="middle" x="43.5" y="-231.8" font-family="Times,serif" font-size="14.00">!y</text>
</g>
<!-- 4&#45;&gt;4 -->
<g id="edge7" class="edge">
<title>4&#45;&gt;4</title>
<path fill="none" stroke="black" d="M34.66,-199.38C44.62,-201.02 54,-198.56 54,-192 54,-187.8 50.15,-185.28 44.77,-184.44"/>
<polygon fill="black" stroke="black" points="44.6,-180.94 34.66,-184.62 44.72,-187.94 44.6,-180.94"/>
<text text-anchor="middle" x="62.5" y="-188.3" font-family="Times,serif" font-size="14.00">?b</text>
</g>
<!-- 5 -->
<g id="node5" class="node">
<title>5</title>
<ellipse fill="none" stroke="black" cx="50" cy="-105" rx="18" ry="18"/>
<text text-anchor="middle" x="50" y="-101.3" font-family="Times,serif" font-size="14.00">5</text>
</g>
<!-- 4&#45;&gt;5 -->
<g id="edge4" class="edge">
<title>4&#45;&gt;5</title>
<path fill="none" stroke="black" d="M24.02,-175.01C28.59,-162.86 34.98,-145.9 40.28,-131.83"/>
<polygon fill="black" stroke="black" points="43.65,-132.8 43.9,-122.21 37.1,-130.33 43.65,-132.8"/>
<text text-anchor="middle" x="44" y="-144.8" font-family="Times,serif" font-size="14.00">?a</text>
</g>
<!-- 6 -->
<g id="node6" class="node">
<title>6</title>
<ellipse fill="none" stroke="black" cx="84" cy="-18" rx="18" ry="18"/>
<text text-anchor="middle" x="84" y="-14.3" font-family="Times,serif" font-size="14.00">6</text>
</g>
<!-- 5&#45;&gt;6 -->
<g id="edge5" class="edge">
<title>5&#45;&gt;6</title>
<path fill="none" stroke="black" d="M56.4,-88.01C61.29,-75.78 68.13,-58.68 73.78,-44.56"/>
<polygon fill="black" stroke="black" points="77.17,-45.5 77.63,-34.92 70.67,-42.9 77.17,-45.5"/>
<text text-anchor="middle" x="77.5" y="-57.8" font-family="Times,serif" font-size="14.00">!x</text>
</g>
<!-- 6&#45;&gt;0 -->
<g id="edge6" class="edge">
<title>6&#45;&gt;0</title>
<path fill="none" stroke="black" d="M90.9,-34.64C97.68,-51.43 107,-79.08 107,-104 107,-280 107,-280 107,-280 107,-300.29 112.22,-322.65 117.18,-339.35"/>
<polygon fill="black" stroke="black" points="113.86,-340.45 120.2,-348.94 120.54,-338.35 113.86,-340.45"/>
<text text-anchor="middle" x="114.5" y="-188.3" font-family="Times,serif" font-size="14.00">!x</text>
</g>
<!-- 2 -->
<g id="node8" class="node">
<title>2</title>
<ellipse fill="none" stroke="black" cx="186" cy="-192" rx="18" ry="18"/>
<text text-anchor="middle" x="186" y="-188.3" font-family="Times,serif" font-size="14.00">2</text>
</g>
<!-- 1&#45;&gt;2 -->
<g id="edge9" class="edge">
<title>1&#45;&gt;2</title>
<path fill="none" stroke="black" d="M159.21,-262.01C163.95,-249.78 170.6,-232.68 176.08,-218.56"/>
<polygon fill="black" stroke="black" points="179.46,-219.51 179.82,-208.92 172.94,-216.97 179.46,-219.51"/>
<text text-anchor="middle" x="178.5" y="-231.8" font-family="Times,serif" font-size="14.00">!x</text>
</g>
<!-- 2&#45;&gt;0 -->
<g id="edge10" class="edge">
<title>2&#45;&gt;0</title>
<path fill="none" stroke="black" d="M188.34,-210.06C189.02,-215.75 189.67,-222.14 190,-228 191.76,-258.94 190.71,-267.92 180,-297 174.15,-312.88 171.29,-316.57 161,-330 156.65,-335.68 151.42,-341.37 146.35,-346.47"/>
<polygon fill="black" stroke="black" points="143.91,-343.96 139.15,-353.43 148.77,-348.99 143.91,-343.96"/>
<text text-anchor="middle" x="196.5" y="-275.3" font-family="Times,serif" font-size="14.00">!x</text>
</g>
</g>
</svg>
