<?xml version="1.0" encoding="UTF-8" standalone="no"?>
<!DOCTYPE svg PUBLIC "-//W3C//DTD SVG 1.1//EN"
 "http://www.w3.org/Graphics/SVG/1.1/DTD/svg11.dtd">
<!-- Generated by graphviz version 2.43.0 (0)
 -->
<!-- Title: %3 Pages: 1 -->
<svg width="344pt" height="507pt"
 viewBox="0.00 0.00 343.71 507.05" xmlns="http://www.w3.org/2000/svg" xmlns:xlink="http://www.w3.org/1999/xlink">
<g id="graph0" class="graph" transform="scale(1 1) rotate(0) translate(4 503.05)">
<title>%3</title>
<polygon fill="white" stroke="transparent" points="-4,4 -4,-503.05 339.71,-503.05 339.71,4 -4,4"/>
<!-- ENTRY -->
<g id="node1" class="node">
<title>ENTRY</title>
<ellipse fill="black" stroke="black" cx="134.9" cy="-497.25" rx="1.8" ry="1.8"/>
</g>
<!-- 0 -->
<g id="node5" class="node">
<title>0</title>
<ellipse fill="none" stroke="black" cx="134.9" cy="-396.93" rx="61.54" ry="61.54"/>
<text text-anchor="middle" x="134.9" y="-400.73" font-family="Times,serif" font-size="14.00">0 &lt; Eps.0</text>
<text text-anchor="middle" x="134.9" y="-385.73" font-family="Times,serif" font-size="14.00">Eps.2</text>
</g>
<!-- ENTRY&#45;&gt;0 -->
<g id="edge1" class="edge">
<title>ENTRY&#45;&gt;0</title>
<path fill="none" stroke="black" d="M134.9,-495.14C134.9,-491.85 134.9,-481.52 134.9,-468.75"/>
<polygon fill="black" stroke="black" points="138.4,-468.59 134.9,-458.59 131.4,-468.59 138.4,-468.59"/>
</g>
<!-- 3 -->
<g id="node2" class="node">
<title>3</title>
<ellipse fill="none" stroke="black" cx="55.9" cy="-55.9" rx="55.79" ry="55.79"/>
<text text-anchor="middle" x="55.9" y="-52.2" font-family="Times,serif" font-size="14.00">3 &lt; {y}.2</text>
</g>
<!-- 3&#45;&gt;0 -->
<g id="edge2" class="edge">
<title>3&#45;&gt;0</title>
<path fill="none" stroke="black" d="M43.77,-110.88C35.62,-158.01 29.52,-227.56 48.9,-284.41 56.42,-306.49 70.28,-327.6 84.7,-345.39"/>
<polygon fill="black" stroke="black" points="82.25,-347.91 91.35,-353.33 87.61,-343.41 82.25,-347.91"/>
<text text-anchor="middle" x="56.9" y="-219.9" font-family="Times,serif" font-size="14.00">?y</text>
</g>
<!-- 2 -->
<g id="node3" class="node">
<title>2</title>
<ellipse fill="none" stroke="black" cx="134.9" cy="-223.6" rx="60.62" ry="60.62"/>
<text text-anchor="middle" x="134.9" y="-227.4" font-family="Times,serif" font-size="14.00">2 &lt; {y}.2</text>
<text text-anchor="middle" x="134.9" y="-212.4" font-family="Times,serif" font-size="14.00">Eps.2</text>
</g>
<!-- 2&#45;&gt;3 -->
<g id="edge3" class="edge">
<title>2&#45;&gt;3</title>
<path fill="none" stroke="black" d="M109.03,-168.34C101.05,-151.62 92.24,-133.12 84.11,-116.08"/>
<polygon fill="black" stroke="black" points="87.14,-114.31 79.68,-106.79 80.83,-117.32 87.14,-114.31"/>
<text text-anchor="middle" x="105.9" y="-133.59" font-family="Times,serif" font-size="14.00">!b</text>
</g>
<!-- 1 -->
<g id="node4" class="node">
<title>1</title>
<ellipse fill="none" stroke="red" cx="274.9" cy="-223.6" rx="60.62" ry="60.62"/>
<text text-anchor="middle" x="274.9" y="-227.4" font-family="Times,serif" font-size="14.00">1 &lt; {y}.1</text>
<text text-anchor="middle" x="274.9" y="-212.4" font-family="Times,serif" font-size="14.00">Eps.1</text>
</g>
<!-- 0&#45;&gt;2 -->
<g id="edge5" class="edge">
<title>0&#45;&gt;2</title>
<path fill="none" stroke="black" d="M134.9,-335.04C134.9,-321.94 134.9,-307.98 134.9,-294.56"/>
<polygon fill="black" stroke="black" points="138.4,-294.43 134.9,-284.43 131.4,-294.43 138.4,-294.43"/>
<text text-anchor="middle" x="142.9" y="-306.21" font-family="Times,serif" font-size="14.00">!b</text>
</g>
<!-- 0&#45;&gt;1 -->
<g id="edge4" class="edge">
<title>0&#45;&gt;1</title>
<path fill="none" stroke="black" d="M173.52,-348.66C191.19,-327.04 212.21,-301.31 230.53,-278.9"/>
<polygon fill="black" stroke="black" points="233.26,-281.08 236.88,-271.12 227.84,-276.65 233.26,-281.08"/>
<text text-anchor="middle" x="217.4" y="-306.21" font-family="Times,serif" font-size="14.00">!a</text>
</g>
</g>
</svg>
