<?xml version="1.0" encoding="UTF-8" standalone="no"?>
<!DOCTYPE svg PUBLIC "-//W3C//DTD SVG 1.1//EN"
 "http://www.w3.org/Graphics/SVG/1.1/DTD/svg11.dtd">
<!-- Generated by graphviz version 2.43.0 (0)
 -->
<!-- Title: %3 Pages: 1 -->
<svg width="126pt" height="259pt"
 viewBox="0.00 0.00 126.00 258.60" xmlns="http://www.w3.org/2000/svg" xmlns:xlink="http://www.w3.org/1999/xlink">
<g id="graph0" class="graph" transform="scale(1 1) rotate(0) translate(4 254.6)">
<title>%3</title>
<polygon fill="white" stroke="transparent" points="-4,4 -4,-254.6 122,-254.6 122,4 -4,4"/>
<!-- ENTRY -->
<g id="node1" class="node">
<title>ENTRY</title>
<ellipse fill="black" stroke="black" cx="76" cy="-248.8" rx="1.8" ry="1.8"/>
</g>
<!-- 0 -->
<g id="node2" class="node">
<title>0</title>
<ellipse fill="none" stroke="black" cx="76" cy="-192" rx="18" ry="18"/>
<text text-anchor="middle" x="76" y="-188.3" font-family="Times,serif" font-size="14.00">0</text>
</g>
<!-- ENTRY&#45;&gt;0 -->
<g id="edge1" class="edge">
<title>ENTRY&#45;&gt;0</title>
<path fill="none" stroke="black" d="M76,-246.85C76,-243.49 76,-231.73 76,-220.05"/>
<polygon fill="black" stroke="black" points="79.5,-220.02 76,-210.02 72.5,-220.02 79.5,-220.02"/>
</g>
<!-- 2 -->
<g id="node3" class="node">
<title>2</title>
<ellipse fill="none" stroke="black" cx="18" cy="-105" rx="18" ry="18"/>
<text text-anchor="middle" x="18" y="-101.3" font-family="Times,serif" font-size="14.00">2</text>
</g>
<!-- 0&#45;&gt;2 -->
<g id="edge2" class="edge">
<title>0&#45;&gt;2</title>
<path fill="none" stroke="black" d="M61.44,-180.7C53.34,-174.35 43.59,-165.6 37,-156 32.12,-148.89 28.29,-140.37 25.38,-132.39"/>
<polygon fill="black" stroke="black" points="28.64,-131.11 22.17,-122.71 21.99,-133.31 28.64,-131.11"/>
<text text-anchor="middle" x="45" y="-144.8" font-family="Times,serif" font-size="14.00">!b</text>
</g>
<!-- 1 -->
<g id="node5" class="node">
<title>1</title>
<ellipse fill="none" stroke="black" cx="72" cy="-105" rx="18" ry="18"/>
<text text-anchor="middle" x="72" y="-101.3" font-family="Times,serif" font-size="14.00">1</text>
</g>
<!-- 0&#45;&gt;1 -->
<g id="edge5" class="edge">
<title>0&#45;&gt;1</title>
<path fill="none" stroke="black" d="M66.46,-176.28C63.08,-170.25 59.7,-163.04 58,-156 56,-147.75 57.37,-138.79 59.9,-130.78"/>
<polygon fill="black" stroke="black" points="63.24,-131.83 63.56,-121.24 56.71,-129.33 63.24,-131.83"/>
<text text-anchor="middle" x="65.5" y="-144.8" font-family="Times,serif" font-size="14.00">!a</text>
</g>
<!-- 3 -->
<g id="node4" class="node">
<title>3</title>
<ellipse fill="none" stroke="black" cx="72" cy="-18" rx="18" ry="18"/>
<text text-anchor="middle" x="72" y="-14.3" font-family="Times,serif" font-size="14.00">3</text>
</g>
<!-- 2&#45;&gt;3 -->
<g id="edge3" class="edge">
<title>2&#45;&gt;3</title>
<path fill="none" stroke="black" d="M27.41,-89.19C35.61,-76.27 47.66,-57.31 57.17,-42.34"/>
<polygon fill="black" stroke="black" points="60.29,-43.95 62.7,-33.64 54.39,-40.2 60.29,-43.95"/>
<text text-anchor="middle" x="56" y="-57.8" font-family="Times,serif" font-size="14.00">!b</text>
</g>
<!-- 3&#45;&gt;0 -->
<g id="edge4" class="edge">
<title>3&#45;&gt;0</title>
<path fill="none" stroke="black" d="M79.95,-34.16C86.53,-47.62 95.37,-68.04 99,-87 104.78,-117.2 103.46,-126.74 94,-156 92.82,-159.66 91.28,-163.41 89.61,-167.02"/>
<polygon fill="black" stroke="black" points="86.39,-165.63 85,-176.13 92.64,-168.79 86.39,-165.63"/>
<text text-anchor="middle" x="110" y="-101.3" font-family="Times,serif" font-size="14.00">?y</text>
</g>
<!-- 1&#45;&gt;0 -->
<g id="edge6" class="edge">
<title>1&#45;&gt;0</title>
<path fill="none" stroke="black" d="M72.81,-123.18C73.36,-134.81 74.09,-150.42 74.72,-163.73"/>
<polygon fill="black" stroke="black" points="71.22,-163.97 75.19,-173.8 78.22,-163.65 71.22,-163.97"/>
<text text-anchor="middle" x="82" y="-144.8" font-family="Times,serif" font-size="14.00">?x</text>
</g>
</g>
</svg>
