<?xml version="1.0" encoding="UTF-8" standalone="no"?>
<!DOCTYPE svg PUBLIC "-//W3C//DTD SVG 1.1//EN"
 "http://www.w3.org/Graphics/SVG/1.1/DTD/svg11.dtd">
<!-- Generated by graphviz version 2.43.0 (0)
 -->
<!-- Title: %3 Pages: 1 -->
<svg width="526pt" height="841pt"
 viewBox="0.00 0.00 525.94 841.45" xmlns="http://www.w3.org/2000/svg" xmlns:xlink="http://www.w3.org/1999/xlink">
<g id="graph0" class="graph" transform="scale(1 1) rotate(0) translate(4 837.45)">
<title>%3</title>
<polygon fill="white" stroke="transparent" points="-4,4 -4,-837.45 521.94,-837.45 521.94,4 -4,4"/>
<!-- ENTRY -->
<g id="node1" class="node">
<title>ENTRY</title>
<ellipse fill="black" stroke="black" cx="264.39" cy="-831.65" rx="1.8" ry="1.8"/>
</g>
<!-- 0 -->
<g id="node13" class="node">
<title>0</title>
<ellipse fill="none" stroke="black" cx="264.39" cy="-736.3" rx="56.59" ry="56.59"/>
<text text-anchor="middle" x="264.39" y="-732.6" font-family="Times,serif" font-size="14.00">0 &lt; Eps.0</text>
</g>
<!-- ENTRY&#45;&gt;0 -->
<g id="edge1" class="edge">
<title>ENTRY&#45;&gt;0</title>
<path fill="none" stroke="black" d="M264.39,-829.6C264.39,-826.34 264.39,-815.85 264.39,-803.04"/>
<polygon fill="black" stroke="black" points="267.89,-802.88 264.39,-792.88 260.89,-802.88 267.89,-802.88"/>
</g>
<!-- 7 -->
<g id="node2" class="node">
<title>7</title>
<ellipse fill="none" stroke="black" cx="199.39" cy="-408.12" rx="56.59" ry="56.59"/>
<text text-anchor="middle" x="199.39" y="-404.42" font-family="Times,serif" font-size="14.00">7 &lt; {b}.6</text>
</g>
<!-- 10 -->
<g id="node3" class="node">
<title>10</title>
<ellipse fill="none" stroke="black" cx="62.39" cy="-238.18" rx="62.29" ry="62.29"/>
<text text-anchor="middle" x="62.39" y="-234.48" font-family="Times,serif" font-size="14.00">10 &lt; {b}.8</text>
</g>
<!-- 7&#45;&gt;10 -->
<g id="edge6" class="edge">
<title>7&#45;&gt;10</title>
<path fill="none" stroke="black" d="M164.11,-363.87C146.95,-342.84 126.12,-317.3 107.79,-294.83"/>
<polygon fill="black" stroke="black" points="110.45,-292.55 101.42,-287.02 105.02,-296.98 110.45,-292.55"/>
<text text-anchor="middle" x="146.89" y="-322.38" font-family="Times,serif" font-size="14.00">!y</text>
</g>
<!-- 8 -->
<g id="node9" class="node">
<title>8</title>
<ellipse fill="none" stroke="black" cx="199.39" cy="-238.18" rx="56.59" ry="56.59"/>
<text text-anchor="middle" x="199.39" y="-234.48" font-family="Times,serif" font-size="14.00">8 &lt; {b}.7</text>
</g>
<!-- 7&#45;&gt;8 -->
<g id="edge4" class="edge">
<title>7&#45;&gt;8</title>
<path fill="none" stroke="black" d="M199.39,-351.2C199.39,-336.47 199.39,-320.44 199.39,-305.23"/>
<polygon fill="black" stroke="black" points="202.89,-304.86 199.39,-294.86 195.89,-304.86 202.89,-304.86"/>
<text text-anchor="middle" x="206.89" y="-322.38" font-family="Times,serif" font-size="14.00">!x</text>
</g>
<!-- 11 -->
<g id="node4" class="node">
<title>11</title>
<ellipse fill="none" stroke="black" cx="62.39" cy="-62.39" rx="62.29" ry="62.29"/>
<text text-anchor="middle" x="62.39" y="-58.69" font-family="Times,serif" font-size="14.00">11 &lt; Eps.8</text>
</g>
<!-- 10&#45;&gt;11 -->
<g id="edge7" class="edge">
<title>10&#45;&gt;11</title>
<path fill="none" stroke="black" d="M62.39,-175.42C62.39,-162.36 62.39,-148.47 62.39,-135.08"/>
<polygon fill="black" stroke="black" points="65.89,-134.96 62.39,-124.96 58.89,-134.96 65.89,-134.96"/>
<text text-anchor="middle" x="70.89" y="-146.59" font-family="Times,serif" font-size="14.00">?b</text>
</g>
<!-- 2 -->
<g id="node5" class="node">
<title>2</title>
<ellipse fill="none" stroke="black" cx="330.39" cy="-408.12" rx="56.59" ry="56.59"/>
<text text-anchor="middle" x="330.39" y="-404.42" font-family="Times,serif" font-size="14.00">2 &lt; {b}.3</text>
</g>
<!-- 5 -->
<g id="node6" class="node">
<title>5</title>
<ellipse fill="none" stroke="black" cx="330.39" cy="-238.18" rx="56.59" ry="56.59"/>
<text text-anchor="middle" x="330.39" y="-234.48" font-family="Times,serif" font-size="14.00">5 &lt; {b}.5</text>
</g>
<!-- 2&#45;&gt;5 -->
<g id="edge5" class="edge">
<title>2&#45;&gt;5</title>
<path fill="none" stroke="black" d="M330.39,-351.2C330.39,-336.47 330.39,-320.44 330.39,-305.23"/>
<polygon fill="black" stroke="black" points="333.89,-304.86 330.39,-294.86 326.89,-304.86 333.89,-304.86"/>
<text text-anchor="middle" x="337.89" y="-322.38" font-family="Times,serif" font-size="14.00">!y</text>
</g>
<!-- 3 -->
<g id="node8" class="node">
<title>3</title>
<ellipse fill="none" stroke="black" cx="461.39" cy="-238.18" rx="56.59" ry="56.59"/>
<text text-anchor="middle" x="461.39" y="-234.48" font-family="Times,serif" font-size="14.00">3 &lt; {b}.4</text>
</g>
<!-- 2&#45;&gt;3 -->
<g id="edge11" class="edge">
<title>2&#45;&gt;3</title>
<path fill="none" stroke="black" d="M364.81,-363C381.97,-341 402.83,-314.26 420.77,-291.27"/>
<polygon fill="black" stroke="black" points="423.59,-293.34 426.98,-283.3 418.07,-289.04 423.59,-293.34"/>
<text text-anchor="middle" x="403.89" y="-322.38" font-family="Times,serif" font-size="14.00">!x</text>
</g>
<!-- 6 -->
<g id="node10" class="node">
<title>6</title>
<ellipse fill="none" stroke="black" cx="330.39" cy="-62.39" rx="56.59" ry="56.59"/>
<text text-anchor="middle" x="330.39" y="-58.69" font-family="Times,serif" font-size="14.00">6 &lt; Eps.5</text>
</g>
<!-- 5&#45;&gt;6 -->
<g id="edge3" class="edge">
<title>5&#45;&gt;6</title>
<path fill="none" stroke="black" d="M330.39,-181.24C330.39,-164.8 330.39,-146.67 330.39,-129.66"/>
<polygon fill="black" stroke="black" points="333.89,-129.23 330.39,-119.23 326.89,-129.23 333.89,-129.23"/>
<text text-anchor="middle" x="338.89" y="-146.59" font-family="Times,serif" font-size="14.00">?b</text>
</g>
<!-- 9 -->
<g id="node7" class="node">
<title>9</title>
<ellipse fill="none" stroke="black" cx="199.39" cy="-62.39" rx="56.59" ry="56.59"/>
<text text-anchor="middle" x="199.39" y="-58.69" font-family="Times,serif" font-size="14.00">9 &lt; Eps.7</text>
</g>
<!-- 4 -->
<g id="node12" class="node">
<title>4</title>
<ellipse fill="none" stroke="black" cx="461.39" cy="-62.39" rx="56.59" ry="56.59"/>
<text text-anchor="middle" x="461.39" y="-58.69" font-family="Times,serif" font-size="14.00">4 &lt; Eps.4</text>
</g>
<!-- 3&#45;&gt;4 -->
<g id="edge2" class="edge">
<title>3&#45;&gt;4</title>
<path fill="none" stroke="black" d="M461.39,-181.24C461.39,-164.8 461.39,-146.67 461.39,-129.66"/>
<polygon fill="black" stroke="black" points="464.89,-129.23 461.39,-119.23 457.89,-129.23 464.89,-129.23"/>
<text text-anchor="middle" x="469.89" y="-146.59" font-family="Times,serif" font-size="14.00">?b</text>
</g>
<!-- 8&#45;&gt;9 -->
<g id="edge10" class="edge">
<title>8&#45;&gt;9</title>
<path fill="none" stroke="black" d="M199.39,-181.24C199.39,-164.8 199.39,-146.67 199.39,-129.66"/>
<polygon fill="black" stroke="black" points="202.89,-129.23 199.39,-119.23 195.89,-129.23 202.89,-129.23"/>
<text text-anchor="middle" x="207.89" y="-146.59" font-family="Times,serif" font-size="14.00">?b</text>
</g>
<!-- 1 -->
<g id="node11" class="node">
<title>1</title>
<ellipse fill="none" stroke="black" cx="264.39" cy="-572.21" rx="56.59" ry="56.59"/>
<text text-anchor="middle" x="264.39" y="-568.51" font-family="Times,serif" font-size="14.00">1 &lt; Eps.1</text>
</g>
<!-- 1&#45;&gt;7 -->
<g id="edge9" class="edge">
<title>1&#45;&gt;7</title>
<path fill="none" stroke="black" d="M243.65,-519.48C237.38,-503.84 230.43,-486.51 223.93,-470.31"/>
<polygon fill="black" stroke="black" points="227.14,-468.9 220.17,-460.92 220.64,-471.5 227.14,-468.9"/>
<text text-anchor="middle" x="242.39" y="-486.47" font-family="Times,serif" font-size="14.00">!d</text>
</g>
<!-- 1&#45;&gt;2 -->
<g id="edge12" class="edge">
<title>1&#45;&gt;2</title>
<path fill="none" stroke="black" d="M285.46,-519.48C291.86,-503.76 298.95,-486.34 305.58,-470.07"/>
<polygon fill="black" stroke="black" points="308.89,-471.22 309.42,-460.64 302.4,-468.58 308.89,-471.22"/>
<text text-anchor="middle" x="306.39" y="-486.47" font-family="Times,serif" font-size="14.00">!c</text>
</g>
<!-- 0&#45;&gt;1 -->
<g id="edge8" class="edge">
<title>0&#45;&gt;1</title>
<path fill="none" stroke="black" d="M264.39,-679.52C264.39,-666.46 264.39,-652.42 264.39,-638.97"/>
<polygon fill="black" stroke="black" points="267.89,-638.82 264.39,-628.82 260.89,-638.82 267.89,-638.82"/>
<text text-anchor="middle" x="271.89" y="-650.56" font-family="Times,serif" font-size="14.00">!a</text>
</g>
</g>
</svg>
