<?xml version="1.0" encoding="UTF-8" standalone="no"?>
<!DOCTYPE svg PUBLIC "-//W3C//DTD SVG 1.1//EN"
 "http://www.w3.org/Graphics/SVG/1.1/DTD/svg11.dtd">
<!-- Generated by graphviz version 2.43.0 (0)
 -->
<!-- Title: %3 Pages: 1 -->
<svg width="330pt" height="895pt"
 viewBox="0.00 0.00 330.09 894.74" xmlns="http://www.w3.org/2000/svg" xmlns:xlink="http://www.w3.org/1999/xlink">
<g id="graph0" class="graph" transform="scale(1 1) rotate(0) translate(4 890.74)">
<title>%3</title>
<polygon fill="white" stroke="transparent" points="-4,4 -4,-890.74 326.09,-890.74 326.09,4 -4,4"/>
<!-- ENTRY -->
<g id="node1" class="node">
<title>ENTRY</title>
<ellipse fill="black" stroke="black" cx="161.04" cy="-884.94" rx="1.8" ry="1.8"/>
</g>
<!-- 0 -->
<g id="node8" class="node">
<title>0</title>
<ellipse fill="none" stroke="black" cx="161.04" cy="-789.6" rx="56.59" ry="56.59"/>
<text text-anchor="middle" x="161.04" y="-785.9" font-family="Times,serif" font-size="14.00">0 &lt; Eps.0</text>
</g>
<!-- ENTRY&#45;&gt;0 -->
<g id="edge1" class="edge">
<title>ENTRY&#45;&gt;0</title>
<path fill="none" stroke="black" d="M161.04,-882.89C161.04,-879.64 161.04,-869.15 161.04,-856.34"/>
<polygon fill="black" stroke="black" points="164.54,-856.18 161.04,-846.18 157.54,-856.18 164.54,-856.18"/>
</g>
<!-- 7 -->
<g id="node2" class="node">
<title>7</title>
<ellipse fill="none" stroke="black" cx="76.04" cy="-402.92" rx="76.09" ry="76.09"/>
<text text-anchor="middle" x="76.04" y="-399.22" font-family="Times,serif" font-size="14.00">7 &lt; {a}.{a}.7</text>
</g>
<!-- 8 -->
<g id="node5" class="node">
<title>8</title>
<ellipse fill="none" stroke="black" cx="76.04" cy="-219.99" rx="55.79" ry="55.79"/>
<text text-anchor="middle" x="76.04" y="-216.29" font-family="Times,serif" font-size="14.00">8 &lt; {a}.7</text>
</g>
<!-- 7&#45;&gt;8 -->
<g id="edge9" class="edge">
<title>7&#45;&gt;8</title>
<path fill="none" stroke="black" d="M76.04,-326.76C76.04,-313.35 76.04,-299.48 76.04,-286.38"/>
<polygon fill="black" stroke="black" points="79.54,-286.05 76.04,-276.05 72.54,-286.05 79.54,-286.05"/>
<text text-anchor="middle" x="84.04" y="-297.68" font-family="Times,serif" font-size="14.00">?a</text>
</g>
<!-- 2 -->
<g id="node3" class="node">
<title>2</title>
<ellipse fill="none" stroke="black" cx="246.04" cy="-402.92" rx="76.09" ry="76.09"/>
<text text-anchor="middle" x="246.04" y="-399.22" font-family="Times,serif" font-size="14.00">2 &lt; {a}.{a}.4</text>
</g>
<!-- 3 -->
<g id="node10" class="node">
<title>3</title>
<ellipse fill="none" stroke="black" cx="246.04" cy="-219.99" rx="55.79" ry="55.79"/>
<text text-anchor="middle" x="246.04" y="-216.29" font-family="Times,serif" font-size="14.00">3 &lt; {a}.4</text>
</g>
<!-- 2&#45;&gt;3 -->
<g id="edge2" class="edge">
<title>2&#45;&gt;3</title>
<path fill="none" stroke="black" d="M246.04,-326.76C246.04,-313.35 246.04,-299.48 246.04,-286.38"/>
<polygon fill="black" stroke="black" points="249.54,-286.05 246.04,-276.05 242.54,-286.05 249.54,-286.05"/>
<text text-anchor="middle" x="254.04" y="-297.68" font-family="Times,serif" font-size="14.00">?a</text>
</g>
<!-- 9 -->
<g id="node4" class="node">
<title>9</title>
<ellipse fill="none" stroke="red" cx="76.04" cy="-56.54" rx="56.59" ry="56.59"/>
<text text-anchor="middle" x="76.04" y="-52.84" font-family="Times,serif" font-size="14.00">9 &lt; Eps.7</text>
</g>
<!-- 8&#45;&gt;9 -->
<g id="edge5" class="edge">
<title>8&#45;&gt;9</title>
<path fill="none" stroke="black" d="M76.04,-163.88C76.04,-150.85 76.04,-136.83 76.04,-123.38"/>
<polygon fill="black" stroke="black" points="79.54,-123.23 76.04,-113.23 72.54,-123.23 79.54,-123.23"/>
<text text-anchor="middle" x="84.04" y="-134.89" font-family="Times,serif" font-size="14.00">?a</text>
</g>
<!-- 6 -->
<g id="node6" class="node">
<title>6</title>
<ellipse fill="none" stroke="black" cx="76.04" cy="-606.01" rx="76.09" ry="76.09"/>
<text text-anchor="middle" x="76.04" y="-602.31" font-family="Times,serif" font-size="14.00">6 &lt; {a}.{a}.6</text>
</g>
<!-- 6&#45;&gt;7 -->
<g id="edge6" class="edge">
<title>6&#45;&gt;7</title>
<path fill="none" stroke="black" d="M76.04,-529.85C76.04,-516.6 76.04,-502.73 76.04,-489.23"/>
<polygon fill="black" stroke="black" points="79.54,-489 76.04,-479 72.54,-489 79.54,-489"/>
<text text-anchor="middle" x="87.54" y="-500.77" font-family="Times,serif" font-size="14.00">!c2</text>
</g>
<!-- 4 -->
<g id="node7" class="node">
<title>4</title>
<ellipse fill="none" stroke="red" cx="246.04" cy="-56.54" rx="56.59" ry="56.59"/>
<text text-anchor="middle" x="246.04" y="-52.84" font-family="Times,serif" font-size="14.00">4 &lt; Eps.4</text>
</g>
<!-- 0&#45;&gt;6 -->
<g id="edge4" class="edge">
<title>0&#45;&gt;6</title>
<path fill="none" stroke="black" d="M137.37,-738.02C129.63,-721.48 120.85,-702.72 112.39,-684.67"/>
<polygon fill="black" stroke="black" points="115.42,-682.88 108.01,-675.31 109.08,-685.85 115.42,-682.88"/>
<text text-anchor="middle" x="138.54" y="-703.85" font-family="Times,serif" font-size="14.00">!c1</text>
</g>
<!-- 1 -->
<g id="node9" class="node">
<title>1</title>
<ellipse fill="none" stroke="black" cx="246.04" cy="-606.01" rx="76.09" ry="76.09"/>
<text text-anchor="middle" x="246.04" y="-602.31" font-family="Times,serif" font-size="14.00">1 &lt; {a}.{a}.3</text>
</g>
<!-- 0&#45;&gt;1 -->
<g id="edge3" class="edge">
<title>0&#45;&gt;1</title>
<path fill="none" stroke="black" d="M184.72,-738.02C192.46,-721.48 201.24,-702.72 209.69,-684.67"/>
<polygon fill="black" stroke="black" points="213,-685.85 214.07,-675.31 206.66,-682.88 213,-685.85"/>
<text text-anchor="middle" x="213.54" y="-703.85" font-family="Times,serif" font-size="14.00">!b1</text>
</g>
<!-- 1&#45;&gt;2 -->
<g id="edge8" class="edge">
<title>1&#45;&gt;2</title>
<path fill="none" stroke="black" d="M246.04,-529.85C246.04,-516.6 246.04,-502.73 246.04,-489.23"/>
<polygon fill="black" stroke="black" points="249.54,-489 246.04,-479 242.54,-489 249.54,-489"/>
<text text-anchor="middle" x="258.54" y="-500.77" font-family="Times,serif" font-size="14.00">!b2</text>
</g>
<!-- 3&#45;&gt;4 -->
<g id="edge7" class="edge">
<title>3&#45;&gt;4</title>
<path fill="none" stroke="black" d="M246.04,-163.88C246.04,-150.85 246.04,-136.83 246.04,-123.38"/>
<polygon fill="black" stroke="black" points="249.54,-123.23 246.04,-113.23 242.54,-123.23 249.54,-123.23"/>
<text text-anchor="middle" x="254.04" y="-134.89" font-family="Times,serif" font-size="14.00">?a</text>
</g>
</g>
</svg>
