<?xml version="1.0" encoding="UTF-8" standalone="no"?>
<!DOCTYPE svg PUBLIC "-//W3C//DTD SVG 1.1//EN"
 "http://www.w3.org/Graphics/SVG/1.1/DTD/svg11.dtd">
<!-- Generated by graphviz version 2.43.0 (0)
 -->
<!-- Title: %3 Pages: 1 -->
<svg width="131pt" height="520pt"
 viewBox="0.00 0.00 131.04 519.71" xmlns="http://www.w3.org/2000/svg" xmlns:xlink="http://www.w3.org/1999/xlink">
<g id="graph0" class="graph" transform="scale(1 1) rotate(0) translate(4 515.71)">
<title>%3</title>
<polygon fill="white" stroke="transparent" points="-4,4 -4,-515.71 127.04,-515.71 127.04,4 -4,4"/>
<!-- ENTRY -->
<g id="node1" class="node">
<title>ENTRY</title>
<ellipse fill="black" stroke="black" cx="61.52" cy="-509.91" rx="1.8" ry="1.8"/>
</g>
<!-- 0 -->
<g id="node4" class="node">
<title>0</title>
<ellipse fill="none" stroke="black" cx="61.52" cy="-409.59" rx="61.54" ry="61.54"/>
<text text-anchor="middle" x="61.52" y="-413.39" font-family="Times,serif" font-size="14.00">0 &lt; Eps.0</text>
<text text-anchor="middle" x="61.52" y="-398.39" font-family="Times,serif" font-size="14.00">Eps.1</text>
</g>
<!-- ENTRY&#45;&gt;0 -->
<g id="edge1" class="edge">
<title>ENTRY&#45;&gt;0</title>
<path fill="none" stroke="black" d="M61.52,-507.81C61.52,-504.51 61.52,-494.18 61.52,-481.41"/>
<polygon fill="black" stroke="black" points="65.02,-481.25 61.52,-471.25 58.02,-481.25 65.02,-481.25"/>
</g>
<!-- 2 -->
<g id="node2" class="node">
<title>2</title>
<ellipse fill="none" stroke="red" cx="61.52" cy="-61.52" rx="61.54" ry="61.54"/>
<text text-anchor="middle" x="61.52" y="-65.32" font-family="Times,serif" font-size="14.00">2 &lt; Eps.1</text>
<text text-anchor="middle" x="61.52" y="-50.32" font-family="Times,serif" font-size="14.00">Eps.0</text>
</g>
<!-- 1 -->
<g id="node3" class="node">
<title>1</title>
<ellipse fill="none" stroke="black" cx="61.52" cy="-235.55" rx="61.54" ry="61.54"/>
<text text-anchor="middle" x="61.52" y="-239.35" font-family="Times,serif" font-size="14.00">1 &lt; {b}.0</text>
<text text-anchor="middle" x="61.52" y="-224.35" font-family="Times,serif" font-size="14.00">Eps.0</text>
</g>
<!-- 1&#45;&gt;2 -->
<g id="edge2" class="edge">
<title>1&#45;&gt;2</title>
<path fill="none" stroke="black" d="M61.52,-173.9C61.52,-160.8 61.52,-146.83 61.52,-133.37"/>
<polygon fill="black" stroke="black" points="65.02,-133.2 61.52,-123.2 58.02,-133.2 65.02,-133.2"/>
<text text-anchor="middle" x="70.02" y="-144.84" font-family="Times,serif" font-size="14.00">?b</text>
</g>
<!-- 0&#45;&gt;1 -->
<g id="edge3" class="edge">
<title>0&#45;&gt;1</title>
<path fill="none" stroke="black" d="M61.52,-347.94C61.52,-334.83 61.52,-320.86 61.52,-307.41"/>
<polygon fill="black" stroke="black" points="65.02,-307.24 61.52,-297.24 58.02,-307.24 65.02,-307.24"/>
<text text-anchor="middle" x="69.02" y="-318.87" font-family="Times,serif" font-size="14.00">!a</text>
</g>
</g>
</svg>
