<?xml version="1.0" encoding="UTF-8" standalone="no"?>
<!DOCTYPE svg PUBLIC "-//W3C//DTD SVG 1.1//EN"
 "http://www.w3.org/Graphics/SVG/1.1/DTD/svg11.dtd">
<!-- Generated by graphviz version 2.43.0 (0)
 -->
<!-- Title: %3 Pages: 1 -->
<svg width="341pt" height="696pt"
 viewBox="0.00 0.00 340.72 696.49" xmlns="http://www.w3.org/2000/svg" xmlns:xlink="http://www.w3.org/1999/xlink">
<g id="graph0" class="graph" transform="scale(1 1) rotate(0) translate(4 692.49)">
<title>%3</title>
<polygon fill="white" stroke="transparent" points="-4,4 -4,-692.49 336.72,-692.49 336.72,4 -4,4"/>
<!-- ENTRY -->
<g id="node1" class="node">
<title>ENTRY</title>
<ellipse fill="black" stroke="black" cx="189.36" cy="-686.69" rx="1.8" ry="1.8"/>
</g>
<!-- 0 -->
<g id="node4" class="node">
<title>0</title>
<ellipse fill="none" stroke="black" cx="189.36" cy="-585.66" rx="62.45" ry="62.45"/>
<text text-anchor="middle" x="189.36" y="-589.46" font-family="Times,serif" font-size="14.00">0 &lt; Eps.0</text>
<text text-anchor="middle" x="189.36" y="-574.46" font-family="Times,serif" font-size="14.00">({d,b})*.1</text>
</g>
<!-- ENTRY&#45;&gt;0 -->
<g id="edge1" class="edge">
<title>ENTRY&#45;&gt;0</title>
<path fill="none" stroke="black" d="M189.36,-684.57C189.36,-681.27 189.36,-670.96 189.36,-658.19"/>
<polygon fill="black" stroke="black" points="192.86,-658.02 189.36,-648.02 185.86,-658.02 192.86,-658.02"/>
</g>
<!-- 2 -->
<g id="node2" class="node">
<title>2</title>
<ellipse fill="none" stroke="black" cx="105.36" cy="-105.36" rx="105.22" ry="105.22"/>
<text text-anchor="middle" x="105.36" y="-124.16" font-family="Times,serif" font-size="14.00">2 &lt; ({d,b})*.{b}.1</text>
<text text-anchor="middle" x="105.36" y="-109.16" font-family="Times,serif" font-size="14.00">Eps.1</text>
<text text-anchor="middle" x="105.36" y="-94.16" font-family="Times,serif" font-size="14.00">({d,b})*.{d}.1</text>
<text text-anchor="middle" x="105.36" y="-79.16" font-family="Times,serif" font-size="14.00">Eps.0</text>
</g>
<!-- 2&#45;&gt;0 -->
<g id="edge2" class="edge">
<title>2&#45;&gt;0</title>
<path fill="none" stroke="black" d="M84.49,-208.87C73.65,-284.03 68.2,-387.36 98.36,-472.44 106.54,-495.5 121.7,-517.29 137.33,-535.42"/>
<polygon fill="black" stroke="black" points="134.78,-537.81 144.04,-542.96 140.01,-533.16 134.78,-537.81"/>
<text text-anchor="middle" x="105.86" y="-363.38" font-family="Times,serif" font-size="14.00">!a</text>
</g>
<!-- 1 -->
<g id="node3" class="node">
<title>1</title>
<ellipse fill="none" stroke="black" cx="227.36" cy="-367.08" rx="105.22" ry="105.22"/>
<text text-anchor="middle" x="227.36" y="-378.38" font-family="Times,serif" font-size="14.00">1 &lt; ({d,b})*.{b}.1</text>
<text text-anchor="middle" x="227.36" y="-363.38" font-family="Times,serif" font-size="14.00">Eps.1</text>
<text text-anchor="middle" x="227.36" y="-348.38" font-family="Times,serif" font-size="14.00">({d,b})*.{d}.1</text>
</g>
<!-- 1&#45;&gt;2 -->
<g id="edge4" class="edge">
<title>1&#45;&gt;2</title>
<path fill="none" stroke="black" d="M182.8,-271.21C173.47,-251.36 163.59,-230.32 154.12,-210.16"/>
<polygon fill="black" stroke="black" points="157.22,-208.53 149.8,-200.97 150.88,-211.51 157.22,-208.53"/>
<text text-anchor="middle" x="174.86" y="-232.52" font-family="Times,serif" font-size="14.00">?b</text>
</g>
<!-- 1&#45;&gt;0 -->
<g id="edge3" class="edge">
<title>1&#45;&gt;0</title>
<path fill="none" stroke="black" d="M211.29,-471.28C209.36,-482.82 207.36,-494.38 205.36,-505.44 204.81,-508.45 204.25,-511.52 203.66,-514.62"/>
<polygon fill="black" stroke="black" points="200.2,-514.1 201.76,-524.58 207.07,-515.42 200.2,-514.1"/>
<text text-anchor="middle" x="215.86" y="-494.24" font-family="Times,serif" font-size="14.00">?d</text>
</g>
<!-- 0&#45;&gt;1 -->
<g id="edge5" class="edge">
<title>0&#45;&gt;1</title>
<path fill="none" stroke="black" d="M186.8,-523.25C186.62,-517.23 186.47,-511.22 186.36,-505.44 186.23,-498.77 185.29,-497.02 186.36,-490.44 187.13,-485.71 188.06,-480.92 189.11,-476.11"/>
<polygon fill="black" stroke="black" points="192.55,-476.76 191.44,-466.22 185.74,-475.15 192.55,-476.76"/>
<text text-anchor="middle" x="193.86" y="-494.24" font-family="Times,serif" font-size="14.00">!a</text>
</g>
</g>
</svg>
