<?xml version="1.0" encoding="UTF-8" standalone="no"?>
<!DOCTYPE svg PUBLIC "-//W3C//DTD SVG 1.1//EN"
 "http://www.w3.org/Graphics/SVG/1.1/DTD/svg11.dtd">
<!-- Generated by graphviz version 2.43.0 (0)
 -->
<!-- Title: %3 Pages: 1 -->
<svg width="80pt" height="259pt"
 viewBox="0.00 0.00 80.00 258.60" xmlns="http://www.w3.org/2000/svg" xmlns:xlink="http://www.w3.org/1999/xlink">
<g id="graph0" class="graph" transform="scale(1 1) rotate(0) translate(4 254.6)">
<title>%3</title>
<polygon fill="white" stroke="transparent" points="-4,4 -4,-254.6 76,-254.6 76,4 -4,4"/>
<!-- ENTRY -->
<g id="node1" class="node">
<title>ENTRY</title>
<ellipse fill="black" stroke="black" cx="40" cy="-248.8" rx="1.8" ry="1.8"/>
</g>
<!-- 0 -->
<g id="node2" class="node">
<title>0</title>
<ellipse fill="none" stroke="black" cx="40" cy="-192" rx="18" ry="18"/>
<text text-anchor="middle" x="40" y="-188.3" font-family="Times,serif" font-size="14.00">0</text>
</g>
<!-- ENTRY&#45;&gt;0 -->
<g id="edge1" class="edge">
<title>ENTRY&#45;&gt;0</title>
<path fill="none" stroke="black" d="M40,-246.85C40,-243.49 40,-231.73 40,-220.05"/>
<polygon fill="black" stroke="black" points="43.5,-220.02 40,-210.02 36.5,-220.02 43.5,-220.02"/>
</g>
<!-- 1 -->
<g id="node3" class="node">
<title>1</title>
<ellipse fill="none" stroke="black" cx="18" cy="-105" rx="18" ry="18"/>
<text text-anchor="middle" x="18" y="-101.3" font-family="Times,serif" font-size="14.00">1</text>
</g>
<!-- 0&#45;&gt;1 -->
<g id="edge2" class="edge">
<title>0&#45;&gt;1</title>
<path fill="none" stroke="black" d="M25.24,-181.58C17.02,-175.42 7.55,-166.56 3,-156 -0.61,-147.62 0.94,-138.11 4.15,-129.64"/>
<polygon fill="black" stroke="black" points="7.44,-130.86 8.46,-120.32 1.08,-127.92 7.44,-130.86"/>
<text text-anchor="middle" x="10.5" y="-144.8" font-family="Times,serif" font-size="14.00">!a</text>
</g>
<!-- 1&#45;&gt;0 -->
<g id="edge5" class="edge">
<title>1&#45;&gt;0</title>
<path fill="none" stroke="black" d="M22.34,-122.76C25.41,-134.62 29.59,-150.79 33.12,-164.4"/>
<polygon fill="black" stroke="black" points="29.76,-165.4 35.65,-174.21 36.54,-163.65 29.76,-165.4"/>
<text text-anchor="middle" x="38.5" y="-144.8" font-family="Times,serif" font-size="14.00">?d</text>
</g>
<!-- 2 -->
<g id="node4" class="node">
<title>2</title>
<ellipse fill="none" stroke="black" cx="45" cy="-18" rx="18" ry="18"/>
<text text-anchor="middle" x="45" y="-14.3" font-family="Times,serif" font-size="14.00">2</text>
</g>
<!-- 1&#45;&gt;2 -->
<g id="edge3" class="edge">
<title>1&#45;&gt;2</title>
<path fill="none" stroke="black" d="M23.21,-87.61C27.02,-75.62 32.26,-59.09 36.66,-45.27"/>
<polygon fill="black" stroke="black" points="40.12,-45.93 39.81,-35.34 33.45,-43.81 40.12,-45.93"/>
<text text-anchor="middle" x="41.5" y="-57.8" font-family="Times,serif" font-size="14.00">?b</text>
</g>
<!-- 2&#45;&gt;0 -->
<g id="edge4" class="edge">
<title>2&#45;&gt;0</title>
<path fill="none" stroke="black" d="M50.17,-35.57C51.73,-41.34 53.23,-47.9 54,-54 59.69,-98.99 58.65,-111.3 51,-156 50.5,-158.94 49.81,-161.98 49.02,-164.98"/>
<polygon fill="black" stroke="black" points="45.58,-164.26 46.08,-174.84 52.29,-166.26 45.58,-164.26"/>
<text text-anchor="middle" x="64.5" y="-101.3" font-family="Times,serif" font-size="14.00">!a</text>
</g>
</g>
</svg>
