<?xml version="1.0" encoding="UTF-8" standalone="no"?>
<!DOCTYPE svg PUBLIC "-//W3C//DTD SVG 1.1//EN"
 "http://www.w3.org/Graphics/SVG/1.1/DTD/svg11.dtd">
<!-- Generated by graphviz version 2.43.0 (0)
 -->
<!-- Title: %3 Pages: 1 -->
<svg width="82pt" height="172pt"
 viewBox="0.00 0.00 81.80 171.60" xmlns="http://www.w3.org/2000/svg" xmlns:xlink="http://www.w3.org/1999/xlink">
<g id="graph0" class="graph" transform="scale(1 1) rotate(0) translate(4 167.6)">
<title>%3</title>
<polygon fill="white" stroke="transparent" points="-4,4 -4,-167.6 77.8,-167.6 77.8,4 -4,4"/>
<!-- ENTRY -->
<g id="node1" class="node">
<title>ENTRY</title>
<ellipse fill="black" stroke="black" cx="38.8" cy="-161.8" rx="1.8" ry="1.8"/>
</g>
<!-- 0 -->
<g id="node2" class="node">
<title>0</title>
<ellipse fill="none" stroke="black" cx="38.8" cy="-105" rx="18" ry="18"/>
<text text-anchor="middle" x="38.8" y="-101.3" font-family="Times,serif" font-size="14.00">0</text>
</g>
<!-- ENTRY&#45;&gt;0 -->
<g id="edge1" class="edge">
<title>ENTRY&#45;&gt;0</title>
<path fill="none" stroke="black" d="M38.8,-159.85C38.8,-156.49 38.8,-144.73 38.8,-133.05"/>
<polygon fill="black" stroke="black" points="42.3,-133.02 38.8,-123.02 35.3,-133.02 42.3,-133.02"/>
</g>
<!-- 1 -->
<g id="node3" class="node">
<title>1</title>
<ellipse fill="none" stroke="black" cx="38.8" cy="-18" rx="18" ry="18"/>
<text text-anchor="middle" x="38.8" y="-14.3" font-family="Times,serif" font-size="14.00">1</text>
</g>
<!-- 0&#45;&gt;1 -->
<g id="edge2" class="edge">
<title>0&#45;&gt;1</title>
<path fill="none" stroke="black" d="M24.04,-94.58C15.81,-88.42 6.34,-79.56 1.8,-69 -3.58,-56.51 5.28,-44.21 15.68,-34.94"/>
<polygon fill="black" stroke="black" points="18.11,-37.47 23.72,-28.48 13.73,-32.02 18.11,-37.47"/>
<text text-anchor="middle" x="9.3" y="-57.8" font-family="Times,serif" font-size="14.00">!a</text>
</g>
<!-- 1&#45;&gt;0 -->
<g id="edge3" class="edge">
<title>1&#45;&gt;0</title>
<path fill="none" stroke="black" d="M38.8,-36.18C38.8,-47.81 38.8,-63.42 38.8,-76.73"/>
<polygon fill="black" stroke="black" points="35.3,-76.8 38.8,-86.8 42.3,-76.8 35.3,-76.8"/>
<text text-anchor="middle" x="47.3" y="-57.8" font-family="Times,serif" font-size="14.00">?d</text>
</g>
<!-- 1&#45;&gt;0 -->
<g id="edge4" class="edge">
<title>1&#45;&gt;0</title>
<path fill="none" stroke="black" d="M48.34,-33.72C51.72,-39.75 55.09,-46.96 56.8,-54 58.95,-62.89 56.73,-72.4 53.21,-80.71"/>
<polygon fill="black" stroke="black" points="50,-79.3 48.66,-89.81 56.26,-82.44 50,-79.3"/>
<text text-anchor="middle" x="65.3" y="-57.8" font-family="Times,serif" font-size="14.00">?b</text>
</g>
</g>
</svg>
