<?xml version="1.0" encoding="UTF-8" standalone="no"?>
<!DOCTYPE svg PUBLIC "-//W3C//DTD SVG 1.1//EN"
 "http://www.w3.org/Graphics/SVG/1.1/DTD/svg11.dtd">
<!-- Generated by graphviz version 2.43.0 (0)
 -->
<!-- Title: %3 Pages: 1 -->
<svg width="286pt" height="382pt"
 viewBox="0.00 0.00 286.08 381.87" xmlns="http://www.w3.org/2000/svg" xmlns:xlink="http://www.w3.org/1999/xlink">
<g id="graph0" class="graph" transform="scale(1 1) rotate(0) translate(4 377.87)">
<title>%3</title>
<polygon fill="white" stroke="transparent" points="-4,4 -4,-377.87 282.08,-377.87 282.08,4 -4,4"/>
<!-- ENTRY -->
<g id="node1" class="node">
<title>ENTRY</title>
<ellipse fill="black" stroke="black" cx="95.54" cy="-372.07" rx="1.8" ry="1.8"/>
</g>
<!-- 0 -->
<g id="node4" class="node">
<title>0</title>
<ellipse fill="none" stroke="black" cx="95.54" cy="-265.67" rx="67.69" ry="67.69"/>
<text text-anchor="middle" x="95.54" y="-261.97" font-family="Times,serif" font-size="14.00">0 &lt; ({b})*.0</text>
</g>
<!-- ENTRY&#45;&gt;0 -->
<g id="edge1" class="edge">
<title>ENTRY&#45;&gt;0</title>
<path fill="none" stroke="black" d="M95.54,-369.89C95.54,-366.54 95.54,-356.31 95.54,-343.52"/>
<polygon fill="black" stroke="black" points="99.05,-343.3 95.54,-333.3 92.05,-343.3 99.05,-343.3"/>
</g>
<!-- 2 -->
<g id="node2" class="node">
<title>2</title>
<ellipse fill="none" stroke="red" cx="204.54" cy="-73.54" rx="73.58" ry="73.58"/>
<text text-anchor="middle" x="204.54" y="-77.34" font-family="Times,serif" font-size="14.00">2 &lt; ({b})*.0</text>
<text text-anchor="middle" x="204.54" y="-62.34" font-family="Times,serif" font-size="14.00">Eps.2</text>
</g>
<!-- 1 -->
<g id="node3" class="node">
<title>1</title>
<ellipse fill="none" stroke="black" cx="56.54" cy="-73.54" rx="56.59" ry="56.59"/>
<text text-anchor="middle" x="56.54" y="-69.84" font-family="Times,serif" font-size="14.00">1 &lt; Eps.1</text>
</g>
<!-- 1&#45;&gt;0 -->
<g id="edge2" class="edge">
<title>1&#45;&gt;0</title>
<path fill="none" stroke="black" d="M67.72,-129.04C71.57,-147.77 75.94,-169.08 80.06,-189.18"/>
<polygon fill="black" stroke="black" points="76.69,-190.15 82.12,-199.24 83.54,-188.74 76.69,-190.15"/>
<text text-anchor="middle" x="85.04" y="-168.88" font-family="Times,serif" font-size="14.00">!x</text>
</g>
<!-- 0&#45;&gt;2 -->
<g id="edge4" class="edge">
<title>0&#45;&gt;2</title>
<path fill="none" stroke="black" d="M128.84,-206.59C139.69,-187.66 151.88,-166.41 163.24,-146.58"/>
<polygon fill="black" stroke="black" points="166.29,-148.3 168.23,-137.89 160.22,-144.82 166.29,-148.3"/>
<text text-anchor="middle" x="158.04" y="-168.88" font-family="Times,serif" font-size="14.00">?b</text>
</g>
<!-- 0&#45;&gt;1 -->
<g id="edge3" class="edge">
<title>0&#45;&gt;1</title>
<path fill="none" stroke="black" d="M64.33,-205.25C61.13,-196.98 58.38,-188.45 56.54,-180.08 53.74,-167.31 52.5,-153.47 52.17,-140.14"/>
<polygon fill="black" stroke="black" points="55.67,-140.04 52.08,-130.07 48.67,-140.1 55.67,-140.04"/>
<text text-anchor="middle" x="64.54" y="-168.88" font-family="Times,serif" font-size="14.00">?a</text>
</g>
</g>
</svg>
