<?xml version="1.0" encoding="UTF-8" standalone="no"?>
<!DOCTYPE svg PUBLIC "-//W3C//DTD SVG 1.1//EN"
 "http://www.w3.org/Graphics/SVG/1.1/DTD/svg11.dtd">
<!-- Generated by graphviz version 2.43.0 (0)
 -->
<!-- Title: %3 Pages: 1 -->
<svg width="129pt" height="172pt"
 viewBox="0.00 0.00 129.00 171.60" xmlns="http://www.w3.org/2000/svg" xmlns:xlink="http://www.w3.org/1999/xlink">
<g id="graph0" class="graph" transform="scale(1 1) rotate(0) translate(4 167.6)">
<title>%3</title>
<polygon fill="white" stroke="transparent" points="-4,4 -4,-167.6 125,-167.6 125,4 -4,4"/>
<!-- ENTRY -->
<g id="node1" class="node">
<title>ENTRY</title>
<ellipse fill="black" stroke="black" cx="65" cy="-161.8" rx="1.8" ry="1.8"/>
</g>
<!-- 0 -->
<g id="node2" class="node">
<title>0</title>
<ellipse fill="none" stroke="black" cx="65" cy="-105" rx="18" ry="18"/>
<text text-anchor="middle" x="65" y="-101.3" font-family="Times,serif" font-size="14.00">0</text>
</g>
<!-- ENTRY&#45;&gt;0 -->
<g id="edge1" class="edge">
<title>ENTRY&#45;&gt;0</title>
<path fill="none" stroke="black" d="M65,-159.85C65,-156.49 65,-144.73 65,-133.05"/>
<polygon fill="black" stroke="black" points="68.5,-133.02 65,-123.02 61.5,-133.02 68.5,-133.02"/>
</g>
<!-- 2 -->
<g id="node3" class="node">
<title>2</title>
<ellipse fill="none" stroke="black" cx="18" cy="-18" rx="18" ry="18"/>
<text text-anchor="middle" x="18" y="-14.3" font-family="Times,serif" font-size="14.00">2</text>
</g>
<!-- 0&#45;&gt;2 -->
<g id="edge2" class="edge">
<title>0&#45;&gt;2</title>
<path fill="none" stroke="black" d="M47.86,-98.87C34.09,-93.74 15.67,-84.36 7,-69 2.67,-61.32 3.34,-52.09 5.8,-43.66"/>
<polygon fill="black" stroke="black" points="9.08,-44.86 9.3,-34.27 2.52,-42.41 9.08,-44.86"/>
<text text-anchor="middle" x="15.5" y="-57.8" font-family="Times,serif" font-size="14.00">?b</text>
</g>
<!-- 1 -->
<g id="node4" class="node">
<title>1</title>
<ellipse fill="none" stroke="black" cx="103" cy="-18" rx="18" ry="18"/>
<text text-anchor="middle" x="103" y="-14.3" font-family="Times,serif" font-size="14.00">1</text>
</g>
<!-- 0&#45;&gt;1 -->
<g id="edge4" class="edge">
<title>0&#45;&gt;1</title>
<path fill="none" stroke="black" d="M71.1,-87.62C74.88,-77.78 79.96,-65.06 85,-54 86.6,-50.5 88.36,-46.84 90.14,-43.27"/>
<polygon fill="black" stroke="black" points="93.36,-44.68 94.8,-34.18 87.13,-41.49 93.36,-44.68"/>
<text text-anchor="middle" x="93" y="-57.8" font-family="Times,serif" font-size="14.00">?a</text>
</g>
<!-- 2&#45;&gt;0 -->
<g id="edge3" class="edge">
<title>2&#45;&gt;0</title>
<path fill="none" stroke="black" d="M26.33,-34.06C33.33,-46.72 43.45,-65.04 51.59,-79.75"/>
<polygon fill="black" stroke="black" points="48.7,-81.75 56.6,-88.8 54.82,-78.36 48.7,-81.75"/>
<text text-anchor="middle" x="52.5" y="-57.8" font-family="Times,serif" font-size="14.00">!y</text>
</g>
<!-- 1&#45;&gt;0 -->
<g id="edge5" class="edge">
<title>1&#45;&gt;0</title>
<path fill="none" stroke="black" d="M105.37,-35.92C106.05,-45.95 105.6,-58.69 101,-69 97.95,-75.85 92.88,-82.04 87.5,-87.25"/>
<polygon fill="black" stroke="black" points="84.83,-84.93 79.59,-94.14 89.43,-90.21 84.83,-84.93"/>
<text text-anchor="middle" x="111.5" y="-57.8" font-family="Times,serif" font-size="14.00">!x</text>
</g>
</g>
</svg>
