<?xml version="1.0" encoding="UTF-8" standalone="no"?>
<!DOCTYPE svg PUBLIC "-//W3C//DTD SVG 1.1//EN"
 "http://www.w3.org/Graphics/SVG/1.1/DTD/svg11.dtd">
<!-- Generated by graphviz version 2.43.0 (0)
 -->
<!-- Title: %3 Pages: 1 -->
<svg width="1095pt" height="1814pt"
 viewBox="0.00 0.00 1095.40 1814.13" xmlns="http://www.w3.org/2000/svg" xmlns:xlink="http://www.w3.org/1999/xlink">
<g id="graph0" class="graph" transform="scale(1 1) rotate(0) translate(4 1810.13)">
<title>%3</title>
<polygon fill="white" stroke="transparent" points="-4,4 -4,-1810.13 1091.4,-1810.13 1091.4,4 -4,4"/>
<!-- ENTRY -->
<g id="node1" class="node">
<title>ENTRY</title>
<ellipse fill="black" stroke="black" cx="128.51" cy="-1590.46" rx="1.8" ry="1.8"/>
</g>
<!-- 0 -->
<g id="node5" class="node">
<title>0</title>
<ellipse fill="none" stroke="black" cx="128.51" cy="-946.9" rx="56.59" ry="56.59"/>
<text text-anchor="middle" x="128.51" y="-943.2" font-family="Times,serif" font-size="14.00">0 &lt; Eps.0</text>
</g>
<!-- ENTRY&#45;&gt;0 -->
<g id="edge1" class="edge">
<title>ENTRY&#45;&gt;0</title>
<path fill="none" stroke="black" d="M128.51,-1588.42C128.51,-1565.56 128.51,-1172.32 128.51,-1013.57"/>
<polygon fill="black" stroke="black" points="132.01,-1013.46 128.51,-1003.46 125.01,-1013.46 132.01,-1013.46"/>
</g>
<!-- 2 -->
<g id="node2" class="node">
<title>2</title>
<ellipse fill="none" stroke="black" cx="710.51" cy="-1590.46" rx="215.84" ry="215.84"/>
<text text-anchor="middle" x="710.51" y="-1601.76" font-family="Times,serif" font-size="14.00">2 &lt; {u}.{Z}.4</text>
<text text-anchor="middle" x="710.51" y="-1586.76" font-family="Times,serif" font-size="14.00">{u}.{w}.{u}.{w}.{u}.5</text>
<text text-anchor="middle" x="710.51" y="-1571.76" font-family="Times,serif" font-size="14.00">{u}.{w}.{u}.({w}.{u}.{w}.{u})*.{Z}.6</text>
</g>
<!-- 3 -->
<g id="node6" class="node">
<title>3</title>
<ellipse fill="none" stroke="black" cx="710.51" cy="-946.9" rx="376.78" ry="376.78"/>
<text text-anchor="middle" x="710.51" y="-958.2" font-family="Times,serif" font-size="14.00">3 &lt; {u}.{w}.{u}.({w}.{u}.{w}.{u})*.{Z}.{w}.{u}.{w}.{u}.{w}.{u}.6</text>
<text text-anchor="middle" x="710.51" y="-943.2" font-family="Times,serif" font-size="14.00">{u}.{Z}.6</text>
<text text-anchor="middle" x="710.51" y="-928.2" font-family="Times,serif" font-size="14.00">{u}.{w}.{u}.{w}.{u}.{Z}.6</text>
</g>
<!-- 2&#45;&gt;3 -->
<g id="edge2" class="edge">
<title>2&#45;&gt;3</title>
<path fill="none" stroke="black" d="M710.51,-1374.49C710.51,-1361.23 710.51,-1347.7 710.51,-1334.01"/>
<polygon fill="black" stroke="black" points="714.01,-1334 710.51,-1324 707.01,-1334 714.01,-1334"/>
<text text-anchor="middle" x="718.51" y="-1345.59" font-family="Times,serif" font-size="14.00">!b</text>
</g>
<!-- 4 -->
<g id="node3" class="node">
<title>4</title>
<ellipse fill="none" stroke="black" cx="259.51" cy="-946.9" rx="56.59" ry="56.59"/>
<text text-anchor="middle" x="259.51" y="-943.2" font-family="Times,serif" font-size="14.00">4 &lt; Eps.6</text>
</g>
<!-- 1 -->
<g id="node4" class="node">
<title>1</title>
<ellipse fill="none" stroke="red" cx="259.51" cy="-259.51" rx="259.52" ry="259.52"/>
<text text-anchor="middle" x="259.51" y="-270.81" font-family="Times,serif" font-size="14.00">1 &lt; ({w,u})*.{Z}.({w}.{u}.{w}.{u}.{w}.{u})*.6</text>
<text text-anchor="middle" x="259.51" y="-255.81" font-family="Times,serif" font-size="14.00">{w}.{u}.{Z}.4</text>
<text text-anchor="middle" x="259.51" y="-240.81" font-family="Times,serif" font-size="14.00">{w}.{u}.{w}.{u}.{w}.{u}.5</text>
</g>
<!-- 4&#45;&gt;1 -->
<g id="edge3" class="edge">
<title>4&#45;&gt;1</title>
<path fill="none" stroke="black" d="M259.51,-890.11C259.51,-811.48 259.51,-662.77 259.51,-529.62"/>
<polygon fill="black" stroke="black" points="263.01,-529.25 259.51,-519.25 256.01,-529.25 263.01,-529.25"/>
<text text-anchor="middle" x="267.01" y="-540.82" font-family="Times,serif" font-size="14.00">!a</text>
</g>
<!-- 0&#45;&gt;1 -->
<g id="edge5" class="edge">
<title>0&#45;&gt;1</title>
<path fill="none" stroke="black" d="M137.32,-891C149.23,-817.68 171.54,-683.81 193.51,-570.02 196.46,-554.72 199.57,-539.01 202.76,-523.17"/>
<polygon fill="black" stroke="black" points="206.21,-523.78 204.76,-513.29 199.35,-522.4 206.21,-523.78"/>
<text text-anchor="middle" x="206.01" y="-540.82" font-family="Times,serif" font-size="14.00">!v</text>
</g>
<!-- 3&#45;&gt;1 -->
<g id="edge4" class="edge">
<title>3&#45;&gt;1</title>
<path fill="none" stroke="black" d="M503.65,-631.54C471.2,-582.22 438.23,-532.11 407.45,-485.34"/>
<polygon fill="black" stroke="black" points="410.35,-483.38 401.93,-476.95 404.51,-487.23 410.35,-483.38"/>
<text text-anchor="middle" x="454.01" y="-540.82" font-family="Times,serif" font-size="14.00">?u</text>
</g>
</g>
</svg>
