<?xml version="1.0" encoding="UTF-8" standalone="no"?>
<!DOCTYPE svg PUBLIC "-//W3C//DTD SVG 1.1//EN"
 "http://www.w3.org/Graphics/SVG/1.1/DTD/svg11.dtd">
<!-- Generated by graphviz version 2.43.0 (0)
 -->
<!-- Title: %3 Pages: 1 -->
<svg width="147pt" height="346pt"
 viewBox="0.00 0.00 147.00 345.60" xmlns="http://www.w3.org/2000/svg" xmlns:xlink="http://www.w3.org/1999/xlink">
<g id="graph0" class="graph" transform="scale(1 1) rotate(0) translate(4 341.6)">
<title>%3</title>
<polygon fill="white" stroke="transparent" points="-4,4 -4,-341.6 143,-341.6 143,4 -4,4"/>
<!-- ENTRY -->
<g id="node1" class="node">
<title>ENTRY</title>
<ellipse fill="black" stroke="black" cx="75" cy="-335.8" rx="1.8" ry="1.8"/>
</g>
<!-- 0 -->
<g id="node2" class="node">
<title>0</title>
<ellipse fill="none" stroke="black" cx="75" cy="-279" rx="18" ry="18"/>
<text text-anchor="middle" x="75" y="-275.3" font-family="Times,serif" font-size="14.00">0</text>
</g>
<!-- ENTRY&#45;&gt;0 -->
<g id="edge1" class="edge">
<title>ENTRY&#45;&gt;0</title>
<path fill="none" stroke="black" d="M75,-333.85C75,-330.49 75,-318.73 75,-307.05"/>
<polygon fill="black" stroke="black" points="78.5,-307.02 75,-297.02 71.5,-307.02 78.5,-307.02"/>
</g>
<!-- 1 -->
<g id="node3" class="node">
<title>1</title>
<ellipse fill="none" stroke="black" cx="75" cy="-192" rx="18" ry="18"/>
<text text-anchor="middle" x="75" y="-188.3" font-family="Times,serif" font-size="14.00">1</text>
</g>
<!-- 0&#45;&gt;1 -->
<g id="edge2" class="edge">
<title>0&#45;&gt;1</title>
<path fill="none" stroke="black" d="M75,-260.8C75,-249.16 75,-233.55 75,-220.24"/>
<polygon fill="black" stroke="black" points="78.5,-220.18 75,-210.18 71.5,-220.18 78.5,-220.18"/>
<text text-anchor="middle" x="82.5" y="-231.8" font-family="Times,serif" font-size="14.00">!v</text>
</g>
<!-- 4 -->
<g id="node4" class="node">
<title>4</title>
<ellipse fill="none" stroke="black" cx="18" cy="-105" rx="18" ry="18"/>
<text text-anchor="middle" x="18" y="-101.3" font-family="Times,serif" font-size="14.00">4</text>
</g>
<!-- 1&#45;&gt;4 -->
<g id="edge3" class="edge">
<title>1&#45;&gt;4</title>
<path fill="none" stroke="black" d="M57.86,-186.05C43.83,-181 24.9,-171.63 16,-156 11.99,-148.97 11.17,-140.43 11.74,-132.42"/>
<polygon fill="black" stroke="black" points="15.23,-132.74 13.15,-122.35 8.3,-131.77 15.23,-132.74"/>
<text text-anchor="middle" x="25" y="-144.8" font-family="Times,serif" font-size="14.00">?Z</text>
</g>
<!-- 2 -->
<g id="node5" class="node">
<title>2</title>
<ellipse fill="none" stroke="black" cx="84" cy="-105" rx="18" ry="18"/>
<text text-anchor="middle" x="84" y="-101.3" font-family="Times,serif" font-size="14.00">2</text>
</g>
<!-- 1&#45;&gt;2 -->
<g id="edge5" class="edge">
<title>1&#45;&gt;2</title>
<path fill="none" stroke="black" d="M76.82,-173.8C78.05,-162.16 79.71,-146.55 81.12,-133.24"/>
<polygon fill="black" stroke="black" points="84.61,-133.49 82.18,-123.18 77.65,-132.75 84.61,-133.49"/>
<text text-anchor="middle" x="91" y="-144.8" font-family="Times,serif" font-size="14.00">?w</text>
</g>
<!-- 4&#45;&gt;1 -->
<g id="edge4" class="edge">
<title>4&#45;&gt;1</title>
<path fill="none" stroke="black" d="M27.72,-120.49C36.49,-133.58 49.56,-153.06 59.73,-168.23"/>
<polygon fill="black" stroke="black" points="56.85,-170.22 65.33,-176.58 62.67,-166.33 56.85,-170.22"/>
<text text-anchor="middle" x="57.5" y="-144.8" font-family="Times,serif" font-size="14.00">!a</text>
</g>
<!-- 3 -->
<g id="node6" class="node">
<title>3</title>
<ellipse fill="none" stroke="black" cx="116" cy="-18" rx="18" ry="18"/>
<text text-anchor="middle" x="116" y="-14.3" font-family="Times,serif" font-size="14.00">3</text>
</g>
<!-- 2&#45;&gt;3 -->
<g id="edge6" class="edge">
<title>2&#45;&gt;3</title>
<path fill="none" stroke="black" d="M90.02,-88.01C94.59,-75.86 100.98,-58.9 106.28,-44.83"/>
<polygon fill="black" stroke="black" points="109.65,-45.8 109.9,-35.21 103.1,-43.33 109.65,-45.8"/>
<text text-anchor="middle" x="109" y="-57.8" font-family="Times,serif" font-size="14.00">!b</text>
</g>
<!-- 3&#45;&gt;1 -->
<g id="edge7" class="edge">
<title>3&#45;&gt;1</title>
<path fill="none" stroke="black" d="M118.93,-36.04C119.77,-41.73 120.58,-48.12 121,-54 124.25,-99.77 124.76,-114.59 105,-156 102.35,-161.55 98.59,-166.93 94.62,-171.73"/>
<polygon fill="black" stroke="black" points="91.98,-169.42 87.9,-179.2 97.19,-174.1 91.98,-169.42"/>
<text text-anchor="middle" x="130.5" y="-101.3" font-family="Times,serif" font-size="14.00">?u</text>
</g>
</g>
</svg>
