<?xml version="1.0" encoding="UTF-8" standalone="no"?>
<!DOCTYPE svg PUBLIC "-//W3C//DTD SVG 1.1//EN"
 "http://www.w3.org/Graphics/SVG/1.1/DTD/svg11.dtd">
<!-- Generated by graphviz version 2.43.0 (0)
 -->
<!-- Title: %3 Pages: 1 -->
<svg width="150pt" height="974pt"
 viewBox="0.00 0.00 150.00 973.59" xmlns="http://www.w3.org/2000/svg" xmlns:xlink="http://www.w3.org/1999/xlink">
<g id="graph0" class="graph" transform="scale(1 1) rotate(0) translate(4 969.59)">
<title>%3</title>
<polygon fill="white" stroke="transparent" points="-4,4 -4,-969.59 146,-969.59 146,4 -4,4"/>
<!-- ENTRY -->
<g id="node1" class="node">
<title>ENTRY</title>
<ellipse fill="black" stroke="black" cx="73" cy="-963.79" rx="1.8" ry="1.8"/>
</g>
<!-- 0 -->
<g id="node2" class="node">
<title>0</title>
<ellipse fill="none" stroke="black" cx="73" cy="-906.99" rx="18" ry="18"/>
<text text-anchor="middle" x="73" y="-903.29" font-family="Times,serif" font-size="14.00">0</text>
</g>
<!-- ENTRY&#45;&gt;0 -->
<g id="edge1" class="edge">
<title>ENTRY&#45;&gt;0</title>
<path fill="none" stroke="black" d="M73,-961.84C73,-958.48 73,-946.72 73,-935.04"/>
<polygon fill="black" stroke="black" points="76.5,-935.02 73,-925.02 69.5,-935.02 76.5,-935.02"/>
</g>
<!-- 1 -->
<g id="node3" class="node">
<title>1</title>
<ellipse fill="none" stroke="black" cx="73" cy="-819.99" rx="18" ry="18"/>
<text text-anchor="middle" x="73" y="-816.29" font-family="Times,serif" font-size="14.00">1</text>
</g>
<!-- 0&#45;&gt;1 -->
<g id="edge2" class="edge">
<title>0&#45;&gt;1</title>
<path fill="none" stroke="black" d="M73,-888.79C73,-877.15 73,-861.54 73,-848.23"/>
<polygon fill="black" stroke="black" points="76.5,-848.17 73,-838.17 69.5,-848.17 76.5,-848.17"/>
<text text-anchor="middle" x="83" y="-859.79" font-family="Times,serif" font-size="14.00">?w</text>
</g>
<!-- 2 -->
<g id="node4" class="node">
<title>2</title>
<ellipse fill="none" stroke="black" cx="73" cy="-732.99" rx="18" ry="18"/>
<text text-anchor="middle" x="73" y="-729.29" font-family="Times,serif" font-size="14.00">2</text>
</g>
<!-- 1&#45;&gt;2 -->
<g id="edge3" class="edge">
<title>1&#45;&gt;2</title>
<path fill="none" stroke="black" d="M73,-801.79C73,-790.15 73,-774.54 73,-761.23"/>
<polygon fill="black" stroke="black" points="76.5,-761.17 73,-751.17 69.5,-761.17 76.5,-761.17"/>
<text text-anchor="middle" x="81.5" y="-772.79" font-family="Times,serif" font-size="14.00">?u</text>
</g>
<!-- 3 -->
<g id="node5" class="node">
<title>3</title>
<ellipse fill="none" stroke="black" cx="73" cy="-645.99" rx="18" ry="18"/>
<text text-anchor="middle" x="73" y="-642.29" font-family="Times,serif" font-size="14.00">3</text>
</g>
<!-- 2&#45;&gt;3 -->
<g id="edge4" class="edge">
<title>2&#45;&gt;3</title>
<path fill="none" stroke="black" d="M73,-714.79C73,-703.15 73,-687.54 73,-674.23"/>
<polygon fill="black" stroke="black" points="76.5,-674.17 73,-664.17 69.5,-674.17 76.5,-674.17"/>
<text text-anchor="middle" x="82" y="-685.79" font-family="Times,serif" font-size="14.00">?Z</text>
</g>
<!-- 4 -->
<g id="node6" class="node">
<title>4</title>
<ellipse fill="none" stroke="black" cx="73" cy="-558.99" rx="18" ry="18"/>
<text text-anchor="middle" x="73" y="-555.29" font-family="Times,serif" font-size="14.00">4</text>
</g>
<!-- 3&#45;&gt;4 -->
<g id="edge5" class="edge">
<title>3&#45;&gt;4</title>
<path fill="none" stroke="black" d="M73,-627.79C73,-616.15 73,-600.54 73,-587.23"/>
<polygon fill="black" stroke="black" points="76.5,-587.17 73,-577.17 69.5,-587.17 76.5,-587.17"/>
<text text-anchor="middle" x="80.5" y="-598.79" font-family="Times,serif" font-size="14.00">!v</text>
</g>
<!-- 6 -->
<g id="node7" class="node">
<title>6</title>
<ellipse fill="none" stroke="black" cx="18" cy="-471.99" rx="18" ry="18"/>
<text text-anchor="middle" x="18" y="-468.29" font-family="Times,serif" font-size="14.00">6</text>
</g>
<!-- 4&#45;&gt;6 -->
<g id="edge6" class="edge">
<title>4&#45;&gt;6</title>
<path fill="none" stroke="black" d="M58.63,-548.12C50.38,-541.79 40.43,-532.92 34,-522.99 29.52,-516.08 26.21,-507.81 23.8,-500.01"/>
<polygon fill="black" stroke="black" points="27.13,-498.91 21.13,-490.18 20.38,-500.75 27.13,-498.91"/>
<text text-anchor="middle" x="42" y="-511.79" font-family="Times,serif" font-size="14.00">!b</text>
</g>
<!-- 5 -->
<g id="node13" class="node">
<title>5</title>
<ellipse fill="none" stroke="black" cx="77" cy="-471.99" rx="18" ry="18"/>
<text text-anchor="middle" x="77" y="-468.29" font-family="Times,serif" font-size="14.00">5</text>
</g>
<!-- 4&#45;&gt;5 -->
<g id="edge13" class="edge">
<title>4&#45;&gt;5</title>
<path fill="none" stroke="black" d="M62.81,-543.71C56.98,-533.8 51.47,-520.23 55,-507.99 56.29,-503.53 58.33,-499.08 60.66,-494.93"/>
<polygon fill="black" stroke="black" points="63.66,-496.74 66.06,-486.42 57.75,-492.99 63.66,-496.74"/>
<text text-anchor="middle" x="62.5" y="-511.79" font-family="Times,serif" font-size="14.00">!a</text>
</g>
<!-- 7 -->
<g id="node8" class="node">
<title>7</title>
<ellipse fill="none" stroke="black" cx="35" cy="-384.99" rx="18" ry="18"/>
<text text-anchor="middle" x="35" y="-381.29" font-family="Times,serif" font-size="14.00">7</text>
</g>
<!-- 6&#45;&gt;7 -->
<g id="edge7" class="edge">
<title>6&#45;&gt;7</title>
<path fill="none" stroke="black" d="M21.36,-454.2C23.71,-442.44 26.9,-426.48 29.61,-412.95"/>
<polygon fill="black" stroke="black" points="33.12,-413.24 31.65,-402.75 26.26,-411.87 33.12,-413.24"/>
<text text-anchor="middle" x="38" y="-424.79" font-family="Times,serif" font-size="14.00">?w</text>
</g>
<!-- 8 -->
<g id="node9" class="node">
<title>8</title>
<ellipse fill="none" stroke="black" cx="65" cy="-297.99" rx="18" ry="18"/>
<text text-anchor="middle" x="65" y="-294.29" font-family="Times,serif" font-size="14.00">8</text>
</g>
<!-- 7&#45;&gt;8 -->
<g id="edge8" class="edge">
<title>7&#45;&gt;8</title>
<path fill="none" stroke="black" d="M40.78,-367.6C45.06,-355.49 50.96,-338.76 55.87,-324.85"/>
<polygon fill="black" stroke="black" points="59.21,-325.93 59.23,-315.33 52.6,-323.6 59.21,-325.93"/>
<text text-anchor="middle" x="60.5" y="-337.79" font-family="Times,serif" font-size="14.00">?u</text>
</g>
<!-- 9 -->
<g id="node10" class="node">
<title>9</title>
<ellipse fill="none" stroke="black" cx="66" cy="-210.99" rx="18" ry="18"/>
<text text-anchor="middle" x="66" y="-207.29" font-family="Times,serif" font-size="14.00">9</text>
</g>
<!-- 8&#45;&gt;9 -->
<g id="edge9" class="edge">
<title>8&#45;&gt;9</title>
<path fill="none" stroke="black" d="M65.2,-279.79C65.34,-268.15 65.52,-252.54 65.68,-239.23"/>
<polygon fill="black" stroke="black" points="69.18,-239.21 65.8,-229.17 62.18,-239.13 69.18,-239.21"/>
<text text-anchor="middle" x="75" y="-250.79" font-family="Times,serif" font-size="14.00">?w</text>
</g>
<!-- 10 -->
<g id="node11" class="node">
<title>10</title>
<ellipse fill="none" stroke="black" cx="71" cy="-119.24" rx="23" ry="23"/>
<text text-anchor="middle" x="71" y="-115.54" font-family="Times,serif" font-size="14.00">10</text>
</g>
<!-- 9&#45;&gt;10 -->
<g id="edge10" class="edge">
<title>9&#45;&gt;10</title>
<path fill="none" stroke="black" d="M66.96,-192.69C67.6,-181.24 68.46,-165.89 69.22,-152.26"/>
<polygon fill="black" stroke="black" points="72.71,-152.45 69.77,-142.27 65.72,-152.06 72.71,-152.45"/>
<text text-anchor="middle" x="76.5" y="-163.79" font-family="Times,serif" font-size="14.00">?u</text>
</g>
<!-- 11 -->
<g id="node12" class="node">
<title>11</title>
<ellipse fill="none" stroke="black" cx="98" cy="-22.75" rx="23" ry="23"/>
<text text-anchor="middle" x="98" y="-19.05" font-family="Times,serif" font-size="14.00">11</text>
</g>
<!-- 10&#45;&gt;11 -->
<g id="edge11" class="edge">
<title>10&#45;&gt;11</title>
<path fill="none" stroke="black" d="M76.99,-97.27C80.57,-84.76 85.17,-68.64 89.16,-54.68"/>
<polygon fill="black" stroke="black" points="92.55,-55.56 91.93,-44.99 85.82,-53.64 92.55,-55.56"/>
<text text-anchor="middle" x="96" y="-67.3" font-family="Times,serif" font-size="14.00">?w</text>
</g>
<!-- 11&#45;&gt;4 -->
<g id="edge12" class="edge">
<title>11&#45;&gt;4</title>
<path fill="none" stroke="black" d="M107.29,-43.92C115.1,-62.73 125,-91.8 125,-118.24 125,-472.99 125,-472.99 125,-472.99 125,-498.33 107.98,-522.5 93.41,-538.54"/>
<polygon fill="black" stroke="black" points="90.51,-536.51 86.12,-546.15 95.57,-541.35 90.51,-536.51"/>
<text text-anchor="middle" x="133.5" y="-294.29" font-family="Times,serif" font-size="14.00">?u</text>
</g>
<!-- 5&#45;&gt;4 -->
<g id="edge14" class="edge">
<title>5&#45;&gt;4</title>
<path fill="none" stroke="black" d="M76.19,-490.17C75.64,-501.8 74.91,-517.41 74.28,-530.73"/>
<polygon fill="black" stroke="black" points="70.78,-530.64 73.81,-540.79 77.78,-530.97 70.78,-530.64"/>
<text text-anchor="middle" x="84" y="-511.79" font-family="Times,serif" font-size="14.00">?Z</text>
</g>
</g>
</svg>
