<?xml version="1.0" encoding="UTF-8" standalone="no"?>
<!DOCTYPE svg PUBLIC "-//W3C//DTD SVG 1.1//EN"
 "http://www.w3.org/Graphics/SVG/1.1/DTD/svg11.dtd">
<!-- Generated by graphviz version 2.43.0 (0)
 -->
<!-- Title: %3 Pages: 1 -->
<svg width="252pt" height="489pt"
 viewBox="0.00 0.00 252.09 488.57" xmlns="http://www.w3.org/2000/svg" xmlns:xlink="http://www.w3.org/1999/xlink">
<g id="graph0" class="graph" transform="scale(1 1) rotate(0) translate(4 484.57)">
<title>%3</title>
<polygon fill="white" stroke="transparent" points="-4,4 -4,-484.57 248.09,-484.57 248.09,4 -4,4"/>
<!-- ENTRY -->
<g id="node1" class="node">
<title>ENTRY</title>
<ellipse fill="black" stroke="black" cx="121.54" cy="-478.77" rx="1.8" ry="1.8"/>
</g>
<!-- 0 -->
<g id="node6" class="node">
<title>0</title>
<ellipse fill="none" stroke="black" cx="121.54" cy="-383.43" rx="56.59" ry="56.59"/>
<text text-anchor="middle" x="121.54" y="-379.73" font-family="Times,serif" font-size="14.00">0 &lt; Eps.0</text>
</g>
<!-- ENTRY&#45;&gt;0 -->
<g id="edge1" class="edge">
<title>ENTRY&#45;&gt;0</title>
<path fill="none" stroke="black" d="M121.54,-476.72C121.54,-473.47 121.54,-462.97 121.54,-450.17"/>
<polygon fill="black" stroke="black" points="125.05,-450 121.54,-440 118.05,-450 125.05,-450"/>
</g>
<!-- 1 -->
<g id="node2" class="node">
<title>1</title>
<ellipse fill="none" stroke="black" cx="57.54" cy="-219.99" rx="55.79" ry="55.79"/>
<text text-anchor="middle" x="57.54" y="-216.29" font-family="Times,serif" font-size="14.00">1 &lt; {a}.2</text>
</g>
<!-- 2 -->
<g id="node4" class="node">
<title>2</title>
<ellipse fill="none" stroke="red" cx="56.54" cy="-56.54" rx="56.59" ry="56.59"/>
<text text-anchor="middle" x="56.54" y="-52.84" font-family="Times,serif" font-size="14.00">2 &lt; Eps.2</text>
</g>
<!-- 1&#45;&gt;2 -->
<g id="edge4" class="edge">
<title>1&#45;&gt;2</title>
<path fill="none" stroke="black" d="M57.2,-163.88C57.12,-150.85 57.04,-136.83 56.95,-123.38"/>
<polygon fill="black" stroke="black" points="60.45,-123.2 56.89,-113.23 53.45,-123.25 60.45,-123.2"/>
<text text-anchor="middle" x="65.54" y="-134.89" font-family="Times,serif" font-size="14.00">?a</text>
</g>
<!-- 3 -->
<g id="node3" class="node">
<title>3</title>
<ellipse fill="none" stroke="black" cx="187.54" cy="-219.99" rx="55.79" ry="55.79"/>
<text text-anchor="middle" x="187.54" y="-216.29" font-family="Times,serif" font-size="14.00">3 &lt; {a}.3</text>
</g>
<!-- 4 -->
<g id="node5" class="node">
<title>4</title>
<ellipse fill="none" stroke="red" cx="187.54" cy="-56.54" rx="56.59" ry="56.59"/>
<text text-anchor="middle" x="187.54" y="-52.84" font-family="Times,serif" font-size="14.00">4 &lt; Eps.3</text>
</g>
<!-- 3&#45;&gt;4 -->
<g id="edge3" class="edge">
<title>3&#45;&gt;4</title>
<path fill="none" stroke="black" d="M187.54,-163.88C187.54,-150.85 187.54,-136.83 187.54,-123.38"/>
<polygon fill="black" stroke="black" points="191.05,-123.23 187.54,-113.23 184.05,-123.23 191.05,-123.23"/>
<text text-anchor="middle" x="195.54" y="-134.89" font-family="Times,serif" font-size="14.00">?a</text>
</g>
<!-- 0&#45;&gt;1 -->
<g id="edge2" class="edge">
<title>0&#45;&gt;1</title>
<path fill="none" stroke="black" d="M100.94,-330.46C94.77,-314.89 87.95,-297.69 81.58,-281.61"/>
<polygon fill="black" stroke="black" points="84.83,-280.31 77.89,-272.3 78.32,-282.89 84.83,-280.31"/>
<text text-anchor="middle" x="99.54" y="-297.68" font-family="Times,serif" font-size="14.00">!b</text>
</g>
<!-- 0&#45;&gt;3 -->
<g id="edge5" class="edge">
<title>0&#45;&gt;3</title>
<path fill="none" stroke="black" d="M142.61,-330.9C149.04,-315.16 156.18,-297.72 162.83,-281.44"/>
<polygon fill="black" stroke="black" points="166.14,-282.6 166.68,-272.02 159.66,-279.95 166.14,-282.6"/>
<text text-anchor="middle" x="163.54" y="-297.68" font-family="Times,serif" font-size="14.00">!c</text>
</g>
</g>
</svg>
