<?xml version="1.0" encoding="UTF-8" standalone="no"?>
<!DOCTYPE svg PUBLIC "-//W3C//DTD SVG 1.1//EN"
 "http://www.w3.org/Graphics/SVG/1.1/DTD/svg11.dtd">
<!-- Generated by graphviz version 2.43.0 (0)
 -->
<!-- Title: %3 Pages: 1 -->
<svg width="170pt" height="259pt"
 viewBox="0.00 0.00 170.00 258.60" xmlns="http://www.w3.org/2000/svg" xmlns:xlink="http://www.w3.org/1999/xlink">
<g id="graph0" class="graph" transform="scale(1 1) rotate(0) translate(4 254.6)">
<title>%3</title>
<polygon fill="white" stroke="transparent" points="-4,4 -4,-254.6 166,-254.6 166,4 -4,4"/>
<!-- ENTRY -->
<g id="node1" class="node">
<title>ENTRY</title>
<ellipse fill="black" stroke="black" cx="67" cy="-248.8" rx="1.8" ry="1.8"/>
</g>
<!-- 0 -->
<g id="node2" class="node">
<title>0</title>
<ellipse fill="none" stroke="black" cx="67" cy="-192" rx="18" ry="18"/>
<text text-anchor="middle" x="67" y="-188.3" font-family="Times,serif" font-size="14.00">0</text>
</g>
<!-- ENTRY&#45;&gt;0 -->
<g id="edge1" class="edge">
<title>ENTRY&#45;&gt;0</title>
<path fill="none" stroke="black" d="M67,-246.85C67,-243.49 67,-231.73 67,-220.05"/>
<polygon fill="black" stroke="black" points="70.5,-220.02 67,-210.02 63.5,-220.02 70.5,-220.02"/>
</g>
<!-- 3 -->
<g id="node3" class="node">
<title>3</title>
<ellipse fill="none" stroke="black" cx="41" cy="-105" rx="18" ry="18"/>
<text text-anchor="middle" x="41" y="-101.3" font-family="Times,serif" font-size="14.00">3</text>
</g>
<!-- 0&#45;&gt;3 -->
<g id="edge2" class="edge">
<title>0&#45;&gt;3</title>
<path fill="none" stroke="black" d="M60.7,-175.09C58.45,-169.14 55.99,-162.31 54,-156 51.63,-148.47 49.35,-140.21 47.39,-132.61"/>
<polygon fill="black" stroke="black" points="50.75,-131.63 44.91,-122.79 43.96,-133.34 50.75,-131.63"/>
<text text-anchor="middle" x="61" y="-144.8" font-family="Times,serif" font-size="14.00">!c</text>
</g>
<!-- 1 -->
<g id="node5" class="node">
<title>1</title>
<ellipse fill="none" stroke="black" cx="104" cy="-105" rx="18" ry="18"/>
<text text-anchor="middle" x="104" y="-101.3" font-family="Times,serif" font-size="14.00">1</text>
</g>
<!-- 0&#45;&gt;1 -->
<g id="edge5" class="edge">
<title>0&#45;&gt;1</title>
<path fill="none" stroke="black" d="M73.96,-175.01C79.33,-162.66 86.87,-145.35 93.05,-131.15"/>
<polygon fill="black" stroke="black" points="96.29,-132.48 97.07,-121.92 89.87,-129.69 96.29,-132.48"/>
<text text-anchor="middle" x="95" y="-144.8" font-family="Times,serif" font-size="14.00">!b</text>
</g>
<!-- 4 -->
<g id="node4" class="node">
<title>4</title>
<ellipse fill="none" stroke="black" cx="18" cy="-18" rx="18" ry="18"/>
<text text-anchor="middle" x="18" y="-14.3" font-family="Times,serif" font-size="14.00">4</text>
</g>
<!-- 3&#45;&gt;4 -->
<g id="edge3" class="edge">
<title>3&#45;&gt;4</title>
<path fill="none" stroke="black" d="M36.46,-87.21C33.22,-75.25 28.81,-58.96 25.11,-45.29"/>
<polygon fill="black" stroke="black" points="28.45,-44.21 22.46,-35.47 21.69,-46.04 28.45,-44.21"/>
<text text-anchor="middle" x="39" y="-57.8" font-family="Times,serif" font-size="14.00">?a</text>
</g>
<!-- 4&#45;&gt;4 -->
<g id="edge4" class="edge">
<title>4&#45;&gt;4</title>
<path fill="none" stroke="black" d="M34.66,-25.38C44.62,-27.02 54,-24.56 54,-18 54,-13.8 50.15,-11.28 44.77,-10.44"/>
<polygon fill="black" stroke="black" points="44.6,-6.94 34.66,-10.62 44.72,-13.94 44.6,-6.94"/>
<text text-anchor="middle" x="63.5" y="-14.3" font-family="Times,serif" font-size="14.00">!w</text>
</g>
<!-- 2 -->
<g id="node6" class="node">
<title>2</title>
<ellipse fill="none" stroke="black" cx="109" cy="-18" rx="18" ry="18"/>
<text text-anchor="middle" x="109" y="-14.3" font-family="Times,serif" font-size="14.00">2</text>
</g>
<!-- 1&#45;&gt;2 -->
<g id="edge6" class="edge">
<title>1&#45;&gt;2</title>
<path fill="none" stroke="black" d="M105.01,-86.8C105.7,-75.16 106.61,-59.55 107.4,-46.24"/>
<polygon fill="black" stroke="black" points="110.9,-46.36 107.99,-36.18 103.91,-45.95 110.9,-46.36"/>
<text text-anchor="middle" x="114" y="-57.8" font-family="Times,serif" font-size="14.00">?a</text>
</g>
<!-- 2&#45;&gt;2 -->
<g id="edge7" class="edge">
<title>2&#45;&gt;2</title>
<path fill="none" stroke="black" d="M125.66,-25.38C135.62,-27.02 145,-24.56 145,-18 145,-13.8 141.15,-11.28 135.77,-10.44"/>
<polygon fill="black" stroke="black" points="135.6,-6.94 125.66,-10.62 135.72,-13.94 135.6,-6.94"/>
<text text-anchor="middle" x="153.5" y="-14.3" font-family="Times,serif" font-size="14.00">?u</text>
</g>
</g>
</svg>
