<?xml version="1.0" encoding="UTF-8" standalone="no"?>
<!DOCTYPE svg PUBLIC "-//W3C//DTD SVG 1.1//EN"
 "http://www.w3.org/Graphics/SVG/1.1/DTD/svg11.dtd">
<!-- Generated by graphviz version 2.43.0 (0)
 -->
<!-- Title: %3 Pages: 1 -->
<svg width="170pt" height="259pt"
 viewBox="0.00 0.00 170.00 258.60" xmlns="http://www.w3.org/2000/svg" xmlns:xlink="http://www.w3.org/1999/xlink">
<g id="graph0" class="graph" transform="scale(1 1) rotate(0) translate(4 254.6)">
<title>%3</title>
<polygon fill="white" stroke="transparent" points="-4,4 -4,-254.6 166,-254.6 166,4 -4,4"/>
<!-- ENTRY -->
<g id="node1" class="node">
<title>ENTRY</title>
<ellipse fill="black" stroke="black" cx="62" cy="-248.8" rx="1.8" ry="1.8"/>
</g>
<!-- 0 -->
<g id="node2" class="node">
<title>0</title>
<ellipse fill="none" stroke="black" cx="62" cy="-192" rx="18" ry="18"/>
<text text-anchor="middle" x="62" y="-188.3" font-family="Times,serif" font-size="14.00">0</text>
</g>
<!-- ENTRY&#45;&gt;0 -->
<g id="edge1" class="edge">
<title>ENTRY&#45;&gt;0</title>
<path fill="none" stroke="black" d="M62,-246.85C62,-243.49 62,-231.73 62,-220.05"/>
<polygon fill="black" stroke="black" points="65.5,-220.02 62,-210.02 58.5,-220.02 65.5,-220.02"/>
</g>
<!-- 1 -->
<g id="node3" class="node">
<title>1</title>
<ellipse fill="none" stroke="black" cx="62" cy="-105" rx="18" ry="18"/>
<text text-anchor="middle" x="62" y="-101.3" font-family="Times,serif" font-size="14.00">1</text>
</g>
<!-- 0&#45;&gt;1 -->
<g id="edge2" class="edge">
<title>0&#45;&gt;1</title>
<path fill="none" stroke="black" d="M62,-173.8C62,-162.16 62,-146.55 62,-133.24"/>
<polygon fill="black" stroke="black" points="65.5,-133.18 62,-123.18 58.5,-133.18 65.5,-133.18"/>
<text text-anchor="middle" x="70" y="-144.8" font-family="Times,serif" font-size="14.00">?a</text>
</g>
<!-- 3 -->
<g id="node4" class="node">
<title>3</title>
<ellipse fill="none" stroke="black" cx="18" cy="-18" rx="18" ry="18"/>
<text text-anchor="middle" x="18" y="-14.3" font-family="Times,serif" font-size="14.00">3</text>
</g>
<!-- 1&#45;&gt;3 -->
<g id="edge3" class="edge">
<title>1&#45;&gt;3</title>
<path fill="none" stroke="black" d="M54.13,-88.8C47.6,-76.19 38.2,-58.01 30.61,-43.37"/>
<polygon fill="black" stroke="black" points="33.65,-41.62 25.95,-34.35 27.44,-44.84 33.65,-41.62"/>
<text text-anchor="middle" x="50" y="-57.8" font-family="Times,serif" font-size="14.00">!c</text>
</g>
<!-- 2 -->
<g id="node5" class="node">
<title>2</title>
<ellipse fill="none" stroke="black" cx="106" cy="-18" rx="18" ry="18"/>
<text text-anchor="middle" x="106" y="-14.3" font-family="Times,serif" font-size="14.00">2</text>
</g>
<!-- 1&#45;&gt;2 -->
<g id="edge5" class="edge">
<title>1&#45;&gt;2</title>
<path fill="none" stroke="black" d="M69.87,-88.8C76.4,-76.19 85.8,-58.01 93.39,-43.37"/>
<polygon fill="black" stroke="black" points="96.56,-44.84 98.05,-34.35 90.35,-41.62 96.56,-44.84"/>
<text text-anchor="middle" x="94" y="-57.8" font-family="Times,serif" font-size="14.00">!b</text>
</g>
<!-- 3&#45;&gt;3 -->
<g id="edge4" class="edge">
<title>3&#45;&gt;3</title>
<path fill="none" stroke="black" d="M34.66,-25.38C44.62,-27.02 54,-24.56 54,-18 54,-13.8 50.15,-11.28 44.77,-10.44"/>
<polygon fill="black" stroke="black" points="44.6,-6.94 34.66,-10.62 44.72,-13.94 44.6,-6.94"/>
<text text-anchor="middle" x="62" y="-14.3" font-family="Times,serif" font-size="14.00">!u</text>
</g>
<!-- 2&#45;&gt;2 -->
<g id="edge6" class="edge">
<title>2&#45;&gt;2</title>
<path fill="none" stroke="black" d="M122.66,-25.38C132.62,-27.02 142,-24.56 142,-18 142,-13.8 138.15,-11.28 132.77,-10.44"/>
<polygon fill="black" stroke="black" points="132.6,-6.94 122.66,-10.62 132.72,-13.94 132.6,-6.94"/>
<text text-anchor="middle" x="152" y="-14.3" font-family="Times,serif" font-size="14.00">?w</text>
</g>
</g>
</svg>
