<?xml version="1.0" encoding="UTF-8" standalone="no"?>
<!DOCTYPE svg PUBLIC "-//W3C//DTD SVG 1.1//EN"
 "http://www.w3.org/Graphics/SVG/1.1/DTD/svg11.dtd">
<!-- Generated by graphviz version 2.43.0 (0)
 -->
<!-- Title: %3 Pages: 1 -->
<svg width="656pt" height="959pt"
 viewBox="0.00 0.00 656.22 959.08" xmlns="http://www.w3.org/2000/svg" xmlns:xlink="http://www.w3.org/1999/xlink">
<g id="graph0" class="graph" transform="scale(1 1) rotate(0) translate(4 955.08)">
<title>%3</title>
<polygon fill="white" stroke="transparent" points="-4,4 -4,-955.08 652.22,-955.08 652.22,4 -4,4"/>
<!-- ENTRY -->
<g id="node1" class="node">
<title>ENTRY</title>
<ellipse fill="black" stroke="black" cx="346.02" cy="-949.28" rx="1.8" ry="1.8"/>
</g>
<!-- 0 -->
<g id="node3" class="node">
<title>0</title>
<ellipse fill="none" stroke="black" cx="346.02" cy="-749.97" rx="160.53" ry="160.53"/>
<text text-anchor="middle" x="346.02" y="-753.77" font-family="Times,serif" font-size="14.00">0 &lt; ({b})*.{a}.({b,a})*.{a}.2</text>
<text text-anchor="middle" x="346.02" y="-738.77" font-family="Times,serif" font-size="14.00">Eps.0</text>
</g>
<!-- ENTRY&#45;&gt;0 -->
<g id="edge1" class="edge">
<title>ENTRY&#45;&gt;0</title>
<path fill="none" stroke="black" d="M346.02,-947.4C346.02,-944.51 346.02,-934.69 346.02,-920.87"/>
<polygon fill="black" stroke="black" points="349.52,-920.71 346.02,-910.71 342.52,-920.71 349.52,-920.71"/>
</g>
<!-- 1 -->
<g id="node2" class="node">
<title>1</title>
<ellipse fill="none" stroke="black" cx="471.02" cy="-390.92" rx="83.38" ry="83.38"/>
<text text-anchor="middle" x="471.02" y="-394.72" font-family="Times,serif" font-size="14.00">1 &lt; Eps.1</text>
<text text-anchor="middle" x="471.02" y="-379.72" font-family="Times,serif" font-size="14.00">({b,a})*.{a}.2</text>
</g>
<!-- 2 -->
<g id="node4" class="node">
<title>2</title>
<ellipse fill="none" stroke="black" cx="174.02" cy="-96.19" rx="83.38" ry="83.38"/>
<text text-anchor="middle" x="174.02" y="-99.99" font-family="Times,serif" font-size="14.00">2 &lt; Eps.2</text>
<text text-anchor="middle" x="174.02" y="-84.99" font-family="Times,serif" font-size="14.00">({b,a})*.{a}.2</text>
</g>
<!-- 1&#45;&gt;2 -->
<g id="edge2" class="edge">
<title>1&#45;&gt;2</title>
<path fill="none" stroke="black" d="M432.68,-316.59C417.8,-291.84 399.42,-265.02 379.02,-243.38 342.77,-204.93 295.04,-170.19 254.75,-144.23"/>
<polygon fill="black" stroke="black" points="256.59,-141.26 246.28,-138.83 252.83,-147.16 256.59,-141.26"/>
<text text-anchor="middle" x="367.02" y="-214.18" font-family="Times,serif" font-size="14.00">?a</text>
</g>
<!-- 3 -->
<g id="node6" class="node">
<title>3</title>
<ellipse fill="none" stroke="black" cx="552.02" cy="-96.19" rx="96.38" ry="96.38"/>
<text text-anchor="middle" x="552.02" y="-92.49" font-family="Times,serif" font-size="14.00">3 &lt; ({b,a})*.{a}.2</text>
</g>
<!-- 1&#45;&gt;3 -->
<g id="edge3" class="edge">
<title>1&#45;&gt;3</title>
<path fill="none" stroke="black" d="M493.05,-310.32C502.55,-275.97 513.79,-235.38 523.88,-198.89"/>
<polygon fill="black" stroke="black" points="527.27,-199.78 526.56,-189.21 520.52,-197.92 527.27,-199.78"/>
<text text-anchor="middle" x="526.52" y="-214.18" font-family="Times,serif" font-size="14.00">?b</text>
</g>
<!-- 0&#45;&gt;1 -->
<g id="edge4" class="edge">
<title>0&#45;&gt;1</title>
<path fill="none" stroke="black" d="M398.76,-598.32C412.96,-557.76 427.85,-515.23 440.4,-479.39"/>
<polygon fill="black" stroke="black" points="443.71,-480.54 443.71,-469.95 437.1,-478.23 443.71,-480.54"/>
<text text-anchor="middle" x="420.02" y="-560.26" font-family="Times,serif" font-size="14.00">?a</text>
</g>
<!-- 4 -->
<g id="node5" class="node">
<title>4</title>
<ellipse fill="none" stroke="red" cx="222.02" cy="-390.92" rx="147.57" ry="147.57"/>
<text text-anchor="middle" x="222.02" y="-387.22" font-family="Times,serif" font-size="14.00">4 &lt; ({b})*.{a}.({b,a})*.{a}.2</text>
</g>
<!-- 0&#45;&gt;4 -->
<g id="edge7" class="edge">
<title>0&#45;&gt;4</title>
<path fill="none" stroke="black" d="M293.62,-598.07C286.97,-578.93 280.18,-559.37 273.55,-540.28"/>
<polygon fill="black" stroke="black" points="276.79,-538.95 270.2,-530.65 270.18,-541.24 276.79,-538.95"/>
<text text-anchor="middle" x="292.52" y="-560.26" font-family="Times,serif" font-size="14.00">?b</text>
</g>
<!-- 2&#45;&gt;0 -->
<g id="edge6" class="edge">
<title>2&#45;&gt;0</title>
<path fill="none" stroke="black" d="M109.33,-148.89C82.81,-174.21 55.07,-207.06 41.02,-243.38 -6.29,-365.69 -19.92,-422.34 41.02,-538.46 73.23,-599.82 132.34,-646.82 190,-680.67"/>
<polygon fill="black" stroke="black" points="188.46,-683.82 198.87,-685.78 191.95,-677.76 188.46,-683.82"/>
<text text-anchor="middle" x="53.02" y="-387.22" font-family="Times,serif" font-size="14.00">!x1</text>
</g>
<!-- 3&#45;&gt;0 -->
<g id="edge5" class="edge">
<title>3&#45;&gt;0</title>
<path fill="none" stroke="black" d="M575.75,-189.61C594.61,-281.85 610.73,-425.71 563.02,-538.46 545.53,-579.8 515.5,-617.02 483.27,-648.25"/>
<polygon fill="black" stroke="black" points="480.76,-645.81 475.92,-655.23 485.58,-650.88 480.76,-645.81"/>
<text text-anchor="middle" x="606.02" y="-387.22" font-family="Times,serif" font-size="14.00">!x3</text>
</g>
</g>
</svg>
