<?xml version="1.0" encoding="UTF-8" standalone="no"?>
<!DOCTYPE svg PUBLIC "-//W3C//DTD SVG 1.1//EN"
 "http://www.w3.org/Graphics/SVG/1.1/DTD/svg11.dtd">
<!-- Generated by graphviz version 2.43.0 (0)
 -->
<!-- Title: %3 Pages: 1 -->
<svg width="261pt" height="259pt"
 viewBox="0.00 0.00 261.00 258.60" xmlns="http://www.w3.org/2000/svg" xmlns:xlink="http://www.w3.org/1999/xlink">
<g id="graph0" class="graph" transform="scale(1 1) rotate(0) translate(4 254.6)">
<title>%3</title>
<polygon fill="white" stroke="transparent" points="-4,4 -4,-254.6 257,-254.6 257,4 -4,4"/>
<!-- ENTRY -->
<g id="node1" class="node">
<title>ENTRY</title>
<ellipse fill="black" stroke="black" cx="132" cy="-248.8" rx="1.8" ry="1.8"/>
</g>
<!-- 0 -->
<g id="node2" class="node">
<title>0</title>
<ellipse fill="none" stroke="black" cx="132" cy="-192" rx="18" ry="18"/>
<text text-anchor="middle" x="132" y="-188.3" font-family="Times,serif" font-size="14.00">0</text>
</g>
<!-- ENTRY&#45;&gt;0 -->
<g id="edge1" class="edge">
<title>ENTRY&#45;&gt;0</title>
<path fill="none" stroke="black" d="M132,-246.85C132,-243.49 132,-231.73 132,-220.05"/>
<polygon fill="black" stroke="black" points="135.5,-220.02 132,-210.02 128.5,-220.02 135.5,-220.02"/>
</g>
<!-- 4 -->
<g id="node3" class="node">
<title>4</title>
<ellipse fill="none" stroke="black" cx="18" cy="-105" rx="18" ry="18"/>
<text text-anchor="middle" x="18" y="-101.3" font-family="Times,serif" font-size="14.00">4</text>
</g>
<!-- 0&#45;&gt;4 -->
<g id="edge2" class="edge">
<title>0&#45;&gt;4</title>
<path fill="none" stroke="black" d="M114.13,-188.26C94.06,-184.34 61.62,-175.34 41,-156 34.19,-149.61 29.22,-140.81 25.69,-132.37"/>
<polygon fill="black" stroke="black" points="28.91,-130.98 22.18,-122.8 22.34,-133.39 28.91,-130.98"/>
<text text-anchor="middle" x="49.5" y="-144.8" font-family="Times,serif" font-size="14.00">?b</text>
</g>
<!-- 1 -->
<g id="node5" class="node">
<title>1</title>
<ellipse fill="none" stroke="black" cx="192" cy="-105" rx="18" ry="18"/>
<text text-anchor="middle" x="192" y="-101.3" font-family="Times,serif" font-size="14.00">1</text>
</g>
<!-- 0&#45;&gt;1 -->
<g id="edge5" class="edge">
<title>0&#45;&gt;1</title>
<path fill="none" stroke="black" d="M141.91,-176.96C151.2,-163.8 165.25,-143.89 176.11,-128.51"/>
<polygon fill="black" stroke="black" points="179.17,-130.24 182.08,-120.06 173.45,-126.21 179.17,-130.24"/>
<text text-anchor="middle" x="173" y="-144.8" font-family="Times,serif" font-size="14.00">?a</text>
</g>
<!-- 5 -->
<g id="node4" class="node">
<title>5</title>
<ellipse fill="none" stroke="black" cx="51" cy="-18" rx="18" ry="18"/>
<text text-anchor="middle" x="51" y="-14.3" font-family="Times,serif" font-size="14.00">5</text>
</g>
<!-- 4&#45;&gt;5 -->
<g id="edge3" class="edge">
<title>4&#45;&gt;5</title>
<path fill="none" stroke="black" d="M24.21,-88.01C28.95,-75.78 35.6,-58.68 41.08,-44.56"/>
<polygon fill="black" stroke="black" points="44.46,-45.51 44.82,-34.92 37.94,-42.97 44.46,-45.51"/>
<text text-anchor="middle" x="45" y="-57.8" font-family="Times,serif" font-size="14.00">?a</text>
</g>
<!-- 5&#45;&gt;0 -->
<g id="edge4" class="edge">
<title>5&#45;&gt;0</title>
<path fill="none" stroke="black" d="M58.49,-34.91C72.64,-64.95 103.4,-130.26 120.3,-166.15"/>
<polygon fill="black" stroke="black" points="117.24,-167.88 124.67,-175.43 123.57,-164.89 117.24,-167.88"/>
<text text-anchor="middle" x="112" y="-101.3" font-family="Times,serif" font-size="14.00">!x2</text>
</g>
<!-- 3 -->
<g id="node6" class="node">
<title>3</title>
<ellipse fill="none" stroke="black" cx="160" cy="-18" rx="18" ry="18"/>
<text text-anchor="middle" x="160" y="-14.3" font-family="Times,serif" font-size="14.00">3</text>
</g>
<!-- 1&#45;&gt;3 -->
<g id="edge6" class="edge">
<title>1&#45;&gt;3</title>
<path fill="none" stroke="black" d="M185.98,-88.01C181.41,-75.86 175.02,-58.9 169.72,-44.83"/>
<polygon fill="black" stroke="black" points="172.9,-43.33 166.1,-35.21 166.35,-45.8 172.9,-43.33"/>
<text text-anchor="middle" x="185.5" y="-57.8" font-family="Times,serif" font-size="14.00">?b</text>
</g>
<!-- 2 -->
<g id="node7" class="node">
<title>2</title>
<ellipse fill="none" stroke="black" cx="223" cy="-18" rx="18" ry="18"/>
<text text-anchor="middle" x="223" y="-14.3" font-family="Times,serif" font-size="14.00">2</text>
</g>
<!-- 1&#45;&gt;2 -->
<g id="edge8" class="edge">
<title>1&#45;&gt;2</title>
<path fill="none" stroke="black" d="M197.98,-87.61C202.42,-75.42 208.57,-58.55 213.67,-44.59"/>
<polygon fill="black" stroke="black" points="217.01,-45.64 217.15,-35.05 210.43,-43.25 217.01,-45.64"/>
<text text-anchor="middle" x="217" y="-57.8" font-family="Times,serif" font-size="14.00">?a</text>
</g>
<!-- 3&#45;&gt;0 -->
<g id="edge7" class="edge">
<title>3&#45;&gt;0</title>
<path fill="none" stroke="black" d="M154.52,-35.29C150.16,-48.94 144.26,-69.03 141,-87 136.32,-112.81 134.05,-142.69 132.97,-163.78"/>
<polygon fill="black" stroke="black" points="129.47,-163.79 132.5,-173.94 136.46,-164.11 129.47,-163.79"/>
<text text-anchor="middle" x="153" y="-101.3" font-family="Times,serif" font-size="14.00">!x3</text>
</g>
<!-- 2&#45;&gt;0 -->
<g id="edge9" class="edge">
<title>2&#45;&gt;0</title>
<path fill="none" stroke="black" d="M226.6,-35.64C230.36,-57.2 233.84,-95.28 219,-123 205.4,-148.38 177.81,-167.39 157.33,-178.77"/>
<polygon fill="black" stroke="black" points="155.41,-175.82 148.21,-183.59 158.69,-182 155.41,-175.82"/>
<text text-anchor="middle" x="241" y="-101.3" font-family="Times,serif" font-size="14.00">!x1</text>
</g>
</g>
</svg>
