<?xml version="1.0" encoding="UTF-8" standalone="no"?>
<!DOCTYPE svg PUBLIC "-//W3C//DTD SVG 1.1//EN"
 "http://www.w3.org/Graphics/SVG/1.1/DTD/svg11.dtd">
<!-- Generated by graphviz version 2.43.0 (0)
 -->
<!-- Title: %3 Pages: 1 -->
<svg width="300pt" height="520pt"
 viewBox="0.00 0.00 300.12 519.60" xmlns="http://www.w3.org/2000/svg" xmlns:xlink="http://www.w3.org/1999/xlink">
<g id="graph0" class="graph" transform="scale(1 1) rotate(0) translate(4 515.6)">
<title>%3</title>
<polygon fill="white" stroke="transparent" points="-4,4 -4,-515.6 296.12,-515.6 296.12,4 -4,4"/>
<!-- ENTRY -->
<g id="node1" class="node">
<title>ENTRY</title>
<ellipse fill="black" stroke="black" cx="141.12" cy="-509.8" rx="1.8" ry="1.8"/>
</g>
<!-- 0 -->
<g id="node2" class="node">
<title>0</title>
<ellipse fill="none" stroke="black" cx="141.12" cy="-453" rx="18" ry="18"/>
<text text-anchor="middle" x="141.12" y="-449.3" font-family="Times,serif" font-size="14.00">0</text>
</g>
<!-- ENTRY&#45;&gt;0 -->
<g id="edge1" class="edge">
<title>ENTRY&#45;&gt;0</title>
<path fill="none" stroke="black" d="M141.12,-507.85C141.12,-504.49 141.12,-492.73 141.12,-481.05"/>
<polygon fill="black" stroke="black" points="144.62,-481.02 141.12,-471.02 137.62,-481.02 144.62,-481.02"/>
</g>
<!-- 1 -->
<g id="node3" class="node">
<title>1</title>
<ellipse fill="none" stroke="black" cx="141.12" cy="-366" rx="18" ry="18"/>
<text text-anchor="middle" x="141.12" y="-362.3" font-family="Times,serif" font-size="14.00">1</text>
</g>
<!-- 0&#45;&gt;1 -->
<g id="edge2" class="edge">
<title>0&#45;&gt;1</title>
<path fill="none" stroke="black" d="M141.12,-434.8C141.12,-423.16 141.12,-407.55 141.12,-394.24"/>
<polygon fill="black" stroke="black" points="144.62,-394.18 141.12,-384.18 137.62,-394.18 144.62,-394.18"/>
<text text-anchor="middle" x="149.12" y="-405.8" font-family="Times,serif" font-size="14.00">?a</text>
</g>
<!-- 2 -->
<g id="node4" class="node">
<title>2</title>
<ellipse fill="none" stroke="black" cx="141.12" cy="-279" rx="18" ry="18"/>
<text text-anchor="middle" x="141.12" y="-275.3" font-family="Times,serif" font-size="14.00">2</text>
</g>
<!-- 1&#45;&gt;2 -->
<g id="edge3" class="edge">
<title>1&#45;&gt;2</title>
<path fill="none" stroke="black" d="M141.12,-347.8C141.12,-336.16 141.12,-320.55 141.12,-307.24"/>
<polygon fill="black" stroke="black" points="144.62,-307.18 141.12,-297.18 137.62,-307.18 144.62,-307.18"/>
<text text-anchor="middle" x="149.12" y="-318.8" font-family="Times,serif" font-size="14.00">?a</text>
</g>
<!-- 3 -->
<g id="node5" class="node">
<title>3</title>
<ellipse fill="none" stroke="black" cx="141.12" cy="-192" rx="18" ry="18"/>
<text text-anchor="middle" x="141.12" y="-188.3" font-family="Times,serif" font-size="14.00">3</text>
</g>
<!-- 2&#45;&gt;3 -->
<g id="edge4" class="edge">
<title>2&#45;&gt;3</title>
<path fill="none" stroke="black" d="M141.12,-260.8C141.12,-249.16 141.12,-233.55 141.12,-220.24"/>
<polygon fill="black" stroke="black" points="144.62,-220.18 141.12,-210.18 137.62,-220.18 144.62,-220.18"/>
<text text-anchor="middle" x="149.12" y="-231.8" font-family="Times,serif" font-size="14.00">?a</text>
</g>
<!-- 5 -->
<g id="node6" class="node">
<title>5</title>
<ellipse fill="none" stroke="black" cx="141.12" cy="-105" rx="18" ry="18"/>
<text text-anchor="middle" x="141.12" y="-101.3" font-family="Times,serif" font-size="14.00">5</text>
</g>
<!-- 3&#45;&gt;5 -->
<g id="edge5" class="edge">
<title>3&#45;&gt;5</title>
<path fill="none" stroke="black" d="M141.12,-173.8C141.12,-162.16 141.12,-146.55 141.12,-133.24"/>
<polygon fill="black" stroke="black" points="144.62,-133.18 141.12,-123.18 137.62,-133.18 144.62,-133.18"/>
<text text-anchor="middle" x="149.62" y="-144.8" font-family="Times,serif" font-size="14.00">?b</text>
</g>
<!-- 4 -->
<g id="node8" class="node">
<title>4</title>
<ellipse fill="none" stroke="black" cx="233.12" cy="-105" rx="18" ry="18"/>
<text text-anchor="middle" x="233.12" y="-101.3" font-family="Times,serif" font-size="14.00">4</text>
</g>
<!-- 3&#45;&gt;4 -->
<g id="edge10" class="edge">
<title>3&#45;&gt;4</title>
<path fill="none" stroke="black" d="M151.28,-176.5C159.04,-165.99 170.37,-151.78 182.12,-141 190.3,-133.48 200.21,-126.32 209.1,-120.46"/>
<polygon fill="black" stroke="black" points="211.01,-123.39 217.56,-115.07 207.24,-117.49 211.01,-123.39"/>
<text text-anchor="middle" x="190.12" y="-144.8" font-family="Times,serif" font-size="14.00">?a</text>
</g>
<!-- 6 -->
<g id="node7" class="node">
<title>6</title>
<ellipse fill="none" stroke="black" cx="70.12" cy="-18" rx="18" ry="18"/>
<text text-anchor="middle" x="70.12" y="-14.3" font-family="Times,serif" font-size="14.00">6</text>
</g>
<!-- 5&#45;&gt;6 -->
<g id="edge6" class="edge">
<title>5&#45;&gt;6</title>
<path fill="none" stroke="black" d="M132.47,-88.89C126.28,-78.61 117.42,-64.93 108.12,-54 103.08,-48.08 97.1,-42.16 91.4,-36.92"/>
<polygon fill="black" stroke="black" points="93.7,-34.28 83.9,-30.25 89.04,-39.51 93.7,-34.28"/>
<text text-anchor="middle" x="128.12" y="-57.8" font-family="Times,serif" font-size="14.00">?a</text>
</g>
<!-- 6&#45;&gt;2 -->
<g id="edge7" class="edge">
<title>6&#45;&gt;2</title>
<path fill="none" stroke="black" d="M55.93,-29.71C48.31,-36.07 39.25,-44.7 33.12,-54 32.64,-54.73 -6.24,-114.7 1.12,-156 8.34,-196.56 3.42,-214.44 33.12,-243 54.77,-263.83 88.93,-272.26 113.03,-275.68"/>
<polygon fill="black" stroke="black" points="112.64,-279.15 122.99,-276.89 113.48,-272.21 112.64,-279.15"/>
<text text-anchor="middle" x="13.12" y="-144.8" font-family="Times,serif" font-size="14.00">!x3</text>
</g>
<!-- 6&#45;&gt;2 -->
<g id="edge8" class="edge">
<title>6&#45;&gt;2</title>
<path fill="none" stroke="black" d="M64.03,-35.06C55.11,-60.68 40.35,-112.36 48.12,-156 55.34,-196.56 53.54,-211.52 80.12,-243 89.38,-253.97 103,-262.24 115.02,-267.99"/>
<polygon fill="black" stroke="black" points="113.64,-271.21 124.21,-272.05 116.48,-264.81 113.64,-271.21"/>
<text text-anchor="middle" x="60.12" y="-144.8" font-family="Times,serif" font-size="14.00">!x2</text>
</g>
<!-- 6&#45;&gt;2 -->
<g id="edge9" class="edge">
<title>6&#45;&gt;2</title>
<path fill="none" stroke="black" d="M73.1,-35.83C79.25,-69.39 94.42,-146.81 114.12,-210 118.62,-224.45 124.78,-240.18 130.08,-252.87"/>
<polygon fill="black" stroke="black" points="126.96,-254.48 134.1,-262.31 133.4,-251.73 126.96,-254.48"/>
<text text-anchor="middle" x="111.12" y="-144.8" font-family="Times,serif" font-size="14.00">!x1</text>
</g>
<!-- 4&#45;&gt;2 -->
<g id="edge11" class="edge">
<title>4&#45;&gt;2</title>
<path fill="none" stroke="black" d="M225.3,-121.3C212.26,-146.71 185.14,-199.18 161.12,-243 159.13,-246.62 156.99,-250.44 154.89,-254.16"/>
<polygon fill="black" stroke="black" points="151.72,-252.66 149.8,-263.08 157.79,-256.13 151.72,-252.66"/>
<text text-anchor="middle" x="209.12" y="-188.3" font-family="Times,serif" font-size="14.00">!x1</text>
</g>
<!-- 4&#45;&gt;2 -->
<g id="edge12" class="edge">
<title>4&#45;&gt;2</title>
<path fill="none" stroke="black" d="M235.73,-122.96C238.21,-144.52 239.68,-182.26 225.12,-210 212.09,-234.81 185.67,-253.82 165.92,-265.35"/>
<polygon fill="black" stroke="black" points="164.15,-262.33 157.12,-270.25 167.56,-268.44 164.15,-262.33"/>
<text text-anchor="middle" x="247.12" y="-188.3" font-family="Times,serif" font-size="14.00">!x3</text>
</g>
<!-- 4&#45;&gt;2 -->
<g id="edge13" class="edge">
<title>4&#45;&gt;2</title>
<path fill="none" stroke="black" d="M243.48,-120.06C257.27,-140.62 278.24,-179.75 263.12,-210 245.07,-246.09 198.95,-263.99 168.87,-272.1"/>
<polygon fill="black" stroke="black" points="167.82,-268.76 158.97,-274.58 169.52,-275.55 167.82,-268.76"/>
<text text-anchor="middle" x="280.12" y="-188.3" font-family="Times,serif" font-size="14.00">!x2</text>
</g>
</g>
</svg>
