<?xml version="1.0" encoding="UTF-8" standalone="no"?>
<!DOCTYPE svg PUBLIC "-//W3C//DTD SVG 1.1//EN"
 "http://www.w3.org/Graphics/SVG/1.1/DTD/svg11.dtd">
<!-- Generated by graphviz version 2.43.0 (0)
 -->
<!-- Title: %3 Pages: 1 -->
<svg width="143pt" height="346pt"
 viewBox="0.00 0.00 143.00 345.60" xmlns="http://www.w3.org/2000/svg" xmlns:xlink="http://www.w3.org/1999/xlink">
<g id="graph0" class="graph" transform="scale(1 1) rotate(0) translate(4 341.6)">
<title>%3</title>
<polygon fill="white" stroke="transparent" points="-4,4 -4,-341.6 139,-341.6 139,4 -4,4"/>
<!-- ENTRY -->
<g id="node1" class="node">
<title>ENTRY</title>
<ellipse fill="black" stroke="black" cx="72" cy="-335.8" rx="1.8" ry="1.8"/>
</g>
<!-- 0 -->
<g id="node2" class="node">
<title>0</title>
<ellipse fill="none" stroke="black" cx="72" cy="-279" rx="18" ry="18"/>
<text text-anchor="middle" x="72" y="-275.3" font-family="Times,serif" font-size="14.00">0</text>
</g>
<!-- ENTRY&#45;&gt;0 -->
<g id="edge1" class="edge">
<title>ENTRY&#45;&gt;0</title>
<path fill="none" stroke="black" d="M72,-333.85C72,-330.49 72,-318.73 72,-307.05"/>
<polygon fill="black" stroke="black" points="75.5,-307.02 72,-297.02 68.5,-307.02 75.5,-307.02"/>
</g>
<!-- 3 -->
<g id="node3" class="node">
<title>3</title>
<ellipse fill="none" stroke="black" cx="18" cy="-192" rx="18" ry="18"/>
<text text-anchor="middle" x="18" y="-188.3" font-family="Times,serif" font-size="14.00">3</text>
</g>
<!-- 0&#45;&gt;3 -->
<g id="edge2" class="edge">
<title>0&#45;&gt;3</title>
<path fill="none" stroke="black" d="M62.59,-263.19C54.39,-250.27 42.34,-231.31 32.83,-216.34"/>
<polygon fill="black" stroke="black" points="35.61,-214.2 27.3,-207.64 29.71,-217.95 35.61,-214.2"/>
<text text-anchor="middle" x="57.5" y="-231.8" font-family="Times,serif" font-size="14.00">?b</text>
</g>
<!-- 1 -->
<g id="node6" class="node">
<title>1</title>
<ellipse fill="none" stroke="black" cx="72" cy="-192" rx="18" ry="18"/>
<text text-anchor="middle" x="72" y="-188.3" font-family="Times,serif" font-size="14.00">1</text>
</g>
<!-- 0&#45;&gt;1 -->
<g id="edge6" class="edge">
<title>0&#45;&gt;1</title>
<path fill="none" stroke="black" d="M72,-260.8C72,-249.16 72,-233.55 72,-220.24"/>
<polygon fill="black" stroke="black" points="75.5,-220.18 72,-210.18 68.5,-220.18 75.5,-220.18"/>
<text text-anchor="middle" x="80" y="-231.8" font-family="Times,serif" font-size="14.00">?a</text>
</g>
<!-- 4 -->
<g id="node4" class="node">
<title>4</title>
<ellipse fill="none" stroke="black" cx="18" cy="-105" rx="18" ry="18"/>
<text text-anchor="middle" x="18" y="-101.3" font-family="Times,serif" font-size="14.00">4</text>
</g>
<!-- 3&#45;&gt;4 -->
<g id="edge3" class="edge">
<title>3&#45;&gt;4</title>
<path fill="none" stroke="black" d="M18,-173.8C18,-162.16 18,-146.55 18,-133.24"/>
<polygon fill="black" stroke="black" points="21.5,-133.18 18,-123.18 14.5,-133.18 21.5,-133.18"/>
<text text-anchor="middle" x="25.5" y="-144.8" font-family="Times,serif" font-size="14.00">!y</text>
</g>
<!-- 4&#45;&gt;4 -->
<g id="edge5" class="edge">
<title>4&#45;&gt;4</title>
<path fill="none" stroke="black" d="M34.66,-112.38C44.62,-114.02 54,-111.56 54,-105 54,-100.8 50.15,-98.28 44.77,-97.44"/>
<polygon fill="black" stroke="black" points="44.6,-93.94 34.66,-97.62 44.72,-100.94 44.6,-93.94"/>
<text text-anchor="middle" x="62.5" y="-101.3" font-family="Times,serif" font-size="14.00">?b</text>
</g>
<!-- 5 -->
<g id="node5" class="node">
<title>5</title>
<ellipse fill="none" stroke="black" cx="18" cy="-18" rx="18" ry="18"/>
<text text-anchor="middle" x="18" y="-14.3" font-family="Times,serif" font-size="14.00">5</text>
</g>
<!-- 4&#45;&gt;5 -->
<g id="edge4" class="edge">
<title>4&#45;&gt;5</title>
<path fill="none" stroke="black" d="M18,-86.8C18,-75.16 18,-59.55 18,-46.24"/>
<polygon fill="black" stroke="black" points="21.5,-46.18 18,-36.18 14.5,-46.18 21.5,-46.18"/>
<text text-anchor="middle" x="26" y="-57.8" font-family="Times,serif" font-size="14.00">?e</text>
</g>
<!-- 2 -->
<g id="node7" class="node">
<title>2</title>
<ellipse fill="none" stroke="black" cx="117" cy="-105" rx="18" ry="18"/>
<text text-anchor="middle" x="117" y="-101.3" font-family="Times,serif" font-size="14.00">2</text>
</g>
<!-- 1&#45;&gt;2 -->
<g id="edge7" class="edge">
<title>1&#45;&gt;2</title>
<path fill="none" stroke="black" d="M79.44,-175.57C84.3,-165.63 90.86,-152.47 97,-141 98.95,-137.36 101.07,-133.53 103.17,-129.8"/>
<polygon fill="black" stroke="black" points="106.34,-131.31 108.25,-120.89 100.26,-127.84 106.34,-131.31"/>
<text text-anchor="middle" x="104.5" y="-144.8" font-family="Times,serif" font-size="14.00">!x</text>
</g>
<!-- 2&#45;&gt;0 -->
<g id="edge8" class="edge">
<title>2&#45;&gt;0</title>
<path fill="none" stroke="black" d="M115.99,-123.01C113.96,-149.49 108.1,-201.79 92,-243 90.5,-246.85 88.62,-250.79 86.63,-254.56"/>
<polygon fill="black" stroke="black" points="83.45,-253.07 81.57,-263.49 89.54,-256.52 83.45,-253.07"/>
<text text-anchor="middle" x="116.5" y="-188.3" font-family="Times,serif" font-size="14.00">!x</text>
</g>
</g>
</svg>
