<?xml version="1.0" encoding="UTF-8" standalone="no"?>
<!DOCTYPE svg PUBLIC "-//W3C//DTD SVG 1.1//EN"
 "http://www.w3.org/Graphics/SVG/1.1/DTD/svg11.dtd">
<!-- Generated by graphviz version 2.43.0 (0)
 -->
<!-- Title: %3 Pages: 1 -->
<svg width="205pt" height="1024pt"
 viewBox="0.00 0.00 205.34 1023.74" xmlns="http://www.w3.org/2000/svg" xmlns:xlink="http://www.w3.org/1999/xlink">
<g id="graph0" class="graph" transform="scale(1 1) rotate(0) translate(4 1019.74)">
<title>%3</title>
<polygon fill="white" stroke="transparent" points="-4,4 -4,-1019.74 201.34,-1019.74 201.34,4 -4,4"/>
<!-- ENTRY -->
<g id="node1" class="node">
<title>ENTRY</title>
<ellipse fill="black" stroke="black" cx="140.34" cy="-1013.94" rx="1.8" ry="1.8"/>
</g>
<!-- 0 -->
<g id="node2" class="node">
<title>0</title>
<ellipse fill="none" stroke="black" cx="140.34" cy="-918.59" rx="56.59" ry="56.59"/>
<text text-anchor="middle" x="140.34" y="-914.89" font-family="Times,serif" font-size="14.00">0 &lt; Eps.0</text>
</g>
<!-- ENTRY&#45;&gt;0 -->
<g id="edge1" class="edge">
<title>ENTRY&#45;&gt;0</title>
<path fill="none" stroke="black" d="M140.34,-1011.89C140.34,-1008.63 140.34,-998.14 140.34,-985.33"/>
<polygon fill="black" stroke="black" points="143.84,-985.17 140.34,-975.17 136.84,-985.17 143.84,-985.17"/>
</g>
<!-- 1 -->
<g id="node7" class="node">
<title>1</title>
<ellipse fill="none" stroke="black" cx="92.34" cy="-754.5" rx="56.59" ry="56.59"/>
<text text-anchor="middle" x="92.34" y="-750.8" font-family="Times,serif" font-size="14.00">1 &lt; Eps.1</text>
</g>
<!-- 0&#45;&gt;1 -->
<g id="edge6" class="edge">
<title>0&#45;&gt;1</title>
<path fill="none" stroke="black" d="M124.49,-864.07C120.19,-849.54 115.5,-833.68 111.05,-818.68"/>
<polygon fill="black" stroke="black" points="114.37,-817.56 108.18,-808.97 107.66,-819.55 114.37,-817.56"/>
<text text-anchor="middle" x="126.84" y="-832.85" font-family="Times,serif" font-size="14.00">?b</text>
</g>
<!-- 2 -->
<g id="node3" class="node">
<title>2</title>
<ellipse fill="none" stroke="black" cx="77.34" cy="-569.61" rx="77.19" ry="77.19"/>
<text text-anchor="middle" x="77.34" y="-565.91" font-family="Times,serif" font-size="14.00">2 &lt; {b}.{b}.4</text>
</g>
<!-- 3 -->
<g id="node5" class="node">
<title>3</title>
<ellipse fill="none" stroke="black" cx="92.34" cy="-384.72" rx="56.59" ry="56.59"/>
<text text-anchor="middle" x="92.34" y="-381.02" font-family="Times,serif" font-size="14.00">3 &lt; {b}.4</text>
</g>
<!-- 2&#45;&gt;3 -->
<g id="edge3" class="edge">
<title>2&#45;&gt;3</title>
<path fill="none" stroke="black" d="M83.6,-492.38C84.72,-478.71 85.88,-464.57 86.97,-451.24"/>
<polygon fill="black" stroke="black" points="90.46,-451.47 87.79,-441.22 83.49,-450.9 90.46,-451.47"/>
<text text-anchor="middle" x="94.84" y="-463.07" font-family="Times,serif" font-size="14.00">?b</text>
</g>
<!-- 4 -->
<g id="node4" class="node">
<title>4</title>
<ellipse fill="none" stroke="black" cx="95.34" cy="-220.63" rx="56.59" ry="56.59"/>
<text text-anchor="middle" x="95.34" y="-216.93" font-family="Times,serif" font-size="14.00">4 &lt; {b}.5</text>
</g>
<!-- 5 -->
<g id="node6" class="node">
<title>5</title>
<ellipse fill="none" stroke="black" cx="139.34" cy="-56.54" rx="56.59" ry="56.59"/>
<text text-anchor="middle" x="139.34" y="-52.84" font-family="Times,serif" font-size="14.00">5 &lt; Eps.5</text>
</g>
<!-- 4&#45;&gt;5 -->
<g id="edge7" class="edge">
<title>4&#45;&gt;5</title>
<path fill="none" stroke="black" d="M109.99,-165.66C113.85,-151.44 118.05,-135.97 122.04,-121.29"/>
<polygon fill="black" stroke="black" points="125.51,-121.85 124.76,-111.28 118.76,-120.02 125.51,-121.85"/>
<text text-anchor="middle" x="127.84" y="-134.89" font-family="Times,serif" font-size="14.00">?b</text>
</g>
<!-- 3&#45;&gt;4 -->
<g id="edge4" class="edge">
<title>3&#45;&gt;4</title>
<path fill="none" stroke="black" d="M93.38,-327.94C93.62,-314.88 93.88,-300.85 94.13,-287.39"/>
<polygon fill="black" stroke="black" points="97.63,-287.31 94.31,-277.25 90.63,-287.18 97.63,-287.31"/>
<text text-anchor="middle" x="101.84" y="-298.98" font-family="Times,serif" font-size="14.00">!a</text>
</g>
<!-- 5&#45;&gt;0 -->
<g id="edge2" class="edge">
<title>5&#45;&gt;0</title>
<path fill="none" stroke="black" d="M160.34,-109.18C171.25,-140.58 182.34,-181.79 182.34,-219.63 182.34,-755.5 182.34,-755.5 182.34,-755.5 182.34,-789.32 173.67,-825.88 164.2,-855.71"/>
<polygon fill="black" stroke="black" points="160.77,-854.95 160.97,-865.55 167.42,-857.14 160.77,-854.95"/>
<text text-anchor="middle" x="189.84" y="-463.07" font-family="Times,serif" font-size="14.00">!a</text>
</g>
<!-- 1&#45;&gt;2 -->
<g id="edge5" class="edge">
<title>1&#45;&gt;2</title>
<path fill="none" stroke="black" d="M87.8,-698.13C86.73,-685.1 85.57,-670.91 84.42,-656.88"/>
<polygon fill="black" stroke="black" points="87.89,-656.4 83.58,-646.72 80.91,-656.97 87.89,-656.4"/>
<text text-anchor="middle" x="93.84" y="-668.76" font-family="Times,serif" font-size="14.00">!a</text>
</g>
</g>
</svg>
