<?xml version="1.0" encoding="UTF-8" standalone="no"?>
<!DOCTYPE svg PUBLIC "-//W3C//DTD SVG 1.1//EN"
 "http://www.w3.org/Graphics/SVG/1.1/DTD/svg11.dtd">
<!-- Generated by graphviz version 2.43.0 (0)
 -->
<!-- Title: %3 Pages: 1 -->
<svg width="1411pt" height="2014pt"
 viewBox="0.00 0.00 1410.57 2014.32" xmlns="http://www.w3.org/2000/svg" xmlns:xlink="http://www.w3.org/1999/xlink">
<g id="graph0" class="graph" transform="scale(1 1) rotate(0) translate(4 2010.32)">
<title>%3</title>
<polygon fill="white" stroke="transparent" points="-4,4 -4,-2010.32 1406.57,-2010.32 1406.57,4 -4,4"/>
<!-- ENTRY -->
<g id="node1" class="node">
<title>ENTRY</title>
<ellipse fill="black" stroke="black" cx="180.04" cy="-1702.79" rx="1.8" ry="1.8"/>
</g>
<!-- 0 -->
<g id="node4" class="node">
<title>0</title>
<ellipse fill="none" stroke="black" cx="180.04" cy="-1044.75" rx="76.09" ry="76.09"/>
<text text-anchor="middle" x="180.04" y="-1041.05" font-family="Times,serif" font-size="14.00">0 &lt; ({a,b})*.0</text>
</g>
<!-- ENTRY&#45;&gt;0 -->
<g id="edge1" class="edge">
<title>ENTRY&#45;&gt;0</title>
<path fill="none" stroke="black" d="M180.04,-1700.73C180.04,-1678.18 180.04,-1303.11 180.04,-1130.93"/>
<polygon fill="black" stroke="black" points="183.54,-1130.89 180.04,-1120.89 176.54,-1130.89 183.54,-1130.89"/>
</g>
<!-- 3 -->
<g id="node2" class="node">
<title>3</title>
<ellipse fill="none" stroke="red" cx="253.04" cy="-236.88" rx="236.76" ry="236.76"/>
<text text-anchor="middle" x="253.04" y="-240.68" font-family="Times,serif" font-size="14.00">3 &lt; ({a,b})*.{a}.{b}.{a}.{b}.{a}.{a}.{b}.0</text>
<text text-anchor="middle" x="253.04" y="-225.68" font-family="Times,serif" font-size="14.00">{b}.{a}.{b}.{a}.{a}.{b}.0</text>
</g>
<!-- 1 -->
<g id="node3" class="node">
<title>1</title>
<ellipse fill="none" stroke="black" cx="76.04" cy="-607.49" rx="76.09" ry="76.09"/>
<text text-anchor="middle" x="76.04" y="-603.79" font-family="Times,serif" font-size="14.00">1 &lt; ({a,b})*.0</text>
</g>
<!-- 1&#45;&gt;0 -->
<g id="edge5" class="edge">
<title>1&#45;&gt;0</title>
<path fill="none" stroke="black" d="M113.22,-674.03C118.47,-685.19 123.34,-696.85 127.04,-708.22 153.95,-790.9 167.45,-889.63 174.05,-958.5"/>
<polygon fill="black" stroke="black" points="170.6,-959.23 175.02,-968.87 177.57,-958.59 170.6,-959.23"/>
<text text-anchor="middle" x="137.54" y="-712.02" font-family="Times,serif" font-size="14.00">!x</text>
</g>
<!-- 0&#45;&gt;1 -->
<g id="edge8" class="edge">
<title>0&#45;&gt;1</title>
<path fill="none" stroke="black" d="M162.52,-970.4C144.12,-893.39 115.23,-772.48 95.97,-691.89"/>
<polygon fill="black" stroke="black" points="99.28,-690.69 93.55,-681.77 92.47,-692.31 99.28,-690.69"/>
<text text-anchor="middle" x="110.54" y="-712.02" font-family="Times,serif" font-size="14.00">?b</text>
</g>
<!-- 2 -->
<g id="node8" class="node">
<title>2</title>
<ellipse fill="none" stroke="black" cx="253.04" cy="-607.49" rx="82.96" ry="82.96"/>
<text text-anchor="middle" x="253.04" y="-611.29" font-family="Times,serif" font-size="14.00">2 &lt; ({a,b})*.0</text>
<text text-anchor="middle" x="253.04" y="-596.29" font-family="Times,serif" font-size="14.00">Eps.1</text>
</g>
<!-- 0&#45;&gt;2 -->
<g id="edge2" class="edge">
<title>0&#45;&gt;2</title>
<path fill="none" stroke="black" d="M180.45,-968.69C182.34,-899.95 189.09,-795.9 211.04,-708.22 212.31,-703.17 213.79,-698.04 215.43,-692.92"/>
<polygon fill="black" stroke="black" points="218.87,-693.67 218.76,-683.07 212.24,-691.42 218.87,-693.67"/>
<text text-anchor="middle" x="219.04" y="-712.02" font-family="Times,serif" font-size="14.00">?a</text>
</g>
<!-- 4 -->
<g id="node5" class="node">
<title>4</title>
<ellipse fill="none" stroke="black" cx="897.04" cy="-1702.79" rx="303.55" ry="303.55"/>
<text text-anchor="middle" x="897.04" y="-1699.09" font-family="Times,serif" font-size="14.00">4 &lt; ({b})*.{a}.({a})*.{b}.{a}.({b})*.{a}.{b}.({a}.{a}.{b})*.0</text>
</g>
<!-- 5 -->
<g id="node6" class="node">
<title>5</title>
<ellipse fill="none" stroke="black" cx="526.04" cy="-1044.75" rx="251.56" ry="251.56"/>
<text text-anchor="middle" x="526.04" y="-1041.05" font-family="Times,serif" font-size="14.00">5 &lt; ({a})*.{b}.{a}.({b})*.{a}.{b}.({a}.{a}.{b})*.0</text>
</g>
<!-- 4&#45;&gt;5 -->
<g id="edge4" class="edge">
<title>4&#45;&gt;5</title>
<path fill="none" stroke="black" d="M731.38,-1448.35C717.76,-1425.85 704.47,-1403.27 692.04,-1381.27 674,-1349.33 655.84,-1315.15 638.49,-1281.29"/>
<polygon fill="black" stroke="black" points="641.53,-1279.53 633.86,-1272.22 635.29,-1282.72 641.53,-1279.53"/>
<text text-anchor="middle" x="700.04" y="-1370.07" font-family="Times,serif" font-size="14.00">?a</text>
</g>
<!-- 6 -->
<g id="node7" class="node">
<title>6</title>
<ellipse fill="none" stroke="black" cx="1099.04" cy="-1044.75" rx="303.55" ry="303.55"/>
<text text-anchor="middle" x="1099.04" y="-1041.05" font-family="Times,serif" font-size="14.00">6 &lt; ({b})*.{a}.({a})*.{b}.{a}.({b})*.{a}.{b}.({a}.{a}.{b})*.0</text>
</g>
<!-- 4&#45;&gt;6 -->
<g id="edge9" class="edge">
<title>4&#45;&gt;6</title>
<path fill="none" stroke="black" d="M965.14,-1406.62C969.02,-1392.94 972.99,-1379.43 977.04,-1366.27 979.94,-1356.88 982.96,-1347.37 986.09,-1337.8"/>
<polygon fill="black" stroke="black" points="989.45,-1338.79 989.26,-1328.2 982.8,-1336.6 989.45,-1338.79"/>
<text text-anchor="middle" x="985.54" y="-1370.07" font-family="Times,serif" font-size="14.00">?b</text>
</g>
<!-- 5&#45;&gt;4 -->
<g id="edge3" class="edge">
<title>5&#45;&gt;4</title>
<path fill="none" stroke="black" d="M649.51,-1264.07C679.46,-1317.04 711.85,-1374.32 743.02,-1429.44"/>
<polygon fill="black" stroke="black" points="740.04,-1431.28 748.01,-1438.26 746.14,-1427.84 740.04,-1431.28"/>
<text text-anchor="middle" x="719.54" y="-1370.07" font-family="Times,serif" font-size="14.00">!x</text>
</g>
<!-- 6&#45;&gt;4 -->
<g id="edge7" class="edge">
<title>6&#45;&gt;4</title>
<path fill="none" stroke="black" d="M1009.98,-1335C1003.04,-1357.54 996.02,-1380.33 989.06,-1402.94"/>
<polygon fill="black" stroke="black" points="985.68,-1402.02 986.08,-1412.61 992.37,-1404.08 985.68,-1402.02"/>
<text text-anchor="middle" x="1005.54" y="-1370.07" font-family="Times,serif" font-size="14.00">!y</text>
</g>
<!-- 2&#45;&gt;3 -->
<g id="edge6" class="edge">
<title>2&#45;&gt;3</title>
<path fill="none" stroke="black" d="M253.04,-524.69C253.04,-512.06 253.04,-498.48 253.04,-484.36"/>
<polygon fill="black" stroke="black" points="256.54,-483.99 253.04,-473.99 249.54,-483.99 256.54,-483.99"/>
<text text-anchor="middle" x="260.54" y="-495.56" font-family="Times,serif" font-size="14.00">!y</text>
</g>
<!-- 2&#45;&gt;0 -->
<g id="edge10" class="edge">
<title>2&#45;&gt;0</title>
<path fill="none" stroke="black" d="M239.51,-689.16C226.63,-765.95 207.33,-881.07 194.23,-959.13"/>
<polygon fill="black" stroke="black" points="190.71,-958.98 192.51,-969.42 197.62,-960.14 190.71,-958.98"/>
<text text-anchor="middle" x="243.54" y="-712.02" font-family="Times,serif" font-size="14.00">!x</text>
</g>
</g>
</svg>
