<?xml version="1.0" encoding="UTF-8" standalone="no"?>
<!DOCTYPE svg PUBLIC "-//W3C//DTD SVG 1.1//EN"
 "http://www.w3.org/Graphics/SVG/1.1/DTD/svg11.dtd">
<!-- Generated by graphviz version 2.43.0 (0)
 -->
<!-- Title: %3 Pages: 1 -->
<svg width="173pt" height="433pt"
 viewBox="0.00 0.00 172.62 432.60" xmlns="http://www.w3.org/2000/svg" xmlns:xlink="http://www.w3.org/1999/xlink">
<g id="graph0" class="graph" transform="scale(1 1) rotate(0) translate(4 428.6)">
<title>%3</title>
<polygon fill="white" stroke="transparent" points="-4,4 -4,-428.6 168.62,-428.6 168.62,4 -4,4"/>
<!-- ENTRY -->
<g id="node1" class="node">
<title>ENTRY</title>
<ellipse fill="black" stroke="black" cx="107.62" cy="-422.8" rx="1.8" ry="1.8"/>
</g>
<!-- 0 -->
<g id="node2" class="node">
<title>0</title>
<ellipse fill="none" stroke="black" cx="107.62" cy="-366" rx="18" ry="18"/>
<text text-anchor="middle" x="107.62" y="-362.3" font-family="Times,serif" font-size="14.00">0</text>
</g>
<!-- ENTRY&#45;&gt;0 -->
<g id="edge1" class="edge">
<title>ENTRY&#45;&gt;0</title>
<path fill="none" stroke="black" d="M107.62,-420.85C107.62,-417.49 107.62,-405.73 107.62,-394.05"/>
<polygon fill="black" stroke="black" points="111.12,-394.02 107.62,-384.02 104.12,-394.02 111.12,-394.02"/>
</g>
<!-- 2 -->
<g id="node3" class="node">
<title>2</title>
<ellipse fill="none" stroke="black" cx="60.62" cy="-279" rx="18" ry="18"/>
<text text-anchor="middle" x="60.62" y="-275.3" font-family="Times,serif" font-size="14.00">2</text>
</g>
<!-- 0&#45;&gt;2 -->
<g id="edge2" class="edge">
<title>0&#45;&gt;2</title>
<path fill="none" stroke="black" d="M90.49,-359.68C76.99,-354.48 59.06,-345.1 50.62,-330 46.37,-322.42 46.85,-313.31 49.06,-304.95"/>
<polygon fill="black" stroke="black" points="52.44,-305.88 52.4,-295.28 45.82,-303.59 52.44,-305.88"/>
<text text-anchor="middle" x="58.62" y="-318.8" font-family="Times,serif" font-size="14.00">?a</text>
</g>
<!-- 1 -->
<g id="node8" class="node">
<title>1</title>
<ellipse fill="none" stroke="black" cx="146.62" cy="-279" rx="18" ry="18"/>
<text text-anchor="middle" x="146.62" y="-275.3" font-family="Times,serif" font-size="14.00">1</text>
</g>
<!-- 0&#45;&gt;1 -->
<g id="edge10" class="edge">
<title>0&#45;&gt;1</title>
<path fill="none" stroke="black" d="M113.63,-348.58C117.37,-338.72 122.45,-326 127.62,-315 129.27,-311.48 131.12,-307.81 132.99,-304.23"/>
<polygon fill="black" stroke="black" points="136.23,-305.6 137.9,-295.13 130.07,-302.27 136.23,-305.6"/>
<text text-anchor="middle" x="136.12" y="-318.8" font-family="Times,serif" font-size="14.00">?b</text>
</g>
<!-- 2&#45;&gt;0 -->
<g id="edge9" class="edge">
<title>2&#45;&gt;0</title>
<path fill="none" stroke="black" d="M68.95,-295.06C75.94,-307.72 86.07,-326.04 94.21,-340.75"/>
<polygon fill="black" stroke="black" points="91.31,-342.75 99.21,-349.8 97.44,-339.36 91.31,-342.75"/>
<text text-anchor="middle" x="95.12" y="-318.8" font-family="Times,serif" font-size="14.00">!x</text>
</g>
<!-- 3 -->
<g id="node4" class="node">
<title>3</title>
<ellipse fill="none" stroke="black" cx="60.62" cy="-192" rx="18" ry="18"/>
<text text-anchor="middle" x="60.62" y="-188.3" font-family="Times,serif" font-size="14.00">3</text>
</g>
<!-- 2&#45;&gt;3 -->
<g id="edge3" class="edge">
<title>2&#45;&gt;3</title>
<path fill="none" stroke="black" d="M60.62,-260.8C60.62,-249.16 60.62,-233.55 60.62,-220.24"/>
<polygon fill="black" stroke="black" points="64.12,-220.18 60.62,-210.18 57.12,-220.18 64.12,-220.18"/>
<text text-anchor="middle" x="68.12" y="-231.8" font-family="Times,serif" font-size="14.00">!y</text>
</g>
<!-- 4 -->
<g id="node5" class="node">
<title>4</title>
<ellipse fill="none" stroke="black" cx="60.62" cy="-105" rx="18" ry="18"/>
<text text-anchor="middle" x="60.62" y="-101.3" font-family="Times,serif" font-size="14.00">4</text>
</g>
<!-- 3&#45;&gt;4 -->
<g id="edge4" class="edge">
<title>3&#45;&gt;4</title>
<path fill="none" stroke="black" d="M60.62,-173.8C60.62,-162.16 60.62,-146.55 60.62,-133.24"/>
<polygon fill="black" stroke="black" points="64.12,-133.18 60.62,-123.18 57.12,-133.18 64.12,-133.18"/>
<text text-anchor="middle" x="69.12" y="-144.8" font-family="Times,serif" font-size="14.00">?b</text>
</g>
<!-- 6 -->
<g id="node6" class="node">
<title>6</title>
<ellipse fill="none" stroke="black" cx="27.62" cy="-18" rx="18" ry="18"/>
<text text-anchor="middle" x="27.62" y="-14.3" font-family="Times,serif" font-size="14.00">6</text>
</g>
<!-- 4&#45;&gt;6 -->
<g id="edge5" class="edge">
<title>4&#45;&gt;6</title>
<path fill="none" stroke="black" d="M43.48,-98.87C29.71,-93.74 11.29,-84.36 2.62,-69 -2.86,-59.29 1.6,-48.23 8.2,-38.99"/>
<polygon fill="black" stroke="black" points="11.02,-41.06 14.63,-31.1 5.6,-36.64 11.02,-41.06"/>
<text text-anchor="middle" x="11.12" y="-57.8" font-family="Times,serif" font-size="14.00">?b</text>
</g>
<!-- 5 -->
<g id="node7" class="node">
<title>5</title>
<ellipse fill="none" stroke="black" cx="93.62" cy="-18" rx="18" ry="18"/>
<text text-anchor="middle" x="93.62" y="-14.3" font-family="Times,serif" font-size="14.00">5</text>
</g>
<!-- 4&#45;&gt;5 -->
<g id="edge7" class="edge">
<title>4&#45;&gt;5</title>
<path fill="none" stroke="black" d="M66.82,-88.01C71.57,-75.78 78.21,-58.68 83.69,-44.56"/>
<polygon fill="black" stroke="black" points="87.08,-45.51 87.44,-34.92 80.55,-42.97 87.08,-45.51"/>
<text text-anchor="middle" x="87.62" y="-57.8" font-family="Times,serif" font-size="14.00">?a</text>
</g>
<!-- 6&#45;&gt;4 -->
<g id="edge6" class="edge">
<title>6&#45;&gt;4</title>
<path fill="none" stroke="black" d="M31.86,-35.93C34.53,-45.74 38.28,-58.24 42.62,-69 44.05,-72.57 45.73,-76.26 47.47,-79.85"/>
<polygon fill="black" stroke="black" points="44.45,-81.63 52.11,-88.95 50.69,-78.45 44.45,-81.63"/>
<text text-anchor="middle" x="50.12" y="-57.8" font-family="Times,serif" font-size="14.00">!y</text>
</g>
<!-- 5&#45;&gt;4 -->
<g id="edge8" class="edge">
<title>5&#45;&gt;4</title>
<path fill="none" stroke="black" d="M98.28,-35.85C100.17,-45.86 101.01,-58.59 96.62,-69 93.7,-75.91 88.68,-82.12 83.3,-87.33"/>
<polygon fill="black" stroke="black" points="80.62,-85.02 75.36,-94.21 85.21,-90.31 80.62,-85.02"/>
<text text-anchor="middle" x="107.12" y="-57.8" font-family="Times,serif" font-size="14.00">!x</text>
</g>
<!-- 1&#45;&gt;0 -->
<g id="edge11" class="edge">
<title>1&#45;&gt;0</title>
<path fill="none" stroke="black" d="M149.03,-296.94C149.73,-306.99 149.29,-319.72 144.62,-330 141.4,-337.08 136.02,-343.43 130.35,-348.72"/>
<polygon fill="black" stroke="black" points="128,-346.11 122.6,-355.23 132.51,-351.47 128,-346.11"/>
<text text-anchor="middle" x="155.12" y="-318.8" font-family="Times,serif" font-size="14.00">!x</text>
</g>
</g>
</svg>
