<?xml version="1.0" encoding="UTF-8" standalone="no"?>
<!DOCTYPE svg PUBLIC "-//W3C//DTD SVG 1.1//EN"
 "http://www.w3.org/Graphics/SVG/1.1/DTD/svg11.dtd">
<!-- Generated by graphviz version 2.43.0 (0)
 -->
<!-- Title: %3 Pages: 1 -->
<svg width="118pt" height="346pt"
 viewBox="0.00 0.00 117.55 345.60" xmlns="http://www.w3.org/2000/svg" xmlns:xlink="http://www.w3.org/1999/xlink">
<g id="graph0" class="graph" transform="scale(1 1) rotate(0) translate(4 341.6)">
<title>%3</title>
<polygon fill="white" stroke="transparent" points="-4,4 -4,-341.6 113.55,-341.6 113.55,4 -4,4"/>
<!-- ENTRY -->
<g id="node1" class="node">
<title>ENTRY</title>
<ellipse fill="black" stroke="black" cx="82.55" cy="-335.8" rx="1.8" ry="1.8"/>
</g>
<!-- 0 -->
<g id="node2" class="node">
<title>0</title>
<ellipse fill="none" stroke="black" cx="82.55" cy="-279" rx="18" ry="18"/>
<text text-anchor="middle" x="82.55" y="-275.3" font-family="Times,serif" font-size="14.00">0</text>
</g>
<!-- ENTRY&#45;&gt;0 -->
<g id="edge1" class="edge">
<title>ENTRY&#45;&gt;0</title>
<path fill="none" stroke="black" d="M82.55,-333.85C82.55,-330.49 82.55,-318.73 82.55,-307.05"/>
<polygon fill="black" stroke="black" points="86.05,-307.02 82.55,-297.02 79.05,-307.02 86.05,-307.02"/>
</g>
<!-- 1 -->
<g id="node3" class="node">
<title>1</title>
<ellipse fill="none" stroke="black" cx="47.55" cy="-192" rx="18" ry="18"/>
<text text-anchor="middle" x="47.55" y="-188.3" font-family="Times,serif" font-size="14.00">1</text>
</g>
<!-- 0&#45;&gt;1 -->
<g id="edge2" class="edge">
<title>0&#45;&gt;1</title>
<path fill="none" stroke="black" d="M75.97,-262.01C70.94,-249.78 63.89,-232.68 58.08,-218.56"/>
<polygon fill="black" stroke="black" points="61.15,-216.83 54.11,-208.92 54.68,-219.5 61.15,-216.83"/>
<text text-anchor="middle" x="74.05" y="-231.8" font-family="Times,serif" font-size="14.00">!a</text>
</g>
<!-- 3 -->
<g id="node4" class="node">
<title>3</title>
<ellipse fill="none" stroke="black" cx="91.55" cy="-105" rx="18" ry="18"/>
<text text-anchor="middle" x="91.55" y="-101.3" font-family="Times,serif" font-size="14.00">3</text>
</g>
<!-- 1&#45;&gt;3 -->
<g id="edge3" class="edge">
<title>1&#45;&gt;3</title>
<path fill="none" stroke="black" d="M55.42,-175.8C61.95,-163.19 71.36,-145.01 78.94,-130.37"/>
<polygon fill="black" stroke="black" points="82.12,-131.84 83.61,-121.35 75.9,-128.62 82.12,-131.84"/>
<text text-anchor="middle" x="79.55" y="-144.8" font-family="Times,serif" font-size="14.00">!b</text>
</g>
<!-- 2 -->
<g id="node6" class="node">
<title>2</title>
<ellipse fill="none" stroke="black" cx="26.55" cy="-105" rx="18" ry="18"/>
<text text-anchor="middle" x="26.55" y="-101.3" font-family="Times,serif" font-size="14.00">2</text>
</g>
<!-- 1&#45;&gt;2 -->
<g id="edge7" class="edge">
<title>1&#45;&gt;2</title>
<path fill="none" stroke="black" d="M31.51,-183.37C21.16,-177.48 8.55,-168.27 2.55,-156 -2.19,-146.3 1.83,-135.5 7.84,-126.43"/>
<polygon fill="black" stroke="black" points="10.72,-128.43 14,-118.35 5.15,-124.18 10.72,-128.43"/>
<text text-anchor="middle" x="10.05" y="-144.8" font-family="Times,serif" font-size="14.00">!a</text>
</g>
<!-- 3&#45;&gt;0 -->
<g id="edge4" class="edge">
<title>3&#45;&gt;0</title>
<path fill="none" stroke="black" d="M91.84,-123.13C91.94,-132.79 91.93,-145.07 91.55,-156 90.22,-194.74 88.54,-204.36 85.55,-243 85.36,-245.55 85.14,-248.21 84.92,-250.87"/>
<polygon fill="black" stroke="black" points="81.43,-250.66 84.08,-260.91 88.4,-251.24 81.43,-250.66"/>
<text text-anchor="middle" x="98.55" y="-188.3" font-family="Times,serif" font-size="14.00">?y</text>
</g>
<!-- 4 -->
<g id="node5" class="node">
<title>4</title>
<ellipse fill="none" stroke="black" cx="90.55" cy="-18" rx="18" ry="18"/>
<text text-anchor="middle" x="90.55" y="-14.3" font-family="Times,serif" font-size="14.00">4</text>
</g>
<!-- 3&#45;&gt;4 -->
<g id="edge5" class="edge">
<title>3&#45;&gt;4</title>
<path fill="none" stroke="black" d="M81.69,-89.69C78.06,-83.6 74.39,-76.24 72.55,-69 70.3,-60.13 72.5,-50.63 76.03,-42.31"/>
<polygon fill="black" stroke="black" points="79.24,-43.72 80.61,-33.21 72.99,-40.57 79.24,-43.72"/>
<text text-anchor="middle" x="80.55" y="-57.8" font-family="Times,serif" font-size="14.00">?x</text>
</g>
<!-- 4&#45;&gt;3 -->
<g id="edge6" class="edge">
<title>4&#45;&gt;3</title>
<path fill="none" stroke="black" d="M90.76,-36.18C90.89,-47.81 91.08,-63.42 91.23,-76.73"/>
<polygon fill="black" stroke="black" points="87.73,-76.84 91.35,-86.8 94.73,-76.76 87.73,-76.84"/>
<text text-anchor="middle" x="98.55" y="-57.8" font-family="Times,serif" font-size="14.00">!b</text>
</g>
<!-- 2&#45;&gt;1 -->
<g id="edge8" class="edge">
<title>2&#45;&gt;1</title>
<path fill="none" stroke="black" d="M30.69,-122.76C33.63,-134.62 37.62,-150.79 40.98,-164.4"/>
<polygon fill="black" stroke="black" points="37.61,-165.34 43.4,-174.21 44.4,-163.66 37.61,-165.34"/>
<text text-anchor="middle" x="46.55" y="-144.8" font-family="Times,serif" font-size="14.00">?x</text>
</g>
</g>
</svg>
