<?xml version="1.0" encoding="UTF-8" standalone="no"?>
<!DOCTYPE svg PUBLIC "-//W3C//DTD SVG 1.1//EN"
 "http://www.w3.org/Graphics/SVG/1.1/DTD/svg11.dtd">
<!-- Generated by graphviz version 2.43.0 (0)
 -->
<!-- Title: %3 Pages: 1 -->
<svg width="234pt" height="466pt"
 viewBox="0.00 0.00 234.27 465.88" xmlns="http://www.w3.org/2000/svg" xmlns:xlink="http://www.w3.org/1999/xlink">
<g id="graph0" class="graph" transform="scale(1 1) rotate(0) translate(4 461.88)">
<title>%3</title>
<polygon fill="white" stroke="transparent" points="-4,4 -4,-461.88 230.27,-461.88 230.27,4 -4,4"/>
<!-- ENTRY -->
<g id="node1" class="node">
<title>ENTRY</title>
<ellipse fill="black" stroke="black" cx="113.14" cy="-456.08" rx="1.8" ry="1.8"/>
</g>
<!-- 0 -->
<g id="node3" class="node">
<title>0</title>
<ellipse fill="none" stroke="black" cx="113.14" cy="-347.28" rx="70.01" ry="70.01"/>
<text text-anchor="middle" x="113.14" y="-351.08" font-family="Times,serif" font-size="14.00">0 &lt; Eps.0</text>
<text text-anchor="middle" x="113.14" y="-336.08" font-family="Times,serif" font-size="14.00">({a,b,c})*.2</text>
</g>
<!-- ENTRY&#45;&gt;0 -->
<g id="edge1" class="edge">
<title>ENTRY&#45;&gt;0</title>
<path fill="none" stroke="black" d="M113.14,-453.88C113.14,-450.5 113.14,-440.32 113.14,-427.52"/>
<polygon fill="black" stroke="black" points="116.64,-427.29 113.14,-417.29 109.64,-427.29 116.64,-427.29"/>
</g>
<!-- 1 -->
<g id="node2" class="node">
<title>1</title>
<ellipse fill="none" stroke="black" cx="113.14" cy="-113.14" rx="113.27" ry="113.27"/>
<text text-anchor="middle" x="113.14" y="-124.44" font-family="Times,serif" font-size="14.00">1 &lt; {a}.2</text>
<text text-anchor="middle" x="113.14" y="-109.44" font-family="Times,serif" font-size="14.00">({a,b,c})*.{b}.2</text>
<text text-anchor="middle" x="113.14" y="-94.44" font-family="Times,serif" font-size="14.00">({a,b,c})*.{c}.{a}.2</text>
</g>
<!-- 1&#45;&gt;0 -->
<g id="edge2" class="edge">
<title>1&#45;&gt;0</title>
<path fill="none" stroke="black" d="M94.21,-225.02C93.78,-236.58 94,-248.16 95.14,-259.27 95.45,-262.32 95.82,-265.42 96.24,-268.54"/>
<polygon fill="black" stroke="black" points="92.8,-269.19 97.74,-278.57 99.72,-268.16 92.8,-269.19"/>
<text text-anchor="middle" x="103.14" y="-248.07" font-family="Times,serif" font-size="14.00">?a</text>
</g>
<!-- 1&#45;&gt;0 -->
<g id="edge3" class="edge">
<title>1&#45;&gt;0</title>
<path fill="none" stroke="black" d="M113.14,-226.37C113.14,-240.07 113.14,-253.85 113.14,-266.93"/>
<polygon fill="black" stroke="black" points="109.64,-267.26 113.14,-277.26 116.64,-267.26 109.64,-267.26"/>
<text text-anchor="middle" x="121.64" y="-248.07" font-family="Times,serif" font-size="14.00">?b</text>
</g>
<!-- 1&#45;&gt;0 -->
<g id="edge4" class="edge">
<title>1&#45;&gt;0</title>
<path fill="none" stroke="black" d="M135.18,-224.21C135.72,-236.04 135.49,-247.9 134.14,-259.27 133.75,-262.51 133.29,-265.81 132.76,-269.13"/>
<polygon fill="black" stroke="black" points="129.29,-268.66 131.01,-279.12 136.18,-269.87 129.29,-268.66"/>
<text text-anchor="middle" x="143.14" y="-248.07" font-family="Times,serif" font-size="14.00">?c</text>
</g>
<!-- 0&#45;&gt;1 -->
<g id="edge5" class="edge">
<title>0&#45;&gt;1</title>
<path fill="none" stroke="black" d="M83,-283.56C80.19,-275.54 77.78,-267.32 76.14,-259.27 74.17,-249.62 73.6,-239.65 74.04,-229.67"/>
<polygon fill="black" stroke="black" points="77.53,-229.93 74.82,-219.68 70.55,-229.38 77.53,-229.93"/>
<text text-anchor="middle" x="83.64" y="-248.07" font-family="Times,serif" font-size="14.00">!x</text>
</g>
</g>
</svg>
