<?xml version="1.0" encoding="UTF-8" standalone="no"?>
<!DOCTYPE svg PUBLIC "-//W3C//DTD SVG 1.1//EN"
 "http://www.w3.org/Graphics/SVG/1.1/DTD/svg11.dtd">
<!-- Generated by graphviz version 2.43.0 (0)
 -->
<!-- Title: %3 Pages: 1 -->
<svg width="104pt" height="172pt"
 viewBox="0.00 0.00 103.84 171.60" xmlns="http://www.w3.org/2000/svg" xmlns:xlink="http://www.w3.org/1999/xlink">
<g id="graph0" class="graph" transform="scale(1 1) rotate(0) translate(4 167.6)">
<title>%3</title>
<polygon fill="white" stroke="transparent" points="-4,4 -4,-167.6 99.84,-167.6 99.84,4 -4,4"/>
<!-- ENTRY -->
<g id="node1" class="node">
<title>ENTRY</title>
<ellipse fill="black" stroke="black" cx="58.84" cy="-161.8" rx="1.8" ry="1.8"/>
</g>
<!-- 0 -->
<g id="node2" class="node">
<title>0</title>
<ellipse fill="none" stroke="black" cx="58.84" cy="-105" rx="18" ry="18"/>
<text text-anchor="middle" x="58.84" y="-101.3" font-family="Times,serif" font-size="14.00">0</text>
</g>
<!-- ENTRY&#45;&gt;0 -->
<g id="edge1" class="edge">
<title>ENTRY&#45;&gt;0</title>
<path fill="none" stroke="black" d="M58.84,-159.85C58.84,-156.49 58.84,-144.73 58.84,-133.05"/>
<polygon fill="black" stroke="black" points="62.34,-133.02 58.84,-123.02 55.34,-133.02 62.34,-133.02"/>
</g>
<!-- 1 -->
<g id="node3" class="node">
<title>1</title>
<ellipse fill="none" stroke="black" cx="58.84" cy="-18" rx="18" ry="18"/>
<text text-anchor="middle" x="58.84" y="-14.3" font-family="Times,serif" font-size="14.00">1</text>
</g>
<!-- 0&#45;&gt;1 -->
<g id="edge2" class="edge">
<title>0&#45;&gt;1</title>
<path fill="none" stroke="black" d="M42,-98.6C28.73,-93.35 11.12,-83.94 2.84,-69 -6.57,-52.03 13.9,-37.89 32.67,-29.03"/>
<polygon fill="black" stroke="black" points="34.13,-32.21 41.9,-25 31.33,-25.79 34.13,-32.21"/>
<text text-anchor="middle" x="10.34" y="-57.8" font-family="Times,serif" font-size="14.00">!x</text>
</g>
<!-- 1&#45;&gt;0 -->
<g id="edge3" class="edge">
<title>1&#45;&gt;0</title>
<path fill="none" stroke="black" d="M49.29,-33.72C45.92,-39.75 42.54,-46.96 40.84,-54 38.68,-62.89 40.9,-72.4 44.42,-80.71"/>
<polygon fill="black" stroke="black" points="41.37,-82.44 48.98,-89.81 47.63,-79.3 41.37,-82.44"/>
<text text-anchor="middle" x="48.84" y="-57.8" font-family="Times,serif" font-size="14.00">?c</text>
</g>
<!-- 1&#45;&gt;0 -->
<g id="edge4" class="edge">
<title>1&#45;&gt;0</title>
<path fill="none" stroke="black" d="M58.84,-36.18C58.84,-47.81 58.84,-63.42 58.84,-76.73"/>
<polygon fill="black" stroke="black" points="55.34,-76.8 58.84,-86.8 62.34,-76.8 55.34,-76.8"/>
<text text-anchor="middle" x="67.34" y="-57.8" font-family="Times,serif" font-size="14.00">?b</text>
</g>
<!-- 1&#45;&gt;0 -->
<g id="edge5" class="edge">
<title>1&#45;&gt;0</title>
<path fill="none" stroke="black" d="M70.03,-32.67C76.74,-42.53 83.35,-56.3 79.84,-69 78.67,-73.23 76.83,-77.45 74.73,-81.43"/>
<polygon fill="black" stroke="black" points="71.64,-79.78 69.51,-90.16 77.64,-83.38 71.64,-79.78"/>
<text text-anchor="middle" x="87.84" y="-57.8" font-family="Times,serif" font-size="14.00">?a</text>
</g>
</g>
</svg>
