<?xml version="1.0" encoding="UTF-8" standalone="no"?>
<!DOCTYPE svg PUBLIC "-//W3C//DTD SVG 1.1//EN"
 "http://www.w3.org/Graphics/SVG/1.1/DTD/svg11.dtd">
<!-- Generated by graphviz version 2.43.0 (0)
 -->
<!-- Title: %3 Pages: 1 -->
<svg width="759pt" height="1106pt"
 viewBox="0.00 0.00 759.24 1105.64" xmlns="http://www.w3.org/2000/svg" xmlns:xlink="http://www.w3.org/1999/xlink">
<g id="graph0" class="graph" transform="scale(1 1) rotate(0) translate(4 1101.64)">
<title>%3</title>
<polygon fill="white" stroke="transparent" points="-4,4 -4,-1101.64 755.24,-1101.64 755.24,4 -4,4"/>
<!-- ENTRY -->
<g id="node1" class="node">
<title>ENTRY</title>
<ellipse fill="black" stroke="black" cx="448.24" cy="-1095.84" rx="1.8" ry="1.8"/>
</g>
<!-- 0 -->
<g id="node2" class="node">
<title>0</title>
<ellipse fill="none" stroke="black" cx="448.24" cy="-989.45" rx="67.69" ry="67.69"/>
<text text-anchor="middle" x="448.24" y="-985.75" font-family="Times,serif" font-size="14.00">0 &lt; ({a})*.0</text>
</g>
<!-- ENTRY&#45;&gt;0 -->
<g id="edge1" class="edge">
<title>ENTRY&#45;&gt;0</title>
<path fill="none" stroke="black" d="M448.24,-1093.67C448.24,-1090.31 448.24,-1080.08 448.24,-1067.29"/>
<polygon fill="black" stroke="black" points="451.74,-1067.08 448.24,-1057.08 444.74,-1067.08 451.74,-1067.08"/>
</g>
<!-- 2 -->
<g id="node3" class="node">
<title>2</title>
<ellipse fill="none" stroke="black" cx="107.24" cy="-763.61" rx="107.48" ry="107.48"/>
<text text-anchor="middle" x="107.24" y="-759.91" font-family="Times,serif" font-size="14.00">2 &lt; ({a})*.{a}.{a}.0</text>
</g>
<!-- 0&#45;&gt;2 -->
<g id="edge5" class="edge">
<title>0&#45;&gt;2</title>
<path fill="none" stroke="black" d="M382.68,-971.05C338.26,-957.3 279.62,-935.16 234.24,-903.85 214.8,-890.44 196.22,-873.52 179.57,-856.14"/>
<polygon fill="black" stroke="black" points="181.95,-853.56 172.56,-848.67 176.85,-858.35 181.95,-853.56"/>
<text text-anchor="middle" x="241.24" y="-892.65" font-family="Times,serif" font-size="14.00">!z</text>
</g>
<!-- 3 -->
<g id="node4" class="node">
<title>3</title>
<ellipse fill="none" stroke="black" cx="339.24" cy="-763.61" rx="107.48" ry="107.48"/>
<text text-anchor="middle" x="339.24" y="-759.91" font-family="Times,serif" font-size="14.00">3 &lt; ({a})*.{a}.{a}.0</text>
</g>
<!-- 0&#45;&gt;3 -->
<g id="edge7" class="edge">
<title>0&#45;&gt;3</title>
<path fill="none" stroke="black" d="M419.03,-928.46C410.13,-910.19 400.08,-889.54 390.18,-869.22"/>
<polygon fill="black" stroke="black" points="393.32,-867.68 385.8,-860.22 387.03,-870.75 393.32,-867.68"/>
<text text-anchor="middle" x="414.74" y="-892.65" font-family="Times,serif" font-size="14.00">!y</text>
</g>
<!-- 1 -->
<g id="node5" class="node">
<title>1</title>
<ellipse fill="none" stroke="black" cx="571.24" cy="-763.61" rx="107.48" ry="107.48"/>
<text text-anchor="middle" x="571.24" y="-759.91" font-family="Times,serif" font-size="14.00">1 &lt; ({a})*.{a}.{a}.0</text>
</g>
<!-- 0&#45;&gt;1 -->
<g id="edge4" class="edge">
<title>0&#45;&gt;1</title>
<path fill="none" stroke="black" d="M469.76,-925.3C474.67,-912.98 480.23,-900.33 486.24,-888.85 491.35,-879.09 497.08,-869.18 503.09,-859.43"/>
<polygon fill="black" stroke="black" points="506.09,-861.24 508.44,-850.9 500.16,-857.52 506.09,-861.24"/>
<text text-anchor="middle" x="493.74" y="-892.65" font-family="Times,serif" font-size="14.00">!x</text>
</g>
<!-- 2&#45;&gt;0 -->
<g id="edge3" class="edge">
<title>2&#45;&gt;0</title>
<path fill="none" stroke="black" d="M183.52,-839.54C196.33,-850.61 209.82,-861.45 223.24,-870.85 271.86,-904.94 331.62,-935.72 377.33,-957.23"/>
<polygon fill="black" stroke="black" points="376.02,-960.48 386.56,-961.54 378.98,-954.14 376.02,-960.48"/>
<text text-anchor="middle" x="278.24" y="-892.65" font-family="Times,serif" font-size="14.00">?a</text>
</g>
<!-- 4 -->
<g id="node6" class="node">
<title>4</title>
<ellipse fill="none" stroke="black" cx="378.24" cy="-488.7" rx="116.85" ry="116.85"/>
<text text-anchor="middle" x="378.24" y="-492.5" font-family="Times,serif" font-size="14.00">4 &lt; ({a})*.{a}.{a}.0</text>
<text text-anchor="middle" x="378.24" y="-477.5" font-family="Times,serif" font-size="14.00">{a}.0</text>
</g>
<!-- 3&#45;&gt;4 -->
<g id="edge9" class="edge">
<title>3&#45;&gt;4</title>
<path fill="none" stroke="black" d="M335.13,-656.33C335.7,-645.17 336.68,-634.02 338.24,-623.37 338.89,-618.94 339.65,-614.45 340.51,-609.93"/>
<polygon fill="black" stroke="black" points="343.97,-610.51 342.54,-600.01 337.11,-609.11 343.97,-610.51"/>
<text text-anchor="middle" x="346.24" y="-627.17" font-family="Times,serif" font-size="14.00">?a</text>
</g>
<!-- 1&#45;&gt;0 -->
<g id="edge10" class="edge">
<title>1&#45;&gt;0</title>
<path fill="none" stroke="black" d="M524.59,-860.36C517.01,-875.05 509.07,-889.94 501.24,-903.85 497.67,-910.19 493.86,-916.71 489.96,-923.2"/>
<polygon fill="black" stroke="black" points="486.81,-921.64 484.62,-932.01 492.8,-925.27 486.81,-921.64"/>
<text text-anchor="middle" x="517.24" y="-892.65" font-family="Times,serif" font-size="14.00">?a</text>
</g>
<!-- 4&#45;&gt;3 -->
<g id="edge6" class="edge">
<title>4&#45;&gt;3</title>
<path fill="none" stroke="black" d="M361.84,-604.44C359.84,-618.49 357.78,-632.86 355.77,-646.92"/>
<polygon fill="black" stroke="black" points="352.27,-646.7 354.32,-657.1 359.2,-647.69 352.27,-646.7"/>
<text text-anchor="middle" x="366.74" y="-627.17" font-family="Times,serif" font-size="14.00">!y</text>
</g>
<!-- 5 -->
<g id="node7" class="node">
<title>5</title>
<ellipse fill="none" stroke="black" cx="542.24" cy="-160.51" rx="160.53" ry="160.53"/>
<text text-anchor="middle" x="542.24" y="-164.31" font-family="Times,serif" font-size="14.00">5 &lt; ({a})*.{a}.{a}.{a}.{a}.0</text>
<text text-anchor="middle" x="542.24" y="-149.31" font-family="Times,serif" font-size="14.00">{a}.{a}.{a}.0</text>
</g>
<!-- 4&#45;&gt;5 -->
<g id="edge8" class="edge">
<title>4&#45;&gt;5</title>
<path fill="none" stroke="black" d="M430.36,-384.04C441.67,-361.55 453.86,-337.3 465.88,-313.38"/>
<polygon fill="black" stroke="black" points="469.12,-314.74 470.48,-304.23 462.86,-311.6 469.12,-314.74"/>
<text text-anchor="middle" x="458.74" y="-342.83" font-family="Times,serif" font-size="14.00">!x</text>
</g>
<!-- 5&#45;&gt;0 -->
<g id="edge2" class="edge">
<title>5&#45;&gt;0</title>
<path fill="none" stroke="black" d="M624.83,-298.23C704.22,-449.15 797.26,-694.11 687.24,-870.85 651.91,-927.61 580.26,-957.76 524.59,-973.26"/>
<polygon fill="black" stroke="black" points="523.49,-969.93 514.74,-975.9 525.3,-976.69 523.49,-969.93"/>
<text text-anchor="middle" x="743.24" y="-627.17" font-family="Times,serif" font-size="14.00">?a</text>
</g>
</g>
</svg>
