<?xml version="1.0" encoding="UTF-8" standalone="no"?>
<!DOCTYPE svg PUBLIC "-//W3C//DTD SVG 1.1//EN"
 "http://www.w3.org/Graphics/SVG/1.1/DTD/svg11.dtd">
<!-- Generated by graphviz version 2.43.0 (0)
 -->
<!-- Title: %3 Pages: 1 -->
<svg width="191pt" height="346pt"
 viewBox="0.00 0.00 191.00 345.60" xmlns="http://www.w3.org/2000/svg" xmlns:xlink="http://www.w3.org/1999/xlink">
<g id="graph0" class="graph" transform="scale(1 1) rotate(0) translate(4 341.6)">
<title>%3</title>
<polygon fill="white" stroke="transparent" points="-4,4 -4,-341.6 187,-341.6 187,4 -4,4"/>
<!-- ENTRY -->
<g id="node1" class="node">
<title>ENTRY</title>
<ellipse fill="black" stroke="black" cx="106" cy="-335.8" rx="1.8" ry="1.8"/>
</g>
<!-- 0 -->
<g id="node2" class="node">
<title>0</title>
<ellipse fill="none" stroke="black" cx="106" cy="-279" rx="18" ry="18"/>
<text text-anchor="middle" x="106" y="-275.3" font-family="Times,serif" font-size="14.00">0</text>
</g>
<!-- ENTRY&#45;&gt;0 -->
<g id="edge1" class="edge">
<title>ENTRY&#45;&gt;0</title>
<path fill="none" stroke="black" d="M106,-333.85C106,-330.49 106,-318.73 106,-307.05"/>
<polygon fill="black" stroke="black" points="109.5,-307.02 106,-297.02 102.5,-307.02 109.5,-307.02"/>
</g>
<!-- 3 -->
<g id="node3" class="node">
<title>3</title>
<ellipse fill="none" stroke="black" cx="18" cy="-192" rx="18" ry="18"/>
<text text-anchor="middle" x="18" y="-188.3" font-family="Times,serif" font-size="14.00">3</text>
</g>
<!-- 0&#45;&gt;3 -->
<g id="edge2" class="edge">
<title>0&#45;&gt;3</title>
<path fill="none" stroke="black" d="M88.2,-274.71C70.49,-270.48 43.87,-261.38 29,-243 23.87,-236.66 21,-228.44 19.44,-220.5"/>
<polygon fill="black" stroke="black" points="22.88,-219.84 18.05,-210.41 15.94,-220.79 22.88,-219.84"/>
<text text-anchor="middle" x="36.5" y="-231.8" font-family="Times,serif" font-size="14.00">!y</text>
</g>
<!-- 2 -->
<g id="node6" class="node">
<title>2</title>
<ellipse fill="none" stroke="black" cx="82" cy="-192" rx="18" ry="18"/>
<text text-anchor="middle" x="82" y="-188.3" font-family="Times,serif" font-size="14.00">2</text>
</g>
<!-- 0&#45;&gt;2 -->
<g id="edge7" class="edge">
<title>0&#45;&gt;2</title>
<path fill="none" stroke="black" d="M89.2,-272.41C76.18,-267.09 59.06,-257.68 51,-243 44.95,-231.98 51.89,-220 60.72,-210.53"/>
<polygon fill="black" stroke="black" points="63.21,-212.99 68,-203.53 58.36,-207.94 63.21,-212.99"/>
<text text-anchor="middle" x="58" y="-231.8" font-family="Times,serif" font-size="14.00">!z</text>
</g>
<!-- 1 -->
<g id="node7" class="node">
<title>1</title>
<ellipse fill="none" stroke="black" cx="143" cy="-192" rx="18" ry="18"/>
<text text-anchor="middle" x="143" y="-188.3" font-family="Times,serif" font-size="14.00">1</text>
</g>
<!-- 0&#45;&gt;1 -->
<g id="edge9" class="edge">
<title>0&#45;&gt;1</title>
<path fill="none" stroke="black" d="M112.5,-262.18C116.58,-252.32 122.01,-239.38 127,-228 128.44,-224.72 129.98,-221.28 131.51,-217.88"/>
<polygon fill="black" stroke="black" points="134.76,-219.18 135.73,-208.63 128.39,-216.28 134.76,-219.18"/>
<text text-anchor="middle" x="134.5" y="-231.8" font-family="Times,serif" font-size="14.00">!x</text>
</g>
<!-- 4 -->
<g id="node4" class="node">
<title>4</title>
<ellipse fill="none" stroke="black" cx="57" cy="-105" rx="18" ry="18"/>
<text text-anchor="middle" x="57" y="-101.3" font-family="Times,serif" font-size="14.00">4</text>
</g>
<!-- 3&#45;&gt;4 -->
<g id="edge3" class="edge">
<title>3&#45;&gt;4</title>
<path fill="none" stroke="black" d="M15.12,-174.06C14.18,-164.02 14.36,-151.29 19,-141 22.29,-133.69 27.92,-127.22 33.85,-121.89"/>
<polygon fill="black" stroke="black" points="36.35,-124.37 41.93,-115.36 31.95,-118.93 36.35,-124.37"/>
<text text-anchor="middle" x="27" y="-144.8" font-family="Times,serif" font-size="14.00">?a</text>
</g>
<!-- 4&#45;&gt;3 -->
<g id="edge4" class="edge">
<title>4&#45;&gt;3</title>
<path fill="none" stroke="black" d="M50.22,-121.83C45.94,-131.7 40.26,-144.64 35,-156 33.48,-159.29 31.85,-162.73 30.22,-166.13"/>
<polygon fill="black" stroke="black" points="26.95,-164.85 25.74,-175.38 33.25,-167.9 26.95,-164.85"/>
<text text-anchor="middle" x="48.5" y="-144.8" font-family="Times,serif" font-size="14.00">!y</text>
</g>
<!-- 5 -->
<g id="node5" class="node">
<title>5</title>
<ellipse fill="none" stroke="black" cx="129" cy="-18" rx="18" ry="18"/>
<text text-anchor="middle" x="129" y="-14.3" font-family="Times,serif" font-size="14.00">5</text>
</g>
<!-- 4&#45;&gt;5 -->
<g id="edge5" class="edge">
<title>4&#45;&gt;5</title>
<path fill="none" stroke="black" d="M68.25,-90.72C79.77,-77.12 97.84,-55.79 111.28,-39.92"/>
<polygon fill="black" stroke="black" points="114.04,-42.08 117.83,-32.19 108.69,-37.56 114.04,-42.08"/>
<text text-anchor="middle" x="104.5" y="-57.8" font-family="Times,serif" font-size="14.00">!x</text>
</g>
<!-- 5&#45;&gt;0 -->
<g id="edge6" class="edge">
<title>5&#45;&gt;0</title>
<path fill="none" stroke="black" d="M134.87,-35.46C144.51,-63.47 163.29,-122.38 170,-174 172.06,-189.87 171.2,-194.05 170,-210 168.89,-224.79 173.29,-230.7 165,-243 157.2,-254.57 144.18,-262.89 132.35,-268.5"/>
<polygon fill="black" stroke="black" points="130.64,-265.42 122.84,-272.59 133.4,-271.85 130.64,-265.42"/>
<text text-anchor="middle" x="175" y="-144.8" font-family="Times,serif" font-size="14.00">?a</text>
</g>
<!-- 2&#45;&gt;0 -->
<g id="edge8" class="edge">
<title>2&#45;&gt;0</title>
<path fill="none" stroke="black" d="M82.57,-210.44C83.27,-220.19 84.77,-232.47 88,-243 89.13,-246.68 90.63,-250.43 92.29,-254.05"/>
<polygon fill="black" stroke="black" points="89.26,-255.82 96.89,-263.17 95.51,-252.66 89.26,-255.82"/>
<text text-anchor="middle" x="96" y="-231.8" font-family="Times,serif" font-size="14.00">?a</text>
</g>
<!-- 1&#45;&gt;0 -->
<g id="edge10" class="edge">
<title>1&#45;&gt;0</title>
<path fill="none" stroke="black" d="M145.78,-209.89C146.68,-219.92 146.5,-232.65 142,-243 139.01,-249.88 133.97,-256.08 128.59,-261.29"/>
<polygon fill="black" stroke="black" points="125.92,-258.98 120.67,-268.18 130.51,-264.26 125.92,-258.98"/>
<text text-anchor="middle" x="153" y="-231.8" font-family="Times,serif" font-size="14.00">?a</text>
</g>
</g>
</svg>
