<?xml version="1.0" encoding="UTF-8" standalone="no"?>
<!DOCTYPE svg PUBLIC "-//W3C//DTD SVG 1.1//EN"
 "http://www.w3.org/Graphics/SVG/1.1/DTD/svg11.dtd">
<!-- Generated by graphviz version 2.43.0 (0)
 -->
<!-- Title: %3 Pages: 1 -->
<svg width="252pt" height="498pt"
 viewBox="0.00 0.00 252.09 498.40" xmlns="http://www.w3.org/2000/svg" xmlns:xlink="http://www.w3.org/1999/xlink">
<g id="graph0" class="graph" transform="scale(1 1) rotate(0) translate(4 494.4)">
<title>%3</title>
<polygon fill="white" stroke="transparent" points="-4,4 -4,-494.4 248.09,-494.4 248.09,4 -4,4"/>
<!-- ENTRY -->
<g id="node1" class="node">
<title>ENTRY</title>
<ellipse fill="black" stroke="black" cx="121.54" cy="-488.6" rx="1.8" ry="1.8"/>
</g>
<!-- 0 -->
<g id="node5" class="node">
<title>0</title>
<ellipse fill="none" stroke="black" cx="121.54" cy="-393.26" rx="56.59" ry="56.59"/>
<text text-anchor="middle" x="121.54" y="-389.56" font-family="Times,serif" font-size="14.00">0 &lt; Eps.0</text>
</g>
<!-- ENTRY&#45;&gt;0 -->
<g id="edge1" class="edge">
<title>ENTRY&#45;&gt;0</title>
<path fill="none" stroke="black" d="M121.54,-486.55C121.54,-483.3 121.54,-472.81 121.54,-460"/>
<polygon fill="black" stroke="black" points="125.05,-459.84 121.54,-449.84 118.05,-459.84 125.05,-459.84"/>
</g>
<!-- 4 -->
<g id="node2" class="node">
<title>4</title>
<ellipse fill="none" stroke="red" cx="56.54" cy="-56.54" rx="56.59" ry="56.59"/>
<text text-anchor="middle" x="56.54" y="-52.84" font-family="Times,serif" font-size="14.00">4 &lt; Eps.3</text>
</g>
<!-- 2 -->
<g id="node3" class="node">
<title>2</title>
<ellipse fill="none" stroke="red" cx="187.54" cy="-56.54" rx="56.59" ry="56.59"/>
<text text-anchor="middle" x="187.54" y="-52.84" font-family="Times,serif" font-size="14.00">2 &lt; Eps.1</text>
</g>
<!-- 1 -->
<g id="node4" class="node">
<title>1</title>
<ellipse fill="none" stroke="black" cx="121.54" cy="-224.9" rx="60.62" ry="60.62"/>
<text text-anchor="middle" x="121.54" y="-228.7" font-family="Times,serif" font-size="14.00">1 &lt; {c}.3</text>
<text text-anchor="middle" x="121.54" y="-213.7" font-family="Times,serif" font-size="14.00">{b}.1</text>
</g>
<!-- 1&#45;&gt;4 -->
<g id="edge3" class="edge">
<title>1&#45;&gt;4</title>
<path fill="none" stroke="black" d="M99.72,-168.04C93.55,-152.26 86.81,-135.01 80.53,-118.92"/>
<polygon fill="black" stroke="black" points="83.79,-117.64 76.89,-109.6 77.27,-120.19 83.79,-117.64"/>
<text text-anchor="middle" x="99.54" y="-134.89" font-family="Times,serif" font-size="14.00">?c</text>
</g>
<!-- 1&#45;&gt;2 -->
<g id="edge2" class="edge">
<title>1&#45;&gt;2</title>
<path fill="none" stroke="black" d="M143.71,-168.04C150,-152.18 156.88,-134.83 163.29,-118.68"/>
<polygon fill="black" stroke="black" points="166.57,-119.91 167,-109.33 160.06,-117.33 166.57,-119.91"/>
<text text-anchor="middle" x="164.04" y="-134.89" font-family="Times,serif" font-size="14.00">?b</text>
</g>
<!-- 0&#45;&gt;1 -->
<g id="edge4" class="edge">
<title>0&#45;&gt;1</title>
<path fill="none" stroke="black" d="M121.54,-336.4C121.54,-323.46 121.54,-309.53 121.54,-296.07"/>
<polygon fill="black" stroke="black" points="125.05,-295.89 121.54,-285.89 118.05,-295.89 125.05,-295.89"/>
<text text-anchor="middle" x="129.04" y="-307.51" font-family="Times,serif" font-size="14.00">!a</text>
</g>
</g>
</svg>
