<?xml version="1.0" encoding="UTF-8" standalone="no"?>
<!DOCTYPE svg PUBLIC "-//W3C//DTD SVG 1.1//EN"
 "http://www.w3.org/Graphics/SVG/1.1/DTD/svg11.dtd">
<!-- Generated by graphviz version 2.43.0 (0)
 -->
<!-- Title: %3 Pages: 1 -->
<svg width="319pt" height="490pt"
 viewBox="0.00 0.00 319.09 489.87" xmlns="http://www.w3.org/2000/svg" xmlns:xlink="http://www.w3.org/1999/xlink">
<g id="graph0" class="graph" transform="scale(1 1) rotate(0) translate(4 485.87)">
<title>%3</title>
<polygon fill="white" stroke="transparent" points="-4,4 -4,-485.87 315.09,-485.87 315.09,4 -4,4"/>
<!-- ENTRY -->
<g id="node1" class="node">
<title>ENTRY</title>
<ellipse fill="black" stroke="black" cx="155.54" cy="-480.07" rx="1.8" ry="1.8"/>
</g>
<!-- 0 -->
<g id="node5" class="node">
<title>0</title>
<ellipse fill="none" stroke="black" cx="155.54" cy="-384.72" rx="56.59" ry="56.59"/>
<text text-anchor="middle" x="155.54" y="-381.02" font-family="Times,serif" font-size="14.00">0 &lt; Eps.0</text>
</g>
<!-- ENTRY&#45;&gt;0 -->
<g id="edge1" class="edge">
<title>ENTRY&#45;&gt;0</title>
<path fill="none" stroke="black" d="M155.54,-478.02C155.54,-474.77 155.54,-464.27 155.54,-451.47"/>
<polygon fill="black" stroke="black" points="159.05,-451.3 155.54,-441.3 152.05,-451.3 159.05,-451.3"/>
</g>
<!-- 3 -->
<g id="node2" class="node">
<title>3</title>
<ellipse fill="none" stroke="black" cx="56.54" cy="-220.63" rx="56.59" ry="56.59"/>
<text text-anchor="middle" x="56.54" y="-216.93" font-family="Times,serif" font-size="14.00">3 &lt; Eps.2</text>
</g>
<!-- 3&#45;&gt;3 -->
<g id="edge2" class="edge">
<title>3&#45;&gt;3</title>
<path fill="none" stroke="black" d="M112.78,-227.95C123.51,-227.08 131.09,-224.64 131.09,-220.63 131.09,-218.07 127.98,-216.15 122.92,-214.87"/>
<polygon fill="black" stroke="black" points="123.2,-211.37 112.78,-213.32 122.14,-218.29 123.2,-211.37"/>
<text text-anchor="middle" x="138.59" y="-216.93" font-family="Times,serif" font-size="14.00">!a</text>
</g>
<!-- 3&#45;&gt;3 -->
<g id="edge4" class="edge">
<title>3&#45;&gt;3</title>
<path fill="none" stroke="black" d="M111.19,-235.96C131.93,-236.56 149.09,-231.45 149.09,-220.63 149.09,-211.68 137.32,-206.64 121.5,-205.51"/>
<polygon fill="black" stroke="black" points="121.26,-202 111.19,-205.31 121.12,-209 121.26,-202"/>
<text text-anchor="middle" x="157.09" y="-216.93" font-family="Times,serif" font-size="14.00">!b</text>
</g>
<!-- 2 -->
<g id="node3" class="node">
<title>2</title>
<ellipse fill="none" stroke="black" cx="254.54" cy="-56.54" rx="56.59" ry="56.59"/>
<text text-anchor="middle" x="254.54" y="-52.84" font-family="Times,serif" font-size="14.00">2 &lt; Eps.1</text>
</g>
<!-- 1 -->
<g id="node4" class="node">
<title>1</title>
<ellipse fill="none" stroke="black" cx="254.54" cy="-220.63" rx="56.59" ry="56.59"/>
<text text-anchor="middle" x="254.54" y="-216.93" font-family="Times,serif" font-size="14.00">1 &lt; Eps.1</text>
</g>
<!-- 2&#45;&gt;1 -->
<g id="edge5" class="edge">
<title>2&#45;&gt;1</title>
<path fill="none" stroke="black" d="M254.54,-113.16C254.54,-126.21 254.54,-140.24 254.54,-153.7"/>
<polygon fill="black" stroke="black" points="251.05,-153.85 254.54,-163.85 258.05,-153.85 251.05,-153.85"/>
<text text-anchor="middle" x="262.04" y="-134.89" font-family="Times,serif" font-size="14.00">!a</text>
</g>
<!-- 1&#45;&gt;2 -->
<g id="edge3" class="edge">
<title>1&#45;&gt;2</title>
<path fill="none" stroke="black" d="M239.78,-165.68C238.45,-159.13 237.32,-152.48 236.54,-146.09 235.55,-137.81 235.74,-129.14 236.67,-120.61"/>
<polygon fill="black" stroke="black" points="240.14,-121.09 238.08,-110.7 233.21,-120.11 240.14,-121.09"/>
<text text-anchor="middle" x="244.04" y="-134.89" font-family="Times,serif" font-size="14.00">!a</text>
</g>
<!-- 0&#45;&gt;3 -->
<g id="edge6" class="edge">
<title>0&#45;&gt;3</title>
<path fill="none" stroke="black" d="M126.38,-335.97C115.25,-317.75 102.46,-296.81 90.89,-277.87"/>
<polygon fill="black" stroke="black" points="93.87,-276.04 85.68,-269.33 87.9,-279.69 93.87,-276.04"/>
<text text-anchor="middle" x="116.54" y="-298.98" font-family="Times,serif" font-size="14.00">?c</text>
</g>
<!-- 0&#45;&gt;1 -->
<g id="edge7" class="edge">
<title>0&#45;&gt;1</title>
<path fill="none" stroke="black" d="M184.71,-335.97C195.84,-317.75 208.63,-296.81 220.2,-277.87"/>
<polygon fill="black" stroke="black" points="223.19,-279.69 225.41,-269.33 217.22,-276.04 223.19,-279.69"/>
<text text-anchor="middle" x="216.04" y="-298.98" font-family="Times,serif" font-size="14.00">?b</text>
</g>
</g>
</svg>
