<?xml version="1.0" encoding="UTF-8" standalone="no"?>
<!DOCTYPE svg PUBLIC "-//W3C//DTD SVG 1.1//EN"
 "http://www.w3.org/Graphics/SVG/1.1/DTD/svg11.dtd">
<!-- Generated by graphviz version 2.43.0 (0)
 -->
<!-- Title: %3 Pages: 1 -->
<svg width="165pt" height="259pt"
 viewBox="0.00 0.00 165.00 258.60" xmlns="http://www.w3.org/2000/svg" xmlns:xlink="http://www.w3.org/1999/xlink">
<g id="graph0" class="graph" transform="scale(1 1) rotate(0) translate(4 254.6)">
<title>%3</title>
<polygon fill="white" stroke="transparent" points="-4,4 -4,-254.6 161,-254.6 161,4 -4,4"/>
<!-- ENTRY -->
<g id="node1" class="node">
<title>ENTRY</title>
<ellipse fill="black" stroke="black" cx="78" cy="-248.8" rx="1.8" ry="1.8"/>
</g>
<!-- 0 -->
<g id="node2" class="node">
<title>0</title>
<ellipse fill="none" stroke="black" cx="78" cy="-192" rx="18" ry="18"/>
<text text-anchor="middle" x="78" y="-188.3" font-family="Times,serif" font-size="14.00">0</text>
</g>
<!-- ENTRY&#45;&gt;0 -->
<g id="edge1" class="edge">
<title>ENTRY&#45;&gt;0</title>
<path fill="none" stroke="black" d="M78,-246.85C78,-243.49 78,-231.73 78,-220.05"/>
<polygon fill="black" stroke="black" points="81.5,-220.02 78,-210.02 74.5,-220.02 81.5,-220.02"/>
</g>
<!-- 3 -->
<g id="node3" class="node">
<title>3</title>
<ellipse fill="none" stroke="black" cx="18" cy="-105" rx="18" ry="18"/>
<text text-anchor="middle" x="18" y="-101.3" font-family="Times,serif" font-size="14.00">3</text>
</g>
<!-- 0&#45;&gt;3 -->
<g id="edge2" class="edge">
<title>0&#45;&gt;3</title>
<path fill="none" stroke="black" d="M68.09,-176.96C58.8,-163.8 44.75,-143.89 33.89,-128.51"/>
<polygon fill="black" stroke="black" points="36.55,-126.21 27.92,-120.06 30.83,-130.24 36.55,-126.21"/>
<text text-anchor="middle" x="60" y="-144.8" font-family="Times,serif" font-size="14.00">?c</text>
</g>
<!-- 1 -->
<g id="node4" class="node">
<title>1</title>
<ellipse fill="none" stroke="black" cx="139" cy="-105" rx="18" ry="18"/>
<text text-anchor="middle" x="139" y="-101.3" font-family="Times,serif" font-size="14.00">1</text>
</g>
<!-- 0&#45;&gt;1 -->
<g id="edge5" class="edge">
<title>0&#45;&gt;1</title>
<path fill="none" stroke="black" d="M88.07,-176.96C97.52,-163.8 111.81,-143.89 122.85,-128.51"/>
<polygon fill="black" stroke="black" points="125.93,-130.22 128.91,-120.06 120.24,-126.14 125.93,-130.22"/>
<text text-anchor="middle" x="120.5" y="-144.8" font-family="Times,serif" font-size="14.00">?b</text>
</g>
<!-- 3&#45;&gt;3 -->
<g id="edge3" class="edge">
<title>3&#45;&gt;3</title>
<path fill="none" stroke="black" d="M35.78,-108.78C45.31,-109.42 54,-108.16 54,-105 54,-103.08 50.77,-101.86 46.1,-101.34"/>
<polygon fill="black" stroke="black" points="45.82,-97.84 35.78,-101.22 45.74,-104.84 45.82,-97.84"/>
<text text-anchor="middle" x="62" y="-101.3" font-family="Times,serif" font-size="14.00">!b</text>
</g>
<!-- 3&#45;&gt;3 -->
<g id="edge4" class="edge">
<title>3&#45;&gt;3</title>
<path fill="none" stroke="black" d="M35.14,-111.14C52.58,-114.76 72,-112.71 72,-105 72,-98.8 59.43,-96.26 45.43,-97.39"/>
<polygon fill="black" stroke="black" points="44.55,-93.98 35.14,-98.86 45.54,-100.91 44.55,-93.98"/>
<text text-anchor="middle" x="79.5" y="-101.3" font-family="Times,serif" font-size="14.00">!a</text>
</g>
<!-- 2 -->
<g id="node5" class="node">
<title>2</title>
<ellipse fill="none" stroke="black" cx="139" cy="-18" rx="18" ry="18"/>
<text text-anchor="middle" x="139" y="-14.3" font-family="Times,serif" font-size="14.00">2</text>
</g>
<!-- 1&#45;&gt;2 -->
<g id="edge6" class="edge">
<title>1&#45;&gt;2</title>
<path fill="none" stroke="black" d="M129.14,-89.81C123.47,-79.94 118,-66.37 121,-54 121.91,-50.26 123.28,-46.47 124.88,-42.84"/>
<polygon fill="black" stroke="black" points="128.1,-44.22 129.46,-33.72 121.85,-41.09 128.1,-44.22"/>
<text text-anchor="middle" x="128.5" y="-57.8" font-family="Times,serif" font-size="14.00">!a</text>
</g>
<!-- 2&#45;&gt;1 -->
<g id="edge7" class="edge">
<title>2&#45;&gt;1</title>
<path fill="none" stroke="black" d="M139,-36.18C139,-47.81 139,-63.42 139,-76.73"/>
<polygon fill="black" stroke="black" points="135.5,-76.8 139,-86.8 142.5,-76.8 135.5,-76.8"/>
<text text-anchor="middle" x="146.5" y="-57.8" font-family="Times,serif" font-size="14.00">!a</text>
</g>
</g>
</svg>
