<?xml version="1.0" encoding="UTF-8" standalone="no"?>
<!DOCTYPE svg PUBLIC "-//W3C//DTD SVG 1.1//EN"
 "http://www.w3.org/Graphics/SVG/1.1/DTD/svg11.dtd">
<!-- Generated by graphviz version 2.43.0 (0)
 -->
<!-- Title: %3 Pages: 1 -->
<svg width="198pt" height="172pt"
 viewBox="0.00 0.00 198.00 171.60" xmlns="http://www.w3.org/2000/svg" xmlns:xlink="http://www.w3.org/1999/xlink">
<g id="graph0" class="graph" transform="scale(1 1) rotate(0) translate(4 167.6)">
<title>%3</title>
<polygon fill="white" stroke="transparent" points="-4,4 -4,-167.6 194,-167.6 194,4 -4,4"/>
<!-- ENTRY -->
<g id="node1" class="node">
<title>ENTRY</title>
<ellipse fill="black" stroke="black" cx="78" cy="-161.8" rx="1.8" ry="1.8"/>
</g>
<!-- 0 -->
<g id="node2" class="node">
<title>0</title>
<ellipse fill="none" stroke="black" cx="78" cy="-105" rx="18" ry="18"/>
<text text-anchor="middle" x="78" y="-101.3" font-family="Times,serif" font-size="14.00">0</text>
</g>
<!-- ENTRY&#45;&gt;0 -->
<g id="edge1" class="edge">
<title>ENTRY&#45;&gt;0</title>
<path fill="none" stroke="black" d="M78,-159.85C78,-156.49 78,-144.73 78,-133.05"/>
<polygon fill="black" stroke="black" points="81.5,-133.02 78,-123.02 74.5,-133.02 81.5,-133.02"/>
</g>
<!-- 2 -->
<g id="node3" class="node">
<title>2</title>
<ellipse fill="none" stroke="black" cx="18" cy="-18" rx="18" ry="18"/>
<text text-anchor="middle" x="18" y="-14.3" font-family="Times,serif" font-size="14.00">2</text>
</g>
<!-- 0&#45;&gt;2 -->
<g id="edge2" class="edge">
<title>0&#45;&gt;2</title>
<path fill="none" stroke="black" d="M68.09,-89.96C58.8,-76.8 44.75,-56.89 33.89,-41.51"/>
<polygon fill="black" stroke="black" points="36.55,-39.21 27.92,-33.06 30.83,-43.24 36.55,-39.21"/>
<text text-anchor="middle" x="60" y="-57.8" font-family="Times,serif" font-size="14.00">?c</text>
</g>
<!-- 1 -->
<g id="node4" class="node">
<title>1</title>
<ellipse fill="none" stroke="black" cx="139" cy="-18" rx="18" ry="18"/>
<text text-anchor="middle" x="139" y="-14.3" font-family="Times,serif" font-size="14.00">1</text>
</g>
<!-- 0&#45;&gt;1 -->
<g id="edge5" class="edge">
<title>0&#45;&gt;1</title>
<path fill="none" stroke="black" d="M88.07,-89.96C97.52,-76.8 111.81,-56.89 122.85,-41.51"/>
<polygon fill="black" stroke="black" points="125.93,-43.22 128.91,-33.06 120.24,-39.14 125.93,-43.22"/>
<text text-anchor="middle" x="120.5" y="-57.8" font-family="Times,serif" font-size="14.00">?b</text>
</g>
<!-- 2&#45;&gt;2 -->
<g id="edge3" class="edge">
<title>2&#45;&gt;2</title>
<path fill="none" stroke="black" d="M35.78,-21.78C45.31,-22.42 54,-21.16 54,-18 54,-16.08 50.77,-14.86 46.1,-14.34"/>
<polygon fill="black" stroke="black" points="45.82,-10.84 35.78,-14.22 45.74,-17.84 45.82,-10.84"/>
<text text-anchor="middle" x="62" y="-14.3" font-family="Times,serif" font-size="14.00">!b</text>
</g>
<!-- 2&#45;&gt;2 -->
<g id="edge4" class="edge">
<title>2&#45;&gt;2</title>
<path fill="none" stroke="black" d="M35.14,-24.14C52.58,-27.76 72,-25.71 72,-18 72,-11.8 59.43,-9.26 45.43,-10.39"/>
<polygon fill="black" stroke="black" points="44.55,-6.98 35.14,-11.86 45.54,-13.91 44.55,-6.98"/>
<text text-anchor="middle" x="79.5" y="-14.3" font-family="Times,serif" font-size="14.00">!a</text>
</g>
<!-- 1&#45;&gt;1 -->
<g id="edge6" class="edge">
<title>1&#45;&gt;1</title>
<path fill="none" stroke="black" d="M155.66,-25.38C165.62,-27.02 175,-24.56 175,-18 175,-13.8 171.15,-11.28 165.77,-10.44"/>
<polygon fill="black" stroke="black" points="165.6,-6.94 155.66,-10.62 165.72,-13.94 165.6,-6.94"/>
<text text-anchor="middle" x="182.5" y="-14.3" font-family="Times,serif" font-size="14.00">!a</text>
</g>
</g>
</svg>
