<?xml version="1.0" encoding="UTF-8" standalone="no"?>
<!DOCTYPE svg PUBLIC "-//W3C//DTD SVG 1.1//EN"
 "http://www.w3.org/Graphics/SVG/1.1/DTD/svg11.dtd">
<!-- Generated by graphviz version 2.43.0 (0)
 -->
<!-- Title: %3 Pages: 1 -->
<svg width="581pt" height="1562pt"
 viewBox="0.00 0.00 580.67 1562.07" xmlns="http://www.w3.org/2000/svg" xmlns:xlink="http://www.w3.org/1999/xlink">
<g id="graph0" class="graph" transform="scale(1 1) rotate(0) translate(4 1558.07)">
<title>%3</title>
<polygon fill="white" stroke="transparent" points="-4,4 -4,-1558.07 576.67,-1558.07 576.67,4 -4,4"/>
<!-- ENTRY -->
<g id="node1" class="node">
<title>ENTRY</title>
<ellipse fill="black" stroke="black" cx="248.6" cy="-1552.27" rx="1.8" ry="1.8"/>
</g>
<!-- 0 -->
<g id="node5" class="node">
<title>0</title>
<ellipse fill="none" stroke="black" cx="248.6" cy="-1381.95" rx="131.54" ry="131.54"/>
<text text-anchor="middle" x="248.6" y="-1393.25" font-family="Times,serif" font-size="14.00">0 &lt; Eps.0</text>
<text text-anchor="middle" x="248.6" y="-1378.25" font-family="Times,serif" font-size="14.00">({b})*.{b}.{b}.({b})*.2</text>
<text text-anchor="middle" x="248.6" y="-1363.25" font-family="Times,serif" font-size="14.00">{b}.({b})*.{b}.{b}.3</text>
</g>
<!-- ENTRY&#45;&gt;0 -->
<g id="edge1" class="edge">
<title>ENTRY&#45;&gt;0</title>
<path fill="none" stroke="black" d="M248.6,-1550.2C248.6,-1547.07 248.6,-1537.32 248.6,-1524"/>
<polygon fill="black" stroke="black" points="252.1,-1523.71 248.6,-1513.71 245.1,-1523.71 252.1,-1523.71"/>
</g>
<!-- 3 -->
<g id="node2" class="node">
<title>3</title>
<ellipse fill="none" stroke="black" cx="208.6" cy="-208.6" rx="208.69" ry="208.69"/>
<text text-anchor="middle" x="208.6" y="-219.9" font-family="Times,serif" font-size="14.00">3 &lt; {b}.{b}.{b}.2</text>
<text text-anchor="middle" x="208.6" y="-204.9" font-family="Times,serif" font-size="14.00">{b}.({b})*.{b}.{b}.{b}.{b}.{b}.{b}.2</text>
<text text-anchor="middle" x="208.6" y="-189.9" font-family="Times,serif" font-size="14.00">({b})*.{b}.{b}.({b})*.{b}.{b}.3</text>
</g>
<!-- 3&#45;&gt;0 -->
<g id="edge2" class="edge">
<title>3&#45;&gt;0</title>
<path fill="none" stroke="black" d="M198.98,-417.28C192.24,-617.95 188.53,-930.24 214.6,-1199.43 215.96,-1213.56 217.88,-1228.24 220.1,-1242.84"/>
<polygon fill="black" stroke="black" points="216.68,-1243.6 221.69,-1252.93 223.6,-1242.51 216.68,-1243.6"/>
<text text-anchor="middle" x="204.1" y="-842.13" font-family="Times,serif" font-size="14.00">?b</text>
</g>
<!-- 2 -->
<g id="node3" class="node">
<title>2</title>
<ellipse fill="none" stroke="black" cx="396.6" cy="-644.26" rx="176.14" ry="176.14"/>
<text text-anchor="middle" x="396.6" y="-655.56" font-family="Times,serif" font-size="14.00">2 &lt; {b}.3</text>
<text text-anchor="middle" x="396.6" y="-640.56" font-family="Times,serif" font-size="14.00">{b}.({b})*.{b}.{b}.{b}.{b}.3</text>
<text text-anchor="middle" x="396.6" y="-625.56" font-family="Times,serif" font-size="14.00">({b})*.{b}.{b}.({b})*.{b}.{b}.2</text>
</g>
<!-- 2&#45;&gt;3 -->
<g id="edge3" class="edge">
<title>2&#45;&gt;3</title>
<path fill="none" stroke="black" d="M326.86,-482.4C316.57,-458.67 305.87,-433.99 295.3,-409.59"/>
<polygon fill="black" stroke="black" points="298.44,-408.04 291.25,-400.25 292.02,-410.82 298.44,-408.04"/>
<text text-anchor="middle" x="315.1" y="-438.99" font-family="Times,serif" font-size="14.00">!a</text>
</g>
<!-- 1 -->
<g id="node4" class="node">
<title>1</title>
<ellipse fill="none" stroke="black" cx="387.6" cy="-1035.38" rx="164.1" ry="164.1"/>
<text text-anchor="middle" x="387.6" y="-1046.68" font-family="Times,serif" font-size="14.00">1 &lt; {b}.2</text>
<text text-anchor="middle" x="387.6" y="-1031.68" font-family="Times,serif" font-size="14.00">{b}.({b})*.{b}.{b}.{b}.{b}.2</text>
<text text-anchor="middle" x="387.6" y="-1016.68" font-family="Times,serif" font-size="14.00">({b})*.{b}.{b}.({b})*.3</text>
</g>
<!-- 1&#45;&gt;2 -->
<g id="edge4" class="edge">
<title>1&#45;&gt;2</title>
<path fill="none" stroke="black" d="M391.37,-871.33C391.68,-857.9 391.99,-844.26 392.31,-830.68"/>
<polygon fill="black" stroke="black" points="395.82,-830.39 392.55,-820.31 388.82,-830.23 395.82,-830.39"/>
<text text-anchor="middle" x="399.1" y="-842.13" font-family="Times,serif" font-size="14.00">!a</text>
</g>
<!-- 0&#45;&gt;1 -->
<g id="edge5" class="edge">
<title>0&#45;&gt;1</title>
<path fill="none" stroke="black" d="M297.6,-1259.47C305.74,-1239.3 314.29,-1218.11 322.74,-1197.15"/>
<polygon fill="black" stroke="black" points="325.99,-1198.45 326.49,-1187.86 319.5,-1195.83 325.99,-1198.45"/>
<text text-anchor="middle" x="321.1" y="-1221.23" font-family="Times,serif" font-size="14.00">!a</text>
</g>
</g>
</svg>
