<?xml version="1.0" encoding="UTF-8" standalone="no"?>
<!DOCTYPE svg PUBLIC "-//W3C//DTD SVG 1.1//EN"
 "http://www.w3.org/Graphics/SVG/1.1/DTD/svg11.dtd">
<!-- Generated by graphviz version 2.43.0 (0)
 -->
<!-- Title: %3 Pages: 1 -->
<svg width="154pt" height="162pt"
 viewBox="0.00 0.00 154.09 161.69" xmlns="http://www.w3.org/2000/svg" xmlns:xlink="http://www.w3.org/1999/xlink">
<g id="graph0" class="graph" transform="scale(1 1) rotate(0) translate(4 157.69)">
<title>%3</title>
<polygon fill="white" stroke="transparent" points="-4,4 -4,-157.69 150.09,-157.69 150.09,4 -4,4"/>
<!-- ENTRY -->
<g id="node1" class="node">
<title>ENTRY</title>
<ellipse fill="black" stroke="black" cx="56.54" cy="-151.89" rx="1.8" ry="1.8"/>
</g>
<!-- 0 -->
<g id="node2" class="node">
<title>0</title>
<ellipse fill="none" stroke="black" cx="56.54" cy="-56.54" rx="56.59" ry="56.59"/>
<text text-anchor="middle" x="56.54" y="-52.84" font-family="Times,serif" font-size="14.00">0 &lt; Eps.0</text>
</g>
<!-- ENTRY&#45;&gt;0 -->
<g id="edge1" class="edge">
<title>ENTRY&#45;&gt;0</title>
<path fill="none" stroke="black" d="M56.54,-149.84C56.54,-146.59 56.54,-136.09 56.54,-123.29"/>
<polygon fill="black" stroke="black" points="60.05,-123.12 56.54,-113.12 53.05,-123.12 60.05,-123.12"/>
</g>
<!-- 0&#45;&gt;0 -->
<g id="edge2" class="edge">
<title>0&#45;&gt;0</title>
<path fill="none" stroke="black" d="M111.81,-69.89C123.05,-68.44 131.09,-63.99 131.09,-56.54 131.09,-51.54 127.46,-47.89 121.67,-45.6"/>
<polygon fill="black" stroke="black" points="122.35,-42.16 111.81,-43.2 120.7,-48.96 122.35,-42.16"/>
<text text-anchor="middle" x="138.59" y="-52.84" font-family="Times,serif" font-size="14.00">!a</text>
</g>
</g>
</svg>
