<?xml version="1.0" encoding="UTF-8" standalone="no"?>
<!DOCTYPE svg PUBLIC "-//W3C//DTD SVG 1.1//EN"
 "http://www.w3.org/Graphics/SVG/1.1/DTD/svg11.dtd">
<!-- Generated by graphviz version 2.43.0 (0)
 -->
<!-- Title: %3 Pages: 1 -->
<svg width="252pt" height="500pt"
 viewBox="0.00 0.00 252.09 499.82" xmlns="http://www.w3.org/2000/svg" xmlns:xlink="http://www.w3.org/1999/xlink">
<g id="graph0" class="graph" transform="scale(1 1) rotate(0) translate(4 495.82)">
<title>%3</title>
<polygon fill="white" stroke="transparent" points="-4,4 -4,-495.82 248.09,-495.82 248.09,4 -4,4"/>
<!-- ENTRY -->
<g id="node1" class="node">
<title>ENTRY</title>
<ellipse fill="black" stroke="black" cx="121.54" cy="-490.02" rx="1.8" ry="1.8"/>
</g>
<!-- 0 -->
<g id="node5" class="node">
<title>0</title>
<ellipse fill="none" stroke="black" cx="121.54" cy="-394.67" rx="56.59" ry="56.59"/>
<text text-anchor="middle" x="121.54" y="-390.97" font-family="Times,serif" font-size="14.00">0 &lt; Eps.0</text>
</g>
<!-- ENTRY&#45;&gt;0 -->
<g id="edge1" class="edge">
<title>ENTRY&#45;&gt;0</title>
<path fill="none" stroke="black" d="M121.54,-487.97C121.54,-484.71 121.54,-474.22 121.54,-461.41"/>
<polygon fill="black" stroke="black" points="125.05,-461.25 121.54,-451.25 118.05,-461.25 125.05,-461.25"/>
</g>
<!-- 3 -->
<g id="node2" class="node">
<title>3</title>
<ellipse fill="none" stroke="red" cx="56.54" cy="-56.54" rx="56.59" ry="56.59"/>
<text text-anchor="middle" x="56.54" y="-52.84" font-family="Times,serif" font-size="14.00">3 &lt; Eps.4</text>
</g>
<!-- 2 -->
<g id="node3" class="node">
<title>2</title>
<ellipse fill="none" stroke="red" cx="187.54" cy="-56.54" rx="56.59" ry="56.59"/>
<text text-anchor="middle" x="187.54" y="-52.84" font-family="Times,serif" font-size="14.00">2 &lt; Eps.2</text>
</g>
<!-- 1 -->
<g id="node4" class="node">
<title>1</title>
<ellipse fill="none" stroke="black" cx="121.54" cy="-225.61" rx="61.54" ry="61.54"/>
<text text-anchor="middle" x="121.54" y="-229.41" font-family="Times,serif" font-size="14.00">1 &lt; {b}.2</text>
<text text-anchor="middle" x="121.54" y="-214.41" font-family="Times,serif" font-size="14.00">{c}.4</text>
</g>
<!-- 1&#45;&gt;3 -->
<g id="edge3" class="edge">
<title>1&#45;&gt;3</title>
<path fill="none" stroke="black" d="M99.54,-168.05C93.44,-152.37 86.79,-135.27 80.58,-119.31"/>
<polygon fill="black" stroke="black" points="83.67,-117.6 76.78,-109.55 77.14,-120.13 83.67,-117.6"/>
<text text-anchor="middle" x="99.54" y="-134.89" font-family="Times,serif" font-size="14.00">?c</text>
</g>
<!-- 1&#45;&gt;2 -->
<g id="edge2" class="edge">
<title>1&#45;&gt;2</title>
<path fill="none" stroke="black" d="M143.89,-168.05C150.14,-152.22 156.97,-134.95 163.32,-118.86"/>
<polygon fill="black" stroke="black" points="166.58,-120.13 167,-109.55 160.07,-117.56 166.58,-120.13"/>
<text text-anchor="middle" x="164.04" y="-134.89" font-family="Times,serif" font-size="14.00">?b</text>
</g>
<!-- 0&#45;&gt;1 -->
<g id="edge4" class="edge">
<title>0&#45;&gt;1</title>
<path fill="none" stroke="black" d="M121.54,-338.04C121.54,-325.03 121.54,-311 121.54,-297.43"/>
<polygon fill="black" stroke="black" points="125.05,-297.17 121.54,-287.17 118.05,-297.17 125.05,-297.17"/>
<text text-anchor="middle" x="129.04" y="-308.93" font-family="Times,serif" font-size="14.00">!a</text>
</g>
</g>
</svg>
