<?xml version="1.0" encoding="UTF-8" standalone="no"?>
<!DOCTYPE svg PUBLIC "-//W3C//DTD SVG 1.1//EN"
 "http://www.w3.org/Graphics/SVG/1.1/DTD/svg11.dtd">
<!-- Generated by graphviz version 2.43.0 (0)
 -->
<!-- Title: %3 Pages: 1 -->
<svg width="170pt" height="259pt"
 viewBox="0.00 0.00 170.00 258.60" xmlns="http://www.w3.org/2000/svg" xmlns:xlink="http://www.w3.org/1999/xlink">
<g id="graph0" class="graph" transform="scale(1 1) rotate(0) translate(4 254.6)">
<title>%3</title>
<polygon fill="white" stroke="transparent" points="-4,4 -4,-254.6 166,-254.6 166,4 -4,4"/>
<!-- ENTRY -->
<g id="node1" class="node">
<title>ENTRY</title>
<ellipse fill="black" stroke="black" cx="68" cy="-248.8" rx="1.8" ry="1.8"/>
</g>
<!-- 0 -->
<g id="node2" class="node">
<title>0</title>
<ellipse fill="none" stroke="black" cx="68" cy="-192" rx="18" ry="18"/>
<text text-anchor="middle" x="68" y="-188.3" font-family="Times,serif" font-size="14.00">0</text>
</g>
<!-- ENTRY&#45;&gt;0 -->
<g id="edge1" class="edge">
<title>ENTRY&#45;&gt;0</title>
<path fill="none" stroke="black" d="M68,-246.85C68,-243.49 68,-231.73 68,-220.05"/>
<polygon fill="black" stroke="black" points="71.5,-220.02 68,-210.02 64.5,-220.02 71.5,-220.02"/>
</g>
<!-- 3 -->
<g id="node3" class="node">
<title>3</title>
<ellipse fill="none" stroke="black" cx="42" cy="-105" rx="18" ry="18"/>
<text text-anchor="middle" x="42" y="-101.3" font-family="Times,serif" font-size="14.00">3</text>
</g>
<!-- 0&#45;&gt;3 -->
<g id="edge2" class="edge">
<title>0&#45;&gt;3</title>
<path fill="none" stroke="black" d="M61.09,-175.15C58.66,-169.21 56.02,-162.36 54,-156 51.62,-148.51 49.46,-140.27 47.64,-132.67"/>
<polygon fill="black" stroke="black" points="51.04,-131.8 45.4,-122.83 44.21,-133.36 51.04,-131.8"/>
<text text-anchor="middle" x="62" y="-144.8" font-family="Times,serif" font-size="14.00">?c</text>
</g>
<!-- 1 -->
<g id="node5" class="node">
<title>1</title>
<ellipse fill="none" stroke="black" cx="105" cy="-105" rx="18" ry="18"/>
<text text-anchor="middle" x="105" y="-101.3" font-family="Times,serif" font-size="14.00">1</text>
</g>
<!-- 0&#45;&gt;1 -->
<g id="edge5" class="edge">
<title>0&#45;&gt;1</title>
<path fill="none" stroke="black" d="M74.96,-175.01C80.33,-162.66 87.87,-145.35 94.05,-131.15"/>
<polygon fill="black" stroke="black" points="97.29,-132.48 98.07,-121.92 90.87,-129.69 97.29,-132.48"/>
<text text-anchor="middle" x="96.5" y="-144.8" font-family="Times,serif" font-size="14.00">?b</text>
</g>
<!-- 4 -->
<g id="node4" class="node">
<title>4</title>
<ellipse fill="none" stroke="black" cx="18" cy="-18" rx="18" ry="18"/>
<text text-anchor="middle" x="18" y="-14.3" font-family="Times,serif" font-size="14.00">4</text>
</g>
<!-- 3&#45;&gt;4 -->
<g id="edge3" class="edge">
<title>3&#45;&gt;4</title>
<path fill="none" stroke="black" d="M37.26,-87.21C33.88,-75.25 29.28,-58.96 25.42,-45.29"/>
<polygon fill="black" stroke="black" points="28.74,-44.14 22.65,-35.47 22,-46.04 28.74,-44.14"/>
<text text-anchor="middle" x="39.5" y="-57.8" font-family="Times,serif" font-size="14.00">!a</text>
</g>
<!-- 4&#45;&gt;4 -->
<g id="edge4" class="edge">
<title>4&#45;&gt;4</title>
<path fill="none" stroke="black" d="M34.66,-25.38C44.62,-27.02 54,-24.56 54,-18 54,-13.8 50.15,-11.28 44.77,-10.44"/>
<polygon fill="black" stroke="black" points="44.6,-6.94 34.66,-10.62 44.72,-13.94 44.6,-6.94"/>
<text text-anchor="middle" x="64" y="-14.3" font-family="Times,serif" font-size="14.00">?w</text>
</g>
<!-- 2 -->
<g id="node6" class="node">
<title>2</title>
<ellipse fill="none" stroke="black" cx="110" cy="-18" rx="18" ry="18"/>
<text text-anchor="middle" x="110" y="-14.3" font-family="Times,serif" font-size="14.00">2</text>
</g>
<!-- 1&#45;&gt;2 -->
<g id="edge6" class="edge">
<title>1&#45;&gt;2</title>
<path fill="none" stroke="black" d="M106.01,-86.8C106.7,-75.16 107.61,-59.55 108.4,-46.24"/>
<polygon fill="black" stroke="black" points="111.9,-46.36 108.99,-36.18 104.91,-45.95 111.9,-46.36"/>
<text text-anchor="middle" x="114.5" y="-57.8" font-family="Times,serif" font-size="14.00">!a</text>
</g>
<!-- 2&#45;&gt;2 -->
<g id="edge7" class="edge">
<title>2&#45;&gt;2</title>
<path fill="none" stroke="black" d="M126.66,-25.38C136.62,-27.02 146,-24.56 146,-18 146,-13.8 142.15,-11.28 136.77,-10.44"/>
<polygon fill="black" stroke="black" points="136.6,-6.94 126.66,-10.62 136.72,-13.94 136.6,-6.94"/>
<text text-anchor="middle" x="154" y="-14.3" font-family="Times,serif" font-size="14.00">!u</text>
</g>
</g>
</svg>
