<?xml version="1.0" encoding="UTF-8" standalone="no"?>
<!DOCTYPE svg PUBLIC "-//W3C//DTD SVG 1.1//EN"
 "http://www.w3.org/Graphics/SVG/1.1/DTD/svg11.dtd">
<!-- Generated by graphviz version 2.43.0 (0)
 -->
<!-- Title: %3 Pages: 1 -->
<svg width="813pt" height="1730pt"
 viewBox="0.00 0.00 812.79 1730.31" xmlns="http://www.w3.org/2000/svg" xmlns:xlink="http://www.w3.org/1999/xlink">
<g id="graph0" class="graph" transform="scale(1 1) rotate(0) translate(4 1726.31)">
<title>%3</title>
<polygon fill="white" stroke="transparent" points="-4,4 -4,-1726.31 808.79,-1726.31 808.79,4 -4,4"/>
<!-- ENTRY -->
<g id="node1" class="node">
<title>ENTRY</title>
<ellipse fill="black" stroke="black" cx="289.28" cy="-1176.18" rx="1.8" ry="1.8"/>
</g>
<!-- 0 -->
<g id="node6" class="node">
<title>0</title>
<ellipse fill="none" stroke="black" cx="305.28" cy="-838.1" rx="160.53" ry="160.53"/>
<text text-anchor="middle" x="305.28" y="-849.4" font-family="Times,serif" font-size="14.00">0 &lt; ({a,b})*.{a}.{a}.({a})*.1</text>
<text text-anchor="middle" x="305.28" y="-834.4" font-family="Times,serif" font-size="14.00">Eps.0</text>
<text text-anchor="middle" x="305.28" y="-819.4" font-family="Times,serif" font-size="14.00">({a,b})*.{b}.4</text>
</g>
<!-- ENTRY&#45;&gt;0 -->
<g id="edge1" class="edge">
<title>ENTRY&#45;&gt;0</title>
<path fill="none" stroke="black" d="M289.33,-1174.22C289.78,-1164.75 293.48,-1087.03 297.2,-1008.82"/>
<polygon fill="black" stroke="black" points="300.7,-1008.95 297.68,-998.79 293.71,-1008.61 300.7,-1008.95"/>
</g>
<!-- 5 -->
<g id="node2" class="node">
<title>5</title>
<ellipse fill="none" stroke="black" cx="435.28" cy="-1436.49" rx="82.96" ry="82.96"/>
<text text-anchor="middle" x="435.28" y="-1440.29" font-family="Times,serif" font-size="14.00">5 &lt; ({a,b})*.0</text>
<text text-anchor="middle" x="435.28" y="-1425.29" font-family="Times,serif" font-size="14.00">Eps.1</text>
</g>
<!-- 6 -->
<g id="node3" class="node">
<title>6</title>
<ellipse fill="none" stroke="black" cx="435.28" cy="-1176.18" rx="126.64" ry="126.64"/>
<text text-anchor="middle" x="435.28" y="-1194.98" font-family="Times,serif" font-size="14.00">6 &lt; ({a,b})*.{a}.{b}.4</text>
<text text-anchor="middle" x="435.28" y="-1179.98" font-family="Times,serif" font-size="14.00">{a}.1</text>
<text text-anchor="middle" x="435.28" y="-1164.98" font-family="Times,serif" font-size="14.00">{b}.4</text>
<text text-anchor="middle" x="435.28" y="-1149.98" font-family="Times,serif" font-size="14.00">({a,b})*.{a}.{a}.1</text>
</g>
<!-- 5&#45;&gt;6 -->
<g id="edge7" class="edge">
<title>5&#45;&gt;6</title>
<path fill="none" stroke="black" d="M435.28,-1353.4C435.28,-1340.45 435.28,-1326.76 435.28,-1312.97"/>
<polygon fill="black" stroke="black" points="438.78,-1312.92 435.28,-1302.92 431.78,-1312.92 438.78,-1312.92"/>
<text text-anchor="middle" x="442.78" y="-1324.56" font-family="Times,serif" font-size="14.00">!x</text>
</g>
<!-- 6&#45;&gt;0 -->
<g id="edge4" class="edge">
<title>6&#45;&gt;0</title>
<path fill="none" stroke="black" d="M389.81,-1057.64C382.32,-1038.27 374.45,-1017.92 366.65,-997.75"/>
<polygon fill="black" stroke="black" points="369.82,-996.25 362.95,-988.19 363.29,-998.78 369.82,-996.25"/>
<text text-anchor="middle" x="384.78" y="-1020.41" font-family="Times,serif" font-size="14.00">!x</text>
</g>
<!-- 1 -->
<g id="node4" class="node">
<title>1</title>
<ellipse fill="none" stroke="black" cx="305.28" cy="-466.07" rx="160.53" ry="160.53"/>
<text text-anchor="middle" x="305.28" y="-484.87" font-family="Times,serif" font-size="14.00">1 &lt; ({a,b})*.{a}.{a}.({a})*.1</text>
<text text-anchor="middle" x="305.28" y="-469.87" font-family="Times,serif" font-size="14.00">Eps.1</text>
<text text-anchor="middle" x="305.28" y="-454.87" font-family="Times,serif" font-size="14.00">{a}.({a})*.1</text>
<text text-anchor="middle" x="305.28" y="-439.87" font-family="Times,serif" font-size="14.00">({a,b})*.{b}.4</text>
</g>
<!-- 2 -->
<g id="node5" class="node">
<title>2</title>
<ellipse fill="none" stroke="black" cx="127.28" cy="-127.28" rx="127.06" ry="127.06"/>
<text text-anchor="middle" x="127.28" y="-153.58" font-family="Times,serif" font-size="14.00">2 &lt; ({a,b})*.{b}.{b}.4</text>
<text text-anchor="middle" x="127.28" y="-138.58" font-family="Times,serif" font-size="14.00">{a}.1</text>
<text text-anchor="middle" x="127.28" y="-123.58" font-family="Times,serif" font-size="14.00">{a}.({a})*.{a}.1</text>
<text text-anchor="middle" x="127.28" y="-108.58" font-family="Times,serif" font-size="14.00">{b}.4</text>
<text text-anchor="middle" x="127.28" y="-93.58" font-family="Times,serif" font-size="14.00">{a}.({a})*.{b}.4</text>
</g>
<!-- 1&#45;&gt;2 -->
<g id="edge3" class="edge">
<title>1&#45;&gt;2</title>
<path fill="none" stroke="black" d="M230.56,-323.71C217.43,-298.85 203.87,-273.2 191.07,-248.98"/>
<polygon fill="black" stroke="black" points="194.16,-247.33 186.39,-240.12 187.97,-250.6 194.16,-247.33"/>
<text text-anchor="middle" x="218.78" y="-276.36" font-family="Times,serif" font-size="14.00">!x</text>
</g>
<!-- 2&#45;&gt;0 -->
<g id="edge2" class="edge">
<title>2&#45;&gt;0</title>
<path fill="none" stroke="black" d="M101.05,-251.89C84.74,-355.44 74.58,-505.35 120.28,-626.58 133.39,-661.38 155.17,-694.16 179.26,-723.03"/>
<polygon fill="black" stroke="black" points="176.62,-725.32 185.77,-730.67 181.95,-720.79 176.62,-725.32"/>
<text text-anchor="middle" x="127.78" y="-462.37" font-family="Times,serif" font-size="14.00">!x</text>
</g>
<!-- 0&#45;&gt;1 -->
<g id="edge6" class="edge">
<title>0&#45;&gt;1</title>
<path fill="none" stroke="black" d="M305.28,-677.49C305.28,-664.08 305.28,-650.5 305.28,-637.02"/>
<polygon fill="black" stroke="black" points="308.78,-636.74 305.28,-626.74 301.78,-636.74 308.78,-636.74"/>
<text text-anchor="middle" x="313.28" y="-648.38" font-family="Times,serif" font-size="14.00">?a</text>
</g>
<!-- 3 -->
<g id="node8" class="node">
<title>3</title>
<ellipse fill="none" stroke="red" cx="644.28" cy="-466.07" rx="160.53" ry="160.53"/>
<text text-anchor="middle" x="644.28" y="-477.37" font-family="Times,serif" font-size="14.00">3 &lt; ({a,b})*.{a}.{a}.({a})*.1</text>
<text text-anchor="middle" x="644.28" y="-462.37" font-family="Times,serif" font-size="14.00">Eps.4</text>
<text text-anchor="middle" x="644.28" y="-447.37" font-family="Times,serif" font-size="14.00">({a,b})*.{b}.4</text>
</g>
<!-- 0&#45;&gt;3 -->
<g id="edge8" class="edge">
<title>0&#45;&gt;3</title>
<path fill="none" stroke="black" d="M413.24,-719.26C450.19,-678.93 491.65,-633.67 529.15,-592.74"/>
<polygon fill="black" stroke="black" points="531.93,-594.89 536.1,-585.15 526.76,-590.16 531.93,-594.89"/>
<text text-anchor="middle" x="482.78" y="-648.38" font-family="Times,serif" font-size="14.00">?b</text>
</g>
<!-- 4 -->
<g id="node7" class="node">
<title>4</title>
<ellipse fill="none" stroke="black" cx="435.28" cy="-1646.26" rx="76.09" ry="76.09"/>
<text text-anchor="middle" x="435.28" y="-1642.56" font-family="Times,serif" font-size="14.00">4 &lt; ({a,b})*.0</text>
</g>
<!-- 4&#45;&gt;5 -->
<g id="edge5" class="edge">
<title>4&#45;&gt;5</title>
<path fill="none" stroke="black" d="M435.28,-1569.96C435.28,-1556.91 435.28,-1543.21 435.28,-1529.77"/>
<polygon fill="black" stroke="black" points="438.78,-1529.56 435.28,-1519.56 431.78,-1529.56 438.78,-1529.56"/>
<text text-anchor="middle" x="443.28" y="-1541.02" font-family="Times,serif" font-size="14.00">?a</text>
</g>
<!-- 4&#45;&gt;4 -->
<g id="edge9" class="edge">
<title>4&#45;&gt;4</title>
<path fill="none" stroke="black" d="M509.4,-1663.53C521.23,-1661 529.32,-1655.25 529.32,-1646.26 529.32,-1640.09 525.5,-1635.43 519.26,-1632.31"/>
<polygon fill="black" stroke="black" points="519.99,-1628.86 509.4,-1629 517.76,-1635.5 519.99,-1628.86"/>
<text text-anchor="middle" x="537.82" y="-1642.56" font-family="Times,serif" font-size="14.00">?b</text>
</g>
</g>
</svg>
