<?xml version="1.0" encoding="UTF-8" standalone="no"?>
<!DOCTYPE svg PUBLIC "-//W3C//DTD SVG 1.1//EN"
 "http://www.w3.org/Graphics/SVG/1.1/DTD/svg11.dtd">
<!-- Generated by graphviz version 2.43.0 (0)
 -->
<!-- Title: %3 Pages: 1 -->
<svg width="407pt" height="1580pt"
 viewBox="0.00 0.00 406.60 1580.50" xmlns="http://www.w3.org/2000/svg" xmlns:xlink="http://www.w3.org/1999/xlink">
<g id="graph0" class="graph" transform="scale(1 1) rotate(0) translate(4 1576.5)">
<title>%3</title>
<polygon fill="white" stroke="transparent" points="-4,4 -4,-1576.5 402.6,-1576.5 402.6,4 -4,4"/>
<!-- ENTRY -->
<g id="node1" class="node">
<title>ENTRY</title>
<ellipse fill="black" stroke="black" cx="124.79" cy="-1570.7" rx="1.8" ry="1.8"/>
</g>
<!-- 0 -->
<g id="node3" class="node">
<title>0</title>
<ellipse fill="none" stroke="black" cx="124.79" cy="-1470.38" rx="61.54" ry="61.54"/>
<text text-anchor="middle" x="124.79" y="-1474.18" font-family="Times,serif" font-size="14.00">0 &lt; Eps.4</text>
<text text-anchor="middle" x="124.79" y="-1459.18" font-family="Times,serif" font-size="14.00">Eps.0</text>
</g>
<!-- ENTRY&#45;&gt;0 -->
<g id="edge1" class="edge">
<title>ENTRY&#45;&gt;0</title>
<path fill="none" stroke="black" d="M124.79,-1568.59C124.79,-1565.3 124.79,-1554.97 124.79,-1542.2"/>
<polygon fill="black" stroke="black" points="128.29,-1542.04 124.79,-1532.04 121.29,-1542.04 128.29,-1542.04"/>
</g>
<!-- 3 -->
<g id="node2" class="node">
<title>3</title>
<ellipse fill="none" stroke="black" cx="124.79" cy="-647.95" rx="98.58" ry="98.58"/>
<text text-anchor="middle" x="124.79" y="-644.25" font-family="Times,serif" font-size="14.00">3 &lt; ({x1}.{x2})*.3</text>
</g>
<!-- 3&#45;&gt;0 -->
<g id="edge4" class="edge">
<title>3&#45;&gt;0</title>
<path fill="none" stroke="black" d="M124.79,-747C124.79,-914.47 124.79,-1251.75 124.79,-1398.49"/>
<polygon fill="black" stroke="black" points="121.29,-1398.72 124.79,-1408.72 128.29,-1398.72 121.29,-1398.72"/>
<text text-anchor="middle" x="132.79" y="-1067.03" font-family="Times,serif" font-size="14.00">?z</text>
</g>
<!-- 4 -->
<g id="node7" class="node">
<title>4</title>
<ellipse fill="none" stroke="black" cx="124.79" cy="-373.37" rx="124.58" ry="124.58"/>
<text text-anchor="middle" x="124.79" y="-369.67" font-family="Times,serif" font-size="14.00">4 &lt; {x2}.({x1}.{x2})*.3</text>
</g>
<!-- 3&#45;&gt;4 -->
<g id="edge7" class="edge">
<title>3&#45;&gt;4</title>
<path fill="none" stroke="black" d="M124.79,-548.93C124.79,-535.91 124.79,-522.39 124.79,-508.9"/>
<polygon fill="black" stroke="black" points="128.29,-508.59 124.79,-498.59 121.29,-508.59 128.29,-508.59"/>
<text text-anchor="middle" x="137.29" y="-519.96" font-family="Times,serif" font-size="14.00">?x1</text>
</g>
<!-- 1 -->
<g id="node6" class="node">
<title>1</title>
<ellipse fill="none" stroke="black" cx="267.79" cy="-1227.04" rx="130.63" ry="130.63"/>
<text text-anchor="middle" x="267.79" y="-1230.84" font-family="Times,serif" font-size="14.00">1 &lt; {x1}.{x2}.3</text>
<text text-anchor="middle" x="267.79" y="-1215.84" font-family="Times,serif" font-size="14.00">{x1}.{x2}.{x1}.{x2}.3</text>
</g>
<!-- 0&#45;&gt;1 -->
<g id="edge5" class="edge">
<title>0&#45;&gt;1</title>
<path fill="none" stroke="black" d="M155.82,-1417.01C167.74,-1396.89 181.91,-1372.98 196.08,-1349.06"/>
<polygon fill="black" stroke="black" points="199.21,-1350.64 201.3,-1340.25 193.19,-1347.07 199.21,-1350.64"/>
<text text-anchor="middle" x="189.29" y="-1379.66" font-family="Times,serif" font-size="14.00">!w</text>
</g>
<!-- 2 -->
<g id="node4" class="node">
<title>2</title>
<ellipse fill="none" stroke="black" cx="263.79" cy="-921.49" rx="123.99" ry="123.99"/>
<text text-anchor="middle" x="263.79" y="-925.29" font-family="Times,serif" font-size="14.00">2 &lt; {x2}.{x1}.{x2}.3</text>
<text text-anchor="middle" x="263.79" y="-910.29" font-family="Times,serif" font-size="14.00">{x2}.3</text>
</g>
<!-- 2&#45;&gt;3 -->
<g id="edge6" class="edge">
<title>2&#45;&gt;3</title>
<path fill="none" stroke="black" d="M207.65,-810.83C196.58,-789.19 185.03,-766.63 174.2,-745.47"/>
<polygon fill="black" stroke="black" points="177.27,-743.8 169.6,-736.49 171.04,-746.99 177.27,-743.8"/>
<text text-anchor="middle" x="203.29" y="-768.54" font-family="Times,serif" font-size="14.00">?x2</text>
</g>
<!-- 5 -->
<g id="node5" class="node">
<title>5</title>
<ellipse fill="none" stroke="red" cx="124.79" cy="-98.79" rx="98.58" ry="98.58"/>
<text text-anchor="middle" x="124.79" y="-95.09" font-family="Times,serif" font-size="14.00">5 &lt; ({x1}.{x2})*.3</text>
</g>
<!-- 1&#45;&gt;2 -->
<g id="edge2" class="edge">
<title>1&#45;&gt;2</title>
<path fill="none" stroke="black" d="M266.08,-1095.99C265.9,-1082.65 265.72,-1069.09 265.54,-1055.72"/>
<polygon fill="black" stroke="black" points="269.04,-1055.49 265.41,-1045.54 262.04,-1055.58 269.04,-1055.49"/>
<text text-anchor="middle" x="278.29" y="-1067.03" font-family="Times,serif" font-size="14.00">?x1</text>
</g>
<!-- 4&#45;&gt;5 -->
<g id="edge3" class="edge">
<title>4&#45;&gt;5</title>
<path fill="none" stroke="black" d="M124.79,-248.44C124.79,-234.88 124.79,-221.16 124.79,-207.81"/>
<polygon fill="black" stroke="black" points="128.29,-207.69 124.79,-197.69 121.29,-207.69 128.29,-207.69"/>
<text text-anchor="middle" x="137.29" y="-219.38" font-family="Times,serif" font-size="14.00">?x2</text>
</g>
</g>
</svg>
