<?xml version="1.0" encoding="UTF-8" standalone="no"?>
<!DOCTYPE svg PUBLIC "-//W3C//DTD SVG 1.1//EN"
 "http://www.w3.org/Graphics/SVG/1.1/DTD/svg11.dtd">
<!-- Generated by graphviz version 2.43.0 (0)
 -->
<!-- Title: %3 Pages: 1 -->
<svg width="88pt" height="520pt"
 viewBox="0.00 0.00 88.00 519.60" xmlns="http://www.w3.org/2000/svg" xmlns:xlink="http://www.w3.org/1999/xlink">
<g id="graph0" class="graph" transform="scale(1 1) rotate(0) translate(4 515.6)">
<title>%3</title>
<polygon fill="white" stroke="transparent" points="-4,4 -4,-515.6 84,-515.6 84,4 -4,4"/>
<!-- ENTRY -->
<g id="node1" class="node">
<title>ENTRY</title>
<ellipse fill="black" stroke="black" cx="50" cy="-509.8" rx="1.8" ry="1.8"/>
</g>
<!-- 0 -->
<g id="node2" class="node">
<title>0</title>
<ellipse fill="none" stroke="black" cx="50" cy="-453" rx="18" ry="18"/>
<text text-anchor="middle" x="50" y="-449.3" font-family="Times,serif" font-size="14.00">0</text>
</g>
<!-- ENTRY&#45;&gt;0 -->
<g id="edge1" class="edge">
<title>ENTRY&#45;&gt;0</title>
<path fill="none" stroke="black" d="M50,-507.85C50,-504.49 50,-492.73 50,-481.05"/>
<polygon fill="black" stroke="black" points="53.5,-481.02 50,-471.02 46.5,-481.02 53.5,-481.02"/>
</g>
<!-- 1 -->
<g id="node3" class="node">
<title>1</title>
<ellipse fill="none" stroke="black" cx="21" cy="-366" rx="18" ry="18"/>
<text text-anchor="middle" x="21" y="-362.3" font-family="Times,serif" font-size="14.00">1</text>
</g>
<!-- 0&#45;&gt;1 -->
<g id="edge2" class="edge">
<title>0&#45;&gt;1</title>
<path fill="none" stroke="black" d="M42.68,-436.15C40.08,-430.21 37.24,-423.36 35,-417 32.36,-409.52 29.88,-401.27 27.77,-393.67"/>
<polygon fill="black" stroke="black" points="31.1,-392.59 25.12,-383.84 24.34,-394.4 31.1,-392.59"/>
<text text-anchor="middle" x="44.5" y="-405.8" font-family="Times,serif" font-size="14.00">!w</text>
</g>
<!-- 2 -->
<g id="node4" class="node">
<title>2</title>
<ellipse fill="none" stroke="black" cx="21" cy="-279" rx="18" ry="18"/>
<text text-anchor="middle" x="21" y="-275.3" font-family="Times,serif" font-size="14.00">2</text>
</g>
<!-- 1&#45;&gt;2 -->
<g id="edge3" class="edge">
<title>1&#45;&gt;2</title>
<path fill="none" stroke="black" d="M21,-347.8C21,-336.16 21,-320.55 21,-307.24"/>
<polygon fill="black" stroke="black" points="24.5,-307.18 21,-297.18 17.5,-307.18 24.5,-307.18"/>
<text text-anchor="middle" x="33.5" y="-318.8" font-family="Times,serif" font-size="14.00">?x1</text>
</g>
<!-- 3 -->
<g id="node5" class="node">
<title>3</title>
<ellipse fill="none" stroke="black" cx="45" cy="-192" rx="18" ry="18"/>
<text text-anchor="middle" x="45" y="-188.3" font-family="Times,serif" font-size="14.00">3</text>
</g>
<!-- 2&#45;&gt;3 -->
<g id="edge4" class="edge">
<title>2&#45;&gt;3</title>
<path fill="none" stroke="black" d="M22.61,-260.62C23.81,-250.88 25.79,-238.6 29,-228 30.04,-224.57 31.34,-221.04 32.76,-217.61"/>
<polygon fill="black" stroke="black" points="36.02,-218.89 36.9,-208.33 29.63,-216.03 36.02,-218.89"/>
<text text-anchor="middle" x="41.5" y="-231.8" font-family="Times,serif" font-size="14.00">?x2</text>
</g>
<!-- 3&#45;&gt;0 -->
<g id="edge5" class="edge">
<title>3&#45;&gt;0</title>
<path fill="none" stroke="black" d="M50.17,-209.57C51.73,-215.34 53.23,-221.9 54,-228 64.54,-311.34 58.78,-333.14 54,-417 53.85,-419.56 53.65,-422.23 53.41,-424.89"/>
<polygon fill="black" stroke="black" points="49.91,-424.63 52.34,-434.94 56.88,-425.37 49.91,-424.63"/>
<text text-anchor="middle" x="67" y="-318.8" font-family="Times,serif" font-size="14.00">?z</text>
</g>
<!-- 4 -->
<g id="node6" class="node">
<title>4</title>
<ellipse fill="none" stroke="black" cx="18" cy="-105" rx="18" ry="18"/>
<text text-anchor="middle" x="18" y="-101.3" font-family="Times,serif" font-size="14.00">4</text>
</g>
<!-- 3&#45;&gt;4 -->
<g id="edge6" class="edge">
<title>3&#45;&gt;4</title>
<path fill="none" stroke="black" d="M39.25,-174.66C37.23,-168.79 34.96,-162.12 33,-156 30.56,-148.41 28.03,-140.13 25.75,-132.53"/>
<polygon fill="black" stroke="black" points="29.04,-131.31 22.84,-122.72 22.33,-133.3 29.04,-131.31"/>
<text text-anchor="middle" x="45.5" y="-144.8" font-family="Times,serif" font-size="14.00">?x1</text>
</g>
<!-- 5 -->
<g id="node7" class="node">
<title>5</title>
<ellipse fill="none" stroke="black" cx="45" cy="-18" rx="18" ry="18"/>
<text text-anchor="middle" x="45" y="-14.3" font-family="Times,serif" font-size="14.00">5</text>
</g>
<!-- 4&#45;&gt;5 -->
<g id="edge7" class="edge">
<title>4&#45;&gt;5</title>
<path fill="none" stroke="black" d="M22.84,-87.28C25.7,-77.54 29.45,-65.04 33,-54 33.95,-51.04 34.97,-47.94 36,-44.87"/>
<polygon fill="black" stroke="black" points="39.34,-45.93 39.25,-35.34 32.71,-43.67 39.34,-45.93"/>
<text text-anchor="middle" x="45.5" y="-57.8" font-family="Times,serif" font-size="14.00">?x2</text>
</g>
<!-- 5&#45;&gt;3 -->
<g id="edge8" class="edge">
<title>5&#45;&gt;3</title>
<path fill="none" stroke="black" d="M52.18,-34.69C54.53,-40.61 56.83,-47.49 58,-54 66.02,-98.62 66.02,-111.38 58,-156 57.42,-159.25 56.55,-162.6 55.53,-165.87"/>
<polygon fill="black" stroke="black" points="52.23,-164.71 52.18,-175.31 58.83,-167.05 52.23,-164.71"/>
<text text-anchor="middle" x="72" y="-101.3" font-family="Times,serif" font-size="14.00">!u</text>
</g>
</g>
</svg>
