<?xml version="1.0" encoding="UTF-8" standalone="no"?>
<!DOCTYPE svg PUBLIC "-//W3C//DTD SVG 1.1//EN"
 "http://www.w3.org/Graphics/SVG/1.1/DTD/svg11.dtd">
<!-- Generated by graphviz version 2.43.0 (0)
 -->
<!-- Title: %3 Pages: 1 -->
<svg width="99pt" height="694pt"
 viewBox="0.00 0.00 99.00 693.60" xmlns="http://www.w3.org/2000/svg" xmlns:xlink="http://www.w3.org/1999/xlink">
<g id="graph0" class="graph" transform="scale(1 1) rotate(0) translate(4 689.6)">
<title>%3</title>
<polygon fill="white" stroke="transparent" points="-4,4 -4,-689.6 95,-689.6 95,4 -4,4"/>
<!-- ENTRY -->
<g id="node1" class="node">
<title>ENTRY</title>
<ellipse fill="black" stroke="black" cx="49" cy="-683.8" rx="1.8" ry="1.8"/>
</g>
<!-- 0 -->
<g id="node2" class="node">
<title>0</title>
<ellipse fill="none" stroke="black" cx="49" cy="-627" rx="18" ry="18"/>
<text text-anchor="middle" x="49" y="-623.3" font-family="Times,serif" font-size="14.00">0</text>
</g>
<!-- ENTRY&#45;&gt;0 -->
<g id="edge1" class="edge">
<title>ENTRY&#45;&gt;0</title>
<path fill="none" stroke="black" d="M49,-681.85C49,-678.49 49,-666.73 49,-655.05"/>
<polygon fill="black" stroke="black" points="52.5,-655.02 49,-645.02 45.5,-655.02 52.5,-655.02"/>
</g>
<!-- 1 -->
<g id="node3" class="node">
<title>1</title>
<ellipse fill="none" stroke="black" cx="49" cy="-540" rx="18" ry="18"/>
<text text-anchor="middle" x="49" y="-536.3" font-family="Times,serif" font-size="14.00">1</text>
</g>
<!-- 0&#45;&gt;1 -->
<g id="edge2" class="edge">
<title>0&#45;&gt;1</title>
<path fill="none" stroke="black" d="M49,-608.8C49,-597.16 49,-581.55 49,-568.24"/>
<polygon fill="black" stroke="black" points="52.5,-568.18 49,-558.18 45.5,-568.18 52.5,-568.18"/>
<text text-anchor="middle" x="61.5" y="-579.8" font-family="Times,serif" font-size="14.00">?x1</text>
</g>
<!-- 2 -->
<g id="node4" class="node">
<title>2</title>
<ellipse fill="none" stroke="black" cx="49" cy="-453" rx="18" ry="18"/>
<text text-anchor="middle" x="49" y="-449.3" font-family="Times,serif" font-size="14.00">2</text>
</g>
<!-- 1&#45;&gt;2 -->
<g id="edge3" class="edge">
<title>1&#45;&gt;2</title>
<path fill="none" stroke="black" d="M49,-521.8C49,-510.16 49,-494.55 49,-481.24"/>
<polygon fill="black" stroke="black" points="52.5,-481.18 49,-471.18 45.5,-481.18 52.5,-481.18"/>
<text text-anchor="middle" x="61.5" y="-492.8" font-family="Times,serif" font-size="14.00">?x2</text>
</g>
<!-- 3 -->
<g id="node5" class="node">
<title>3</title>
<ellipse fill="none" stroke="black" cx="20" cy="-366" rx="18" ry="18"/>
<text text-anchor="middle" x="20" y="-362.3" font-family="Times,serif" font-size="14.00">3</text>
</g>
<!-- 2&#45;&gt;3 -->
<g id="edge4" class="edge">
<title>2&#45;&gt;3</title>
<path fill="none" stroke="black" d="M41.24,-436.56C38.4,-430.55 35.33,-423.55 33,-417 30.36,-409.56 27.99,-401.33 26.03,-393.73"/>
<polygon fill="black" stroke="black" points="29.4,-392.76 23.62,-383.89 22.6,-394.43 29.4,-392.76"/>
<text text-anchor="middle" x="42.5" y="-405.8" font-family="Times,serif" font-size="14.00">!w</text>
</g>
<!-- 4 -->
<g id="node6" class="node">
<title>4</title>
<ellipse fill="none" stroke="black" cx="18" cy="-279" rx="18" ry="18"/>
<text text-anchor="middle" x="18" y="-275.3" font-family="Times,serif" font-size="14.00">4</text>
</g>
<!-- 3&#45;&gt;4 -->
<g id="edge5" class="edge">
<title>3&#45;&gt;4</title>
<path fill="none" stroke="black" d="M19.6,-347.8C19.32,-336.16 18.95,-320.55 18.64,-307.24"/>
<polygon fill="black" stroke="black" points="22.14,-307.09 18.4,-297.18 15.14,-307.26 22.14,-307.09"/>
<text text-anchor="middle" x="28" y="-318.8" font-family="Times,serif" font-size="14.00">?z</text>
</g>
<!-- 5 -->
<g id="node7" class="node">
<title>5</title>
<ellipse fill="none" stroke="black" cx="19" cy="-192" rx="18" ry="18"/>
<text text-anchor="middle" x="19" y="-188.3" font-family="Times,serif" font-size="14.00">5</text>
</g>
<!-- 4&#45;&gt;5 -->
<g id="edge6" class="edge">
<title>4&#45;&gt;5</title>
<path fill="none" stroke="black" d="M18.2,-260.8C18.34,-249.16 18.52,-233.55 18.68,-220.24"/>
<polygon fill="black" stroke="black" points="22.18,-220.22 18.8,-210.18 15.18,-220.13 22.18,-220.22"/>
<text text-anchor="middle" x="31.5" y="-231.8" font-family="Times,serif" font-size="14.00">?x1</text>
</g>
<!-- 6 -->
<g id="node8" class="node">
<title>6</title>
<ellipse fill="none" stroke="black" cx="20" cy="-105" rx="18" ry="18"/>
<text text-anchor="middle" x="20" y="-101.3" font-family="Times,serif" font-size="14.00">6</text>
</g>
<!-- 5&#45;&gt;6 -->
<g id="edge7" class="edge">
<title>5&#45;&gt;6</title>
<path fill="none" stroke="black" d="M19.2,-173.8C19.34,-162.16 19.52,-146.55 19.68,-133.24"/>
<polygon fill="black" stroke="black" points="23.18,-133.22 19.8,-123.18 16.18,-133.13 23.18,-133.22"/>
<text text-anchor="middle" x="32.5" y="-144.8" font-family="Times,serif" font-size="14.00">?x2</text>
</g>
<!-- 7 -->
<g id="node9" class="node">
<title>7</title>
<ellipse fill="none" stroke="black" cx="43" cy="-18" rx="18" ry="18"/>
<text text-anchor="middle" x="43" y="-14.3" font-family="Times,serif" font-size="14.00">7</text>
</g>
<!-- 6&#45;&gt;7 -->
<g id="edge8" class="edge">
<title>6&#45;&gt;7</title>
<path fill="none" stroke="black" d="M21.19,-86.62C22.16,-76.88 23.91,-64.6 27,-54 28,-50.56 29.29,-47.03 30.69,-43.59"/>
<polygon fill="black" stroke="black" points="33.96,-44.87 34.84,-34.31 27.56,-42.01 33.96,-44.87"/>
<text text-anchor="middle" x="39.5" y="-57.8" font-family="Times,serif" font-size="14.00">?x1</text>
</g>
<!-- 7&#45;&gt;2 -->
<g id="edge9" class="edge">
<title>7&#45;&gt;2</title>
<path fill="none" stroke="black" d="M49.9,-34.64C56.68,-51.43 66,-79.08 66,-104 66,-367 66,-367 66,-367 66,-386.88 61.48,-408.87 57.09,-425.5"/>
<polygon fill="black" stroke="black" points="53.6,-425.01 54.29,-435.58 60.34,-426.89 53.6,-425.01"/>
<text text-anchor="middle" x="78.5" y="-231.8" font-family="Times,serif" font-size="14.00">?x2</text>
</g>
</g>
</svg>
