<?xml version="1.0" encoding="UTF-8" standalone="no"?>
<!DOCTYPE svg PUBLIC "-//W3C//DTD SVG 1.1//EN"
 "http://www.w3.org/Graphics/SVG/1.1/DTD/svg11.dtd">
<!-- Generated by graphviz version 2.43.0 (0)
 -->
<!-- Title: %3 Pages: 1 -->
<svg width="270pt" height="734pt"
 viewBox="0.00 0.00 269.60 733.76" xmlns="http://www.w3.org/2000/svg" xmlns:xlink="http://www.w3.org/1999/xlink">
<g id="graph0" class="graph" transform="scale(1 1) rotate(0) translate(4 729.76)">
<title>%3</title>
<polygon fill="white" stroke="transparent" points="-4,4 -4,-729.76 265.6,-729.76 265.6,4 -4,4"/>
<!-- ENTRY -->
<g id="node1" class="node">
<title>ENTRY</title>
<ellipse fill="black" stroke="black" cx="56.54" cy="-490.2" rx="1.8" ry="1.8"/>
</g>
<!-- 0 -->
<g id="node2" class="node">
<title>0</title>
<ellipse fill="none" stroke="black" cx="56.54" cy="-312.63" rx="56.59" ry="56.59"/>
<text text-anchor="middle" x="56.54" y="-308.93" font-family="Times,serif" font-size="14.00">0 &lt; Eps.0</text>
</g>
<!-- ENTRY&#45;&gt;0 -->
<g id="edge1" class="edge">
<title>ENTRY&#45;&gt;0</title>
<path fill="none" stroke="black" d="M56.54,-488.08C56.54,-479.66 56.54,-425.45 56.54,-379.66"/>
<polygon fill="black" stroke="black" points="60.05,-379.44 56.54,-369.44 53.05,-379.44 60.05,-379.44"/>
</g>
<!-- 1 -->
<g id="node3" class="node">
<title>1</title>
<ellipse fill="none" stroke="red" cx="126.54" cy="-98.29" rx="98.08" ry="98.08"/>
<text text-anchor="middle" x="126.54" y="-102.09" font-family="Times,serif" font-size="14.00">1 &lt; ({u})*.{w}.3</text>
<text text-anchor="middle" x="126.54" y="-87.09" font-family="Times,serif" font-size="14.00">{w}.2</text>
</g>
<!-- 0&#45;&gt;1 -->
<g id="edge4" class="edge">
<title>0&#45;&gt;1</title>
<path fill="none" stroke="black" d="M74.03,-258.59C79.74,-241.28 86.28,-221.43 92.77,-201.75"/>
<polygon fill="black" stroke="black" points="96.14,-202.7 95.95,-192.11 89.49,-200.51 96.14,-202.7"/>
<text text-anchor="middle" x="95.04" y="-218.38" font-family="Times,serif" font-size="14.00">!x</text>
</g>
<!-- 4 -->
<g id="node4" class="node">
<title>4</title>
<ellipse fill="none" stroke="black" cx="196.54" cy="-312.63" rx="65.11" ry="65.11"/>
<text text-anchor="middle" x="196.54" y="-316.43" font-family="Times,serif" font-size="14.00">4 &lt; {w}.2</text>
<text text-anchor="middle" x="196.54" y="-301.43" font-family="Times,serif" font-size="14.00">{u}.{w}.2</text>
</g>
<!-- 4&#45;&gt;1 -->
<g id="edge3" class="edge">
<title>4&#45;&gt;1</title>
<path fill="none" stroke="black" d="M176.39,-250.5C171.36,-235.24 165.83,-218.45 160.34,-201.79"/>
<polygon fill="black" stroke="black" points="163.56,-200.4 157.11,-192 156.92,-202.6 163.56,-200.4"/>
<text text-anchor="middle" x="175.04" y="-218.38" font-family="Times,serif" font-size="14.00">!x</text>
</g>
<!-- 2 -->
<g id="node5" class="node">
<title>2</title>
<ellipse fill="none" stroke="black" cx="196.54" cy="-664.24" rx="61.54" ry="61.54"/>
<text text-anchor="middle" x="196.54" y="-668.04" font-family="Times,serif" font-size="14.00">2 &lt; Eps.3</text>
<text text-anchor="middle" x="196.54" y="-653.04" font-family="Times,serif" font-size="14.00">Eps.2</text>
</g>
<!-- 3 -->
<g id="node6" class="node">
<title>3</title>
<ellipse fill="none" stroke="black" cx="196.54" cy="-490.2" rx="61.54" ry="61.54"/>
<text text-anchor="middle" x="196.54" y="-494" font-family="Times,serif" font-size="14.00">3 &lt; {u}.0</text>
<text text-anchor="middle" x="196.54" y="-479" font-family="Times,serif" font-size="14.00">Eps.0</text>
</g>
<!-- 2&#45;&gt;3 -->
<g id="edge2" class="edge">
<title>2&#45;&gt;3</title>
<path fill="none" stroke="black" d="M196.54,-602.58C196.54,-589.48 196.54,-575.51 196.54,-562.06"/>
<polygon fill="black" stroke="black" points="200.05,-561.89 196.54,-551.89 193.05,-561.89 200.05,-561.89"/>
<text text-anchor="middle" x="203.54" y="-573.52" font-family="Times,serif" font-size="14.00">!z</text>
</g>
<!-- 3&#45;&gt;4 -->
<g id="edge5" class="edge">
<title>3&#45;&gt;4</title>
<path fill="none" stroke="black" d="M196.54,-428.29C196.54,-415.27 196.54,-401.37 196.54,-387.91"/>
<polygon fill="black" stroke="black" points="200.05,-387.72 196.54,-377.72 193.05,-387.72 200.05,-387.72"/>
<text text-anchor="middle" x="204.04" y="-399.48" font-family="Times,serif" font-size="14.00">!x</text>
</g>
</g>
</svg>
