<?xml version="1.0" encoding="UTF-8" standalone="no"?>
<!DOCTYPE svg PUBLIC "-//W3C//DTD SVG 1.1//EN"
 "http://www.w3.org/Graphics/SVG/1.1/DTD/svg11.dtd">
<!-- Generated by graphviz version 2.43.0 (0)
 -->
<!-- Title: %3 Pages: 1 -->
<svg width="75pt" height="433pt"
 viewBox="0.00 0.00 75.00 432.60" xmlns="http://www.w3.org/2000/svg" xmlns:xlink="http://www.w3.org/1999/xlink">
<g id="graph0" class="graph" transform="scale(1 1) rotate(0) translate(4 428.6)">
<title>%3</title>
<polygon fill="white" stroke="transparent" points="-4,4 -4,-428.6 71,-428.6 71,4 -4,4"/>
<!-- ENTRY -->
<g id="node1" class="node">
<title>ENTRY</title>
<ellipse fill="black" stroke="black" cx="46" cy="-422.8" rx="1.8" ry="1.8"/>
</g>
<!-- 0 -->
<g id="node2" class="node">
<title>0</title>
<ellipse fill="none" stroke="black" cx="46" cy="-366" rx="18" ry="18"/>
<text text-anchor="middle" x="46" y="-362.3" font-family="Times,serif" font-size="14.00">0</text>
</g>
<!-- ENTRY&#45;&gt;0 -->
<g id="edge1" class="edge">
<title>ENTRY&#45;&gt;0</title>
<path fill="none" stroke="black" d="M46,-420.85C46,-417.49 46,-405.73 46,-394.05"/>
<polygon fill="black" stroke="black" points="49.5,-394.02 46,-384.02 42.5,-394.02 49.5,-394.02"/>
</g>
<!-- 1 -->
<g id="node3" class="node">
<title>1</title>
<ellipse fill="none" stroke="black" cx="46" cy="-279" rx="18" ry="18"/>
<text text-anchor="middle" x="46" y="-275.3" font-family="Times,serif" font-size="14.00">1</text>
</g>
<!-- 0&#45;&gt;1 -->
<g id="edge2" class="edge">
<title>0&#45;&gt;1</title>
<path fill="none" stroke="black" d="M46,-347.8C46,-336.16 46,-320.55 46,-307.24"/>
<polygon fill="black" stroke="black" points="49.5,-307.18 46,-297.18 42.5,-307.18 49.5,-307.18"/>
<text text-anchor="middle" x="53.5" y="-318.8" font-family="Times,serif" font-size="14.00">!x</text>
</g>
<!-- 2 -->
<g id="node4" class="node">
<title>2</title>
<ellipse fill="none" stroke="black" cx="18" cy="-192" rx="18" ry="18"/>
<text text-anchor="middle" x="18" y="-188.3" font-family="Times,serif" font-size="14.00">2</text>
</g>
<!-- 1&#45;&gt;2 -->
<g id="edge3" class="edge">
<title>1&#45;&gt;2</title>
<path fill="none" stroke="black" d="M38.17,-262.58C35.33,-256.58 32.27,-249.57 30,-243 27.44,-235.57 25.22,-227.34 23.41,-219.74"/>
<polygon fill="black" stroke="black" points="26.81,-218.89 21.21,-209.9 19.98,-220.42 26.81,-218.89"/>
<text text-anchor="middle" x="40" y="-231.8" font-family="Times,serif" font-size="14.00">?w</text>
</g>
<!-- 3 -->
<g id="node5" class="node">
<title>3</title>
<ellipse fill="none" stroke="black" cx="18" cy="-105" rx="18" ry="18"/>
<text text-anchor="middle" x="18" y="-101.3" font-family="Times,serif" font-size="14.00">3</text>
</g>
<!-- 2&#45;&gt;3 -->
<g id="edge4" class="edge">
<title>2&#45;&gt;3</title>
<path fill="none" stroke="black" d="M18,-173.8C18,-162.16 18,-146.55 18,-133.24"/>
<polygon fill="black" stroke="black" points="21.5,-133.18 18,-123.18 14.5,-133.18 21.5,-133.18"/>
<text text-anchor="middle" x="25" y="-144.8" font-family="Times,serif" font-size="14.00">!z</text>
</g>
<!-- 4 -->
<g id="node6" class="node">
<title>4</title>
<ellipse fill="none" stroke="black" cx="41" cy="-18" rx="18" ry="18"/>
<text text-anchor="middle" x="41" y="-14.3" font-family="Times,serif" font-size="14.00">4</text>
</g>
<!-- 3&#45;&gt;4 -->
<g id="edge5" class="edge">
<title>3&#45;&gt;4</title>
<path fill="none" stroke="black" d="M22.54,-87.21C25.78,-75.25 30.19,-58.96 33.89,-45.29"/>
<polygon fill="black" stroke="black" points="37.31,-46.04 36.54,-35.47 30.55,-44.21 37.31,-46.04"/>
<text text-anchor="middle" x="37.5" y="-57.8" font-family="Times,serif" font-size="14.00">!x</text>
</g>
<!-- 4&#45;&gt;1 -->
<g id="edge6" class="edge">
<title>4&#45;&gt;1</title>
<path fill="none" stroke="black" d="M45.58,-35.61C46.96,-41.38 48.3,-47.93 49,-54 57.89,-130.82 49.78,-150.67 50,-228 50.02,-234.67 50.38,-236.34 50,-243 49.85,-245.56 49.65,-248.23 49.41,-250.89"/>
<polygon fill="black" stroke="black" points="45.91,-250.63 48.34,-260.94 52.88,-251.37 45.91,-250.63"/>
<text text-anchor="middle" x="59.5" y="-144.8" font-family="Times,serif" font-size="14.00">!x</text>
</g>
</g>
</svg>
