<?xml version="1.0" encoding="UTF-8" standalone="no"?>
<!DOCTYPE svg PUBLIC "-//W3C//DTD SVG 1.1//EN"
 "http://www.w3.org/Graphics/SVG/1.1/DTD/svg11.dtd">
<!-- Generated by graphviz version 2.43.0 (0)
 -->
<!-- Title: %3 Pages: 1 -->
<svg width="80pt" height="346pt"
 viewBox="0.00 0.00 80.00 345.60" xmlns="http://www.w3.org/2000/svg" xmlns:xlink="http://www.w3.org/1999/xlink">
<g id="graph0" class="graph" transform="scale(1 1) rotate(0) translate(4 341.6)">
<title>%3</title>
<polygon fill="white" stroke="transparent" points="-4,4 -4,-341.6 76,-341.6 76,4 -4,4"/>
<!-- ENTRY -->
<g id="node1" class="node">
<title>ENTRY</title>
<ellipse fill="black" stroke="black" cx="54" cy="-335.8" rx="1.8" ry="1.8"/>
</g>
<!-- 0 -->
<g id="node2" class="node">
<title>0</title>
<ellipse fill="none" stroke="black" cx="54" cy="-279" rx="18" ry="18"/>
<text text-anchor="middle" x="54" y="-275.3" font-family="Times,serif" font-size="14.00">0</text>
</g>
<!-- ENTRY&#45;&gt;0 -->
<g id="edge1" class="edge">
<title>ENTRY&#45;&gt;0</title>
<path fill="none" stroke="black" d="M54,-333.85C54,-330.49 54,-318.73 54,-307.05"/>
<polygon fill="black" stroke="black" points="57.5,-307.02 54,-297.02 50.5,-307.02 57.5,-307.02"/>
</g>
<!-- 1 -->
<g id="node3" class="node">
<title>1</title>
<ellipse fill="none" stroke="black" cx="18" cy="-192" rx="18" ry="18"/>
<text text-anchor="middle" x="18" y="-188.3" font-family="Times,serif" font-size="14.00">1</text>
</g>
<!-- 0&#45;&gt;1 -->
<g id="edge2" class="edge">
<title>0&#45;&gt;1</title>
<path fill="none" stroke="black" d="M46.67,-262.39C43.89,-256.36 40.74,-249.39 38,-243 34.64,-235.14 31.12,-226.52 28,-218.69"/>
<polygon fill="black" stroke="black" points="31.22,-217.31 24.29,-209.29 24.71,-219.88 31.22,-217.31"/>
<text text-anchor="middle" x="48" y="-231.8" font-family="Times,serif" font-size="14.00">?w</text>
</g>
<!-- 2 -->
<g id="node4" class="node">
<title>2</title>
<ellipse fill="none" stroke="black" cx="45" cy="-105" rx="18" ry="18"/>
<text text-anchor="middle" x="45" y="-101.3" font-family="Times,serif" font-size="14.00">2</text>
</g>
<!-- 1&#45;&gt;2 -->
<g id="edge3" class="edge">
<title>1&#45;&gt;2</title>
<path fill="none" stroke="black" d="M23.21,-174.61C27.02,-162.62 32.26,-146.09 36.66,-132.27"/>
<polygon fill="black" stroke="black" points="40.12,-132.93 39.81,-122.34 33.45,-130.81 40.12,-132.93"/>
<text text-anchor="middle" x="41.5" y="-144.8" font-family="Times,serif" font-size="14.00">!x</text>
</g>
<!-- 2&#45;&gt;0 -->
<g id="edge4" class="edge">
<title>2&#45;&gt;0</title>
<path fill="none" stroke="black" d="M49.4,-122.63C50.77,-128.41 52.14,-134.95 53,-141 56.85,-168.13 59.88,-210.05 58,-243 57.85,-245.56 57.65,-248.23 57.41,-250.89"/>
<polygon fill="black" stroke="black" points="53.91,-250.63 56.34,-260.94 60.88,-251.37 53.91,-250.63"/>
<text text-anchor="middle" x="65" y="-188.3" font-family="Times,serif" font-size="14.00">!z</text>
</g>
<!-- 3 -->
<g id="node5" class="node">
<title>3</title>
<ellipse fill="none" stroke="black" cx="45" cy="-18" rx="18" ry="18"/>
<text text-anchor="middle" x="45" y="-14.3" font-family="Times,serif" font-size="14.00">3</text>
</g>
<!-- 2&#45;&gt;3 -->
<g id="edge5" class="edge">
<title>2&#45;&gt;3</title>
<path fill="none" stroke="black" d="M35.14,-89.81C29.47,-79.94 24,-66.37 27,-54 27.91,-50.26 29.28,-46.47 30.88,-42.84"/>
<polygon fill="black" stroke="black" points="34.1,-44.22 35.46,-33.72 27.85,-41.09 34.1,-44.22"/>
<text text-anchor="middle" x="34.5" y="-57.8" font-family="Times,serif" font-size="14.00">!x</text>
</g>
<!-- 3&#45;&gt;2 -->
<g id="edge6" class="edge">
<title>3&#45;&gt;2</title>
<path fill="none" stroke="black" d="M45,-36.18C45,-47.81 45,-63.42 45,-76.73"/>
<polygon fill="black" stroke="black" points="41.5,-76.8 45,-86.8 48.5,-76.8 41.5,-76.8"/>
<text text-anchor="middle" x="53.5" y="-57.8" font-family="Times,serif" font-size="14.00">?u</text>
</g>
</g>
</svg>
