<?xml version="1.0" encoding="UTF-8" standalone="no"?>
<!DOCTYPE svg PUBLIC "-//W3C//DTD SVG 1.1//EN"
 "http://www.w3.org/Graphics/SVG/1.1/DTD/svg11.dtd">
<!-- Generated by graphviz version 2.43.0 (0)
 -->
<!-- Title: %3 Pages: 1 -->
<svg width="217pt" height="532pt"
 viewBox="0.00 0.00 217.11 531.86" xmlns="http://www.w3.org/2000/svg" xmlns:xlink="http://www.w3.org/1999/xlink">
<g id="graph0" class="graph" transform="scale(1 1) rotate(0) translate(4 527.86)">
<title>%3</title>
<polygon fill="white" stroke="transparent" points="-4,4 -4,-527.86 213.11,-527.86 213.11,4 -4,4"/>
<!-- ENTRY -->
<g id="node1" class="node">
<title>ENTRY</title>
<ellipse fill="black" stroke="black" cx="67.59" cy="-522.06" rx="1.8" ry="1.8"/>
</g>
<!-- 0 -->
<g id="node4" class="node">
<title>0</title>
<ellipse fill="none" stroke="black" cx="67.59" cy="-421.74" rx="61.54" ry="61.54"/>
<text text-anchor="middle" x="67.59" y="-425.54" font-family="Times,serif" font-size="14.00">0 &lt; Eps.0</text>
<text text-anchor="middle" x="67.59" y="-410.54" font-family="Times,serif" font-size="14.00">Eps.3</text>
</g>
<!-- ENTRY&#45;&gt;0 -->
<g id="edge1" class="edge">
<title>ENTRY&#45;&gt;0</title>
<path fill="none" stroke="black" d="M67.59,-519.96C67.59,-516.66 67.59,-506.33 67.59,-493.56"/>
<polygon fill="black" stroke="black" points="71.09,-493.4 67.59,-483.4 64.09,-493.4 71.09,-493.4"/>
</g>
<!-- 2 -->
<g id="node2" class="node">
<title>2</title>
<ellipse fill="none" stroke="black" cx="67.59" cy="-67.59" rx="67.69" ry="67.69"/>
<text text-anchor="middle" x="67.59" y="-63.89" font-family="Times,serif" font-size="14.00">2 &lt; ({x})*.2</text>
</g>
<!-- 2&#45;&gt;2 -->
<g id="edge2" class="edge">
<title>2&#45;&gt;2</title>
<path fill="none" stroke="black" d="M133.27,-83.83C145,-81.72 153.19,-76.31 153.19,-67.59 153.19,-61.6 149.32,-57.17 143.08,-54.3"/>
<polygon fill="black" stroke="black" points="143.85,-50.88 133.27,-51.36 141.84,-57.58 143.85,-50.88"/>
<text text-anchor="middle" x="161.19" y="-63.89" font-family="Times,serif" font-size="14.00">?x</text>
</g>
<!-- 2&#45;&gt;0 -->
<g id="edge3" class="edge">
<title>2&#45;&gt;0</title>
<path fill="none" stroke="black" d="M62.94,-135.11C61.97,-151.78 61.09,-169.63 60.59,-186.19 58.97,-240.85 58.88,-254.57 60.59,-309.22 61.01,-322.44 61.7,-336.51 62.49,-350.06"/>
<polygon fill="black" stroke="black" points="59.01,-350.52 63.11,-360.29 66,-350.1 59.01,-350.52"/>
<text text-anchor="middle" x="68.59" y="-244.01" font-family="Times,serif" font-size="14.00">?z</text>
</g>
<!-- 1 -->
<g id="node3" class="node">
<title>1</title>
<ellipse fill="none" stroke="black" cx="147.59" cy="-247.71" rx="61.54" ry="61.54"/>
<text text-anchor="middle" x="147.59" y="-251.51" font-family="Times,serif" font-size="14.00">1 &lt; {x}.2</text>
<text text-anchor="middle" x="147.59" y="-236.51" font-family="Times,serif" font-size="14.00">{x}.{x}.2</text>
</g>
<!-- 1&#45;&gt;2 -->
<g id="edge4" class="edge">
<title>1&#45;&gt;2</title>
<path fill="none" stroke="black" d="M122.72,-191.33C115.29,-174.78 107.04,-156.42 99.24,-139.05"/>
<polygon fill="black" stroke="black" points="102.25,-137.2 94.96,-129.52 95.86,-140.07 102.25,-137.2"/>
<text text-anchor="middle" x="118.59" y="-156.99" font-family="Times,serif" font-size="14.00">?x</text>
</g>
<!-- 0&#45;&gt;1 -->
<g id="edge5" class="edge">
<title>0&#45;&gt;1</title>
<path fill="none" stroke="black" d="M93.35,-365.36C101.09,-348.7 109.66,-330.28 117.65,-313.09"/>
<polygon fill="black" stroke="black" points="120.98,-314.23 122.03,-303.69 114.64,-311.28 120.98,-314.23"/>
<text text-anchor="middle" x="120.09" y="-331.02" font-family="Times,serif" font-size="14.00">!w</text>
</g>
</g>
</svg>
