<?xml version="1.0" encoding="UTF-8" standalone="no"?>
<!DOCTYPE svg PUBLIC "-//W3C//DTD SVG 1.1//EN"
 "http://www.w3.org/Graphics/SVG/1.1/DTD/svg11.dtd">
<!-- Generated by graphviz version 2.43.0 (0)
 -->
<!-- Title: %3 Pages: 1 -->
<svg width="105pt" height="259pt"
 viewBox="0.00 0.00 105.00 258.60" xmlns="http://www.w3.org/2000/svg" xmlns:xlink="http://www.w3.org/1999/xlink">
<g id="graph0" class="graph" transform="scale(1 1) rotate(0) translate(4 254.6)">
<title>%3</title>
<polygon fill="white" stroke="transparent" points="-4,4 -4,-254.6 101,-254.6 101,4 -4,4"/>
<!-- ENTRY -->
<g id="node1" class="node">
<title>ENTRY</title>
<ellipse fill="black" stroke="black" cx="55" cy="-248.8" rx="1.8" ry="1.8"/>
</g>
<!-- 0 -->
<g id="node2" class="node">
<title>0</title>
<ellipse fill="none" stroke="black" cx="55" cy="-192" rx="18" ry="18"/>
<text text-anchor="middle" x="55" y="-188.3" font-family="Times,serif" font-size="14.00">0</text>
</g>
<!-- ENTRY&#45;&gt;0 -->
<g id="edge1" class="edge">
<title>ENTRY&#45;&gt;0</title>
<path fill="none" stroke="black" d="M55,-246.85C55,-243.49 55,-231.73 55,-220.05"/>
<polygon fill="black" stroke="black" points="58.5,-220.02 55,-210.02 51.5,-220.02 58.5,-220.02"/>
</g>
<!-- 1 -->
<g id="node3" class="node">
<title>1</title>
<ellipse fill="none" stroke="black" cx="18" cy="-105" rx="18" ry="18"/>
<text text-anchor="middle" x="18" y="-101.3" font-family="Times,serif" font-size="14.00">1</text>
</g>
<!-- 0&#45;&gt;1 -->
<g id="edge2" class="edge">
<title>0&#45;&gt;1</title>
<path fill="none" stroke="black" d="M47.73,-175.37C44.95,-169.33 41.79,-162.36 39,-156 35.49,-148 31.77,-139.22 28.44,-131.29"/>
<polygon fill="black" stroke="black" points="31.57,-129.7 24.5,-121.82 25.11,-132.39 31.57,-129.7"/>
<text text-anchor="middle" x="48.5" y="-144.8" font-family="Times,serif" font-size="14.00">!w</text>
</g>
<!-- 2 -->
<g id="node4" class="node">
<title>2</title>
<ellipse fill="none" stroke="black" cx="45" cy="-18" rx="18" ry="18"/>
<text text-anchor="middle" x="45" y="-14.3" font-family="Times,serif" font-size="14.00">2</text>
</g>
<!-- 1&#45;&gt;2 -->
<g id="edge3" class="edge">
<title>1&#45;&gt;2</title>
<path fill="none" stroke="black" d="M23.21,-87.61C27.02,-75.62 32.26,-59.09 36.66,-45.27"/>
<polygon fill="black" stroke="black" points="40.12,-45.93 39.81,-35.34 33.45,-43.81 40.12,-45.93"/>
<text text-anchor="middle" x="42" y="-57.8" font-family="Times,serif" font-size="14.00">?x</text>
</g>
<!-- 2&#45;&gt;0 -->
<g id="edge4" class="edge">
<title>2&#45;&gt;0</title>
<path fill="none" stroke="black" d="M50.01,-35.59C51.56,-41.37 53.09,-47.92 54,-54 56.87,-73.17 59.47,-121.72 58,-156 57.89,-158.56 57.74,-161.22 57.55,-163.88"/>
<polygon fill="black" stroke="black" points="54.06,-163.68 56.76,-173.93 61.04,-164.24 54.06,-163.68"/>
<text text-anchor="middle" x="66" y="-101.3" font-family="Times,serif" font-size="14.00">?z</text>
</g>
<!-- 2&#45;&gt;2 -->
<g id="edge5" class="edge">
<title>2&#45;&gt;2</title>
<path fill="none" stroke="black" d="M61.66,-25.38C71.62,-27.02 81,-24.56 81,-18 81,-13.8 77.15,-11.28 71.77,-10.44"/>
<polygon fill="black" stroke="black" points="71.6,-6.94 61.66,-10.62 71.72,-13.94 71.6,-6.94"/>
<text text-anchor="middle" x="89" y="-14.3" font-family="Times,serif" font-size="14.00">?x</text>
</g>
</g>
</svg>
