<?xml version="1.0" encoding="UTF-8" standalone="no"?>
<!DOCTYPE svg PUBLIC "-//W3C//DTD SVG 1.1//EN"
 "http://www.w3.org/Graphics/SVG/1.1/DTD/svg11.dtd">
<!-- Generated by graphviz version 2.43.0 (0)
 -->
<!-- Title: %3 Pages: 1 -->
<svg width="266pt" height="259pt"
 viewBox="0.00 0.00 266.00 258.60" xmlns="http://www.w3.org/2000/svg" xmlns:xlink="http://www.w3.org/1999/xlink">
<g id="graph0" class="graph" transform="scale(1 1) rotate(0) translate(4 254.6)">
<title>%3</title>
<polygon fill="white" stroke="transparent" points="-4,4 -4,-254.6 262,-254.6 262,4 -4,4"/>
<!-- ENTRY -->
<g id="node1" class="node">
<title>ENTRY</title>
<ellipse fill="black" stroke="black" cx="130" cy="-248.8" rx="1.8" ry="1.8"/>
</g>
<!-- 0 -->
<g id="node2" class="node">
<title>0</title>
<ellipse fill="none" stroke="black" cx="130" cy="-192" rx="18" ry="18"/>
<text text-anchor="middle" x="130" y="-188.3" font-family="Times,serif" font-size="14.00">0</text>
</g>
<!-- ENTRY&#45;&gt;0 -->
<g id="edge1" class="edge">
<title>ENTRY&#45;&gt;0</title>
<path fill="none" stroke="black" d="M130,-246.85C130,-243.49 130,-231.73 130,-220.05"/>
<polygon fill="black" stroke="black" points="133.5,-220.02 130,-210.02 126.5,-220.02 133.5,-220.02"/>
</g>
<!-- 4 -->
<g id="node3" class="node">
<title>4</title>
<ellipse fill="none" stroke="black" cx="52" cy="-105" rx="18" ry="18"/>
<text text-anchor="middle" x="52" y="-101.3" font-family="Times,serif" font-size="14.00">4</text>
</g>
<!-- 0&#45;&gt;4 -->
<g id="edge2" class="edge">
<title>0&#45;&gt;4</title>
<path fill="none" stroke="black" d="M113.78,-183.81C101.78,-177.82 85.72,-168.28 75,-156 68.95,-149.07 64.2,-140.27 60.62,-132"/>
<polygon fill="black" stroke="black" points="63.87,-130.7 56.96,-122.67 57.35,-133.26 63.87,-130.7"/>
<text text-anchor="middle" x="83.5" y="-144.8" font-family="Times,serif" font-size="14.00">?b</text>
</g>
<!-- 1 -->
<g id="node6" class="node">
<title>1</title>
<ellipse fill="none" stroke="black" cx="205" cy="-105" rx="18" ry="18"/>
<text text-anchor="middle" x="205" y="-101.3" font-family="Times,serif" font-size="14.00">1</text>
</g>
<!-- 0&#45;&gt;1 -->
<g id="edge7" class="edge">
<title>0&#45;&gt;1</title>
<path fill="none" stroke="black" d="M143.6,-179.59C151.13,-173.02 160.45,-164.41 168,-156 175.58,-147.56 183.16,-137.64 189.48,-128.86"/>
<polygon fill="black" stroke="black" points="192.42,-130.76 195.32,-120.57 186.7,-126.73 192.42,-130.76"/>
<text text-anchor="middle" x="188" y="-144.8" font-family="Times,serif" font-size="14.00">?a</text>
</g>
<!-- 6 -->
<g id="node4" class="node">
<title>6</title>
<ellipse fill="none" stroke="black" cx="18" cy="-18" rx="18" ry="18"/>
<text text-anchor="middle" x="18" y="-14.3" font-family="Times,serif" font-size="14.00">6</text>
</g>
<!-- 4&#45;&gt;6 -->
<g id="edge3" class="edge">
<title>4&#45;&gt;6</title>
<path fill="none" stroke="black" d="M44.99,-88.03C42.42,-82.08 39.53,-75.25 37,-69 33.82,-61.13 30.49,-52.51 27.52,-44.67"/>
<polygon fill="black" stroke="black" points="30.78,-43.41 23.99,-35.28 24.23,-45.87 30.78,-43.41"/>
<text text-anchor="middle" x="45" y="-57.8" font-family="Times,serif" font-size="14.00">!d</text>
</g>
<!-- 5 -->
<g id="node5" class="node">
<title>5</title>
<ellipse fill="none" stroke="black" cx="99" cy="-18" rx="18" ry="18"/>
<text text-anchor="middle" x="99" y="-14.3" font-family="Times,serif" font-size="14.00">5</text>
</g>
<!-- 4&#45;&gt;5 -->
<g id="edge5" class="edge">
<title>4&#45;&gt;5</title>
<path fill="none" stroke="black" d="M59.28,-88.48C64.07,-78.5 70.62,-65.33 77,-54 79.18,-50.13 81.59,-46.09 83.99,-42.18"/>
<polygon fill="black" stroke="black" points="87.12,-43.78 89.47,-33.45 81.19,-40.06 87.12,-43.78"/>
<text text-anchor="middle" x="84.5" y="-57.8" font-family="Times,serif" font-size="14.00">!x</text>
</g>
<!-- 6&#45;&gt;0 -->
<g id="edge4" class="edge">
<title>6&#45;&gt;0</title>
<path fill="none" stroke="black" d="M11.68,-34.92C4.26,-56.35 -5.23,-95 10,-123 28.85,-157.66 73.15,-175.87 102.32,-184.45"/>
<polygon fill="black" stroke="black" points="101.74,-187.92 112.31,-187.19 103.59,-181.17 101.74,-187.92"/>
<text text-anchor="middle" x="17.5" y="-101.3" font-family="Times,serif" font-size="14.00">!e</text>
</g>
<!-- 5&#45;&gt;0 -->
<g id="edge6" class="edge">
<title>5&#45;&gt;0</title>
<path fill="none" stroke="black" d="M102.04,-35.87C107.42,-65.72 118.66,-128.07 125.13,-163.97"/>
<polygon fill="black" stroke="black" points="121.75,-164.97 126.97,-174.19 128.64,-163.73 121.75,-164.97"/>
<text text-anchor="middle" x="123" y="-101.3" font-family="Times,serif" font-size="14.00">!f</text>
</g>
<!-- 3 -->
<g id="node7" class="node">
<title>3</title>
<ellipse fill="none" stroke="black" cx="177" cy="-18" rx="18" ry="18"/>
<text text-anchor="middle" x="177" y="-14.3" font-family="Times,serif" font-size="14.00">3</text>
</g>
<!-- 1&#45;&gt;3 -->
<g id="edge8" class="edge">
<title>1&#45;&gt;3</title>
<path fill="none" stroke="black" d="M197.77,-88.52C195.12,-82.5 192.23,-75.51 190,-69 187.45,-61.53 185.11,-53.29 183.15,-45.69"/>
<polygon fill="black" stroke="black" points="186.51,-44.72 180.71,-35.85 179.72,-46.4 186.51,-44.72"/>
<text text-anchor="middle" x="198" y="-57.8" font-family="Times,serif" font-size="14.00">!d</text>
</g>
<!-- 2 -->
<g id="node8" class="node">
<title>2</title>
<ellipse fill="none" stroke="black" cx="240" cy="-18" rx="18" ry="18"/>
<text text-anchor="middle" x="240" y="-14.3" font-family="Times,serif" font-size="14.00">2</text>
</g>
<!-- 1&#45;&gt;2 -->
<g id="edge10" class="edge">
<title>1&#45;&gt;2</title>
<path fill="none" stroke="black" d="M211.58,-88.01C216.62,-75.78 223.66,-58.68 229.48,-44.56"/>
<polygon fill="black" stroke="black" points="232.88,-45.5 233.45,-34.92 226.4,-42.83 232.88,-45.5"/>
<text text-anchor="middle" x="231.5" y="-57.8" font-family="Times,serif" font-size="14.00">!x</text>
</g>
<!-- 3&#45;&gt;0 -->
<g id="edge9" class="edge">
<title>3&#45;&gt;0</title>
<path fill="none" stroke="black" d="M172.51,-35.44C164.34,-65.33 147,-128.78 137.18,-164.73"/>
<polygon fill="black" stroke="black" points="133.77,-163.94 134.51,-174.51 140.52,-165.78 133.77,-163.94"/>
<text text-anchor="middle" x="165.5" y="-101.3" font-family="Times,serif" font-size="14.00">!e</text>
</g>
<!-- 2&#45;&gt;0 -->
<g id="edge11" class="edge">
<title>2&#45;&gt;0</title>
<path fill="none" stroke="black" d="M242.63,-35.97C245.13,-57.54 246.62,-95.29 232,-123 216.29,-152.78 181.04,-171.72 156.41,-181.85"/>
<polygon fill="black" stroke="black" points="154.96,-178.66 146.9,-185.54 157.49,-185.18 154.96,-178.66"/>
<text text-anchor="middle" x="248" y="-101.3" font-family="Times,serif" font-size="14.00">!f</text>
</g>
</g>
</svg>
