<?xml version="1.0" encoding="UTF-8" standalone="no"?>
<!DOCTYPE svg PUBLIC "-//W3C//DTD SVG 1.1//EN"
 "http://www.w3.org/Graphics/SVG/1.1/DTD/svg11.dtd">
<!-- Generated by graphviz version 2.43.0 (0)
 -->
<!-- Title: %3 Pages: 1 -->
<svg width="252pt" height="818pt"
 viewBox="0.00 0.00 252.09 818.05" xmlns="http://www.w3.org/2000/svg" xmlns:xlink="http://www.w3.org/1999/xlink">
<g id="graph0" class="graph" transform="scale(1 1) rotate(0) translate(4 814.05)">
<title>%3</title>
<polygon fill="white" stroke="transparent" points="-4,4 -4,-814.05 248.09,-814.05 248.09,4 -4,4"/>
<!-- ENTRY -->
<g id="node1" class="node">
<title>ENTRY</title>
<ellipse fill="black" stroke="black" cx="121.54" cy="-808.25" rx="1.8" ry="1.8"/>
</g>
<!-- 0 -->
<g id="node7" class="node">
<title>0</title>
<ellipse fill="none" stroke="black" cx="121.54" cy="-712.9" rx="56.59" ry="56.59"/>
<text text-anchor="middle" x="121.54" y="-709.2" font-family="Times,serif" font-size="14.00">0 &lt; Eps.0</text>
</g>
<!-- ENTRY&#45;&gt;0 -->
<g id="edge1" class="edge">
<title>ENTRY&#45;&gt;0</title>
<path fill="none" stroke="black" d="M121.54,-806.2C121.54,-802.95 121.54,-792.45 121.54,-779.65"/>
<polygon fill="black" stroke="black" points="125.05,-779.48 121.54,-769.48 118.05,-779.48 125.05,-779.48"/>
</g>
<!-- 6 -->
<g id="node2" class="node">
<title>6</title>
<ellipse fill="none" stroke="red" cx="56.54" cy="-56.54" rx="56.59" ry="56.59"/>
<text text-anchor="middle" x="56.54" y="-52.84" font-family="Times,serif" font-size="14.00">6 &lt; Eps.6</text>
</g>
<!-- 2 -->
<g id="node3" class="node">
<title>2</title>
<ellipse fill="none" stroke="black" cx="121.54" cy="-384.72" rx="56.59" ry="56.59"/>
<text text-anchor="middle" x="121.54" y="-381.02" font-family="Times,serif" font-size="14.00">2 &lt; Eps.2</text>
</g>
<!-- 3 -->
<g id="node5" class="node">
<title>3</title>
<ellipse fill="none" stroke="black" cx="121.54" cy="-220.63" rx="56.59" ry="56.59"/>
<text text-anchor="middle" x="121.54" y="-216.93" font-family="Times,serif" font-size="14.00">3 &lt; Eps.3</text>
</g>
<!-- 2&#45;&gt;3 -->
<g id="edge5" class="edge">
<title>2&#45;&gt;3</title>
<path fill="none" stroke="black" d="M121.54,-327.94C121.54,-314.88 121.54,-300.85 121.54,-287.39"/>
<polygon fill="black" stroke="black" points="125.05,-287.25 121.54,-277.25 118.05,-287.25 125.05,-287.25"/>
<text text-anchor="middle" x="134.04" y="-298.98" font-family="Times,serif" font-size="14.00">?a3</text>
</g>
<!-- 1 -->
<g id="node4" class="node">
<title>1</title>
<ellipse fill="none" stroke="black" cx="121.54" cy="-548.81" rx="56.59" ry="56.59"/>
<text text-anchor="middle" x="121.54" y="-545.11" font-family="Times,serif" font-size="14.00">1 &lt; Eps.1</text>
</g>
<!-- 1&#45;&gt;2 -->
<g id="edge6" class="edge">
<title>1&#45;&gt;2</title>
<path fill="none" stroke="black" d="M121.54,-492.03C121.54,-478.97 121.54,-464.93 121.54,-451.48"/>
<polygon fill="black" stroke="black" points="125.05,-451.34 121.54,-441.34 118.05,-451.34 125.05,-451.34"/>
<text text-anchor="middle" x="134.04" y="-463.07" font-family="Times,serif" font-size="14.00">?a2</text>
</g>
<!-- 3&#45;&gt;6 -->
<g id="edge2" class="edge">
<title>3&#45;&gt;6</title>
<path fill="none" stroke="black" d="M100.8,-167.9C94.53,-152.26 87.58,-134.93 81.08,-118.73"/>
<polygon fill="black" stroke="black" points="84.29,-117.32 77.32,-109.34 77.79,-119.93 84.29,-117.32"/>
<text text-anchor="middle" x="98.54" y="-134.89" font-family="Times,serif" font-size="14.00">!c</text>
</g>
<!-- 4 -->
<g id="node6" class="node">
<title>4</title>
<ellipse fill="none" stroke="red" cx="187.54" cy="-56.54" rx="56.59" ry="56.59"/>
<text text-anchor="middle" x="187.54" y="-52.84" font-family="Times,serif" font-size="14.00">4 &lt; Eps.4</text>
</g>
<!-- 3&#45;&gt;4 -->
<g id="edge4" class="edge">
<title>3&#45;&gt;4</title>
<path fill="none" stroke="black" d="M142.61,-167.9C149.01,-152.18 156.11,-134.76 162.73,-118.49"/>
<polygon fill="black" stroke="black" points="166.04,-119.65 166.57,-109.06 159.55,-117.01 166.04,-119.65"/>
<text text-anchor="middle" x="163.54" y="-134.89" font-family="Times,serif" font-size="14.00">!b</text>
</g>
<!-- 0&#45;&gt;1 -->
<g id="edge3" class="edge">
<title>0&#45;&gt;1</title>
<path fill="none" stroke="black" d="M121.54,-656.12C121.54,-643.06 121.54,-629.02 121.54,-615.57"/>
<polygon fill="black" stroke="black" points="125.05,-615.43 121.54,-605.43 118.05,-615.43 125.05,-615.43"/>
<text text-anchor="middle" x="134.04" y="-627.16" font-family="Times,serif" font-size="14.00">?a1</text>
</g>
</g>
</svg>
