<?xml version="1.0" encoding="UTF-8" standalone="no"?>
<!DOCTYPE svg PUBLIC "-//W3C//DTD SVG 1.1//EN"
 "http://www.w3.org/Graphics/SVG/1.1/DTD/svg11.dtd">
<!-- Generated by graphviz version 2.43.0 (0)
 -->
<!-- Title: %3 Pages: 1 -->
<svg width="223pt" height="294pt"
 viewBox="0.00 0.00 223.41 293.83" xmlns="http://www.w3.org/2000/svg" xmlns:xlink="http://www.w3.org/1999/xlink">
<g id="graph0" class="graph" transform="scale(1 1) rotate(0) translate(4 289.83)">
<title>%3</title>
<polygon fill="white" stroke="transparent" points="-4,4 -4,-289.83 219.41,-289.83 219.41,4 -4,4"/>
<!-- ENTRY -->
<g id="node1" class="node">
<title>ENTRY</title>
<ellipse fill="black" stroke="black" cx="61.52" cy="-229.93" rx="1.8" ry="1.8"/>
</g>
<!-- 0 -->
<g id="node3" class="node">
<title>0</title>
<ellipse fill="none" stroke="red" cx="61.52" cy="-61.52" rx="61.54" ry="61.54"/>
<text text-anchor="middle" x="61.52" y="-65.32" font-family="Times,serif" font-size="14.00">0 &lt; Eps.0</text>
<text text-anchor="middle" x="61.52" y="-50.32" font-family="Times,serif" font-size="14.00">{c}.1</text>
</g>
<!-- ENTRY&#45;&gt;0 -->
<g id="edge1" class="edge">
<title>ENTRY&#45;&gt;0</title>
<path fill="none" stroke="black" d="M61.52,-227.87C61.52,-220.4 61.52,-174.9 61.52,-133.52"/>
<polygon fill="black" stroke="black" points="65.02,-133.39 61.52,-123.39 58.02,-133.39 65.02,-133.39"/>
</g>
<!-- 1 -->
<g id="node2" class="node">
<title>1</title>
<ellipse fill="none" stroke="black" cx="159.52" cy="-229.93" rx="55.79" ry="55.79"/>
<text text-anchor="middle" x="159.52" y="-226.23" font-family="Times,serif" font-size="14.00">1 &lt; {c}.2</text>
</g>
<!-- 2 -->
<g id="node4" class="node">
<title>2</title>
<ellipse fill="none" stroke="black" cx="159.52" cy="-61.52" rx="18" ry="18"/>
<text text-anchor="middle" x="159.52" y="-57.82" font-family="Times,serif" font-size="14.00">2</text>
</g>
<!-- 1&#45;&gt;2 -->
<g id="edge2" class="edge">
<title>1&#45;&gt;2</title>
<path fill="none" stroke="black" d="M159.52,-173.98C159.52,-145.83 159.52,-112.78 159.52,-90.02"/>
<polygon fill="black" stroke="black" points="163.02,-89.74 159.52,-79.74 156.02,-89.74 163.02,-89.74"/>
<text text-anchor="middle" x="167.52" y="-144.84" font-family="Times,serif" font-size="14.00">?c</text>
</g>
</g>
</svg>
