<?xml version="1.0" encoding="UTF-8" standalone="no"?>
<!DOCTYPE svg PUBLIC "-//W3C//DTD SVG 1.1//EN"
 "http://www.w3.org/Graphics/SVG/1.1/DTD/svg11.dtd">
<!-- Generated by graphviz version 2.43.0 (0)
 -->
<!-- Title: %3 Pages: 1 -->
<svg width="278pt" height="610pt"
 viewBox="0.00 0.00 278.29 610.22" xmlns="http://www.w3.org/2000/svg" xmlns:xlink="http://www.w3.org/1999/xlink">
<g id="graph0" class="graph" transform="scale(1 1) rotate(0) translate(4 606.22)">
<title>%3</title>
<polygon fill="white" stroke="transparent" points="-4,4 -4,-606.22 274.29,-606.22 274.29,4 -4,4"/>
<!-- ENTRY -->
<g id="node1" class="node">
<title>ENTRY</title>
<ellipse fill="black" stroke="black" cx="148.15" cy="-600.42" rx="1.8" ry="1.8"/>
</g>
<!-- 0 -->
<g id="node4" class="node">
<title>0</title>
<ellipse fill="none" stroke="black" cx="148.15" cy="-500.1" rx="61.54" ry="61.54"/>
<text text-anchor="middle" x="148.15" y="-511.4" font-family="Times,serif" font-size="14.00">0 &lt; Eps.0</text>
<text text-anchor="middle" x="148.15" y="-496.4" font-family="Times,serif" font-size="14.00">({d,x})*.1</text>
<text text-anchor="middle" x="148.15" y="-481.4" font-family="Times,serif" font-size="14.00">({x,d})*.2</text>
</g>
<!-- ENTRY&#45;&gt;0 -->
<g id="edge1" class="edge">
<title>ENTRY&#45;&gt;0</title>
<path fill="none" stroke="black" d="M148.15,-598.32C148.15,-595.02 148.15,-584.69 148.15,-571.92"/>
<polygon fill="black" stroke="black" points="151.65,-571.76 148.15,-561.76 144.65,-571.76 151.65,-571.76"/>
</g>
<!-- 2 -->
<g id="node2" class="node">
<title>2</title>
<ellipse fill="none" stroke="black" cx="84.15" cy="-84.15" rx="84.29" ry="84.29"/>
<text text-anchor="middle" x="84.15" y="-102.95" font-family="Times,serif" font-size="14.00">2 &lt; Eps.1</text>
<text text-anchor="middle" x="84.15" y="-87.95" font-family="Times,serif" font-size="14.00">({x,d})*.{d}.1</text>
<text text-anchor="middle" x="84.15" y="-72.95" font-family="Times,serif" font-size="14.00">({x,d})*.{x}.1</text>
<text text-anchor="middle" x="84.15" y="-57.95" font-family="Times,serif" font-size="14.00">Eps.0</text>
</g>
<!-- 2&#45;&gt;0 -->
<g id="edge2" class="edge">
<title>2&#45;&gt;0</title>
<path fill="none" stroke="black" d="M69.07,-167.11C60.82,-228.96 56.07,-315.22 77.15,-387.58 82.8,-407 92.98,-426.27 103.9,-443.19"/>
<polygon fill="black" stroke="black" points="101.19,-445.43 109.65,-451.81 107.01,-441.55 101.19,-445.43"/>
<text text-anchor="middle" x="85.15" y="-299.74" font-family="Times,serif" font-size="14.00">!b</text>
</g>
<!-- 1 -->
<g id="node3" class="node">
<title>1</title>
<ellipse fill="none" stroke="black" cx="186.15" cy="-303.44" rx="84.29" ry="84.29"/>
<text text-anchor="middle" x="186.15" y="-314.74" font-family="Times,serif" font-size="14.00">1 &lt; Eps.1</text>
<text text-anchor="middle" x="186.15" y="-299.74" font-family="Times,serif" font-size="14.00">({x,d})*.{d}.1</text>
<text text-anchor="middle" x="186.15" y="-284.74" font-family="Times,serif" font-size="14.00">({x,d})*.{x}.1</text>
</g>
<!-- 1&#45;&gt;2 -->
<g id="edge4" class="edge">
<title>1&#45;&gt;2</title>
<path fill="none" stroke="black" d="M150.76,-227.05C142.1,-208.61 132.79,-188.77 123.94,-169.93"/>
<polygon fill="black" stroke="black" points="127.06,-168.33 119.64,-160.77 120.73,-171.31 127.06,-168.33"/>
<text text-anchor="middle" x="146.15" y="-190.09" font-family="Times,serif" font-size="14.00">?x</text>
</g>
<!-- 1&#45;&gt;0 -->
<g id="edge3" class="edge">
<title>1&#45;&gt;0</title>
<path fill="none" stroke="black" d="M170.78,-386.32C168.58,-397.83 166.32,-409.51 164.15,-420.58 163.56,-423.56 162.96,-426.6 162.35,-429.66"/>
<polygon fill="black" stroke="black" points="158.91,-429.03 160.38,-439.53 165.77,-430.41 158.91,-429.03"/>
<text text-anchor="middle" x="174.65" y="-409.38" font-family="Times,serif" font-size="14.00">?d</text>
</g>
<!-- 0&#45;&gt;1 -->
<g id="edge5" class="edge">
<title>0&#45;&gt;1</title>
<path fill="none" stroke="black" d="M142.25,-438.42C142.3,-427.42 143.09,-416.11 145.15,-405.58 146.13,-400.54 147.36,-395.43 148.79,-390.32"/>
<polygon fill="black" stroke="black" points="152.2,-391.11 151.74,-380.53 145.5,-389.1 152.2,-391.11"/>
<text text-anchor="middle" x="152.65" y="-409.38" font-family="Times,serif" font-size="14.00">!a</text>
</g>
</g>
</svg>
