<?xml version="1.0" encoding="UTF-8" standalone="no"?>
<!DOCTYPE svg PUBLIC "-//W3C//DTD SVG 1.1//EN"
 "http://www.w3.org/Graphics/SVG/1.1/DTD/svg11.dtd">
<!-- Generated by graphviz version 2.43.0 (0)
 -->
<!-- Title: %3 Pages: 1 -->
<svg width="130pt" height="172pt"
 viewBox="0.00 0.00 130.00 171.60" xmlns="http://www.w3.org/2000/svg" xmlns:xlink="http://www.w3.org/1999/xlink">
<g id="graph0" class="graph" transform="scale(1 1) rotate(0) translate(4 167.6)">
<title>%3</title>
<polygon fill="white" stroke="transparent" points="-4,4 -4,-167.6 126,-167.6 126,4 -4,4"/>
<!-- ENTRY -->
<g id="node1" class="node">
<title>ENTRY</title>
<ellipse fill="black" stroke="black" cx="65" cy="-161.8" rx="1.8" ry="1.8"/>
</g>
<!-- 0 -->
<g id="node2" class="node">
<title>0</title>
<ellipse fill="none" stroke="black" cx="65" cy="-105" rx="18" ry="18"/>
<text text-anchor="middle" x="65" y="-101.3" font-family="Times,serif" font-size="14.00">0</text>
</g>
<!-- ENTRY&#45;&gt;0 -->
<g id="edge1" class="edge">
<title>ENTRY&#45;&gt;0</title>
<path fill="none" stroke="black" d="M65,-159.85C65,-156.49 65,-144.73 65,-133.05"/>
<polygon fill="black" stroke="black" points="68.5,-133.02 65,-123.02 61.5,-133.02 68.5,-133.02"/>
</g>
<!-- 2 -->
<g id="node3" class="node">
<title>2</title>
<ellipse fill="none" stroke="black" cx="18" cy="-18" rx="18" ry="18"/>
<text text-anchor="middle" x="18" y="-14.3" font-family="Times,serif" font-size="14.00">2</text>
</g>
<!-- 0&#45;&gt;2 -->
<g id="edge2" class="edge">
<title>0&#45;&gt;2</title>
<path fill="none" stroke="black" d="M47.88,-98.68C34.37,-93.48 16.45,-84.1 8,-69 3.76,-61.42 4.24,-52.31 6.44,-43.95"/>
<polygon fill="black" stroke="black" points="9.82,-44.88 9.78,-34.28 3.21,-42.59 9.82,-44.88"/>
<text text-anchor="middle" x="16" y="-57.8" font-family="Times,serif" font-size="14.00">?a</text>
</g>
<!-- 1 -->
<g id="node4" class="node">
<title>1</title>
<ellipse fill="none" stroke="black" cx="104" cy="-18" rx="18" ry="18"/>
<text text-anchor="middle" x="104" y="-14.3" font-family="Times,serif" font-size="14.00">1</text>
</g>
<!-- 0&#45;&gt;1 -->
<g id="edge4" class="edge">
<title>0&#45;&gt;1</title>
<path fill="none" stroke="black" d="M71.01,-87.58C74.76,-77.72 79.83,-65 85,-54 86.65,-50.48 88.5,-46.81 90.37,-43.23"/>
<polygon fill="black" stroke="black" points="93.61,-44.6 95.28,-34.13 87.45,-41.27 93.61,-44.6"/>
<text text-anchor="middle" x="93.5" y="-57.8" font-family="Times,serif" font-size="14.00">?b</text>
</g>
<!-- 2&#45;&gt;0 -->
<g id="edge3" class="edge">
<title>2&#45;&gt;0</title>
<path fill="none" stroke="black" d="M26.33,-34.06C33.33,-46.72 43.45,-65.04 51.59,-79.75"/>
<polygon fill="black" stroke="black" points="48.7,-81.75 56.6,-88.8 54.82,-78.36 48.7,-81.75"/>
<text text-anchor="middle" x="52.5" y="-57.8" font-family="Times,serif" font-size="14.00">!y</text>
</g>
<!-- 1&#45;&gt;0 -->
<g id="edge5" class="edge">
<title>1&#45;&gt;0</title>
<path fill="none" stroke="black" d="M106.42,-35.94C107.12,-45.99 106.67,-58.72 102,-69 98.78,-76.08 93.4,-82.43 87.73,-87.72"/>
<polygon fill="black" stroke="black" points="85.39,-85.11 79.99,-94.23 89.89,-90.47 85.39,-85.11"/>
<text text-anchor="middle" x="112.5" y="-57.8" font-family="Times,serif" font-size="14.00">!x</text>
</g>
</g>
</svg>
