<?xml version="1.0" encoding="UTF-8" standalone="no"?>
<!DOCTYPE svg PUBLIC "-//W3C//DTD SVG 1.1//EN"
 "http://www.w3.org/Graphics/SVG/1.1/DTD/svg11.dtd">
<!-- Generated by graphviz version 2.43.0 (0)
 -->
<!-- Title: %3 Pages: 1 -->
<svg width="312pt" height="655pt"
 viewBox="0.00 0.00 311.92 655.47" xmlns="http://www.w3.org/2000/svg" xmlns:xlink="http://www.w3.org/1999/xlink">
<g id="graph0" class="graph" transform="scale(1 1) rotate(0) translate(4 651.47)">
<title>%3</title>
<polygon fill="white" stroke="transparent" points="-4,4 -4,-651.47 307.92,-651.47 307.92,4 -4,4"/>
<!-- ENTRY -->
<g id="node1" class="node">
<title>ENTRY</title>
<ellipse fill="black" stroke="black" cx="119.46" cy="-645.67" rx="1.8" ry="1.8"/>
</g>
<!-- 0 -->
<g id="node4" class="node">
<title>0</title>
<ellipse fill="none" stroke="black" cx="119.46" cy="-545.36" rx="61.54" ry="61.54"/>
<text text-anchor="middle" x="119.46" y="-556.66" font-family="Times,serif" font-size="14.00">0 &lt; Eps.0</text>
<text text-anchor="middle" x="119.46" y="-541.66" font-family="Times,serif" font-size="14.00">({a})*.3</text>
<text text-anchor="middle" x="119.46" y="-526.66" font-family="Times,serif" font-size="14.00">({a})*.4</text>
</g>
<!-- ENTRY&#45;&gt;0 -->
<g id="edge1" class="edge">
<title>ENTRY&#45;&gt;0</title>
<path fill="none" stroke="black" d="M119.46,-643.57C119.46,-640.28 119.46,-629.94 119.46,-617.18"/>
<polygon fill="black" stroke="black" points="122.96,-617.01 119.46,-607.01 115.96,-617.01 122.96,-617.01"/>
</g>
<!-- 2 -->
<g id="node2" class="node">
<title>2</title>
<ellipse fill="none" stroke="black" cx="95.46" cy="-95.46" rx="95.42" ry="95.42"/>
<text text-anchor="middle" x="95.46" y="-106.76" font-family="Times,serif" font-size="14.00">2 &lt; ({a})*.{a}.4</text>
<text text-anchor="middle" x="95.46" y="-91.76" font-family="Times,serif" font-size="14.00">{a}.3</text>
<text text-anchor="middle" x="95.46" y="-76.76" font-family="Times,serif" font-size="14.00">({a})*.{a}.{a}.3</text>
</g>
<!-- 2&#45;&gt;0 -->
<g id="edge2" class="edge">
<title>2&#45;&gt;0</title>
<path fill="none" stroke="black" d="M85.7,-190.43C80.56,-258.14 77.37,-351.52 88.46,-432.84 90.43,-447.32 93.79,-462.57 97.58,-476.98"/>
<polygon fill="black" stroke="black" points="94.25,-478.09 100.26,-486.81 101.01,-476.24 94.25,-478.09"/>
<text text-anchor="middle" x="96.46" y="-333.68" font-family="Times,serif" font-size="14.00">?a</text>
</g>
<!-- 1 -->
<g id="node3" class="node">
<title>1</title>
<ellipse fill="none" stroke="black" cx="208.46" cy="-337.38" rx="95.42" ry="95.42"/>
<text text-anchor="middle" x="208.46" y="-348.68" font-family="Times,serif" font-size="14.00">1 &lt; {a}.2</text>
<text text-anchor="middle" x="208.46" y="-333.68" font-family="Times,serif" font-size="14.00">({a})*.{a}.{a}.2</text>
<text text-anchor="middle" x="208.46" y="-318.68" font-family="Times,serif" font-size="14.00">({a})*.0</text>
</g>
<!-- 1&#45;&gt;2 -->
<g id="edge3" class="edge">
<title>1&#45;&gt;2</title>
<path fill="none" stroke="black" d="M168.14,-250.78C159.06,-231.49 149.37,-210.91 140.12,-191.28"/>
<polygon fill="black" stroke="black" points="143.19,-189.58 135.76,-182.03 136.86,-192.56 143.19,-189.58"/>
<text text-anchor="middle" x="161.46" y="-212.72" font-family="Times,serif" font-size="14.00">!c</text>
</g>
<!-- 0&#45;&gt;1 -->
<g id="edge4" class="edge">
<title>0&#45;&gt;1</title>
<path fill="none" stroke="black" d="M143.54,-488.62C150.77,-471.9 158.91,-453.06 166.92,-434.53"/>
<polygon fill="black" stroke="black" points="170.21,-435.73 170.96,-425.17 163.78,-432.96 170.21,-435.73"/>
<text text-anchor="middle" x="166.46" y="-454.64" font-family="Times,serif" font-size="14.00">!b</text>
</g>
</g>
</svg>
