<?xml version="1.0" encoding="UTF-8" standalone="no"?>
<!DOCTYPE svg PUBLIC "-//W3C//DTD SVG 1.1//EN"
 "http://www.w3.org/Graphics/SVG/1.1/DTD/svg11.dtd">
<!-- Generated by graphviz version 2.43.0 (0)
 -->
<!-- Title: %3 Pages: 1 -->
<svg width="136pt" height="346pt"
 viewBox="0.00 0.00 136.00 345.60" xmlns="http://www.w3.org/2000/svg" xmlns:xlink="http://www.w3.org/1999/xlink">
<g id="graph0" class="graph" transform="scale(1 1) rotate(0) translate(4 341.6)">
<title>%3</title>
<polygon fill="white" stroke="transparent" points="-4,4 -4,-341.6 132,-341.6 132,4 -4,4"/>
<!-- ENTRY -->
<g id="node1" class="node">
<title>ENTRY</title>
<ellipse fill="black" stroke="black" cx="83" cy="-335.8" rx="1.8" ry="1.8"/>
</g>
<!-- 0 -->
<g id="node2" class="node">
<title>0</title>
<ellipse fill="none" stroke="black" cx="83" cy="-279" rx="18" ry="18"/>
<text text-anchor="middle" x="83" y="-275.3" font-family="Times,serif" font-size="14.00">0</text>
</g>
<!-- ENTRY&#45;&gt;0 -->
<g id="edge1" class="edge">
<title>ENTRY&#45;&gt;0</title>
<path fill="none" stroke="black" d="M83,-333.85C83,-330.49 83,-318.73 83,-307.05"/>
<polygon fill="black" stroke="black" points="86.5,-307.02 83,-297.02 79.5,-307.02 86.5,-307.02"/>
</g>
<!-- 1 -->
<g id="node3" class="node">
<title>1</title>
<ellipse fill="none" stroke="black" cx="29" cy="-192" rx="18" ry="18"/>
<text text-anchor="middle" x="29" y="-188.3" font-family="Times,serif" font-size="14.00">1</text>
</g>
<!-- 0&#45;&gt;1 -->
<g id="edge2" class="edge">
<title>0&#45;&gt;1</title>
<path fill="none" stroke="black" d="M70.74,-265.35C64.94,-258.96 58.16,-250.91 53,-243 47.93,-235.23 43.28,-226.23 39.45,-218.03"/>
<polygon fill="black" stroke="black" points="42.64,-216.58 35.35,-208.88 36.25,-219.44 42.64,-216.58"/>
<text text-anchor="middle" x="61" y="-231.8" font-family="Times,serif" font-size="14.00">?a</text>
</g>
<!-- 4 -->
<g id="node4" class="node">
<title>4</title>
<ellipse fill="none" stroke="black" cx="78" cy="-105" rx="18" ry="18"/>
<text text-anchor="middle" x="78" y="-101.3" font-family="Times,serif" font-size="14.00">4</text>
</g>
<!-- 1&#45;&gt;4 -->
<g id="edge3" class="edge">
<title>1&#45;&gt;4</title>
<path fill="none" stroke="black" d="M36.57,-175.46C41.55,-165.48 48.37,-152.31 55,-141 57.34,-137.01 59.94,-132.84 62.52,-128.83"/>
<polygon fill="black" stroke="black" points="65.47,-130.71 68.04,-120.44 59.62,-126.87 65.47,-130.71"/>
<text text-anchor="middle" x="62" y="-144.8" font-family="Times,serif" font-size="14.00">!c</text>
</g>
<!-- 2 -->
<g id="node5" class="node">
<title>2</title>
<ellipse fill="none" stroke="black" cx="18" cy="-105" rx="18" ry="18"/>
<text text-anchor="middle" x="18" y="-101.3" font-family="Times,serif" font-size="14.00">2</text>
</g>
<!-- 1&#45;&gt;2 -->
<g id="edge5" class="edge">
<title>1&#45;&gt;2</title>
<path fill="none" stroke="black" d="M21.82,-175.31C19.47,-169.39 17.17,-162.51 16,-156 14.68,-148.68 14.47,-140.66 14.77,-133.23"/>
<polygon fill="black" stroke="black" points="18.26,-133.47 15.48,-123.25 11.28,-132.98 18.26,-133.47"/>
<text text-anchor="middle" x="24" y="-144.8" font-family="Times,serif" font-size="14.00">!b</text>
</g>
<!-- 4&#45;&gt;0 -->
<g id="edge4" class="edge">
<title>4&#45;&gt;0</title>
<path fill="none" stroke="black" d="M78.5,-123.05C79.36,-152.88 81.16,-214.76 82.2,-250.64"/>
<polygon fill="black" stroke="black" points="78.71,-250.99 82.5,-260.88 85.71,-250.78 78.71,-250.99"/>
<text text-anchor="middle" x="88" y="-188.3" font-family="Times,serif" font-size="14.00">?a</text>
</g>
<!-- 3 -->
<g id="node6" class="node">
<title>3</title>
<ellipse fill="none" stroke="black" cx="77" cy="-18" rx="18" ry="18"/>
<text text-anchor="middle" x="77" y="-14.3" font-family="Times,serif" font-size="14.00">3</text>
</g>
<!-- 2&#45;&gt;3 -->
<g id="edge6" class="edge">
<title>2&#45;&gt;3</title>
<path fill="none" stroke="black" d="M28.01,-89.58C37.13,-76.44 50.76,-56.8 61.33,-41.58"/>
<polygon fill="black" stroke="black" points="64.31,-43.42 67.14,-33.21 58.56,-39.43 64.31,-43.42"/>
<text text-anchor="middle" x="59" y="-57.8" font-family="Times,serif" font-size="14.00">!c</text>
</g>
<!-- 3&#45;&gt;0 -->
<g id="edge7" class="edge">
<title>3&#45;&gt;0</title>
<path fill="none" stroke="black" d="M85.24,-34.12C92.07,-47.56 101.23,-67.96 105,-87 118.48,-155.15 111.54,-175.52 95,-243 94.26,-246.02 93.37,-249.15 92.41,-252.24"/>
<polygon fill="black" stroke="black" points="89.07,-251.21 89.23,-261.8 95.71,-253.42 89.07,-251.21"/>
<text text-anchor="middle" x="120" y="-144.8" font-family="Times,serif" font-size="14.00">!b</text>
</g>
</g>
</svg>
