<?xml version="1.0" encoding="UTF-8" standalone="no"?>
<!DOCTYPE svg PUBLIC "-//W3C//DTD SVG 1.1//EN"
 "http://www.w3.org/Graphics/SVG/1.1/DTD/svg11.dtd">
<!-- Generated by graphviz version 2.43.0 (0)
 -->
<!-- Title: %3 Pages: 1 -->
<svg width="781pt" height="674pt"
 viewBox="0.00 0.00 780.63 673.91" xmlns="http://www.w3.org/2000/svg" xmlns:xlink="http://www.w3.org/1999/xlink">
<g id="graph0" class="graph" transform="scale(1 1) rotate(0) translate(4 669.91)">
<title>%3</title>
<polygon fill="white" stroke="transparent" points="-4,4 -4,-669.91 776.63,-669.91 776.63,4 -4,4"/>
<!-- ENTRY -->
<g id="node1" class="node">
<title>ENTRY</title>
<ellipse fill="black" stroke="black" cx="391.19" cy="-664.11" rx="1.8" ry="1.8"/>
</g>
<!-- 0 -->
<g id="node2" class="node">
<title>0</title>
<ellipse fill="none" stroke="black" cx="391.19" cy="-542.58" rx="82.96" ry="82.96"/>
<text text-anchor="middle" x="391.19" y="-546.38" font-family="Times,serif" font-size="14.00">0 &lt; ({a,b})*.0</text>
<text text-anchor="middle" x="391.19" y="-531.38" font-family="Times,serif" font-size="14.00">({a,b})*.4</text>
</g>
<!-- ENTRY&#45;&gt;0 -->
<g id="edge1" class="edge">
<title>ENTRY&#45;&gt;0</title>
<path fill="none" stroke="black" d="M391.19,-661.77C391.19,-658.29 391.19,-648.38 391.19,-635.69"/>
<polygon fill="black" stroke="black" points="394.69,-635.49 391.19,-625.49 387.69,-635.49 394.69,-635.49"/>
</g>
<!-- 4 -->
<g id="node3" class="node">
<title>4</title>
<ellipse fill="none" stroke="black" cx="248.19" cy="-326.11" rx="82.96" ry="82.96"/>
<text text-anchor="middle" x="248.19" y="-329.91" font-family="Times,serif" font-size="14.00">4 &lt; ({a,b})*.0</text>
<text text-anchor="middle" x="248.19" y="-314.91" font-family="Times,serif" font-size="14.00">({a,b})*.4</text>
</g>
<!-- 0&#45;&gt;4 -->
<g id="edge9" class="edge">
<title>0&#45;&gt;4</title>
<path fill="none" stroke="black" d="M345.75,-473.43C331.03,-451.35 314.6,-426.71 299.48,-404.04"/>
<polygon fill="black" stroke="black" points="302.22,-401.84 293.76,-395.46 296.4,-405.72 302.22,-401.84"/>
<text text-anchor="middle" x="332.69" y="-430.65" font-family="Times,serif" font-size="14.00">?b</text>
</g>
<!-- 1 -->
<g id="node4" class="node">
<title>1</title>
<ellipse fill="none" stroke="black" cx="528.19" cy="-326.11" rx="82.96" ry="82.96"/>
<text text-anchor="middle" x="528.19" y="-337.41" font-family="Times,serif" font-size="14.00">1 &lt; ({a,b})*.0</text>
<text text-anchor="middle" x="528.19" y="-322.41" font-family="Times,serif" font-size="14.00">Eps.1</text>
<text text-anchor="middle" x="528.19" y="-307.41" font-family="Times,serif" font-size="14.00">({a,b})*.4</text>
</g>
<!-- 0&#45;&gt;1 -->
<g id="edge3" class="edge">
<title>0&#45;&gt;1</title>
<path fill="none" stroke="black" d="M435.29,-472.54C449.04,-451.03 464.28,-427.16 478.39,-405.08"/>
<polygon fill="black" stroke="black" points="481.5,-406.7 483.94,-396.39 475.6,-402.93 481.5,-406.7"/>
<text text-anchor="middle" x="472.19" y="-430.65" font-family="Times,serif" font-size="14.00">?a</text>
</g>
<!-- 6 -->
<g id="node6" class="node">
<title>6</title>
<ellipse fill="none" stroke="black" cx="96.19" cy="-96.19" rx="96.38" ry="96.38"/>
<text text-anchor="middle" x="96.19" y="-92.49" font-family="Times,serif" font-size="14.00">6 &lt; ({a,b})*.{a}.2</text>
</g>
<!-- 4&#45;&gt;6 -->
<g id="edge10" class="edge">
<title>4&#45;&gt;6</title>
<path fill="none" stroke="black" d="M202.59,-256.73C187.57,-234.21 170.65,-208.85 154.8,-185.08"/>
<polygon fill="black" stroke="black" points="157.71,-183.13 149.25,-176.75 151.88,-187.01 157.71,-183.13"/>
<text text-anchor="middle" x="190.19" y="-214.18" font-family="Times,serif" font-size="14.00">!d</text>
</g>
<!-- 5 -->
<g id="node8" class="node">
<title>5</title>
<ellipse fill="none" stroke="black" cx="306.19" cy="-96.19" rx="96.38" ry="96.38"/>
<text text-anchor="middle" x="306.19" y="-92.49" font-family="Times,serif" font-size="14.00">5 &lt; ({a,b})*.{a}.3</text>
</g>
<!-- 4&#45;&gt;5 -->
<g id="edge6" class="edge">
<title>4&#45;&gt;5</title>
<path fill="none" stroke="black" d="M268.4,-245.72C272.18,-230.86 276.18,-215.13 280.11,-199.69"/>
<polygon fill="black" stroke="black" points="283.6,-200.15 282.68,-189.6 276.82,-198.42 283.6,-200.15"/>
<text text-anchor="middle" x="284.69" y="-214.18" font-family="Times,serif" font-size="14.00">!x</text>
</g>
<!-- 2 -->
<g id="node5" class="node">
<title>2</title>
<ellipse fill="none" stroke="black" cx="504.19" cy="-96.19" rx="83.38" ry="83.38"/>
<text text-anchor="middle" x="504.19" y="-99.99" font-family="Times,serif" font-size="14.00">2 &lt; Eps.3</text>
<text text-anchor="middle" x="504.19" y="-84.99" font-family="Times,serif" font-size="14.00">({a,b})*.{a}.3</text>
</g>
<!-- 1&#45;&gt;2 -->
<g id="edge11" class="edge">
<title>1&#45;&gt;2</title>
<path fill="none" stroke="black" d="M519.63,-243.79C517.77,-226.1 515.78,-207.27 513.88,-189.2"/>
<polygon fill="black" stroke="black" points="517.36,-188.83 512.83,-179.25 510.4,-189.56 517.36,-188.83"/>
<text text-anchor="middle" x="525.69" y="-214.18" font-family="Times,serif" font-size="14.00">!x</text>
</g>
<!-- 3 -->
<g id="node7" class="node">
<title>3</title>
<ellipse fill="none" stroke="black" cx="689.19" cy="-96.19" rx="83.38" ry="83.38"/>
<text text-anchor="middle" x="689.19" y="-99.99" font-family="Times,serif" font-size="14.00">3 &lt; Eps.2</text>
<text text-anchor="middle" x="689.19" y="-84.99" font-family="Times,serif" font-size="14.00">({a,b})*.{a}.2</text>
</g>
<!-- 1&#45;&gt;3 -->
<g id="edge2" class="edge">
<title>1&#45;&gt;3</title>
<path fill="none" stroke="black" d="M575.63,-257.96C594.37,-231.43 616.01,-200.79 635.34,-173.42"/>
<polygon fill="black" stroke="black" points="638.35,-175.23 641.26,-165.05 632.63,-171.19 638.35,-175.23"/>
<text text-anchor="middle" x="617.19" y="-214.18" font-family="Times,serif" font-size="14.00">!d</text>
</g>
<!-- 2&#45;&gt;0 -->
<g id="edge8" class="edge">
<title>2&#45;&gt;0</title>
<path fill="none" stroke="black" d="M459.08,-166.45C445.74,-190 432.5,-217.03 424.19,-243.38 403.05,-310.42 395.03,-389.64 392.17,-449.57"/>
<polygon fill="black" stroke="black" points="388.66,-449.63 391.72,-459.77 395.66,-449.93 388.66,-449.63"/>
<text text-anchor="middle" x="430.19" y="-322.41" font-family="Times,serif" font-size="14.00">!f</text>
</g>
<!-- 6&#45;&gt;0 -->
<g id="edge5" class="edge">
<title>6&#45;&gt;0</title>
<path fill="none" stroke="black" d="M88.42,-192.26C87.79,-258.6 97.08,-346.14 141.19,-408.85 179.35,-463.08 246.74,-497.02 301.95,-516.99"/>
<polygon fill="black" stroke="black" points="300.8,-520.3 311.4,-520.32 303.13,-513.7 300.8,-520.3"/>
<text text-anchor="middle" x="148.69" y="-322.41" font-family="Times,serif" font-size="14.00">!e</text>
</g>
<!-- 3&#45;&gt;0 -->
<g id="edge4" class="edge">
<title>3&#45;&gt;0</title>
<path fill="none" stroke="black" d="M688.68,-179.75C684.38,-247.25 669.03,-342.1 620.19,-408.85 585.27,-456.58 527.58,-489.86 478.84,-511.16"/>
<polygon fill="black" stroke="black" points="477.36,-507.99 469.54,-515.13 480.11,-514.43 477.36,-507.99"/>
<text text-anchor="middle" x="689.69" y="-322.41" font-family="Times,serif" font-size="14.00">!e</text>
</g>
<!-- 5&#45;&gt;0 -->
<g id="edge7" class="edge">
<title>5&#45;&gt;0</title>
<path fill="none" stroke="black" d="M328.6,-189.82C332.65,-207.56 336.69,-226.01 340.19,-243.38 354.15,-312.62 367.52,-391.39 377.06,-450.58"/>
<polygon fill="black" stroke="black" points="373.64,-451.34 378.68,-460.65 380.55,-450.23 373.64,-451.34"/>
<text text-anchor="middle" x="376.19" y="-322.41" font-family="Times,serif" font-size="14.00">!f</text>
</g>
</g>
</svg>
