<?xml version="1.0" encoding="UTF-8" standalone="no"?>
<!DOCTYPE svg PUBLIC "-//W3C//DTD SVG 1.1//EN"
 "http://www.w3.org/Graphics/SVG/1.1/DTD/svg11.dtd">
<!-- Generated by graphviz version 2.43.0 (0)
 -->
<!-- Title: %3 Pages: 1 -->
<svg width="417pt" height="549pt"
 viewBox="0.00 0.00 416.90 548.76" xmlns="http://www.w3.org/2000/svg" xmlns:xlink="http://www.w3.org/1999/xlink">
<g id="graph0" class="graph" transform="scale(1 1) rotate(0) translate(4 544.76)">
<title>%3</title>
<polygon fill="white" stroke="transparent" points="-4,4 -4,-544.76 412.9,-544.76 412.9,4 -4,4"/>
<!-- ENTRY -->
<g id="node1" class="node">
<title>ENTRY</title>
<ellipse fill="black" stroke="black" cx="208.36" cy="-538.96" rx="1.8" ry="1.8"/>
</g>
<!-- 0 -->
<g id="node3" class="node">
<title>0</title>
<ellipse fill="none" stroke="black" cx="208.36" cy="-438.64" rx="61.54" ry="61.54"/>
<text text-anchor="middle" x="208.36" y="-449.94" font-family="Times,serif" font-size="14.00">0 &lt; {a}.8</text>
<text text-anchor="middle" x="208.36" y="-434.94" font-family="Times,serif" font-size="14.00">Eps.0</text>
<text text-anchor="middle" x="208.36" y="-419.94" font-family="Times,serif" font-size="14.00">({a,b})*.3</text>
</g>
<!-- ENTRY&#45;&gt;0 -->
<g id="edge1" class="edge">
<title>ENTRY&#45;&gt;0</title>
<path fill="none" stroke="black" d="M208.36,-536.86C208.36,-533.56 208.36,-523.23 208.36,-510.46"/>
<polygon fill="black" stroke="black" points="211.86,-510.3 208.36,-500.3 204.86,-510.3 211.86,-510.3"/>
</g>
<!-- 1 -->
<g id="node2" class="node">
<title>1</title>
<ellipse fill="none" stroke="black" cx="286.36" cy="-250.08" rx="61.54" ry="61.54"/>
<text text-anchor="middle" x="286.36" y="-268.88" font-family="Times,serif" font-size="14.00">1 &lt; Eps.8</text>
<text text-anchor="middle" x="286.36" y="-253.88" font-family="Times,serif" font-size="14.00">({a,b})*.3</text>
<text text-anchor="middle" x="286.36" y="-238.88" font-family="Times,serif" font-size="14.00">Eps.1</text>
<text text-anchor="middle" x="286.36" y="-223.88" font-family="Times,serif" font-size="14.00">Eps.4</text>
</g>
<!-- 2 -->
<g id="node4" class="node">
<title>2</title>
<ellipse fill="none" stroke="black" cx="112.36" cy="-61.52" rx="61.54" ry="61.54"/>
<text text-anchor="middle" x="112.36" y="-80.32" font-family="Times,serif" font-size="14.00">2 &lt; Eps.2</text>
<text text-anchor="middle" x="112.36" y="-65.32" font-family="Times,serif" font-size="14.00">Eps.4</text>
<text text-anchor="middle" x="112.36" y="-50.32" font-family="Times,serif" font-size="14.00">({a})*.3</text>
<text text-anchor="middle" x="112.36" y="-35.32" font-family="Times,serif" font-size="14.00">Eps.9</text>
</g>
<!-- 1&#45;&gt;2 -->
<g id="edge2" class="edge">
<title>1&#45;&gt;2</title>
<path fill="none" stroke="black" d="M244.68,-204.39C219.49,-177.38 187.25,-142.82 160.91,-114.57"/>
<polygon fill="black" stroke="black" points="163.38,-112.09 154,-107.16 158.26,-116.86 163.38,-112.09"/>
<text text-anchor="middle" x="207.36" y="-144.84" font-family="Times,serif" font-size="14.00">?a</text>
</g>
<!-- 3 -->
<g id="node5" class="node">
<title>3</title>
<ellipse fill="none" stroke="black" cx="352.36" cy="-61.52" rx="56.59" ry="56.59"/>
<text text-anchor="middle" x="352.36" y="-57.82" font-family="Times,serif" font-size="14.00">3 &lt; Eps.5</text>
</g>
<!-- 1&#45;&gt;3 -->
<g id="edge3" class="edge">
<title>1&#45;&gt;3</title>
<path fill="none" stroke="black" d="M306.61,-191.84C314.14,-170.56 322.71,-146.34 330.38,-124.65"/>
<polygon fill="black" stroke="black" points="333.69,-125.8 333.72,-115.2 327.09,-123.46 333.69,-125.8"/>
<text text-anchor="middle" x="330.86" y="-144.84" font-family="Times,serif" font-size="14.00">?b</text>
</g>
<!-- 0&#45;&gt;1 -->
<g id="edge4" class="edge">
<title>0&#45;&gt;1</title>
<path fill="none" stroke="black" d="M231.76,-381.67C240.36,-361.1 250.17,-337.63 259.08,-316.32"/>
<polygon fill="black" stroke="black" points="262.34,-317.59 262.97,-307.01 255.89,-314.89 262.34,-317.59"/>
<text text-anchor="middle" x="255.36" y="-347.92" font-family="Times,serif" font-size="14.00">?a</text>
</g>
<!-- 4 -->
<g id="node6" class="node">
<title>4</title>
<ellipse fill="none" stroke="red" cx="130.36" cy="-250.08" rx="76.09" ry="76.09"/>
<text text-anchor="middle" x="130.36" y="-246.38" font-family="Times,serif" font-size="14.00">4 &lt; ({a,b})*.3</text>
</g>
<!-- 0&#45;&gt;4 -->
<g id="edge7" class="edge">
<title>0&#45;&gt;4</title>
<path fill="none" stroke="black" d="M184.96,-381.67C178.18,-365.46 170.65,-347.45 163.4,-330.11"/>
<polygon fill="black" stroke="black" points="166.5,-328.44 159.41,-320.56 160.04,-331.14 166.5,-328.44"/>
<text text-anchor="middle" x="182.86" y="-347.92" font-family="Times,serif" font-size="14.00">?b</text>
</g>
<!-- 2&#45;&gt;0 -->
<g id="edge6" class="edge">
<title>2&#45;&gt;0</title>
<path fill="none" stroke="black" d="M67.29,-103.65C49.34,-123.03 30.75,-147.67 21.36,-174.04 -1.32,-237.71 -12.02,-267.35 21.36,-326.12 46.7,-370.74 97.74,-399.39 140.1,-416.47"/>
<polygon fill="black" stroke="black" points="138.96,-419.78 149.55,-420.15 141.5,-413.26 138.96,-419.78"/>
<text text-anchor="middle" x="33.36" y="-246.38" font-family="Times,serif" font-size="14.00">!x1</text>
</g>
<!-- 3&#45;&gt;0 -->
<g id="edge5" class="edge">
<title>3&#45;&gt;0</title>
<path fill="none" stroke="black" d="M367.31,-116.22C379.73,-171.87 390.55,-259.82 357.36,-326.12 339.58,-361.64 304.51,-388.77 272.86,-407.37"/>
<polygon fill="black" stroke="black" points="271,-404.4 264.04,-412.39 274.46,-410.48 271,-404.4"/>
<text text-anchor="middle" x="391.36" y="-246.38" font-family="Times,serif" font-size="14.00">!x3</text>
</g>
</g>
</svg>
