<?xml version="1.0" encoding="UTF-8" standalone="no"?>
<!DOCTYPE svg PUBLIC "-//W3C//DTD SVG 1.1//EN"
 "http://www.w3.org/Graphics/SVG/1.1/DTD/svg11.dtd">
<!-- Generated by graphviz version 2.43.0 (0)
 -->
<!-- Title: %3 Pages: 1 -->
<svg width="282pt" height="520pt"
 viewBox="0.00 0.00 282.00 519.60" xmlns="http://www.w3.org/2000/svg" xmlns:xlink="http://www.w3.org/1999/xlink">
<g id="graph0" class="graph" transform="scale(1 1) rotate(0) translate(4 515.6)">
<title>%3</title>
<polygon fill="white" stroke="transparent" points="-4,4 -4,-515.6 278,-515.6 278,4 -4,4"/>
<!-- ENTRY -->
<g id="node1" class="node">
<title>ENTRY</title>
<ellipse fill="black" stroke="black" cx="151" cy="-509.8" rx="1.8" ry="1.8"/>
</g>
<!-- 0 -->
<g id="node2" class="node">
<title>0</title>
<ellipse fill="none" stroke="black" cx="151" cy="-453" rx="18" ry="18"/>
<text text-anchor="middle" x="151" y="-449.3" font-family="Times,serif" font-size="14.00">0</text>
</g>
<!-- ENTRY&#45;&gt;0 -->
<g id="edge1" class="edge">
<title>ENTRY&#45;&gt;0</title>
<path fill="none" stroke="black" d="M151,-507.85C151,-504.49 151,-492.73 151,-481.05"/>
<polygon fill="black" stroke="black" points="154.5,-481.02 151,-471.02 147.5,-481.02 154.5,-481.02"/>
</g>
<!-- 1 -->
<g id="node3" class="node">
<title>1</title>
<ellipse fill="none" stroke="black" cx="151" cy="-366" rx="18" ry="18"/>
<text text-anchor="middle" x="151" y="-362.3" font-family="Times,serif" font-size="14.00">1</text>
</g>
<!-- 0&#45;&gt;1 -->
<g id="edge2" class="edge">
<title>0&#45;&gt;1</title>
<path fill="none" stroke="black" d="M151,-434.8C151,-423.16 151,-407.55 151,-394.24"/>
<polygon fill="black" stroke="black" points="154.5,-394.18 151,-384.18 147.5,-394.18 154.5,-394.18"/>
<text text-anchor="middle" x="159" y="-405.8" font-family="Times,serif" font-size="14.00">?a</text>
</g>
<!-- 2 -->
<g id="node4" class="node">
<title>2</title>
<ellipse fill="none" stroke="black" cx="151" cy="-279" rx="18" ry="18"/>
<text text-anchor="middle" x="151" y="-275.3" font-family="Times,serif" font-size="14.00">2</text>
</g>
<!-- 1&#45;&gt;2 -->
<g id="edge3" class="edge">
<title>1&#45;&gt;2</title>
<path fill="none" stroke="black" d="M151,-347.8C151,-336.16 151,-320.55 151,-307.24"/>
<polygon fill="black" stroke="black" points="154.5,-307.18 151,-297.18 147.5,-307.18 154.5,-307.18"/>
<text text-anchor="middle" x="159" y="-318.8" font-family="Times,serif" font-size="14.00">?a</text>
</g>
<!-- 8 -->
<g id="node5" class="node">
<title>8</title>
<ellipse fill="none" stroke="black" cx="18" cy="-192" rx="18" ry="18"/>
<text text-anchor="middle" x="18" y="-188.3" font-family="Times,serif" font-size="14.00">8</text>
</g>
<!-- 2&#45;&gt;8 -->
<g id="edge4" class="edge">
<title>2&#45;&gt;8</title>
<path fill="none" stroke="black" d="M132.97,-277.62C107.5,-276.1 61.09,-269.58 34,-243 27.8,-236.92 24,-228.44 21.67,-220.19"/>
<polygon fill="black" stroke="black" points="25.09,-219.42 19.5,-210.42 18.25,-220.94 25.09,-219.42"/>
<text text-anchor="middle" x="46" y="-231.8" font-family="Times,serif" font-size="14.00">!x3</text>
</g>
<!-- 6 -->
<g id="node7" class="node">
<title>6</title>
<ellipse fill="none" stroke="black" cx="178" cy="-192" rx="18" ry="18"/>
<text text-anchor="middle" x="178" y="-188.3" font-family="Times,serif" font-size="14.00">6</text>
</g>
<!-- 2&#45;&gt;6 -->
<g id="edge7" class="edge">
<title>2&#45;&gt;6</title>
<path fill="none" stroke="black" d="M156.21,-261.61C160.02,-249.62 165.26,-233.09 169.66,-219.27"/>
<polygon fill="black" stroke="black" points="173.12,-219.93 172.81,-209.34 166.45,-217.81 173.12,-219.93"/>
<text text-anchor="middle" x="178" y="-231.8" font-family="Times,serif" font-size="14.00">!x2</text>
</g>
<!-- 3 -->
<g id="node9" class="node">
<title>3</title>
<ellipse fill="none" stroke="black" cx="124" cy="-192" rx="18" ry="18"/>
<text text-anchor="middle" x="124" y="-188.3" font-family="Times,serif" font-size="14.00">3</text>
</g>
<!-- 2&#45;&gt;3 -->
<g id="edge10" class="edge">
<title>2&#45;&gt;3</title>
<path fill="none" stroke="black" d="M142.68,-263.02C139.59,-256.95 136.28,-249.79 134,-243 131.51,-235.62 129.56,-227.4 128.06,-219.8"/>
<polygon fill="black" stroke="black" points="131.5,-219.17 126.29,-209.95 124.61,-220.41 131.5,-219.17"/>
<text text-anchor="middle" x="146" y="-231.8" font-family="Times,serif" font-size="14.00">!x1</text>
</g>
<!-- 9 -->
<g id="node6" class="node">
<title>9</title>
<ellipse fill="none" stroke="black" cx="51" cy="-105" rx="18" ry="18"/>
<text text-anchor="middle" x="51" y="-101.3" font-family="Times,serif" font-size="14.00">9</text>
</g>
<!-- 8&#45;&gt;9 -->
<g id="edge5" class="edge">
<title>8&#45;&gt;9</title>
<path fill="none" stroke="black" d="M24.21,-175.01C28.95,-162.78 35.6,-145.68 41.08,-131.56"/>
<polygon fill="black" stroke="black" points="44.46,-132.51 44.82,-121.92 37.94,-129.97 44.46,-132.51"/>
<text text-anchor="middle" x="45" y="-144.8" font-family="Times,serif" font-size="14.00">?a</text>
</g>
<!-- 9&#45;&gt;2 -->
<g id="edge6" class="edge">
<title>9&#45;&gt;2</title>
<path fill="none" stroke="black" d="M54.77,-122.95C60.63,-148.45 72.15,-195.26 81,-210 93.28,-230.47 113.25,-249.01 128.72,-261.54"/>
<polygon fill="black" stroke="black" points="126.75,-264.44 136.78,-267.86 131.07,-258.93 126.75,-264.44"/>
<text text-anchor="middle" x="89" y="-188.3" font-family="Times,serif" font-size="14.00">?a</text>
</g>
<!-- 7 -->
<g id="node8" class="node">
<title>7</title>
<ellipse fill="none" stroke="black" cx="227" cy="-105" rx="18" ry="18"/>
<text text-anchor="middle" x="227" y="-101.3" font-family="Times,serif" font-size="14.00">7</text>
</g>
<!-- 6&#45;&gt;7 -->
<g id="edge8" class="edge">
<title>6&#45;&gt;7</title>
<path fill="none" stroke="black" d="M184.89,-174.87C189.35,-164.89 195.53,-151.94 202,-141 204.57,-136.65 207.53,-132.15 210.49,-127.89"/>
<polygon fill="black" stroke="black" points="213.46,-129.76 216.46,-119.6 207.78,-125.67 213.46,-129.76"/>
<text text-anchor="middle" x="210" y="-144.8" font-family="Times,serif" font-size="14.00">?a</text>
</g>
<!-- 7&#45;&gt;2 -->
<g id="edge9" class="edge">
<title>7&#45;&gt;2</title>
<path fill="none" stroke="black" d="M226.73,-123.18C225.51,-150.8 219.73,-205.77 194,-243 188.73,-250.63 181.34,-257.47 174.17,-263.04"/>
<polygon fill="black" stroke="black" points="172.04,-260.26 165.99,-268.96 176.15,-265.93 172.04,-260.26"/>
<text text-anchor="middle" x="228" y="-188.3" font-family="Times,serif" font-size="14.00">?a</text>
</g>
<!-- 4 -->
<g id="node10" class="node">
<title>4</title>
<ellipse fill="none" stroke="black" cx="166" cy="-105" rx="18" ry="18"/>
<text text-anchor="middle" x="166" y="-101.3" font-family="Times,serif" font-size="14.00">4</text>
</g>
<!-- 3&#45;&gt;4 -->
<g id="edge11" class="edge">
<title>3&#45;&gt;4</title>
<path fill="none" stroke="black" d="M131.7,-175.41C137.86,-162.95 146.61,-145.24 153.73,-130.84"/>
<polygon fill="black" stroke="black" points="157.05,-132.01 158.35,-121.49 150.78,-128.91 157.05,-132.01"/>
<text text-anchor="middle" x="155" y="-144.8" font-family="Times,serif" font-size="14.00">?a</text>
</g>
<!-- 5 -->
<g id="node11" class="node">
<title>5</title>
<ellipse fill="none" stroke="black" cx="240" cy="-18" rx="18" ry="18"/>
<text text-anchor="middle" x="240" y="-14.3" font-family="Times,serif" font-size="14.00">5</text>
</g>
<!-- 4&#45;&gt;5 -->
<g id="edge12" class="edge">
<title>4&#45;&gt;5</title>
<path fill="none" stroke="black" d="M177.56,-90.72C189.4,-77.12 207.97,-55.79 221.79,-39.92"/>
<polygon fill="black" stroke="black" points="224.59,-42.03 228.52,-32.19 219.31,-37.43 224.59,-42.03"/>
<text text-anchor="middle" x="215.5" y="-57.8" font-family="Times,serif" font-size="14.00">?b</text>
</g>
<!-- 5&#45;&gt;2 -->
<g id="edge13" class="edge">
<title>5&#45;&gt;2</title>
<path fill="none" stroke="black" d="M244.41,-35.62C247.8,-49.3 252.19,-69.25 254,-87 259.58,-141.74 263.02,-160.03 240,-210 227.59,-236.96 198.34,-255.94 176.74,-266.88"/>
<polygon fill="black" stroke="black" points="174.95,-263.86 167.45,-271.34 177.98,-270.17 174.95,-263.86"/>
<text text-anchor="middle" x="266" y="-144.8" font-family="Times,serif" font-size="14.00">?a</text>
</g>
</g>
</svg>
