<?xml version="1.0" encoding="UTF-8" standalone="no"?>
<!DOCTYPE svg PUBLIC "-//W3C//DTD SVG 1.1//EN"
 "http://www.w3.org/Graphics/SVG/1.1/DTD/svg11.dtd">
<!-- Generated by graphviz version 2.43.0 (0)
 -->
<!-- Title: %3 Pages: 1 -->
<svg width="131pt" height="344pt"
 viewBox="0.00 0.00 131.04 344.26" xmlns="http://www.w3.org/2000/svg" xmlns:xlink="http://www.w3.org/1999/xlink">
<g id="graph0" class="graph" transform="scale(1 1) rotate(0) translate(4 340.26)">
<title>%3</title>
<polygon fill="white" stroke="transparent" points="-4,4 -4,-340.26 127.04,-340.26 127.04,4 -4,4"/>
<!-- ENTRY -->
<g id="node1" class="node">
<title>ENTRY</title>
<ellipse fill="black" stroke="black" cx="61.52" cy="-334.46" rx="1.8" ry="1.8"/>
</g>
<!-- 0 -->
<g id="node3" class="node">
<title>0</title>
<ellipse fill="none" stroke="black" cx="61.52" cy="-234.14" rx="61.54" ry="61.54"/>
<text text-anchor="middle" x="61.52" y="-237.94" font-family="Times,serif" font-size="14.00">0 &lt; Eps.0</text>
<text text-anchor="middle" x="61.52" y="-222.94" font-family="Times,serif" font-size="14.00">Eps.2</text>
</g>
<!-- ENTRY&#45;&gt;0 -->
<g id="edge1" class="edge">
<title>ENTRY&#45;&gt;0</title>
<path fill="none" stroke="black" d="M61.52,-332.35C61.52,-329.06 61.52,-318.73 61.52,-305.96"/>
<polygon fill="black" stroke="black" points="65.02,-305.8 61.52,-295.8 58.02,-305.8 65.02,-305.8"/>
</g>
<!-- 1 -->
<g id="node2" class="node">
<title>1</title>
<ellipse fill="none" stroke="black" cx="61.52" cy="-60.81" rx="60.62" ry="60.62"/>
<text text-anchor="middle" x="61.52" y="-64.61" font-family="Times,serif" font-size="14.00">1 &lt; {c}.2</text>
<text text-anchor="middle" x="61.52" y="-49.61" font-family="Times,serif" font-size="14.00">{b}.2</text>
</g>
<!-- 1&#45;&gt;0 -->
<g id="edge2" class="edge">
<title>1&#45;&gt;0</title>
<path fill="none" stroke="black" d="M61.52,-121.64C61.52,-134.7 61.52,-148.64 61.52,-162.09"/>
<polygon fill="black" stroke="black" points="58.02,-162.25 61.52,-172.25 65.02,-162.25 58.02,-162.25"/>
<text text-anchor="middle" x="69.52" y="-143.42" font-family="Times,serif" font-size="14.00">?c</text>
</g>
<!-- 1&#45;&gt;0 -->
<g id="edge3" class="edge">
<title>1&#45;&gt;0</title>
<path fill="none" stroke="black" d="M75.69,-120.22C76.85,-126.73 77.84,-133.3 78.52,-139.62 79.39,-147.67 79.3,-156.07 78.59,-164.39"/>
<polygon fill="black" stroke="black" points="75.09,-164.13 77.44,-174.46 82.05,-164.93 75.09,-164.13"/>
<text text-anchor="middle" x="87.02" y="-143.42" font-family="Times,serif" font-size="14.00">?b</text>
</g>
<!-- 0&#45;&gt;1 -->
<g id="edge4" class="edge">
<title>0&#45;&gt;1</title>
<path fill="none" stroke="black" d="M43.81,-175.01C41.93,-163.35 41.13,-151.14 42.52,-139.62 42.91,-136.38 43.39,-133.07 43.94,-129.75"/>
<polygon fill="black" stroke="black" points="47.41,-130.21 45.77,-119.74 40.52,-128.95 47.41,-130.21"/>
<text text-anchor="middle" x="50.02" y="-143.42" font-family="Times,serif" font-size="14.00">!a</text>
</g>
</g>
</svg>
