<?xml version="1.0" encoding="UTF-8" standalone="no"?>
<!DOCTYPE svg PUBLIC "-//W3C//DTD SVG 1.1//EN"
 "http://www.w3.org/Graphics/SVG/1.1/DTD/svg11.dtd">
<!-- Generated by graphviz version 2.43.0 (0)
 -->
<!-- Title: %3 Pages: 1 -->
<svg width="252pt" height="992pt"
 viewBox="0.00 0.00 252.09 992.09" xmlns="http://www.w3.org/2000/svg" xmlns:xlink="http://www.w3.org/1999/xlink">
<g id="graph0" class="graph" transform="scale(1 1) rotate(0) translate(4 988.09)">
<title>%3</title>
<polygon fill="white" stroke="transparent" points="-4,4 -4,-988.09 248.09,-988.09 248.09,4 -4,4"/>
<!-- ENTRY -->
<g id="node1" class="node">
<title>ENTRY</title>
<ellipse fill="black" stroke="black" cx="121.54" cy="-982.29" rx="1.8" ry="1.8"/>
</g>
<!-- 0 -->
<g id="node7" class="node">
<title>0</title>
<ellipse fill="none" stroke="black" cx="121.54" cy="-886.94" rx="56.59" ry="56.59"/>
<text text-anchor="middle" x="121.54" y="-883.24" font-family="Times,serif" font-size="14.00">0 &lt; Eps.0</text>
</g>
<!-- ENTRY&#45;&gt;0 -->
<g id="edge1" class="edge">
<title>ENTRY&#45;&gt;0</title>
<path fill="none" stroke="black" d="M121.54,-980.24C121.54,-976.98 121.54,-966.49 121.54,-953.68"/>
<polygon fill="black" stroke="black" points="125.05,-953.52 121.54,-943.52 118.05,-953.52 125.05,-953.52"/>
</g>
<!-- 7 -->
<g id="node2" class="node">
<title>7</title>
<ellipse fill="none" stroke="black" cx="187.54" cy="-56.54" rx="56.59" ry="56.59"/>
<text text-anchor="middle" x="187.54" y="-52.84" font-family="Times,serif" font-size="14.00">7 &lt; Eps.8</text>
</g>
<!-- 2 -->
<g id="node3" class="node">
<title>2</title>
<ellipse fill="none" stroke="black" cx="121.54" cy="-558.76" rx="56.59" ry="56.59"/>
<text text-anchor="middle" x="121.54" y="-555.06" font-family="Times,serif" font-size="14.00">2 &lt; Eps.2</text>
</g>
<!-- 3 -->
<g id="node9" class="node">
<title>3</title>
<ellipse fill="none" stroke="black" cx="121.54" cy="-389.7" rx="61.54" ry="61.54"/>
<text text-anchor="middle" x="121.54" y="-393.5" font-family="Times,serif" font-size="14.00">3 &lt; {b}.4</text>
<text text-anchor="middle" x="121.54" y="-378.5" font-family="Times,serif" font-size="14.00">{c}.7</text>
</g>
<!-- 2&#45;&gt;3 -->
<g id="edge3" class="edge">
<title>2&#45;&gt;3</title>
<path fill="none" stroke="black" d="M121.54,-502.13C121.54,-489.12 121.54,-475.09 121.54,-461.52"/>
<polygon fill="black" stroke="black" points="125.05,-461.26 121.54,-451.26 118.05,-461.26 125.05,-461.26"/>
<text text-anchor="middle" x="133.54" y="-473.02" font-family="Times,serif" font-size="14.00">!a3</text>
</g>
<!-- 5 -->
<g id="node4" class="node">
<title>5</title>
<ellipse fill="none" stroke="black" cx="56.54" cy="-56.54" rx="56.59" ry="56.59"/>
<text text-anchor="middle" x="56.54" y="-52.84" font-family="Times,serif" font-size="14.00">5 &lt; Eps.5</text>
</g>
<!-- 1 -->
<g id="node5" class="node">
<title>1</title>
<ellipse fill="none" stroke="black" cx="121.54" cy="-722.85" rx="56.59" ry="56.59"/>
<text text-anchor="middle" x="121.54" y="-719.15" font-family="Times,serif" font-size="14.00">1 &lt; Eps.1</text>
</g>
<!-- 1&#45;&gt;2 -->
<g id="edge5" class="edge">
<title>1&#45;&gt;2</title>
<path fill="none" stroke="black" d="M121.54,-666.07C121.54,-653.01 121.54,-638.97 121.54,-625.52"/>
<polygon fill="black" stroke="black" points="125.05,-625.37 121.54,-615.37 118.05,-625.37 125.05,-625.37"/>
<text text-anchor="middle" x="133.54" y="-637.11" font-family="Times,serif" font-size="14.00">!a2</text>
</g>
<!-- 4 -->
<g id="node6" class="node">
<title>4</title>
<ellipse fill="none" stroke="black" cx="56.54" cy="-220.63" rx="56.59" ry="56.59"/>
<text text-anchor="middle" x="56.54" y="-216.93" font-family="Times,serif" font-size="14.00">4 &lt; Eps.4</text>
</g>
<!-- 4&#45;&gt;5 -->
<g id="edge2" class="edge">
<title>4&#45;&gt;5</title>
<path fill="none" stroke="black" d="M56.54,-163.85C56.54,-150.79 56.54,-136.76 56.54,-123.3"/>
<polygon fill="black" stroke="black" points="60.05,-123.16 56.54,-113.16 53.05,-123.16 60.05,-123.16"/>
<text text-anchor="middle" x="68.54" y="-134.89" font-family="Times,serif" font-size="14.00">!x2</text>
</g>
<!-- 0&#45;&gt;1 -->
<g id="edge4" class="edge">
<title>0&#45;&gt;1</title>
<path fill="none" stroke="black" d="M121.54,-830.16C121.54,-817.1 121.54,-803.06 121.54,-789.61"/>
<polygon fill="black" stroke="black" points="125.05,-789.46 121.54,-779.46 118.05,-789.46 125.05,-789.46"/>
<text text-anchor="middle" x="133.54" y="-801.2" font-family="Times,serif" font-size="14.00">!a1</text>
</g>
<!-- 6 -->
<g id="node8" class="node">
<title>6</title>
<ellipse fill="none" stroke="black" cx="187.54" cy="-220.63" rx="56.59" ry="56.59"/>
<text text-anchor="middle" x="187.54" y="-216.93" font-family="Times,serif" font-size="14.00">6 &lt; Eps.7</text>
</g>
<!-- 6&#45;&gt;7 -->
<g id="edge6" class="edge">
<title>6&#45;&gt;7</title>
<path fill="none" stroke="black" d="M187.54,-163.85C187.54,-150.79 187.54,-136.76 187.54,-123.3"/>
<polygon fill="black" stroke="black" points="191.05,-123.16 187.54,-113.16 184.05,-123.16 191.05,-123.16"/>
<text text-anchor="middle" x="199.54" y="-134.89" font-family="Times,serif" font-size="14.00">!x1</text>
</g>
<!-- 3&#45;&gt;4 -->
<g id="edge7" class="edge">
<title>3&#45;&gt;4</title>
<path fill="none" stroke="black" d="M99.54,-332.14C93.44,-316.46 86.79,-299.36 80.58,-283.4"/>
<polygon fill="black" stroke="black" points="83.67,-281.69 76.78,-273.64 77.14,-284.22 83.67,-281.69"/>
<text text-anchor="middle" x="100.04" y="-298.98" font-family="Times,serif" font-size="14.00">?b</text>
</g>
<!-- 3&#45;&gt;6 -->
<g id="edge8" class="edge">
<title>3&#45;&gt;6</title>
<path fill="none" stroke="black" d="M143.89,-332.14C150.14,-316.31 156.97,-299.04 163.32,-282.95"/>
<polygon fill="black" stroke="black" points="166.58,-284.22 167,-273.64 160.07,-281.65 166.58,-284.22"/>
<text text-anchor="middle" x="163.54" y="-298.98" font-family="Times,serif" font-size="14.00">?c</text>
</g>
</g>
</svg>
