<?xml version="1.0" encoding="UTF-8" standalone="no"?>
<!DOCTYPE svg PUBLIC "-//W3C//DTD SVG 1.1//EN"
 "http://www.w3.org/Graphics/SVG/1.1/DTD/svg11.dtd">
<!-- Generated by graphviz version 2.43.0 (0)
 -->
<!-- Title: %3 Pages: 1 -->
<svg width="274pt" height="987pt"
 viewBox="0.00 0.00 274.14 986.82" xmlns="http://www.w3.org/2000/svg" xmlns:xlink="http://www.w3.org/1999/xlink">
<g id="graph0" class="graph" transform="scale(1 1) rotate(0) translate(4 982.82)">
<title>%3</title>
<polygon fill="white" stroke="transparent" points="-4,4 -4,-982.82 270.14,-982.82 270.14,4 -4,4"/>
<!-- ENTRY -->
<g id="node1" class="node">
<title>ENTRY</title>
<ellipse fill="black" stroke="black" cx="132.74" cy="-977.02" rx="1.8" ry="1.8"/>
</g>
<!-- 0 -->
<g id="node8" class="node">
<title>0</title>
<ellipse fill="none" stroke="black" cx="132.74" cy="-881.68" rx="56.59" ry="56.59"/>
<text text-anchor="middle" x="132.74" y="-877.98" font-family="Times,serif" font-size="14.00">0 &lt; Eps.0</text>
</g>
<!-- ENTRY&#45;&gt;0 -->
<g id="edge1" class="edge">
<title>ENTRY&#45;&gt;0</title>
<path fill="none" stroke="black" d="M132.74,-974.97C132.74,-971.72 132.74,-961.22 132.74,-948.42"/>
<polygon fill="black" stroke="black" points="136.24,-948.26 132.74,-938.26 129.24,-948.26 136.24,-948.26"/>
</g>
<!-- 6 -->
<g id="node2" class="node">
<title>6</title>
<ellipse fill="none" stroke="black" cx="61.74" cy="-226.48" rx="61.99" ry="61.99"/>
<text text-anchor="middle" x="61.74" y="-222.78" font-family="Times,serif" font-size="14.00">6 &lt; {c2}.9</text>
</g>
<!-- 7 -->
<g id="node7" class="node">
<title>7</title>
<ellipse fill="none" stroke="red" cx="61.74" cy="-56.54" rx="56.59" ry="56.59"/>
<text text-anchor="middle" x="61.74" y="-52.84" font-family="Times,serif" font-size="14.00">7 &lt; Eps.9</text>
</g>
<!-- 6&#45;&gt;7 -->
<g id="edge5" class="edge">
<title>6&#45;&gt;7</title>
<path fill="none" stroke="black" d="M61.74,-164.38C61.74,-151.08 61.74,-136.94 61.74,-123.46"/>
<polygon fill="black" stroke="black" points="65.24,-123.31 61.74,-113.31 58.24,-123.31 65.24,-123.31"/>
<text text-anchor="middle" x="74.24" y="-134.89" font-family="Times,serif" font-size="14.00">?c2</text>
</g>
<!-- 3 -->
<g id="node3" class="node">
<title>3</title>
<ellipse fill="none" stroke="black" cx="203.74" cy="-226.48" rx="62.29" ry="62.29"/>
<text text-anchor="middle" x="203.74" y="-222.78" font-family="Times,serif" font-size="14.00">3 &lt; {b2}.4</text>
</g>
<!-- 4 -->
<g id="node6" class="node">
<title>4</title>
<ellipse fill="none" stroke="red" cx="203.74" cy="-56.54" rx="56.59" ry="56.59"/>
<text text-anchor="middle" x="203.74" y="-52.84" font-family="Times,serif" font-size="14.00">4 &lt; Eps.4</text>
</g>
<!-- 3&#45;&gt;4 -->
<g id="edge3" class="edge">
<title>3&#45;&gt;4</title>
<path fill="none" stroke="black" d="M203.74,-163.9C203.74,-150.7 203.74,-136.7 203.74,-123.34"/>
<polygon fill="black" stroke="black" points="207.24,-123.28 203.74,-113.28 200.24,-123.28 207.24,-123.28"/>
<text text-anchor="middle" x="216.74" y="-134.89" font-family="Times,serif" font-size="14.00">?b2</text>
</g>
<!-- 1 -->
<g id="node4" class="node">
<title>1</title>
<ellipse fill="none" stroke="black" cx="132.74" cy="-679.38" rx="94.51" ry="94.51"/>
<text text-anchor="middle" x="132.74" y="-683.18" font-family="Times,serif" font-size="14.00">1 &lt; {c1}.{c2}.8</text>
<text text-anchor="middle" x="132.74" y="-668.18" font-family="Times,serif" font-size="14.00">{b1}.{b2}.3</text>
</g>
<!-- 2 -->
<g id="node5" class="node">
<title>2</title>
<ellipse fill="none" stroke="black" cx="132.74" cy="-436.75" rx="96.75" ry="96.75"/>
<text text-anchor="middle" x="132.74" y="-440.55" font-family="Times,serif" font-size="14.00">2 &lt; {b1}.{b2}.4</text>
<text text-anchor="middle" x="132.74" y="-425.55" font-family="Times,serif" font-size="14.00">{c1}.{c2}.9</text>
</g>
<!-- 1&#45;&gt;2 -->
<g id="edge7" class="edge">
<title>1&#45;&gt;2</title>
<path fill="none" stroke="black" d="M132.74,-584.31C132.74,-571.08 132.74,-557.4 132.74,-543.95"/>
<polygon fill="black" stroke="black" points="136.24,-543.73 132.74,-533.73 129.24,-543.73 136.24,-543.73"/>
<text text-anchor="middle" x="140.24" y="-555.43" font-family="Times,serif" font-size="14.00">!a</text>
</g>
<!-- 2&#45;&gt;6 -->
<g id="edge6" class="edge">
<title>2&#45;&gt;6</title>
<path fill="none" stroke="black" d="M101.71,-344.71C95.99,-327.94 90.12,-310.71 84.69,-294.8"/>
<polygon fill="black" stroke="black" points="87.92,-293.41 81.38,-285.07 81.29,-295.67 87.92,-293.41"/>
<text text-anchor="middle" x="106.24" y="-310.68" font-family="Times,serif" font-size="14.00">?c1</text>
</g>
<!-- 2&#45;&gt;3 -->
<g id="edge2" class="edge">
<title>2&#45;&gt;3</title>
<path fill="none" stroke="black" d="M163.78,-344.71C169.44,-328.12 175.25,-311.08 180.62,-295.31"/>
<polygon fill="black" stroke="black" points="183.99,-296.27 183.91,-285.67 177.37,-294.01 183.99,-296.27"/>
<text text-anchor="middle" x="186.74" y="-310.68" font-family="Times,serif" font-size="14.00">?b1</text>
</g>
<!-- 0&#45;&gt;1 -->
<g id="edge4" class="edge">
<title>0&#45;&gt;1</title>
<path fill="none" stroke="black" d="M132.74,-824.88C132.74,-812.21 132.74,-798.36 132.74,-784.4"/>
<polygon fill="black" stroke="black" points="136.24,-784.24 132.74,-774.24 129.24,-784.24 136.24,-784.24"/>
<text text-anchor="middle" x="140.24" y="-795.93" font-family="Times,serif" font-size="14.00">!a</text>
</g>
</g>
</svg>
