<?xml version="1.0" encoding="UTF-8" standalone="no"?>
<!DOCTYPE svg PUBLIC "-//W3C//DTD SVG 1.1//EN"
 "http://www.w3.org/Graphics/SVG/1.1/DTD/svg11.dtd">
<!-- Generated by graphviz version 2.43.0 (0)
 -->
<!-- Title: %3 Pages: 1 -->
<svg width="200pt" height="172pt"
 viewBox="0.00 0.00 200.04 171.64" xmlns="http://www.w3.org/2000/svg" xmlns:xlink="http://www.w3.org/1999/xlink">
<g id="graph0" class="graph" transform="scale(1 1) rotate(0) translate(4 167.64)">
<title>%3</title>
<polygon fill="white" stroke="transparent" points="-4,4 -4,-167.64 196.04,-167.64 196.04,4 -4,4"/>
<!-- ENTRY -->
<g id="node1" class="node">
<title>ENTRY</title>
<ellipse fill="black" stroke="black" cx="61.52" cy="-161.84" rx="1.8" ry="1.8"/>
</g>
<!-- 0 -->
<g id="node2" class="node">
<title>0</title>
<ellipse fill="none" stroke="black" cx="61.52" cy="-61.52" rx="61.54" ry="61.54"/>
<text text-anchor="middle" x="61.52" y="-65.32" font-family="Times,serif" font-size="14.00">0 &lt; Eps.0</text>
<text text-anchor="middle" x="61.52" y="-50.32" font-family="Times,serif" font-size="14.00">Eps.1</text>
</g>
<!-- ENTRY&#45;&gt;0 -->
<g id="edge1" class="edge">
<title>ENTRY&#45;&gt;0</title>
<path fill="none" stroke="black" d="M61.52,-159.73C61.52,-156.44 61.52,-146.11 61.52,-133.34"/>
<polygon fill="black" stroke="black" points="65.02,-133.18 61.52,-123.18 58.02,-133.18 65.02,-133.18"/>
</g>
<!-- 0&#45;&gt;0 -->
<g id="edge2" class="edge">
<title>0&#45;&gt;0</title>
<path fill="none" stroke="black" d="M122.87,-68.55C133.58,-67.61 141.04,-65.27 141.04,-61.52 141.04,-59.12 137.98,-57.29 132.96,-56.04"/>
<polygon fill="black" stroke="black" points="133.28,-52.55 122.87,-54.49 132.22,-59.47 133.28,-52.55"/>
<text text-anchor="middle" x="149.54" y="-57.82" font-family="Times,serif" font-size="14.00">?b</text>
</g>
<!-- 0&#45;&gt;0 -->
<g id="edge3" class="edge">
<title>0&#45;&gt;0</title>
<path fill="none" stroke="black" d="M121.51,-76.51C142.27,-76.67 159.04,-71.67 159.04,-61.52 159.04,-53.11 147.54,-48.23 131.8,-46.9"/>
<polygon fill="black" stroke="black" points="131.63,-43.39 121.51,-46.52 131.38,-50.38 131.63,-43.39"/>
<text text-anchor="middle" x="167.04" y="-57.82" font-family="Times,serif" font-size="14.00">?c</text>
</g>
</g>
</svg>
