<?xml version="1.0" encoding="UTF-8" standalone="no"?>
<!DOCTYPE svg PUBLIC "-//W3C//DTD SVG 1.1//EN"
 "http://www.w3.org/Graphics/SVG/1.1/DTD/svg11.dtd">
<!-- Generated by graphviz version 2.43.0 (0)
 -->
<!-- Title: %3 Pages: 1 -->
<svg width="799pt" height="1639pt"
 viewBox="0.00 0.00 799.47 1638.52" xmlns="http://www.w3.org/2000/svg" xmlns:xlink="http://www.w3.org/1999/xlink">
<g id="graph0" class="graph" transform="scale(1 1) rotate(0) translate(4 1634.52)">
<title>%3</title>
<polygon fill="white" stroke="transparent" points="-4,4 -4,-1634.52 795.47,-1634.52 795.47,4 -4,4"/>
<!-- ENTRY -->
<g id="node1" class="node">
<title>ENTRY</title>
<ellipse fill="black" stroke="black" cx="357.88" cy="-1628.72" rx="1.8" ry="1.8"/>
</g>
<!-- 0 -->
<g id="node8" class="node">
<title>0</title>
<ellipse fill="none" stroke="black" cx="357.88" cy="-1533.38" rx="56.59" ry="56.59"/>
<text text-anchor="middle" x="357.88" y="-1529.68" font-family="Times,serif" font-size="14.00">0 &lt; Eps.0</text>
</g>
<!-- ENTRY&#45;&gt;0 -->
<g id="edge1" class="edge">
<title>ENTRY&#45;&gt;0</title>
<path fill="none" stroke="black" d="M357.88,-1626.68C357.88,-1623.42 357.88,-1612.93 357.88,-1600.12"/>
<polygon fill="black" stroke="black" points="361.38,-1599.96 357.88,-1589.96 354.38,-1599.96 361.38,-1599.96"/>
</g>
<!-- 5 -->
<g id="node2" class="node">
<title>5</title>
<ellipse fill="none" stroke="black" cx="357.88" cy="-523.35" rx="138.69" ry="138.69"/>
<text text-anchor="middle" x="357.88" y="-534.65" font-family="Times,serif" font-size="14.00">5 &lt; ({x3,x1,x2})*.{x2}.3</text>
<text text-anchor="middle" x="357.88" y="-519.65" font-family="Times,serif" font-size="14.00">({x2,x3,x1})*.{x1}.3</text>
<text text-anchor="middle" x="357.88" y="-504.65" font-family="Times,serif" font-size="14.00">({x3,x1,x2})*.{x1}.4</text>
</g>
<!-- 6 -->
<g id="node4" class="node">
<title>6</title>
<ellipse fill="none" stroke="black" cx="166.88" cy="-166.88" rx="166.75" ry="166.75"/>
<text text-anchor="middle" x="166.88" y="-178.18" font-family="Times,serif" font-size="14.00">6 &lt; ({x2,x3,x1})*.{x1}.{x3}.1</text>
<text text-anchor="middle" x="166.88" y="-163.18" font-family="Times,serif" font-size="14.00">({x3,x1,x2})*.{x2}.{x3}.1</text>
<text text-anchor="middle" x="166.88" y="-148.18" font-family="Times,serif" font-size="14.00">({x3,x1,x2})*.{x1}.5</text>
</g>
<!-- 5&#45;&gt;6 -->
<g id="edge4" class="edge">
<title>5&#45;&gt;6</title>
<path fill="none" stroke="black" d="M292.41,-400.85C278.99,-375.94 264.68,-349.38 250.71,-323.45"/>
<polygon fill="black" stroke="black" points="253.6,-321.45 245.78,-314.31 247.44,-324.77 253.6,-321.45"/>
<text text-anchor="middle" x="281.38" y="-355.55" font-family="Times,serif" font-size="14.00">!a</text>
</g>
<!-- 2 -->
<g id="node3" class="node">
<title>2</title>
<ellipse fill="none" stroke="black" cx="357.88" cy="-1151.43" rx="110.12" ry="110.12"/>
<text text-anchor="middle" x="357.88" y="-1162.73" font-family="Times,serif" font-size="14.00">2 &lt; ({x2,x3,x1})*.2</text>
<text text-anchor="middle" x="357.88" y="-1147.73" font-family="Times,serif" font-size="14.00">({x3,x1,x2})*.1</text>
<text text-anchor="middle" x="357.88" y="-1132.73" font-family="Times,serif" font-size="14.00">({x3,x1,x2})*.5</text>
</g>
<!-- 3 -->
<g id="node7" class="node">
<title>3</title>
<ellipse fill="none" stroke="black" cx="357.88" cy="-851.53" rx="138.69" ry="138.69"/>
<text text-anchor="middle" x="357.88" y="-862.83" font-family="Times,serif" font-size="14.00">3 &lt; ({x2,x3,x1})*.{x1}.1</text>
<text text-anchor="middle" x="357.88" y="-847.83" font-family="Times,serif" font-size="14.00">({x3,x1,x2})*.2</text>
<text text-anchor="middle" x="357.88" y="-832.83" font-family="Times,serif" font-size="14.00">({x3,x1,x2})*.{x2}.1</text>
</g>
<!-- 2&#45;&gt;3 -->
<g id="edge3" class="edge">
<title>2&#45;&gt;3</title>
<path fill="none" stroke="black" d="M357.88,-1040.78C357.88,-1027.69 357.88,-1014.16 357.88,-1000.65"/>
<polygon fill="black" stroke="black" points="361.38,-1000.32 357.88,-990.32 354.38,-1000.32 361.38,-1000.32"/>
<text text-anchor="middle" x="365.38" y="-1011.93" font-family="Times,serif" font-size="14.00">!a</text>
</g>
<!-- 6&#45;&gt;2 -->
<g id="edge2" class="edge">
<title>6&#45;&gt;2</title>
<path fill="none" stroke="black" d="M109.12,-323.54C51.8,-506.86 -9.36,-812.96 128.88,-1023.13 155.83,-1064.11 200.71,-1093.15 243.63,-1113.04"/>
<polygon fill="black" stroke="black" points="242.19,-1116.24 252.75,-1117.15 245.07,-1109.85 242.19,-1116.24"/>
<text text-anchor="middle" x="58.38" y="-683.74" font-family="Times,serif" font-size="14.00">?x3</text>
</g>
<!-- 6&#45;&gt;2 -->
<g id="edge5" class="edge">
<title>6&#45;&gt;2</title>
<path fill="none" stroke="black" d="M124.28,-328.49C85.6,-510.32 51.73,-809.04 176.88,-1023.13 194.35,-1053.01 221.94,-1077.63 250.37,-1096.99"/>
<polygon fill="black" stroke="black" points="248.53,-1099.97 258.81,-1102.57 252.4,-1094.13 248.53,-1099.97"/>
<text text-anchor="middle" x="103.38" y="-683.74" font-family="Times,serif" font-size="14.00">?x1</text>
</g>
<!-- 6&#45;&gt;2 -->
<g id="edge8" class="edge">
<title>6&#45;&gt;2</title>
<path fill="none" stroke="black" d="M143.67,-332.34C126.62,-503.72 119.87,-776.57 209.88,-990.13 222.68,-1020.49 243.87,-1048.74 266.27,-1072.79"/>
<polygon fill="black" stroke="black" points="263.82,-1075.29 273.26,-1080.12 268.89,-1070.46 263.82,-1075.29"/>
<text text-anchor="middle" x="153.38" y="-683.74" font-family="Times,serif" font-size="14.00">?x2</text>
</g>
<!-- 4 -->
<g id="node5" class="node">
<title>4</title>
<ellipse fill="none" stroke="black" cx="652.88" cy="-523.35" rx="138.69" ry="138.69"/>
<text text-anchor="middle" x="652.88" y="-534.65" font-family="Times,serif" font-size="14.00">4 &lt; ({x2,x3,x1})*.{x1}.2</text>
<text text-anchor="middle" x="652.88" y="-519.65" font-family="Times,serif" font-size="14.00">({x3,x1,x2})*.{x2}.2</text>
<text text-anchor="middle" x="652.88" y="-504.65" font-family="Times,serif" font-size="14.00">({x3,x1,x2})*.{x1}.1</text>
</g>
<!-- 4&#45;&gt;2 -->
<g id="edge6" class="edge">
<title>4&#45;&gt;2</title>
<path fill="none" stroke="black" d="M578.84,-640.73C566.58,-663.96 555.17,-688.68 546.88,-712.94 506.59,-830.78 559.62,-877.78 505.88,-990.13 491.73,-1019.7 470.23,-1047.6 447.97,-1071.58"/>
<polygon fill="black" stroke="black" points="445.38,-1069.22 441.05,-1078.89 450.47,-1074.04 445.38,-1069.22"/>
<text text-anchor="middle" x="559.38" y="-847.83" font-family="Times,serif" font-size="14.00">?x1</text>
</g>
<!-- 4&#45;&gt;2 -->
<g id="edge7" class="edge">
<title>4&#45;&gt;2</title>
<path fill="none" stroke="black" d="M619.17,-657.91C615.06,-676.34 611.16,-695.06 607.88,-712.94 585.43,-835.12 634.52,-882.85 571.88,-990.13 546.58,-1033.45 504.51,-1068.76 464.33,-1095.1"/>
<polygon fill="black" stroke="black" points="462.32,-1092.24 455.79,-1100.59 466.1,-1098.13 462.32,-1092.24"/>
<text text-anchor="middle" x="620.38" y="-847.83" font-family="Times,serif" font-size="14.00">?x2</text>
</g>
<!-- 4&#45;&gt;2 -->
<g id="edge13" class="edge">
<title>4&#45;&gt;2</title>
<path fill="none" stroke="black" d="M679.68,-659.34C691.91,-758.01 692.52,-891.29 632.88,-990.13 597.24,-1049.19 530.97,-1088.76 472.42,-1113.82"/>
<polygon fill="black" stroke="black" points="470.97,-1110.63 463.1,-1117.71 473.67,-1117.09 470.97,-1110.63"/>
<text text-anchor="middle" x="699.38" y="-847.83" font-family="Times,serif" font-size="14.00">?x3</text>
</g>
<!-- 1 -->
<g id="node6" class="node">
<title>1</title>
<ellipse fill="none" stroke="black" cx="357.88" cy="-1369.29" rx="56.59" ry="56.59"/>
<text text-anchor="middle" x="357.88" y="-1365.59" font-family="Times,serif" font-size="14.00">1 &lt; Eps.1</text>
</g>
<!-- 1&#45;&gt;2 -->
<g id="edge12" class="edge">
<title>1&#45;&gt;2</title>
<path fill="none" stroke="black" d="M357.88,-1312.7C357.88,-1300.14 357.88,-1286.32 357.88,-1272.24"/>
<polygon fill="black" stroke="black" points="361.38,-1271.94 357.88,-1261.94 354.38,-1271.95 361.38,-1271.94"/>
<text text-anchor="middle" x="365.38" y="-1283.54" font-family="Times,serif" font-size="14.00">!a</text>
</g>
<!-- 3&#45;&gt;5 -->
<g id="edge11" class="edge">
<title>3&#45;&gt;5</title>
<path fill="none" stroke="black" d="M357.88,-712.67C357.88,-699.3 357.88,-685.7 357.88,-672.24"/>
<polygon fill="black" stroke="black" points="361.38,-671.98 357.88,-661.98 354.38,-671.98 361.38,-671.98"/>
<text text-anchor="middle" x="365.88" y="-683.74" font-family="Times,serif" font-size="14.00">!b</text>
</g>
<!-- 3&#45;&gt;4 -->
<g id="edge9" class="edge">
<title>3&#45;&gt;4</title>
<path fill="none" stroke="black" d="M446.92,-744.62C465.52,-723.03 485.17,-700.6 503.88,-679.94 518.46,-663.83 534.1,-647.02 549.57,-630.66"/>
<polygon fill="black" stroke="black" points="552.32,-632.84 556.66,-623.17 547.24,-628.02 552.32,-632.84"/>
<text text-anchor="middle" x="511.38" y="-683.74" font-family="Times,serif" font-size="14.00">!a</text>
</g>
<!-- 0&#45;&gt;1 -->
<g id="edge10" class="edge">
<title>0&#45;&gt;1</title>
<path fill="none" stroke="black" d="M357.88,-1476.6C357.88,-1463.53 357.88,-1449.5 357.88,-1436.05"/>
<polygon fill="black" stroke="black" points="361.38,-1435.9 357.88,-1425.9 354.38,-1435.9 361.38,-1435.9"/>
<text text-anchor="middle" x="365.38" y="-1447.63" font-family="Times,serif" font-size="14.00">!a</text>
</g>
</g>
</svg>
