<?xml version="1.0" encoding="UTF-8" standalone="no"?>
<!DOCTYPE svg PUBLIC "-//W3C//DTD SVG 1.1//EN"
 "http://www.w3.org/Graphics/SVG/1.1/DTD/svg11.dtd">
<!-- Generated by graphviz version 2.43.0 (0)
 -->
<!-- Title: %3 Pages: 1 -->
<svg width="305pt" height="520pt"
 viewBox="0.00 0.00 305.16 519.60" xmlns="http://www.w3.org/2000/svg" xmlns:xlink="http://www.w3.org/1999/xlink">
<g id="graph0" class="graph" transform="scale(1 1) rotate(0) translate(4 515.6)">
<title>%3</title>
<polygon fill="white" stroke="transparent" points="-4,4 -4,-515.6 301.16,-515.6 301.16,4 -4,4"/>
<!-- ENTRY -->
<g id="node1" class="node">
<title>ENTRY</title>
<ellipse fill="black" stroke="black" cx="144.16" cy="-509.8" rx="1.8" ry="1.8"/>
</g>
<!-- 0 -->
<g id="node2" class="node">
<title>0</title>
<ellipse fill="none" stroke="black" cx="144.16" cy="-453" rx="18" ry="18"/>
<text text-anchor="middle" x="144.16" y="-449.3" font-family="Times,serif" font-size="14.00">0</text>
</g>
<!-- ENTRY&#45;&gt;0 -->
<g id="edge1" class="edge">
<title>ENTRY&#45;&gt;0</title>
<path fill="none" stroke="black" d="M144.16,-507.85C144.16,-504.49 144.16,-492.73 144.16,-481.05"/>
<polygon fill="black" stroke="black" points="147.66,-481.02 144.16,-471.02 140.66,-481.02 147.66,-481.02"/>
</g>
<!-- 1 -->
<g id="node3" class="node">
<title>1</title>
<ellipse fill="none" stroke="black" cx="144.16" cy="-366" rx="18" ry="18"/>
<text text-anchor="middle" x="144.16" y="-362.3" font-family="Times,serif" font-size="14.00">1</text>
</g>
<!-- 0&#45;&gt;1 -->
<g id="edge2" class="edge">
<title>0&#45;&gt;1</title>
<path fill="none" stroke="black" d="M144.16,-434.8C144.16,-423.16 144.16,-407.55 144.16,-394.24"/>
<polygon fill="black" stroke="black" points="147.66,-394.18 144.16,-384.18 140.66,-394.18 147.66,-394.18"/>
<text text-anchor="middle" x="151.66" y="-405.8" font-family="Times,serif" font-size="14.00">!a</text>
</g>
<!-- 2 -->
<g id="node4" class="node">
<title>2</title>
<ellipse fill="none" stroke="black" cx="144.16" cy="-279" rx="18" ry="18"/>
<text text-anchor="middle" x="144.16" y="-275.3" font-family="Times,serif" font-size="14.00">2</text>
</g>
<!-- 1&#45;&gt;2 -->
<g id="edge3" class="edge">
<title>1&#45;&gt;2</title>
<path fill="none" stroke="black" d="M144.16,-347.8C144.16,-336.16 144.16,-320.55 144.16,-307.24"/>
<polygon fill="black" stroke="black" points="147.66,-307.18 144.16,-297.18 140.66,-307.18 147.66,-307.18"/>
<text text-anchor="middle" x="151.66" y="-318.8" font-family="Times,serif" font-size="14.00">!a</text>
</g>
<!-- 3 -->
<g id="node5" class="node">
<title>3</title>
<ellipse fill="none" stroke="black" cx="144.16" cy="-192" rx="18" ry="18"/>
<text text-anchor="middle" x="144.16" y="-188.3" font-family="Times,serif" font-size="14.00">3</text>
</g>
<!-- 2&#45;&gt;3 -->
<g id="edge4" class="edge">
<title>2&#45;&gt;3</title>
<path fill="none" stroke="black" d="M144.16,-260.8C144.16,-249.16 144.16,-233.55 144.16,-220.24"/>
<polygon fill="black" stroke="black" points="147.66,-220.18 144.16,-210.18 140.66,-220.18 147.66,-220.18"/>
<text text-anchor="middle" x="151.66" y="-231.8" font-family="Times,serif" font-size="14.00">!a</text>
</g>
<!-- 5 -->
<g id="node6" class="node">
<title>5</title>
<ellipse fill="none" stroke="black" cx="143.16" cy="-105" rx="18" ry="18"/>
<text text-anchor="middle" x="143.16" y="-101.3" font-family="Times,serif" font-size="14.00">5</text>
</g>
<!-- 3&#45;&gt;5 -->
<g id="edge5" class="edge">
<title>3&#45;&gt;5</title>
<path fill="none" stroke="black" d="M143.96,-173.8C143.82,-162.16 143.64,-146.55 143.48,-133.24"/>
<polygon fill="black" stroke="black" points="146.98,-133.13 143.36,-123.18 139.98,-133.22 146.98,-133.13"/>
<text text-anchor="middle" x="152.16" y="-144.8" font-family="Times,serif" font-size="14.00">!b</text>
</g>
<!-- 4 -->
<g id="node8" class="node">
<title>4</title>
<ellipse fill="none" stroke="black" cx="236.16" cy="-105" rx="18" ry="18"/>
<text text-anchor="middle" x="236.16" y="-101.3" font-family="Times,serif" font-size="14.00">4</text>
</g>
<!-- 3&#45;&gt;4 -->
<g id="edge10" class="edge">
<title>3&#45;&gt;4</title>
<path fill="none" stroke="black" d="M153.98,-176.45C161.51,-165.91 172.55,-151.69 184.16,-141 192.56,-133.26 202.82,-125.98 212,-120.09"/>
<polygon fill="black" stroke="black" points="214.05,-122.93 220.71,-114.69 210.36,-116.98 214.05,-122.93"/>
<text text-anchor="middle" x="191.66" y="-144.8" font-family="Times,serif" font-size="14.00">!a</text>
</g>
<!-- 6 -->
<g id="node7" class="node">
<title>6</title>
<ellipse fill="none" stroke="black" cx="72.16" cy="-18" rx="18" ry="18"/>
<text text-anchor="middle" x="72.16" y="-14.3" font-family="Times,serif" font-size="14.00">6</text>
</g>
<!-- 5&#45;&gt;6 -->
<g id="edge6" class="edge">
<title>5&#45;&gt;6</title>
<path fill="none" stroke="black" d="M134.52,-88.89C128.32,-78.61 119.46,-64.93 110.16,-54 105.12,-48.08 99.15,-42.16 93.44,-36.92"/>
<polygon fill="black" stroke="black" points="95.74,-34.28 85.94,-30.25 91.09,-39.51 95.74,-34.28"/>
<text text-anchor="middle" x="129.66" y="-57.8" font-family="Times,serif" font-size="14.00">!a</text>
</g>
<!-- 6&#45;&gt;2 -->
<g id="edge7" class="edge">
<title>6&#45;&gt;2</title>
<path fill="none" stroke="black" d="M57.98,-29.37C50.09,-35.74 40.59,-44.49 34.16,-54 33.38,-55.15 -6.44,-114.54 1.16,-156 8.61,-196.68 4.13,-214.57 34.16,-243 56.47,-264.13 91.51,-272.5 116.03,-275.82"/>
<polygon fill="black" stroke="black" points="115.81,-279.32 126.15,-276.99 116.62,-272.37 115.81,-279.32"/>
<text text-anchor="middle" x="13.66" y="-144.8" font-family="Times,serif" font-size="14.00">?x3</text>
</g>
<!-- 6&#45;&gt;2 -->
<g id="edge8" class="edge">
<title>6&#45;&gt;2</title>
<path fill="none" stroke="black" d="M65.83,-35.06C56.54,-60.67 41.16,-112.35 49.16,-156 56.61,-196.68 55.21,-211.63 82.16,-243 91.69,-254.1 105.66,-262.41 117.93,-268.15"/>
<polygon fill="black" stroke="black" points="116.72,-271.44 127.29,-272.2 119.5,-265.02 116.72,-271.44"/>
<text text-anchor="middle" x="61.66" y="-144.8" font-family="Times,serif" font-size="14.00">?x2</text>
</g>
<!-- 6&#45;&gt;2 -->
<g id="edge9" class="edge">
<title>6&#45;&gt;2</title>
<path fill="none" stroke="black" d="M75.26,-35.83C81.63,-69.38 97.28,-146.79 117.16,-210 121.7,-224.44 127.86,-240.17 133.15,-252.86"/>
<polygon fill="black" stroke="black" points="130.03,-254.46 137.16,-262.3 136.48,-251.73 130.03,-254.46"/>
<text text-anchor="middle" x="114.66" y="-144.8" font-family="Times,serif" font-size="14.00">?x1</text>
</g>
<!-- 4&#45;&gt;2 -->
<g id="edge11" class="edge">
<title>4&#45;&gt;2</title>
<path fill="none" stroke="black" d="M228.1,-121.23C214.68,-146.54 186.9,-198.85 163.16,-243 161.31,-246.43 159.36,-250.04 157.44,-253.59"/>
<polygon fill="black" stroke="black" points="154.2,-252.22 152.51,-262.68 160.35,-255.56 154.2,-252.22"/>
<text text-anchor="middle" x="211.66" y="-188.3" font-family="Times,serif" font-size="14.00">?x1</text>
</g>
<!-- 4&#45;&gt;2 -->
<g id="edge12" class="edge">
<title>4&#45;&gt;2</title>
<path fill="none" stroke="black" d="M238.77,-122.96C241.26,-144.52 242.72,-182.26 228.16,-210 215.13,-234.81 188.72,-253.82 168.97,-265.35"/>
<polygon fill="black" stroke="black" points="167.19,-262.33 160.16,-270.25 170.6,-268.44 167.19,-262.33"/>
<text text-anchor="middle" x="250.66" y="-188.3" font-family="Times,serif" font-size="14.00">?x3</text>
</g>
<!-- 4&#45;&gt;2 -->
<g id="edge13" class="edge">
<title>4&#45;&gt;2</title>
<path fill="none" stroke="black" d="M246.55,-119.72C260.69,-140.19 282.57,-179.58 267.16,-210 248.71,-246.41 201.85,-264.27 171.59,-272.28"/>
<polygon fill="black" stroke="black" points="170.53,-268.93 161.65,-274.71 172.2,-275.73 170.53,-268.93"/>
<text text-anchor="middle" x="284.66" y="-188.3" font-family="Times,serif" font-size="14.00">?x2</text>
</g>
</g>
</svg>
