<?xml version="1.0" encoding="UTF-8" standalone="no"?>
<!DOCTYPE svg PUBLIC "-//W3C//DTD SVG 1.1//EN"
 "http://www.w3.org/Graphics/SVG/1.1/DTD/svg11.dtd">
<!-- Generated by graphviz version 2.43.0 (0)
 -->
<!-- Title: %3 Pages: 1 -->
<svg width="163pt" height="346pt"
 viewBox="0.00 0.00 163.00 345.60" xmlns="http://www.w3.org/2000/svg" xmlns:xlink="http://www.w3.org/1999/xlink">
<g id="graph0" class="graph" transform="scale(1 1) rotate(0) translate(4 341.6)">
<title>%3</title>
<polygon fill="white" stroke="transparent" points="-4,4 -4,-341.6 159,-341.6 159,4 -4,4"/>
<!-- ENTRY -->
<g id="node1" class="node">
<title>ENTRY</title>
<ellipse fill="black" stroke="black" cx="106" cy="-335.8" rx="1.8" ry="1.8"/>
</g>
<!-- 0 -->
<g id="node2" class="node">
<title>0</title>
<ellipse fill="none" stroke="black" cx="106" cy="-279" rx="18" ry="18"/>
<text text-anchor="middle" x="106" y="-275.3" font-family="Times,serif" font-size="14.00">0</text>
</g>
<!-- ENTRY&#45;&gt;0 -->
<g id="edge1" class="edge">
<title>ENTRY&#45;&gt;0</title>
<path fill="none" stroke="black" d="M106,-333.85C106,-330.49 106,-318.73 106,-307.05"/>
<polygon fill="black" stroke="black" points="109.5,-307.02 106,-297.02 102.5,-307.02 109.5,-307.02"/>
</g>
<!-- 4 -->
<g id="node3" class="node">
<title>4</title>
<ellipse fill="none" stroke="black" cx="18" cy="-192" rx="18" ry="18"/>
<text text-anchor="middle" x="18" y="-188.3" font-family="Times,serif" font-size="14.00">4</text>
</g>
<!-- 0&#45;&gt;4 -->
<g id="edge2" class="edge">
<title>0&#45;&gt;4</title>
<path fill="none" stroke="black" d="M93.39,-265.82C78.88,-251.81 54.88,-228.62 37.86,-212.18"/>
<polygon fill="black" stroke="black" points="40.21,-209.59 30.58,-205.16 35.35,-214.62 40.21,-209.59"/>
<text text-anchor="middle" x="76" y="-231.8" font-family="Times,serif" font-size="14.00">!b</text>
</g>
<!-- 1 -->
<g id="node4" class="node">
<title>1</title>
<ellipse fill="none" stroke="black" cx="106" cy="-192" rx="18" ry="18"/>
<text text-anchor="middle" x="106" y="-188.3" font-family="Times,serif" font-size="14.00">1</text>
</g>
<!-- 0&#45;&gt;1 -->
<g id="edge4" class="edge">
<title>0&#45;&gt;1</title>
<path fill="none" stroke="black" d="M106,-260.8C106,-249.16 106,-233.55 106,-220.24"/>
<polygon fill="black" stroke="black" points="109.5,-220.18 106,-210.18 102.5,-220.18 109.5,-220.18"/>
<text text-anchor="middle" x="113.5" y="-231.8" font-family="Times,serif" font-size="14.00">!a</text>
</g>
<!-- 4&#45;&gt;4 -->
<g id="edge3" class="edge">
<title>4&#45;&gt;4</title>
<path fill="none" stroke="black" d="M34.66,-199.38C44.62,-201.02 54,-198.56 54,-192 54,-187.8 50.15,-185.28 44.77,-184.44"/>
<polygon fill="black" stroke="black" points="44.6,-180.94 34.66,-184.62 44.72,-187.94 44.6,-180.94"/>
<text text-anchor="middle" x="62" y="-188.3" font-family="Times,serif" font-size="14.00">?x</text>
</g>
<!-- 2 -->
<g id="node5" class="node">
<title>2</title>
<ellipse fill="none" stroke="black" cx="106" cy="-105" rx="18" ry="18"/>
<text text-anchor="middle" x="106" y="-101.3" font-family="Times,serif" font-size="14.00">2</text>
</g>
<!-- 1&#45;&gt;2 -->
<g id="edge5" class="edge">
<title>1&#45;&gt;2</title>
<path fill="none" stroke="black" d="M106,-173.8C106,-162.16 106,-146.55 106,-133.24"/>
<polygon fill="black" stroke="black" points="109.5,-133.18 106,-123.18 102.5,-133.18 109.5,-133.18"/>
<text text-anchor="middle" x="114" y="-144.8" font-family="Times,serif" font-size="14.00">?x</text>
</g>
<!-- 3 -->
<g id="node6" class="node">
<title>3</title>
<ellipse fill="none" stroke="black" cx="129" cy="-18" rx="18" ry="18"/>
<text text-anchor="middle" x="129" y="-14.3" font-family="Times,serif" font-size="14.00">3</text>
</g>
<!-- 2&#45;&gt;3 -->
<g id="edge6" class="edge">
<title>2&#45;&gt;3</title>
<path fill="none" stroke="black" d="M110.54,-87.21C113.78,-75.25 118.19,-58.96 121.89,-45.29"/>
<polygon fill="black" stroke="black" points="125.31,-46.04 124.54,-35.47 118.55,-44.21 125.31,-46.04"/>
<text text-anchor="middle" x="127" y="-57.8" font-family="Times,serif" font-size="14.00">?x</text>
</g>
<!-- 3&#45;&gt;0 -->
<g id="edge7" class="edge">
<title>3&#45;&gt;0</title>
<path fill="none" stroke="black" d="M134.17,-35.57C135.73,-41.34 137.23,-47.9 138,-54 138.84,-60.61 138.12,-62.33 138,-69 136.89,-131.7 141.54,-147.88 133,-210 130.94,-224.95 130.42,-228.92 125,-243 123.53,-246.81 121.73,-250.73 119.83,-254.5"/>
<polygon fill="black" stroke="black" points="116.68,-252.96 115.02,-263.42 122.84,-256.28 116.68,-252.96"/>
<text text-anchor="middle" x="147" y="-144.8" font-family="Times,serif" font-size="14.00">?x</text>
</g>
</g>
</svg>
