<?xml version="1.0" encoding="UTF-8" standalone="no"?>
<!DOCTYPE svg PUBLIC "-//W3C//DTD SVG 1.1//EN"
 "http://www.w3.org/Graphics/SVG/1.1/DTD/svg11.dtd">
<!-- Generated by graphviz version 2.43.0 (0)
 -->
<!-- Title: %3 Pages: 1 -->
<svg width="132pt" height="172pt"
 viewBox="0.00 0.00 132.00 171.60" xmlns="http://www.w3.org/2000/svg" xmlns:xlink="http://www.w3.org/1999/xlink">
<g id="graph0" class="graph" transform="scale(1 1) rotate(0) translate(4 167.6)">
<title>%3</title>
<polygon fill="white" stroke="transparent" points="-4,4 -4,-167.6 128,-167.6 128,4 -4,4"/>
<!-- ENTRY -->
<g id="node1" class="node">
<title>ENTRY</title>
<ellipse fill="black" stroke="black" cx="68" cy="-161.8" rx="1.8" ry="1.8"/>
</g>
<!-- 0 -->
<g id="node2" class="node">
<title>0</title>
<ellipse fill="none" stroke="black" cx="68" cy="-105" rx="18" ry="18"/>
<text text-anchor="middle" x="68" y="-101.3" font-family="Times,serif" font-size="14.00">0</text>
</g>
<!-- ENTRY&#45;&gt;0 -->
<g id="edge1" class="edge">
<title>ENTRY&#45;&gt;0</title>
<path fill="none" stroke="black" d="M68,-159.85C68,-156.49 68,-144.73 68,-133.05"/>
<polygon fill="black" stroke="black" points="71.5,-133.02 68,-123.02 64.5,-133.02 71.5,-133.02"/>
</g>
<!-- 2 -->
<g id="node3" class="node">
<title>2</title>
<ellipse fill="none" stroke="black" cx="18" cy="-18" rx="18" ry="18"/>
<text text-anchor="middle" x="18" y="-14.3" font-family="Times,serif" font-size="14.00">2</text>
</g>
<!-- 0&#45;&gt;2 -->
<g id="edge2" class="edge">
<title>0&#45;&gt;2</title>
<path fill="none" stroke="black" d="M58.09,-89.53C53.92,-83.29 49.1,-75.87 45,-69 40.13,-60.84 35.1,-51.75 30.72,-43.57"/>
<polygon fill="black" stroke="black" points="33.7,-41.71 25.93,-34.51 27.51,-44.99 33.7,-41.71"/>
<text text-anchor="middle" x="53" y="-57.8" font-family="Times,serif" font-size="14.00">!b</text>
</g>
<!-- 1 -->
<g id="node4" class="node">
<title>1</title>
<ellipse fill="none" stroke="black" cx="106" cy="-18" rx="18" ry="18"/>
<text text-anchor="middle" x="106" y="-14.3" font-family="Times,serif" font-size="14.00">1</text>
</g>
<!-- 0&#45;&gt;1 -->
<g id="edge4" class="edge">
<title>0&#45;&gt;1</title>
<path fill="none" stroke="black" d="M65.17,-87.09C64.25,-77.05 64.43,-64.32 69,-54 72.2,-46.77 77.67,-40.33 83.44,-35"/>
<polygon fill="black" stroke="black" points="85.86,-37.54 91.31,-28.45 81.39,-32.15 85.86,-37.54"/>
<text text-anchor="middle" x="76.5" y="-57.8" font-family="Times,serif" font-size="14.00">!a</text>
</g>
<!-- 2&#45;&gt;2 -->
<g id="edge3" class="edge">
<title>2&#45;&gt;2</title>
<path fill="none" stroke="black" d="M34.66,-25.38C44.62,-27.02 54,-24.56 54,-18 54,-13.8 50.15,-11.28 44.77,-10.44"/>
<polygon fill="black" stroke="black" points="44.6,-6.94 34.66,-10.62 44.72,-13.94 44.6,-6.94"/>
<text text-anchor="middle" x="62" y="-14.3" font-family="Times,serif" font-size="14.00">?x</text>
</g>
<!-- 1&#45;&gt;0 -->
<g id="edge5" class="edge">
<title>1&#45;&gt;0</title>
<path fill="none" stroke="black" d="M99.12,-34.79C94.81,-44.64 89.12,-57.58 84,-69 82.53,-72.27 80.98,-75.7 79.44,-79.09"/>
<polygon fill="black" stroke="black" points="76.19,-77.79 75.22,-88.34 82.55,-80.7 76.19,-77.79"/>
<text text-anchor="middle" x="98" y="-57.8" font-family="Times,serif" font-size="14.00">?x</text>
</g>
</g>
</svg>
