<?xml version="1.0" encoding="UTF-8" standalone="no"?>
<!DOCTYPE svg PUBLIC "-//W3C//DTD SVG 1.1//EN"
 "http://www.w3.org/Graphics/SVG/1.1/DTD/svg11.dtd">
<!-- Generated by graphviz version 2.43.0 (0)
 -->
<!-- Title: %3 Pages: 1 -->
<svg width="223pt" height="484pt"
 viewBox="0.00 0.00 222.96 484.27" xmlns="http://www.w3.org/2000/svg" xmlns:xlink="http://www.w3.org/1999/xlink">
<g id="graph0" class="graph" transform="scale(1 1) rotate(0) translate(4 480.27)">
<title>%3</title>
<polygon fill="white" stroke="transparent" points="-4,4 -4,-480.27 218.96,-480.27 218.96,4 -4,4"/>
<!-- ENTRY -->
<g id="node1" class="node">
<title>ENTRY</title>
<ellipse fill="black" stroke="black" cx="107.48" cy="-474.47" rx="1.8" ry="1.8"/>
</g>
<!-- 0 -->
<g id="node3" class="node">
<title>0</title>
<ellipse fill="none" stroke="black" cx="107.48" cy="-328.19" rx="107.46" ry="107.46"/>
<text text-anchor="middle" x="107.48" y="-354.49" font-family="Times,serif" font-size="14.00">0 &lt; {b}.{b}.8</text>
<text text-anchor="middle" x="107.48" y="-339.49" font-family="Times,serif" font-size="14.00">{b}.{b}.{b}.7</text>
<text text-anchor="middle" x="107.48" y="-324.49" font-family="Times,serif" font-size="14.00">{b}.{b}.{b}.{b}.6</text>
<text text-anchor="middle" x="107.48" y="-309.49" font-family="Times,serif" font-size="14.00">Eps.0</text>
<text text-anchor="middle" x="107.48" y="-294.49" font-family="Times,serif" font-size="14.00">{b}.9</text>
</g>
<!-- ENTRY&#45;&gt;0 -->
<g id="edge1" class="edge">
<title>ENTRY&#45;&gt;0</title>
<path fill="none" stroke="black" d="M107.48,-472.54C107.48,-469.57 107.48,-459.64 107.48,-446.29"/>
<polygon fill="black" stroke="black" points="110.98,-446.02 107.48,-436.02 103.98,-446.02 110.98,-446.02"/>
</g>
<!-- 1 -->
<g id="node2" class="node">
<title>1</title>
<ellipse fill="none" stroke="black" cx="107.48" cy="-84.85" rx="84.71" ry="84.71"/>
<text text-anchor="middle" x="107.48" y="-111.15" font-family="Times,serif" font-size="14.00">1 &lt; {b}.8</text>
<text text-anchor="middle" x="107.48" y="-96.15" font-family="Times,serif" font-size="14.00">{b}.{b}.{b}.6</text>
<text text-anchor="middle" x="107.48" y="-81.15" font-family="Times,serif" font-size="14.00">{b}.{b}.7</text>
<text text-anchor="middle" x="107.48" y="-66.15" font-family="Times,serif" font-size="14.00">Eps.1</text>
<text text-anchor="middle" x="107.48" y="-51.15" font-family="Times,serif" font-size="14.00">Eps.9</text>
</g>
<!-- 1&#45;&gt;0 -->
<g id="edge2" class="edge">
<title>1&#45;&gt;0</title>
<path fill="none" stroke="black" d="M107.48,-169.74C107.48,-182.95 107.48,-196.82 107.48,-210.61"/>
<polygon fill="black" stroke="black" points="103.98,-210.63 107.48,-220.63 110.98,-210.63 103.98,-210.63"/>
<text text-anchor="middle" x="114.98" y="-191.51" font-family="Times,serif" font-size="14.00">!a</text>
</g>
<!-- 0&#45;&gt;1 -->
<g id="edge3" class="edge">
<title>0&#45;&gt;1</title>
<path fill="none" stroke="black" d="M85.99,-222.6C85.28,-210.85 85.32,-199.03 86.48,-187.71 86.81,-184.47 87.2,-181.19 87.63,-177.88"/>
<polygon fill="black" stroke="black" points="91.11,-178.3 89.07,-167.9 84.18,-177.3 91.11,-178.3"/>
<text text-anchor="middle" x="94.98" y="-191.51" font-family="Times,serif" font-size="14.00">?b</text>
</g>
</g>
</svg>
