<?xml version="1.0" encoding="UTF-8" standalone="no"?>
<!DOCTYPE svg PUBLIC "-//W3C//DTD SVG 1.1//EN"
 "http://www.w3.org/Graphics/SVG/1.1/DTD/svg11.dtd">
<!-- Generated by graphviz version 2.43.0 (0)
 -->
<!-- Title: %3 Pages: 1 -->
<svg width="252pt" height="662pt"
 viewBox="0.00 0.00 252.09 662.49" xmlns="http://www.w3.org/2000/svg" xmlns:xlink="http://www.w3.org/1999/xlink">
<g id="graph0" class="graph" transform="scale(1 1) rotate(0) translate(4 658.49)">
<title>%3</title>
<polygon fill="white" stroke="transparent" points="-4,4 -4,-658.49 248.09,-658.49 248.09,4 -4,4"/>
<!-- ENTRY -->
<g id="node1" class="node">
<title>ENTRY</title>
<ellipse fill="black" stroke="black" cx="121.54" cy="-652.69" rx="1.8" ry="1.8"/>
</g>
<!-- 0 -->
<g id="node7" class="node">
<title>0</title>
<ellipse fill="none" stroke="black" cx="121.54" cy="-557.35" rx="56.59" ry="56.59"/>
<text text-anchor="middle" x="121.54" y="-553.65" font-family="Times,serif" font-size="14.00">0 &lt; Eps.0</text>
</g>
<!-- ENTRY&#45;&gt;0 -->
<g id="edge1" class="edge">
<title>ENTRY&#45;&gt;0</title>
<path fill="none" stroke="black" d="M121.54,-650.64C121.54,-647.39 121.54,-636.9 121.54,-624.09"/>
<polygon fill="black" stroke="black" points="125.05,-623.93 121.54,-613.93 118.05,-623.93 125.05,-623.93"/>
</g>
<!-- 4 -->
<g id="node2" class="node">
<title>4</title>
<ellipse fill="none" stroke="black" cx="56.54" cy="-220.63" rx="56.59" ry="56.59"/>
<text text-anchor="middle" x="56.54" y="-216.93" font-family="Times,serif" font-size="14.00">4 &lt; Eps.5</text>
</g>
<!-- 5 -->
<g id="node4" class="node">
<title>5</title>
<ellipse fill="none" stroke="black" cx="56.54" cy="-56.54" rx="56.59" ry="56.59"/>
<text text-anchor="middle" x="56.54" y="-52.84" font-family="Times,serif" font-size="14.00">5 &lt; Eps.6</text>
</g>
<!-- 4&#45;&gt;5 -->
<g id="edge5" class="edge">
<title>4&#45;&gt;5</title>
<path fill="none" stroke="black" d="M56.54,-163.85C56.54,-150.79 56.54,-136.76 56.54,-123.3"/>
<polygon fill="black" stroke="black" points="60.05,-123.16 56.54,-113.16 53.05,-123.16 60.05,-123.16"/>
<text text-anchor="middle" x="64.04" y="-134.89" font-family="Times,serif" font-size="14.00">!y</text>
</g>
<!-- 3 -->
<g id="node3" class="node">
<title>3</title>
<ellipse fill="none" stroke="black" cx="187.54" cy="-56.54" rx="56.59" ry="56.59"/>
<text text-anchor="middle" x="187.54" y="-52.84" font-family="Times,serif" font-size="14.00">3 &lt; Eps.3</text>
</g>
<!-- 2 -->
<g id="node5" class="node">
<title>2</title>
<ellipse fill="none" stroke="black" cx="187.54" cy="-220.63" rx="56.59" ry="56.59"/>
<text text-anchor="middle" x="187.54" y="-216.93" font-family="Times,serif" font-size="14.00">2 &lt; Eps.2</text>
</g>
<!-- 2&#45;&gt;3 -->
<g id="edge6" class="edge">
<title>2&#45;&gt;3</title>
<path fill="none" stroke="black" d="M187.54,-163.85C187.54,-150.79 187.54,-136.76 187.54,-123.3"/>
<polygon fill="black" stroke="black" points="191.05,-123.16 187.54,-113.16 184.05,-123.16 191.05,-123.16"/>
<text text-anchor="middle" x="195.04" y="-134.89" font-family="Times,serif" font-size="14.00">!x</text>
</g>
<!-- 1 -->
<g id="node6" class="node">
<title>1</title>
<ellipse fill="none" stroke="black" cx="121.54" cy="-388.99" rx="60.62" ry="60.62"/>
<text text-anchor="middle" x="121.54" y="-392.79" font-family="Times,serif" font-size="14.00">1 &lt; {c}.5</text>
<text text-anchor="middle" x="121.54" y="-377.79" font-family="Times,serif" font-size="14.00">{b}.2</text>
</g>
<!-- 1&#45;&gt;4 -->
<g id="edge3" class="edge">
<title>1&#45;&gt;4</title>
<path fill="none" stroke="black" d="M99.72,-332.13C93.55,-316.35 86.81,-299.1 80.53,-283.01"/>
<polygon fill="black" stroke="black" points="83.79,-281.73 76.89,-273.69 77.27,-284.28 83.79,-281.73"/>
<text text-anchor="middle" x="99.54" y="-298.98" font-family="Times,serif" font-size="14.00">?c</text>
</g>
<!-- 1&#45;&gt;2 -->
<g id="edge2" class="edge">
<title>1&#45;&gt;2</title>
<path fill="none" stroke="black" d="M143.71,-332.13C150,-316.27 156.88,-298.92 163.29,-282.77"/>
<polygon fill="black" stroke="black" points="166.57,-284 167,-273.42 160.06,-281.42 166.57,-284"/>
<text text-anchor="middle" x="164.04" y="-298.98" font-family="Times,serif" font-size="14.00">?b</text>
</g>
<!-- 0&#45;&gt;1 -->
<g id="edge4" class="edge">
<title>0&#45;&gt;1</title>
<path fill="none" stroke="black" d="M121.54,-500.49C121.54,-487.55 121.54,-473.62 121.54,-460.16"/>
<polygon fill="black" stroke="black" points="125.05,-459.98 121.54,-449.98 118.05,-459.98 125.05,-459.98"/>
<text text-anchor="middle" x="129.04" y="-471.6" font-family="Times,serif" font-size="14.00">!a</text>
</g>
</g>
</svg>
