<?xml version="1.0" encoding="UTF-8" standalone="no"?>
<!DOCTYPE svg PUBLIC "-//W3C//DTD SVG 1.1//EN"
 "http://www.w3.org/Graphics/SVG/1.1/DTD/svg11.dtd">
<!-- Generated by graphviz version 2.43.0 (0)
 -->
<!-- Title: %3 Pages: 1 -->
<svg width="222pt" height="449pt"
 viewBox="0.00 0.00 222.48 449.27" xmlns="http://www.w3.org/2000/svg" xmlns:xlink="http://www.w3.org/1999/xlink">
<g id="graph0" class="graph" transform="scale(1 1) rotate(0) translate(4 445.27)">
<title>%3</title>
<polygon fill="white" stroke="transparent" points="-4,4 -4,-445.27 218.48,-445.27 218.48,4 -4,4"/>
<!-- ENTRY -->
<g id="node1" class="node">
<title>ENTRY</title>
<ellipse fill="black" stroke="black" cx="107.24" cy="-439.47" rx="1.8" ry="1.8"/>
</g>
<!-- 0 -->
<g id="node3" class="node">
<title>0</title>
<ellipse fill="none" stroke="black" cx="107.24" cy="-333.07" rx="67.69" ry="67.69"/>
<text text-anchor="middle" x="107.24" y="-329.37" font-family="Times,serif" font-size="14.00">0 &lt; ({x})*.0</text>
</g>
<!-- ENTRY&#45;&gt;0 -->
<g id="edge1" class="edge">
<title>ENTRY&#45;&gt;0</title>
<path fill="none" stroke="black" d="M107.24,-437.3C107.24,-433.94 107.24,-423.71 107.24,-410.92"/>
<polygon fill="black" stroke="black" points="110.74,-410.71 107.24,-400.71 103.74,-410.71 110.74,-410.71"/>
</g>
<!-- 1 -->
<g id="node2" class="node">
<title>1</title>
<ellipse fill="none" stroke="red" cx="107.24" cy="-107.24" rx="107.48" ry="107.48"/>
<text text-anchor="middle" x="107.24" y="-103.54" font-family="Times,serif" font-size="14.00">1 &lt; ({x})*.{a}.{x}.0</text>
</g>
<!-- 0&#45;&gt;1 -->
<g id="edge2" class="edge">
<title>0&#45;&gt;1</title>
<path fill="none" stroke="black" d="M107.24,-265.22C107.24,-252.37 107.24,-238.56 107.24,-224.66"/>
<polygon fill="black" stroke="black" points="110.74,-224.54 107.24,-214.54 103.74,-224.54 110.74,-224.54"/>
<text text-anchor="middle" x="115.24" y="-236.28" font-family="Times,serif" font-size="14.00">!b</text>
</g>
</g>
</svg>
