<?xml version="1.0" encoding="UTF-8" standalone="no"?>
<!DOCTYPE svg PUBLIC "-//W3C//DTD SVG 1.1//EN"
 "http://www.w3.org/Graphics/SVG/1.1/DTD/svg11.dtd">
<!-- Generated by graphviz version 2.43.0 (0)
 -->
<!-- Title: %3 Pages: 1 -->
<svg width="252pt" height="845pt"
 viewBox="0.00 0.00 252.09 845.06" xmlns="http://www.w3.org/2000/svg" xmlns:xlink="http://www.w3.org/1999/xlink">
<g id="graph0" class="graph" transform="scale(1 1) rotate(0) translate(4 841.06)">
<title>%3</title>
<polygon fill="white" stroke="transparent" points="-4,4 -4,-841.06 248.09,-841.06 248.09,4 -4,4"/>
<!-- ENTRY -->
<g id="node1" class="node">
<title>ENTRY</title>
<ellipse fill="black" stroke="black" cx="121.54" cy="-835.26" rx="1.8" ry="1.8"/>
</g>
<!-- 0 -->
<g id="node7" class="node">
<title>0</title>
<ellipse fill="none" stroke="black" cx="121.54" cy="-739.92" rx="56.59" ry="56.59"/>
<text text-anchor="middle" x="121.54" y="-736.22" font-family="Times,serif" font-size="14.00">0 &lt; Eps.0</text>
</g>
<!-- ENTRY&#45;&gt;0 -->
<g id="edge1" class="edge">
<title>ENTRY&#45;&gt;0</title>
<path fill="none" stroke="black" d="M121.54,-833.21C121.54,-829.96 121.54,-819.46 121.54,-806.66"/>
<polygon fill="black" stroke="black" points="125.05,-806.5 121.54,-796.5 118.05,-806.5 125.05,-806.5"/>
</g>
<!-- 2 -->
<g id="node2" class="node">
<title>2</title>
<ellipse fill="none" stroke="black" cx="121.54" cy="-398.23" rx="61.54" ry="61.54"/>
<text text-anchor="middle" x="121.54" y="-402.03" font-family="Times,serif" font-size="14.00">2 &lt; {b}.3</text>
<text text-anchor="middle" x="121.54" y="-387.03" font-family="Times,serif" font-size="14.00">{c}.8</text>
</g>
<!-- 3 -->
<g id="node5" class="node">
<title>3</title>
<ellipse fill="none" stroke="black" cx="121.54" cy="-224.9" rx="60.62" ry="60.62"/>
<text text-anchor="middle" x="121.54" y="-228.7" font-family="Times,serif" font-size="14.00">3 &lt; {c}.9</text>
<text text-anchor="middle" x="121.54" y="-213.7" font-family="Times,serif" font-size="14.00">{b}.4</text>
</g>
<!-- 2&#45;&gt;3 -->
<g id="edge2" class="edge">
<title>2&#45;&gt;3</title>
<path fill="none" stroke="black" d="M121.54,-336.34C121.54,-323.24 121.54,-309.28 121.54,-295.86"/>
<polygon fill="black" stroke="black" points="125.05,-295.73 121.54,-285.73 118.05,-295.73 125.05,-295.73"/>
<text text-anchor="middle" x="133.54" y="-307.51" font-family="Times,serif" font-size="14.00">!a3</text>
</g>
<!-- 6 -->
<g id="node3" class="node">
<title>6</title>
<ellipse fill="none" stroke="red" cx="56.54" cy="-56.54" rx="56.59" ry="56.59"/>
<text text-anchor="middle" x="56.54" y="-52.84" font-family="Times,serif" font-size="14.00">6 &lt; Eps.9</text>
</g>
<!-- 1 -->
<g id="node4" class="node">
<title>1</title>
<ellipse fill="none" stroke="black" cx="121.54" cy="-571.56" rx="60.62" ry="60.62"/>
<text text-anchor="middle" x="121.54" y="-575.36" font-family="Times,serif" font-size="14.00">1 &lt; {c}.7</text>
<text text-anchor="middle" x="121.54" y="-560.36" font-family="Times,serif" font-size="14.00">{b}.2</text>
</g>
<!-- 1&#45;&gt;2 -->
<g id="edge4" class="edge">
<title>1&#45;&gt;2</title>
<path fill="none" stroke="black" d="M121.54,-510.64C121.54,-497.57 121.54,-483.61 121.54,-470.16"/>
<polygon fill="black" stroke="black" points="125.05,-469.99 121.54,-459.99 118.05,-469.99 125.05,-469.99"/>
<text text-anchor="middle" x="133.54" y="-481.55" font-family="Times,serif" font-size="14.00">!a2</text>
</g>
<!-- 3&#45;&gt;6 -->
<g id="edge6" class="edge">
<title>3&#45;&gt;6</title>
<path fill="none" stroke="black" d="M99.72,-168.04C93.55,-152.26 86.81,-135.01 80.53,-118.92"/>
<polygon fill="black" stroke="black" points="83.79,-117.64 76.89,-109.6 77.27,-120.19 83.79,-117.64"/>
<text text-anchor="middle" x="99.54" y="-134.89" font-family="Times,serif" font-size="14.00">?c</text>
</g>
<!-- 4 -->
<g id="node6" class="node">
<title>4</title>
<ellipse fill="none" stroke="red" cx="187.54" cy="-56.54" rx="56.59" ry="56.59"/>
<text text-anchor="middle" x="187.54" y="-52.84" font-family="Times,serif" font-size="14.00">4 &lt; Eps.4</text>
</g>
<!-- 3&#45;&gt;4 -->
<g id="edge5" class="edge">
<title>3&#45;&gt;4</title>
<path fill="none" stroke="black" d="M143.71,-168.04C150,-152.18 156.88,-134.83 163.29,-118.68"/>
<polygon fill="black" stroke="black" points="166.57,-119.91 167,-109.33 160.06,-117.33 166.57,-119.91"/>
<text text-anchor="middle" x="164.04" y="-134.89" font-family="Times,serif" font-size="14.00">?b</text>
</g>
<!-- 0&#45;&gt;1 -->
<g id="edge3" class="edge">
<title>0&#45;&gt;1</title>
<path fill="none" stroke="black" d="M121.54,-683.06C121.54,-670.12 121.54,-656.19 121.54,-642.73"/>
<polygon fill="black" stroke="black" points="125.05,-642.55 121.54,-632.55 118.05,-642.55 125.05,-642.55"/>
<text text-anchor="middle" x="133.54" y="-654.17" font-family="Times,serif" font-size="14.00">!a1</text>
</g>
</g>
</svg>
