<?xml version="1.0" encoding="UTF-8" standalone="no"?>
<!DOCTYPE svg PUBLIC "-//W3C//DTD SVG 1.1//EN"
 "http://www.w3.org/Graphics/SVG/1.1/DTD/svg11.dtd">
<!-- Generated by graphviz version 2.43.0 (0)
 -->
<!-- Title: %3 Pages: 1 -->
<svg width="959pt" height="4565pt"
 viewBox="0.00 0.00 958.74 4564.98" xmlns="http://www.w3.org/2000/svg" xmlns:xlink="http://www.w3.org/1999/xlink">
<g id="graph0" class="graph" transform="scale(1 1) rotate(0) translate(4 4560.98)">
<title>%3</title>
<polygon fill="white" stroke="transparent" points="-4,4 -4,-4560.98 954.74,-4560.98 954.74,4 -4,4"/>
<!-- ENTRY -->
<g id="node1" class="node">
<title>ENTRY</title>
<ellipse fill="black" stroke="black" cx="352.28" cy="-4555.18" rx="1.8" ry="1.8"/>
</g>
<!-- 0 -->
<g id="node13" class="node">
<title>0</title>
<ellipse fill="none" stroke="black" cx="352.28" cy="-4459.83" rx="56.59" ry="56.59"/>
<text text-anchor="middle" x="352.28" y="-4456.13" font-family="Times,serif" font-size="14.00">0 &lt; Eps.0</text>
</g>
<!-- ENTRY&#45;&gt;0 -->
<g id="edge1" class="edge">
<title>ENTRY&#45;&gt;0</title>
<path fill="none" stroke="black" d="M352.28,-4553.13C352.28,-4549.87 352.28,-4539.38 352.28,-4526.57"/>
<polygon fill="black" stroke="black" points="355.78,-4526.41 352.28,-4516.41 348.78,-4526.41 355.78,-4526.41"/>
</g>
<!-- 4 -->
<g id="node2" class="node">
<title>4</title>
<ellipse fill="none" stroke="black" cx="352.28" cy="-3539.6" rx="241.25" ry="241.25"/>
<text text-anchor="middle" x="352.28" y="-3543.4" font-family="Times,serif" font-size="14.00">4 &lt; ({b})*.{a}.{b}.{b}.{b}.({b}.{b}.{b})*.1</text>
<text text-anchor="middle" x="352.28" y="-3528.4" font-family="Times,serif" font-size="14.00">{b}.({b})*.4</text>
</g>
<!-- 5 -->
<g id="node8" class="node">
<title>5</title>
<ellipse fill="none" stroke="black" cx="170.28" cy="-3027.57" rx="170.07" ry="170.07"/>
<text text-anchor="middle" x="170.28" y="-3023.87" font-family="Times,serif" font-size="14.00">5 &lt; {b}.{b}.{b}.({b}.{b}.{b})*.1</text>
</g>
<!-- 4&#45;&gt;5 -->
<g id="edge8" class="edge">
<title>4&#45;&gt;5</title>
<path fill="none" stroke="black" d="M271.53,-3312.29C257.84,-3273.92 243.83,-3234.67 230.77,-3198.07"/>
<polygon fill="black" stroke="black" points="233.95,-3196.57 227.3,-3188.33 227.36,-3198.93 233.95,-3196.57"/>
<text text-anchor="middle" x="264.28" y="-3269.28" font-family="Times,serif" font-size="14.00">?a</text>
</g>
<!-- 6 -->
<g id="node9" class="node">
<title>6</title>
<ellipse fill="none" stroke="black" cx="578.28" cy="-3027.57" rx="219.82" ry="219.82"/>
<text text-anchor="middle" x="578.28" y="-3031.37" font-family="Times,serif" font-size="14.00">6 &lt; ({b})*.4</text>
<text text-anchor="middle" x="578.28" y="-3016.37" font-family="Times,serif" font-size="14.00">({b})*.{a}.{b}.{b}.{b}.({b}.{b}.{b})*.1</text>
</g>
<!-- 4&#45;&gt;6 -->
<g id="edge6" class="edge">
<title>4&#45;&gt;6</title>
<path fill="none" stroke="black" d="M449.6,-3318.97C461.48,-3292.18 473.58,-3264.86 485.39,-3238.22"/>
<polygon fill="black" stroke="black" points="488.7,-3239.39 489.55,-3228.83 482.3,-3236.55 488.7,-3239.39"/>
<text text-anchor="middle" x="480.78" y="-3269.28" font-family="Times,serif" font-size="14.00">?b</text>
</g>
<!-- 9 -->
<g id="node3" class="node">
<title>9</title>
<ellipse fill="none" stroke="black" cx="538.28" cy="-1423.58" rx="263.5" ry="263.5"/>
<text text-anchor="middle" x="538.28" y="-1427.38" font-family="Times,serif" font-size="14.00">9 &lt; ({b})*.{a}.{b}.{b}.{b}.({b}.{b}.{b})*.{b}.2</text>
<text text-anchor="middle" x="538.28" y="-1412.38" font-family="Times,serif" font-size="14.00">({b})*.{a}.{b}.2</text>
</g>
<!-- 10 -->
<g id="node4" class="node">
<title>10</title>
<ellipse fill="none" stroke="black" cx="539.28" cy="-844.37" rx="264.42" ry="264.42"/>
<text text-anchor="middle" x="539.28" y="-848.17" font-family="Times,serif" font-size="14.00">10 &lt; ({b})*.{a}.{b}.{b}.1</text>
<text text-anchor="middle" x="539.28" y="-833.17" font-family="Times,serif" font-size="14.00">({b})*.{a}.{b}.{b}.{b}.({b}.{b}.{b})*.{b}.{b}.1</text>
</g>
<!-- 9&#45;&gt;10 -->
<g id="edge14" class="edge">
<title>9&#45;&gt;10</title>
<path fill="none" stroke="black" d="M538.74,-1159.74C538.76,-1146.34 538.79,-1132.87 538.81,-1119.44"/>
<polygon fill="black" stroke="black" points="542.31,-1119.18 538.83,-1109.18 535.31,-1119.17 542.31,-1119.18"/>
<text text-anchor="middle" x="547.28" y="-1130.63" font-family="Times,serif" font-size="14.00">!u</text>
</g>
<!-- 11 -->
<g id="node11" class="node">
<title>11</title>
<ellipse fill="none" stroke="black" cx="686.28" cy="-264.46" rx="264.42" ry="264.42"/>
<text text-anchor="middle" x="686.28" y="-268.26" font-family="Times,serif" font-size="14.00">11 &lt; ({b})*.{a}.{b}.{b}.2</text>
<text text-anchor="middle" x="686.28" y="-253.26" font-family="Times,serif" font-size="14.00">({b})*.{a}.{b}.{b}.{b}.({b}.{b}.{b})*.{b}.{b}.2</text>
</g>
<!-- 10&#45;&gt;11 -->
<g id="edge10" class="edge">
<title>10&#45;&gt;11</title>
<path fill="none" stroke="black" d="M604.3,-587.79C609.11,-568.88 613.97,-549.77 618.79,-530.8"/>
<polygon fill="black" stroke="black" points="622.24,-531.45 621.31,-520.9 615.45,-529.73 622.24,-531.45"/>
<text text-anchor="middle" x="622.78" y="-550.72" font-family="Times,serif" font-size="14.00">!w</text>
</g>
<!-- 1 -->
<g id="node5" class="node">
<title>1</title>
<ellipse fill="none" stroke="black" cx="352.28" cy="-4296.39" rx="55.79" ry="55.79"/>
<text text-anchor="middle" x="352.28" y="-4292.69" font-family="Times,serif" font-size="14.00">1 &lt; {v}.2</text>
</g>
<!-- 2 -->
<g id="node12" class="node">
<title>2</title>
<ellipse fill="none" stroke="black" cx="352.28" cy="-4112.8" rx="76.89" ry="76.89"/>
<text text-anchor="middle" x="352.28" y="-4109.1" font-family="Times,serif" font-size="14.00">2 &lt; {v}.{b}.1</text>
</g>
<!-- 1&#45;&gt;2 -->
<g id="edge3" class="edge">
<title>1&#45;&gt;2</title>
<path fill="none" stroke="black" d="M352.28,-4240.42C352.28,-4227.56 352.28,-4213.57 352.28,-4199.73"/>
<polygon fill="black" stroke="black" points="355.78,-4199.7 352.28,-4189.7 348.78,-4199.7 355.78,-4199.7"/>
<text text-anchor="middle" x="360.28" y="-4211.3" font-family="Times,serif" font-size="14.00">!u</text>
</g>
<!-- 8 -->
<g id="node6" class="node">
<title>8</title>
<ellipse fill="none" stroke="black" cx="532.28" cy="-2002.08" rx="263.5" ry="263.5"/>
<text text-anchor="middle" x="532.28" y="-2005.88" font-family="Times,serif" font-size="14.00">8 &lt; ({b})*.{a}.{b}.{b}.{b}.({b}.{b}.{b})*.{b}.1</text>
<text text-anchor="middle" x="532.28" y="-1990.88" font-family="Times,serif" font-size="14.00">({b})*.{a}.{b}.1</text>
</g>
<!-- 8&#45;&gt;9 -->
<g id="edge5" class="edge">
<title>8&#45;&gt;9</title>
<path fill="none" stroke="black" d="M535.02,-1738.14C535.16,-1724.77 535.3,-1711.32 535.44,-1697.92"/>
<polygon fill="black" stroke="black" points="538.94,-1697.72 535.55,-1687.69 531.94,-1697.65 538.94,-1697.72"/>
<text text-anchor="middle" x="544.78" y="-1709.13" font-family="Times,serif" font-size="14.00">!w</text>
</g>
<!-- 3 -->
<g id="node7" class="node">
<title>3</title>
<ellipse fill="none" stroke="black" cx="352.28" cy="-3908.42" rx="76.89" ry="76.89"/>
<text text-anchor="middle" x="352.28" y="-3904.72" font-family="Times,serif" font-size="14.00">3 &lt; {v}.{b}.4</text>
</g>
<!-- 3&#45;&gt;4 -->
<g id="edge12" class="edge">
<title>3&#45;&gt;4</title>
<path fill="none" stroke="black" d="M352.28,-3831.41C352.28,-3818.92 352.28,-3805.39 352.28,-3791.25"/>
<polygon fill="black" stroke="black" points="355.78,-3790.85 352.28,-3780.85 348.78,-3790.85 355.78,-3790.85"/>
<text text-anchor="middle" x="360.28" y="-3802.52" font-family="Times,serif" font-size="14.00">?v</text>
</g>
<!-- 5&#45;&gt;4 -->
<g id="edge11" class="edge">
<title>5&#45;&gt;4</title>
<path fill="none" stroke="black" d="M242.8,-3181.72C254.72,-3209.31 266.39,-3238.03 276.28,-3265.48 279.96,-3275.67 283.56,-3286.13 287.08,-3296.73"/>
<polygon fill="black" stroke="black" points="283.85,-3298.09 290.29,-3306.5 290.5,-3295.91 283.85,-3298.09"/>
<text text-anchor="middle" x="290.28" y="-3269.28" font-family="Times,serif" font-size="14.00">!Z</text>
</g>
<!-- 7 -->
<g id="node10" class="node">
<title>7</title>
<ellipse fill="none" stroke="black" cx="562.28" cy="-2536.75" rx="219.82" ry="219.82"/>
<text text-anchor="middle" x="562.28" y="-2540.55" font-family="Times,serif" font-size="14.00">7 &lt; ({b})*.{a}.2</text>
<text text-anchor="middle" x="562.28" y="-2525.55" font-family="Times,serif" font-size="14.00">({b})*.{a}.{b}.{b}.{b}.({b}.{b}.{b})*.2</text>
</g>
<!-- 6&#45;&gt;7 -->
<g id="edge7" class="edge">
<title>6&#45;&gt;7</title>
<path fill="none" stroke="black" d="M571.12,-2807.53C570.68,-2794.07 570.23,-2780.51 569.79,-2767.01"/>
<polygon fill="black" stroke="black" points="573.28,-2766.58 569.45,-2756.7 566.28,-2766.81 573.28,-2766.58"/>
<text text-anchor="middle" x="579.78" y="-2778.46" font-family="Times,serif" font-size="14.00">!w</text>
</g>
<!-- 7&#45;&gt;8 -->
<g id="edge13" class="edge">
<title>7&#45;&gt;8</title>
<path fill="none" stroke="black" d="M549.97,-2317.17C549.21,-2303.54 548.43,-2289.73 547.65,-2275.91"/>
<polygon fill="black" stroke="black" points="551.14,-2275.62 547.08,-2265.84 544.15,-2276.02 551.14,-2275.62"/>
<text text-anchor="middle" x="556.28" y="-2287.64" font-family="Times,serif" font-size="14.00">!u</text>
</g>
<!-- 11&#45;&gt;4 -->
<g id="edge9" class="edge">
<title>11&#45;&gt;4</title>
<path fill="none" stroke="black" d="M791.64,-507.3C799.63,-531.52 806.72,-556 812.28,-579.92 838.88,-694.29 832.28,-725.94 832.28,-843.37 832.28,-3028.57 832.28,-3028.57 832.28,-3028.57 832.28,-3126.49 859.11,-3164.39 807.28,-3247.48 754.8,-3331.63 668.03,-3395.94 584.25,-3442.43"/>
<polygon fill="black" stroke="black" points="582.46,-3439.43 575.37,-3447.3 585.82,-3445.56 582.46,-3439.43"/>
<text text-anchor="middle" x="840.28" y="-1998.38" font-family="Times,serif" font-size="14.00">!u</text>
</g>
<!-- 2&#45;&gt;3 -->
<g id="edge2" class="edge">
<title>2&#45;&gt;3</title>
<path fill="none" stroke="black" d="M352.28,-4035.87C352.28,-4022.73 352.28,-4008.98 352.28,-3995.59"/>
<polygon fill="black" stroke="black" points="355.78,-3995.44 352.28,-3985.44 348.78,-3995.44 355.78,-3995.44"/>
<text text-anchor="middle" x="360.28" y="-4006.91" font-family="Times,serif" font-size="14.00">!Z</text>
</g>
<!-- 0&#45;&gt;1 -->
<g id="edge4" class="edge">
<title>0&#45;&gt;1</title>
<path fill="none" stroke="black" d="M352.28,-4403.27C352.28,-4390.19 352.28,-4376.13 352.28,-4362.66"/>
<polygon fill="black" stroke="black" points="355.78,-4362.5 352.28,-4352.5 348.78,-4362.5 355.78,-4362.5"/>
<text text-anchor="middle" x="361.78" y="-4374.09" font-family="Times,serif" font-size="14.00">!w</text>
</g>
</g>
</svg>
