<?xml version="1.0" encoding="UTF-8" standalone="no"?>
<!DOCTYPE svg PUBLIC "-//W3C//DTD SVG 1.1//EN"
 "http://www.w3.org/Graphics/SVG/1.1/DTD/svg11.dtd">
<!-- Generated by graphviz version 2.43.0 (0)
 -->
<!-- Title: %3 Pages: 1 -->
<svg width="147pt" height="346pt"
 viewBox="0.00 0.00 147.00 345.60" xmlns="http://www.w3.org/2000/svg" xmlns:xlink="http://www.w3.org/1999/xlink">
<g id="graph0" class="graph" transform="scale(1 1) rotate(0) translate(4 341.6)">
<title>%3</title>
<polygon fill="white" stroke="transparent" points="-4,4 -4,-341.6 143,-341.6 143,4 -4,4"/>
<!-- ENTRY -->
<g id="node1" class="node">
<title>ENTRY</title>
<ellipse fill="black" stroke="black" cx="74" cy="-335.8" rx="1.8" ry="1.8"/>
</g>
<!-- 0 -->
<g id="node2" class="node">
<title>0</title>
<ellipse fill="none" stroke="black" cx="74" cy="-279" rx="18" ry="18"/>
<text text-anchor="middle" x="74" y="-275.3" font-family="Times,serif" font-size="14.00">0</text>
</g>
<!-- ENTRY&#45;&gt;0 -->
<g id="edge1" class="edge">
<title>ENTRY&#45;&gt;0</title>
<path fill="none" stroke="black" d="M74,-333.85C74,-330.49 74,-318.73 74,-307.05"/>
<polygon fill="black" stroke="black" points="77.5,-307.02 74,-297.02 70.5,-307.02 77.5,-307.02"/>
</g>
<!-- 1 -->
<g id="node3" class="node">
<title>1</title>
<ellipse fill="none" stroke="black" cx="74" cy="-192" rx="18" ry="18"/>
<text text-anchor="middle" x="74" y="-188.3" font-family="Times,serif" font-size="14.00">1</text>
</g>
<!-- 0&#45;&gt;1 -->
<g id="edge2" class="edge">
<title>0&#45;&gt;1</title>
<path fill="none" stroke="black" d="M74,-260.8C74,-249.16 74,-233.55 74,-220.24"/>
<polygon fill="black" stroke="black" points="77.5,-220.18 74,-210.18 70.5,-220.18 77.5,-220.18"/>
<text text-anchor="middle" x="82" y="-231.8" font-family="Times,serif" font-size="14.00">?v</text>
</g>
<!-- 4 -->
<g id="node4" class="node">
<title>4</title>
<ellipse fill="none" stroke="black" cx="18" cy="-105" rx="18" ry="18"/>
<text text-anchor="middle" x="18" y="-101.3" font-family="Times,serif" font-size="14.00">4</text>
</g>
<!-- 1&#45;&gt;4 -->
<g id="edge3" class="edge">
<title>1&#45;&gt;4</title>
<path fill="none" stroke="black" d="M56.88,-185.68C43.37,-180.48 25.45,-171.1 17,-156 13.11,-149.05 12.14,-140.65 12.49,-132.74"/>
<polygon fill="black" stroke="black" points="15.97,-133.11 13.59,-122.79 9.01,-132.35 15.97,-133.11"/>
<text text-anchor="middle" x="25" y="-144.8" font-family="Times,serif" font-size="14.00">!Z</text>
</g>
<!-- 2 -->
<g id="node5" class="node">
<title>2</title>
<ellipse fill="none" stroke="black" cx="84" cy="-105" rx="18" ry="18"/>
<text text-anchor="middle" x="84" y="-101.3" font-family="Times,serif" font-size="14.00">2</text>
</g>
<!-- 1&#45;&gt;2 -->
<g id="edge5" class="edge">
<title>1&#45;&gt;2</title>
<path fill="none" stroke="black" d="M76.02,-173.8C77.39,-162.16 79.23,-146.55 80.8,-133.24"/>
<polygon fill="black" stroke="black" points="84.29,-133.52 81.98,-123.18 77.33,-132.7 84.29,-133.52"/>
<text text-anchor="middle" x="89.5" y="-144.8" font-family="Times,serif" font-size="14.00">!w</text>
</g>
<!-- 4&#45;&gt;1 -->
<g id="edge4" class="edge">
<title>4&#45;&gt;1</title>
<path fill="none" stroke="black" d="M27.55,-120.49C36.17,-133.58 49,-153.06 59,-168.23"/>
<polygon fill="black" stroke="black" points="56.08,-170.16 64.5,-176.58 61.92,-166.3 56.08,-170.16"/>
<text text-anchor="middle" x="58" y="-144.8" font-family="Times,serif" font-size="14.00">?a</text>
</g>
<!-- 3 -->
<g id="node6" class="node">
<title>3</title>
<ellipse fill="none" stroke="black" cx="116" cy="-18" rx="18" ry="18"/>
<text text-anchor="middle" x="116" y="-14.3" font-family="Times,serif" font-size="14.00">3</text>
</g>
<!-- 2&#45;&gt;3 -->
<g id="edge6" class="edge">
<title>2&#45;&gt;3</title>
<path fill="none" stroke="black" d="M90.02,-88.01C94.59,-75.86 100.98,-58.9 106.28,-44.83"/>
<polygon fill="black" stroke="black" points="109.65,-45.8 109.9,-35.21 103.1,-43.33 109.65,-45.8"/>
<text text-anchor="middle" x="109.5" y="-57.8" font-family="Times,serif" font-size="14.00">?b</text>
</g>
<!-- 3&#45;&gt;1 -->
<g id="edge7" class="edge">
<title>3&#45;&gt;1</title>
<path fill="none" stroke="black" d="M119.51,-36.02C120.53,-41.71 121.5,-48.1 122,-54 125.91,-99.95 123.67,-114.78 103,-156 100.39,-161.2 96.88,-166.31 93.2,-170.95"/>
<polygon fill="black" stroke="black" points="90.4,-168.84 86.56,-178.71 95.72,-173.39 90.4,-168.84"/>
<text text-anchor="middle" x="131" y="-101.3" font-family="Times,serif" font-size="14.00">!u</text>
</g>
</g>
</svg>
