<?xml version="1.0" encoding="UTF-8" standalone="no"?>
<!DOCTYPE svg PUBLIC "-//W3C//DTD SVG 1.1//EN"
 "http://www.w3.org/Graphics/SVG/1.1/DTD/svg11.dtd">
<!-- Generated by graphviz version 2.43.0 (0)
 -->
<!-- Title: %3 Pages: 1 -->
<svg width="253pt" height="346pt"
 viewBox="0.00 0.00 253.00 345.60" xmlns="http://www.w3.org/2000/svg" xmlns:xlink="http://www.w3.org/1999/xlink">
<g id="graph0" class="graph" transform="scale(1 1) rotate(0) translate(4 341.6)">
<title>%3</title>
<polygon fill="white" stroke="transparent" points="-4,4 -4,-341.6 249,-341.6 249,4 -4,4"/>
<!-- ENTRY -->
<g id="node1" class="node">
<title>ENTRY</title>
<ellipse fill="black" stroke="black" cx="126" cy="-335.8" rx="1.8" ry="1.8"/>
</g>
<!-- 0 -->
<g id="node2" class="node">
<title>0</title>
<ellipse fill="none" stroke="black" cx="126" cy="-279" rx="18" ry="18"/>
<text text-anchor="middle" x="126" y="-275.3" font-family="Times,serif" font-size="14.00">0</text>
</g>
<!-- ENTRY&#45;&gt;0 -->
<g id="edge1" class="edge">
<title>ENTRY&#45;&gt;0</title>
<path fill="none" stroke="black" d="M126,-333.85C126,-330.49 126,-318.73 126,-307.05"/>
<polygon fill="black" stroke="black" points="129.5,-307.02 126,-297.02 122.5,-307.02 129.5,-307.02"/>
</g>
<!-- 1 -->
<g id="node3" class="node">
<title>1</title>
<ellipse fill="none" stroke="black" cx="126" cy="-192" rx="18" ry="18"/>
<text text-anchor="middle" x="126" y="-188.3" font-family="Times,serif" font-size="14.00">1</text>
</g>
<!-- 0&#45;&gt;1 -->
<g id="edge2" class="edge">
<title>0&#45;&gt;1</title>
<path fill="none" stroke="black" d="M126,-260.8C126,-249.16 126,-233.55 126,-220.24"/>
<polygon fill="black" stroke="black" points="129.5,-220.18 126,-210.18 122.5,-220.18 129.5,-220.18"/>
<text text-anchor="middle" x="133.5" y="-231.8" font-family="Times,serif" font-size="14.00">!x</text>
</g>
<!-- 5 -->
<g id="node4" class="node">
<title>5</title>
<ellipse fill="none" stroke="black" cx="96" cy="-105" rx="18" ry="18"/>
<text text-anchor="middle" x="96" y="-101.3" font-family="Times,serif" font-size="14.00">5</text>
</g>
<!-- 1&#45;&gt;5 -->
<g id="edge3" class="edge">
<title>1&#45;&gt;5</title>
<path fill="none" stroke="black" d="M120.22,-174.61C115.94,-162.5 110.04,-145.77 105.13,-131.86"/>
<polygon fill="black" stroke="black" points="108.4,-130.6 101.77,-122.34 101.79,-132.93 108.4,-130.6"/>
<text text-anchor="middle" x="121.5" y="-144.8" font-family="Times,serif" font-size="14.00">?b</text>
</g>
<!-- 2 -->
<g id="node7" class="node">
<title>2</title>
<ellipse fill="none" stroke="black" cx="150" cy="-105" rx="18" ry="18"/>
<text text-anchor="middle" x="150" y="-101.3" font-family="Times,serif" font-size="14.00">2</text>
</g>
<!-- 1&#45;&gt;2 -->
<g id="edge8" class="edge">
<title>1&#45;&gt;2</title>
<path fill="none" stroke="black" d="M130.74,-174.21C134.12,-162.25 138.72,-145.96 142.58,-132.29"/>
<polygon fill="black" stroke="black" points="146,-133.04 145.35,-122.47 139.26,-131.14 146,-133.04"/>
<text text-anchor="middle" x="147" y="-144.8" font-family="Times,serif" font-size="14.00">?a</text>
</g>
<!-- 7 -->
<g id="node5" class="node">
<title>7</title>
<ellipse fill="none" stroke="black" cx="18" cy="-18" rx="18" ry="18"/>
<text text-anchor="middle" x="18" y="-14.3" font-family="Times,serif" font-size="14.00">7</text>
</g>
<!-- 5&#45;&gt;7 -->
<g id="edge4" class="edge">
<title>5&#45;&gt;7</title>
<path fill="none" stroke="black" d="M84.15,-91.09C71.6,-77.41 51.58,-55.6 36.86,-39.55"/>
<polygon fill="black" stroke="black" points="39.04,-36.75 29.7,-31.75 33.88,-41.49 39.04,-36.75"/>
<text text-anchor="middle" x="69" y="-57.8" font-family="Times,serif" font-size="14.00">!z</text>
</g>
<!-- 6 -->
<g id="node6" class="node">
<title>6</title>
<ellipse fill="none" stroke="black" cx="91" cy="-18" rx="18" ry="18"/>
<text text-anchor="middle" x="91" y="-14.3" font-family="Times,serif" font-size="14.00">6</text>
</g>
<!-- 5&#45;&gt;6 -->
<g id="edge6" class="edge">
<title>5&#45;&gt;6</title>
<path fill="none" stroke="black" d="M94.99,-86.8C94.3,-75.16 93.39,-59.55 92.6,-46.24"/>
<polygon fill="black" stroke="black" points="96.09,-45.95 92.01,-36.18 89.1,-46.36 96.09,-45.95"/>
<text text-anchor="middle" x="101.5" y="-57.8" font-family="Times,serif" font-size="14.00">!y</text>
</g>
<!-- 7&#45;&gt;0 -->
<g id="edge5" class="edge">
<title>7&#45;&gt;0</title>
<path fill="none" stroke="black" d="M20.53,-36.25C24.7,-62.59 34.07,-114.2 49,-156 58.03,-181.27 62.29,-186.93 76,-210 85.7,-226.33 98.4,-243.55 108.57,-256.58"/>
<polygon fill="black" stroke="black" points="105.87,-258.82 114.83,-264.48 111.36,-254.47 105.87,-258.82"/>
<text text-anchor="middle" x="56.5" y="-144.8" font-family="Times,serif" font-size="14.00">!v</text>
</g>
<!-- 6&#45;&gt;0 -->
<g id="edge7" class="edge">
<title>6&#45;&gt;0</title>
<path fill="none" stroke="black" d="M75.15,-27.42C65.65,-33.43 54.39,-42.48 49,-54 46.17,-60.04 47.87,-62.43 49,-69 60.95,-138.44 94.9,-214.92 113.48,-253.23"/>
<polygon fill="black" stroke="black" points="110.51,-255.12 118.06,-262.55 116.79,-252.04 110.51,-255.12"/>
<text text-anchor="middle" x="81" y="-144.8" font-family="Times,serif" font-size="14.00">!u</text>
</g>
<!-- 4 -->
<g id="node8" class="node">
<title>4</title>
<ellipse fill="none" stroke="black" cx="154" cy="-18" rx="18" ry="18"/>
<text text-anchor="middle" x="154" y="-14.3" font-family="Times,serif" font-size="14.00">4</text>
</g>
<!-- 2&#45;&gt;4 -->
<g id="edge9" class="edge">
<title>2&#45;&gt;4</title>
<path fill="none" stroke="black" d="M145.22,-87.32C143.05,-77.59 141.3,-65.09 143,-54 143.45,-51.05 144.11,-48.01 144.88,-45"/>
<polygon fill="black" stroke="black" points="148.32,-45.72 147.8,-35.14 141.6,-43.73 148.32,-45.72"/>
<text text-anchor="middle" x="150" y="-57.8" font-family="Times,serif" font-size="14.00">!z</text>
</g>
<!-- 3 -->
<g id="node9" class="node">
<title>3</title>
<ellipse fill="none" stroke="black" cx="227" cy="-18" rx="18" ry="18"/>
<text text-anchor="middle" x="227" y="-14.3" font-family="Times,serif" font-size="14.00">3</text>
</g>
<!-- 2&#45;&gt;3 -->
<g id="edge11" class="edge">
<title>2&#45;&gt;3</title>
<path fill="none" stroke="black" d="M161.69,-91.09C174.02,-77.49 193.62,-55.85 208.13,-39.83"/>
<polygon fill="black" stroke="black" points="211.08,-41.79 215.2,-32.03 205.89,-37.09 211.08,-41.79"/>
<text text-anchor="middle" x="200.5" y="-57.8" font-family="Times,serif" font-size="14.00">!y</text>
</g>
<!-- 4&#45;&gt;0 -->
<g id="edge10" class="edge">
<title>4&#45;&gt;0</title>
<path fill="none" stroke="black" d="M169.48,-27.51C178.76,-33.56 189.75,-42.61 195,-54 197.79,-60.05 195.93,-62.4 195,-69 183.78,-148.68 175.49,-168.54 145,-243 143.52,-246.6 141.78,-250.31 139.95,-253.91"/>
<polygon fill="black" stroke="black" points="136.71,-252.55 135.07,-263.02 142.88,-255.86 136.71,-252.55"/>
<text text-anchor="middle" x="188.5" y="-144.8" font-family="Times,serif" font-size="14.00">!v</text>
</g>
<!-- 3&#45;&gt;0 -->
<g id="edge12" class="edge">
<title>3&#45;&gt;0</title>
<path fill="none" stroke="black" d="M224.62,-36.1C220.76,-62.26 212.31,-113.63 200,-156 192.82,-180.73 189.58,-186.52 179,-210 172.22,-225.04 171.82,-229.74 162,-243 157.61,-248.93 152.18,-254.76 146.89,-259.92"/>
<polygon fill="black" stroke="black" points="144.3,-257.54 139.36,-266.92 149.07,-262.67 144.3,-257.54"/>
<text text-anchor="middle" x="211" y="-144.8" font-family="Times,serif" font-size="14.00">!u</text>
</g>
</g>
</svg>
