<?xml version="1.0" encoding="UTF-8" standalone="no"?>
<!DOCTYPE svg PUBLIC "-//W3C//DTD SVG 1.1//EN"
 "http://www.w3.org/Graphics/SVG/1.1/DTD/svg11.dtd">
<!-- Generated by graphviz version 2.43.0 (0)
 -->
<!-- Title: %3 Pages: 1 -->
<svg width="217pt" height="718pt"
 viewBox="0.00 0.00 217.11 718.05" xmlns="http://www.w3.org/2000/svg" xmlns:xlink="http://www.w3.org/1999/xlink">
<g id="graph0" class="graph" transform="scale(1 1) rotate(0) translate(4 714.05)">
<title>%3</title>
<polygon fill="white" stroke="transparent" points="-4,4 -4,-714.05 213.11,-714.05 213.11,4 -4,4"/>
<!-- ENTRY -->
<g id="node1" class="node">
<title>ENTRY</title>
<ellipse fill="black" stroke="black" cx="67.59" cy="-708.25" rx="1.8" ry="1.8"/>
</g>
<!-- 0 -->
<g id="node5" class="node">
<title>0</title>
<ellipse fill="none" stroke="black" cx="67.59" cy="-607.93" rx="61.54" ry="61.54"/>
<text text-anchor="middle" x="67.59" y="-611.73" font-family="Times,serif" font-size="14.00">0 &lt; Eps.0</text>
<text text-anchor="middle" x="67.59" y="-596.73" font-family="Times,serif" font-size="14.00">Eps.3</text>
</g>
<!-- ENTRY&#45;&gt;0 -->
<g id="edge1" class="edge">
<title>ENTRY&#45;&gt;0</title>
<path fill="none" stroke="black" d="M67.59,-706.15C67.59,-702.85 67.59,-692.52 67.59,-679.75"/>
<polygon fill="black" stroke="black" points="71.09,-679.59 67.59,-669.59 64.09,-679.59 71.09,-679.59"/>
</g>
<!-- 3 -->
<g id="node2" class="node">
<title>3</title>
<ellipse fill="none" stroke="red" cx="67.59" cy="-67.59" rx="67.69" ry="67.69"/>
<text text-anchor="middle" x="67.59" y="-63.89" font-family="Times,serif" font-size="14.00">3 &lt; ({x})*.2</text>
</g>
<!-- 2 -->
<g id="node3" class="node">
<title>2</title>
<ellipse fill="none" stroke="black" cx="67.59" cy="-253.78" rx="67.69" ry="67.69"/>
<text text-anchor="middle" x="67.59" y="-250.08" font-family="Times,serif" font-size="14.00">2 &lt; ({x})*.2</text>
</g>
<!-- 2&#45;&gt;3 -->
<g id="edge2" class="edge">
<title>2&#45;&gt;3</title>
<path fill="none" stroke="black" d="M67.59,-186.03C67.59,-172.9 67.59,-159.03 67.59,-145.6"/>
<polygon fill="black" stroke="black" points="71.09,-145.43 67.59,-135.43 64.09,-145.43 71.09,-145.43"/>
<text text-anchor="middle" x="75.59" y="-156.99" font-family="Times,serif" font-size="14.00">?x</text>
</g>
<!-- 2&#45;&gt;0 -->
<g id="edge3" class="edge">
<title>2&#45;&gt;0</title>
<path fill="none" stroke="black" d="M62.94,-321.29C61.97,-337.96 61.09,-355.82 60.59,-372.38 58.97,-427.03 58.88,-440.76 60.59,-495.41 61.01,-508.62 61.7,-522.7 62.49,-536.25"/>
<polygon fill="black" stroke="black" points="59.01,-536.71 63.11,-546.48 66,-536.29 59.01,-536.71"/>
<text text-anchor="middle" x="68.59" y="-430.19" font-family="Times,serif" font-size="14.00">?z</text>
</g>
<!-- 1 -->
<g id="node4" class="node">
<title>1</title>
<ellipse fill="none" stroke="black" cx="147.59" cy="-433.89" rx="61.54" ry="61.54"/>
<text text-anchor="middle" x="147.59" y="-437.69" font-family="Times,serif" font-size="14.00">1 &lt; {x}.2</text>
<text text-anchor="middle" x="147.59" y="-422.69" font-family="Times,serif" font-size="14.00">{x}.{x}.2</text>
</g>
<!-- 1&#45;&gt;2 -->
<g id="edge4" class="edge">
<title>1&#45;&gt;2</title>
<path fill="none" stroke="black" d="M122.72,-377.51C115.29,-360.97 107.04,-342.61 99.24,-325.24"/>
<polygon fill="black" stroke="black" points="102.25,-323.39 94.96,-315.7 95.86,-326.26 102.25,-323.39"/>
<text text-anchor="middle" x="118.59" y="-343.18" font-family="Times,serif" font-size="14.00">?x</text>
</g>
<!-- 0&#45;&gt;1 -->
<g id="edge5" class="edge">
<title>0&#45;&gt;1</title>
<path fill="none" stroke="black" d="M93.35,-551.55C101.09,-534.89 109.66,-516.47 117.65,-499.28"/>
<polygon fill="black" stroke="black" points="120.98,-500.42 122.03,-489.88 114.64,-497.47 120.98,-500.42"/>
<text text-anchor="middle" x="120.09" y="-517.21" font-family="Times,serif" font-size="14.00">!w</text>
</g>
</g>
</svg>
