<?xml version="1.0" encoding="UTF-8" standalone="no"?>
<!DOCTYPE svg PUBLIC "-//W3C//DTD SVG 1.1//EN"
 "http://www.w3.org/Graphics/SVG/1.1/DTD/svg11.dtd">
<!-- Generated by graphviz version 2.43.0 (0)
 -->
<!-- Title: %3 Pages: 1 -->
<svg width="78pt" height="433pt"
 viewBox="0.00 0.00 78.00 432.60" xmlns="http://www.w3.org/2000/svg" xmlns:xlink="http://www.w3.org/1999/xlink">
<g id="graph0" class="graph" transform="scale(1 1) rotate(0) translate(4 428.6)">
<title>%3</title>
<polygon fill="white" stroke="transparent" points="-4,4 -4,-428.6 74,-428.6 74,4 -4,4"/>
<!-- ENTRY -->
<g id="node1" class="node">
<title>ENTRY</title>
<ellipse fill="black" stroke="black" cx="47" cy="-422.8" rx="1.8" ry="1.8"/>
</g>
<!-- 0 -->
<g id="node2" class="node">
<title>0</title>
<ellipse fill="none" stroke="black" cx="47" cy="-366" rx="18" ry="18"/>
<text text-anchor="middle" x="47" y="-362.3" font-family="Times,serif" font-size="14.00">0</text>
</g>
<!-- ENTRY&#45;&gt;0 -->
<g id="edge1" class="edge">
<title>ENTRY&#45;&gt;0</title>
<path fill="none" stroke="black" d="M47,-420.85C47,-417.49 47,-405.73 47,-394.05"/>
<polygon fill="black" stroke="black" points="50.5,-394.02 47,-384.02 43.5,-394.02 50.5,-394.02"/>
</g>
<!-- 1 -->
<g id="node3" class="node">
<title>1</title>
<ellipse fill="none" stroke="black" cx="47" cy="-279" rx="18" ry="18"/>
<text text-anchor="middle" x="47" y="-275.3" font-family="Times,serif" font-size="14.00">1</text>
</g>
<!-- 0&#45;&gt;1 -->
<g id="edge2" class="edge">
<title>0&#45;&gt;1</title>
<path fill="none" stroke="black" d="M47,-347.8C47,-336.16 47,-320.55 47,-307.24"/>
<polygon fill="black" stroke="black" points="50.5,-307.18 47,-297.18 43.5,-307.18 50.5,-307.18"/>
<text text-anchor="middle" x="55" y="-318.8" font-family="Times,serif" font-size="14.00">?x</text>
</g>
<!-- 2 -->
<g id="node4" class="node">
<title>2</title>
<ellipse fill="none" stroke="black" cx="18" cy="-192" rx="18" ry="18"/>
<text text-anchor="middle" x="18" y="-188.3" font-family="Times,serif" font-size="14.00">2</text>
</g>
<!-- 1&#45;&gt;2 -->
<g id="edge3" class="edge">
<title>1&#45;&gt;2</title>
<path fill="none" stroke="black" d="M39.24,-262.56C36.4,-256.55 33.33,-249.55 31,-243 28.36,-235.56 25.99,-227.33 24.03,-219.73"/>
<polygon fill="black" stroke="black" points="27.4,-218.76 21.62,-209.89 20.6,-220.43 27.4,-218.76"/>
<text text-anchor="middle" x="40.5" y="-231.8" font-family="Times,serif" font-size="14.00">!w</text>
</g>
<!-- 3 -->
<g id="node5" class="node">
<title>3</title>
<ellipse fill="none" stroke="black" cx="18" cy="-105" rx="18" ry="18"/>
<text text-anchor="middle" x="18" y="-101.3" font-family="Times,serif" font-size="14.00">3</text>
</g>
<!-- 2&#45;&gt;3 -->
<g id="edge4" class="edge">
<title>2&#45;&gt;3</title>
<path fill="none" stroke="black" d="M18,-173.8C18,-162.16 18,-146.55 18,-133.24"/>
<polygon fill="black" stroke="black" points="21.5,-133.18 18,-123.18 14.5,-133.18 21.5,-133.18"/>
<text text-anchor="middle" x="26" y="-144.8" font-family="Times,serif" font-size="14.00">?z</text>
</g>
<!-- 4 -->
<g id="node6" class="node">
<title>4</title>
<ellipse fill="none" stroke="black" cx="41" cy="-18" rx="18" ry="18"/>
<text text-anchor="middle" x="41" y="-14.3" font-family="Times,serif" font-size="14.00">4</text>
</g>
<!-- 3&#45;&gt;4 -->
<g id="edge5" class="edge">
<title>3&#45;&gt;4</title>
<path fill="none" stroke="black" d="M22.54,-87.21C25.78,-75.25 30.19,-58.96 33.89,-45.29"/>
<polygon fill="black" stroke="black" points="37.31,-46.04 36.54,-35.47 30.55,-44.21 37.31,-46.04"/>
<text text-anchor="middle" x="38" y="-57.8" font-family="Times,serif" font-size="14.00">?x</text>
</g>
<!-- 4&#45;&gt;1 -->
<g id="edge6" class="edge">
<title>4&#45;&gt;1</title>
<path fill="none" stroke="black" d="M46.17,-35.57C47.73,-41.34 49.23,-47.9 50,-54 58.94,-124.64 53.56,-208.79 49.77,-251.01"/>
<polygon fill="black" stroke="black" points="46.28,-250.77 48.82,-261.05 53.25,-251.42 46.28,-250.77"/>
<text text-anchor="middle" x="62" y="-144.8" font-family="Times,serif" font-size="14.00">?x</text>
</g>
</g>
</svg>
