<?xml version="1.0" encoding="UTF-8" standalone="no"?>
<!DOCTYPE svg PUBLIC "-//W3C//DTD SVG 1.1//EN"
 "http://www.w3.org/Graphics/SVG/1.1/DTD/svg11.dtd">
<!-- Generated by graphviz version 2.43.0 (0)
 -->
<!-- Title: %3 Pages: 1 -->
<svg width="276pt" height="677pt"
 viewBox="0.00 0.00 275.79 677.36" xmlns="http://www.w3.org/2000/svg" xmlns:xlink="http://www.w3.org/1999/xlink">
<g id="graph0" class="graph" transform="scale(1 1) rotate(0) translate(4 673.36)">
<title>%3</title>
<polygon fill="white" stroke="transparent" points="-4,4 -4,-673.36 271.79,-673.36 271.79,4 -4,4"/>
<!-- ENTRY -->
<g id="node1" class="node">
<title>ENTRY</title>
<ellipse fill="black" stroke="black" cx="133.39" cy="-667.56" rx="1.8" ry="1.8"/>
</g>
<!-- 0 -->
<g id="node7" class="node">
<title>0</title>
<ellipse fill="none" stroke="black" cx="133.39" cy="-572.21" rx="56.59" ry="56.59"/>
<text text-anchor="middle" x="133.39" y="-568.51" font-family="Times,serif" font-size="14.00">0 &lt; Eps.0</text>
</g>
<!-- ENTRY&#45;&gt;0 -->
<g id="edge1" class="edge">
<title>ENTRY&#45;&gt;0</title>
<path fill="none" stroke="black" d="M133.39,-665.51C133.39,-662.25 133.39,-651.76 133.39,-638.95"/>
<polygon fill="black" stroke="black" points="136.89,-638.79 133.39,-628.79 129.89,-638.79 136.89,-638.79"/>
</g>
<!-- 3 -->
<g id="node2" class="node">
<title>3</title>
<ellipse fill="none" stroke="black" cx="62.39" cy="-402.27" rx="62.29" ry="62.29"/>
<text text-anchor="middle" x="62.39" y="-398.57" font-family="Times,serif" font-size="14.00">3 &lt; {b1}.3</text>
</g>
<!-- 4 -->
<g id="node5" class="node">
<title>4</title>
<ellipse fill="none" stroke="black" cx="62.39" cy="-226.48" rx="62.29" ry="62.29"/>
<text text-anchor="middle" x="62.39" y="-222.78" font-family="Times,serif" font-size="14.00">4 &lt; {b1}.4</text>
</g>
<!-- 3&#45;&gt;4 -->
<g id="edge5" class="edge">
<title>3&#45;&gt;4</title>
<path fill="none" stroke="black" d="M62.39,-339.51C62.39,-326.45 62.39,-312.56 62.39,-299.17"/>
<polygon fill="black" stroke="black" points="65.89,-299.05 62.39,-289.05 58.89,-299.05 65.89,-299.05"/>
<text text-anchor="middle" x="74.89" y="-310.68" font-family="Times,serif" font-size="14.00">!b2</text>
</g>
<!-- 1 -->
<g id="node3" class="node">
<title>1</title>
<ellipse fill="none" stroke="black" cx="205.39" cy="-402.27" rx="62.29" ry="62.29"/>
<text text-anchor="middle" x="205.39" y="-398.57" font-family="Times,serif" font-size="14.00">1 &lt; {b1}.2</text>
</g>
<!-- 2 -->
<g id="node6" class="node">
<title>2</title>
<ellipse fill="none" stroke="black" cx="205.39" cy="-226.48" rx="56.59" ry="56.59"/>
<text text-anchor="middle" x="205.39" y="-222.78" font-family="Times,serif" font-size="14.00">2 &lt; Eps.2</text>
</g>
<!-- 1&#45;&gt;2 -->
<g id="edge3" class="edge">
<title>1&#45;&gt;2</title>
<path fill="none" stroke="black" d="M205.39,-339.51C205.39,-324.61 205.39,-308.63 205.39,-293.54"/>
<polygon fill="black" stroke="black" points="208.89,-293.26 205.39,-283.26 201.89,-293.26 208.89,-293.26"/>
<text text-anchor="middle" x="218.39" y="-310.68" font-family="Times,serif" font-size="14.00">?b1</text>
</g>
<!-- 5 -->
<g id="node4" class="node">
<title>5</title>
<ellipse fill="none" stroke="black" cx="62.39" cy="-56.54" rx="56.59" ry="56.59"/>
<text text-anchor="middle" x="62.39" y="-52.84" font-family="Times,serif" font-size="14.00">5 &lt; Eps.4</text>
</g>
<!-- 4&#45;&gt;5 -->
<g id="edge6" class="edge">
<title>4&#45;&gt;5</title>
<path fill="none" stroke="black" d="M62.39,-163.9C62.39,-150.7 62.39,-136.7 62.39,-123.34"/>
<polygon fill="black" stroke="black" points="65.89,-123.28 62.39,-113.28 58.89,-123.28 65.89,-123.28"/>
<text text-anchor="middle" x="75.39" y="-134.89" font-family="Times,serif" font-size="14.00">?b1</text>
</g>
<!-- 0&#45;&gt;3 -->
<g id="edge4" class="edge">
<title>0&#45;&gt;3</title>
<path fill="none" stroke="black" d="M111.71,-519.91C104.96,-503.96 97.43,-486.14 90.32,-469.33"/>
<polygon fill="black" stroke="black" points="93.54,-467.96 86.43,-460.12 87.1,-470.69 93.54,-467.96"/>
<text text-anchor="middle" x="114.39" y="-486.47" font-family="Times,serif" font-size="14.00">!a2</text>
</g>
<!-- 0&#45;&gt;1 -->
<g id="edge2" class="edge">
<title>0&#45;&gt;1</title>
<path fill="none" stroke="black" d="M155.39,-519.91C162.26,-503.88 169.94,-485.96 177.18,-469.08"/>
<polygon fill="black" stroke="black" points="180.43,-470.39 181.15,-459.82 173.99,-467.63 180.43,-470.39"/>
<text text-anchor="middle" x="181.39" y="-486.47" font-family="Times,serif" font-size="14.00">!a1</text>
</g>
</g>
</svg>
