<?xml version="1.0" encoding="UTF-8" standalone="no"?>
<!DOCTYPE svg PUBLIC "-//W3C//DTD SVG 1.1//EN"
 "http://www.w3.org/Graphics/SVG/1.1/DTD/svg11.dtd">
<!-- Generated by graphviz version 2.43.0 (0)
 -->
<!-- Title: %3 Pages: 1 -->
<svg width="98pt" height="346pt"
 viewBox="0.00 0.00 98.00 345.60" xmlns="http://www.w3.org/2000/svg" xmlns:xlink="http://www.w3.org/1999/xlink">
<g id="graph0" class="graph" transform="scale(1 1) rotate(0) translate(4 341.6)">
<title>%3</title>
<polygon fill="white" stroke="transparent" points="-4,4 -4,-341.6 94,-341.6 94,4 -4,4"/>
<!-- ENTRY -->
<g id="node1" class="node">
<title>ENTRY</title>
<ellipse fill="black" stroke="black" cx="48" cy="-335.8" rx="1.8" ry="1.8"/>
</g>
<!-- 0 -->
<g id="node2" class="node">
<title>0</title>
<ellipse fill="none" stroke="black" cx="48" cy="-279" rx="18" ry="18"/>
<text text-anchor="middle" x="48" y="-275.3" font-family="Times,serif" font-size="14.00">0</text>
</g>
<!-- ENTRY&#45;&gt;0 -->
<g id="edge1" class="edge">
<title>ENTRY&#45;&gt;0</title>
<path fill="none" stroke="black" d="M48,-333.85C48,-330.49 48,-318.73 48,-307.05"/>
<polygon fill="black" stroke="black" points="51.5,-307.02 48,-297.02 44.5,-307.02 51.5,-307.02"/>
</g>
<!-- 1 -->
<g id="node3" class="node">
<title>1</title>
<ellipse fill="none" stroke="black" cx="48" cy="-192" rx="18" ry="18"/>
<text text-anchor="middle" x="48" y="-188.3" font-family="Times,serif" font-size="14.00">1</text>
</g>
<!-- 0&#45;&gt;1 -->
<g id="edge2" class="edge">
<title>0&#45;&gt;1</title>
<path fill="none" stroke="black" d="M48,-260.8C48,-249.16 48,-233.55 48,-220.24"/>
<polygon fill="black" stroke="black" points="51.5,-220.18 48,-210.18 44.5,-220.18 51.5,-220.18"/>
<text text-anchor="middle" x="61" y="-231.8" font-family="Times,serif" font-size="14.00">?b1</text>
</g>
<!-- 3 -->
<g id="node4" class="node">
<title>3</title>
<ellipse fill="none" stroke="black" cx="18" cy="-105" rx="18" ry="18"/>
<text text-anchor="middle" x="18" y="-101.3" font-family="Times,serif" font-size="14.00">3</text>
</g>
<!-- 1&#45;&gt;3 -->
<g id="edge3" class="edge">
<title>1&#45;&gt;3</title>
<path fill="none" stroke="black" d="M39.3,-176.03C36.04,-169.96 32.52,-162.79 30,-156 27.27,-148.63 25,-140.42 23.19,-132.82"/>
<polygon fill="black" stroke="black" points="26.59,-131.98 21.02,-122.97 19.75,-133.48 26.59,-131.98"/>
<text text-anchor="middle" x="42" y="-144.8" font-family="Times,serif" font-size="14.00">!a2</text>
</g>
<!-- 2 -->
<g id="node6" class="node">
<title>2</title>
<ellipse fill="none" stroke="black" cx="72" cy="-105" rx="18" ry="18"/>
<text text-anchor="middle" x="72" y="-101.3" font-family="Times,serif" font-size="14.00">2</text>
</g>
<!-- 1&#45;&gt;2 -->
<g id="edge5" class="edge">
<title>1&#45;&gt;2</title>
<path fill="none" stroke="black" d="M52.74,-174.21C56.12,-162.25 60.72,-145.96 64.58,-132.29"/>
<polygon fill="black" stroke="black" points="68,-133.04 67.35,-122.47 61.26,-131.14 68,-133.04"/>
<text text-anchor="middle" x="73" y="-144.8" font-family="Times,serif" font-size="14.00">!a1</text>
</g>
<!-- 4 -->
<g id="node5" class="node">
<title>4</title>
<ellipse fill="none" stroke="black" cx="18" cy="-18" rx="18" ry="18"/>
<text text-anchor="middle" x="18" y="-14.3" font-family="Times,serif" font-size="14.00">4</text>
</g>
<!-- 3&#45;&gt;4 -->
<g id="edge4" class="edge">
<title>3&#45;&gt;4</title>
<path fill="none" stroke="black" d="M18,-86.8C18,-75.16 18,-59.55 18,-46.24"/>
<polygon fill="black" stroke="black" points="21.5,-46.18 18,-36.18 14.5,-46.18 21.5,-46.18"/>
<text text-anchor="middle" x="30.5" y="-57.8" font-family="Times,serif" font-size="14.00">!b2</text>
</g>
</g>
</svg>
