<?xml version="1.0" encoding="UTF-8" standalone="no"?>
<!DOCTYPE svg PUBLIC "-//W3C//DTD SVG 1.1//EN"
 "http://www.w3.org/Graphics/SVG/1.1/DTD/svg11.dtd">
<!-- Generated by graphviz version 2.43.0 (0)
 -->
<!-- Title: %3 Pages: 1 -->
<svg width="143pt" height="358pt"
 viewBox="0.00 0.00 143.19 357.82" xmlns="http://www.w3.org/2000/svg" xmlns:xlink="http://www.w3.org/1999/xlink">
<g id="graph0" class="graph" transform="scale(1 1) rotate(0) translate(4 353.82)">
<title>%3</title>
<polygon fill="white" stroke="transparent" points="-4,4 -4,-353.82 139.19,-353.82 139.19,4 -4,4"/>
<!-- ENTRY -->
<g id="node1" class="node">
<title>ENTRY</title>
<ellipse fill="black" stroke="black" cx="67.59" cy="-348.02" rx="1.8" ry="1.8"/>
</g>
<!-- 0 -->
<g id="node3" class="node">
<title>0</title>
<ellipse fill="none" stroke="black" cx="67.59" cy="-241.63" rx="67.69" ry="67.69"/>
<text text-anchor="middle" x="67.59" y="-237.93" font-family="Times,serif" font-size="14.00">0 &lt; ({b})*.0</text>
</g>
<!-- ENTRY&#45;&gt;0 -->
<g id="edge1" class="edge">
<title>ENTRY&#45;&gt;0</title>
<path fill="none" stroke="black" d="M67.59,-345.85C67.59,-342.5 67.59,-332.27 67.59,-319.47"/>
<polygon fill="black" stroke="black" points="71.09,-319.26 67.59,-309.26 64.09,-319.26 71.09,-319.26"/>
</g>
<!-- 1 -->
<g id="node2" class="node">
<title>1</title>
<ellipse fill="none" stroke="black" cx="67.59" cy="-61.52" rx="61.54" ry="61.54"/>
<text text-anchor="middle" x="67.59" y="-65.32" font-family="Times,serif" font-size="14.00">1 &lt; Eps.1</text>
<text text-anchor="middle" x="67.59" y="-50.32" font-family="Times,serif" font-size="14.00">({b})*.0</text>
</g>
<!-- 1&#45;&gt;0 -->
<g id="edge2" class="edge">
<title>1&#45;&gt;0</title>
<path fill="none" stroke="black" d="M67.59,-123.26C67.59,-136.23 67.59,-150.09 67.59,-163.58"/>
<polygon fill="black" stroke="black" points="64.09,-163.8 67.59,-173.8 71.09,-163.8 64.09,-163.8"/>
<text text-anchor="middle" x="75.09" y="-144.84" font-family="Times,serif" font-size="14.00">!y</text>
</g>
<!-- 0&#45;&gt;1 -->
<g id="edge3" class="edge">
<title>0&#45;&gt;1</title>
<path fill="none" stroke="black" d="M47.59,-176.86C45.74,-165.01 45.06,-152.69 46.59,-141.04 47.03,-137.75 47.56,-134.4 48.16,-131.04"/>
<polygon fill="black" stroke="black" points="51.66,-131.41 50.19,-120.92 44.79,-130.04 51.66,-131.41"/>
<text text-anchor="middle" x="55.09" y="-144.84" font-family="Times,serif" font-size="14.00">?b</text>
</g>
</g>
</svg>
