<?xml version="1.0" encoding="UTF-8" standalone="no"?>
<!DOCTYPE svg PUBLIC "-//W3C//DTD SVG 1.1//EN"
 "http://www.w3.org/Graphics/SVG/1.1/DTD/svg11.dtd">
<!-- Generated by graphviz version 2.43.0 (0)
 -->
<!-- Title: %3 Pages: 1 -->
<svg width="129pt" height="172pt"
 viewBox="0.00 0.00 129.00 171.60" xmlns="http://www.w3.org/2000/svg" xmlns:xlink="http://www.w3.org/1999/xlink">
<g id="graph0" class="graph" transform="scale(1 1) rotate(0) translate(4 167.6)">
<title>%3</title>
<polygon fill="white" stroke="transparent" points="-4,4 -4,-167.6 125,-167.6 125,4 -4,4"/>
<!-- ENTRY -->
<g id="node1" class="node">
<title>ENTRY</title>
<ellipse fill="black" stroke="black" cx="64" cy="-161.8" rx="1.8" ry="1.8"/>
</g>
<!-- 0 -->
<g id="node2" class="node">
<title>0</title>
<ellipse fill="none" stroke="black" cx="64" cy="-105" rx="18" ry="18"/>
<text text-anchor="middle" x="64" y="-101.3" font-family="Times,serif" font-size="14.00">0</text>
</g>
<!-- ENTRY&#45;&gt;0 -->
<g id="edge1" class="edge">
<title>ENTRY&#45;&gt;0</title>
<path fill="none" stroke="black" d="M64,-159.85C64,-156.49 64,-144.73 64,-133.05"/>
<polygon fill="black" stroke="black" points="67.5,-133.02 64,-123.02 60.5,-133.02 67.5,-133.02"/>
</g>
<!-- 2 -->
<g id="node3" class="node">
<title>2</title>
<ellipse fill="none" stroke="black" cx="18" cy="-18" rx="18" ry="18"/>
<text text-anchor="middle" x="18" y="-14.3" font-family="Times,serif" font-size="14.00">2</text>
</g>
<!-- 0&#45;&gt;2 -->
<g id="edge2" class="edge">
<title>0&#45;&gt;2</title>
<path fill="none" stroke="black" d="M47.17,-98.6C33.89,-93.35 16.28,-83.94 8,-69 3.79,-61.4 4.28,-52.29 6.48,-43.93"/>
<polygon fill="black" stroke="black" points="9.86,-44.86 9.81,-34.27 3.24,-42.58 9.86,-44.86"/>
<text text-anchor="middle" x="15.5" y="-57.8" font-family="Times,serif" font-size="14.00">!a</text>
</g>
<!-- 1 -->
<g id="node4" class="node">
<title>1</title>
<ellipse fill="none" stroke="black" cx="103" cy="-18" rx="18" ry="18"/>
<text text-anchor="middle" x="103" y="-14.3" font-family="Times,serif" font-size="14.00">1</text>
</g>
<!-- 0&#45;&gt;1 -->
<g id="edge4" class="edge">
<title>0&#45;&gt;1</title>
<path fill="none" stroke="black" d="M70.31,-88.1C74.33,-78.21 79.75,-65.26 85,-54 86.63,-50.51 88.41,-46.87 90.2,-43.3"/>
<polygon fill="black" stroke="black" points="93.41,-44.7 94.86,-34.21 87.18,-41.51 93.41,-44.7"/>
<text text-anchor="middle" x="93" y="-57.8" font-family="Times,serif" font-size="14.00">!b</text>
</g>
<!-- 2&#45;&gt;0 -->
<g id="edge3" class="edge">
<title>2&#45;&gt;0</title>
<path fill="none" stroke="black" d="M26.15,-34.06C33,-46.72 42.91,-65.04 50.88,-79.75"/>
<polygon fill="black" stroke="black" points="47.94,-81.67 55.78,-88.8 54.09,-78.34 47.94,-81.67"/>
<text text-anchor="middle" x="52" y="-57.8" font-family="Times,serif" font-size="14.00">?y</text>
</g>
<!-- 1&#45;&gt;0 -->
<g id="edge5" class="edge">
<title>1&#45;&gt;0</title>
<path fill="none" stroke="black" d="M105.42,-35.94C106.12,-45.99 105.67,-58.72 101,-69 97.78,-76.08 92.4,-82.43 86.73,-87.72"/>
<polygon fill="black" stroke="black" points="84.39,-85.11 78.99,-94.23 88.89,-90.47 84.39,-85.11"/>
<text text-anchor="middle" x="112" y="-57.8" font-family="Times,serif" font-size="14.00">?x</text>
</g>
</g>
</svg>
