<?xml version="1.0" encoding="UTF-8" standalone="no"?>
<!DOCTYPE svg PUBLIC "-//W3C//DTD SVG 1.1//EN"
 "http://www.w3.org/Graphics/SVG/1.1/DTD/svg11.dtd">
<!-- Generated by graphviz version 2.43.0 (0)
 -->
<!-- Title: %3 Pages: 1 -->
<svg width="121pt" height="326pt"
 viewBox="0.00 0.00 121.09 325.78" xmlns="http://www.w3.org/2000/svg" xmlns:xlink="http://www.w3.org/1999/xlink">
<g id="graph0" class="graph" transform="scale(1 1) rotate(0) translate(4 321.78)">
<title>%3</title>
<polygon fill="white" stroke="transparent" points="-4,4 -4,-321.78 117.09,-321.78 117.09,4 -4,4"/>
<!-- ENTRY -->
<g id="node1" class="node">
<title>ENTRY</title>
<ellipse fill="black" stroke="black" cx="56.54" cy="-315.98" rx="1.8" ry="1.8"/>
</g>
<!-- 0 -->
<g id="node3" class="node">
<title>0</title>
<ellipse fill="none" stroke="black" cx="56.54" cy="-220.63" rx="56.59" ry="56.59"/>
<text text-anchor="middle" x="56.54" y="-216.93" font-family="Times,serif" font-size="14.00">0 &lt; Eps.0</text>
</g>
<!-- ENTRY&#45;&gt;0 -->
<g id="edge1" class="edge">
<title>ENTRY&#45;&gt;0</title>
<path fill="none" stroke="black" d="M56.54,-313.93C56.54,-310.68 56.54,-300.18 56.54,-287.38"/>
<polygon fill="black" stroke="black" points="60.05,-287.21 56.54,-277.21 53.05,-287.21 60.05,-287.21"/>
</g>
<!-- 1 -->
<g id="node2" class="node">
<title>1</title>
<ellipse fill="none" stroke="red" cx="56.54" cy="-56.54" rx="56.59" ry="56.59"/>
<text text-anchor="middle" x="56.54" y="-52.84" font-family="Times,serif" font-size="14.00">1 &lt; Eps.1</text>
</g>
<!-- 0&#45;&gt;1 -->
<g id="edge2" class="edge">
<title>0&#45;&gt;1</title>
<path fill="none" stroke="black" d="M56.54,-163.85C56.54,-150.79 56.54,-136.76 56.54,-123.3"/>
<polygon fill="black" stroke="black" points="60.05,-123.16 56.54,-113.16 53.05,-123.16 60.05,-123.16"/>
<text text-anchor="middle" x="65.04" y="-134.89" font-family="Times,serif" font-size="14.00">?b</text>
</g>
</g>
</svg>
