<?xml version="1.0" encoding="UTF-8" standalone="no"?>
<!DOCTYPE svg PUBLIC "-//W3C//DTD SVG 1.1//EN"
 "http://www.w3.org/Graphics/SVG/1.1/DTD/svg11.dtd">
<!-- Generated by graphviz version 2.43.0 (0)
 -->
<!-- Title: %3 Pages: 1 -->
<svg width="503pt" height="1110pt"
 viewBox="0.00 0.00 503.06 1109.94" xmlns="http://www.w3.org/2000/svg" xmlns:xlink="http://www.w3.org/1999/xlink">
<g id="graph0" class="graph" transform="scale(1 1) rotate(0) translate(4 1105.94)">
<title>%3</title>
<polygon fill="white" stroke="transparent" points="-4,4 -4,-1105.94 499.06,-1105.94 499.06,4 -4,4"/>
<!-- ENTRY -->
<g id="node1" class="node">
<title>ENTRY</title>
<ellipse fill="black" stroke="black" cx="54.06" cy="-640.82" rx="1.8" ry="1.8"/>
</g>
<!-- 0 -->
<g id="node3" class="node">
<title>0</title>
<ellipse fill="none" stroke="black" cx="135.06" cy="-372.03" rx="77.56" ry="77.56"/>
<text text-anchor="middle" x="135.06" y="-383.33" font-family="Times,serif" font-size="14.00">0 &lt; Eps.1</text>
<text text-anchor="middle" x="135.06" y="-368.33" font-family="Times,serif" font-size="14.00">Eps.0</text>
<text text-anchor="middle" x="135.06" y="-353.33" font-family="Times,serif" font-size="14.00">({d,e,x,f})*.4</text>
</g>
<!-- ENTRY&#45;&gt;0 -->
<g id="edge1" class="edge">
<title>ENTRY&#45;&gt;0</title>
<path fill="none" stroke="black" d="M53.98,-638.91C53.2,-629.94 47.48,-556.46 64.06,-500.81 69.58,-482.27 78.11,-463.45 87.36,-446.15"/>
<polygon fill="black" stroke="black" points="90.5,-447.7 92.25,-437.25 84.37,-444.32 90.5,-447.7"/>
</g>
<!-- 4 -->
<g id="node2" class="node">
<title>4</title>
<ellipse fill="none" stroke="black" cx="135.06" cy="-640.82" rx="61.54" ry="61.54"/>
<text text-anchor="middle" x="135.06" y="-644.62" font-family="Times,serif" font-size="14.00">4 &lt; Eps.1</text>
<text text-anchor="middle" x="135.06" y="-629.62" font-family="Times,serif" font-size="14.00">Eps.0</text>
</g>
<!-- 4&#45;&gt;0 -->
<g id="edge5" class="edge">
<title>4&#45;&gt;0</title>
<path fill="none" stroke="black" d="M135.06,-579.28C135.06,-544.14 135.06,-499.27 135.06,-460.36"/>
<polygon fill="black" stroke="black" points="138.56,-460.08 135.06,-450.08 131.56,-460.08 138.56,-460.08"/>
<text text-anchor="middle" x="143.06" y="-471.61" font-family="Times,serif" font-size="14.00">!b</text>
</g>
<!-- 1 -->
<g id="node4" class="node">
<title>1</title>
<ellipse fill="none" stroke="red" cx="135.06" cy="-121.62" rx="121.74" ry="121.74"/>
<text text-anchor="middle" x="135.06" y="-132.92" font-family="Times,serif" font-size="14.00">1 &lt; Eps.1</text>
<text text-anchor="middle" x="135.06" y="-117.92" font-family="Times,serif" font-size="14.00">({d,e,x,f})*.{d}.{e}.1</text>
<text text-anchor="middle" x="135.06" y="-102.92" font-family="Times,serif" font-size="14.00">({d,e,x,f})*.{x}.{f}.1</text>
</g>
<!-- 0&#45;&gt;1 -->
<g id="edge2" class="edge">
<title>0&#45;&gt;1</title>
<path fill="none" stroke="black" d="M135.06,-294.13C135.06,-281.17 135.06,-267.41 135.06,-253.53"/>
<polygon fill="black" stroke="black" points="138.56,-253.42 135.06,-243.42 131.56,-253.42 138.56,-253.42"/>
<text text-anchor="middle" x="142.56" y="-265.04" font-family="Times,serif" font-size="14.00">!a</text>
</g>
<!-- 3 -->
<g id="node5" class="node">
<title>3</title>
<ellipse fill="none" stroke="black" cx="135.06" cy="-966.88" rx="135.11" ry="135.11"/>
<text text-anchor="middle" x="135.06" y="-985.68" font-family="Times,serif" font-size="14.00">3 &lt; Eps.2</text>
<text text-anchor="middle" x="135.06" y="-970.68" font-family="Times,serif" font-size="14.00">{f}.({x}.{f})*.{x}.{f}.1</text>
<text text-anchor="middle" x="135.06" y="-955.68" font-family="Times,serif" font-size="14.00">{f}.1</text>
<text text-anchor="middle" x="135.06" y="-940.68" font-family="Times,serif" font-size="14.00">{f}.({x}.{f})*.{d}.{e}.1</text>
</g>
<!-- 3&#45;&gt;4 -->
<g id="edge3" class="edge">
<title>3&#45;&gt;4</title>
<path fill="none" stroke="black" d="M135.06,-831.73C135.06,-790.84 135.06,-747.51 135.06,-712.58"/>
<polygon fill="black" stroke="black" points="138.56,-712.49 135.06,-702.49 131.56,-712.49 138.56,-712.49"/>
<text text-anchor="middle" x="141.56" y="-802.62" font-family="Times,serif" font-size="14.00">?f</text>
</g>
<!-- 2 -->
<g id="node6" class="node">
<title>2</title>
<ellipse fill="none" stroke="black" cx="355.06" cy="-640.82" rx="140.01" ry="140.01"/>
<text text-anchor="middle" x="355.06" y="-659.62" font-family="Times,serif" font-size="14.00">2 &lt; {e}.1</text>
<text text-anchor="middle" x="355.06" y="-644.62" font-family="Times,serif" font-size="14.00">{e}.({d}.{e})*.{x}.{f}.1</text>
<text text-anchor="middle" x="355.06" y="-629.62" font-family="Times,serif" font-size="14.00">{e}.({d}.{e})*.{d}.{e}.1</text>
<text text-anchor="middle" x="355.06" y="-614.62" font-family="Times,serif" font-size="14.00">Eps.3</text>
</g>
<!-- 2&#45;&gt;0 -->
<g id="edge4" class="edge">
<title>2&#45;&gt;0</title>
<path fill="none" stroke="black" d="M266.21,-532.07C240.7,-501.14 213.62,-468.3 190.73,-440.54"/>
<polygon fill="black" stroke="black" points="193.14,-437.96 184.08,-432.47 187.74,-442.41 193.14,-437.96"/>
<text text-anchor="middle" x="234.06" y="-471.61" font-family="Times,serif" font-size="14.00">?e</text>
</g>
</g>
</svg>
