<?xml version="1.0" encoding="UTF-8" standalone="no"?>
<!DOCTYPE svg PUBLIC "-//W3C//DTD SVG 1.1//EN"
 "http://www.w3.org/Graphics/SVG/1.1/DTD/svg11.dtd">
<!-- Generated by graphviz version 2.43.0 (0)
 -->
<!-- Title: %3 Pages: 1 -->
<svg width="133pt" height="346pt"
 viewBox="0.00 0.00 133.00 345.60" xmlns="http://www.w3.org/2000/svg" xmlns:xlink="http://www.w3.org/1999/xlink">
<g id="graph0" class="graph" transform="scale(1 1) rotate(0) translate(4 341.6)">
<title>%3</title>
<polygon fill="white" stroke="transparent" points="-4,4 -4,-341.6 129,-341.6 129,4 -4,4"/>
<!-- ENTRY -->
<g id="node1" class="node">
<title>ENTRY</title>
<ellipse fill="black" stroke="black" cx="54" cy="-335.8" rx="1.8" ry="1.8"/>
</g>
<!-- 0 -->
<g id="node2" class="node">
<title>0</title>
<ellipse fill="none" stroke="black" cx="54" cy="-279" rx="18" ry="18"/>
<text text-anchor="middle" x="54" y="-275.3" font-family="Times,serif" font-size="14.00">0</text>
</g>
<!-- ENTRY&#45;&gt;0 -->
<g id="edge1" class="edge">
<title>ENTRY&#45;&gt;0</title>
<path fill="none" stroke="black" d="M54,-333.85C54,-330.49 54,-318.73 54,-307.05"/>
<polygon fill="black" stroke="black" points="57.5,-307.02 54,-297.02 50.5,-307.02 57.5,-307.02"/>
</g>
<!-- 1 -->
<g id="node3" class="node">
<title>1</title>
<ellipse fill="none" stroke="black" cx="54" cy="-192" rx="18" ry="18"/>
<text text-anchor="middle" x="54" y="-188.3" font-family="Times,serif" font-size="14.00">1</text>
</g>
<!-- 0&#45;&gt;1 -->
<g id="edge2" class="edge">
<title>0&#45;&gt;1</title>
<path fill="none" stroke="black" d="M54,-260.8C54,-249.16 54,-233.55 54,-220.24"/>
<polygon fill="black" stroke="black" points="57.5,-220.18 54,-210.18 50.5,-220.18 57.5,-220.18"/>
<text text-anchor="middle" x="61.5" y="-231.8" font-family="Times,serif" font-size="14.00">!a</text>
</g>
<!-- 3 -->
<g id="node4" class="node">
<title>3</title>
<ellipse fill="none" stroke="black" cx="48" cy="-105" rx="18" ry="18"/>
<text text-anchor="middle" x="48" y="-101.3" font-family="Times,serif" font-size="14.00">3</text>
</g>
<!-- 1&#45;&gt;3 -->
<g id="edge3" class="edge">
<title>1&#45;&gt;3</title>
<path fill="none" stroke="black" d="M48.83,-174.43C47.27,-168.66 45.77,-162.1 45,-156 44.07,-148.61 44.09,-140.57 44.54,-133.14"/>
<polygon fill="black" stroke="black" points="48.03,-133.44 45.4,-123.18 41.05,-132.84 48.03,-133.44"/>
<text text-anchor="middle" x="53" y="-144.8" font-family="Times,serif" font-size="14.00">?x</text>
</g>
<!-- 2 -->
<g id="node6" class="node">
<title>2</title>
<ellipse fill="none" stroke="black" cx="107" cy="-105" rx="18" ry="18"/>
<text text-anchor="middle" x="107" y="-101.3" font-family="Times,serif" font-size="14.00">2</text>
</g>
<!-- 1&#45;&gt;2 -->
<g id="edge6" class="edge">
<title>1&#45;&gt;2</title>
<path fill="none" stroke="black" d="M62.77,-176.03C68.67,-166.04 76.68,-152.66 84,-141 86.46,-137.08 89.12,-132.95 91.72,-128.96"/>
<polygon fill="black" stroke="black" points="94.67,-130.84 97.24,-120.56 88.82,-126.99 94.67,-130.84"/>
<text text-anchor="middle" x="92.5" y="-144.8" font-family="Times,serif" font-size="14.00">?d</text>
</g>
<!-- 4 -->
<g id="node5" class="node">
<title>4</title>
<ellipse fill="none" stroke="black" cx="18" cy="-18" rx="18" ry="18"/>
<text text-anchor="middle" x="18" y="-14.3" font-family="Times,serif" font-size="14.00">4</text>
</g>
<!-- 3&#45;&gt;4 -->
<g id="edge4" class="edge">
<title>3&#45;&gt;4</title>
<path fill="none" stroke="black" d="M42.22,-87.61C37.94,-75.5 32.04,-58.77 27.13,-44.86"/>
<polygon fill="black" stroke="black" points="30.4,-43.6 23.77,-35.34 23.79,-45.93 30.4,-43.6"/>
<text text-anchor="middle" x="41.5" y="-57.8" font-family="Times,serif" font-size="14.00">?f</text>
</g>
<!-- 4&#45;&gt;0 -->
<g id="edge5" class="edge">
<title>4&#45;&gt;0</title>
<path fill="none" stroke="black" d="M16.82,-36.13C14.92,-69.89 12.73,-147.2 27,-210 30.35,-224.76 36.43,-240.51 41.98,-253.13"/>
<polygon fill="black" stroke="black" points="38.92,-254.85 46.24,-262.5 45.29,-251.95 38.92,-254.85"/>
<text text-anchor="middle" x="27" y="-144.8" font-family="Times,serif" font-size="14.00">!b</text>
</g>
<!-- 2&#45;&gt;0 -->
<g id="edge7" class="edge">
<title>2&#45;&gt;0</title>
<path fill="none" stroke="black" d="M105.75,-123.26C104.84,-132.96 103.35,-145.24 101,-156 92.32,-195.68 88.98,-205.66 73,-243 71.47,-246.58 69.69,-250.28 67.85,-253.87"/>
<polygon fill="black" stroke="black" points="64.61,-252.51 62.96,-262.97 70.77,-255.82 64.61,-252.51"/>
<text text-anchor="middle" x="104" y="-188.3" font-family="Times,serif" font-size="14.00">?e</text>
</g>
</g>
</svg>
