<?xml version="1.0" encoding="UTF-8" standalone="no"?>
<!DOCTYPE svg PUBLIC "-//W3C//DTD SVG 1.1//EN"
 "http://www.w3.org/Graphics/SVG/1.1/DTD/svg11.dtd">
<!-- Generated by graphviz version 2.43.0 (0)
 -->
<!-- Title: %3 Pages: 1 -->
<svg width="231pt" height="696pt"
 viewBox="0.00 0.00 230.89 695.56" xmlns="http://www.w3.org/2000/svg" xmlns:xlink="http://www.w3.org/1999/xlink">
<g id="graph0" class="graph" transform="scale(1 1) rotate(0) translate(4 691.56)">
<title>%3</title>
<polygon fill="white" stroke="transparent" points="-4,4 -4,-691.56 226.89,-691.56 226.89,4 -4,4"/>
<!-- ENTRY -->
<g id="node1" class="node">
<title>ENTRY</title>
<ellipse fill="black" stroke="black" cx="56.54" cy="-685.76" rx="1.8" ry="1.8"/>
</g>
<!-- 0 -->
<g id="node5" class="node">
<title>0</title>
<ellipse fill="none" stroke="black" cx="56.54" cy="-590.41" rx="56.59" ry="56.59"/>
<text text-anchor="middle" x="56.54" y="-586.71" font-family="Times,serif" font-size="14.00">0 &lt; Eps.0</text>
</g>
<!-- ENTRY&#45;&gt;0 -->
<g id="edge1" class="edge">
<title>ENTRY&#45;&gt;0</title>
<path fill="none" stroke="black" d="M56.54,-683.71C56.54,-680.45 56.54,-669.96 56.54,-657.15"/>
<polygon fill="black" stroke="black" points="60.05,-656.99 56.54,-646.99 53.05,-656.99 60.05,-656.99"/>
</g>
<!-- 3 -->
<g id="node2" class="node">
<title>3</title>
<ellipse fill="none" stroke="black" cx="56.54" cy="-56.54" rx="56.59" ry="56.59"/>
<text text-anchor="middle" x="56.54" y="-52.84" font-family="Times,serif" font-size="14.00">3 &lt; {b}.0</text>
</g>
<!-- 3&#45;&gt;0 -->
<g id="edge2" class="edge">
<title>3&#45;&gt;0</title>
<path fill="none" stroke="black" d="M56.54,-113.11C56.54,-211.84 56.54,-417.41 56.54,-523.26"/>
<polygon fill="black" stroke="black" points="53.05,-523.5 56.54,-533.5 60.05,-523.5 53.05,-523.5"/>
<text text-anchor="middle" x="65.04" y="-340.58" font-family="Times,serif" font-size="14.00">?b</text>
</g>
<!-- 2 -->
<g id="node3" class="node">
<title>2</title>
<ellipse fill="none" stroke="black" cx="145.54" cy="-241.43" rx="77.19" ry="77.19"/>
<text text-anchor="middle" x="145.54" y="-237.73" font-family="Times,serif" font-size="14.00">2 &lt; {b}.{b}.0</text>
</g>
<!-- 2&#45;&gt;3 -->
<g id="edge3" class="edge">
<title>2&#45;&gt;3</title>
<path fill="none" stroke="black" d="M112.02,-171.55C103.34,-153.7 94.05,-134.62 85.61,-117.27"/>
<polygon fill="black" stroke="black" points="88.54,-115.3 81.02,-107.84 82.25,-118.36 88.54,-115.3"/>
<text text-anchor="middle" x="107.04" y="-134.89" font-family="Times,serif" font-size="14.00">?b</text>
</g>
<!-- 1 -->
<g id="node4" class="node">
<title>1</title>
<ellipse fill="none" stroke="black" cx="135.54" cy="-426.32" rx="56.59" ry="56.59"/>
<text text-anchor="middle" x="135.54" y="-422.62" font-family="Times,serif" font-size="14.00">1 &lt; {b}.0</text>
</g>
<!-- 1&#45;&gt;2 -->
<g id="edge4" class="edge">
<title>1&#45;&gt;2</title>
<path fill="none" stroke="black" d="M138.6,-369.46C139.3,-356.61 140.07,-342.65 140.82,-328.84"/>
<polygon fill="black" stroke="black" points="144.32,-329.01 141.37,-318.84 137.33,-328.63 144.32,-329.01"/>
<text text-anchor="middle" x="147.04" y="-340.58" font-family="Times,serif" font-size="14.00">!a</text>
</g>
<!-- 0&#45;&gt;1 -->
<g id="edge5" class="edge">
<title>0&#45;&gt;1</title>
<path fill="none" stroke="black" d="M81.11,-539.01C89.17,-522.47 98.21,-503.92 106.57,-486.77"/>
<polygon fill="black" stroke="black" points="109.9,-487.93 111.13,-477.41 103.61,-484.87 109.9,-487.93"/>
<text text-anchor="middle" x="106.04" y="-504.67" font-family="Times,serif" font-size="14.00">!a</text>
</g>
</g>
</svg>
