<?xml version="1.0" encoding="UTF-8" standalone="no"?>
<!DOCTYPE svg PUBLIC "-//W3C//DTD SVG 1.1//EN"
 "http://www.w3.org/Graphics/SVG/1.1/DTD/svg11.dtd">
<!-- Generated by graphviz version 2.43.0 (0)
 -->
<!-- Title: %3 Pages: 1 -->
<svg width="47pt" height="172pt"
 viewBox="0.00 0.00 46.58 171.60" xmlns="http://www.w3.org/2000/svg" xmlns:xlink="http://www.w3.org/1999/xlink">
<g id="graph0" class="graph" transform="scale(1 1) rotate(0) translate(4 167.6)">
<title>%3</title>
<polygon fill="white" stroke="transparent" points="-4,4 -4,-167.6 42.58,-167.6 42.58,4 -4,4"/>
<!-- ENTRY -->
<g id="node1" class="node">
<title>ENTRY</title>
<ellipse fill="black" stroke="black" cx="20.58" cy="-161.8" rx="1.8" ry="1.8"/>
</g>
<!-- 0 -->
<g id="node2" class="node">
<title>0</title>
<ellipse fill="none" stroke="black" cx="20.58" cy="-105" rx="18" ry="18"/>
<text text-anchor="middle" x="20.58" y="-101.3" font-family="Times,serif" font-size="14.00">0</text>
</g>
<!-- ENTRY&#45;&gt;0 -->
<g id="edge1" class="edge">
<title>ENTRY&#45;&gt;0</title>
<path fill="none" stroke="black" d="M20.58,-159.85C20.58,-156.49 20.58,-144.73 20.58,-133.05"/>
<polygon fill="black" stroke="black" points="24.08,-133.02 20.58,-123.02 17.08,-133.02 24.08,-133.02"/>
</g>
<!-- 1 -->
<g id="node3" class="node">
<title>1</title>
<ellipse fill="none" stroke="black" cx="20.58" cy="-18" rx="18" ry="18"/>
<text text-anchor="middle" x="20.58" y="-14.3" font-family="Times,serif" font-size="14.00">1</text>
</g>
<!-- 0&#45;&gt;1 -->
<g id="edge2" class="edge">
<title>0&#45;&gt;1</title>
<path fill="none" stroke="black" d="M10.18,-89.84C4.19,-79.98 -1.58,-66.42 1.58,-54 2.58,-50.04 4.13,-46.05 5.93,-42.24"/>
<polygon fill="black" stroke="black" points="9.08,-43.78 10.71,-33.31 2.91,-40.48 9.08,-43.78"/>
<text text-anchor="middle" x="10.08" y="-57.8" font-family="Times,serif" font-size="14.00">?b</text>
</g>
<!-- 1&#45;&gt;0 -->
<g id="edge3" class="edge">
<title>1&#45;&gt;0</title>
<path fill="none" stroke="black" d="M20.58,-36.18C20.58,-47.81 20.58,-63.42 20.58,-76.73"/>
<polygon fill="black" stroke="black" points="17.08,-76.8 20.58,-86.8 24.08,-76.8 17.08,-76.8"/>
<text text-anchor="middle" x="28.08" y="-57.8" font-family="Times,serif" font-size="14.00">!a</text>
</g>
</g>
</svg>
