<?xml version="1.0" encoding="UTF-8" standalone="no"?>
<!DOCTYPE svg PUBLIC "-//W3C//DTD SVG 1.1//EN"
 "http://www.w3.org/Graphics/SVG/1.1/DTD/svg11.dtd">
<!-- Generated by graphviz version 2.43.0 (0)
 -->
<!-- Title: %3 Pages: 1 -->
<svg width="190pt" height="654pt"
 viewBox="0.00 0.00 190.09 653.96" xmlns="http://www.w3.org/2000/svg" xmlns:xlink="http://www.w3.org/1999/xlink">
<g id="graph0" class="graph" transform="scale(1 1) rotate(0) translate(4 649.96)">
<title>%3</title>
<polygon fill="white" stroke="transparent" points="-4,4 -4,-649.96 186.09,-649.96 186.09,4 -4,4"/>
<!-- ENTRY -->
<g id="node1" class="node">
<title>ENTRY</title>
<ellipse fill="black" stroke="black" cx="56.54" cy="-644.16" rx="1.8" ry="1.8"/>
</g>
<!-- 0 -->
<g id="node5" class="node">
<title>0</title>
<ellipse fill="none" stroke="black" cx="56.54" cy="-548.81" rx="56.59" ry="56.59"/>
<text text-anchor="middle" x="56.54" y="-545.11" font-family="Times,serif" font-size="14.00">0 &lt; Eps.0</text>
</g>
<!-- ENTRY&#45;&gt;0 -->
<g id="edge1" class="edge">
<title>ENTRY&#45;&gt;0</title>
<path fill="none" stroke="black" d="M56.54,-642.11C56.54,-638.86 56.54,-628.36 56.54,-615.56"/>
<polygon fill="black" stroke="black" points="60.05,-615.39 56.54,-605.39 53.05,-615.39 60.05,-615.39"/>
</g>
<!-- 3 -->
<g id="node2" class="node">
<title>3</title>
<ellipse fill="none" stroke="black" cx="56.54" cy="-56.54" rx="56.59" ry="56.59"/>
<text text-anchor="middle" x="56.54" y="-52.84" font-family="Times,serif" font-size="14.00">3 &lt; Eps.3</text>
</g>
<!-- 3&#45;&gt;0 -->
<g id="edge2" class="edge">
<title>3&#45;&gt;0</title>
<path fill="none" stroke="black" d="M56.54,-113.26C56.54,-204.36 56.54,-384.8 56.54,-482.05"/>
<polygon fill="black" stroke="black" points="53.05,-482.05 56.54,-492.05 60.05,-482.05 53.05,-482.05"/>
<text text-anchor="middle" x="64.04" y="-298.98" font-family="Times,serif" font-size="14.00">!a</text>
</g>
<!-- 2 -->
<g id="node3" class="node">
<title>2</title>
<ellipse fill="none" stroke="black" cx="125.54" cy="-220.63" rx="56.59" ry="56.59"/>
<text text-anchor="middle" x="125.54" y="-216.93" font-family="Times,serif" font-size="14.00">2 &lt; {b}.3</text>
</g>
<!-- 2&#45;&gt;3 -->
<g id="edge3" class="edge">
<title>2&#45;&gt;3</title>
<path fill="none" stroke="black" d="M103.71,-168.35C96.95,-152.45 89.43,-134.79 82.41,-118.31"/>
<polygon fill="black" stroke="black" points="85.49,-116.61 78.35,-108.78 79.05,-119.35 85.49,-116.61"/>
<text text-anchor="middle" x="102.04" y="-134.89" font-family="Times,serif" font-size="14.00">?b</text>
</g>
<!-- 1 -->
<g id="node4" class="node">
<title>1</title>
<ellipse fill="none" stroke="black" cx="125.54" cy="-384.72" rx="56.59" ry="56.59"/>
<text text-anchor="middle" x="125.54" y="-381.02" font-family="Times,serif" font-size="14.00">1 &lt; Eps.1</text>
</g>
<!-- 1&#45;&gt;2 -->
<g id="edge4" class="edge">
<title>1&#45;&gt;2</title>
<path fill="none" stroke="black" d="M125.54,-327.94C125.54,-314.88 125.54,-300.85 125.54,-287.39"/>
<polygon fill="black" stroke="black" points="129.05,-287.25 125.54,-277.25 122.05,-287.25 129.05,-287.25"/>
<text text-anchor="middle" x="133.04" y="-298.98" font-family="Times,serif" font-size="14.00">!a</text>
</g>
<!-- 0&#45;&gt;1 -->
<g id="edge5" class="edge">
<title>0&#45;&gt;1</title>
<path fill="none" stroke="black" d="M78.38,-496.53C85.14,-480.63 92.66,-462.97 99.68,-446.49"/>
<polygon fill="black" stroke="black" points="103.04,-447.53 103.74,-436.96 96.6,-444.79 103.04,-447.53"/>
<text text-anchor="middle" x="102.04" y="-463.07" font-family="Times,serif" font-size="14.00">?b</text>
</g>
</g>
</svg>
