<?xml version="1.0" encoding="UTF-8" standalone="no"?>
<!DOCTYPE svg PUBLIC "-//W3C//DTD SVG 1.1//EN"
 "http://www.w3.org/Graphics/SVG/1.1/DTD/svg11.dtd">
<!-- Generated by graphviz version 2.43.0 (0)
 -->
<!-- Title: %3 Pages: 1 -->
<svg width="572pt" height="844pt"
 viewBox="0.00 0.00 571.69 843.74" xmlns="http://www.w3.org/2000/svg" xmlns:xlink="http://www.w3.org/1999/xlink">
<g id="graph0" class="graph" transform="scale(1 1) rotate(0) translate(4 839.74)">
<title>%3</title>
<polygon fill="white" stroke="transparent" points="-4,4 -4,-839.74 567.69,-839.74 567.69,4 -4,4"/>
<!-- ENTRY -->
<g id="node1" class="node">
<title>ENTRY</title>
<ellipse fill="black" stroke="black" cx="273.15" cy="-833.94" rx="1.8" ry="1.8"/>
</g>
<!-- 0 -->
<g id="node8" class="node">
<title>0</title>
<ellipse fill="none" stroke="black" cx="273.15" cy="-738.6" rx="56.59" ry="56.59"/>
<text text-anchor="middle" x="273.15" y="-734.9" font-family="Times,serif" font-size="14.00">0 &lt; Eps.0</text>
</g>
<!-- ENTRY&#45;&gt;0 -->
<g id="edge1" class="edge">
<title>ENTRY&#45;&gt;0</title>
<path fill="none" stroke="black" d="M273.15,-831.89C273.15,-828.64 273.15,-818.15 273.15,-805.34"/>
<polygon fill="black" stroke="black" points="276.65,-805.18 273.15,-795.18 269.65,-805.18 276.65,-805.18"/>
</g>
<!-- 6 -->
<g id="node2" class="node">
<title>6</title>
<ellipse fill="none" stroke="black" cx="84.15" cy="-108.54" rx="84.29" ry="84.29"/>
<text text-anchor="middle" x="84.15" y="-127.34" font-family="Times,serif" font-size="14.00">6 &lt; Eps.3</text>
<text text-anchor="middle" x="84.15" y="-112.34" font-family="Times,serif" font-size="14.00">Eps.4</text>
<text text-anchor="middle" x="84.15" y="-97.34" font-family="Times,serif" font-size="14.00">({x,d})*.{d}.4</text>
<text text-anchor="middle" x="84.15" y="-82.34" font-family="Times,serif" font-size="14.00">({x,d})*.{x}.4</text>
</g>
<!-- 4 -->
<g id="node3" class="node">
<title>4</title>
<ellipse fill="none" stroke="black" cx="178.15" cy="-563.46" rx="61.54" ry="61.54"/>
<text text-anchor="middle" x="178.15" y="-574.76" font-family="Times,serif" font-size="14.00">4 &lt; Eps.3</text>
<text text-anchor="middle" x="178.15" y="-559.76" font-family="Times,serif" font-size="14.00">({x,d})*.5</text>
<text text-anchor="middle" x="178.15" y="-544.76" font-family="Times,serif" font-size="14.00">({d,x})*.4</text>
</g>
<!-- 6&#45;&gt;4 -->
<g id="edge9" class="edge">
<title>6&#45;&gt;4</title>
<path fill="none" stroke="black" d="M59.34,-188.97C41.9,-259.02 27.14,-362.47 61.15,-444.87 73.44,-474.64 97.32,-500.85 120.33,-520.92"/>
<polygon fill="black" stroke="black" points="118.18,-523.69 128.08,-527.49 122.71,-518.35 118.18,-523.69"/>
<text text-anchor="middle" x="73.15" y="-352.77" font-family="Times,serif" font-size="14.00">!a2</text>
</g>
<!-- 5 -->
<g id="node5" class="node">
<title>5</title>
<ellipse fill="none" stroke="black" cx="178.15" cy="-356.47" rx="84.29" ry="84.29"/>
<text text-anchor="middle" x="178.15" y="-367.77" font-family="Times,serif" font-size="14.00">5 &lt; Eps.4</text>
<text text-anchor="middle" x="178.15" y="-352.77" font-family="Times,serif" font-size="14.00">({x,d})*.{d}.4</text>
<text text-anchor="middle" x="178.15" y="-337.77" font-family="Times,serif" font-size="14.00">({x,d})*.{x}.4</text>
</g>
<!-- 4&#45;&gt;5 -->
<g id="edge4" class="edge">
<title>4&#45;&gt;5</title>
<path fill="none" stroke="black" d="M160.14,-504.17C158.07,-495.43 156.29,-486.46 155.15,-477.87 153.84,-468.06 153.76,-457.84 154.52,-447.69"/>
<polygon fill="black" stroke="black" points="158.01,-447.87 155.53,-437.57 151.05,-447.17 158.01,-447.87"/>
<text text-anchor="middle" x="167.15" y="-466.67" font-family="Times,serif" font-size="14.00">!a1</text>
</g>
<!-- 1 -->
<g id="node4" class="node">
<title>1</title>
<ellipse fill="none" stroke="black" cx="369.15" cy="-563.46" rx="67.69" ry="67.69"/>
<text text-anchor="middle" x="369.15" y="-559.76" font-family="Times,serif" font-size="14.00">1 &lt; ({b})*.1</text>
</g>
<!-- 2 -->
<g id="node7" class="node">
<title>2</title>
<ellipse fill="none" stroke="black" cx="369.15" cy="-356.47" rx="88.28" ry="88.28"/>
<text text-anchor="middle" x="369.15" y="-352.77" font-family="Times,serif" font-size="14.00">2 &lt; ({b})*.{b}.1</text>
</g>
<!-- 1&#45;&gt;2 -->
<g id="edge10" class="edge">
<title>1&#45;&gt;2</title>
<path fill="none" stroke="black" d="M369.15,-495.62C369.15,-482.77 369.15,-469.07 369.15,-455.48"/>
<polygon fill="black" stroke="black" points="372.65,-455.12 369.15,-445.12 365.65,-455.12 372.65,-455.12"/>
<text text-anchor="middle" x="376.65" y="-466.67" font-family="Times,serif" font-size="14.00">!a</text>
</g>
<!-- 5&#45;&gt;6 -->
<g id="edge3" class="edge">
<title>5&#45;&gt;6</title>
<path fill="none" stroke="black" d="M148.4,-277.66C138.58,-251.97 127.6,-223.22 117.52,-196.86"/>
<polygon fill="black" stroke="black" points="120.7,-195.36 113.86,-187.27 114.16,-197.86 120.7,-195.36"/>
<text text-anchor="middle" x="145.15" y="-238.88" font-family="Times,serif" font-size="14.00">?x</text>
</g>
<!-- 5&#45;&gt;4 -->
<g id="edge6" class="edge">
<title>5&#45;&gt;4</title>
<path fill="none" stroke="black" d="M179.15,-440.69C179.21,-453.15 179.22,-465.85 179.15,-477.87 179.12,-482.37 179.08,-487 179.04,-491.67"/>
<polygon fill="black" stroke="black" points="175.54,-491.89 178.95,-501.93 182.54,-491.96 175.54,-491.89"/>
<text text-anchor="middle" x="188.65" y="-466.67" font-family="Times,serif" font-size="14.00">?d</text>
</g>
<!-- 3 -->
<g id="node6" class="node">
<title>3</title>
<ellipse fill="none" stroke="black" cx="455.15" cy="-108.54" rx="108.58" ry="108.58"/>
<text text-anchor="middle" x="455.15" y="-104.84" font-family="Times,serif" font-size="14.00">3 &lt; ({b})*.{b}.{b}.1</text>
</g>
<!-- 3&#45;&gt;1 -->
<g id="edge5" class="edge">
<title>3&#45;&gt;1</title>
<path fill="none" stroke="black" d="M478.18,-215C488.27,-282.65 492.58,-371.27 466.15,-444.87 457.65,-468.51 442.12,-490.79 425.93,-509.47"/>
<polygon fill="black" stroke="black" points="423.03,-507.46 418.98,-517.24 428.25,-512.12 423.03,-507.46"/>
<text text-anchor="middle" x="493.65" y="-352.77" font-family="Times,serif" font-size="14.00">?b</text>
</g>
<!-- 2&#45;&gt;3 -->
<g id="edge2" class="edge">
<title>2&#45;&gt;3</title>
<path fill="none" stroke="black" d="M398.02,-272.9C403.87,-256.18 410.11,-238.34 416.23,-220.82"/>
<polygon fill="black" stroke="black" points="419.63,-221.72 419.62,-211.13 413.02,-219.41 419.63,-221.72"/>
<text text-anchor="middle" x="417.65" y="-238.88" font-family="Times,serif" font-size="14.00">!a</text>
</g>
<!-- 0&#45;&gt;4 -->
<g id="edge8" class="edge">
<title>0&#45;&gt;4</title>
<path fill="none" stroke="black" d="M246.18,-688.45C235.62,-669.2 223.38,-646.9 212.22,-626.56"/>
<polygon fill="black" stroke="black" points="215.22,-624.76 207.35,-617.68 209.09,-628.13 215.22,-624.76"/>
<text text-anchor="middle" x="239.65" y="-652.85" font-family="Times,serif" font-size="14.00">!v</text>
</g>
<!-- 0&#45;&gt;1 -->
<g id="edge7" class="edge">
<title>0&#45;&gt;1</title>
<path fill="none" stroke="black" d="M300.14,-688.91C309.96,-671.21 321.23,-650.87 331.78,-631.84"/>
<polygon fill="black" stroke="black" points="334.94,-633.36 336.73,-622.92 328.82,-629.97 334.94,-633.36"/>
<text text-anchor="middle" x="329.15" y="-652.85" font-family="Times,serif" font-size="14.00">!u</text>
</g>
</g>
</svg>
