<?xml version="1.0" encoding="UTF-8" standalone="no"?>
<!DOCTYPE svg PUBLIC "-//W3C//DTD SVG 1.1//EN"
 "http://www.w3.org/Graphics/SVG/1.1/DTD/svg11.dtd">
<!-- Generated by graphviz version 2.43.0 (0)
 -->
<!-- Title: %3 Pages: 1 -->
<svg width="300pt" height="259pt"
 viewBox="0.00 0.00 300.49 258.60" xmlns="http://www.w3.org/2000/svg" xmlns:xlink="http://www.w3.org/1999/xlink">
<g id="graph0" class="graph" transform="scale(1 1) rotate(0) translate(4 254.6)">
<title>%3</title>
<polygon fill="white" stroke="transparent" points="-4,4 -4,-254.6 296.49,-254.6 296.49,4 -4,4"/>
<!-- ENTRY -->
<g id="node1" class="node">
<title>ENTRY</title>
<ellipse fill="black" stroke="black" cx="191.49" cy="-248.8" rx="1.8" ry="1.8"/>
</g>
<!-- 0 -->
<g id="node2" class="node">
<title>0</title>
<ellipse fill="none" stroke="black" cx="191.49" cy="-192" rx="18" ry="18"/>
<text text-anchor="middle" x="191.49" y="-188.3" font-family="Times,serif" font-size="14.00">0</text>
</g>
<!-- ENTRY&#45;&gt;0 -->
<g id="edge1" class="edge">
<title>ENTRY&#45;&gt;0</title>
<path fill="none" stroke="black" d="M191.49,-246.85C191.49,-243.49 191.49,-231.73 191.49,-220.05"/>
<polygon fill="black" stroke="black" points="194.99,-220.02 191.49,-210.02 187.99,-220.02 194.99,-220.02"/>
</g>
<!-- 3 -->
<g id="node3" class="node">
<title>3</title>
<ellipse fill="none" stroke="black" cx="128.49" cy="-105" rx="18" ry="18"/>
<text text-anchor="middle" x="128.49" y="-101.3" font-family="Times,serif" font-size="14.00">3</text>
</g>
<!-- 0&#45;&gt;3 -->
<g id="edge2" class="edge">
<title>0&#45;&gt;3</title>
<path fill="none" stroke="black" d="M181.08,-176.96C171.33,-163.8 156.57,-143.89 145.17,-128.51"/>
<polygon fill="black" stroke="black" points="147.67,-126.01 138.91,-120.06 142.05,-130.17 147.67,-126.01"/>
<text text-anchor="middle" x="171.99" y="-144.8" font-family="Times,serif" font-size="14.00">!v</text>
</g>
<!-- 1 -->
<g id="node6" class="node">
<title>1</title>
<ellipse fill="none" stroke="black" cx="254.49" cy="-105" rx="18" ry="18"/>
<text text-anchor="middle" x="254.49" y="-101.3" font-family="Times,serif" font-size="14.00">1</text>
</g>
<!-- 0&#45;&gt;1 -->
<g id="edge9" class="edge">
<title>0&#45;&gt;1</title>
<path fill="none" stroke="black" d="M201.89,-176.96C211.65,-163.8 226.4,-143.89 237.81,-128.51"/>
<polygon fill="black" stroke="black" points="240.93,-130.17 244.07,-120.06 235.3,-126.01 240.93,-130.17"/>
<text text-anchor="middle" x="234.49" y="-144.8" font-family="Times,serif" font-size="14.00">!u</text>
</g>
<!-- 5 -->
<g id="node4" class="node">
<title>5</title>
<ellipse fill="none" stroke="black" cx="49.49" cy="-18" rx="18" ry="18"/>
<text text-anchor="middle" x="49.49" y="-14.3" font-family="Times,serif" font-size="14.00">5</text>
</g>
<!-- 3&#45;&gt;5 -->
<g id="edge3" class="edge">
<title>3&#45;&gt;5</title>
<path fill="none" stroke="black" d="M110.43,-101.62C79.01,-97.07 16.42,-86.06 3.49,-69 -6.7,-55.57 8.83,-41.55 24.54,-31.78"/>
<polygon fill="black" stroke="black" points="26.69,-34.58 33.61,-26.56 23.2,-28.51 26.69,-34.58"/>
<text text-anchor="middle" x="15.49" y="-57.8" font-family="Times,serif" font-size="14.00">!a2</text>
</g>
<!-- 4 -->
<g id="node5" class="node">
<title>4</title>
<ellipse fill="none" stroke="black" cx="175.49" cy="-18" rx="18" ry="18"/>
<text text-anchor="middle" x="175.49" y="-14.3" font-family="Times,serif" font-size="14.00">4</text>
</g>
<!-- 3&#45;&gt;4 -->
<g id="edge6" class="edge">
<title>3&#45;&gt;4</title>
<path fill="none" stroke="black" d="M125.26,-86.9C124.2,-76.8 124.37,-64.06 129.49,-54 134.09,-44.93 142.26,-37.56 150.45,-31.96"/>
<polygon fill="black" stroke="black" points="152.5,-34.81 159.18,-26.58 148.83,-28.85 152.5,-34.81"/>
<text text-anchor="middle" x="141.49" y="-57.8" font-family="Times,serif" font-size="14.00">!a1</text>
</g>
<!-- 5&#45;&gt;3 -->
<g id="edge4" class="edge">
<title>5&#45;&gt;3</title>
<path fill="none" stroke="black" d="M45.58,-35.63C44.09,-46.05 44.07,-59.3 50.49,-69 61.71,-85.97 83.29,-94.8 100.9,-99.35"/>
<polygon fill="black" stroke="black" points="100.19,-102.77 110.71,-101.55 101.72,-95.94 100.19,-102.77"/>
<text text-anchor="middle" x="58.99" y="-57.8" font-family="Times,serif" font-size="14.00">?d</text>
</g>
<!-- 5&#45;&gt;3 -->
<g id="edge5" class="edge">
<title>5&#45;&gt;3</title>
<path fill="none" stroke="black" d="M61.34,-31.75C74.12,-45.5 94.63,-67.57 109.63,-83.71"/>
<polygon fill="black" stroke="black" points="107.12,-86.15 116.49,-91.09 112.24,-81.38 107.12,-86.15"/>
<text text-anchor="middle" x="102.49" y="-57.8" font-family="Times,serif" font-size="14.00">?x</text>
</g>
<!-- 4&#45;&gt;3 -->
<g id="edge7" class="edge">
<title>4&#45;&gt;3</title>
<path fill="none" stroke="black" d="M169.36,-35.17C165.33,-45.17 159.68,-58.12 153.49,-69 150.99,-73.39 148.06,-77.91 145.11,-82.18"/>
<polygon fill="black" stroke="black" points="142.14,-80.31 139.14,-90.47 147.82,-84.4 142.14,-80.31"/>
<text text-anchor="middle" x="169.99" y="-57.8" font-family="Times,serif" font-size="14.00">?d</text>
</g>
<!-- 4&#45;&gt;3 -->
<g id="edge8" class="edge">
<title>4&#45;&gt;3</title>
<path fill="none" stroke="black" d="M182.41,-34.76C185.85,-45.07 188.18,-58.53 182.49,-69 176.42,-80.16 165.09,-88.31 154.37,-93.92"/>
<polygon fill="black" stroke="black" points="152.81,-90.79 145.25,-98.22 155.79,-97.12 152.81,-90.79"/>
<text text-anchor="middle" x="193.49" y="-57.8" font-family="Times,serif" font-size="14.00">?x</text>
</g>
<!-- 2 -->
<g id="node7" class="node">
<title>2</title>
<ellipse fill="none" stroke="black" cx="274.49" cy="-18" rx="18" ry="18"/>
<text text-anchor="middle" x="274.49" y="-14.3" font-family="Times,serif" font-size="14.00">2</text>
</g>
<!-- 1&#45;&gt;2 -->
<g id="edge10" class="edge">
<title>1&#45;&gt;2</title>
<path fill="none" stroke="black" d="M252.85,-87.06C252.39,-77.24 252.64,-64.74 255.49,-54 256.53,-50.05 258.11,-46.06 259.91,-42.26"/>
<polygon fill="black" stroke="black" points="263.06,-43.8 264.69,-33.33 256.89,-40.49 263.06,-43.8"/>
<text text-anchor="middle" x="263.99" y="-57.8" font-family="Times,serif" font-size="14.00">?b</text>
</g>
<!-- 2&#45;&gt;1 -->
<g id="edge11" class="edge">
<title>2&#45;&gt;1</title>
<path fill="none" stroke="black" d="M275.62,-36.4C275.8,-46.14 275.27,-58.41 272.49,-69 271.51,-72.72 270.09,-76.5 268.47,-80.13"/>
<polygon fill="black" stroke="black" points="265.25,-78.74 263.88,-89.25 271.5,-81.88 265.25,-78.74"/>
<text text-anchor="middle" x="281.99" y="-57.8" font-family="Times,serif" font-size="14.00">!a</text>
</g>
</g>
</svg>
