<?xml version="1.0" encoding="UTF-8" standalone="no"?>
<!DOCTYPE svg PUBLIC "-//W3C//DTD SVG 1.1//EN"
 "http://www.w3.org/Graphics/SVG/1.1/DTD/svg11.dtd">
<!-- Generated by graphviz version 2.43.0 (0)
 -->
<!-- Title: %3 Pages: 1 -->
<svg width="131pt" height="848pt"
 viewBox="0.00 0.00 131.04 847.89" xmlns="http://www.w3.org/2000/svg" xmlns:xlink="http://www.w3.org/1999/xlink">
<g id="graph0" class="graph" transform="scale(1 1) rotate(0) translate(4 843.89)">
<title>%3</title>
<polygon fill="white" stroke="transparent" points="-4,4 -4,-843.89 127.04,-843.89 127.04,4 -4,4"/>
<!-- ENTRY -->
<g id="node1" class="node">
<title>ENTRY</title>
<ellipse fill="black" stroke="black" cx="61.52" cy="-838.09" rx="1.8" ry="1.8"/>
</g>
<!-- 0 -->
<g id="node5" class="node">
<title>0</title>
<ellipse fill="none" stroke="black" cx="61.52" cy="-742.74" rx="56.59" ry="56.59"/>
<text text-anchor="middle" x="61.52" y="-739.04" font-family="Times,serif" font-size="14.00">0 &lt; Eps.0</text>
</g>
<!-- ENTRY&#45;&gt;0 -->
<g id="edge1" class="edge">
<title>ENTRY&#45;&gt;0</title>
<path fill="none" stroke="black" d="M61.52,-836.04C61.52,-832.79 61.52,-822.29 61.52,-809.49"/>
<polygon fill="black" stroke="black" points="65.02,-809.32 61.52,-799.32 58.02,-809.32 65.02,-809.32"/>
</g>
<!-- 4 -->
<g id="node2" class="node">
<title>4</title>
<ellipse fill="none" stroke="red" cx="61.52" cy="-61.52" rx="61.54" ry="61.54"/>
<text text-anchor="middle" x="61.52" y="-65.32" font-family="Times,serif" font-size="14.00">4 &lt; Eps.3</text>
<text text-anchor="middle" x="61.52" y="-50.32" font-family="Times,serif" font-size="14.00">Eps.2</text>
</g>
<!-- 1 -->
<g id="node3" class="node">
<title>1</title>
<ellipse fill="none" stroke="black" cx="61.52" cy="-578.65" rx="56.59" ry="56.59"/>
<text text-anchor="middle" x="61.52" y="-574.95" font-family="Times,serif" font-size="14.00">1 &lt; Eps.1</text>
</g>
<!-- 2 -->
<g id="node4" class="node">
<title>2</title>
<ellipse fill="none" stroke="black" cx="61.52" cy="-409.59" rx="61.54" ry="61.54"/>
<text text-anchor="middle" x="61.52" y="-413.39" font-family="Times,serif" font-size="14.00">2 &lt; Eps.3</text>
<text text-anchor="middle" x="61.52" y="-398.39" font-family="Times,serif" font-size="14.00">Eps.2</text>
</g>
<!-- 1&#45;&gt;2 -->
<g id="edge3" class="edge">
<title>1&#45;&gt;2</title>
<path fill="none" stroke="black" d="M61.52,-522.03C61.52,-509.02 61.52,-494.99 61.52,-481.41"/>
<polygon fill="black" stroke="black" points="65.02,-481.15 61.52,-471.15 58.02,-481.15 65.02,-481.15"/>
<text text-anchor="middle" x="68.52" y="-492.91" font-family="Times,serif" font-size="14.00">!z</text>
</g>
<!-- 3 -->
<g id="node6" class="node">
<title>3</title>
<ellipse fill="none" stroke="black" cx="61.52" cy="-235.55" rx="61.54" ry="61.54"/>
<text text-anchor="middle" x="61.52" y="-239.35" font-family="Times,serif" font-size="14.00">3 &lt; Eps.2</text>
<text text-anchor="middle" x="61.52" y="-224.35" font-family="Times,serif" font-size="14.00">{b}.2</text>
</g>
<!-- 2&#45;&gt;3 -->
<g id="edge2" class="edge">
<title>2&#45;&gt;3</title>
<path fill="none" stroke="black" d="M61.52,-347.94C61.52,-334.83 61.52,-320.86 61.52,-307.41"/>
<polygon fill="black" stroke="black" points="65.02,-307.24 61.52,-297.24 58.02,-307.24 65.02,-307.24"/>
<text text-anchor="middle" x="69.02" y="-318.87" font-family="Times,serif" font-size="14.00">!a</text>
</g>
<!-- 0&#45;&gt;1 -->
<g id="edge4" class="edge">
<title>0&#45;&gt;1</title>
<path fill="none" stroke="black" d="M61.52,-685.96C61.52,-672.9 61.52,-658.86 61.52,-645.41"/>
<polygon fill="black" stroke="black" points="65.02,-645.26 61.52,-635.27 58.02,-645.27 65.02,-645.26"/>
<text text-anchor="middle" x="68.52" y="-657" font-family="Times,serif" font-size="14.00">!z</text>
</g>
<!-- 3&#45;&gt;4 -->
<g id="edge5" class="edge">
<title>3&#45;&gt;4</title>
<path fill="none" stroke="black" d="M61.52,-173.9C61.52,-160.8 61.52,-146.83 61.52,-133.37"/>
<polygon fill="black" stroke="black" points="65.02,-133.2 61.52,-123.2 58.02,-133.2 65.02,-133.2"/>
<text text-anchor="middle" x="70.02" y="-144.84" font-family="Times,serif" font-size="14.00">?b</text>
</g>
</g>
</svg>
