<?xml version="1.0" encoding="UTF-8" standalone="no"?>
<!DOCTYPE svg PUBLIC "-//W3C//DTD SVG 1.1//EN"
 "http://www.w3.org/Graphics/SVG/1.1/DTD/svg11.dtd">
<!-- Generated by graphviz version 2.43.0 (0)
 -->
<!-- Title: %3 Pages: 1 -->
<svg width="47pt" height="346pt"
 viewBox="0.00 0.00 46.58 345.60" xmlns="http://www.w3.org/2000/svg" xmlns:xlink="http://www.w3.org/1999/xlink">
<g id="graph0" class="graph" transform="scale(1 1) rotate(0) translate(4 341.6)">
<title>%3</title>
<polygon fill="white" stroke="transparent" points="-4,4 -4,-341.6 42.58,-341.6 42.58,4 -4,4"/>
<!-- ENTRY -->
<g id="node1" class="node">
<title>ENTRY</title>
<ellipse fill="black" stroke="black" cx="20.58" cy="-335.8" rx="1.8" ry="1.8"/>
</g>
<!-- 0 -->
<g id="node2" class="node">
<title>0</title>
<ellipse fill="none" stroke="black" cx="20.58" cy="-279" rx="18" ry="18"/>
<text text-anchor="middle" x="20.58" y="-275.3" font-family="Times,serif" font-size="14.00">0</text>
</g>
<!-- ENTRY&#45;&gt;0 -->
<g id="edge1" class="edge">
<title>ENTRY&#45;&gt;0</title>
<path fill="none" stroke="black" d="M20.58,-333.85C20.58,-330.49 20.58,-318.73 20.58,-307.05"/>
<polygon fill="black" stroke="black" points="24.08,-307.02 20.58,-297.02 17.08,-307.02 24.08,-307.02"/>
</g>
<!-- 1 -->
<g id="node3" class="node">
<title>1</title>
<ellipse fill="none" stroke="black" cx="20.58" cy="-192" rx="18" ry="18"/>
<text text-anchor="middle" x="20.58" y="-188.3" font-family="Times,serif" font-size="14.00">1</text>
</g>
<!-- 0&#45;&gt;1 -->
<g id="edge2" class="edge">
<title>0&#45;&gt;1</title>
<path fill="none" stroke="black" d="M20.58,-260.8C20.58,-249.16 20.58,-233.55 20.58,-220.24"/>
<polygon fill="black" stroke="black" points="24.08,-220.18 20.58,-210.18 17.08,-220.18 24.08,-220.18"/>
<text text-anchor="middle" x="27.58" y="-231.8" font-family="Times,serif" font-size="14.00">!z</text>
</g>
<!-- 2 -->
<g id="node4" class="node">
<title>2</title>
<ellipse fill="none" stroke="black" cx="20.58" cy="-105" rx="18" ry="18"/>
<text text-anchor="middle" x="20.58" y="-101.3" font-family="Times,serif" font-size="14.00">2</text>
</g>
<!-- 1&#45;&gt;2 -->
<g id="edge3" class="edge">
<title>1&#45;&gt;2</title>
<path fill="none" stroke="black" d="M20.58,-173.8C20.58,-162.16 20.58,-146.55 20.58,-133.24"/>
<polygon fill="black" stroke="black" points="24.08,-133.18 20.58,-123.18 17.08,-133.18 24.08,-133.18"/>
<text text-anchor="middle" x="27.58" y="-144.8" font-family="Times,serif" font-size="14.00">!z</text>
</g>
<!-- 3 -->
<g id="node5" class="node">
<title>3</title>
<ellipse fill="none" stroke="black" cx="20.58" cy="-18" rx="18" ry="18"/>
<text text-anchor="middle" x="20.58" y="-14.3" font-family="Times,serif" font-size="14.00">3</text>
</g>
<!-- 2&#45;&gt;3 -->
<g id="edge4" class="edge">
<title>2&#45;&gt;3</title>
<path fill="none" stroke="black" d="M10.18,-89.84C4.19,-79.98 -1.58,-66.42 1.58,-54 2.58,-50.04 4.13,-46.05 5.93,-42.24"/>
<polygon fill="black" stroke="black" points="9.08,-43.78 10.71,-33.31 2.91,-40.48 9.08,-43.78"/>
<text text-anchor="middle" x="10.08" y="-57.8" font-family="Times,serif" font-size="14.00">?b</text>
</g>
<!-- 3&#45;&gt;2 -->
<g id="edge5" class="edge">
<title>3&#45;&gt;2</title>
<path fill="none" stroke="black" d="M20.58,-36.18C20.58,-47.81 20.58,-63.42 20.58,-76.73"/>
<polygon fill="black" stroke="black" points="17.08,-76.8 20.58,-86.8 24.08,-76.8 17.08,-76.8"/>
<text text-anchor="middle" x="28.08" y="-57.8" font-family="Times,serif" font-size="14.00">!a</text>
</g>
</g>
</svg>
