<?xml version="1.0" encoding="UTF-8" standalone="no"?>
<!DOCTYPE svg PUBLIC "-//W3C//DTD SVG 1.1//EN"
 "http://www.w3.org/Graphics/SVG/1.1/DTD/svg11.dtd">
<!-- Generated by graphviz version 2.43.0 (0)
 -->
<!-- Title: %3 Pages: 1 -->
<svg width="258pt" height="346pt"
 viewBox="0.00 0.00 258.00 345.60" xmlns="http://www.w3.org/2000/svg" xmlns:xlink="http://www.w3.org/1999/xlink">
<g id="graph0" class="graph" transform="scale(1 1) rotate(0) translate(4 341.6)">
<title>%3</title>
<polygon fill="white" stroke="transparent" points="-4,4 -4,-341.6 254,-341.6 254,4 -4,4"/>
<!-- ENTRY -->
<g id="node1" class="node">
<title>ENTRY</title>
<ellipse fill="black" stroke="black" cx="132" cy="-335.8" rx="1.8" ry="1.8"/>
</g>
<!-- 0 -->
<g id="node2" class="node">
<title>0</title>
<ellipse fill="none" stroke="black" cx="132" cy="-279" rx="18" ry="18"/>
<text text-anchor="middle" x="132" y="-275.3" font-family="Times,serif" font-size="14.00">0</text>
</g>
<!-- ENTRY&#45;&gt;0 -->
<g id="edge1" class="edge">
<title>ENTRY&#45;&gt;0</title>
<path fill="none" stroke="black" d="M132,-333.85C132,-330.49 132,-318.73 132,-307.05"/>
<polygon fill="black" stroke="black" points="135.5,-307.02 132,-297.02 128.5,-307.02 135.5,-307.02"/>
</g>
<!-- 1 -->
<g id="node3" class="node">
<title>1</title>
<ellipse fill="none" stroke="black" cx="132" cy="-192" rx="18" ry="18"/>
<text text-anchor="middle" x="132" y="-188.3" font-family="Times,serif" font-size="14.00">1</text>
</g>
<!-- 0&#45;&gt;1 -->
<g id="edge2" class="edge">
<title>0&#45;&gt;1</title>
<path fill="none" stroke="black" d="M132,-260.8C132,-249.16 132,-233.55 132,-220.24"/>
<polygon fill="black" stroke="black" points="135.5,-220.18 132,-210.18 128.5,-220.18 135.5,-220.18"/>
<text text-anchor="middle" x="140" y="-231.8" font-family="Times,serif" font-size="14.00">?x</text>
</g>
<!-- 5 -->
<g id="node4" class="node">
<title>5</title>
<ellipse fill="none" stroke="black" cx="98" cy="-105" rx="18" ry="18"/>
<text text-anchor="middle" x="98" y="-101.3" font-family="Times,serif" font-size="14.00">5</text>
</g>
<!-- 1&#45;&gt;5 -->
<g id="edge3" class="edge">
<title>1&#45;&gt;5</title>
<path fill="none" stroke="black" d="M125.6,-175.01C120.71,-162.78 113.87,-145.68 108.22,-131.56"/>
<polygon fill="black" stroke="black" points="111.33,-129.9 104.37,-121.92 104.83,-132.5 111.33,-129.9"/>
<text text-anchor="middle" x="126" y="-144.8" font-family="Times,serif" font-size="14.00">!b</text>
</g>
<!-- 2 -->
<g id="node7" class="node">
<title>2</title>
<ellipse fill="none" stroke="black" cx="152" cy="-105" rx="18" ry="18"/>
<text text-anchor="middle" x="152" y="-101.3" font-family="Times,serif" font-size="14.00">2</text>
</g>
<!-- 1&#45;&gt;2 -->
<g id="edge8" class="edge">
<title>1&#45;&gt;2</title>
<path fill="none" stroke="black" d="M135.95,-174.21C138.75,-162.33 142.55,-146.17 145.75,-132.56"/>
<polygon fill="black" stroke="black" points="149.17,-133.29 148.06,-122.76 142.36,-131.69 149.17,-133.29"/>
<text text-anchor="middle" x="150.5" y="-144.8" font-family="Times,serif" font-size="14.00">!a</text>
</g>
<!-- 7 -->
<g id="node5" class="node">
<title>7</title>
<ellipse fill="none" stroke="black" cx="18" cy="-18" rx="18" ry="18"/>
<text text-anchor="middle" x="18" y="-14.3" font-family="Times,serif" font-size="14.00">7</text>
</g>
<!-- 5&#45;&gt;7 -->
<g id="edge4" class="edge">
<title>5&#45;&gt;7</title>
<path fill="none" stroke="black" d="M85.85,-91.09C72.85,-77.28 52.07,-55.2 36.92,-39.11"/>
<polygon fill="black" stroke="black" points="39.4,-36.64 30,-31.75 34.31,-41.43 39.4,-36.64"/>
<text text-anchor="middle" x="71" y="-57.8" font-family="Times,serif" font-size="14.00">?z</text>
</g>
<!-- 6 -->
<g id="node6" class="node">
<title>6</title>
<ellipse fill="none" stroke="black" cx="93" cy="-18" rx="18" ry="18"/>
<text text-anchor="middle" x="93" y="-14.3" font-family="Times,serif" font-size="14.00">6</text>
</g>
<!-- 5&#45;&gt;6 -->
<g id="edge6" class="edge">
<title>5&#45;&gt;6</title>
<path fill="none" stroke="black" d="M96.99,-86.8C96.3,-75.16 95.39,-59.55 94.6,-46.24"/>
<polygon fill="black" stroke="black" points="98.09,-45.95 94.01,-36.18 91.1,-46.36 98.09,-45.95"/>
<text text-anchor="middle" x="104" y="-57.8" font-family="Times,serif" font-size="14.00">?y</text>
</g>
<!-- 7&#45;&gt;0 -->
<g id="edge5" class="edge">
<title>7&#45;&gt;0</title>
<path fill="none" stroke="black" d="M20.7,-35.84C25.21,-62.07 35.34,-114.06 51,-156 60.46,-181.33 64.79,-187 79,-210 89.33,-226.71 103,-244.16 113.87,-257.2"/>
<polygon fill="black" stroke="black" points="111.41,-259.71 120.54,-265.08 116.75,-255.19 111.41,-259.71"/>
<text text-anchor="middle" x="59" y="-144.8" font-family="Times,serif" font-size="14.00">?v</text>
</g>
<!-- 6&#45;&gt;0 -->
<g id="edge7" class="edge">
<title>6&#45;&gt;0</title>
<path fill="none" stroke="black" d="M77.22,-27.07C67.41,-33.04 55.62,-42.18 50,-54 47.14,-60.02 48.77,-62.45 50,-69 63.13,-138.98 99.27,-215.51 118.9,-253.61"/>
<polygon fill="black" stroke="black" points="116.01,-255.63 123.74,-262.87 122.21,-252.38 116.01,-255.63"/>
<text text-anchor="middle" x="84.5" y="-144.8" font-family="Times,serif" font-size="14.00">?u</text>
</g>
<!-- 4 -->
<g id="node8" class="node">
<title>4</title>
<ellipse fill="none" stroke="black" cx="157" cy="-18" rx="18" ry="18"/>
<text text-anchor="middle" x="157" y="-14.3" font-family="Times,serif" font-size="14.00">4</text>
</g>
<!-- 2&#45;&gt;4 -->
<g id="edge9" class="edge">
<title>2&#45;&gt;4</title>
<path fill="none" stroke="black" d="M147.73,-87.3C145.8,-77.56 144.3,-65.06 146,-54 146.45,-51.05 147.11,-48.01 147.88,-45"/>
<polygon fill="black" stroke="black" points="151.32,-45.72 150.8,-35.14 144.6,-43.73 151.32,-45.72"/>
<text text-anchor="middle" x="154" y="-57.8" font-family="Times,serif" font-size="14.00">?z</text>
</g>
<!-- 3 -->
<g id="node9" class="node">
<title>3</title>
<ellipse fill="none" stroke="black" cx="232" cy="-18" rx="18" ry="18"/>
<text text-anchor="middle" x="232" y="-14.3" font-family="Times,serif" font-size="14.00">3</text>
</g>
<!-- 2&#45;&gt;3 -->
<g id="edge11" class="edge">
<title>2&#45;&gt;3</title>
<path fill="none" stroke="black" d="M164.15,-91.09C177.15,-77.28 197.93,-55.2 213.08,-39.11"/>
<polygon fill="black" stroke="black" points="215.69,-41.43 220,-31.75 210.6,-36.64 215.69,-41.43"/>
<text text-anchor="middle" x="204" y="-57.8" font-family="Times,serif" font-size="14.00">?y</text>
</g>
<!-- 4&#45;&gt;0 -->
<g id="edge10" class="edge">
<title>4&#45;&gt;0</title>
<path fill="none" stroke="black" d="M173.14,-26.98C183.18,-32.91 195.23,-42.04 201,-54 203.9,-60 201.91,-62.4 201,-69 190.01,-148.59 183.05,-168.9 152,-243 150.4,-246.81 148.48,-250.73 146.46,-254.5"/>
<polygon fill="black" stroke="black" points="143.29,-253 141.4,-263.42 149.38,-256.45 143.29,-253"/>
<text text-anchor="middle" x="196" y="-144.8" font-family="Times,serif" font-size="14.00">?v</text>
</g>
<!-- 3&#45;&gt;0 -->
<g id="edge12" class="edge">
<title>3&#45;&gt;0</title>
<path fill="none" stroke="black" d="M230.19,-36.14C227.16,-62.34 220.15,-113.77 208,-156 200.83,-180.91 196.83,-186.46 186,-210 179.1,-224.99 178.91,-229.81 169,-243 164.5,-248.98 158.93,-254.84 153.49,-259.99"/>
<polygon fill="black" stroke="black" points="150.83,-257.68 145.76,-266.98 155.52,-262.88 150.83,-257.68"/>
<text text-anchor="middle" x="219.5" y="-144.8" font-family="Times,serif" font-size="14.00">?u</text>
</g>
</g>
</svg>
