<?xml version="1.0" encoding="UTF-8" standalone="no"?>
<!DOCTYPE svg PUBLIC "-//W3C//DTD SVG 1.1//EN"
 "http://www.w3.org/Graphics/SVG/1.1/DTD/svg11.dtd">
<!-- Generated by graphviz version 2.43.0 (0)
 -->
<!-- Title: %3 Pages: 1 -->
<svg width="128pt" height="520pt"
 viewBox="0.00 0.00 128.00 519.60" xmlns="http://www.w3.org/2000/svg" xmlns:xlink="http://www.w3.org/1999/xlink">
<g id="graph0" class="graph" transform="scale(1 1) rotate(0) translate(4 515.6)">
<title>%3</title>
<polygon fill="white" stroke="transparent" points="-4,4 -4,-515.6 124,-515.6 124,4 -4,4"/>
<!-- ENTRY -->
<g id="node1" class="node">
<title>ENTRY</title>
<ellipse fill="black" stroke="black" cx="51" cy="-509.8" rx="1.8" ry="1.8"/>
</g>
<!-- 0 -->
<g id="node2" class="node">
<title>0</title>
<ellipse fill="none" stroke="black" cx="51" cy="-453" rx="18" ry="18"/>
<text text-anchor="middle" x="51" y="-449.3" font-family="Times,serif" font-size="14.00">0</text>
</g>
<!-- ENTRY&#45;&gt;0 -->
<g id="edge1" class="edge">
<title>ENTRY&#45;&gt;0</title>
<path fill="none" stroke="black" d="M51,-507.85C51,-504.49 51,-492.73 51,-481.05"/>
<polygon fill="black" stroke="black" points="54.5,-481.02 51,-471.02 47.5,-481.02 54.5,-481.02"/>
</g>
<!-- 1 -->
<g id="node3" class="node">
<title>1</title>
<ellipse fill="none" stroke="black" cx="51" cy="-366" rx="18" ry="18"/>
<text text-anchor="middle" x="51" y="-362.3" font-family="Times,serif" font-size="14.00">1</text>
</g>
<!-- 0&#45;&gt;1 -->
<g id="edge2" class="edge">
<title>0&#45;&gt;1</title>
<path fill="none" stroke="black" d="M51,-434.8C51,-423.16 51,-407.55 51,-394.24"/>
<polygon fill="black" stroke="black" points="54.5,-394.18 51,-384.18 47.5,-394.18 54.5,-394.18"/>
<text text-anchor="middle" x="59" y="-405.8" font-family="Times,serif" font-size="14.00">!b</text>
</g>
<!-- 2 -->
<g id="node4" class="node">
<title>2</title>
<ellipse fill="none" stroke="black" cx="51" cy="-279" rx="18" ry="18"/>
<text text-anchor="middle" x="51" y="-275.3" font-family="Times,serif" font-size="14.00">2</text>
</g>
<!-- 1&#45;&gt;2 -->
<g id="edge3" class="edge">
<title>1&#45;&gt;2</title>
<path fill="none" stroke="black" d="M51,-347.8C51,-336.16 51,-320.55 51,-307.24"/>
<polygon fill="black" stroke="black" points="54.5,-307.18 51,-297.18 47.5,-307.18 54.5,-307.18"/>
<text text-anchor="middle" x="58.5" y="-318.8" font-family="Times,serif" font-size="14.00">!a</text>
</g>
<!-- 3 -->
<g id="node5" class="node">
<title>3</title>
<ellipse fill="none" stroke="black" cx="51" cy="-192" rx="18" ry="18"/>
<text text-anchor="middle" x="51" y="-188.3" font-family="Times,serif" font-size="14.00">3</text>
</g>
<!-- 2&#45;&gt;3 -->
<g id="edge4" class="edge">
<title>2&#45;&gt;3</title>
<path fill="none" stroke="black" d="M51,-260.8C51,-249.16 51,-233.55 51,-220.24"/>
<polygon fill="black" stroke="black" points="54.5,-220.18 51,-210.18 47.5,-220.18 54.5,-220.18"/>
<text text-anchor="middle" x="59" y="-231.8" font-family="Times,serif" font-size="14.00">!b</text>
</g>
<!-- 4 -->
<g id="node6" class="node">
<title>4</title>
<ellipse fill="none" stroke="black" cx="51" cy="-105" rx="18" ry="18"/>
<text text-anchor="middle" x="51" y="-101.3" font-family="Times,serif" font-size="14.00">4</text>
</g>
<!-- 3&#45;&gt;4 -->
<g id="edge5" class="edge">
<title>3&#45;&gt;4</title>
<path fill="none" stroke="black" d="M51,-173.8C51,-162.16 51,-146.55 51,-133.24"/>
<polygon fill="black" stroke="black" points="54.5,-133.18 51,-123.18 47.5,-133.18 54.5,-133.18"/>
<text text-anchor="middle" x="59" y="-144.8" font-family="Times,serif" font-size="14.00">?x</text>
</g>
<!-- 6 -->
<g id="node7" class="node">
<title>6</title>
<ellipse fill="none" stroke="black" cx="21" cy="-18" rx="18" ry="18"/>
<text text-anchor="middle" x="21" y="-14.3" font-family="Times,serif" font-size="14.00">6</text>
</g>
<!-- 4&#45;&gt;6 -->
<g id="edge6" class="edge">
<title>4&#45;&gt;6</title>
<path fill="none" stroke="black" d="M42.71,-88.61C39.69,-82.6 36.43,-75.59 34,-69 31.27,-61.59 28.88,-53.37 26.92,-45.77"/>
<polygon fill="black" stroke="black" points="30.29,-44.81 24.52,-35.92 23.49,-46.47 30.29,-44.81"/>
<text text-anchor="middle" x="42" y="-57.8" font-family="Times,serif" font-size="14.00">?z</text>
</g>
<!-- 5 -->
<g id="node8" class="node">
<title>5</title>
<ellipse fill="none" stroke="black" cx="84" cy="-18" rx="18" ry="18"/>
<text text-anchor="middle" x="84" y="-14.3" font-family="Times,serif" font-size="14.00">5</text>
</g>
<!-- 4&#45;&gt;5 -->
<g id="edge8" class="edge">
<title>4&#45;&gt;5</title>
<path fill="none" stroke="black" d="M57.21,-88.01C61.95,-75.78 68.6,-58.68 74.08,-44.56"/>
<polygon fill="black" stroke="black" points="77.46,-45.51 77.82,-34.92 70.94,-42.97 77.46,-45.51"/>
<text text-anchor="middle" x="77" y="-57.8" font-family="Times,serif" font-size="14.00">?y</text>
</g>
<!-- 6&#45;&gt;0 -->
<g id="edge7" class="edge">
<title>6&#45;&gt;0</title>
<path fill="none" stroke="black" d="M14.59,-35C8.41,-51.88 0,-79.37 0,-104 0,-367 0,-367 0,-367 0,-392.21 16.69,-416.39 30.98,-432.48"/>
<polygon fill="black" stroke="black" points="28.74,-435.21 38.13,-440.11 33.85,-430.42 28.74,-435.21"/>
<text text-anchor="middle" x="8" y="-231.8" font-family="Times,serif" font-size="14.00">?v</text>
</g>
<!-- 5&#45;&gt;0 -->
<g id="edge9" class="edge">
<title>5&#45;&gt;0</title>
<path fill="none" stroke="black" d="M89.8,-35.06C95.39,-51.97 103,-79.5 103,-104 103,-367 103,-367 103,-367 103,-392.34 85.98,-416.51 71.41,-432.55"/>
<polygon fill="black" stroke="black" points="68.51,-430.52 64.12,-440.16 73.57,-435.36 68.51,-430.52"/>
<text text-anchor="middle" x="111.5" y="-231.8" font-family="Times,serif" font-size="14.00">?u</text>
</g>
</g>
</svg>
