<?xml version="1.0" encoding="UTF-8" standalone="no"?>
<!DOCTYPE svg PUBLIC "-//W3C//DTD SVG 1.1//EN"
 "http://www.w3.org/Graphics/SVG/1.1/DTD/svg11.dtd">
<!-- Generated by graphviz version 2.43.0 (0)
 -->
<!-- Title: %3 Pages: 1 -->
<svg width="524pt" height="1019pt"
 viewBox="0.00 0.00 523.79 1019.37" xmlns="http://www.w3.org/2000/svg" xmlns:xlink="http://www.w3.org/1999/xlink">
<g id="graph0" class="graph" transform="scale(1 1) rotate(0) translate(4 1015.37)">
<title>%3</title>
<polygon fill="white" stroke="transparent" points="-4,4 -4,-1015.37 519.79,-1015.37 519.79,4 -4,4"/>
<!-- ENTRY -->
<g id="node1" class="node">
<title>ENTRY</title>
<ellipse fill="black" stroke="black" cx="145.24" cy="-1009.57" rx="1.8" ry="1.8"/>
</g>
<!-- 0 -->
<g id="node8" class="node">
<title>0</title>
<ellipse fill="none" stroke="black" cx="145.24" cy="-914.22" rx="56.59" ry="56.59"/>
<text text-anchor="middle" x="145.24" y="-910.52" font-family="Times,serif" font-size="14.00">0 &lt; Eps.0</text>
</g>
<!-- ENTRY&#45;&gt;0 -->
<g id="edge1" class="edge">
<title>ENTRY&#45;&gt;0</title>
<path fill="none" stroke="black" d="M145.24,-1007.52C145.24,-1004.26 145.24,-993.77 145.24,-980.96"/>
<polygon fill="black" stroke="black" points="148.74,-980.8 145.24,-970.8 141.74,-980.8 148.74,-980.8"/>
</g>
<!-- 4 -->
<g id="node2" class="node">
<title>4</title>
<ellipse fill="none" stroke="black" cx="289.24" cy="-259.55" rx="95.42" ry="95.42"/>
<text text-anchor="middle" x="289.24" y="-270.85" font-family="Times,serif" font-size="14.00">4 &lt; ({x})*.{y}.4</text>
<text text-anchor="middle" x="289.24" y="-255.85" font-family="Times,serif" font-size="14.00">({x})*.{x}.{x}.3</text>
<text text-anchor="middle" x="289.24" y="-240.85" font-family="Times,serif" font-size="14.00">{x}.3</text>
</g>
<!-- 3 -->
<g id="node7" class="node">
<title>3</title>
<ellipse fill="none" stroke="black" cx="328.24" cy="-513.25" rx="95.42" ry="95.42"/>
<text text-anchor="middle" x="328.24" y="-517.05" font-family="Times,serif" font-size="14.00">3 &lt; ({x})*.{y}.4</text>
<text text-anchor="middle" x="328.24" y="-502.05" font-family="Times,serif" font-size="14.00">({x})*.{x}.{x}.3</text>
</g>
<!-- 4&#45;&gt;3 -->
<g id="edge5" class="edge">
<title>4&#45;&gt;3</title>
<path fill="none" stroke="black" d="M303.75,-354.18C306.51,-372.02 309.42,-390.78 312.23,-408.89"/>
<polygon fill="black" stroke="black" points="308.78,-409.54 313.77,-418.88 315.7,-408.47 308.78,-409.54"/>
<text text-anchor="middle" x="317.24" y="-376.81" font-family="Times,serif" font-size="14.00">!b</text>
</g>
<!-- 2 -->
<g id="node3" class="node">
<title>2</title>
<ellipse fill="none" stroke="black" cx="107.24" cy="-513.25" rx="107.48" ry="107.48"/>
<text text-anchor="middle" x="107.24" y="-509.55" font-family="Times,serif" font-size="14.00">2 &lt; ({x})*.{x}.{x}.1</text>
</g>
<!-- 1 -->
<g id="node6" class="node">
<title>1</title>
<ellipse fill="none" stroke="black" cx="145.24" cy="-739.08" rx="67.69" ry="67.69"/>
<text text-anchor="middle" x="145.24" y="-735.38" font-family="Times,serif" font-size="14.00">1 &lt; ({x})*.1</text>
</g>
<!-- 2&#45;&gt;1 -->
<g id="edge8" class="edge">
<title>2&#45;&gt;1</title>
<path fill="none" stroke="black" d="M125.06,-619.19C127.52,-633.7 130.01,-648.37 132.36,-662.22"/>
<polygon fill="black" stroke="black" points="128.92,-662.86 134.04,-672.14 135.82,-661.69 128.92,-662.86"/>
<text text-anchor="middle" x="139.24" y="-642.29" font-family="Times,serif" font-size="14.00">?x</text>
</g>
<!-- 5 -->
<g id="node4" class="node">
<title>5</title>
<ellipse fill="none" stroke="black" cx="459.24" cy="-259.55" rx="56.59" ry="56.59"/>
<text text-anchor="middle" x="459.24" y="-255.85" font-family="Times,serif" font-size="14.00">5 &lt; Eps.4</text>
</g>
<!-- 6 -->
<g id="node5" class="node">
<title>6</title>
<ellipse fill="none" stroke="black" cx="459.24" cy="-56.54" rx="56.59" ry="56.59"/>
<text text-anchor="middle" x="459.24" y="-52.84" font-family="Times,serif" font-size="14.00">6 &lt; Eps.5</text>
</g>
<!-- 5&#45;&gt;6 -->
<g id="edge9" class="edge">
<title>5&#45;&gt;6</title>
<path fill="none" stroke="black" d="M459.24,-202.83C459.24,-178.21 459.24,-149.09 459.24,-123.4"/>
<polygon fill="black" stroke="black" points="462.74,-123.38 459.24,-113.38 455.74,-123.38 462.74,-123.38"/>
<text text-anchor="middle" x="466.74" y="-134.89" font-family="Times,serif" font-size="14.00">!e</text>
</g>
<!-- 1&#45;&gt;2 -->
<g id="edge2" class="edge">
<title>1&#45;&gt;2</title>
<path fill="none" stroke="black" d="M115.51,-678.07C112.53,-669.97 109.98,-661.64 108.24,-653.49 106.68,-646.17 105.49,-638.59 104.59,-630.92"/>
<polygon fill="black" stroke="black" points="108.05,-630.39 103.57,-620.79 101.09,-631.08 108.05,-630.39"/>
<text text-anchor="middle" x="115.74" y="-642.29" font-family="Times,serif" font-size="14.00">!a</text>
</g>
<!-- 1&#45;&gt;3 -->
<g id="edge6" class="edge">
<title>1&#45;&gt;3</title>
<path fill="none" stroke="black" d="M187.68,-686.17C209.59,-659.38 236.82,-626.07 261.46,-595.93"/>
<polygon fill="black" stroke="black" points="264.38,-597.89 268,-587.93 258.96,-593.46 264.38,-597.89"/>
<text text-anchor="middle" x="234.24" y="-642.29" font-family="Times,serif" font-size="14.00">!b</text>
</g>
<!-- 3&#45;&gt;4 -->
<g id="edge7" class="edge">
<title>3&#45;&gt;4</title>
<path fill="none" stroke="black" d="M295.91,-423.14C292.75,-411.46 290.05,-399.54 288.24,-388.01 287.08,-380.64 286.25,-372.99 285.67,-365.28"/>
<polygon fill="black" stroke="black" points="289.15,-364.89 285.05,-355.12 282.17,-365.31 289.15,-364.89"/>
<text text-anchor="middle" x="296.24" y="-376.81" font-family="Times,serif" font-size="14.00">?x</text>
</g>
<!-- 3&#45;&gt;5 -->
<g id="edge3" class="edge">
<title>3&#45;&gt;5</title>
<path fill="none" stroke="black" d="M372.04,-428.09C390.67,-392.29 411.94,-351.43 428.81,-319.02"/>
<polygon fill="black" stroke="black" points="431.93,-320.6 433.44,-310.11 425.72,-317.37 431.93,-320.6"/>
<text text-anchor="middle" x="405.24" y="-376.81" font-family="Times,serif" font-size="14.00">?y</text>
</g>
<!-- 0&#45;&gt;1 -->
<g id="edge4" class="edge">
<title>0&#45;&gt;1</title>
<path fill="none" stroke="black" d="M145.24,-857.49C145.24,-844.65 145.24,-830.77 145.24,-817.2"/>
<polygon fill="black" stroke="black" points="148.74,-816.91 145.24,-806.91 141.74,-816.91 148.74,-816.91"/>
<text text-anchor="middle" x="152.74" y="-828.48" font-family="Times,serif" font-size="14.00">!a</text>
</g>
</g>
</svg>
