<?xml version="1.0" encoding="UTF-8" standalone="no"?>
<!DOCTYPE svg PUBLIC "-//W3C//DTD SVG 1.1//EN"
 "http://www.w3.org/Graphics/SVG/1.1/DTD/svg11.dtd">
<!-- Generated by graphviz version 2.43.0 (0)
 -->
<!-- Title: %3 Pages: 1 -->
<svg width="206pt" height="346pt"
 viewBox="0.00 0.00 205.74 345.60" xmlns="http://www.w3.org/2000/svg" xmlns:xlink="http://www.w3.org/1999/xlink">
<g id="graph0" class="graph" transform="scale(1 1) rotate(0) translate(4 341.6)">
<title>%3</title>
<polygon fill="white" stroke="transparent" points="-4,4 -4,-341.6 201.74,-341.6 201.74,4 -4,4"/>
<!-- ENTRY -->
<g id="node1" class="node">
<title>ENTRY</title>
<ellipse fill="black" stroke="black" cx="102.74" cy="-335.8" rx="1.8" ry="1.8"/>
</g>
<!-- 0 -->
<g id="node2" class="node">
<title>0</title>
<ellipse fill="none" stroke="black" cx="102.74" cy="-279" rx="18" ry="18"/>
<text text-anchor="middle" x="102.74" y="-275.3" font-family="Times,serif" font-size="14.00">0</text>
</g>
<!-- ENTRY&#45;&gt;0 -->
<g id="edge1" class="edge">
<title>ENTRY&#45;&gt;0</title>
<path fill="none" stroke="black" d="M102.74,-333.85C102.74,-330.49 102.74,-318.73 102.74,-307.05"/>
<polygon fill="black" stroke="black" points="106.24,-307.02 102.74,-297.02 99.24,-307.02 106.24,-307.02"/>
</g>
<!-- 4 -->
<g id="node3" class="node">
<title>4</title>
<ellipse fill="none" stroke="black" cx="64.74" cy="-192" rx="18" ry="18"/>
<text text-anchor="middle" x="64.74" y="-188.3" font-family="Times,serif" font-size="14.00">4</text>
</g>
<!-- 0&#45;&gt;4 -->
<g id="edge2" class="edge">
<title>0&#45;&gt;4</title>
<path fill="none" stroke="black" d="M95.6,-262.01C90.04,-249.59 82.24,-232.13 75.87,-217.88"/>
<polygon fill="black" stroke="black" points="79.01,-216.33 71.73,-208.63 72.62,-219.19 79.01,-216.33"/>
<text text-anchor="middle" x="93.24" y="-231.8" font-family="Times,serif" font-size="14.00">!v</text>
</g>
<!-- 1 -->
<g id="node6" class="node">
<title>1</title>
<ellipse fill="none" stroke="black" cx="140.74" cy="-192" rx="18" ry="18"/>
<text text-anchor="middle" x="140.74" y="-188.3" font-family="Times,serif" font-size="14.00">1</text>
</g>
<!-- 0&#45;&gt;1 -->
<g id="edge7" class="edge">
<title>0&#45;&gt;1</title>
<path fill="none" stroke="black" d="M109.89,-262.01C115.45,-249.59 123.25,-232.13 129.62,-217.88"/>
<polygon fill="black" stroke="black" points="132.87,-219.19 133.76,-208.63 126.48,-216.33 132.87,-219.19"/>
<text text-anchor="middle" x="131.74" y="-231.8" font-family="Times,serif" font-size="14.00">!u</text>
</g>
<!-- 5 -->
<g id="node4" class="node">
<title>5</title>
<ellipse fill="none" stroke="black" cx="26.74" cy="-105" rx="18" ry="18"/>
<text text-anchor="middle" x="26.74" y="-101.3" font-family="Times,serif" font-size="14.00">5</text>
</g>
<!-- 4&#45;&gt;5 -->
<g id="edge3" class="edge">
<title>4&#45;&gt;5</title>
<path fill="none" stroke="black" d="M47.34,-186.49C32.56,-181.64 12.28,-172.33 2.74,-156 -2.83,-146.45 1.42,-135.41 7.81,-126.13"/>
<polygon fill="black" stroke="black" points="10.62,-128.22 14.06,-118.2 5.12,-123.89 10.62,-128.22"/>
<text text-anchor="middle" x="14.74" y="-144.8" font-family="Times,serif" font-size="14.00">!a1</text>
</g>
<!-- 5&#45;&gt;4 -->
<g id="edge6" class="edge">
<title>5&#45;&gt;4</title>
<path fill="none" stroke="black" d="M33.73,-121.63C39.24,-133.96 47.04,-151.4 53.44,-165.71"/>
<polygon fill="black" stroke="black" points="50.32,-167.31 57.6,-175.01 56.71,-164.45 50.32,-167.31"/>
<text text-anchor="middle" x="57.24" y="-144.8" font-family="Times,serif" font-size="14.00">?d</text>
</g>
<!-- 6 -->
<g id="node5" class="node">
<title>6</title>
<ellipse fill="none" stroke="black" cx="65.74" cy="-18" rx="18" ry="18"/>
<text text-anchor="middle" x="65.74" y="-14.3" font-family="Times,serif" font-size="14.00">6</text>
</g>
<!-- 5&#45;&gt;6 -->
<g id="edge4" class="edge">
<title>5&#45;&gt;6</title>
<path fill="none" stroke="black" d="M33.9,-88.41C39.58,-76.03 47.64,-58.47 54.22,-44.11"/>
<polygon fill="black" stroke="black" points="57.51,-45.33 58.5,-34.78 51.15,-42.41 57.51,-45.33"/>
<text text-anchor="middle" x="56.74" y="-57.8" font-family="Times,serif" font-size="14.00">?x</text>
</g>
<!-- 6&#45;&gt;4 -->
<g id="edge5" class="edge">
<title>6&#45;&gt;4</title>
<path fill="none" stroke="black" d="M66.33,-36.09C66.5,-41.78 66.66,-48.16 66.74,-54 67.39,-99.33 68.04,-110.69 66.74,-156 66.67,-158.56 66.57,-161.21 66.45,-163.87"/>
<polygon fill="black" stroke="black" points="62.95,-163.75 65.92,-173.92 69.94,-164.12 62.95,-163.75"/>
<text text-anchor="middle" x="78.74" y="-101.3" font-family="Times,serif" font-size="14.00">!a2</text>
</g>
<!-- 2 -->
<g id="node7" class="node">
<title>2</title>
<ellipse fill="none" stroke="black" cx="140.74" cy="-105" rx="18" ry="18"/>
<text text-anchor="middle" x="140.74" y="-101.3" font-family="Times,serif" font-size="14.00">2</text>
</g>
<!-- 1&#45;&gt;2 -->
<g id="edge8" class="edge">
<title>1&#45;&gt;2</title>
<path fill="none" stroke="black" d="M140.74,-173.8C140.74,-162.16 140.74,-146.55 140.74,-133.24"/>
<polygon fill="black" stroke="black" points="144.24,-133.18 140.74,-123.18 137.24,-133.18 144.24,-133.18"/>
<text text-anchor="middle" x="148.24" y="-144.8" font-family="Times,serif" font-size="14.00">!a</text>
</g>
<!-- 3 -->
<g id="node8" class="node">
<title>3</title>
<ellipse fill="none" stroke="black" cx="179.74" cy="-18" rx="18" ry="18"/>
<text text-anchor="middle" x="179.74" y="-14.3" font-family="Times,serif" font-size="14.00">3</text>
</g>
<!-- 2&#45;&gt;3 -->
<g id="edge9" class="edge">
<title>2&#45;&gt;3</title>
<path fill="none" stroke="black" d="M147.9,-88.41C153.58,-76.03 161.64,-58.47 168.22,-44.11"/>
<polygon fill="black" stroke="black" points="171.51,-45.33 172.5,-34.78 165.15,-42.41 171.51,-45.33"/>
<text text-anchor="middle" x="169.24" y="-57.8" font-family="Times,serif" font-size="14.00">!a</text>
</g>
<!-- 3&#45;&gt;1 -->
<g id="edge10" class="edge">
<title>3&#45;&gt;1</title>
<path fill="none" stroke="black" d="M180.33,-36.09C180.5,-41.78 180.66,-48.16 180.74,-54 180.84,-60.67 181.53,-62.38 180.74,-69 179.25,-81.6 162.56,-148.7 159.74,-156 158.28,-159.81 156.47,-163.73 154.57,-167.5"/>
<polygon fill="black" stroke="black" points="151.42,-165.96 149.76,-176.42 157.59,-169.28 151.42,-165.96"/>
<text text-anchor="middle" x="185.24" y="-101.3" font-family="Times,serif" font-size="14.00">?b</text>
</g>
</g>
</svg>
