<?xml version="1.0" encoding="UTF-8" standalone="no"?>
<!DOCTYPE svg PUBLIC "-//W3C//DTD SVG 1.1//EN"
 "http://www.w3.org/Graphics/SVG/1.1/DTD/svg11.dtd">
<!-- Generated by graphviz version 2.43.0 (0)
 -->
<!-- Title: %3 Pages: 1 -->
<svg width="2280pt" height="2432pt"
 viewBox="0.00 0.00 2280.01 2431.81" xmlns="http://www.w3.org/2000/svg" xmlns:xlink="http://www.w3.org/1999/xlink">
<g id="graph0" class="graph" transform="scale(1 1) rotate(0) translate(4 2427.81)">
<title>%3</title>
<polygon fill="white" stroke="transparent" points="-4,4 -4,-2427.81 2276.01,-2427.81 2276.01,4 -4,4"/>
<!-- ENTRY -->
<g id="node1" class="node">
<title>ENTRY</title>
<ellipse fill="black" stroke="black" cx="672.58" cy="-2422.01" rx="1.8" ry="1.8"/>
</g>
<!-- 0 -->
<g id="node4" class="node">
<title>0</title>
<ellipse fill="none" stroke="black" cx="672.58" cy="-2307.17" rx="76.09" ry="76.09"/>
<text text-anchor="middle" x="672.58" y="-2303.47" font-family="Times,serif" font-size="14.00">0 &lt; ({a,b})*.0</text>
</g>
<!-- ENTRY&#45;&gt;0 -->
<g id="edge1" class="edge">
<title>ENTRY&#45;&gt;0</title>
<path fill="none" stroke="black" d="M672.58,-2419.75C672.58,-2416.33 672.58,-2406.33 672.58,-2393.63"/>
<polygon fill="black" stroke="black" points="676.08,-2393.46 672.58,-2383.46 669.08,-2393.46 676.08,-2393.46"/>
</g>
<!-- 3 -->
<g id="node2" class="node">
<title>3</title>
<ellipse fill="none" stroke="black" cx="906.58" cy="-1726.78" rx="236.76" ry="236.76"/>
<text text-anchor="middle" x="906.58" y="-1730.58" font-family="Times,serif" font-size="14.00">3 &lt; ({a,b})*.{a}.{b}.{a}.{b}.{a}.{a}.{b}.0</text>
<text text-anchor="middle" x="906.58" y="-1715.58" font-family="Times,serif" font-size="14.00">{b}.{a}.{b}.{a}.{a}.{b}.0</text>
</g>
<!-- 7 -->
<g id="node5" class="node">
<title>7</title>
<ellipse fill="none" stroke="black" cx="414.58" cy="-1096.38" rx="197.66" ry="197.66"/>
<text text-anchor="middle" x="414.58" y="-1092.68" font-family="Times,serif" font-size="14.00">7 &lt; ({a,b})*.{b}.{a}.{b}.{a}.{a}.{b}.0</text>
</g>
<!-- 3&#45;&gt;7 -->
<g id="edge3" class="edge">
<title>3&#45;&gt;7</title>
<path fill="none" stroke="black" d="M760.96,-1539.79C691.51,-1451.09 609.18,-1345.93 542.21,-1260.39"/>
<polygon fill="black" stroke="black" points="544.9,-1258.16 535.98,-1252.44 539.39,-1262.47 544.9,-1258.16"/>
<text text-anchor="middle" x="713.58" y="-1460.7" font-family="Times,serif" font-size="14.00">?a</text>
</g>
<!-- 4 -->
<g id="node9" class="node">
<title>4</title>
<ellipse fill="none" stroke="black" cx="1550.58" cy="-1096.38" rx="342.54" ry="342.54"/>
<text text-anchor="middle" x="1550.58" y="-1092.68" font-family="Times,serif" font-size="14.00">4 &lt; ({b,a})*.{a}.({a})*.{b}.{a}.({b})*.{a}.({a})*.{b}.({a}.{a}.{b})*.0</text>
</g>
<!-- 3&#45;&gt;4 -->
<g id="edge7" class="edge">
<title>3&#45;&gt;4</title>
<path fill="none" stroke="black" d="M1075.79,-1560.68C1143.93,-1494.19 1223.96,-1416.1 1298.69,-1343.17"/>
<polygon fill="black" stroke="black" points="1301.19,-1345.62 1305.9,-1336.13 1296.3,-1340.61 1301.19,-1345.62"/>
<text text-anchor="middle" x="1179.08" y="-1460.7" font-family="Times,serif" font-size="14.00">?b</text>
</g>
<!-- 1 -->
<g id="node3" class="node">
<title>1</title>
<ellipse fill="none" stroke="black" cx="84.58" cy="-2097.4" rx="76.09" ry="76.09"/>
<text text-anchor="middle" x="84.58" y="-2093.7" font-family="Times,serif" font-size="14.00">1 &lt; ({a,b})*.0</text>
</g>
<!-- 1&#45;&gt;0 -->
<g id="edge13" class="edge">
<title>1&#45;&gt;0</title>
<path fill="none" stroke="black" d="M116.35,-2166.52C127.65,-2184.18 142.03,-2201.49 159.58,-2213.13 228.34,-2258.73 459.35,-2286.57 586.63,-2298.82"/>
<polygon fill="black" stroke="black" points="586.45,-2302.32 596.74,-2299.78 587.12,-2295.35 586.45,-2302.32"/>
<text text-anchor="middle" x="167.08" y="-2201.93" font-family="Times,serif" font-size="14.00">!x</text>
</g>
<!-- 0&#45;&gt;1 -->
<g id="edge17" class="edge">
<title>0&#45;&gt;1</title>
<path fill="none" stroke="black" d="M596.55,-2302.89C462.46,-2295.58 191.47,-2273.58 121.58,-2213.13 111.96,-2204.81 104.83,-2193.98 99.54,-2182.29"/>
<polygon fill="black" stroke="black" points="102.68,-2180.72 95.68,-2172.77 96.19,-2183.35 102.68,-2180.72"/>
<text text-anchor="middle" x="130.08" y="-2201.93" font-family="Times,serif" font-size="14.00">?b</text>
</g>
<!-- 2 -->
<g id="node8" class="node">
<title>2</title>
<ellipse fill="none" stroke="black" cx="747.58" cy="-2097.4" rx="82.96" ry="82.96"/>
<text text-anchor="middle" x="747.58" y="-2101.2" font-family="Times,serif" font-size="14.00">2 &lt; ({a,b})*.0</text>
<text text-anchor="middle" x="747.58" y="-2086.2" font-family="Times,serif" font-size="14.00">Eps.1</text>
</g>
<!-- 0&#45;&gt;2 -->
<g id="edge5" class="edge">
<title>0&#45;&gt;2</title>
<path fill="none" stroke="black" d="M682.31,-2231.5C684.76,-2220.15 687.8,-2208.71 691.58,-2198.13 694.04,-2191.25 696.94,-2184.29 700.12,-2177.41"/>
<polygon fill="black" stroke="black" points="703.42,-2178.63 704.6,-2168.1 697.11,-2175.59 703.42,-2178.63"/>
<text text-anchor="middle" x="699.58" y="-2201.93" font-family="Times,serif" font-size="14.00">?a</text>
</g>
<!-- 8 -->
<g id="node7" class="node">
<title>8</title>
<ellipse fill="none" stroke="black" cx="197.58" cy="-351.43" rx="197.66" ry="197.66"/>
<text text-anchor="middle" x="197.58" y="-347.73" font-family="Times,serif" font-size="14.00">8 &lt; ({a,b})*.{b}.{a}.{b}.{a}.{a}.{b}.0</text>
</g>
<!-- 7&#45;&gt;8 -->
<g id="edge19" class="edge">
<title>7&#45;&gt;8</title>
<path fill="none" stroke="black" d="M374.85,-902.79C361.53,-844.02 345.67,-779.47 328.58,-720.86 311.88,-663.57 291.2,-602.17 271.24,-546.25"/>
<polygon fill="black" stroke="black" points="274.45,-544.84 267.79,-536.6 267.86,-547.2 274.45,-544.84"/>
<text text-anchor="middle" x="339.58" y="-724.66" font-family="Times,serif" font-size="14.00">?a</text>
</g>
<!-- 9 -->
<g id="node11" class="node">
<title>9</title>
<ellipse fill="none" stroke="black" cx="628.58" cy="-351.43" rx="214.92" ry="214.92"/>
<text text-anchor="middle" x="628.58" y="-355.23" font-family="Times,serif" font-size="14.00">9 &lt; ({a,b})*.{b}.{a}.{b}.{a}.{a}.{b}.0</text>
<text text-anchor="middle" x="628.58" y="-340.23" font-family="Times,serif" font-size="14.00">{a}.{b}.{a}.{a}.{b}.0</text>
</g>
<!-- 7&#45;&gt;9 -->
<g id="edge20" class="edge">
<title>7&#45;&gt;9</title>
<path fill="none" stroke="black" d="M452.61,-902.26C465.43,-843.62 480.8,-779.27 497.58,-720.86 512.5,-668.96 530.79,-613.74 548.93,-562.27"/>
<polygon fill="black" stroke="black" points="552.28,-563.3 552.31,-552.71 545.68,-560.97 552.28,-563.3"/>
<text text-anchor="middle" x="506.08" y="-724.66" font-family="Times,serif" font-size="14.00">?b</text>
</g>
<!-- 6 -->
<g id="node6" class="node">
<title>6</title>
<ellipse fill="none" stroke="black" cx="1208.58" cy="-351.43" rx="342.54" ry="342.54"/>
<text text-anchor="middle" x="1208.58" y="-347.73" font-family="Times,serif" font-size="14.00">6 &lt; ({b,a})*.{a}.({a})*.{b}.{a}.({b})*.{a}.({a})*.{b}.({a}.{a}.{b})*.0</text>
</g>
<!-- 6&#45;&gt;0 -->
<g id="edge2" class="edge">
<title>6&#45;&gt;0</title>
<path fill="none" stroke="black" d="M1189.68,-693.53C1184.16,-819.74 1179.58,-964.04 1179.58,-1095.38 1179.58,-2098.4 1179.58,-2098.4 1179.58,-2098.4 1179.58,-2188.56 901.55,-2259.13 757.27,-2289.68"/>
<polygon fill="black" stroke="black" points="756.19,-2286.33 747.12,-2291.81 757.63,-2293.18 756.19,-2286.33"/>
<text text-anchor="middle" x="1187.08" y="-1723.08" font-family="Times,serif" font-size="14.00">!x</text>
</g>
<!-- 6&#45;&gt;4 -->
<g id="edge16" class="edge">
<title>6&#45;&gt;4</title>
<path fill="none" stroke="black" d="M1351.44,-662.77C1368.57,-699.99 1386.09,-738.05 1403.29,-775.4"/>
<polygon fill="black" stroke="black" points="1400.29,-777.26 1407.65,-784.88 1406.65,-774.33 1400.29,-777.26"/>
<text text-anchor="middle" x="1392.08" y="-724.66" font-family="Times,serif" font-size="14.00">!y</text>
</g>
<!-- 8&#45;&gt;0 -->
<g id="edge9" class="edge">
<title>8&#45;&gt;0</title>
<path fill="none" stroke="black" d="M193.9,-549.13C191.42,-698.88 188.58,-910.12 188.58,-1095.38 188.58,-2098.4 188.58,-2098.4 188.58,-2098.4 188.58,-2269.46 447.03,-2301.46 586.21,-2306.3"/>
<polygon fill="black" stroke="black" points="586.32,-2309.8 596.43,-2306.61 586.54,-2302.81 586.32,-2309.8"/>
<text text-anchor="middle" x="196.08" y="-1723.08" font-family="Times,serif" font-size="14.00">!y</text>
</g>
<!-- 8&#45;&gt;7 -->
<g id="edge14" class="edge">
<title>8&#45;&gt;7</title>
<path fill="none" stroke="black" d="M252.78,-541.4C284.5,-650.02 324.31,-786.33 356.51,-896.56"/>
<polygon fill="black" stroke="black" points="353.24,-897.85 359.4,-906.46 359.96,-895.88 353.24,-897.85"/>
<text text-anchor="middle" x="317.08" y="-724.66" font-family="Times,serif" font-size="14.00">!x</text>
</g>
<!-- 2&#45;&gt;3 -->
<g id="edge15" class="edge">
<title>2&#45;&gt;3</title>
<path fill="none" stroke="black" d="M780.14,-2020.91C788.84,-2000.74 798.71,-1977.86 809.01,-1953.99"/>
<polygon fill="black" stroke="black" points="812.23,-1955.37 812.97,-1944.8 805.8,-1952.59 812.23,-1955.37"/>
<text text-anchor="middle" x="802.08" y="-1985.46" font-family="Times,serif" font-size="14.00">!y</text>
</g>
<!-- 2&#45;&gt;0 -->
<g id="edge10" class="edge">
<title>2&#45;&gt;0</title>
<path fill="none" stroke="black" d="M720.84,-2175.94C716.46,-2188.39 711.93,-2201.13 707.58,-2213.13 706.04,-2217.4 704.44,-2221.77 702.81,-2226.18"/>
<polygon fill="black" stroke="black" points="699.42,-2225.28 699.23,-2235.88 705.98,-2227.71 699.42,-2225.28"/>
<text text-anchor="middle" x="720.08" y="-2201.93" font-family="Times,serif" font-size="14.00">!x</text>
</g>
<!-- 4&#45;&gt;6 -->
<g id="edge18" class="edge">
<title>4&#45;&gt;6</title>
<path fill="none" stroke="black" d="M1428.11,-776.12C1420.02,-757.33 1411.82,-738.8 1403.58,-720.86 1394.74,-701.61 1385.38,-681.95 1375.72,-662.22"/>
<polygon fill="black" stroke="black" points="1378.82,-660.58 1371.26,-653.15 1372.53,-663.67 1378.82,-660.58"/>
<text text-anchor="middle" x="1416.08" y="-724.66" font-family="Times,serif" font-size="14.00">?b</text>
</g>
<!-- 5 -->
<g id="node10" class="node">
<title>5</title>
<ellipse fill="none" stroke="black" cx="1920.58" cy="-351.43" rx="351.36" ry="351.36"/>
<text text-anchor="middle" x="1920.58" y="-355.23" font-family="Times,serif" font-size="14.00">5 &lt; ({a})*.{b}.{a}.({b})*.{a}.({a})*.{b}.({a}.{a}.{b})*.0</text>
<text text-anchor="middle" x="1920.58" y="-340.23" font-family="Times,serif" font-size="14.00">({b,a})*.{a}.({a})*.{b}.{a}.({b})*.{a}.({a})*.{b}.({a}.{a}.{b})*.0</text>
</g>
<!-- 4&#45;&gt;5 -->
<g id="edge12" class="edge">
<title>4&#45;&gt;5</title>
<path fill="none" stroke="black" d="M1681.51,-779.47C1690.76,-759.52 1700.16,-739.85 1709.58,-720.86 1718.81,-702.27 1728.57,-683.31 1738.62,-664.28"/>
<polygon fill="black" stroke="black" points="1741.82,-665.71 1743.41,-655.24 1735.64,-662.43 1741.82,-665.71"/>
<text text-anchor="middle" x="1717.58" y="-724.66" font-family="Times,serif" font-size="14.00">?a</text>
</g>
<!-- 5&#45;&gt;0 -->
<g id="edge8" class="edge">
<title>5&#45;&gt;0</title>
<path fill="none" stroke="black" d="M1921.25,-702.97C1921.43,-826.94 1921.58,-967.37 1921.58,-1095.38 1921.58,-2098.4 1921.58,-2098.4 1921.58,-2098.4 1921.58,-2216.46 1041.89,-2282.7 759.04,-2300.94"/>
<polygon fill="black" stroke="black" points="758.59,-2297.46 748.83,-2301.6 759.04,-2304.45 758.59,-2297.46"/>
<text text-anchor="middle" x="1929.08" y="-1723.08" font-family="Times,serif" font-size="14.00">!y</text>
</g>
<!-- 5&#45;&gt;4 -->
<g id="edge6" class="edge">
<title>5&#45;&gt;4</title>
<path fill="none" stroke="black" d="M1764.2,-666.44C1745.42,-704.15 1726.24,-742.67 1707.45,-780.39"/>
<polygon fill="black" stroke="black" points="1704.27,-778.93 1702.94,-789.44 1710.54,-782.05 1704.27,-778.93"/>
<text text-anchor="middle" x="1743.08" y="-724.66" font-family="Times,serif" font-size="14.00">!x</text>
</g>
<!-- 9&#45;&gt;0 -->
<g id="edge4" class="edge">
<title>9&#45;&gt;0</title>
<path fill="none" stroke="black" d="M628.42,-566.52C628.73,-875.23 631.39,-1463.3 645.58,-1963.66 648.31,-2059.93 646.92,-2084.21 655.58,-2180.13 656.8,-2193.58 658.4,-2207.79 660.14,-2221.64"/>
<polygon fill="black" stroke="black" points="656.68,-2222.17 661.43,-2231.65 663.62,-2221.28 656.68,-2222.17"/>
<text text-anchor="middle" x="653.08" y="-1723.08" font-family="Times,serif" font-size="14.00">!x</text>
</g>
<!-- 9&#45;&gt;7 -->
<g id="edge11" class="edge">
<title>9&#45;&gt;7</title>
<path fill="none" stroke="black" d="M569.33,-558.13C538.93,-663.67 502.06,-791.67 471.94,-896.26"/>
<polygon fill="black" stroke="black" points="468.54,-895.41 469.14,-905.98 475.27,-897.34 468.54,-895.41"/>
<text text-anchor="middle" x="529.08" y="-724.66" font-family="Times,serif" font-size="14.00">!y</text>
</g>
</g>
</svg>
