<?xml version="1.0" encoding="UTF-8" standalone="no"?>
<!DOCTYPE svg PUBLIC "-//W3C//DTD SVG 1.1//EN"
 "http://www.w3.org/Graphics/SVG/1.1/DTD/svg11.dtd">
<!-- Generated by graphviz version 2.43.0 (0)
 -->
<!-- Title: %3 Pages: 1 -->
<svg width="491pt" height="433pt"
 viewBox="0.00 0.00 491.00 432.60" xmlns="http://www.w3.org/2000/svg" xmlns:xlink="http://www.w3.org/1999/xlink">
<g id="graph0" class="graph" transform="scale(1 1) rotate(0) translate(4 428.6)">
<title>%3</title>
<polygon fill="white" stroke="transparent" points="-4,4 -4,-428.6 487,-428.6 487,4 -4,4"/>
<!-- ENTRY -->
<g id="node1" class="node">
<title>ENTRY</title>
<ellipse fill="black" stroke="black" cx="270" cy="-422.8" rx="1.8" ry="1.8"/>
</g>
<!-- 0 -->
<g id="node2" class="node">
<title>0</title>
<ellipse fill="none" stroke="black" cx="270" cy="-366" rx="18" ry="18"/>
<text text-anchor="middle" x="270" y="-362.3" font-family="Times,serif" font-size="14.00">0</text>
</g>
<!-- ENTRY&#45;&gt;0 -->
<g id="edge1" class="edge">
<title>ENTRY&#45;&gt;0</title>
<path fill="none" stroke="black" d="M270,-420.85C270,-417.49 270,-405.73 270,-394.05"/>
<polygon fill="black" stroke="black" points="273.5,-394.02 270,-384.02 266.5,-394.02 273.5,-394.02"/>
</g>
<!-- 2 -->
<g id="node3" class="node">
<title>2</title>
<ellipse fill="none" stroke="black" cx="231" cy="-279" rx="18" ry="18"/>
<text text-anchor="middle" x="231" y="-275.3" font-family="Times,serif" font-size="14.00">2</text>
</g>
<!-- 0&#45;&gt;2 -->
<g id="edge2" class="edge">
<title>0&#45;&gt;2</title>
<path fill="none" stroke="black" d="M253.28,-359.02C240.79,-353.57 224.63,-344.18 217,-330 212.66,-321.93 213.97,-312.37 217.14,-303.79"/>
<polygon fill="black" stroke="black" points="220.35,-305.2 221.3,-294.65 213.97,-302.3 220.35,-305.2"/>
<text text-anchor="middle" x="225" y="-318.8" font-family="Times,serif" font-size="14.00">?a</text>
</g>
<!-- 1 -->
<g id="node11" class="node">
<title>1</title>
<ellipse fill="none" stroke="black" cx="465" cy="-279" rx="18" ry="18"/>
<text text-anchor="middle" x="465" y="-275.3" font-family="Times,serif" font-size="14.00">1</text>
</g>
<!-- 0&#45;&gt;1 -->
<g id="edge19" class="edge">
<title>0&#45;&gt;1</title>
<path fill="none" stroke="black" d="M287.93,-363.98C316.87,-361.65 374.88,-354.11 417,-330 429.08,-323.09 440.04,-312.22 448.42,-302.38"/>
<polygon fill="black" stroke="black" points="451.26,-304.44 454.83,-294.47 445.82,-300.03 451.26,-304.44"/>
<text text-anchor="middle" x="444.5" y="-318.8" font-family="Times,serif" font-size="14.00">?b</text>
</g>
<!-- 2&#45;&gt;0 -->
<g id="edge18" class="edge">
<title>2&#45;&gt;0</title>
<path fill="none" stroke="black" d="M238.24,-295.78C243.95,-308.21 252.01,-325.79 258.58,-340.11"/>
<polygon fill="black" stroke="black" points="255.5,-341.78 262.85,-349.41 261.86,-338.86 255.5,-341.78"/>
<text text-anchor="middle" x="259.5" y="-318.8" font-family="Times,serif" font-size="14.00">!x</text>
</g>
<!-- 3 -->
<g id="node4" class="node">
<title>3</title>
<ellipse fill="none" stroke="black" cx="231" cy="-192" rx="18" ry="18"/>
<text text-anchor="middle" x="231" y="-188.3" font-family="Times,serif" font-size="14.00">3</text>
</g>
<!-- 2&#45;&gt;3 -->
<g id="edge3" class="edge">
<title>2&#45;&gt;3</title>
<path fill="none" stroke="black" d="M231,-260.8C231,-249.16 231,-233.55 231,-220.24"/>
<polygon fill="black" stroke="black" points="234.5,-220.18 231,-210.18 227.5,-220.18 234.5,-220.18"/>
<text text-anchor="middle" x="238.5" y="-231.8" font-family="Times,serif" font-size="14.00">!y</text>
</g>
<!-- 7 -->
<g id="node5" class="node">
<title>7</title>
<ellipse fill="none" stroke="black" cx="111" cy="-105" rx="18" ry="18"/>
<text text-anchor="middle" x="111" y="-101.3" font-family="Times,serif" font-size="14.00">7</text>
</g>
<!-- 3&#45;&gt;7 -->
<g id="edge4" class="edge">
<title>3&#45;&gt;7</title>
<path fill="none" stroke="black" d="M216.76,-180.92C196.19,-166.35 157.96,-139.26 133.53,-121.96"/>
<polygon fill="black" stroke="black" points="135.4,-119 125.22,-116.07 131.36,-124.71 135.4,-119"/>
<text text-anchor="middle" x="187" y="-144.8" font-family="Times,serif" font-size="14.00">?a</text>
</g>
<!-- 4 -->
<g id="node8" class="node">
<title>4</title>
<ellipse fill="none" stroke="black" cx="297" cy="-105" rx="18" ry="18"/>
<text text-anchor="middle" x="297" y="-101.3" font-family="Times,serif" font-size="14.00">4</text>
</g>
<!-- 3&#45;&gt;4 -->
<g id="edge11" class="edge">
<title>3&#45;&gt;4</title>
<path fill="none" stroke="black" d="M241.6,-177.34C252,-163.96 268,-143.35 280.14,-127.72"/>
<polygon fill="black" stroke="black" points="283.05,-129.67 286.42,-119.62 277.52,-125.37 283.05,-129.67"/>
<text text-anchor="middle" x="275.5" y="-144.8" font-family="Times,serif" font-size="14.00">?b</text>
</g>
<!-- 9 -->
<g id="node6" class="node">
<title>9</title>
<ellipse fill="none" stroke="black" cx="33" cy="-18" rx="18" ry="18"/>
<text text-anchor="middle" x="33" y="-14.3" font-family="Times,serif" font-size="14.00">9</text>
</g>
<!-- 7&#45;&gt;9 -->
<g id="edge5" class="edge">
<title>7&#45;&gt;9</title>
<path fill="none" stroke="black" d="M93.11,-101.41C74.78,-97.72 47.16,-88.99 34,-69 29.55,-62.24 28.21,-53.78 28.3,-45.75"/>
<polygon fill="black" stroke="black" points="31.8,-45.87 29.11,-35.62 24.83,-45.31 31.8,-45.87"/>
<text text-anchor="middle" x="42.5" y="-57.8" font-family="Times,serif" font-size="14.00">?b</text>
</g>
<!-- 8 -->
<g id="node7" class="node">
<title>8</title>
<ellipse fill="none" stroke="black" cx="149" cy="-18" rx="18" ry="18"/>
<text text-anchor="middle" x="149" y="-14.3" font-family="Times,serif" font-size="14.00">8</text>
</g>
<!-- 7&#45;&gt;8 -->
<g id="edge8" class="edge">
<title>7&#45;&gt;8</title>
<path fill="none" stroke="black" d="M118.22,-88.34C120.98,-82.3 124.16,-75.34 127,-69 130.64,-60.88 134.57,-51.99 138.09,-43.99"/>
<polygon fill="black" stroke="black" points="141.31,-45.35 142.12,-34.79 134.9,-42.54 141.31,-45.35"/>
<text text-anchor="middle" x="142" y="-57.8" font-family="Times,serif" font-size="14.00">?a</text>
</g>
<!-- 9&#45;&gt;0 -->
<g id="edge6" class="edge">
<title>9&#45;&gt;0</title>
<path fill="none" stroke="black" d="M23.63,-33.39C13.88,-49.78 0,-77.72 0,-104 0,-280 0,-280 0,-280 0,-330.26 172.39,-354.47 241.67,-362.17"/>
<polygon fill="black" stroke="black" points="241.55,-365.68 251.87,-363.27 242.3,-358.72 241.55,-365.68"/>
<text text-anchor="middle" x="7.5" y="-188.3" font-family="Times,serif" font-size="14.00">!x</text>
</g>
<!-- 9&#45;&gt;7 -->
<g id="edge7" class="edge">
<title>9&#45;&gt;7</title>
<path fill="none" stroke="black" d="M44.7,-31.75C57.32,-45.5 77.57,-67.57 92.38,-83.71"/>
<polygon fill="black" stroke="black" points="89.81,-86.09 99.15,-91.09 94.97,-81.36 89.81,-86.09"/>
<text text-anchor="middle" x="84.5" y="-57.8" font-family="Times,serif" font-size="14.00">!y</text>
</g>
<!-- 8&#45;&gt;0 -->
<g id="edge9" class="edge">
<title>8&#45;&gt;0</title>
<path fill="none" stroke="black" d="M157.97,-33.76C167.12,-50.26 180,-78.08 180,-104 180,-280 180,-280 180,-280 180,-315.6 217.69,-340.72 244.28,-354.02"/>
<polygon fill="black" stroke="black" points="242.96,-357.26 253.49,-358.38 245.95,-350.93 242.96,-357.26"/>
<text text-anchor="middle" x="187.5" y="-188.3" font-family="Times,serif" font-size="14.00">!y</text>
</g>
<!-- 8&#45;&gt;7 -->
<g id="edge10" class="edge">
<title>8&#45;&gt;7</title>
<path fill="none" stroke="black" d="M133.52,-27.51C124.24,-33.56 113.25,-42.61 108,-54 104.7,-61.17 104.11,-69.54 104.73,-77.35"/>
<polygon fill="black" stroke="black" points="101.3,-78.11 106.19,-87.51 108.23,-77.11 101.3,-78.11"/>
<text text-anchor="middle" x="115.5" y="-57.8" font-family="Times,serif" font-size="14.00">!x</text>
</g>
<!-- 6 -->
<g id="node9" class="node">
<title>6</title>
<ellipse fill="none" stroke="black" cx="374" cy="-18" rx="18" ry="18"/>
<text text-anchor="middle" x="374" y="-14.3" font-family="Times,serif" font-size="14.00">6</text>
</g>
<!-- 4&#45;&gt;6 -->
<g id="edge12" class="edge">
<title>4&#45;&gt;6</title>
<path fill="none" stroke="black" d="M313.28,-96.87C325.31,-90.9 341.39,-81.37 352,-69 357.88,-62.14 362.44,-53.47 365.83,-45.27"/>
<polygon fill="black" stroke="black" points="369.2,-46.27 369.41,-35.67 362.64,-43.82 369.2,-46.27"/>
<text text-anchor="middle" x="369.5" y="-57.8" font-family="Times,serif" font-size="14.00">?b</text>
</g>
<!-- 5 -->
<g id="node10" class="node">
<title>5</title>
<ellipse fill="none" stroke="black" cx="259" cy="-18" rx="18" ry="18"/>
<text text-anchor="middle" x="259" y="-14.3" font-family="Times,serif" font-size="14.00">5</text>
</g>
<!-- 4&#45;&gt;5 -->
<g id="edge15" class="edge">
<title>4&#45;&gt;5</title>
<path fill="none" stroke="black" d="M290.12,-88.21C285.81,-78.36 280.12,-65.42 275,-54 273.53,-50.73 271.98,-47.3 270.44,-43.91"/>
<polygon fill="black" stroke="black" points="273.55,-42.3 266.22,-34.66 267.19,-45.21 273.55,-42.3"/>
<text text-anchor="middle" x="289" y="-57.8" font-family="Times,serif" font-size="14.00">?a</text>
</g>
<!-- 6&#45;&gt;0 -->
<g id="edge13" class="edge">
<title>6&#45;&gt;0</title>
<path fill="none" stroke="black" d="M383.26,-33.72C392.71,-50.19 406,-77.98 406,-104 406,-280 406,-280 406,-280 406,-330.61 337.44,-352.2 297.68,-360.47"/>
<polygon fill="black" stroke="black" points="296.94,-357.05 287.78,-362.38 298.26,-363.92 296.94,-357.05"/>
<text text-anchor="middle" x="413.5" y="-188.3" font-family="Times,serif" font-size="14.00">!x</text>
</g>
<!-- 6&#45;&gt;4 -->
<g id="edge14" class="edge">
<title>6&#45;&gt;4</title>
<path fill="none" stroke="black" d="M359.97,-29.58C351.68,-36.16 341.24,-45.05 333,-54 325.39,-62.26 317.97,-72.16 311.86,-80.96"/>
<polygon fill="black" stroke="black" points="308.93,-79.05 306.23,-89.29 314.73,-82.97 308.93,-79.05"/>
<text text-anchor="middle" x="340.5" y="-57.8" font-family="Times,serif" font-size="14.00">!y</text>
</g>
<!-- 5&#45;&gt;0 -->
<g id="edge16" class="edge">
<title>5&#45;&gt;0</title>
<path fill="none" stroke="black" d="M252.8,-35.14C250.86,-40.99 248.97,-47.7 248,-54 246.99,-60.59 247.68,-62.34 248,-69 250.22,-115.83 253.63,-127.33 258,-174 263.87,-236.66 268.11,-252.13 271,-315 271.34,-322.34 271.34,-330.3 271.2,-337.65"/>
<polygon fill="black" stroke="black" points="267.69,-337.77 270.9,-347.87 274.69,-337.97 267.69,-337.77"/>
<text text-anchor="middle" x="268.5" y="-188.3" font-family="Times,serif" font-size="14.00">!y</text>
</g>
<!-- 5&#45;&gt;4 -->
<g id="edge17" class="edge">
<title>5&#45;&gt;4</title>
<path fill="none" stroke="black" d="M254.19,-35.49C252.14,-45.61 251.19,-58.58 256,-69 259.69,-77.01 266.22,-83.86 273,-89.33"/>
<polygon fill="black" stroke="black" points="271.36,-92.47 281.52,-95.49 275.47,-86.79 271.36,-92.47"/>
<text text-anchor="middle" x="263.5" y="-57.8" font-family="Times,serif" font-size="14.00">!x</text>
</g>
<!-- 1&#45;&gt;0 -->
<g id="edge20" class="edge">
<title>1&#45;&gt;0</title>
<path fill="none" stroke="black" d="M466.87,-297.01C467.08,-307.86 465.34,-321.44 457,-330 435.35,-352.23 344.77,-360.68 298.09,-363.61"/>
<polygon fill="black" stroke="black" points="297.81,-360.12 288.03,-364.19 298.22,-367.1 297.81,-360.12"/>
<text text-anchor="middle" x="471.5" y="-318.8" font-family="Times,serif" font-size="14.00">!x</text>
</g>
</g>
</svg>
