<?xml version="1.0" encoding="UTF-8" standalone="no"?>
<!DOCTYPE svg PUBLIC "-//W3C//DTD SVG 1.1//EN"
 "http://www.w3.org/Graphics/SVG/1.1/DTD/svg11.dtd">
<!-- Generated by graphviz version 2.43.0 (0)
 -->
<!-- Title: %3 Pages: 1 -->
<svg width="386pt" height="1060pt"
 viewBox="0.00 0.00 385.88 1060.03" xmlns="http://www.w3.org/2000/svg" xmlns:xlink="http://www.w3.org/1999/xlink">
<g id="graph0" class="graph" transform="scale(1 1) rotate(0) translate(4 1056.03)">
<title>%3</title>
<polygon fill="white" stroke="transparent" points="-4,4 -4,-1056.03 381.88,-1056.03 381.88,4 -4,4"/>
<!-- ENTRY -->
<g id="node1" class="node">
<title>ENTRY</title>
<ellipse fill="black" stroke="black" cx="107.48" cy="-1050.23" rx="1.8" ry="1.8"/>
</g>
<!-- 0 -->
<g id="node5" class="node">
<title>0</title>
<ellipse fill="none" stroke="black" cx="107.48" cy="-903.95" rx="107.46" ry="107.46"/>
<text text-anchor="middle" x="107.48" y="-915.25" font-family="Times,serif" font-size="14.00">0 &lt; Eps.0</text>
<text text-anchor="middle" x="107.48" y="-900.25" font-family="Times,serif" font-size="14.00">{b}.{b}.{b}.{b}.8</text>
<text text-anchor="middle" x="107.48" y="-885.25" font-family="Times,serif" font-size="14.00">{b}.{b}.10</text>
</g>
<!-- ENTRY&#45;&gt;0 -->
<g id="edge1" class="edge">
<title>ENTRY&#45;&gt;0</title>
<path fill="none" stroke="black" d="M107.48,-1048.31C107.48,-1045.33 107.48,-1035.4 107.48,-1022.05"/>
<polygon fill="black" stroke="black" points="110.98,-1021.78 107.48,-1011.78 103.98,-1021.78 110.98,-1021.78"/>
</g>
<!-- 3 -->
<g id="node2" class="node">
<title>3</title>
<ellipse fill="none" stroke="black" cx="107.48" cy="-107.48" rx="107.46" ry="107.46"/>
<text text-anchor="middle" x="107.48" y="-118.78" font-family="Times,serif" font-size="14.00">3 &lt; {b}.{b}.9</text>
<text text-anchor="middle" x="107.48" y="-103.78" font-family="Times,serif" font-size="14.00">{b}.{b}.{b}.{b}.7</text>
<text text-anchor="middle" x="107.48" y="-88.78" font-family="Times,serif" font-size="14.00">Eps.11</text>
</g>
<!-- 3&#45;&gt;0 -->
<g id="edge2" class="edge">
<title>3&#45;&gt;0</title>
<path fill="none" stroke="black" d="M107.48,-215C107.48,-363.5 107.48,-631.79 107.48,-785.78"/>
<polygon fill="black" stroke="black" points="103.98,-786.21 107.48,-796.21 110.98,-786.21 103.98,-786.21"/>
<text text-anchor="middle" x="114.98" y="-546.56" font-family="Times,serif" font-size="14.00">!a</text>
</g>
<!-- 2 -->
<g id="node3" class="node">
<title>2</title>
<ellipse fill="none" stroke="black" cx="248.48" cy="-395.36" rx="129.3" ry="129.3"/>
<text text-anchor="middle" x="248.48" y="-406.66" font-family="Times,serif" font-size="14.00">2 &lt; {b}.{b}.{b}.9</text>
<text text-anchor="middle" x="248.48" y="-391.66" font-family="Times,serif" font-size="14.00">{b}.{b}.{b}.{b}.{b}.7</text>
<text text-anchor="middle" x="248.48" y="-376.66" font-family="Times,serif" font-size="14.00">{b}.11</text>
</g>
<!-- 2&#45;&gt;3 -->
<g id="edge3" class="edge">
<title>2&#45;&gt;3</title>
<path fill="none" stroke="black" d="M191.54,-278.91C180.84,-257.21 169.7,-234.64 159.17,-213.29"/>
<polygon fill="black" stroke="black" points="162.26,-211.64 154.7,-204.22 155.99,-214.74 162.26,-211.64"/>
<text text-anchor="middle" x="181.98" y="-236.76" font-family="Times,serif" font-size="14.00">?b</text>
</g>
<!-- 1 -->
<g id="node4" class="node">
<title>1</title>
<ellipse fill="none" stroke="black" cx="226.48" cy="-660.61" rx="84.71" ry="84.71"/>
<text text-anchor="middle" x="226.48" y="-671.91" font-family="Times,serif" font-size="14.00">1 &lt; {b}.10</text>
<text text-anchor="middle" x="226.48" y="-656.91" font-family="Times,serif" font-size="14.00">{b}.{b}.{b}.8</text>
<text text-anchor="middle" x="226.48" y="-641.91" font-family="Times,serif" font-size="14.00">Eps.1</text>
</g>
<!-- 1&#45;&gt;2 -->
<g id="edge4" class="edge">
<title>1&#45;&gt;2</title>
<path fill="none" stroke="black" d="M233.47,-575.96C234.57,-562.75 235.74,-548.8 236.92,-534.75"/>
<polygon fill="black" stroke="black" points="240.43,-534.76 237.77,-524.5 233.45,-534.18 240.43,-534.76"/>
<text text-anchor="middle" x="242.98" y="-546.56" font-family="Times,serif" font-size="14.00">!a</text>
</g>
<!-- 0&#45;&gt;1 -->
<g id="edge5" class="edge">
<title>0&#45;&gt;1</title>
<path fill="none" stroke="black" d="M154.68,-807.22C164.6,-787.11 174.99,-766.04 184.69,-746.36"/>
<polygon fill="black" stroke="black" points="187.96,-747.65 189.24,-737.13 181.68,-744.55 187.96,-747.65"/>
<text text-anchor="middle" x="181.98" y="-767.27" font-family="Times,serif" font-size="14.00">?b</text>
</g>
</g>
</svg>
