<?xml version="1.0" encoding="UTF-8" standalone="no"?>
<!DOCTYPE svg PUBLIC "-//W3C//DTD SVG 1.1//EN"
 "http://www.w3.org/Graphics/SVG/1.1/DTD/svg11.dtd">
<!-- Generated by graphviz version 2.43.0 (0)
 -->
<!-- Title: %3 Pages: 1 -->
<svg width="97pt" height="1061pt"
 viewBox="0.00 0.00 96.75 1060.59" xmlns="http://www.w3.org/2000/svg" xmlns:xlink="http://www.w3.org/1999/xlink">
<g id="graph0" class="graph" transform="scale(1 1) rotate(0) translate(4 1056.59)">
<title>%3</title>
<polygon fill="white" stroke="transparent" points="-4,4 -4,-1056.59 92.75,-1056.59 92.75,4 -4,4"/>
<!-- ENTRY -->
<g id="node1" class="node">
<title>ENTRY</title>
<ellipse fill="black" stroke="black" cx="50.75" cy="-1050.79" rx="1.8" ry="1.8"/>
</g>
<!-- 0 -->
<g id="node2" class="node">
<title>0</title>
<ellipse fill="none" stroke="black" cx="50.75" cy="-993.99" rx="18" ry="18"/>
<text text-anchor="middle" x="50.75" y="-990.29" font-family="Times,serif" font-size="14.00">0</text>
</g>
<!-- ENTRY&#45;&gt;0 -->
<g id="edge1" class="edge">
<title>ENTRY&#45;&gt;0</title>
<path fill="none" stroke="black" d="M50.75,-1048.84C50.75,-1045.48 50.75,-1033.72 50.75,-1022.04"/>
<polygon fill="black" stroke="black" points="54.25,-1022.02 50.75,-1012.02 47.25,-1022.02 54.25,-1022.02"/>
</g>
<!-- 1 -->
<g id="node3" class="node">
<title>1</title>
<ellipse fill="none" stroke="black" cx="27.75" cy="-906.99" rx="18" ry="18"/>
<text text-anchor="middle" x="27.75" y="-903.29" font-family="Times,serif" font-size="14.00">1</text>
</g>
<!-- 0&#45;&gt;1 -->
<g id="edge2" class="edge">
<title>0&#45;&gt;1</title>
<path fill="none" stroke="black" d="M46.2,-976.2C42.97,-964.25 38.56,-947.95 34.86,-934.28"/>
<polygon fill="black" stroke="black" points="38.19,-933.2 32.2,-924.46 31.44,-935.03 38.19,-933.2"/>
<text text-anchor="middle" x="49.25" y="-946.79" font-family="Times,serif" font-size="14.00">?b</text>
</g>
<!-- 2 -->
<g id="node4" class="node">
<title>2</title>
<ellipse fill="none" stroke="black" cx="27.75" cy="-819.99" rx="18" ry="18"/>
<text text-anchor="middle" x="27.75" y="-816.29" font-family="Times,serif" font-size="14.00">2</text>
</g>
<!-- 1&#45;&gt;2 -->
<g id="edge3" class="edge">
<title>1&#45;&gt;2</title>
<path fill="none" stroke="black" d="M27.75,-888.79C27.75,-877.15 27.75,-861.54 27.75,-848.23"/>
<polygon fill="black" stroke="black" points="31.25,-848.17 27.75,-838.17 24.25,-848.17 31.25,-848.17"/>
<text text-anchor="middle" x="36.25" y="-859.79" font-family="Times,serif" font-size="14.00">?b</text>
</g>
<!-- 3 -->
<g id="node5" class="node">
<title>3</title>
<ellipse fill="none" stroke="black" cx="27.75" cy="-732.99" rx="18" ry="18"/>
<text text-anchor="middle" x="27.75" y="-729.29" font-family="Times,serif" font-size="14.00">3</text>
</g>
<!-- 2&#45;&gt;3 -->
<g id="edge4" class="edge">
<title>2&#45;&gt;3</title>
<path fill="none" stroke="black" d="M27.75,-801.79C27.75,-790.15 27.75,-774.54 27.75,-761.23"/>
<polygon fill="black" stroke="black" points="31.25,-761.17 27.75,-751.17 24.25,-761.17 31.25,-761.17"/>
<text text-anchor="middle" x="36.25" y="-772.79" font-family="Times,serif" font-size="14.00">?b</text>
</g>
<!-- 4 -->
<g id="node6" class="node">
<title>4</title>
<ellipse fill="none" stroke="black" cx="27.75" cy="-645.99" rx="18" ry="18"/>
<text text-anchor="middle" x="27.75" y="-642.29" font-family="Times,serif" font-size="14.00">4</text>
</g>
<!-- 3&#45;&gt;4 -->
<g id="edge5" class="edge">
<title>3&#45;&gt;4</title>
<path fill="none" stroke="black" d="M27.75,-714.79C27.75,-703.15 27.75,-687.54 27.75,-674.23"/>
<polygon fill="black" stroke="black" points="31.25,-674.17 27.75,-664.17 24.25,-674.17 31.25,-674.17"/>
<text text-anchor="middle" x="36.25" y="-685.79" font-family="Times,serif" font-size="14.00">?b</text>
</g>
<!-- 5 -->
<g id="node7" class="node">
<title>5</title>
<ellipse fill="none" stroke="black" cx="27.75" cy="-558.99" rx="18" ry="18"/>
<text text-anchor="middle" x="27.75" y="-555.29" font-family="Times,serif" font-size="14.00">5</text>
</g>
<!-- 4&#45;&gt;5 -->
<g id="edge6" class="edge">
<title>4&#45;&gt;5</title>
<path fill="none" stroke="black" d="M27.75,-627.79C27.75,-616.15 27.75,-600.54 27.75,-587.23"/>
<polygon fill="black" stroke="black" points="31.25,-587.17 27.75,-577.17 24.25,-587.17 31.25,-587.17"/>
<text text-anchor="middle" x="36.25" y="-598.79" font-family="Times,serif" font-size="14.00">?b</text>
</g>
<!-- 6 -->
<g id="node8" class="node">
<title>6</title>
<ellipse fill="none" stroke="black" cx="27.75" cy="-471.99" rx="18" ry="18"/>
<text text-anchor="middle" x="27.75" y="-468.29" font-family="Times,serif" font-size="14.00">6</text>
</g>
<!-- 5&#45;&gt;6 -->
<g id="edge7" class="edge">
<title>5&#45;&gt;6</title>
<path fill="none" stroke="black" d="M27.75,-540.79C27.75,-529.15 27.75,-513.54 27.75,-500.23"/>
<polygon fill="black" stroke="black" points="31.25,-500.17 27.75,-490.17 24.25,-500.17 31.25,-500.17"/>
<text text-anchor="middle" x="36.25" y="-511.79" font-family="Times,serif" font-size="14.00">?b</text>
</g>
<!-- 7 -->
<g id="node9" class="node">
<title>7</title>
<ellipse fill="none" stroke="black" cx="27.75" cy="-384.99" rx="18" ry="18"/>
<text text-anchor="middle" x="27.75" y="-381.29" font-family="Times,serif" font-size="14.00">7</text>
</g>
<!-- 6&#45;&gt;7 -->
<g id="edge8" class="edge">
<title>6&#45;&gt;7</title>
<path fill="none" stroke="black" d="M27.75,-453.79C27.75,-442.15 27.75,-426.54 27.75,-413.23"/>
<polygon fill="black" stroke="black" points="31.25,-413.17 27.75,-403.17 24.25,-413.17 31.25,-413.17"/>
<text text-anchor="middle" x="35.25" y="-424.79" font-family="Times,serif" font-size="14.00">!a</text>
</g>
<!-- 8 -->
<g id="node10" class="node">
<title>8</title>
<ellipse fill="none" stroke="black" cx="27.75" cy="-297.99" rx="18" ry="18"/>
<text text-anchor="middle" x="27.75" y="-294.29" font-family="Times,serif" font-size="14.00">8</text>
</g>
<!-- 7&#45;&gt;8 -->
<g id="edge9" class="edge">
<title>7&#45;&gt;8</title>
<path fill="none" stroke="black" d="M27.75,-366.79C27.75,-355.15 27.75,-339.54 27.75,-326.23"/>
<polygon fill="black" stroke="black" points="31.25,-326.17 27.75,-316.17 24.25,-326.17 31.25,-326.17"/>
<text text-anchor="middle" x="35.25" y="-337.79" font-family="Times,serif" font-size="14.00">!a</text>
</g>
<!-- 9 -->
<g id="node11" class="node">
<title>9</title>
<ellipse fill="none" stroke="black" cx="25.75" cy="-210.99" rx="18" ry="18"/>
<text text-anchor="middle" x="25.75" y="-207.29" font-family="Times,serif" font-size="14.00">9</text>
</g>
<!-- 8&#45;&gt;9 -->
<g id="edge10" class="edge">
<title>8&#45;&gt;9</title>
<path fill="none" stroke="black" d="M27.34,-279.79C27.07,-268.15 26.7,-252.54 26.39,-239.23"/>
<polygon fill="black" stroke="black" points="29.89,-239.08 26.15,-229.17 22.89,-239.25 29.89,-239.08"/>
<text text-anchor="middle" x="35.25" y="-250.79" font-family="Times,serif" font-size="14.00">!a</text>
</g>
<!-- 10 -->
<g id="node12" class="node">
<title>10</title>
<ellipse fill="none" stroke="black" cx="22.75" cy="-119.24" rx="23" ry="23"/>
<text text-anchor="middle" x="22.75" y="-115.54" font-family="Times,serif" font-size="14.00">10</text>
</g>
<!-- 9&#45;&gt;10 -->
<g id="edge11" class="edge">
<title>9&#45;&gt;10</title>
<path fill="none" stroke="black" d="M25.17,-192.69C24.79,-181.35 24.28,-166.19 23.83,-152.66"/>
<polygon fill="black" stroke="black" points="27.32,-152.15 23.48,-142.27 20.32,-152.38 27.32,-152.15"/>
<text text-anchor="middle" x="32.25" y="-163.79" font-family="Times,serif" font-size="14.00">!a</text>
</g>
<!-- 11 -->
<g id="node13" class="node">
<title>11</title>
<ellipse fill="none" stroke="black" cx="57.75" cy="-22.75" rx="23" ry="23"/>
<text text-anchor="middle" x="57.75" y="-19.05" font-family="Times,serif" font-size="14.00">11</text>
</g>
<!-- 10&#45;&gt;11 -->
<g id="edge12" class="edge">
<title>10&#45;&gt;11</title>
<path fill="none" stroke="black" d="M30.34,-97.74C35.11,-84.86 41.35,-68.03 46.66,-53.68"/>
<polygon fill="black" stroke="black" points="49.98,-54.81 50.17,-44.21 43.41,-52.37 49.98,-54.81"/>
<text text-anchor="middle" x="50.25" y="-67.3" font-family="Times,serif" font-size="14.00">!a</text>
</g>
<!-- 11&#45;&gt;0 -->
<g id="edge13" class="edge">
<title>11&#45;&gt;0</title>
<path fill="none" stroke="black" d="M63.43,-44.97C68.03,-64.01 73.75,-92.79 73.75,-118.24 73.75,-907.99 73.75,-907.99 73.75,-907.99 73.75,-928.63 67.35,-951.13 61.31,-967.8"/>
<polygon fill="black" stroke="black" points="57.96,-966.76 57.65,-977.35 64.49,-969.27 57.96,-966.76"/>
<text text-anchor="middle" x="81.25" y="-511.79" font-family="Times,serif" font-size="14.00">!a</text>
</g>
</g>
</svg>
