<?xml version="1.0" encoding="UTF-8" standalone="no"?>
<!DOCTYPE svg PUBLIC "-//W3C//DTD SVG 1.1//EN"
 "http://www.w3.org/Graphics/SVG/1.1/DTD/svg11.dtd">
<!-- Generated by graphviz version 2.43.0 (0)
 -->
<!-- Title: %3 Pages: 1 -->
<svg width="264pt" height="1012pt"
 viewBox="0.00 0.00 263.94 1012.32" xmlns="http://www.w3.org/2000/svg" xmlns:xlink="http://www.w3.org/1999/xlink">
<g id="graph0" class="graph" transform="scale(1 1) rotate(0) translate(4 1008.32)">
<title>%3</title>
<polygon fill="white" stroke="transparent" points="-4,4 -4,-1008.32 259.94,-1008.32 259.94,4 -4,4"/>
<!-- ENTRY -->
<g id="node1" class="node">
<title>ENTRY</title>
<ellipse fill="black" stroke="black" cx="129.39" cy="-1002.52" rx="1.8" ry="1.8"/>
</g>
<!-- 0 -->
<g id="node10" class="node">
<title>0</title>
<ellipse fill="none" stroke="black" cx="129.39" cy="-907.17" rx="56.59" ry="56.59"/>
<text text-anchor="middle" x="129.39" y="-903.47" font-family="Times,serif" font-size="14.00">0 &lt; Eps.0</text>
</g>
<!-- ENTRY&#45;&gt;0 -->
<g id="edge1" class="edge">
<title>ENTRY&#45;&gt;0</title>
<path fill="none" stroke="black" d="M129.39,-1000.47C129.39,-997.21 129.39,-986.72 129.39,-973.91"/>
<polygon fill="black" stroke="black" points="132.89,-973.75 129.39,-963.75 125.89,-973.75 132.89,-973.75"/>
</g>
<!-- 2 -->
<g id="node2" class="node">
<title>2</title>
<ellipse fill="none" stroke="black" cx="129.39" cy="-565.49" rx="61.54" ry="61.54"/>
<text text-anchor="middle" x="129.39" y="-569.29" font-family="Times,serif" font-size="14.00">2 &lt; {b}.3</text>
<text text-anchor="middle" x="129.39" y="-554.29" font-family="Times,serif" font-size="14.00">{c}.8</text>
</g>
<!-- 6 -->
<g id="node3" class="node">
<title>6</title>
<ellipse fill="none" stroke="black" cx="64.39" cy="-396.42" rx="56.59" ry="56.59"/>
<text text-anchor="middle" x="64.39" y="-392.72" font-family="Times,serif" font-size="14.00">6 &lt; Eps.8</text>
</g>
<!-- 2&#45;&gt;6 -->
<g id="edge4" class="edge">
<title>2&#45;&gt;6</title>
<path fill="none" stroke="black" d="M107.39,-507.93C101.29,-492.25 94.64,-475.15 88.43,-459.19"/>
<polygon fill="black" stroke="black" points="91.51,-457.48 84.63,-449.43 84.99,-460.01 91.51,-457.48"/>
<text text-anchor="middle" x="107.39" y="-474.77" font-family="Times,serif" font-size="14.00">?c</text>
</g>
<!-- 3 -->
<g id="node5" class="node">
<title>3</title>
<ellipse fill="none" stroke="black" cx="195.39" cy="-396.42" rx="56.59" ry="56.59"/>
<text text-anchor="middle" x="195.39" y="-392.72" font-family="Times,serif" font-size="14.00">3 &lt; Eps.3</text>
</g>
<!-- 2&#45;&gt;3 -->
<g id="edge7" class="edge">
<title>2&#45;&gt;3</title>
<path fill="none" stroke="black" d="M151.74,-507.93C157.99,-492.1 164.82,-474.83 171.17,-458.74"/>
<polygon fill="black" stroke="black" points="174.43,-460.01 174.85,-449.43 167.92,-457.44 174.43,-460.01"/>
<text text-anchor="middle" x="172.89" y="-474.77" font-family="Times,serif" font-size="14.00">?b</text>
</g>
<!-- 7 -->
<g id="node9" class="node">
<title>7</title>
<ellipse fill="none" stroke="black" cx="64.39" cy="-232.33" rx="56.59" ry="56.59"/>
<text text-anchor="middle" x="64.39" y="-228.63" font-family="Times,serif" font-size="14.00">7 &lt; Eps.9</text>
</g>
<!-- 6&#45;&gt;7 -->
<g id="edge2" class="edge">
<title>6&#45;&gt;7</title>
<path fill="none" stroke="black" d="M64.39,-339.64C64.39,-326.58 64.39,-312.54 64.39,-299.09"/>
<polygon fill="black" stroke="black" points="67.89,-298.94 64.39,-288.94 60.89,-298.94 67.89,-298.94"/>
<text text-anchor="middle" x="76.39" y="-310.68" font-family="Times,serif" font-size="14.00">!a3</text>
</g>
<!-- 5 -->
<g id="node4" class="node">
<title>5</title>
<ellipse fill="none" stroke="black" cx="199.39" cy="-62.39" rx="56.59" ry="56.59"/>
<text text-anchor="middle" x="199.39" y="-58.69" font-family="Times,serif" font-size="14.00">5 &lt; Eps.5</text>
</g>
<!-- 4 -->
<g id="node8" class="node">
<title>4</title>
<ellipse fill="none" stroke="black" cx="198.39" cy="-232.33" rx="56.59" ry="56.59"/>
<text text-anchor="middle" x="198.39" y="-228.63" font-family="Times,serif" font-size="14.00">4 &lt; Eps.4</text>
</g>
<!-- 3&#45;&gt;4 -->
<g id="edge3" class="edge">
<title>3&#45;&gt;4</title>
<path fill="none" stroke="black" d="M196.43,-339.64C196.67,-326.58 196.93,-312.54 197.18,-299.09"/>
<polygon fill="black" stroke="black" points="200.68,-299.01 197.37,-288.94 193.68,-298.88 200.68,-299.01"/>
<text text-anchor="middle" x="209.39" y="-310.68" font-family="Times,serif" font-size="14.00">!a3</text>
</g>
<!-- 1 -->
<g id="node6" class="node">
<title>1</title>
<ellipse fill="none" stroke="black" cx="129.39" cy="-738.82" rx="60.62" ry="60.62"/>
<text text-anchor="middle" x="129.39" y="-742.62" font-family="Times,serif" font-size="14.00">1 &lt; {c}.7</text>
<text text-anchor="middle" x="129.39" y="-727.62" font-family="Times,serif" font-size="14.00">{b}.2</text>
</g>
<!-- 1&#45;&gt;2 -->
<g id="edge6" class="edge">
<title>1&#45;&gt;2</title>
<path fill="none" stroke="black" d="M129.39,-677.89C129.39,-664.82 129.39,-650.87 129.39,-637.41"/>
<polygon fill="black" stroke="black" points="132.89,-637.25 129.39,-627.25 125.89,-637.25 132.89,-637.25"/>
<text text-anchor="middle" x="141.39" y="-648.81" font-family="Times,serif" font-size="14.00">!a2</text>
</g>
<!-- 8 -->
<g id="node7" class="node">
<title>8</title>
<ellipse fill="none" stroke="black" cx="62.39" cy="-62.39" rx="62.29" ry="62.29"/>
<text text-anchor="middle" x="62.39" y="-58.69" font-family="Times,serif" font-size="14.00">8 &lt; Eps.10</text>
</g>
<!-- 4&#45;&gt;5 -->
<g id="edge8" class="edge">
<title>4&#45;&gt;5</title>
<path fill="none" stroke="black" d="M198.73,-175.41C198.82,-160.68 198.91,-144.65 199,-129.44"/>
<polygon fill="black" stroke="black" points="202.5,-129.09 199.06,-119.07 195.5,-129.05 202.5,-129.09"/>
<text text-anchor="middle" x="210.39" y="-146.59" font-family="Times,serif" font-size="14.00">!x1</text>
</g>
<!-- 7&#45;&gt;8 -->
<g id="edge9" class="edge">
<title>7&#45;&gt;8</title>
<path fill="none" stroke="black" d="M63.73,-175.41C63.57,-162.49 63.41,-148.56 63.25,-135.06"/>
<polygon fill="black" stroke="black" points="66.75,-134.81 63.13,-124.85 59.75,-134.89 66.75,-134.81"/>
<text text-anchor="middle" x="76.39" y="-146.59" font-family="Times,serif" font-size="14.00">!x2</text>
</g>
<!-- 0&#45;&gt;1 -->
<g id="edge5" class="edge">
<title>0&#45;&gt;1</title>
<path fill="none" stroke="black" d="M129.39,-850.32C129.39,-837.38 129.39,-823.45 129.39,-809.99"/>
<polygon fill="black" stroke="black" points="132.89,-809.81 129.39,-799.81 125.89,-809.81 132.89,-809.81"/>
<text text-anchor="middle" x="141.39" y="-821.43" font-family="Times,serif" font-size="14.00">!a1</text>
</g>
</g>
</svg>
